<svg width="24" height="24" viewBox="0 0 24 24" fill="none" xmlns="http://www.w3.org/2000/svg">
<path d="M12 24C18.6274 24 24 18.6274 24 12C24 5.37258 18.6274 0 12 0C5.37258 0 0 5.37258 0 12C0 18.6274 5.37258 24 12 24Z" fill="#6916FF"/>
<path d="M12.858 4.818C12.8163 4.78792 12.7871 4.7436 12.7759 4.69342C12.7647 4.64324 12.7723 4.5907 12.7973 4.54575C12.8322 4.52336 12.8728 4.51146 12.9143 4.51146C12.9557 4.51146 12.9963 4.52336 13.0313 4.54575C13.5598 4.76517 14.0382 5.08974 14.4375 5.49975C14.6648 5.7105 14.8553 5.9565 15 6.22725C15.153 6.50325 15.2783 6.792 15.375 7.09125C15.4673 7.401 15.5153 7.72275 15.516 8.04525C15.4688 8.364 15.4223 9.909 14.5313 10.6365C14.4179 10.7047 14.2832 10.7285 14.1533 10.7033C14.0234 10.6781 13.9074 10.6057 13.8278 10.5C13.7641 10.4253 13.7254 10.3326 13.717 10.2348C13.7087 10.1371 13.7311 10.0391 13.7813 9.95475C14.1601 9.36831 14.3693 8.68854 14.3859 7.9906C14.4024 7.29265 14.2256 6.60373 13.875 6C13.575 5.5755 13.2345 5.18025 12.858 4.818V4.818ZM11.475 18.7545C11.5688 18.8452 11.5688 18.936 11.5223 18.9817C11.4758 19.0275 11.3813 19.0725 11.3348 19.0267C10.8062 18.8073 10.3278 18.4828 9.92851 18.0727C9.70194 17.8631 9.51185 17.6173 9.36601 17.3453C9.2133 17.0703 9.08771 16.7812 8.99101 16.482C8.89833 16.1722 8.85084 15.8506 8.85001 15.5272C8.89726 15.2092 8.94376 13.6635 9.83476 12.936C9.94809 12.868 10.0826 12.8444 10.2123 12.8696C10.342 12.8948 10.4579 12.967 10.5375 13.0725C10.6058 13.147 10.6436 13.2444 10.6436 13.3455C10.6436 13.4466 10.6058 13.544 10.5375 13.6185C10.1588 14.2049 9.94968 14.8845 9.93314 15.5823C9.91659 16.2801 10.0933 16.9689 10.4438 17.5725C10.7475 17.9977 11.0933 18.3937 11.475 18.7545V18.7545Z" fill="white" fill-opacity="0.5"/>
<path d="M15.5205 15.0045C15.4526 14.1319 15.1076 13.3039 14.5358 12.6413C13.9569 12.0595 13.2931 11.5689 12.567 11.1863C11.9337 10.8362 11.337 10.4236 10.7858 9.95475C10.3324 9.5287 10.0216 8.9732 9.89551 8.364C9.78357 7.73502 9.86354 7.08691 10.125 6.504C10.4383 5.8555 10.8875 5.28202 11.442 4.8225C11.4732 4.79469 11.4946 4.75759 11.5031 4.71667C11.5116 4.67576 11.5068 4.63319 11.4893 4.59525C11.4759 4.57133 11.4573 4.55076 11.4348 4.53506C11.4123 4.51937 11.3866 4.50897 11.3595 4.50464C11.3325 4.50031 11.3048 4.50216 11.2785 4.51006C11.2523 4.51796 11.2282 4.5317 11.208 4.55025C10.461 4.87612 9.82548 5.41311 9.37951 6.09525C8.88075 6.81188 8.64712 7.67983 8.71876 8.55C8.75626 8.98875 8.86651 9.4185 9.04726 9.82275C9.24151 10.2203 9.49351 10.5878 9.79726 10.914C10.3898 11.481 11.07 11.9565 11.8125 12.3225C12.4485 12.6525 13.0463 13.0493 13.5938 13.5045C14.0754 13.9271 14.3912 14.5071 14.4848 15.141C14.6168 15.8003 14.5343 16.4835 14.25 17.0955C13.931 17.7398 13.4652 18.3003 12.8903 18.732C12.8712 18.7429 12.8548 18.7578 12.8419 18.7755C12.829 18.7933 12.8201 18.8135 12.8156 18.835C12.8111 18.8565 12.8113 18.8787 12.816 18.9001C12.8207 18.9215 12.8299 18.9417 12.843 18.9593C12.8693 19.0073 12.918 19.0418 12.9728 19.05C13.0275 19.0583 13.0845 19.0425 13.125 19.005C13.8219 18.6026 14.4283 18.0609 14.9063 17.4135C15.3713 16.695 15.5858 15.8505 15.5205 15.0045V15.0045Z" fill="white"/>
</svg>
