<svg width="24" height="24" viewBox="0 0 24 24" fill="none" xmlns="http://www.w3.org/2000/svg">
<path d="M12 24C18.6274 24 24 18.6274 24 12C24 5.37258 18.6274 0 12 0C5.37258 0 0 5.37258 0 12C0 18.6274 5.37258 24 12 24Z" fill="#1F4C9F"/>
<path fill-rule="evenodd" clip-rule="evenodd" d="M4.5 14.4375L12 4.875L19.5 14.4375V17.625L12 8.0625L4.5 17.625V14.4375ZM12.375 15.375C11.8777 15.375 11.4008 15.1775 11.0492 14.8258C10.6975 14.4742 10.5 13.9973 10.5 13.5C10.5 13.0027 10.6975 12.5258 11.0492 12.1742C11.4008 11.8225 11.8777 11.625 12.375 11.625C12.8723 11.625 13.3492 11.8225 13.7008 12.1742C14.0525 12.5258 14.25 13.0027 14.25 13.5C14.25 13.9973 14.0525 14.4742 13.7008 14.8258C13.3492 15.1775 12.8723 15.375 12.375 15.375V15.375Z" fill="white"/>
</svg>
