<svg width="24" height="24" viewBox="0 0 24 24" fill="none" xmlns="http://www.w3.org/2000/svg">
<path d="M12 24C18.6274 24 24 18.6274 24 12C24 5.37258 18.6274 0 12 0C5.37258 0 0 5.37258 0 12C0 18.6274 5.37258 24 12 24Z" fill="#F7931C"/>
<path d="M5.51326 14.49C5.50726 12.231 7.09801 10.335 9.37351 9.90826C9.56851 9.87226 9.62401 9.80701 9.61876 9.61651C9.6064 9.10933 9.6064 8.60193 9.61876 8.09476C9.62251 7.91251 9.56476 7.80376 9.40801 7.70176C8.86126 7.34551 8.63776 6.69751 8.83801 6.11476C8.93429 5.81991 9.12536 5.56516 9.38146 5.39017C9.63756 5.21519 9.94433 5.12978 10.254 5.14726C10.8315 5.17426 11.3603 5.60401 11.5163 6.17476C11.6738 6.74776 11.4548 7.37101 10.9463 7.69426C10.7663 7.80826 10.71 7.92301 10.716 8.12701C10.731 8.63401 10.7258 9.14101 10.719 9.64876C10.7168 9.79576 10.7385 9.87451 10.9133 9.89701C11.2455 9.94126 11.5703 10.0305 11.8778 10.1625C11.9933 10.212 12.0555 10.182 12.1328 10.0965C13.209 8.91076 14.289 7.72726 15.3713 6.54676C15.483 6.42526 15.4508 6.34201 15.3998 6.21676C15.1358 5.56576 15.2903 4.86301 15.7883 4.39801C16.2428 3.97426 16.9943 3.85351 17.5373 4.11676C18.1763 4.42651 18.5273 5.02051 18.4838 5.71801C18.4253 6.65101 17.5178 7.35376 16.5968 7.16251C16.41 7.12351 16.302 7.16851 16.1813 7.30201C15.1795 8.40932 14.1734 9.51283 13.1633 10.6125C13.041 10.7453 13.0238 10.8165 13.176 10.9485C14.829 12.39 15.279 14.562 14.337 16.5405C14.2658 16.6905 14.2815 16.776 14.397 16.8855C14.6723 17.1473 14.9385 17.418 15.2025 17.6918C15.3075 17.8005 15.4058 17.829 15.5618 17.7893C16.1693 17.6363 16.7993 17.9093 17.1023 18.4365C17.2524 18.6974 17.3144 18.9998 17.2792 19.2988C17.2439 19.5978 17.1132 19.8774 16.9065 20.0963C16.491 20.538 15.8123 20.6663 15.285 20.4023C14.709 20.1143 14.391 19.4985 14.5275 18.8663C14.5673 18.6848 14.5253 18.5813 14.4038 18.4665C14.1801 18.255 13.9632 18.0364 13.7535 17.811C13.6313 17.679 13.5555 17.6768 13.416 17.808C11.9918 19.1355 10.3403 19.479 8.51776 18.831C6.70576 18.1883 5.51851 16.4265 5.51326 14.4908" fill="#FEFDFC"/>
</svg>
