<svg width="24" height="24" viewBox="0 0 24 24" fill="none" xmlns="http://www.w3.org/2000/svg">
<path d="M12 24C18.6274 24 24 18.6274 24 12C24 5.37258 18.6274 0 12 0C5.37258 0 0 5.37258 0 12C0 18.6274 5.37258 24 12 24Z" fill="#FCC339"/>
<path d="M16.9387 7.2705L16.9965 7.39875L14.706 8.45025L15.7365 11.8628L19.1273 10.1505L19.1722 10.2397L19.1857 10.2232L16.989 7.29375L16.9387 7.2705ZM16.815 7.21275L14.7352 6.24525H9.357L7.1355 7.26525L9.4455 8.23725H14.583L16.815 7.21275ZM6.9495 7.45275L4.86975 10.1535L8.25525 11.8635L9.29025 8.4375L6.9495 7.45275ZM9.5295 8.4825L8.46075 12.0225L11.9955 18.2715L15.531 12.0225L14.4615 8.4825H9.5295ZM18.9135 10.5323L15.75 12.1305L12.5963 17.7053L18.9135 10.5323ZM11.3782 17.6752L8.24175 12.1305L5.09475 10.5413L11.3782 17.6752ZM4.82325 10.2322L4.848 10.182L4.81575 10.224L4.82325 10.2322ZM6.9165 7.0965L9.30375 6H14.7877L17.1458 7.0965L19.5 10.236L12 18.75L4.5 10.2345L6.9165 7.0965ZM13.8173 11.1255C13.8615 11.5807 13.6733 11.8545 13.3718 12.0098C13.8675 12.1298 14.178 12.4282 14.1165 13.0972C14.0415 13.9267 13.4303 14.1488 12.5573 14.1998V15.072H12.0383V14.2117C11.9033 14.2117 11.766 14.2103 11.6235 14.2073V15.072H11.1053V14.1975C10.9838 14.1968 10.86 14.1945 10.734 14.1945H10.059L10.1617 13.5668C10.1617 13.5668 10.5458 13.5728 10.539 13.5668C10.686 13.5668 10.725 13.4595 10.734 13.3928V12.015H10.7895C10.7711 12.0125 10.7526 12.0112 10.734 12.0112V11.028C10.7145 10.9208 10.6462 10.7977 10.4355 10.797C10.4422 10.7895 10.059 10.797 10.059 10.797V10.236H10.7745V10.239C10.8825 10.239 10.992 10.2367 11.1045 10.2345V9.37125H11.6242V10.218C11.7622 10.215 11.9018 10.212 12.0383 10.212V9.372L12.5573 9.37125V10.2345C13.2278 10.2945 13.758 10.503 13.8173 11.1255V11.1255ZM13.0912 12.993C13.0912 12.312 11.988 12.4147 11.6363 12.4147V13.572C11.988 13.572 13.0912 13.6455 13.0912 12.993ZM12.8497 11.3603C12.8497 10.7408 11.9288 10.8352 11.6363 10.8352V11.8853C11.9288 11.8853 12.8497 11.9543 12.8497 11.3603V11.3603Z" fill="white"/>
</svg>
