<svg width="24" height="24" viewBox="0 0 24 24" fill="none" xmlns="http://www.w3.org/2000/svg">
<path d="M12 24C18.6274 24 24 18.6274 24 12C24 5.37258 18.6274 0 12 0C5.37258 0 0 5.37258 0 12C0 18.6274 5.37258 24 12 24Z" fill="#13A0F6"/>
<path fill-rule="evenodd" clip-rule="evenodd" d="M6.22276 8.676C5.92919 8.52202 5.68336 8.29064 5.51189 8.00693C5.34042 7.72322 5.24986 7.398 5.25001 7.0665C5.12183 6.82344 5.0506 6.55441 5.04172 6.27976C5.03284 6.00511 5.08654 5.73204 5.19876 5.48121C5.31098 5.23038 5.47878 5.00836 5.68947 4.83194C5.90015 4.65553 6.1482 4.52934 6.41484 4.46293C6.68149 4.39651 6.95974 4.39162 7.22856 4.44861C7.49738 4.50559 7.74971 4.62298 7.96647 4.79187C8.18323 4.96076 8.35874 5.17674 8.47972 5.42347C8.6007 5.6702 8.66397 5.94121 8.66476 6.216C9.68885 5.61712 10.8542 5.3023 12.0405 5.304C15.7455 5.304 18.75 8.3145 18.75 12.027C18.75 15.7395 15.7463 18.75 12.0405 18.75C8.33477 18.75 5.33101 15.7402 5.33101 12.027C5.32929 10.8511 5.63682 9.69548 6.22276 8.676V8.676ZM12.0405 15.3345C13.863 15.3345 15.3405 13.854 15.3405 12.027C15.3405 10.2 13.863 8.7195 12.0405 8.7195C10.218 8.7195 8.74051 10.2007 8.74051 12.027C8.74051 13.8532 10.218 15.3345 12.0405 15.3345Z" fill="white"/>
</svg>
