<svg width="24" height="24" viewBox="0 0 24 24" fill="none" xmlns="http://www.w3.org/2000/svg">
<path d="M12 24C18.6274 24 24 18.6274 24 12C24 5.37258 18.6274 0 12 0C5.37258 0 0 5.37258 0 12C0 18.6274 5.37258 24 12 24Z" fill="#3089F2"/>
<path d="M16.2203 13.4085C15.9038 13.6808 15.6203 13.923 15.3398 14.1683C15.3083 14.196 15.2768 14.2455 15.2768 14.2853C15.2723 14.7638 15.2738 15.2415 15.2738 15.7365C15.9945 15.432 16.371 14.5065 16.2203 13.4085V13.4085ZM15.3518 10.4858C16.155 10.0073 16.2503 9.84151 16.2533 8.89201C16.2533 8.81701 16.2555 8.74276 16.2525 8.66851C16.218 7.79626 15.621 7.02601 14.7945 6.84151C14.052 6.67651 13.3035 6.53926 12.5535 6.41251C12.1718 6.34726 11.781 6.29176 11.3963 6.30451C10.9305 6.31951 10.5503 6.56401 10.2 6.96301C11.049 7.12126 11.8373 7.28401 12.6308 7.41301C13.7205 7.59001 14.5523 8.13676 15.0068 9.17851C15.183 9.58276 15.2393 10.041 15.3518 10.4858V10.4858ZM8.7345 8.22976C8.0895 8.63026 7.7715 9.17326 7.76175 9.84826C7.73625 11.6708 7.7415 13.4933 7.7565 15.3158C7.764 16.1985 8.34675 16.9553 9.18825 17.1608C9.90825 17.3363 10.6448 17.4443 11.3738 17.5853C11.8358 17.6753 12.2933 17.8118 12.7703 17.6933C13.1603 17.5958 13.5083 17.4315 13.7828 17.046C12.9083 16.8818 12.087 16.701 11.2575 16.578C9.83775 16.3673 8.73675 15.1095 8.73525 13.6455C8.733 11.9715 8.7345 10.2983 8.7345 8.62426V8.22976V8.22976ZM9.738 7.96651C9.729 8.15176 9.7155 8.28976 9.7155 8.42776C9.714 10.1123 9.7125 11.7968 9.7155 13.4813C9.71775 14.5883 10.3868 15.3833 11.4495 15.5693C12.2175 15.7043 12.9825 15.8543 13.749 15.9968C13.8023 16.0065 13.8563 16.0118 13.9103 16.0178C14.274 16.0583 14.2868 16.0515 14.289 15.687C14.2928 15.1283 14.274 14.5695 14.3003 14.0123C14.3078 13.8473 14.391 13.6395 14.5103 13.5338C15.1185 12.9915 15.75 12.4763 16.3733 11.9513C16.5428 11.8088 16.7168 11.7113 16.9448 11.8215C17.1855 11.9378 17.2485 12.1388 17.2448 12.3915C17.2358 13.0245 17.2493 13.6583 17.2298 14.2898C17.193 15.4313 16.365 16.5548 15.3023 16.9148C15.2122 16.9424 15.1286 16.9879 15.0565 17.0484C14.9844 17.109 14.9251 17.1834 14.8823 17.2673C14.2275 18.4298 13.1055 18.8783 11.9033 18.7193C10.9178 18.588 9.93975 18.3803 8.96625 18.1718C7.71225 17.9033 6.786 16.7363 6.76575 15.3398C6.73875 13.4603 6.74775 11.58 6.78 9.70126C6.7995 8.52676 7.6725 7.43626 8.7795 7.07626C8.90269 7.03068 9.00683 6.94477 9.075 6.83251C9.8175 5.54401 11.0235 5.02126 12.4568 5.34226C13.2518 5.52001 14.061 5.63701 14.8605 5.79976C16.2795 6.08926 17.2275 7.26076 17.2463 8.73526C17.2515 9.15451 17.2545 9.57376 17.2313 9.99151C17.2245 10.1243 17.166 10.2938 17.0715 10.377C16.3913 10.977 15.7028 11.568 14.997 12.1365C14.8883 12.2243 14.6445 12.2445 14.523 12.1793C14.4038 12.1148 14.3033 11.9055 14.295 11.754C14.2658 11.2538 14.3213 10.746 14.2725 10.2488C14.175 9.25201 13.4963 8.59351 12.4733 8.42326C11.6603 8.28826 10.8488 8.14201 10.0365 8.00251C9.9495 7.98751 9.861 7.98076 9.738 7.96651V7.96651Z" fill="white"/>
</svg>
