<svg width="24" height="24" viewBox="0 0 24 24" fill="none" xmlns="http://www.w3.org/2000/svg">
<path d="M12 24C18.6274 24 24 18.6274 24 12C24 5.37258 18.6274 0 12 0C5.37258 0 0 5.37258 0 12C0 18.6274 5.37258 24 12 24Z" fill="#598182"/>
<path fill-rule="evenodd" clip-rule="evenodd" d="M10.161 19.056C10.795 18.2368 11.429 17.4175 12.063 16.5983C12.7748 16.7093 13.476 16.6463 14.1465 16.3553C14.3888 16.2503 14.6055 16.0868 14.8335 15.9488C14.8658 15.9293 14.8958 15.9038 14.9205 15.885L17.2245 18.1635C17.0333 18.291 16.8435 18.429 16.6418 18.5475C15.8612 19 15.0008 19.2979 14.1075 19.425C13.578 19.5045 13.0463 19.5135 12.516 19.485C11.7153 19.4482 10.9232 19.3039 10.161 19.056V19.056ZM9.43651 18.774C9.18301 18.6608 8.93401 18.5325 8.68951 18.3885C7.42426 17.6438 6.50176 16.602 5.90701 15.276C5.60445 14.5944 5.4055 13.8714 5.31676 13.131C5.24711 12.5567 5.23155 11.9772 5.27026 11.4C5.36251 9.91876 5.81326 8.55751 6.72151 7.35976C7.56001 6.25426 8.66101 5.49751 9.96376 5.01226C10.5818 4.77769 11.2291 4.62881 11.8875 4.56976C12.3848 4.52701 12.8873 4.48426 13.3845 4.50601C13.692 4.51876 13.9943 4.54876 14.292 4.59601C13.649 5.52951 13.006 6.46301 12.363 7.39651C11.7197 7.45042 11.0992 7.66049 10.5555 8.00851C9.55801 8.64151 8.96101 9.55351 8.68051 10.6785C8.56149 11.1525 8.50699 11.6404 8.51851 12.129C8.52526 12.3855 8.54701 12.6368 8.58526 12.882L8.35426 13.2173C8.16826 13.4873 8.39701 13.8443 8.72776 13.8008L8.81176 13.7903C9.00526 14.337 9.29851 14.8478 9.70426 15.3165C9.95626 15.606 10.2375 15.849 10.5473 16.044L9.46351 18.6623C9.44862 18.6981 9.43951 18.7361 9.43651 18.7748V18.774ZM15.0188 4.75051C15.6865 4.92841 16.3193 5.21772 16.8908 5.60626C16.9943 5.67676 17.0888 5.76001 17.1878 5.83726C17.2065 5.85151 17.226 5.86426 17.25 5.88076C17.2185 5.91676 17.2005 5.94076 17.1788 5.96176C16.4955 6.63526 15.8108 7.30651 15.1298 7.98226C15.0548 8.05726 15.0075 8.06926 14.9168 8.00476C14.6419 7.80937 14.3379 7.65851 14.016 7.55776L14.9783 5.02651L15.0038 4.96126C15.0294 4.89401 15.0346 4.82071 15.0188 4.75051ZM12.2408 12.9615L8.67601 13.4273L14.607 4.81501L14.64 4.83001L12.3488 10.8533L16.53 10.1933L9.85576 18.8258L9.82351 18.8033L12.2408 12.9615V12.9615Z" fill="white"/>
</svg>
