<svg width="24" height="24" viewBox="0 0 24 24" fill="none" xmlns="http://www.w3.org/2000/svg">
<path d="M12 24C18.6274 24 24 18.6274 24 12C24 5.37258 18.6274 0 12 0C5.37258 0 0 5.37258 0 12C0 18.6274 5.37258 24 12 24Z" fill="#71C800"/>
<path fill-rule="evenodd" clip-rule="evenodd" d="M19.365 11.0363C18.7747 11.064 18.1822 11.0985 17.592 11.0775C17.0625 11.058 16.5352 10.9703 16.0072 10.9088C15.9527 10.8995 15.9016 10.8757 15.8595 10.8398C14.9857 10.1235 14.127 9.39075 13.374 8.5425C13.0995 8.23275 12.8775 7.89825 12.753 7.49175C12.5857 6.9435 11.883 6.73275 11.3625 7.05C10.8165 7.383 10.7227 8.15775 11.1825 8.60175C11.2639 8.68267 11.3646 8.74152 11.475 8.77275C11.8725 8.86875 12.18 9.10575 12.4702 9.37425C12.9907 9.855 13.4572 10.3868 13.9102 10.9313C14.04 11.0865 13.974 11.2665 13.7752 11.289C13.4677 11.325 13.158 11.3573 12.8482 11.37C12.2647 11.394 11.6805 11.4173 11.0962 11.4113C10.77 11.4075 10.4422 11.3573 10.119 11.3033C9.96658 11.2735 9.82092 11.2161 9.68924 11.1338C9.25499 10.8735 8.80499 11.0513 8.55449 11.3078C8.40315 11.4628 8.30654 11.663 8.27933 11.878C8.25212 12.0929 8.2958 12.3109 8.40374 12.4988C8.61224 12.8558 9.02324 13.0643 9.39224 12.9863C9.49874 12.9638 9.60374 12.9165 9.69824 12.8618C9.94574 12.7208 10.2142 12.6548 10.4917 12.6375C10.9372 12.6105 11.3857 12.585 11.832 12.5955C12.3997 12.609 12.9675 12.6593 13.5352 12.6945C13.6125 12.6998 13.6905 12.7035 13.767 12.7155C13.98 12.75 14.0415 12.9203 13.9005 13.0875C13.731 13.2885 13.5675 13.4963 13.3845 13.6838C12.9995 14.0783 12.6082 14.4666 12.2107 14.8485C12.0303 15.0211 11.8067 15.1418 11.5635 15.198C11.0715 15.3158 10.8285 15.7905 10.8975 16.2705C10.9665 16.7475 11.3925 17.106 11.8747 17.1068C12.3217 17.1068 12.6652 16.8683 12.7845 16.4408C12.9067 16.0013 13.1887 15.6698 13.4827 15.3465C14.208 14.5508 15.0232 13.851 15.855 13.1715C15.9036 13.132 15.9618 13.1061 16.0237 13.0965C16.4445 13.0418 16.8652 12.9735 17.2875 12.9473C17.7636 12.9164 18.241 12.9099 18.7177 12.9278C19.215 12.948 19.71 13.0133 20.22 13.0605C20.211 13.233 20.2087 13.38 20.1952 13.5255C20.1037 14.4705 19.863 15.3758 19.4182 16.2165C18.3202 18.2903 16.6267 19.5885 14.3355 20.0948C13.822 20.2032 13.2981 20.2548 12.7732 20.2485C12.2145 20.2478 11.6557 20.253 11.097 20.247C9.54824 20.2305 8.13149 19.7895 6.87074 18.8865C5.35349 17.799 4.37324 16.3388 3.95174 14.517C3.85704 14.1102 3.80079 13.6954 3.78374 13.278C3.74833 12.4895 3.74133 11.7 3.76274 10.911C3.80847 9.32913 4.362 7.80395 5.34148 6.56095C6.32097 5.31796 7.67442 4.42313 9.20174 4.00875C9.81214 3.84234 10.4418 3.75711 11.0745 3.75525C11.7225 3.753 12.3697 3.74325 13.017 3.75825C14.5665 3.79425 15.9742 4.26675 17.2192 5.19225C18.708 6.2985 19.6552 7.76625 20.0542 9.579C20.151 10.014 20.1847 10.4625 20.25 10.9268C19.9275 10.968 19.6477 11.0228 19.365 11.0363V11.0363Z" fill="white"/>
</svg>
