<svg width="24" height="24" viewBox="0 0 24 24" fill="none" xmlns="http://www.w3.org/2000/svg">
<path d="M12 24C18.6274 24 24 18.6274 24 12C24 5.37258 18.6274 0 12 0C5.37258 0 0 5.37258 0 12C0 18.6274 5.37258 24 12 24Z" fill="#00BDCD"/>
<path d="M16.3748 7.308C15.316 6.4085 13.9705 5.91718 12.5812 5.92275C9.435 5.92275 6.84375 8.4105 6.62775 11.5905H6.01125C6.22725 8.0325 9.096 5.29275 12.5812 5.29275C14.124 5.29275 15.6038 5.85975 16.8068 6.86775L16.3748 7.308ZM16.1588 9.38625C15.7538 8.81377 15.2178 8.34645 14.5954 8.02328C13.9731 7.70011 13.2825 7.53047 12.5812 7.5285C10.1445 7.5285 8.1705 9.54375 8.1705 12C8.1705 14.487 10.1445 16.503 12.5805 16.503C13.995 16.503 15.3248 15.813 16.1588 14.6445L16.5915 15.0855C15.6345 16.3763 14.154 17.133 12.5812 17.133C9.80475 17.133 7.55325 14.8335 7.55325 12C7.55325 9.198 9.80475 6.8985 12.5812 6.8985C13.3634 6.90172 14.1338 7.08869 14.8304 7.44435C15.527 7.8 16.1302 8.31438 16.5915 8.946L16.1588 9.38625ZM16.8682 7.7805L17.301 7.3395C17.4548 7.497 17.5785 7.6545 17.7015 7.812L17.2695 8.25225C17.1447 8.08736 17.0107 7.92961 16.8682 7.77975V7.7805ZM12.5505 18.738C9.06525 18.738 6.1965 15.999 5.9805 12.441H6.597C6.813 15.621 9.40425 18.1088 12.5505 18.1088C13.938 18.1088 15.2655 17.6363 16.344 16.7235L16.776 17.1638C15.5999 18.1749 14.1016 18.7334 12.5505 18.7388V18.738ZM16.8682 16.251C17.0227 16.0935 17.1457 15.936 17.2695 15.7785L17.7015 16.2188C17.5777 16.3762 17.4548 16.5337 17.301 16.6912L16.8682 16.251ZM5.11725 12C5.11725 16.188 8.47875 19.62 12.5812 19.62C14.802 19.62 16.899 18.6442 18.3187 16.8495L18.75 17.2897C17.208 19.1797 14.9872 20.25 12.5812 20.25C8.109 20.25 4.5 16.5338 4.5 12C4.5 7.434 8.13975 3.75 12.5812 3.75C14.955 3.75 17.2087 4.82025 18.75 6.71025L18.318 7.15125C16.899 5.388 14.802 4.38 12.5805 4.38C8.478 4.38 5.11725 7.812 5.11725 12V12Z" fill="white"/>
</svg>
