<svg width="24" height="24" viewBox="0 0 24 24" fill="none" xmlns="http://www.w3.org/2000/svg">
<path d="M12 24C18.6274 24 24 18.6274 24 12C24 5.37258 18.6274 0 12 0C5.37258 0 0 5.37258 0 12C0 18.6274 5.37258 24 12 24Z" fill="#3AB03E"/>
<path d="M12.8707 12.5842C13.1689 12.4414 13.4206 12.2173 13.5971 11.9378C13.7735 11.6582 13.8675 11.3346 13.8682 11.004C13.8682 10.0335 13.0718 9.24675 12.0908 9.24675C11.1083 9.24675 10.311 10.0335 10.311 11.004C10.3118 11.3346 10.406 11.6583 10.5828 11.9378C10.7595 12.2172 11.0116 12.4411 11.31 12.5835V14.754H12.8707V12.5842V12.5842ZM12.0908 17.625C8.95125 17.625 6.39825 15.102 6.39825 12C6.39825 8.898 8.95125 6.375 12.0908 6.375C14.652 6.375 16.8233 8.055 17.5358 10.359H19.4977C18.7402 7.0065 15.7118 4.5 12.09 4.5C7.89825 4.5 4.5 7.85775 4.5 12C4.5 16.1422 7.89825 19.5 12.09 19.5C15.7118 19.5 18.7402 16.9935 19.4977 13.641H17.535C16.8225 15.945 14.6513 17.625 12.09 17.625" fill="white"/>
</svg>
