<svg width="24" height="24" viewBox="0 0 24 24" fill="none" xmlns="http://www.w3.org/2000/svg">
<path d="M12 24C18.6274 24 24 18.6274 24 12C24 5.37258 18.6274 0 12 0C5.37258 0 0 5.37258 0 12C0 18.6274 5.37258 24 12 24Z" fill="#1C75BC"/>
<path fill-rule="evenodd" clip-rule="evenodd" d="M19.9282 9.72826L18.3997 14.514C18.3997 14.514 17.457 16.8998 15.2145 16.8998H4.3995L5.172 14.5148H14.9715L16.5142 9.72826H6.72825L7.48575 7.34326H18.243C20.6002 7.34326 19.9282 9.72826 19.9282 9.72826V9.72826ZM4.78575 11.0145H10.5855L9.843 13.2285H4.0275L4.785 11.0145H4.78575Z" fill="white"/>
</svg>
