<svg width="24" height="24" viewBox="0 0 24 24" fill="none" xmlns="http://www.w3.org/2000/svg">
<path d="M12 24C18.6274 24 24 18.6274 24 12C24 5.37258 18.6274 0 12 0C5.37258 0 0 5.37258 0 12C0 18.6274 5.37258 24 12 24Z" fill="#5BC1D4"/>
<path fill-rule="evenodd" clip-rule="evenodd" d="M10.3387 12.696L9.10125 13.989C8.8785 14.2215 8.66025 14.4562 8.43675 14.6872C8.39925 14.7262 8.346 14.7495 8.30025 14.7802C8.20275 14.7645 8.12775 14.7037 8.115 14.6152C8.09429 14.4806 8.07579 14.3455 8.0595 14.2102C8.037 14.0317 7.98225 13.9822 7.8015 13.9597C7.42875 13.9147 7.05675 13.866 6.684 13.8172L5.8335 13.707C5.664 13.6845 5.6025 13.563 5.691 13.4182C5.895 13.0897 6.1005 12.7627 6.30525 12.4357L7.55775 10.4347C7.60725 10.3537 7.66275 10.2982 7.76925 10.3012C7.83675 10.3027 7.90725 10.2862 7.974 10.269C8.0535 10.2495 8.11575 10.2735 8.17125 10.326C8.2695 10.4182 8.36925 10.5097 8.46675 10.6027L9.59775 11.676C9.8415 11.907 10.0875 12.1365 10.3312 12.3675C10.4572 12.486 10.4572 12.5715 10.3387 12.696V12.696ZM18.6562 14.4352C18.7267 14.4937 18.8032 14.5492 18.8182 14.649C18.837 14.7765 18.786 14.8687 18.678 14.9385C18.0405 15.351 17.403 15.7657 16.7655 16.179L15.5333 16.9777C15.4944 17.0024 15.4573 17.0297 15.4222 17.0595C15.3912 17.085 15.3665 17.1174 15.3503 17.1541C15.334 17.1908 15.3265 17.2309 15.3285 17.271C15.3345 17.4247 15.3435 17.5785 15.3458 17.7315C15.348 17.9077 15.2183 18.018 15.0413 17.9977C14.9775 17.9893 14.9196 17.9562 14.88 17.9055C14.7318 17.7344 14.5838 17.5632 14.436 17.3917C14.2507 17.1772 14.0662 16.9612 13.8802 16.7475C13.8419 16.7092 13.8129 16.6627 13.7954 16.6115C13.7778 16.5603 13.7722 16.5057 13.779 16.452L13.8045 15.5557C13.8075 15.4507 13.8697 15.3832 13.9537 15.3292L14.9722 14.6782C15.5422 14.3145 16.1138 13.9522 16.6823 13.5847C16.8023 13.5075 16.914 13.4842 17.046 13.5517C17.1435 13.6012 17.2537 13.6102 17.3595 13.5772C17.5177 13.527 17.6392 13.5712 17.7615 13.6792C18.054 13.9372 18.3577 14.1832 18.657 14.4352H18.6562ZM13.1827 15.1792C13.229 15.2245 13.262 15.2815 13.278 15.3442C13.3058 15.4845 13.2502 15.5797 13.1182 15.6435C12.6795 15.855 12.2415 16.0687 11.799 16.2735C11.7195 16.3095 11.6197 16.314 11.529 16.3185C11.1622 16.335 10.7955 16.3447 10.4287 16.3597C10.212 16.368 9.996 16.3815 9.7965 16.392H9.6495C9.61625 16.3928 9.58317 16.3869 9.55224 16.3747C9.52132 16.3625 9.49318 16.3441 9.4695 16.3207C9.423 16.278 9.375 16.2367 9.32925 16.1932C9.07125 15.948 8.81775 15.6982 8.5545 15.4582C8.4075 15.3247 8.40525 15.1455 8.5455 15.0022C8.86125 14.6767 9.17325 14.3482 9.48675 14.0197C9.825 13.6657 10.1633 13.3102 10.5008 12.9547C10.5264 12.9246 10.5579 12.9 10.5933 12.8825C10.6288 12.8651 10.6675 12.855 10.707 12.8531C10.7465 12.8511 10.7859 12.8572 10.823 12.8711C10.86 12.885 10.8938 12.9063 10.9222 12.9337L12.2723 14.2755C12.5753 14.577 12.8812 14.8755 13.1827 15.1792V15.1792ZM15.0413 9.14249C14.8965 8.91899 15.06 8.60999 15.3007 8.57024C15.9442 8.46299 16.5855 8.33999 17.2283 8.22824C17.37 8.20349 17.4825 8.26874 17.5605 8.38574C17.6955 8.58824 17.8282 8.79149 17.9617 8.99474C18.2437 9.42224 18.5265 9.84974 18.8055 10.2787C18.843 10.3365 18.8618 10.4062 18.8895 10.47L18.873 10.4775C18.8684 10.587 18.8278 10.6919 18.7575 10.776C18.3645 11.304 17.967 11.8297 17.5748 12.3585C17.5377 12.4054 17.4898 12.4426 17.4352 12.4668C17.3806 12.491 17.3209 12.5016 17.2612 12.4975C17.2016 12.4934 17.1439 12.4749 17.0931 12.4435C17.0422 12.4121 16.9998 12.3687 16.9695 12.3172C16.3957 11.3647 15.816 10.4152 15.2385 9.46499C15.1733 9.35699 15.1095 9.24749 15.0413 9.14249ZM13.9125 11.7915L13.8 12.7927C13.7685 13.0702 13.7347 13.3462 13.7032 13.6237L13.5922 14.5987C13.5847 14.667 13.584 14.7367 13.5698 14.8027C13.5623 14.835 13.5382 14.8762 13.5112 14.8867C13.4842 14.8972 13.4362 14.8822 13.4122 14.862C13.3057 14.7697 13.2045 14.6722 13.1025 14.5755C12.735 14.2275 12.3698 13.8787 12.0023 13.5322C11.6828 13.23 11.3625 12.93 11.0415 12.63C10.935 12.531 10.9342 12.4995 11.037 12.3922L12.5055 10.8547L13.5082 9.80174L14.0002 9.28424C14.0145 9.26924 14.0265 9.24899 14.0438 9.24299C14.079 9.23024 14.1225 9.21299 14.1533 9.22274C14.1788 9.23174 14.1907 9.27749 14.1982 9.29024L14.1232 9.95024L14.0265 10.7985L13.9125 11.7915V11.7915ZM16.767 12.5565C16.815 12.6337 16.8225 12.7072 16.77 12.7875C16.7128 12.8775 16.6884 12.9846 16.701 13.0905C16.71 13.185 16.671 13.2427 16.5908 13.293C15.963 13.6912 15.3383 14.0925 14.7128 14.493C14.5163 14.619 14.3197 14.7442 14.1225 14.8687C14.0445 14.9182 13.9643 14.9145 13.9215 14.8515C13.8975 14.817 13.8945 14.769 13.8878 14.745L13.9703 14.139L14.154 12.8025L14.3565 11.34L14.5538 9.90974L14.6287 9.37724C14.6302 9.36299 14.631 9.34649 14.6385 9.33599C14.658 9.31124 14.6798 9.27449 14.7045 9.26999C14.7315 9.26549 14.7735 9.28649 14.7908 9.30974C14.8365 9.37124 14.8733 9.43949 14.9138 9.50549L16.38 11.9175C16.509 12.1305 16.6365 12.3442 16.767 12.5557V12.5565ZM13.7272 8.87849C13.7505 8.89349 13.7955 8.90924 13.8195 8.94149C13.8563 8.99099 13.824 9.03749 13.7858 9.07724L13.2758 9.61349L11.7892 11.169C11.4787 11.4952 11.1698 11.823 10.8593 12.1485C10.7468 12.2655 10.6568 12.2655 10.5398 12.1545C10.1775 11.811 9.81525 11.466 9.45225 11.1232C9.09975 10.7902 8.74575 10.458 8.39175 10.1257C8.3445 10.0807 8.307 10.032 8.31225 9.96299C8.31975 9.86924 8.37375 9.81599 8.481 9.79799C8.67675 9.76274 8.87325 9.72824 9.06975 9.69449L10.956 9.36449L13.1835 8.97374L13.7272 8.87849V8.87849ZM8.673 9.35249C9.0225 9.11324 9.372 8.87549 9.72225 8.63774L13.1047 6.33374C13.2172 6.25724 13.2885 6.27299 13.3447 6.39449C13.578 6.89399 13.8097 7.39424 14.0422 7.89449C14.0722 7.95899 14.1007 8.02424 14.1315 8.08949C14.1562 8.14199 14.1398 8.18474 14.1083 8.23199C14.0673 8.2899 14.0326 8.352 14.0048 8.41724C13.98 8.47949 13.9425 8.51324 13.875 8.52524C13.377 8.61374 12.8798 8.70524 12.3825 8.79374L10.617 9.11099L8.6895 9.45749C8.6625 9.46199 8.63475 9.45749 8.607 9.45749L8.5905 9.42674C8.61825 9.40199 8.643 9.37349 8.673 9.35249V9.35249ZM5.1555 10.497C4.935 10.4925 4.80375 10.278 4.9095 10.0807C4.99875 9.91424 5.09775 9.75374 5.19375 9.59099C5.46975 9.11924 5.74725 8.64899 6.02175 8.17724C6.06654 8.10021 6.13133 8.03672 6.20925 7.99349C6.94125 7.57274 7.67175 7.14974 8.40375 6.72824C8.45022 6.6998 8.5012 6.67951 8.5545 6.66824C8.60447 6.65837 8.65623 6.66334 8.7034 6.68253C8.75058 6.70172 8.79111 6.7343 8.82 6.77624C8.85195 6.81722 8.87136 6.86658 8.87589 6.91834C8.88041 6.97011 8.86986 7.02208 8.8455 7.06799C8.73525 7.30349 8.6205 7.53674 8.508 7.77074C8.298 8.19974 8.088 8.62799 7.88025 9.05774C7.86057 9.10524 7.82993 9.1474 7.79082 9.18077C7.75171 9.21414 7.70525 9.23778 7.65525 9.24974C7.56221 9.27192 7.47712 9.31938 7.40935 9.38688C7.34159 9.45438 7.2938 9.53929 7.27125 9.63224C7.25986 9.67814 7.23661 9.72024 7.20384 9.75433C7.17107 9.78842 7.12991 9.8133 7.0845 9.82649C6.483 10.038 5.88225 10.254 5.2815 10.4677C5.241 10.4827 5.19825 10.4872 5.15625 10.4977L5.1555 10.497ZM8.27025 9.12749C8.27323 9.09619 8.28187 9.0657 8.29575 9.03749L9.08175 7.31474C9.24525 6.95624 9.411 6.59849 9.57225 6.23924C9.60975 6.15674 9.6645 6.11549 9.7575 6.11174C10.0028 6.10424 10.248 6.09149 10.4933 6.08174L11.9407 6.02699C12.1102 6.01949 12.2805 6.00824 12.4507 5.99999C12.5722 5.99474 12.6555 6.06824 12.6562 6.18749C12.6615 6.26024 12.615 6.30749 12.555 6.34874L12.0915 6.66449L9.321 8.54924L8.436 9.15224C8.41536 9.16784 8.39326 9.18141 8.37 9.19274C8.3175 9.21524 8.26725 9.18374 8.27025 9.12749V9.12749ZM7.248 10.365C7.12575 10.5622 7.002 10.758 6.879 10.9545C6.41925 11.6895 5.9595 12.4252 5.499 13.1595C5.48001 13.1947 5.45456 13.226 5.424 13.2517C5.3445 13.3087 5.23875 13.269 5.20125 13.1692C5.14125 13.0087 5.08425 12.8467 5.0265 12.6855L4.52475 11.274C4.51275 11.2387 4.5045 11.2027 4.5 11.1855C4.50075 11.0902 4.53225 11.0497 4.6215 11.0205C4.8885 10.9342 5.1555 10.8495 5.4225 10.7647L6.93375 10.2847L7.1325 10.2232C7.17975 10.2082 7.227 10.188 7.266 10.2405C7.30125 10.2877 7.272 10.3267 7.248 10.365V10.365ZM19.3365 12.3217L19.488 13.1887C19.4925 13.2165 19.4955 13.245 19.5 13.2817C19.4925 13.3192 19.4842 13.3642 19.4722 13.4077L19.2735 14.1247C19.2165 14.331 19.053 14.3797 18.888 14.2402C18.5498 13.9552 18.21 13.6702 17.8702 13.3867C17.793 13.3222 17.7607 13.248 17.7787 13.146C17.8008 13.0444 17.7886 12.9384 17.7443 12.8445C17.6978 12.7522 17.7127 12.6705 17.7735 12.5895C18.051 12.2175 18.3263 11.844 18.603 11.472L18.7717 11.244C18.828 11.1667 18.9023 11.1292 18.9968 11.1502C19.0958 11.1727 19.1468 11.2402 19.1633 11.337L19.3358 12.3217H19.3365ZM13.6635 6.36374L13.6485 6.33224C13.6282 6.28724 13.62 6.23474 13.6658 6.20924C13.7059 6.19124 13.7513 6.18857 13.7933 6.20174C13.8593 6.22199 13.9185 6.25949 13.9808 6.29024L16.5023 7.54949L16.95 7.77449C17.0003 7.79924 17.04 7.82849 17.0295 7.89149C17.019 7.95374 16.9717 7.96724 16.917 7.97699C16.311 8.08499 15.7058 8.19449 15.1005 8.30324L15.0413 8.31524C15.024 8.30399 14.991 8.29124 14.97 8.26724C14.9161 8.19941 14.8482 8.14401 14.7709 8.10479C14.6936 8.06558 14.6088 8.04347 14.5223 8.03999C14.4548 8.03699 14.4203 7.99724 14.3948 7.94099C14.2883 7.70999 14.1795 7.48049 14.0723 7.25024L13.6635 6.36374V6.36374Z" fill="white"/>
</svg>
