<svg width="24" height="24" viewBox="0 0 24 24" fill="none" xmlns="http://www.w3.org/2000/svg">
<path d="M12 24C18.6274 24 24 18.6274 24 12C24 5.37258 18.6274 0 12 0C5.37258 0 0 5.37258 0 12C0 18.6274 5.37258 24 12 24Z" fill="#136485"/>
<path fill-rule="evenodd" clip-rule="evenodd" d="M7.82699 23.2545C6.25558 22.6707 4.82385 21.7642 3.62399 20.5935L3.73424 20.4008C5.52524 17.571 7.13399 14.6422 8.34524 11.5132C9.62999 8.1945 10.6582 4.788 11.6377 1.368C11.7255 1.06275 11.8297 0.76275 11.9257 0.4605C12.0292 0.579 12.0667 0.68925 12.0982 0.801C12.7132 2.9955 13.308 5.196 13.9462 7.383C15.1087 11.3678 16.7437 15.1477 18.909 18.6907C19.1617 19.1032 19.5915 19.7948 20.199 20.7623C18.9058 21.9744 17.3599 22.8847 15.6727 23.4277C14.4293 19.6329 13.1788 15.8404 11.9212 12.0502L11.8057 12.0488C10.9312 14.5065 9.60524 18.2415 7.82699 23.2545ZM12.0562 0.03675H11.9632L12 0L12.0562 0.03675Z" fill="white"/>
</svg>
