<svg width="24" height="24" viewBox="0 0 24 24" fill="none" xmlns="http://www.w3.org/2000/svg">
<path d="M12 24C18.6274 24 24 18.6274 24 12C24 5.37258 18.6274 0 12 0C5.37258 0 0 5.37258 0 12C0 18.6274 5.37258 24 12 24Z" fill="#939393"/>
<path fill-rule="evenodd" clip-rule="evenodd" d="M10.2802 14.895C10.554 14.7173 12.3938 13.59 14.1863 12.492C15.4785 11.7015 15.4785 11.7015 15.456 11.6242C15.4335 11.5305 7.431 6.6675 7.34925 6.61875C7.149 6.4995 6.993 6.4035 6.89775 6.342C7.04475 6.24 7.3305 6.045 7.6725 5.8125L8.505 5.25L9.0765 5.592C9.7815 6.0135 17.5215 10.761 18.606 11.4367C18.1635 11.703 16.596 12.6308 14.4885 13.872L10.3012 16.3395C10.2936 16.1211 10.2886 15.9026 10.2863 15.684C10.2803 15.2768 10.2795 14.9955 10.281 14.8958L10.2802 14.895ZM8.50425 10.173C8.643 10.2555 8.883 10.4003 9.1785 10.584L9.95025 11.0625L9.96675 12.51C10.0155 16.6928 10.0155 16.6927 10.0763 16.7355L10.1168 16.7632L10.1617 16.7468C10.1842 16.74 10.1925 16.737 18.315 11.9453L18.75 11.6888L18.6068 13.701L18.5543 13.731C18.243 13.9163 9.70275 18.804 8.5125 19.479C8.5095 18.9548 8.505 17.1652 8.50425 14.832V10.173V10.173ZM6.75 18.6L6.76875 6.62475L7.05975 6.7965C7.29375 6.933 8.87175 7.89525 10.6545 8.98575C12.4035 10.056 14.124 11.1052 14.49 11.3242L15.0262 11.6468L13.2532 12.7313L12.8992 12.525C12.678 12.3945 11.7255 11.8125 10.7768 11.226C10.0894 10.7997 9.39936 10.3777 8.70675 9.96L8.21775 9.675L8.214 14.7518C8.2125 17.0423 8.21025 18.9457 8.20875 19.5007C8.064 19.413 7.81725 19.2607 7.52775 19.0807L6.75 18.6Z" fill="white"/>
</svg>
