<svg width="24" height="24" viewBox="0 0 24 24" fill="none" xmlns="http://www.w3.org/2000/svg">
<path d="M12 24C18.6274 24 24 18.6274 24 12C24 5.37258 18.6274 0 12 0C5.37258 0 0 5.37258 0 12C0 18.6274 5.37258 24 12 24Z" fill="#F4AE95"/>
<path d="M11.8552 6.7185L7.28474 16.4737H14.8725C15.0922 16.4737 15.291 16.6087 15.3772 16.815L15.3855 16.8337C15.4137 16.9009 15.4263 16.9737 15.4222 17.0464C15.4182 17.1192 15.3977 17.1901 15.3622 17.2537C15.3003 17.3657 15.2096 17.4591 15.0995 17.5244C14.9894 17.5896 14.864 17.6243 14.736 17.625H6.67199C6.5472 17.6248 6.42538 17.5869 6.32249 17.5162L6.28049 17.4877C6.15353 17.3991 6.06203 17.2684 6.02222 17.1188C5.98241 16.9691 5.99685 16.8102 6.06299 16.6702L11.4555 5.3085C11.5117 5.19 11.592 5.085 11.6902 5.001C11.783 4.92104 11.901 4.87644 12.0234 4.87506C12.1458 4.87369 12.2648 4.91564 12.3592 4.9935C12.4021 5.02845 12.4367 5.07251 12.4605 5.1225L17.9302 16.5615C18.0052 16.7167 18.0202 16.8945 17.9737 17.061C17.9495 17.1517 17.8962 17.2318 17.8219 17.2892C17.7476 17.3465 17.6566 17.3778 17.5627 17.3782H17.4997C17.3739 17.3775 17.2508 17.3406 17.1453 17.272C17.0397 17.2034 16.9561 17.106 16.9042 16.9912L12.1867 6.72C12.1725 6.68798 12.1494 6.66071 12.1202 6.64144C12.0909 6.62216 12.0568 6.61168 12.0217 6.61125C11.9866 6.61126 11.9523 6.62138 11.9227 6.6404C11.8932 6.65942 11.8698 6.68653 11.8552 6.7185V6.7185Z" fill="white"/>
</svg>
