<svg width="24" height="24" viewBox="0 0 24 24" fill="none" xmlns="http://www.w3.org/2000/svg">
<path d="M12 24C18.6274 24 24 18.6274 24 12C24 5.37258 18.6274 0 12 0C5.37258 0 0 5.37258 0 12C0 18.6274 5.37258 24 12 24Z" fill="#2C398F"/>
<path d="M18.8062 14.325C19.2011 14.3053 19.5777 14.1528 19.875 13.8922C19.4617 16.0042 18.3067 18.0825 16.3245 19.2247C14.808 20.1082 12.912 20.4022 11.0685 20.1772C10.7925 19.3807 10.0687 18.5325 8.81099 17.892C6.82874 16.8705 5.89799 15.1042 5.05349 15.9697C4.97549 16.0447 4.91099 16.1325 4.86374 16.2292C4.82924 16.1602 4.79474 16.074 4.76024 15.987C3.14024 11.97 4.76024 7.93499 8.00024 5.04374C9.93074 3.32924 12.1882 3.51974 14.205 4.45499C14.0839 4.55276 13.9868 4.6769 13.921 4.81793C13.8553 4.95896 13.8226 5.11315 13.8255 5.26874V9.32024C12.9871 8.83202 12.0021 8.65882 11.0475 8.83176C10.0929 9.0047 9.23129 9.51244 8.61749 10.2637C8.00126 11.0166 7.67109 11.9632 7.68536 12.936C7.69964 13.9088 8.05743 14.8453 8.69549 15.5797C9.33135 16.3124 10.2076 16.7942 11.1669 16.9387C12.1262 17.0832 13.1055 16.8808 13.929 16.368C14.0298 16.5853 14.2021 16.7614 14.417 16.8672C14.6319 16.973 14.8765 17.002 15.1102 16.9494C15.3439 16.8968 15.5526 16.7658 15.7014 16.5782C15.8503 16.3905 15.9304 16.1575 15.9285 15.918V5.47649C17.4795 6.56699 18.72 7.95224 19.2885 8.90474C19.566 9.38324 19.764 9.90374 19.875 10.446C19.6312 10.266 19.347 10.146 19.0477 10.0995C18.4102 10.065 17.9272 10.9312 18.255 12.177C18.531 13.3035 18.186 14.2905 18.8062 14.325V14.325ZM11.034 14.394C8.86199 13.1475 10.689 9.94424 12.861 11.1907C13.5157 11.5545 13.5847 12.7147 13.464 13.4587C13.2397 14.7405 12.0337 14.9655 11.034 14.394V14.394ZM12.051 6.11699C11.568 6.13424 11.2237 6.72299 11.241 6.98324C11.2575 7.24274 11.6197 7.39874 12.1192 7.22549C12.5677 7.06949 12.9817 7.17299 12.9637 6.91349C12.9465 6.65399 12.516 6.09974 12.051 6.11699V6.11699Z" fill="white"/>
</svg>
