<svg width="24" height="24" viewBox="0 0 24 24" fill="none" xmlns="http://www.w3.org/2000/svg">
<path d="M12 24C18.6274 24 24 18.6274 24 12C24 5.37258 18.6274 0 12 0C5.37258 0 0 5.37258 0 12C0 18.6274 5.37258 24 12 24Z" fill="#00ADED"/>
<path d="M7.57327 17.7023L7.57477 17.6993L9.96577 11.9873L7.57327 6.276L11.987 11.9873L7.57627 17.6985L7.57327 17.7023ZM16.4053 17.7023L16.4023 17.6985L11.9915 11.9873L16.4053 6.276L14.0128 11.9873L16.4038 17.6993L16.4053 17.7023Z" fill="white"/>
<path d="M11.9888 11.988V15.9675L7.57126 17.7L11.9888 11.985V8.00548L16.4063 6.27298L11.9888 11.988Z" fill="white" fill-opacity="0.8"/>
<path d="M11.9888 15.9675V19.4557L7.57126 17.6977L11.9888 15.9615V11.988L7.57126 6.27299L11.9888 8.00549V4.51724L16.4063 6.27449L11.9888 8.01074V11.985L16.4063 17.7L11.9888 15.9675Z" fill="white" fill-opacity="0.5"/>
<path d="M7.57126 6.27449L11.9888 4.51724V8.01074L7.57126 6.27449ZM16.4063 17.6977L11.9888 19.4557V15.9615L16.4063 17.6977Z" fill="white" fill-opacity="0.145"/>
</svg>
