<svg width="24" height="24" viewBox="0 0 24 24" fill="none" xmlns="http://www.w3.org/2000/svg">
<path d="M12 24C18.6274 24 24 18.6274 24 12C24 5.37258 18.6274 0 12 0C5.37258 0 0 5.37258 0 12C0 18.6274 5.37258 24 12 24Z" fill="#00CCFF"/>
<path d="M5.9205 14.3707H9.21825L7.7985 17.25H4.5L5.9205 14.3707ZM7.79925 10.5608H11.0977L9.6825 13.4325H6.3825L7.8 10.56L7.79925 10.5608ZM9.67875 6.75075H12.9772L11.5605 9.62325H8.26275L9.67875 6.75V6.75075Z" fill="white" fill-opacity="0.4"/>
<path d="M9.20776 14.37H12.5063L11.0858 17.2485H7.78726L9.20776 14.3692V14.37ZM11.0873 10.56H14.385L12.969 13.431H9.67051L11.0873 10.56V10.56ZM12.966 6.75H16.2645L14.8478 9.62175H11.55L12.966 6.75Z" fill="white" fill-opacity="0.6"/>
<path d="M12.4425 14.37H15.741L14.3213 17.2485H11.0228L12.4433 14.3692L12.4425 14.37ZM14.322 10.56H17.6205L16.2045 13.431H12.906L14.322 10.56V10.56ZM16.2015 6.75H19.5L18.0833 9.62175H14.7855L16.2015 6.75Z" fill="white"/>
</svg>
