<svg width="24" height="24" viewBox="0 0 24 24" fill="none" xmlns="http://www.w3.org/2000/svg">
<path d="M12 24C18.6274 24 24 18.6274 24 12C24 5.37258 18.6274 0 12 0C5.37258 0 0 5.37258 0 12C0 18.6274 5.37258 24 12 24Z" fill="#2F2F2F"/>
<path fill-rule="evenodd" clip-rule="evenodd" d="M18.8618 7.72125C18.9473 7.76625 19.143 7.87275 19.1243 8.1045L19.1123 15.9172C19.1178 15.991 19.1003 16.0646 19.0623 16.1279C19.0243 16.1913 18.9676 16.2414 18.9 16.2712L17.175 17.2785L15.81 18.075L12.177 20.196C12.1309 20.2312 12.0745 20.2502 12.0165 20.25C11.9434 20.2476 11.8725 20.2247 11.8118 20.184L9.30526 18.738C7.91326 17.9347 6.47326 17.1037 5.05426 16.2877C4.93501 16.23 4.86526 16.0957 4.87576 15.9427L4.88101 13.8787C4.88551 12.0217 4.88851 10.1355 4.89001 8.3115V8.304C4.89105 8.29153 4.8913 8.279 4.89076 8.2665V8.24325C4.88776 8.142 4.88326 7.93425 5.07826 7.8405C5.87326 7.36575 6.68626 6.8835 7.47301 6.417L8.77576 5.6445C9.76726 5.05725 10.7768 4.458 11.7533 3.87825L11.7608 3.87375C11.8246 3.8372 11.8914 3.80585 11.9603 3.78L12.0375 3.75L12.1095 3.79275C12.819 4.20375 13.5405 4.62375 14.2373 5.03025L15.5393 5.78775L16.8105 6.52725L18.8108 7.69125H18.8123L18.8138 7.69275L18.8618 7.72125V7.72125ZM12.285 19.4738L14.5065 18.1763C15.8536 17.391 17.2003 16.6053 18.5468 15.819L18.5543 11.4323L18.558 8.5335L15.6705 10.2225V11.5545C15.6672 12.3858 15.6687 13.217 15.675 14.0483V14.1052L15.6413 14.1517C15.6044 14.2012 15.5574 14.2421 15.5033 14.2717L15.4838 14.2838H15.483L14.55 14.8275C14.2125 15.0225 13.8638 15.225 13.5225 15.4252L12.2895 16.1415L12.285 19.4738ZM9.13801 10.0575C9.76861 10.42 10.3996 10.7817 11.031 11.1428L12.009 11.7045L14.8418 10.0485L12.0045 8.3745L9.13801 10.0575ZM8.84551 10.545L8.89876 13.8367L11.7248 15.483L11.7293 12.1987L8.84551 10.545ZM5.45551 8.5995L5.44126 15.8558L11.7218 19.4783L11.724 16.14L10.494 15.4238L9.72301 14.9745C9.32776 14.745 8.91901 14.5073 8.51776 14.2725C8.40151 14.2178 8.32876 14.0842 8.33701 13.938L8.27626 10.2188L5.45551 8.5995ZM18.276 8.04L17.1743 7.398L15.9578 6.68925C14.7998 6.01725 13.4265 5.21925 12.0098 4.38975C10.5749 5.23756 9.14091 6.08681 7.70776 6.9375L5.73826 8.10525L8.57176 9.729L11.8223 7.82025C11.8784 7.78408 11.9441 7.76547 12.0109 7.7668C12.0777 7.76814 12.1426 7.78936 12.1973 7.82775L15.4043 9.7185L18.276 8.04ZM12.2895 15.4852C13.2369 14.9332 14.1849 14.3822 15.1335 13.8323V10.5375L12.2918 12.198L12.2895 15.4852ZM16.1348 14.8905C16.1066 14.8991 16.0772 14.9034 16.0478 14.9033C16.0079 14.9038 15.9684 14.8964 15.9316 14.8813C15.8947 14.8662 15.8613 14.8438 15.8333 14.8155C15.788 14.7747 15.7542 14.7228 15.7351 14.6649C15.716 14.6071 15.7124 14.5452 15.7245 14.4855C15.7372 14.4075 15.7769 14.3364 15.8367 14.2847C15.8964 14.233 15.9725 14.204 16.0515 14.2028C16.1438 14.2028 16.2338 14.2448 16.299 14.3175L16.2998 14.319C16.3449 14.3697 16.3744 14.4323 16.3847 14.4994C16.3951 14.5664 16.3859 14.635 16.3583 14.697C16.3393 14.7448 16.3091 14.7874 16.2702 14.8211C16.2313 14.8548 16.1848 14.8786 16.1348 14.8905V14.8905ZM17.6828 15.9465C17.639 15.9123 17.6043 15.8679 17.5818 15.8172C17.5593 15.7664 17.5497 15.7109 17.5538 15.6555C17.5598 15.5363 17.6213 15.4305 17.7203 15.3705C17.7694 15.3385 17.8266 15.3213 17.8853 15.321C17.9498 15.321 18.0128 15.3412 18.0683 15.3787C18.1239 15.4152 18.1677 15.467 18.1946 15.5278C18.2215 15.5886 18.2302 15.6558 18.2198 15.7215C18.2099 15.804 18.1702 15.8802 18.1082 15.9355C18.0462 15.9909 17.9661 16.0217 17.883 16.0223C17.8093 16.022 17.7382 15.9951 17.6828 15.9465V15.9465ZM7.79101 14.2065C7.88476 14.2065 7.97401 14.2492 8.03626 14.3235C8.08089 14.3733 8.1101 14.4349 8.12035 14.5009C8.1306 14.567 8.12145 14.6346 8.09401 14.6955C8.06869 14.7571 8.02538 14.8097 7.96972 14.8464C7.91406 14.883 7.84865 14.9021 7.78201 14.901C7.73181 14.8991 7.68263 14.8863 7.63797 14.8632C7.59332 14.8402 7.55428 14.8077 7.52363 14.7678C7.49299 14.728 7.47149 14.682 7.46067 14.6329C7.44984 14.5838 7.44996 14.533 7.46101 14.484C7.47607 14.407 7.51702 14.3375 7.57705 14.287C7.63709 14.2365 7.71259 14.2081 7.79101 14.2065V14.2065ZM16.758 15.3885C16.7104 15.3487 16.6742 15.2969 16.653 15.2386C16.6318 15.1803 16.6264 15.1174 16.6373 15.0563C16.6494 14.9769 16.6889 14.9043 16.7489 14.8509C16.8088 14.7975 16.8855 14.7667 16.9658 14.7637C17.0483 14.7637 17.1278 14.7967 17.1908 14.8552C17.286 14.9437 17.3258 15.072 17.2943 15.192C17.2838 15.2483 17.2588 15.301 17.2217 15.3447C17.1846 15.3883 17.1367 15.4216 17.0828 15.441C17.0289 15.462 16.9703 15.4683 16.9132 15.459C16.8561 15.4498 16.8025 15.4254 16.758 15.3885V15.3885ZM7.07926 14.8463C7.17901 14.9288 7.22551 15.06 7.20001 15.1815C7.19189 15.2359 7.17018 15.2874 7.13688 15.3312C7.10358 15.375 7.05977 15.4096 7.00951 15.432H7.00876C6.9642 15.4531 6.91559 15.4644 6.86626 15.465C6.80726 15.4642 6.74963 15.4471 6.69976 15.4155C6.64396 15.3807 6.5991 15.3308 6.57031 15.2716C6.54153 15.2125 6.52999 15.1464 6.53701 15.081C6.54108 15.0164 6.5637 14.9544 6.60215 14.9024C6.64059 14.8504 6.69324 14.8106 6.75376 14.7877C6.79049 14.772 6.83004 14.7638 6.87001 14.7637C6.94501 14.7637 7.01776 14.7923 7.07926 14.8463V14.8463ZM11.9618 4.62525C12.0593 4.62525 12.1515 4.66725 12.2168 4.74075C12.297 4.8255 12.327 4.94325 12.297 5.05575C12.2824 5.12089 12.2484 5.18004 12.1993 5.22533C12.1503 5.27062 12.0886 5.29989 12.0225 5.30925H12.0188C11.9509 5.32258 11.8807 5.31527 11.817 5.28827C11.7534 5.26126 11.6993 5.2158 11.6618 5.15775C11.6301 5.10893 11.6116 5.05275 11.608 4.99466C11.6045 4.93658 11.616 4.87856 11.6415 4.82625L11.6423 4.82475C11.6665 4.77286 11.7034 4.72788 11.7495 4.69394C11.7956 4.66 11.8495 4.63819 11.9063 4.6305C11.9248 4.62708 11.9436 4.62533 11.9625 4.62525H11.9618ZM6.11251 15.3675C6.22126 15.429 6.28726 15.54 6.28651 15.66C6.28973 15.7205 6.27676 15.7807 6.24894 15.8345C6.22113 15.8883 6.17947 15.9337 6.12826 15.966C6.07384 16.0016 6.01032 16.0209 5.94526 16.0215C5.89155 16.022 5.83871 16.008 5.79226 15.981C5.7378 15.9508 5.69256 15.9064 5.66138 15.8525C5.6302 15.7986 5.61426 15.7373 5.61526 15.675C5.61526 15.5452 5.68201 15.4275 5.78851 15.3675C5.8374 15.338 5.89342 15.3224 5.95051 15.3224C6.00761 15.3224 6.06363 15.338 6.11251 15.3675V15.3675ZM12.1425 6.90375C12.1954 6.93668 12.2384 6.9834 12.2668 7.03889C12.2952 7.09438 12.308 7.15655 12.3038 7.21875C12.2996 7.28042 12.2782 7.33969 12.2422 7.3899C12.2062 7.44012 12.1568 7.47928 12.0998 7.503C12.0527 7.52448 12.0015 7.53573 11.9498 7.536C11.8729 7.53682 11.798 7.51142 11.7375 7.464C11.6914 7.42986 11.6548 7.38437 11.6314 7.33193C11.608 7.2795 11.5986 7.22191 11.604 7.16475C11.6072 7.10806 11.6249 7.05314 11.6556 7.00532C11.6862 6.95749 11.7286 6.91838 11.7788 6.89175C11.8303 6.86208 11.8888 6.84655 11.9483 6.84675C12.0174 6.84663 12.0851 6.86642 12.1433 6.90375H12.1425ZM11.715 6.33525C11.6756 6.30061 11.6451 6.25712 11.6258 6.20836C11.6065 6.1596 11.599 6.10695 11.604 6.05475V6.0525C11.6089 5.99874 11.6263 5.94688 11.6549 5.90104C11.6834 5.85521 11.7222 5.81667 11.7683 5.7885C11.8225 5.75244 11.8862 5.73338 11.9513 5.73375C12.0113 5.73375 12.0713 5.7495 12.126 5.77875L12.1268 5.7795C12.1818 5.80915 12.2276 5.85355 12.2588 5.90773C12.2901 5.96191 12.3057 6.02373 12.3038 6.08625C12.3032 6.15205 12.2833 6.21624 12.2467 6.27089C12.21 6.32554 12.1582 6.36825 12.0975 6.39375C12.0504 6.41521 11.9993 6.42646 11.9475 6.42675C11.861 6.42774 11.7776 6.39491 11.715 6.33525V6.33525Z" fill="white"/>
</svg>
