<svg width="24" height="24" viewBox="0 0 24 24" fill="none" xmlns="http://www.w3.org/2000/svg">
<path d="M12 24C18.6274 24 24 18.6274 24 12C24 5.37258 18.6274 0 12 0C5.37258 0 0 5.37258 0 12C0 18.6274 5.37258 24 12 24Z" fill="#328332"/>
<path d="M11.9918 12.4147L6.951 11.982L11.991 9.1305V12.4147H11.9918ZM11.9918 15.7597V20.9647C10.239 18.2362 8.307 15.2332 6.75 12.8025C8.5875 13.8375 10.506 14.9197 11.9918 15.7605V15.7597ZM11.9918 8.20875L6.75 11.1337L11.9918 3V8.20875V8.20875Z" fill="white"/>
<path d="M17.0325 11.982L11.9917 12.4148V9.1305L17.0317 11.982H17.0325ZM11.9917 15.7605C13.4767 14.9205 15.3945 13.8375 17.2327 12.8025C15.6757 15.234 13.7437 18.237 11.9917 20.964V15.7605V15.7605ZM11.9917 8.20875V3L17.2327 11.1338L11.9917 8.20875V8.20875Z" fill="white" fill-opacity="0.601"/>
<path opacity="0.2" fill-rule="evenodd" clip-rule="evenodd" d="M11.9917 12.4147L17.0317 11.982L11.9917 14.8132V12.4147Z" fill="white"/>
<path opacity="0.603" fill-rule="evenodd" clip-rule="evenodd" d="M11.991 12.4147L6.95026 11.982L11.991 14.8132V12.4147Z" fill="white"/>
</svg>
