<svg width="24" height="24" viewBox="0 0 24 24" fill="none" xmlns="http://www.w3.org/2000/svg">
<path d="M12 24C18.6274 24 24 18.6274 24 12C24 5.37258 18.6274 0 12 0C5.37258 0 0 5.37258 0 12C0 18.6274 5.37258 24 12 24Z" fill="#42C1CA"/>
<path d="M11.949 9.68099C12.228 8.50874 12.564 7.45499 12.921 6.76724C13.0523 6.43874 13.5848 5.65199 14.169 5.13224C15.1418 4.26599 16.233 4.04624 17.3693 4.75949L17.2695 4.91774L17.3693 4.75949C17.949 5.12324 18.1815 5.49749 18.0795 5.84999C18.0045 6.11249 17.7173 6.32249 17.5635 6.30074C17.3385 6.32324 17.112 6.27824 16.896 6.11924C16.7142 5.97918 16.5739 5.79224 16.4903 5.57849C16.3313 5.20349 16.1228 5.07599 15.867 5.10599C15.6818 5.12699 15.4665 5.24549 15.3983 5.32499L15.222 5.51999C15.085 5.66588 14.9634 5.82547 14.859 5.99624C14.502 6.59099 14.1728 7.68074 13.716 9.93899L16.743 10.3822L16.5765 11.595L13.5045 11.145L13.3733 11.943L13.3395 12.1425C13.3215 12.246 13.302 12.3585 13.2795 12.4785L16.3815 12.933L16.2038 14.1442L13.029 13.6792C12.6623 15.2377 12.1793 16.908 11.838 17.5672C11.706 17.8965 11.1743 18.6817 10.59 19.2022C9.61725 20.0677 8.526 20.2882 7.38975 19.575C6.81 19.2112 6.5775 18.8362 6.6795 18.4837C6.7545 18.2212 7.04175 18.012 7.1955 18.0337C7.4205 18.0112 7.647 18.0562 7.863 18.2145C8.0295 18.3375 8.1675 18.516 8.26875 18.756C8.42775 19.1302 8.63625 19.2585 8.892 19.2285C9.07725 19.2067 9.2925 19.0882 9.36075 19.0087C10.041 18.2512 10.5803 16.7917 11.262 13.4212L8.235 12.9772L8.4015 11.7645L11.4735 12.2145L11.6055 11.4172C11.6347 11.2381 11.6659 11.0594 11.6993 10.881L8.60925 10.4287L8.78625 9.21749L11.949 9.68099V9.68099Z" fill="white"/>
</svg>
