<svg width="24" height="24" viewBox="0 0 24 24" fill="none" xmlns="http://www.w3.org/2000/svg">
<path d="M12 24C18.6274 24 24 18.6274 24 12C24 5.37258 18.6274 0 12 0C5.37258 0 0 5.37258 0 12C0 18.6274 5.37258 24 12 24Z" fill="#C40E09"/>
<path fill-rule="evenodd" clip-rule="evenodd" d="M16.65 5.355C16.7175 5.4075 16.7782 5.4525 16.8345 5.50125C16.983 5.6325 17.1322 5.76375 17.277 5.8995C17.3917 6.009 17.5005 6.126 17.6107 6.24075C17.6197 6.24975 17.6272 6.27075 17.6242 6.28275C17.5567 6.54375 17.4547 6.78975 17.3182 7.01925C17.1982 7.22025 17.0602 7.40475 16.8997 7.5705C16.6822 7.7955 16.4385 7.983 16.1715 8.13675C16.0552 8.20425 15.936 8.26425 15.8167 8.32425C15.4365 8.517 15.0315 8.625 14.619 8.7015C14.3377 8.754 14.0535 8.7915 13.7707 8.8305C13.3987 8.8815 13.026 8.92275 12.6547 8.97675C12.1072 9.05625 11.571 9.18075 11.0625 9.417C10.503 9.67725 10.0372 10.0575 9.72075 10.6193C9.51 10.9943 9.4245 11.403 9.42825 11.8365C9.435 12.6667 9.71925 13.3845 10.2097 14.0228C10.5097 14.4128 10.8517 14.7592 11.2117 15.0862C11.4607 15.3135 11.715 15.534 11.9632 15.7612C12.2805 16.0537 12.5985 16.3455 12.8707 16.6868C13.0132 16.8668 13.1542 17.0513 13.2765 17.247C13.485 17.5815 13.6507 17.9408 13.7595 18.3255C13.8195 18.5355 13.8555 18.7493 13.872 18.9683C13.8959 19.2937 13.867 19.621 13.7865 19.9373C13.7542 20.067 13.7527 20.0693 13.6245 20.0925C13.4437 20.1263 13.263 20.1608 13.0815 20.19C12.9487 20.2103 12.8152 20.223 12.6817 20.238C12.6352 20.244 12.588 20.2463 12.5407 20.25L12.513 20.2493C12.5137 20.2388 12.513 20.2282 12.516 20.2192C12.5565 20.112 12.6015 20.0063 12.6397 19.8983C12.724 19.6662 12.7809 19.425 12.8092 19.1797C12.8589 18.7485 12.7799 18.3122 12.582 17.9257C12.4443 17.665 12.2689 17.4259 12.0615 17.2162C11.7795 16.92 11.469 16.6605 11.1577 16.4017C10.638 15.969 10.1355 15.5168 9.6765 15.0128C9.39725 14.7085 9.1434 14.3819 8.9175 14.0363C8.67037 13.6635 8.4765 13.2581 8.3415 12.8317C8.13519 12.1688 8.12867 11.4598 8.32275 10.7932C8.43225 10.4077 8.58 10.0455 8.808 9.72075C9.1095 9.291 9.49875 8.97075 9.945 8.72325C10.395 8.472 10.875 8.307 11.3692 8.18325C11.7667 8.08275 12.1695 8.00775 12.5752 7.95825C13.0327 7.90275 13.4902 7.85625 13.9477 7.8045C14.3212 7.7625 14.6925 7.71075 15.0532 7.59675C15.3818 7.49756 15.6836 7.32525 15.936 7.09275C16.1542 6.88875 16.3162 6.64425 16.4325 6.36375C16.5397 6.105 16.5922 5.832 16.6305 5.55525C16.6387 5.49375 16.6432 5.43075 16.6507 5.355H16.65ZM11.355 14.9745C11.5192 14.9422 11.6752 14.9145 11.8305 14.8807C12.2295 14.7922 12.6232 14.6858 12.993 14.4968C13.3569 14.3124 13.6804 14.0574 13.9447 13.7468C14.2147 13.4273 14.436 13.0755 14.5515 12.6585C14.6239 12.3945 14.6493 12.1198 14.6265 11.847C14.5794 11.2917 14.3898 10.758 14.076 10.2975C13.8391 9.94915 13.5677 9.62552 13.266 9.3315C13.2135 9.27825 13.158 9.2265 13.1047 9.174C13.0972 9.1665 13.0912 9.1575 13.08 9.144L13.365 9.09975L13.9822 9.006C14.0902 8.9895 14.1982 8.9715 14.3062 8.95725C14.319 8.95575 14.337 8.97 14.3475 8.98125C14.5395 9.20475 14.736 9.42375 14.9205 9.654C15.1605 9.9525 15.363 10.2795 15.528 10.632C15.6742 10.9462 15.7815 11.2733 15.834 11.6198C15.8707 11.862 15.8865 12.1065 15.8617 12.351C15.7897 13.0358 15.5865 13.6695 15.1852 14.223C14.9362 14.5673 14.6295 14.8455 14.2837 15.078C13.881 15.3437 13.443 15.5514 12.9825 15.6953C12.7852 15.7583 12.5857 15.8122 12.387 15.8677C12.3778 15.8698 12.3683 15.8699 12.3591 15.8679C12.35 15.866 12.3413 15.8621 12.3337 15.8565C12.0135 15.5715 11.6947 15.2842 11.376 14.9977C11.37 14.9932 11.3655 14.9865 11.3557 14.9752L11.355 14.9745ZM12.942 7.701L12.459 7.776L11.9115 7.86075C11.8477 7.87125 11.7832 7.88325 11.718 7.89C11.6941 7.89176 11.6705 7.88424 11.652 7.869C11.4412 7.67534 11.2454 7.46599 11.0662 7.24275C10.9687 7.119 10.8697 6.99525 10.7835 6.8625C10.491 6.4095 10.2622 5.92575 10.1655 5.382C10.079 4.91775 10.1042 4.43958 10.239 3.987C10.2472 3.957 10.2562 3.942 10.2915 3.93525C10.4925 3.90075 10.6912 3.85575 10.8915 3.82275C11.0565 3.7965 11.2245 3.783 11.391 3.7635L11.5275 3.75C11.5155 3.777 11.5087 3.795 11.5005 3.81075C11.3571 4.10445 11.2582 4.4179 11.2072 4.74075C11.1394 5.18191 11.2104 5.63327 11.4105 6.03225C11.5762 6.366 11.8027 6.64875 12.0592 6.90975C12.3262 7.17975 12.6157 7.42275 12.906 7.665C12.9165 7.674 12.9255 7.68375 12.9427 7.701H12.942ZM10.5615 16.167L10.242 16.2007C10.107 16.2157 9.972 16.2263 9.837 16.2473C9.62925 16.2795 9.42075 16.311 9.21525 16.3568C8.463 16.5233 7.87725 16.9223 7.55775 17.6895C7.44073 17.9693 7.35349 18.2607 7.2975 18.5588C7.29525 18.5723 7.29075 18.5857 7.28475 18.6097C7.242 18.5767 7.20225 18.5497 7.16625 18.5182C7.01625 18.3847 6.867 18.2528 6.72075 18.1163C6.615 18.0173 6.51525 17.9115 6.41025 17.811C6.375 17.7772 6.36825 17.7435 6.381 17.6955C6.52302 17.1825 6.8029 16.7182 7.19025 16.353C7.44048 16.1208 7.72043 15.9228 8.02275 15.7642C8.44725 15.5317 8.901 15.3982 9.366 15.2977C9.42 15.2865 9.4755 15.2805 9.528 15.2662C9.561 15.2572 9.58275 15.2663 9.606 15.288L10.0395 15.6848L10.5202 16.1265C10.5346 16.1394 10.5484 16.1529 10.5615 16.167ZM13.8067 12.8835C13.7692 12.8745 13.7317 12.8662 13.6957 12.855L11.1075 12.0458C10.7752 11.9423 10.4437 11.8395 10.1122 11.7353C9.98475 11.6955 9.9195 11.5912 9.92925 11.4847C9.94275 11.3272 9.99525 11.2178 10.143 11.1885C10.1838 11.1823 10.2254 11.1859 10.2645 11.199C10.545 11.2853 10.8247 11.3752 11.1045 11.4622L13.0852 12.0803L13.875 12.3255C13.9341 12.3418 13.9853 12.3788 14.0193 12.4297C14.0533 12.4807 14.0679 12.5422 14.0602 12.603C14.0385 12.7703 13.9387 12.879 13.8067 12.8835V12.8835ZM8.33925 17.7555C8.36325 17.7615 8.39175 17.7668 8.4195 17.775L12.0232 18.9C12.147 18.939 12.2205 19.0425 12.2092 19.164C12.195 19.3275 12.1095 19.4363 11.9812 19.4475C11.9416 19.4494 11.9019 19.4438 11.8642 19.431C10.8705 19.122 9.8775 18.8115 8.8845 18.501C8.6775 18.4365 8.4705 18.3735 8.26425 18.3082C8.14875 18.2715 8.07225 18.1732 8.0805 18.0607C8.0925 17.9122 8.14725 17.799 8.28 17.7653C8.29725 17.76 8.316 17.7592 8.34 17.7555H8.33925ZM15.9367 5.9325C15.9255 5.9655 15.9105 6.0345 15.8782 6.09225C15.8257 6.18675 15.7185 6.222 15.6127 6.189L13.875 5.646C13.2532 5.45175 12.6315 5.2575 12.009 5.06475C11.9032 5.03175 11.8245 4.9695 11.8125 4.8495C11.799 4.7145 11.8612 4.53375 12.0382 4.5135C12.0718 4.51126 12.1055 4.51586 12.1372 4.527L15.7492 5.65425C15.8692 5.69175 15.9367 5.78025 15.9367 5.9325V5.9325ZM10.7505 10.7798C10.758 10.6245 10.8255 10.5075 10.947 10.4835C10.9948 10.475 11.0439 10.4781 11.0902 10.4925C11.4547 10.6035 11.8177 10.7182 12.1822 10.8322L13.5562 11.2597C13.6172 11.2767 13.6698 11.3157 13.7036 11.3692C13.7374 11.4227 13.7501 11.4869 13.7392 11.5493C13.7115 11.7218 13.6087 11.8267 13.4692 11.8117C13.398 11.8027 13.3282 11.7743 13.2577 11.7525L11.4712 11.1945L10.9327 11.0265C10.8788 11.0123 10.8313 10.9801 10.7981 10.9353C10.765 10.8904 10.7482 10.8355 10.7505 10.7798V10.7798ZM10.5015 12.1973C10.5495 12.21 10.5855 12.2167 10.6207 12.2272L12.8857 12.9352C12.948 12.9547 13.011 12.9727 13.0732 12.993C13.212 13.038 13.2795 13.167 13.2435 13.314C13.2157 13.4303 13.1602 13.5195 13.0402 13.5397C13.001 13.5454 12.961 13.5421 12.9232 13.53C12.6352 13.4423 12.348 13.3515 12.0607 13.2615C11.526 13.095 10.992 12.9278 10.458 12.7628C10.359 12.732 10.284 12.6728 10.2675 12.564C10.2487 12.4433 10.2802 12.3315 10.377 12.2543C10.4145 12.225 10.464 12.2145 10.5015 12.198V12.1973ZM8.41425 19.0875C8.42475 18.9255 8.49525 18.7988 8.6415 18.783C8.67358 18.7798 8.70598 18.7831 8.73675 18.7927C9.56775 19.0515 10.3987 19.3102 11.2297 19.5705C11.3632 19.6125 11.4285 19.7445 11.3947 19.8855C11.3662 20.0055 11.3047 20.0895 11.187 20.1165C11.165 20.1227 11.1418 20.1232 11.1195 20.118L8.78925 19.3905C8.721 19.3688 8.652 19.3485 8.583 19.326C8.53314 19.3094 8.48988 19.2773 8.45953 19.2344C8.42918 19.1915 8.41331 19.14 8.41425 19.0875ZM9.162 17.0475C9.1845 17.0535 9.2145 17.0587 9.24375 17.0677L11.7045 17.8358C11.8245 17.8733 11.8995 17.9783 11.8905 18.0953C11.8777 18.2558 11.7952 18.366 11.6692 18.3818C11.6266 18.3852 11.5837 18.3798 11.5432 18.366C10.8795 18.1598 10.2157 17.9513 9.55275 17.7435C9.3945 17.6948 9.2355 17.646 9.078 17.5958C8.9625 17.5583 8.89275 17.463 8.9025 17.3445C8.9145 17.19 8.9745 17.0895 9.1035 17.0557C9.12 17.0512 9.13725 17.0513 9.162 17.0483V17.0475ZM14.8785 6.876C14.7975 6.852 14.7187 6.83025 14.64 6.8055C13.8697 6.5655 13.0995 6.32325 12.3285 6.0825C12.1747 6.03375 12.1125 5.91 12.1545 5.7465C12.1807 5.64225 12.2347 5.56725 12.336 5.544C12.3807 5.53404 12.4271 5.53559 12.471 5.5485C13.1535 5.75925 13.8367 5.973 14.52 6.186C14.6662 6.231 14.8117 6.2775 14.958 6.32325C15.0135 6.34107 15.061 6.37793 15.092 6.42733C15.123 6.47672 15.1356 6.53549 15.1275 6.59325C15.1147 6.69225 15.087 6.78825 14.9925 6.837C14.9572 6.855 14.9175 6.8625 14.8785 6.876V6.876ZM15.6157 4.851C15.6015 4.95075 15.5745 5.0595 15.4605 5.115C15.4023 5.1409 15.3363 5.14279 15.2767 5.12025L13.503 4.56525L12.8107 4.34775C12.6652 4.30275 12.6022 4.17675 12.642 4.0215C12.669 3.91575 12.72 3.834 12.8257 3.8115C12.8722 3.80245 12.9201 3.80503 12.9652 3.819C13.4317 3.963 13.8975 4.11 14.3632 4.2555L15.432 4.5885C15.5482 4.62525 15.6165 4.716 15.6157 4.851V4.851Z" fill="white"/>
</svg>
