<svg width="24" height="24" viewBox="0 0 24 24" fill="none" xmlns="http://www.w3.org/2000/svg">
<path d="M12 24C18.6274 24 24 18.6274 24 12C24 5.37258 18.6274 0 12 0C5.37258 0 0 5.37258 0 12C0 18.6274 5.37258 24 12 24Z" fill="#1D9AD7"/>
<path fill-rule="evenodd" clip-rule="evenodd" d="M19.5003 9.15899C18.7435 8.36849 17.1888 7.70699 14.2893 7.30124C13.375 7.17323 12.4571 7.07344 11.5368 7.00199C10.822 6.95924 10.1283 6.91649 9.45626 6.91649C8.34251 8.58149 7.29176 10.5892 6.36701 13.002C5.35826 15.6495 4.45526 18.255 3.82526 20.625H3.63626C3.69926 18.084 4.11926 15.2017 4.98101 12.2122C5.54876 10.2697 6.22076 8.56049 6.97751 7.06649C3.57251 7.42949 1.13501 8.47574 0.00100708 9.96974C0.967757 7.59974 3.84626 5.59274 8.23826 4.88849C10.5708 1.40774 13.3233 -0.151511 15.6138 0.532489C16.4118 0.767239 17.0845 1.27949 17.6313 2.00549C17.5675 1.96274 17.5045 1.91999 17.4213 1.89899C15.7398 1.21574 13.4703 2.19749 11.2638 4.63199H11.3688C16.3068 4.61099 18.8073 6.70349 19.501 9.15899H19.5003ZM13.3225 12.3615C14.6673 12.3615 15.76 13.4932 15.76 14.8815C15.76 16.269 14.6673 17.4007 13.3225 17.4007C11.9778 17.4007 10.885 16.269 10.885 14.8807C10.885 13.4722 11.9778 12.3615 13.3225 12.3615Z" fill="white"/>
</svg>
