<svg width="24" height="24" viewBox="0 0 24 24" fill="none" xmlns="http://www.w3.org/2000/svg">
<path d="M12 24C18.6274 24 24 18.6274 24 12C24 5.37258 18.6274 0 12 0C5.37258 0 0 5.37258 0 12C0 18.6274 5.37258 24 12 24Z" fill="#58BF00"/>
<path d="M18.75 16.935L13.5075 14.4915V9.0765L18.75 7.21725V16.935ZM11.1172 19.5L6 17.1157V7.4685L11.1172 9.8535V19.5ZM18.6248 6.86775L18.54 6.89775L13.5075 8.6835L13.3815 8.7285L11.2492 9.4845L6.20175 7.1325L13.3815 4.5855L13.4445 4.563L13.5773 4.51575L13.6238 4.5L18.6713 6.852L18.624 6.86775H18.6248Z" fill="white"/>
</svg>
