<svg width="24" height="24" viewBox="0 0 24 24" fill="none" xmlns="http://www.w3.org/2000/svg">
<path d="M12 24C18.6274 24 24 18.6274 24 12C24 5.37258 18.6274 0 12 0C5.37258 0 0 5.37258 0 12C0 18.6274 5.37258 24 12 24Z" fill="#35A5F3"/>
<path d="M5.265 5.27022C6.2175 4.27497 7.9575 4.23522 8.94075 5.20272C9.96825 6.20772 10.9853 7.22172 11.9918 8.24547C13.0628 7.22772 14.0648 6.14172 15.1403 5.12847C16.1633 4.20447 17.9033 4.31622 18.8115 5.35122C19.743 6.32772 19.728 8.03097 18.7613 8.97897C17.766 9.99222 16.758 10.9905 15.7538 11.9955C16.7798 13.0522 17.8485 14.0677 18.8663 15.138C19.7783 16.1377 19.6913 17.8417 18.702 18.7605C17.7293 19.743 15.9848 19.746 15.0135 18.759C14.0033 17.7675 13.0148 16.752 12.0113 15.756C10.9403 16.7865 9.91875 17.868 8.8365 18.888C7.8 19.8075 6.05251 19.6702 5.16 18.615C4.26 17.6407 4.2825 15.981 5.22 15.0375C6.10112 14.1354 6.99268 13.2436 7.8945 12.3622L9.02476 13.491C8.14275 14.4015 7.215 15.273 6.3465 16.197C5.76075 16.797 6.27675 17.916 7.0995 17.9025C7.59825 17.9467 7.94251 17.5335 8.26651 17.2215C9.12676 16.3455 9.99976 15.4852 10.86 14.6092C8.98501 12.7177 7.08001 10.8525 5.214 8.95272C4.2405 7.97172 4.27125 6.22272 5.2665 5.27022H5.265ZM6.35475 7.81272C7.347 8.84772 8.37751 9.84597 9.38776 10.8637C9.87526 10.3702 10.3658 9.87972 10.8593 9.39147C9.88201 8.40672 8.90851 7.41522 7.91776 6.44397C7.60201 6.10272 7.062 5.97597 6.65025 6.22047C6.07725 6.49797 5.89651 7.34997 6.35401 7.81272H6.35475ZM16.0598 6.47022C14.1953 8.30022 12.3683 10.1692 10.5135 12.0082C11.0138 12.4935 11.5125 12.9802 12.0008 13.4782C12.375 13.1092 12.747 12.7357 13.1198 12.3622C13.4963 12.738 13.8705 13.116 14.25 13.4895C13.8818 13.8645 13.5113 14.2365 13.137 14.607C14.1428 15.6187 15.129 16.6492 16.1678 17.628C16.695 18.183 17.718 17.8462 17.8703 17.115C18.0338 16.5975 17.6618 16.1497 17.3108 15.8242C15.6582 14.1795 14.0092 12.5313 12.3638 10.8795C12.7405 10.5037 13.1158 10.1265 13.4895 9.74772C13.8645 10.1212 14.2388 10.4947 14.622 10.8622C15.6083 9.83997 16.6538 8.87472 17.625 7.83672C18.1148 7.36122 17.919 6.44997 17.2935 6.19272C16.8735 5.97597 16.3613 6.12897 16.059 6.47022H16.0598Z" fill="white"/>
</svg>
