<svg width="24" height="24" viewBox="0 0 24 24" fill="none" xmlns="http://www.w3.org/2000/svg">
<path d="M12 24C18.6274 24 24 18.6274 24 12C24 5.37258 18.6274 0 12 0C5.37258 0 0 5.37258 0 12C0 18.6274 5.37258 24 12 24Z" fill="#57BEEA"/>
<path d="M5.26951 14.2568C4.98406 14.29 4.6948 14.2624 4.4208 14.1758C4.14679 14.0892 3.89425 13.9454 3.67982 13.7541C3.46539 13.5628 3.29394 13.3282 3.17676 13.0658C3.05959 12.8034 2.99934 12.5191 3.00001 12.2318C2.99879 11.6954 3.20947 11.1803 3.58619 10.7985C3.96291 10.4167 4.47518 10.1992 5.01151 10.1932C5.73151 6.88575 8.66401 4.41 12.171 4.41C12.8258 4.41 13.461 4.49625 14.0648 4.6575C14.2494 4.37847 14.5003 4.14955 14.795 3.99118C15.0898 3.83282 15.4192 3.74996 15.7538 3.75C16.2931 3.75139 16.8098 3.96692 17.1902 4.34919C17.5707 4.73146 17.7837 5.24918 17.7825 5.7885C17.7825 6.14025 17.694 6.471 17.538 6.759C18.8022 8.1225 19.5032 9.91412 19.5 11.7735C19.5017 12.7474 19.3101 13.712 18.9362 14.6112C18.5623 15.5105 18.0137 16.3266 17.322 17.0123C17.5665 17.3483 17.7105 17.763 17.7105 18.2115C17.7111 18.4786 17.6591 18.7432 17.5574 18.9902C17.4557 19.2372 17.3064 19.4618 17.1179 19.6511C16.9295 19.8404 16.7056 19.9907 16.459 20.0935C16.2125 20.1962 15.9481 20.2494 15.681 20.25C15.2726 20.2495 14.8738 20.1259 14.5368 19.8952C14.1997 19.6645 13.9401 19.3375 13.7918 18.957C13.2601 19.0771 12.7168 19.1375 12.1718 19.137C8.99101 19.137 6.28351 17.1015 5.26951 14.2568V14.2568ZM5.63701 14.178C6.61201 16.854 9.16951 18.7642 12.171 18.7642C12.6923 18.7642 13.2 18.7065 13.6883 18.5978C13.6306 18.3034 13.6388 17.9999 13.7123 17.7091C13.7857 17.4183 13.9225 17.1473 14.113 16.9156C14.3034 16.6838 14.5427 16.4971 14.8138 16.3687C15.0849 16.2403 15.3811 16.1735 15.681 16.173C16.221 16.173 16.713 16.3853 17.076 16.731C17.728 16.0808 18.2451 15.308 18.5974 14.4572C18.9496 13.6064 19.1302 12.6943 19.1288 11.7735C19.1288 9.966 18.4463 8.319 17.325 7.0785C16.953 7.536 16.3875 7.82775 15.7538 7.82775C15.4866 7.82716 15.2221 7.77394 14.9755 7.67113C14.7289 7.56832 14.505 7.41793 14.3166 7.22856C14.1281 7.03919 13.9788 6.81454 13.8771 6.56745C13.7755 6.32036 13.7236 6.05567 13.7243 5.7885C13.7243 5.508 13.7813 5.24025 13.8833 4.9965C13.3236 4.85455 12.7484 4.78299 12.171 4.7835C8.85901 4.7835 6.08701 7.10925 5.38576 10.2248C5.85563 10.3101 6.28057 10.5578 6.5863 10.9247C6.89202 11.2915 7.05908 11.7542 7.05826 12.2318C7.05894 12.6652 6.92144 13.0876 6.66573 13.4376C6.41002 13.7875 6.04941 14.0469 5.63626 14.178H5.63701ZM12.171 13.815C11.9036 13.8143 11.639 13.761 11.3922 13.658C11.1454 13.555 10.9213 13.4045 10.7327 13.2149C10.5441 13.0253 10.3947 12.8005 10.293 12.5531C10.1913 12.3058 10.1393 12.0409 10.14 11.7735C10.14 10.6462 11.049 9.73275 12.171 9.73275C13.293 9.73275 14.2028 10.6462 14.2028 11.7735C14.2034 12.041 14.1514 12.306 14.0497 12.5533C13.948 12.8007 13.7985 13.0256 13.6098 13.2152C13.4211 13.4047 13.1969 13.5553 12.9501 13.6582C12.7032 13.7611 12.4385 13.8144 12.171 13.815V13.815Z" fill="white"/>
</svg>
