<svg width="24" height="24" viewBox="0 0 24 24" fill="none" xmlns="http://www.w3.org/2000/svg">
<path d="M12 24C18.6274 24 24 18.6274 24 12C24 5.37258 18.6274 0 12 0C5.37258 0 0 5.37258 0 12C0 18.6274 5.37258 24 12 24Z" fill="#102044"/>
<path d="M18.186 14.5125C18.5235 14.6423 18.747 14.9633 18.75 15.3225C18.7507 15.6278 18.5887 15.9113 18.324 16.0673C18.0592 16.2233 17.7315 16.2285 17.4615 16.0823L12.939 18.5498C12.9502 18.669 12.9366 18.7893 12.8991 18.9031C12.8615 19.0169 12.8009 19.1216 12.721 19.2109C12.6411 19.3001 12.5435 19.3718 12.4346 19.4216C12.3256 19.4714 12.2075 19.498 12.0877 19.5C11.8571 19.5056 11.6337 19.4195 11.4666 19.2604C11.2995 19.1013 11.2024 18.8824 11.1967 18.6518L8.99174 17.3895H8.94149V17.3633L6.61799 16.035C6.4729 16.1351 6.30073 16.1884 6.12449 16.188C5.91467 16.1891 5.71152 16.1143 5.55247 15.9775C5.39342 15.8406 5.28919 15.6509 5.25899 15.4433C5.23 15.2358 5.27726 15.0248 5.39202 14.8495C5.50677 14.6742 5.68122 14.5465 5.88299 14.49V9.52801C5.71322 9.48037 5.562 9.38215 5.44945 9.24642C5.33691 9.11069 5.26838 8.9439 5.25299 8.76826C5.22299 8.40976 5.41874 8.07001 5.74649 7.91476C5.90637 7.83883 6.08547 7.81303 6.26027 7.84074C6.43508 7.86845 6.59742 7.94837 6.72599 8.07001L11.2035 5.50501C11.1839 5.38061 11.1916 5.25345 11.226 5.13232C11.2604 5.01118 11.3207 4.89896 11.4027 4.80341C11.4848 4.70785 11.5865 4.63123 11.701 4.57885C11.8155 4.52647 11.9401 4.49957 12.066 4.50001C12.1956 4.49979 12.3236 4.52853 12.4406 4.58412C12.5577 4.63971 12.6608 4.72074 12.7425 4.8213C12.8243 4.92186 12.8825 5.0394 12.913 5.16535C12.9435 5.29129 12.9454 5.42245 12.9187 5.54926L17.2897 8.05276C17.4495 7.90876 17.6572 7.82926 17.874 7.83001C18.0775 7.82781 18.2752 7.89743 18.4324 8.02662C18.5896 8.15581 18.6962 8.3363 18.7334 8.53633C18.7707 8.73636 18.7362 8.94313 18.6361 9.12026C18.536 9.29739 18.3766 9.43354 18.186 9.50476V14.5133V14.5125ZM15.0975 12.5588V16.821L17.1015 15.7283C17.039 15.6087 17.0052 15.4763 17.0027 15.3415C17.0002 15.2067 17.0291 15.0731 17.087 14.9513C17.145 14.8296 17.2305 14.723 17.3367 14.6399C17.443 14.5568 17.5671 14.4996 17.6992 14.4728V9.54526C17.5022 9.50631 17.3248 9.40041 17.197 9.24553C17.0691 9.09065 16.9988 8.89632 16.998 8.69551C16.998 8.61601 17.0092 8.53651 17.031 8.45926L15.1312 7.37026V11.3333H15.1282L15.1207 11.5928L15.0135 11.643L14.3287 12.0525L14.9835 12.4425L15.0877 12.492L15.0907 12.5385L15.0945 12.5588H15.0975ZM12.0675 6.23176C11.8185 6.23176 11.5815 6.12676 11.4157 5.94151L9.42824 7.08076V11.2898L10.2442 11.7758L11.2747 11.1698C11.2535 11.0583 11.2572 10.9435 11.2855 10.8336C11.3139 10.7237 11.3662 10.6215 11.4388 10.5342C11.5113 10.447 11.6023 10.3769 11.7052 10.3289C11.8081 10.281 11.9203 10.2564 12.0337 10.257C12.1445 10.2568 12.254 10.2804 12.3547 10.3264C12.4554 10.3724 12.5451 10.4396 12.6174 10.5234C12.6898 10.6073 12.7432 10.7057 12.7739 10.8121C12.8047 10.9185 12.8122 11.0302 12.7957 11.1398L13.86 11.7728L14.649 11.3003V7.09351L12.6885 5.97076C12.6075 6.05332 12.5109 6.11888 12.4043 6.16357C12.2976 6.20826 12.1831 6.23119 12.0675 6.23101V6.23176ZM12.5775 12.5483L13.3897 12.0593L12.5737 11.5725C12.432 11.7102 12.243 11.7887 12.0454 11.7919C11.8478 11.7951 11.6564 11.7228 11.5102 11.5898L10.7077 12.0555L11.5065 12.5318C11.6529 12.3964 11.8459 12.3226 12.0453 12.3257C12.2447 12.3288 12.4353 12.4085 12.5775 12.5483V12.5483ZM6.93149 15.6585L8.94149 16.8105V12.6915L8.94524 12.5588L8.97899 12.525L9.14699 12.4253L9.77099 12.0593L9.20699 11.7263L8.94524 11.5928V11.433H8.94224V7.35676L6.97124 8.48626C7.08749 8.93626 6.82124 9.39676 6.37124 9.52501V14.493C6.60899 14.562 6.80624 14.7293 6.91349 14.9513C7.02074 15.174 7.02749 15.4313 6.93149 15.6585ZM12.0675 17.7533C12.3412 17.7533 12.5985 17.8808 12.762 18.0998L14.6145 17.0873V12.7853L13.86 12.3353L12.795 12.975C12.8025 13.0125 12.8055 13.05 12.8055 13.0875C12.8055 13.5113 12.4605 13.854 12.033 13.854C11.9207 13.8541 11.8098 13.8295 11.708 13.7821C11.6062 13.7347 11.516 13.6656 11.4438 13.5796C11.3716 13.4936 11.3191 13.3928 11.29 13.2843C11.2609 13.1759 11.256 13.0623 11.2755 12.9518L10.2307 12.3323L9.42524 12.8018V17.0873L11.319 18.1725C11.4765 17.9115 11.7607 17.7525 12.0675 17.7533V17.7533Z" fill="white"/>
</svg>
