<svg width="24" height="24" viewBox="0 0 24 24" fill="none" xmlns="http://www.w3.org/2000/svg">
<path d="M12 24C18.6274 24 24 18.6274 24 12C24 5.37258 18.6274 0 12 0C5.37258 0 0 5.37258 0 12C0 18.6274 5.37258 24 12 24Z" fill="#0093DD"/>
<path fill-rule="evenodd" clip-rule="evenodd" d="M10.155 12L14.0355 15.9975L16.4843 13.4753C16.5855 13.3696 16.707 13.2856 16.8416 13.2281C16.9762 13.1707 17.1209 13.1411 17.2673 13.1411C17.4136 13.1411 17.5583 13.1707 17.6929 13.2281C17.8275 13.2856 17.949 13.3696 18.0502 13.4753C18.2585 13.6923 18.3748 13.9814 18.3748 14.2823C18.3748 14.5831 18.2585 14.8722 18.0502 15.0893L14.8185 18.4193C14.7167 18.5239 14.595 18.6072 14.4605 18.664C14.326 18.7208 14.1815 18.7501 14.0355 18.7501C13.8895 18.7501 13.745 18.7208 13.6105 18.664C13.476 18.6072 13.3543 18.5239 13.2525 18.4193L8.5905 13.6148V16.4708C8.5905 17.0978 8.091 17.6123 7.48275 17.6123C6.87075 17.6123 6.375 17.1008 6.375 16.4708V7.53C6.375 6.9 6.87075 6.3885 7.48275 6.3885C8.094 6.3885 8.5905 6.9 8.5905 7.53V10.386L13.2525 5.5815C13.3543 5.47682 13.476 5.3936 13.6105 5.33677C13.745 5.27995 13.8895 5.25067 14.0355 5.25067C14.1815 5.25067 14.326 5.27995 14.4605 5.33677C14.595 5.3936 14.7167 5.47682 14.8185 5.5815L18.051 8.9115C18.2593 9.12854 18.3756 9.4177 18.3756 9.7185C18.3756 10.0193 18.2593 10.3085 18.051 10.5255C17.9498 10.6314 17.8281 10.7156 17.6934 10.7732C17.5587 10.8307 17.4137 10.8604 17.2673 10.8604C17.1208 10.8604 16.9758 10.8307 16.8411 10.7732C16.7064 10.7156 16.5847 10.6314 16.4835 10.5255L14.0355 8.0025L10.155 12ZM14.037 10.8578C14.649 10.8578 15.1455 11.3693 15.1455 12C15.1455 12.6308 14.649 13.1423 14.037 13.1423C13.425 13.1423 12.9285 12.6308 12.9285 12C12.9285 11.3693 13.425 10.8578 14.037 10.8578Z" fill="white"/>
</svg>
