<svg width="24" height="24" viewBox="0 0 24 24" fill="none" xmlns="http://www.w3.org/2000/svg">
<path d="M12 24C18.6274 24 24 18.6274 24 12C24 5.37258 18.6274 0 12 0C5.37258 0 0 5.37258 0 12C0 18.6274 5.37258 24 12 24Z" fill="#326464"/>
<path fill-rule="evenodd" clip-rule="evenodd" d="M12 3.75L17.6115 6.15525C17.7788 6.2265 17.9115 6.3615 17.982 6.53025L20.25 12L17.9827 17.535C17.9478 17.62 17.8964 17.6973 17.8315 17.7624C17.7667 17.8275 17.6896 17.8792 17.6047 17.9145L12 20.25L6.39525 17.9145C6.31032 17.8791 6.23321 17.8273 6.16834 17.7621C6.10348 17.6968 6.05213 17.6194 6.01725 17.5342L3.75 12L6.018 6.5295C6.08783 6.36094 6.22079 6.22636 6.3885 6.1545L12 3.75ZM12 7.10625L8.574 8.574L7.10625 12L8.574 15.426L12 16.8937L15.426 15.426L16.8937 12L15.426 8.574L12 7.10625ZM12 8.574L14.4473 9.55275L15.426 12L14.4473 14.4473L12 15.426L9.55275 14.4473L8.574 12L9.55275 9.55275L12 8.574Z" fill="white"/>
</svg>
