<svg width="24" height="24" viewBox="0 0 24 24" fill="none" xmlns="http://www.w3.org/2000/svg">
<path d="M12 24C18.6274 24 24 18.6274 24 12C24 5.37258 18.6274 0 12 0C5.37258 0 0 5.37258 0 12C0 18.6274 5.37258 24 12 24Z" fill="#188C92"/>
<path d="M16.377 15.7725C16.3346 15.8333 16.3095 15.9046 16.3045 15.9785C16.2995 16.0525 16.3147 16.1265 16.3485 16.1925L11.904 19.671C11.8465 19.6257 11.7788 19.5953 11.7068 19.5825L11.5717 11.0205C11.6193 11.0105 11.6649 10.9928 11.7068 10.968L16.377 15.7733V15.7725ZM16.5015 15.654L11.835 10.8525C11.8724 10.8022 11.8977 10.744 11.909 10.6823C11.9203 10.6207 11.9173 10.5573 11.9002 10.497L16.6448 8.187C16.7065 8.2625 16.7918 8.31506 16.887 8.33625L16.6508 15.5947C16.598 15.6056 16.5477 15.6259 16.5023 15.6547L16.5015 15.654ZM11.4465 19.6118L8.934 16.2345C9.00843 16.1577 9.05011 16.055 9.05025 15.948C9.04833 15.8413 9.00668 15.7391 8.93346 15.6614C8.86023 15.5838 8.76068 15.5362 8.65425 15.528L7.86975 8.42775C7.96285 8.40654 8.0461 8.35461 8.1061 8.28033C8.1661 8.20604 8.19935 8.11373 8.2005 8.01825C8.2004 7.92065 8.16557 7.82627 8.10225 7.752L11.256 4.36725C11.2965 4.38975 11.3415 4.407 11.3895 4.41675V10.1948C11.2922 10.2123 11.2041 10.2631 11.1402 10.3385C11.0763 10.4139 11.0406 10.5092 11.0392 10.608C11.0409 10.708 11.0775 10.8042 11.1427 10.88C11.2079 10.9558 11.2976 11.0063 11.3962 11.0227L11.5312 19.5848C11.5024 19.591 11.4743 19.6 11.4472 19.6118H11.4465ZM11.565 10.1948V4.4175C11.6409 4.40247 11.7115 4.36782 11.7697 4.317L16.59 7.74825C16.5462 7.83833 16.5371 7.9414 16.5645 8.03775L11.8207 10.3477C11.7557 10.2689 11.6653 10.2151 11.565 10.1955V10.1948ZM11.4773 3.75C11.622 3.75 11.7397 3.86325 11.7397 4.00275C11.7392 4.03663 11.7319 4.07007 11.7184 4.10115C11.7049 4.13222 11.6854 4.16034 11.661 4.18388C11.6366 4.20742 11.6079 4.22593 11.5763 4.23834C11.5448 4.25076 11.5111 4.25685 11.4773 4.25625C11.4434 4.25685 11.4097 4.25076 11.3782 4.23834C11.3466 4.22593 11.3179 4.20742 11.2935 4.18388C11.2691 4.16034 11.2496 4.13222 11.2361 4.10115C11.2226 4.07007 11.2153 4.03663 11.2148 4.00275C11.2148 3.86325 11.3318 3.75 11.4773 3.75ZM7.7625 7.7655C7.908 7.7655 8.025 7.878 8.025 8.01825C8.02441 8.05213 8.01716 8.08557 8.00365 8.11665C7.99014 8.14772 7.97064 8.17584 7.94626 8.19938C7.92189 8.22292 7.89311 8.24143 7.86158 8.25384C7.83005 8.26626 7.79638 8.27235 7.7625 8.27175C7.72862 8.27235 7.69495 8.26626 7.66342 8.25384C7.63189 8.24143 7.60311 8.22292 7.57874 8.19938C7.55436 8.17584 7.53486 8.14772 7.52135 8.11665C7.50784 8.08557 7.50059 8.05213 7.5 8.01825C7.5 7.87875 7.61775 7.7655 7.7625 7.7655ZM8.61225 15.6945C8.75775 15.6945 8.87475 15.8077 8.87475 15.948C8.87337 16.0163 8.84496 16.0813 8.79575 16.1286C8.74654 16.176 8.68055 16.202 8.61225 16.2007C8.54395 16.202 8.47796 16.176 8.42875 16.1286C8.37954 16.0813 8.35113 16.0163 8.34975 15.948C8.34975 15.8077 8.4675 15.6945 8.61225 15.6945ZM16.9875 7.6725C17.1322 7.6725 17.25 7.78575 17.25 7.92525C17.2494 7.95913 17.2422 7.99257 17.2286 8.02365C17.2151 8.05472 17.1956 8.08284 17.1713 8.10638C17.1469 8.12992 17.1181 8.14843 17.0866 8.16084C17.0551 8.17326 17.0214 8.17935 16.9875 8.17875C16.9536 8.17935 16.92 8.17326 16.8884 8.16084C16.8569 8.14843 16.8281 8.12992 16.8037 8.10638C16.7794 8.08284 16.7599 8.05472 16.7464 8.02365C16.7328 7.99257 16.7256 7.95913 16.725 7.92525C16.725 7.78575 16.842 7.6725 16.9875 7.6725ZM11.4773 10.3553C11.622 10.3553 11.7397 10.4678 11.7397 10.608C11.7392 10.6419 11.7319 10.6753 11.7184 10.7064C11.7049 10.7375 11.6854 10.7656 11.661 10.7891C11.6366 10.8127 11.6079 10.8312 11.5763 10.8436C11.5448 10.856 11.5111 10.8621 11.4773 10.8615C11.4434 10.8621 11.4097 10.856 11.3782 10.8436C11.3466 10.8312 11.3179 10.8127 11.2935 10.7891C11.2691 10.7656 11.2496 10.7375 11.2361 10.7064C11.2226 10.6753 11.2153 10.6419 11.2148 10.608C11.2148 10.4685 11.3318 10.3553 11.4773 10.3553ZM11.6258 19.7438C11.7713 19.7438 11.8882 19.857 11.8882 19.9973C11.8869 20.0655 11.8585 20.1305 11.8093 20.1779C11.76 20.2253 11.6941 20.2512 11.6258 20.25C11.5574 20.2512 11.4915 20.2253 11.4422 20.1779C11.393 20.1305 11.3646 20.0655 11.3633 19.9973C11.3633 19.857 11.481 19.7438 11.6258 19.7438ZM16.7422 15.7537C16.887 15.7537 17.0048 15.867 17.0048 16.0073C17.0034 16.0755 16.975 16.1405 16.9258 16.1879C16.8765 16.2353 16.8106 16.2612 16.7422 16.26C16.6739 16.2612 16.608 16.2353 16.5587 16.1879C16.5095 16.1405 16.4811 16.0755 16.4797 16.0073C16.4797 15.867 16.5967 15.7537 16.7422 15.7537Z" fill="white"/>
</svg>
