<svg width="24" height="24" viewBox="0 0 24 24" fill="none" xmlns="http://www.w3.org/2000/svg">
<path d="M12 24C18.6274 24 24 18.6274 24 12C24 5.37258 18.6274 0 12 0C5.37258 0 0 5.37258 0 12C0 18.6274 5.37258 24 12 24Z" fill="#5592D7"/>
<path d="M15.1845 9.5002V19.2299L6.9675 14.4997C4.5375 13.077 4.692 12.192 4.692 10.2697L13.1392 15.1537V10.692L15.1838 9.49945L15.1845 9.5002Z" fill="white"/>
<path opacity="0.6" d="M13.1409 15.1537L4.69365 10.269L12.9092 5.53873C15.3392 4.15348 16.0336 4.73098 17.7309 5.69248L9.28365 10.5772L13.1409 12.8077V15.1537Z" fill="white"/>
<path opacity="0.2" d="M9.28276 10.5773L17.73 5.6925V15.1538C17.73 17.9618 16.8818 18.2693 15.1845 19.2308V9.50025L11.2875 11.73L9.28201 10.5765L9.28276 10.5773Z" fill="white"/>
</svg>
