<svg width="24" height="24" viewBox="0 0 24 24" fill="none" xmlns="http://www.w3.org/2000/svg">
<path d="M12 24C18.6274 24 24 18.6274 24 12C24 5.37258 18.6274 0 12 0C5.37258 0 0 5.37258 0 12C0 18.6274 5.37258 24 12 24Z" fill="#033B4A"/>
<path d="M11.649 5.29801C12.0668 5.17576 12.51 5.30026 12.8708 5.51851C14.4796 6.43998 16.0956 7.34875 17.7188 8.24476C18.3435 8.57551 18.759 9.25426 18.75 9.95476C18.7485 12.2753 18.7425 14.5973 18.7463 16.9178C18.7718 17.079 18.6623 17.2628 18.4793 17.2463C17.7585 17.2508 17.0378 17.2478 16.317 17.247C16.1595 17.2703 16.008 17.1383 16.0245 16.9785C15.9555 15.0023 15.9818 13.0238 16.002 11.046C16.002 10.7985 15.954 10.5375 15.7943 10.3373C15.6323 10.125 15.3765 10.0163 15.1478 9.89026C14.7728 9.69376 14.4195 9.45601 14.031 9.28426C13.884 9.22576 13.6928 9.16276 13.554 9.27451C13.4003 9.41926 13.4018 9.64801 13.386 9.84301C13.3576 10.8128 13.3549 11.7831 13.3778 12.753C13.377 12.9825 13.3845 13.2495 13.209 13.428C13.0298 13.6035 12.759 13.6065 12.5235 13.6103C12.0975 13.6058 11.6715 13.6215 11.247 13.6005C11.067 13.581 10.851 13.5705 10.734 13.413C10.629 13.2578 10.6335 13.062 10.6245 12.8835C10.6223 11.8643 10.635 10.8443 10.6245 9.82576C10.614 9.64576 10.617 9.44326 10.4895 9.30076C10.3673 9.17476 10.1723 9.21601 10.0253 9.26926C9.70652 9.39376 9.42077 9.58426 9.11852 9.74176C8.81627 9.91576 8.49152 10.0643 8.23202 10.3013C8.06327 10.455 8.01827 10.689 8.01302 10.905C8.00927 12.9075 8.01526 14.9085 7.99801 16.911C8.01526 17.0625 7.92527 17.247 7.74827 17.244C7.00577 17.253 6.26327 17.2478 5.52077 17.2463C5.37227 17.2605 5.23577 17.13 5.25077 16.9823C5.28077 14.5485 5.26202 12.114 5.26427 9.67951C5.25729 9.42495 5.32059 9.17339 5.4472 8.95244C5.57382 8.73149 5.75886 8.54969 5.98202 8.42701C7.67327 7.47901 9.36752 6.53701 11.052 5.57776C11.2425 5.46976 11.4345 5.35651 11.649 5.29801V5.29801Z" fill="white"/>
</svg>
