<svg width="24" height="24" viewBox="0 0 24 24" fill="none" xmlns="http://www.w3.org/2000/svg">
<path d="M12 24C18.6274 24 24 18.6274 24 12C24 5.37258 18.6274 0 12 0C5.37258 0 0 5.37258 0 12C0 18.6274 5.37258 24 12 24Z" fill="#103F68"/>
<path d="M11.985 3.76349L19.125 7.87574V16.1257L11.9933 20.25L11.9355 20.2357L4.875 16.1257V7.87574L11.9355 3.76349H11.985V3.76349ZM11.9618 4.61699L5.625 8.30699V15.6945L11.961 19.3837L12.735 18.936L18.375 15.6922V8.30849L12.735 5.04599L11.9618 4.61699V4.61699ZM6.60675 12.5745L8.4825 11.172L10.1407 12.231V14.136L11.3955 15.345L11.3947 15.912L10.1858 17.0445H9.165L6.6075 12.5745H6.60675ZM12.534 15.9135L12.5317 15.3435L13.782 14.136V12.231L15.4222 11.1585L17.2943 12.5752L14.7495 17.0317H13.7415L12.534 15.9135ZM10.7565 12.231L10.146 10.6327H13.7745L13.176 12.231L13.353 14.0175L11.9528 14.0205L10.569 14.0227L10.7565 12.231V12.231ZM11.9528 10.1947L8.50425 10.1932L9.1455 7.32824H14.7435L15.4185 10.197L11.9528 10.1947Z" fill="white"/>
</svg>
