<svg width="24" height="24" viewBox="0 0 24 24" fill="none" xmlns="http://www.w3.org/2000/svg">
<path d="M12 24C18.6274 24 24 18.6274 24 12C24 5.37258 18.6274 0 12 0C5.37258 0 0 5.37258 0 12C0 18.6274 5.37258 24 12 24Z" fill="#242424"/>
<path d="M16.6928 5.0775C16.6928 5.60325 16.2653 6.03 15.7373 6.03C15.612 6.0302 15.4879 6.00572 15.3721 5.95796C15.2562 5.91019 15.151 5.84009 15.0622 5.75164C14.9735 5.66319 14.9031 5.55814 14.8549 5.44247C14.8068 5.3268 14.782 5.20278 14.7818 5.0775C14.7818 4.551 15.2093 4.125 15.7373 4.125C16.2653 4.125 16.6928 4.551 16.6928 5.0775ZM16.0043 8.3955C15.5573 8.3955 15.1943 8.034 15.1943 7.5885C15.1943 7.143 15.5573 6.78225 16.0043 6.78225C16.4513 6.78225 16.8135 7.143 16.8135 7.5885C16.8135 8.034 16.4513 8.3955 16.0035 8.3955H16.0043ZM15.753 10.3853C15.6633 10.3854 15.5743 10.3679 15.4914 10.3337C15.4084 10.2995 15.333 10.2493 15.2694 10.1859C15.2059 10.1225 15.1555 10.0472 15.1211 9.96428C15.0867 9.88138 15.069 9.7925 15.069 9.70275C15.0691 9.61306 15.0869 9.52427 15.1213 9.44145C15.1558 9.35864 15.2062 9.28342 15.2697 9.2201C15.3332 9.15679 15.4086 9.10661 15.4915 9.07245C15.5745 9.03829 15.6633 9.0208 15.753 9.021C15.8428 9.0208 15.9317 9.03831 16.0146 9.07252C16.0976 9.10673 16.173 9.15697 16.2366 9.22037C16.3001 9.28376 16.3505 9.35907 16.3849 9.44197C16.4193 9.52487 16.437 9.61375 16.437 9.7035C16.4369 9.79319 16.4191 9.88198 16.3847 9.9648C16.3503 10.0476 16.2998 10.1228 16.2363 10.1861C16.1728 10.2495 16.0974 10.2996 16.0145 10.3338C15.9315 10.368 15.8427 10.3854 15.753 10.3853V10.3853ZM15.7125 11.4142C15.7125 11.5694 15.6509 11.7182 15.5412 11.8279C15.4315 11.9376 15.2827 11.9992 15.1275 11.9992C14.9724 11.9992 14.8236 11.9376 14.7138 11.8279C14.6041 11.7182 14.5425 11.5694 14.5425 11.4142C14.5425 11.2591 14.6041 11.1103 14.7138 11.0006C14.8236 10.8909 14.9724 10.8293 15.1275 10.8293C15.2827 10.8293 15.4315 10.8909 15.5412 11.0006C15.6509 11.1103 15.7125 11.2591 15.7125 11.4142V11.4142ZM14.787 12.7073C14.787 12.9848 14.562 13.2075 14.2853 13.2075C14.1862 13.2072 14.0895 13.1775 14.0072 13.1223C13.925 13.067 13.8611 12.9886 13.8234 12.897C13.7857 12.8054 13.7761 12.7047 13.7956 12.6076C13.8152 12.5105 13.8631 12.4213 13.9333 12.3514C14.0035 12.2816 14.0928 12.2341 14.19 12.2149C14.2872 12.1958 14.3879 12.2059 14.4793 12.244C14.5708 12.2821 14.6489 12.3464 14.7038 12.4289C14.7587 12.5113 14.7879 12.6082 14.7878 12.7073H14.787ZM13.7745 13.6245C13.7745 13.7387 13.7291 13.8482 13.6484 13.9289C13.5677 14.0096 13.4582 14.055 13.344 14.055C13.2298 14.055 13.1203 14.0096 13.0396 13.9289C12.9589 13.8482 12.9135 13.7387 12.9135 13.6245C12.9135 13.5103 12.9589 13.4008 13.0396 13.3201C13.1203 13.2394 13.2298 13.194 13.344 13.194C13.4582 13.194 13.5677 13.2394 13.6484 13.3201C13.7291 13.4008 13.7745 13.5103 13.7745 13.6245ZM18.93 8.06775C18.8745 8.27046 18.7426 8.44378 18.5621 8.55137C18.3815 8.65896 18.1663 8.69245 17.9616 8.64482C17.7569 8.59718 17.5786 8.47212 17.4641 8.29588C17.3496 8.11963 17.3078 7.90589 17.3475 7.6995C17.3963 7.48965 17.5265 7.30779 17.7095 7.19393C17.8924 7.08007 18.113 7.04354 18.3229 7.09238C18.5327 7.14121 18.7146 7.2714 18.8285 7.45432C18.9423 7.63724 18.9788 7.8579 18.93 8.06775V8.06775ZM18.5415 10.17C18.5 10.3476 18.3897 10.5015 18.2348 10.5978C18.0798 10.6941 17.893 10.7248 17.7154 10.6834C17.5378 10.6419 17.3839 10.5316 17.2876 10.3766C17.1913 10.2217 17.1605 10.0349 17.202 9.85725C17.2435 9.67962 17.3538 9.52574 17.5087 9.42947C17.6637 9.33319 17.8505 9.3024 18.0281 9.34387C18.2058 9.38535 18.3596 9.49569 18.4559 9.65061C18.5522 9.80554 18.583 9.99237 18.5415 10.17V10.17ZM17.8185 11.8477C17.7835 11.9979 17.6903 12.128 17.5593 12.2095C17.4284 12.2909 17.2704 12.317 17.1203 12.282C16.9701 12.247 16.84 12.1538 16.7585 12.0228C16.6771 11.8919 16.651 11.7339 16.686 11.5837C16.7265 11.4394 16.821 11.3162 16.9501 11.2399C17.0791 11.1636 17.2326 11.14 17.3785 11.174C17.5245 11.208 17.6518 11.2971 17.7337 11.4226C17.8157 11.5481 17.8461 11.7004 17.8185 11.8477V11.8477ZM16.887 13.125C16.8521 13.2478 16.7712 13.3525 16.6612 13.4173C16.5512 13.4821 16.4205 13.5021 16.2961 13.4732C16.1717 13.4443 16.0633 13.3686 15.9932 13.2619C15.9231 13.1552 15.8967 13.0256 15.9195 12.9C15.9343 12.8365 15.9615 12.7766 15.9995 12.7237C16.0375 12.6708 16.0856 12.6259 16.141 12.5915C16.1964 12.5572 16.258 12.5341 16.3223 12.5236C16.3866 12.5131 16.4523 12.5153 16.5158 12.5303C16.5792 12.5448 16.6392 12.5718 16.6922 12.6096C16.7453 12.6474 16.7903 12.6953 16.8248 12.7506C16.8593 12.8058 16.8826 12.8673 16.8932 12.9316C16.9039 12.9958 16.9018 13.0616 16.887 13.125V13.125ZM15.8693 14.0167C15.8565 14.0713 15.833 14.1228 15.8003 14.1683C15.7676 14.2138 15.7263 14.2525 15.6786 14.282C15.631 14.3115 15.578 14.3314 15.5227 14.3404C15.4674 14.3495 15.4108 14.3476 15.3563 14.3348C15.3017 14.3219 15.2502 14.2985 15.2047 14.2658C15.1592 14.2331 15.1205 14.1917 15.091 14.1441C15.0615 14.0965 15.0416 14.0435 15.0326 13.9882C15.0235 13.9329 15.0255 13.8763 15.0383 13.8218C15.0641 13.7116 15.1327 13.6161 15.2289 13.5565C15.3251 13.4969 15.4411 13.4779 15.5513 13.5037C15.6615 13.5296 15.7569 13.5982 15.8165 13.6944C15.8761 13.7906 15.8951 13.9066 15.8693 14.0167ZM14.853 14.58C14.8255 14.6688 14.7654 14.7439 14.6848 14.7902C14.6042 14.8364 14.509 14.8504 14.4185 14.8293C14.3279 14.8082 14.2487 14.7536 14.1969 14.6764C14.145 14.5992 14.1244 14.5053 14.139 14.4135C14.1665 14.3247 14.2266 14.2496 14.3072 14.2033C14.3879 14.1571 14.483 14.1431 14.5736 14.1642C14.6641 14.1853 14.7433 14.2399 14.7951 14.3171C14.847 14.3943 14.8677 14.4882 14.853 14.58V14.58ZM20.181 10.938C20.1008 11.1029 19.9585 11.2292 19.7852 11.2892C19.612 11.3492 19.422 11.3381 19.257 11.2582C19.1752 11.2191 19.1019 11.1641 19.0415 11.0964C18.981 11.0288 18.9345 10.9499 18.9047 10.8642C18.8748 10.7785 18.8622 10.6878 18.8676 10.5972C18.873 10.5066 18.8962 10.418 18.936 10.3365C19.0162 10.1718 19.1584 10.0457 19.3315 9.98565C19.5045 9.92563 19.6943 9.93663 19.8593 10.0162C19.9409 10.0556 20.0141 10.1107 20.0744 10.1783C20.1348 10.246 20.1813 10.3248 20.2112 10.4104C20.241 10.496 20.2538 10.5867 20.2486 10.6772C20.2434 10.7677 20.2204 10.8564 20.181 10.938V10.938ZM19.4603 12.5992C19.3885 12.733 19.268 12.8339 19.1237 12.8809C18.9794 12.9278 18.8225 12.9173 18.6858 12.8514C18.5491 12.7855 18.4431 12.6694 18.3899 12.5272C18.3368 12.3851 18.3406 12.2279 18.4005 12.0885C18.4691 11.9486 18.5901 11.8414 18.7373 11.7902C18.8845 11.7391 19.046 11.7482 19.1865 11.8155C19.2561 11.8488 19.3185 11.8955 19.37 11.953C19.4214 12.0105 19.4611 12.0776 19.4865 12.1504C19.5119 12.2233 19.5227 12.3004 19.5182 12.3774C19.5137 12.4545 19.494 12.5299 19.4603 12.5992V12.5992ZM18.5543 13.8593C18.4951 13.9803 18.3904 14.073 18.2631 14.1172C18.1358 14.1613 17.9962 14.1532 17.8748 14.0947C17.8148 14.0659 17.7611 14.0255 17.7168 13.9758C17.6725 13.9262 17.6384 13.8683 17.6165 13.8054C17.5946 13.7426 17.5854 13.676 17.5893 13.6096C17.5932 13.5431 17.6102 13.4781 17.6393 13.4183C17.7013 13.3028 17.8055 13.2157 17.9301 13.1752C18.0548 13.1347 18.1903 13.1439 18.3083 13.2009C18.4263 13.2579 18.5178 13.3583 18.5636 13.4811C18.6095 13.6039 18.6061 13.7396 18.5543 13.86V13.8593ZM17.5448 14.7502C17.4934 14.855 17.4026 14.9352 17.2924 14.9734C17.1821 15.0116 17.0612 15.0048 16.956 14.9542C16.9024 14.93 16.8542 14.8953 16.8143 14.8521C16.7743 14.809 16.7434 14.7583 16.7234 14.703C16.7034 14.6477 16.6946 14.5889 16.6977 14.5302C16.7008 14.4715 16.7156 14.4139 16.7412 14.361C16.7669 14.3081 16.8029 14.2609 16.8471 14.2221C16.8913 14.1833 16.9428 14.1538 16.9987 14.1353C17.0545 14.1167 17.1134 14.1096 17.1721 14.1142C17.2307 14.1188 17.2878 14.1352 17.34 14.1622C17.3921 14.1874 17.4386 14.2226 17.4771 14.2658C17.5156 14.3089 17.5452 14.3592 17.5642 14.4138C17.5832 14.4684 17.5912 14.5263 17.5879 14.584C17.5846 14.6417 17.5699 14.6982 17.5448 14.7502V14.7502ZM16.5285 15.2993C16.4824 15.3847 16.4051 15.4491 16.3127 15.479C16.2203 15.5089 16.1199 15.5021 16.0325 15.4598C15.945 15.4176 15.8772 15.3433 15.8432 15.2523C15.8091 15.1613 15.8115 15.0608 15.8498 14.9715C15.8977 14.8892 15.9748 14.8281 16.0659 14.8002C16.1569 14.7724 16.2551 14.7799 16.3408 14.8213C16.4265 14.8627 16.4935 14.9349 16.5283 15.0235C16.5631 15.1121 16.5631 15.2106 16.5285 15.2993V15.2993ZM15.5738 15.576C15.5366 15.6522 15.4707 15.7106 15.3906 15.7384C15.3105 15.7662 15.2227 15.7612 15.1463 15.7245C15.1085 15.7062 15.0748 15.6806 15.0469 15.6493C15.0191 15.6179 14.9977 15.5814 14.984 15.5417C14.9703 15.5021 14.9645 15.4602 14.967 15.4183C14.9695 15.3764 14.9802 15.3355 14.9985 15.2977C15.0168 15.26 15.0424 15.2263 15.0738 15.1984C15.1051 15.1706 15.1417 15.1492 15.1813 15.1355C15.2209 15.1218 15.2628 15.116 15.3047 15.1185C15.3466 15.121 15.3875 15.1317 15.4253 15.15C15.463 15.1682 15.4968 15.1937 15.5247 15.2249C15.5526 15.2562 15.574 15.2926 15.5878 15.3322C15.6016 15.3718 15.6075 15.4137 15.6051 15.4555C15.6027 15.4973 15.592 15.5383 15.5738 15.576V15.576ZM16.3508 19.218C16.2421 19.1559 16.1468 19.0729 16.0703 18.9738C15.9938 18.8747 15.9376 18.7615 15.905 18.6407C15.8724 18.5198 15.864 18.3937 15.8802 18.2696C15.8965 18.1455 15.9371 18.0259 15.9998 17.9175C16.1269 17.6986 16.3356 17.5389 16.5801 17.4735C16.8247 17.408 17.0852 17.442 17.3048 17.568C17.7623 17.8305 17.9198 18.4133 17.6565 18.8685C17.5295 19.0876 17.3208 19.2473 17.0762 19.3128C16.8316 19.3784 16.571 19.3442 16.3515 19.218H16.3508ZM14.1083 18.069C14.0162 18.0164 13.9355 17.9462 13.8707 17.8623C13.8059 17.7784 13.7584 17.6826 13.7308 17.5803C13.7032 17.4779 13.6961 17.3712 13.7099 17.2661C13.7237 17.161 13.7582 17.0597 13.8113 16.968C13.9188 16.7826 14.0955 16.6474 14.3025 16.5919C14.5095 16.5363 14.7301 16.5651 14.916 16.6718C15.303 16.8938 15.4358 17.3873 15.213 17.7728C15.1056 17.9583 14.9289 18.0937 14.7219 18.1492C14.5148 18.2047 14.2941 18.1759 14.1083 18.069V18.069ZM12.4568 16.689C12.3789 16.6445 12.3106 16.5849 12.2558 16.5139C12.2009 16.4429 12.1607 16.3617 12.1374 16.2751C12.114 16.1885 12.108 16.0981 12.1197 16.0091C12.1314 15.9202 12.1606 15.8344 12.2055 15.7568C12.2966 15.6 12.4461 15.4857 12.6212 15.4389C12.7963 15.3921 12.9829 15.4166 13.14 15.507C13.2177 15.5515 13.2858 15.6108 13.3404 15.6817C13.3951 15.7525 13.4353 15.8335 13.4586 15.9199C13.482 16.0063 13.488 16.0964 13.4765 16.1851C13.4649 16.2739 13.4359 16.3595 13.3913 16.437C13.3007 16.5943 13.1514 16.7091 12.9762 16.7564C12.8009 16.8037 12.6141 16.7794 12.4568 16.689ZM11.331 15.2085C11.2647 15.1701 11.2066 15.1191 11.1601 15.0583C11.1135 14.9975 11.0794 14.9281 11.0597 14.8541C11.0399 14.7801 11.0349 14.7029 11.045 14.627C11.0551 14.5511 11.08 14.4779 11.1184 14.4116C11.1567 14.3453 11.2078 14.2873 11.2686 14.2407C11.3294 14.1941 11.3988 14.16 11.4728 14.1403C11.5468 14.1205 11.6239 14.1156 11.6999 14.1256C11.7758 14.1357 11.849 14.1606 11.9153 14.199C12.1943 14.3595 12.2903 14.7158 12.129 14.994C12.0515 15.1281 11.924 15.226 11.7744 15.2662C11.6248 15.3065 11.4653 15.2857 11.331 15.2085ZM10.6688 13.764C10.6117 13.7313 10.5616 13.6877 10.5214 13.6357C10.4813 13.5836 10.4518 13.5242 10.4346 13.4607C10.4175 13.3972 10.413 13.331 10.4216 13.2658C10.4301 13.2006 10.4514 13.1377 10.4843 13.0807C10.5511 12.9656 10.6608 12.8815 10.7894 12.8471C10.918 12.8127 11.0551 12.8306 11.1705 12.897C11.4105 13.035 11.493 13.341 11.355 13.5795C11.2885 13.695 11.1788 13.7793 11.0501 13.8139C10.9214 13.8485 10.7842 13.8305 10.6688 13.764V13.764ZM10.377 12.4313C10.328 12.4031 10.2851 12.3656 10.2506 12.3208C10.2162 12.276 10.1909 12.2249 10.1763 12.1703C10.1616 12.1158 10.1579 12.0589 10.1653 12.0029C10.1728 11.9469 10.1912 11.8929 10.2195 11.844C10.2769 11.7455 10.3709 11.6736 10.4811 11.6441C10.5912 11.6146 10.7085 11.6298 10.8075 11.6865C10.8564 11.7148 10.8993 11.7524 10.9336 11.7972C10.968 11.842 10.9932 11.8932 11.0078 11.9478C11.0224 12.0023 11.0261 12.0592 11.0187 12.1152C11.0113 12.1712 10.9929 12.2252 10.9646 12.2741C10.9364 12.323 10.8987 12.3659 10.8539 12.4002C10.8091 12.4346 10.7579 12.4598 10.7034 12.4744C10.6488 12.489 10.5919 12.4927 10.5359 12.4853C10.4799 12.4779 10.4259 12.4595 10.377 12.4313V12.4313ZM13.1895 19.8757C13.083 19.8759 12.9774 19.8551 12.879 19.8145C12.7805 19.7739 12.6909 19.7143 12.6155 19.6391C12.5401 19.5639 12.4802 19.4745 12.4393 19.3761C12.3984 19.2778 12.3774 19.1723 12.3773 19.0657C12.3774 18.9593 12.3985 18.8538 12.4393 18.7555C12.4802 18.6572 12.5401 18.5678 12.6156 18.4927C12.691 18.4175 12.7805 18.358 12.879 18.3174C12.9775 18.2769 13.083 18.2562 13.1895 18.2565C13.638 18.2565 14.0018 18.6188 14.0018 19.0665C14.0018 19.5135 13.638 19.8757 13.1895 19.8757ZM11.001 18.2723C10.9351 18.2109 10.8819 18.137 10.8446 18.055C10.8073 17.973 10.7865 17.8845 10.7835 17.7945C10.7805 17.7044 10.7954 17.6147 10.8271 17.5304C10.8589 17.4461 10.9071 17.3689 10.9688 17.3032C11.0938 17.1705 11.2663 17.0927 11.4486 17.0868C11.6309 17.0809 11.8081 17.1474 11.9415 17.2717C12.219 17.5305 12.2325 17.964 11.973 18.2407C11.848 18.3733 11.6756 18.4509 11.4935 18.4568C11.3114 18.4627 11.1344 18.3964 11.001 18.2723ZM9.90226 16.8113C9.84659 16.7592 9.80175 16.6967 9.7703 16.6273C9.73885 16.5579 9.7214 16.483 9.71896 16.4068C9.71652 16.3307 9.72914 16.2548 9.75609 16.1835C9.78304 16.1122 9.82379 16.047 9.87601 15.9915C9.98159 15.8792 10.1274 15.8133 10.2814 15.8083C10.4355 15.8032 10.5853 15.8594 10.698 15.9645C10.7539 16.0164 10.799 16.0788 10.8306 16.1482C10.8622 16.2176 10.8798 16.2925 10.8823 16.3687C10.8848 16.445 10.8722 16.5209 10.8452 16.5922C10.8182 16.6635 10.7774 16.7288 10.725 16.7842C10.6193 16.8966 10.4734 16.9625 10.3192 16.9676C10.165 16.9726 10.0151 16.9164 9.90226 16.8113ZM9.258 15.3682C9.2104 15.3239 9.17204 15.2706 9.14512 15.2113C9.11821 15.1521 9.10328 15.0881 9.10118 15.0231C9.09909 14.958 9.10989 14.8932 9.13294 14.8324C9.15599 14.7715 9.19085 14.7158 9.23551 14.6685C9.3257 14.5726 9.45017 14.5164 9.58171 14.512C9.71325 14.5077 9.84117 14.5556 9.93751 14.6453C9.9851 14.6897 10.0235 14.7431 10.0504 14.8023C10.0773 14.8616 10.0923 14.9256 10.0945 14.9907C10.0966 15.0557 10.0859 15.1206 10.063 15.1815C10.04 15.2425 10.0053 15.2983 9.96076 15.3458C9.87043 15.4417 9.74575 15.498 9.61403 15.5022C9.4823 15.5064 9.35428 15.4583 9.258 15.3682V15.3682ZM8.991 14.0452C8.95022 14.0071 8.91735 13.9613 8.89429 13.9105C8.87123 13.8596 8.85843 13.8047 8.85662 13.7489C8.85481 13.6931 8.86402 13.6375 8.88374 13.5853C8.90345 13.533 8.93328 13.4852 8.9715 13.4445C9.04893 13.3618 9.15599 13.3133 9.26919 13.3095C9.38239 13.3057 9.49247 13.347 9.57526 13.4243C9.74776 13.5848 9.75526 13.854 9.59476 14.0258C9.51723 14.1083 9.41011 14.1567 9.29691 14.1604C9.18372 14.164 9.0737 14.1226 8.991 14.0452V14.0452ZM9.009 12.8857C8.97384 12.8531 8.94548 12.8138 8.92556 12.7701C8.90565 12.7265 8.89457 12.6793 8.89296 12.6313C8.89136 12.5834 8.89926 12.5356 8.91622 12.4907C8.93317 12.4458 8.95885 12.4047 8.99176 12.3698C9.05841 12.299 9.15035 12.2576 9.24747 12.2545C9.3446 12.2514 9.43899 12.2869 9.51001 12.3533C9.57185 12.4216 9.6057 12.5107 9.6048 12.6029C9.60391 12.6951 9.56834 12.7835 9.50518 12.8506C9.44202 12.9178 9.3559 12.9587 9.26395 12.9652C9.17201 12.9717 9.08099 12.9433 9.009 12.8857V12.8857ZM9.51526 19.3057C9.46426 19.2309 9.42853 19.1467 9.41013 19.058C9.39172 18.9693 9.391 18.8779 9.408 18.7889C9.425 18.6999 9.45939 18.6152 9.50919 18.5395C9.559 18.4639 9.62325 18.3988 9.69825 18.348C9.85001 18.2449 10.0364 18.2062 10.2167 18.2404C10.3969 18.2746 10.5562 18.3788 10.6598 18.5303C10.7108 18.605 10.7466 18.6891 10.7651 18.7778C10.7835 18.8664 10.7843 18.9579 10.7673 19.0468C10.7503 19.1357 10.7158 19.2204 10.666 19.296C10.6161 19.3716 10.5518 19.4366 10.4768 19.4872C10.325 19.5902 10.1387 19.6289 9.95856 19.5949C9.77839 19.5609 9.61901 19.4569 9.51526 19.3057V19.3057ZM8.43075 17.8538C8.38718 17.7901 8.35662 17.7185 8.34084 17.643C8.32506 17.5675 8.32436 17.4896 8.33879 17.4138C8.35322 17.3381 8.38249 17.2659 8.42491 17.2015C8.46734 17.1371 8.52209 17.0817 8.586 17.0385C8.71506 16.9511 8.87345 16.9183 9.0266 16.9472C9.17976 16.9762 9.31525 17.0645 9.40351 17.193C9.44708 17.2566 9.47764 17.3283 9.49342 17.4038C9.5092 17.4793 9.5099 17.5572 9.49547 17.6329C9.48104 17.7087 9.45177 17.7809 9.40935 17.8453C9.36692 17.9097 9.31217 17.9651 9.24826 18.0082C9.11926 18.0959 8.96081 18.1288 8.8076 18.0998C8.65438 18.0709 8.51888 17.9824 8.43075 17.8538ZM7.78725 16.4415C7.74976 16.3865 7.72348 16.3247 7.70993 16.2596C7.69638 16.1944 7.69583 16.1272 7.7083 16.0619C7.72077 15.9965 7.74603 15.9343 7.78262 15.8787C7.8192 15.8231 7.8664 15.7753 7.9215 15.738C8.03303 15.6624 8.16991 15.6341 8.30228 15.6591C8.43465 15.6841 8.55175 15.7605 8.628 15.8715C8.6657 15.9266 8.69212 15.9885 8.70574 16.0539C8.71936 16.1192 8.71991 16.1866 8.70736 16.2521C8.69481 16.3177 8.66941 16.3801 8.63262 16.4357C8.59583 16.4914 8.54838 16.5393 8.49301 16.5765C8.38136 16.6517 8.24452 16.6797 8.11232 16.6544C7.98012 16.6291 7.86327 16.5526 7.78725 16.4415V16.4415ZM7.51725 15.126C7.48469 15.0783 7.46187 15.0246 7.45009 14.968C7.4383 14.9114 7.4378 14.853 7.4486 14.7963C7.45939 14.7395 7.48128 14.6854 7.51301 14.6371C7.54474 14.5888 7.58569 14.5472 7.63351 14.5148C7.73036 14.4491 7.84928 14.4244 7.96426 14.4462C8.07923 14.468 8.1809 14.5344 8.247 14.631C8.27973 14.6787 8.30267 14.7325 8.3145 14.7891C8.32633 14.8458 8.32682 14.9042 8.31595 14.961C8.30507 15.0179 8.28303 15.072 8.25112 15.1202C8.2192 15.1685 8.17804 15.21 8.13 15.2422C8.03321 15.3077 7.91446 15.3322 7.79967 15.3104C7.68487 15.2886 7.58335 15.2223 7.51725 15.126V15.126ZM7.54725 13.974C7.51939 13.9333 7.49985 13.8874 7.48974 13.8391C7.47963 13.7908 7.47917 13.7409 7.48836 13.6924C7.49756 13.6439 7.51624 13.5977 7.54334 13.5565C7.57043 13.5152 7.60541 13.4797 7.64625 13.452C7.72896 13.3958 7.83057 13.3747 7.92883 13.3932C8.02708 13.4118 8.11398 13.4685 8.1705 13.551C8.21988 13.6337 8.23578 13.7321 8.21496 13.8261C8.19413 13.9201 8.13816 14.0025 8.05849 14.0566C7.97883 14.1107 7.88151 14.1322 7.78646 14.1169C7.69141 14.1015 7.60584 14.0504 7.54725 13.974V13.974ZM7.78275 13.0118C7.75782 12.977 7.74009 12.9377 7.73061 12.896C7.72113 12.8543 7.72009 12.8111 7.72755 12.769C7.73502 12.727 7.75083 12.6868 7.77406 12.6509C7.79729 12.615 7.82748 12.5842 7.86283 12.5601C7.89818 12.5361 7.93798 12.5194 7.97989 12.511C8.02181 12.5026 8.06498 12.5026 8.10686 12.5112C8.14875 12.5197 8.1885 12.5365 8.22378 12.5607C8.25905 12.5848 8.28914 12.6158 8.31225 12.6517C8.35742 12.722 8.37336 12.8071 8.35668 12.8889C8.34 12.9708 8.29201 13.0428 8.22294 13.0898C8.15388 13.1367 8.06921 13.1549 7.98698 13.1403C7.90475 13.1257 7.83147 13.0796 7.78275 13.0118V13.0118ZM4.22775 11.8553C4.44726 11.729 4.70785 11.6949 4.95246 11.7604C5.19706 11.8259 5.40573 11.9857 5.53275 12.2048C5.59533 12.3131 5.63591 12.4327 5.65217 12.5568C5.66843 12.6808 5.66005 12.8069 5.62752 12.9277C5.59498 13.0485 5.53892 13.1617 5.46256 13.2608C5.3862 13.3599 5.29103 13.443 5.1825 13.5052C4.725 13.7677 4.1415 13.611 3.87825 13.1565C3.81553 13.0482 3.77481 12.9285 3.75843 12.8044C3.74206 12.6803 3.75034 12.5542 3.78281 12.4333C3.81528 12.3124 3.8713 12.1991 3.94765 12.0999C4.02401 12.0007 4.11919 11.9176 4.22775 11.8553V11.8553ZM6.35025 10.4977C6.536 10.3905 6.7567 10.3613 6.96394 10.4166C7.17119 10.4718 7.34806 10.607 7.45575 10.7925C7.6785 11.1788 7.54575 11.6715 7.15875 11.8943C6.97289 12.0008 6.75244 12.0295 6.54548 11.9742C6.33853 11.9188 6.16185 11.7839 6.054 11.5988C6.00085 11.507 5.96635 11.4057 5.95247 11.3006C5.9386 11.1955 5.94563 11.0887 5.97316 10.9863C6.00068 10.8839 6.04817 10.788 6.11288 10.704C6.1776 10.6201 6.25827 10.5497 6.35025 10.497V10.4977ZM8.376 9.765C8.53319 9.67481 8.71966 9.65045 8.89474 9.69724C9.06981 9.74403 9.21928 9.85817 9.3105 10.0147C9.35528 10.0924 9.38432 10.1781 9.39596 10.267C9.40761 10.3559 9.40163 10.4462 9.37836 10.5328C9.3551 10.6193 9.31501 10.7005 9.26039 10.7715C9.20576 10.8426 9.13767 10.9022 9.06 10.947C8.90273 11.0371 8.71619 11.0614 8.5411 11.0144C8.36602 10.9675 8.21661 10.8532 8.1255 10.6965C8.08065 10.6189 8.05154 10.5333 8.03986 10.4444C8.02817 10.3556 8.03413 10.2653 8.0574 10.1788C8.08068 10.0922 8.1208 10.0111 8.17547 9.94012C8.23014 9.86912 8.29829 9.80961 8.376 9.765V9.765ZM10.2263 9.5355C10.3605 9.45825 10.5198 9.43737 10.6694 9.47744C10.819 9.51751 10.9466 9.61525 11.0243 9.74925C11.0625 9.81546 11.0874 9.88857 11.0973 9.96439C11.1073 10.0402 11.1022 10.1173 11.0824 10.1911C11.0625 10.265 11.0283 10.3342 10.9816 10.3948C10.935 10.4554 10.8768 10.5062 10.8105 10.5443C10.744 10.5827 10.6705 10.6077 10.5943 10.6178C10.5181 10.6279 10.4407 10.6229 10.3665 10.603C10.2922 10.5832 10.2226 10.5489 10.1616 10.5021C10.1006 10.4554 10.0494 10.397 10.011 10.3305C9.97279 10.2642 9.94804 10.191 9.93817 10.1151C9.92831 10.0392 9.93352 9.96216 9.95352 9.8883C9.97352 9.81443 10.0079 9.74525 10.0547 9.6847C10.1015 9.62416 10.1598 9.57346 10.2263 9.5355V9.5355ZM11.8118 9.6885C11.9271 9.62214 12.064 9.60422 12.1925 9.63867C12.321 9.67311 12.4306 9.75712 12.4973 9.87225C12.5553 9.98702 12.5672 10.1197 12.5304 10.2429C12.4936 10.3662 12.4109 10.4706 12.2994 10.5348C12.1879 10.5989 12.056 10.6178 11.931 10.5876C11.8059 10.5574 11.6972 10.4804 11.6273 10.3725C11.5943 10.3155 11.5729 10.2526 11.5643 10.1873C11.5557 10.122 11.5601 10.0557 11.5773 9.99213C11.5944 9.92856 11.624 9.86901 11.6642 9.81691C11.7044 9.7648 11.7546 9.72116 11.8118 9.6885V9.6885ZM13.1153 10.104C13.2143 10.0473 13.3318 10.032 13.4421 10.0615C13.5523 10.091 13.6465 10.1629 13.704 10.2615C13.7324 10.3103 13.7509 10.3643 13.7584 10.4204C13.7659 10.4764 13.7622 10.5333 13.7476 10.5879C13.7329 10.6425 13.7076 10.6937 13.6731 10.7384C13.6386 10.7832 13.5956 10.8207 13.5465 10.8488C13.4976 10.8771 13.4436 10.8955 13.3876 10.9029C13.3316 10.9104 13.2746 10.9067 13.22 10.8922C13.1654 10.8776 13.1142 10.8524 13.0694 10.8181C13.0245 10.7837 12.9868 10.7409 12.9585 10.692C12.9302 10.6431 12.9118 10.5891 12.9043 10.5331C12.8969 10.4771 12.9005 10.4201 12.9151 10.3655C12.9297 10.3109 12.9548 10.2597 12.9892 10.2149C13.0235 10.17 13.0664 10.1323 13.1153 10.104V10.104ZM5.7105 8.43C5.91658 8.36784 6.13889 8.38994 6.32869 8.49145C6.51849 8.59296 6.66029 8.7656 6.723 8.9715C6.77221 9.17367 6.74202 9.38701 6.63866 9.5676C6.53531 9.74819 6.36664 9.88227 6.1674 9.94224C5.96816 10.0022 5.7535 9.98352 5.56763 9.88999C5.38176 9.79647 5.23883 9.63524 5.16825 9.4395C5.13723 9.33762 5.12665 9.2306 5.13714 9.12462C5.14763 9.01863 5.17898 8.91577 5.22937 8.82195C5.27977 8.72812 5.34823 8.64519 5.4308 8.57793C5.51337 8.51066 5.60843 8.46039 5.7105 8.43V8.43ZM7.731 7.71525C7.90253 7.6708 8.0846 7.69443 8.2391 7.78117C8.39361 7.86792 8.50857 8.01106 8.55993 8.18065C8.61129 8.35023 8.59506 8.53311 8.51465 8.691C8.43424 8.84889 8.29587 8.96956 8.1285 9.02775C8.04232 9.05385 7.95185 9.06272 7.86224 9.05385C7.77263 9.04499 7.68565 9.01856 7.60625 8.97608C7.44591 8.89028 7.32622 8.7443 7.2735 8.57025C7.22079 8.3962 7.23938 8.20834 7.32518 8.048C7.41098 7.88766 7.55696 7.76796 7.731 7.71525V7.71525ZM9.55051 7.5C9.6977 7.45554 9.85653 7.47138 9.99205 7.54403C10.1276 7.61667 10.2287 7.74018 10.2731 7.88738C10.3176 8.03457 10.3018 8.1934 10.2291 8.32892C10.1565 8.46443 10.033 8.56554 9.88575 8.61C9.81287 8.63201 9.73637 8.63945 9.66061 8.6319C9.58485 8.62435 9.51132 8.60194 9.44421 8.56597C9.37711 8.53 9.31775 8.48117 9.26952 8.42225C9.2213 8.36334 9.18514 8.29551 9.16313 8.22263C9.14112 8.14974 9.13368 8.07324 9.14123 7.99748C9.14878 7.92172 9.17119 7.84819 9.20716 7.78108C9.24313 7.71398 9.29196 7.65462 9.35088 7.60639C9.40979 7.55817 9.47762 7.52201 9.55051 7.5V7.5ZM11.1255 7.66725C11.2513 7.62926 11.3871 7.6428 11.5029 7.7049C11.6187 7.767 11.7051 7.87256 11.7431 7.99838C11.7811 8.12419 11.7676 8.25994 11.7055 8.37577C11.6434 8.49159 11.5378 8.57801 11.412 8.616C11.286 8.65385 11.1501 8.64021 11.0341 8.57807C10.9182 8.51594 10.8316 8.41037 10.7933 8.2845C10.7745 8.22211 10.7682 8.15662 10.7748 8.09179C10.7813 8.02696 10.8006 7.96407 10.8316 7.90673C10.8625 7.84938 10.9045 7.7987 10.955 7.75761C11.0056 7.71651 11.0638 7.68581 11.1263 7.66725H11.1255ZM12.408 8.1C12.514 8.07394 12.6259 8.08955 12.7207 8.14361C12.8155 8.19766 12.886 8.28604 12.9175 8.39051C12.9491 8.49498 12.9393 8.60758 12.8903 8.70508C12.8413 8.80258 12.7567 8.87754 12.654 8.9145C12.6005 8.93065 12.5444 8.93611 12.4888 8.93057C12.4332 8.92503 12.3792 8.90859 12.33 8.88219C12.2808 8.8558 12.2372 8.81996 12.2018 8.77674C12.1664 8.73351 12.1399 8.68373 12.1238 8.63025C12.1076 8.57677 12.1021 8.52063 12.1077 8.46504C12.1132 8.40945 12.1297 8.35549 12.1561 8.30625C12.1825 8.25702 12.2183 8.21346 12.2615 8.17807C12.3047 8.14268 12.3545 8.11615 12.408 8.1V8.1ZM13.4055 8.69625C13.4514 8.68231 13.4996 8.67755 13.5473 8.68224C13.5951 8.68693 13.6414 8.70097 13.6837 8.72357C13.726 8.74617 13.7635 8.77689 13.7939 8.81396C13.8244 8.85103 13.8472 8.89373 13.8611 8.93963C13.8751 8.98552 13.8798 9.03371 13.8751 9.08145C13.8705 9.12919 13.8564 9.17553 13.8338 9.21784C13.8112 9.26015 13.7805 9.29759 13.7434 9.32803C13.7064 9.35847 13.6637 9.38131 13.6178 9.39525C13.5251 9.4234 13.425 9.41357 13.3395 9.36793C13.2541 9.32228 13.1903 9.24457 13.1621 9.15188C13.134 9.05918 13.1438 8.9591 13.1895 8.87366C13.2351 8.78821 13.3128 8.7244 13.4055 8.69625ZM7.578 5.916C7.66855 5.90904 7.75958 5.92003 7.84587 5.94833C7.93216 5.97663 8.01202 6.02168 8.08086 6.08091C8.1497 6.14014 8.20617 6.21237 8.24704 6.29347C8.28791 6.37456 8.31236 6.46293 8.319 6.5535C8.33233 6.7365 8.27242 6.9173 8.15244 7.05612C8.03246 7.19495 7.86225 7.28042 7.67925 7.29375C7.49626 7.30708 7.31546 7.24716 7.17663 7.12719C7.03781 7.00721 6.95233 6.837 6.939 6.654C6.93247 6.56352 6.94384 6.47264 6.97247 6.38655C7.0011 6.30047 7.04642 6.22088 7.10584 6.15233C7.16526 6.08379 7.23762 6.02763 7.31876 5.98708C7.39991 5.94652 7.48826 5.92237 7.57875 5.916H7.578ZM9.38325 5.7075C9.53394 5.70405 9.68018 5.75867 9.79171 5.86006C9.90324 5.96145 9.97152 6.10184 9.98241 6.25217C9.99329 6.4025 9.94596 6.55126 9.85021 6.66767C9.75446 6.78407 9.61761 6.8592 9.468 6.8775C9.38903 6.88716 9.30892 6.88068 9.23253 6.85843C9.15614 6.83619 9.08506 6.79866 9.02362 6.74812C8.96218 6.69757 8.91164 6.63507 8.87509 6.5644C8.83854 6.49374 8.81672 6.41638 8.81097 6.33702C8.80523 6.25767 8.81566 6.17797 8.84165 6.10278C8.86764 6.02758 8.90864 5.95845 8.96216 5.89957C9.01567 5.8407 9.0806 5.79332 9.15298 5.7603C9.22537 5.72728 9.30371 5.70932 9.38325 5.7075V5.7075ZM10.9313 5.8605C11.0606 5.85888 11.1857 5.90672 11.281 5.99423C11.3763 6.08175 11.4346 6.20235 11.444 6.33139C11.4534 6.46044 11.4132 6.5882 11.3315 6.68858C11.2499 6.78896 11.133 6.85439 11.0048 6.8715C10.8727 6.87771 10.7434 6.83208 10.6445 6.74434C10.5456 6.6566 10.4849 6.53369 10.4753 6.40182C10.4657 6.26995 10.508 6.13955 10.5932 6.03843C10.6784 5.9373 10.7997 5.87346 10.9313 5.8605V5.8605ZM12.2085 6.2865C12.3222 6.28275 12.4329 6.32314 12.5175 6.39922C12.602 6.4753 12.6539 6.58116 12.6621 6.69461C12.6704 6.80806 12.6344 6.9203 12.5617 7.0078C12.489 7.09531 12.3853 7.15128 12.2723 7.164C12.2133 7.17063 12.1537 7.16529 12.0969 7.14831C12.0401 7.13133 11.9873 7.10305 11.9417 7.06518C11.8961 7.0273 11.8587 6.98061 11.8315 6.92789C11.8044 6.87518 11.7882 6.81753 11.7839 6.75841C11.7796 6.69929 11.7873 6.63991 11.8065 6.58383C11.8258 6.52775 11.8561 6.47613 11.8957 6.43206C11.9354 6.38799 11.9835 6.35238 12.0373 6.32737C12.091 6.30236 12.1493 6.28846 12.2085 6.2865V6.2865Z" fill="white"/>
</svg>
