<svg width="24" height="24" viewBox="0 0 24 24" fill="none" xmlns="http://www.w3.org/2000/svg">
<path d="M12 24C18.6274 24 24 18.6274 24 12C24 5.37258 18.6274 0 12 0C5.37258 0 0 5.37258 0 12C0 18.6274 5.37258 24 12 24Z" fill="#00316D"/>
<path d="M13.617 14.9153C13.6073 14.8973 13.6058 14.8898 13.602 14.8875C13.137 14.6678 12.672 14.4473 12.2055 14.2305C12.1808 14.2185 12.1305 14.2215 12.1148 14.2388C11.9123 14.4563 11.7143 14.679 11.5133 14.9018C11.6588 15.009 13.4955 15.0098 13.617 14.9153V14.9153ZM9.36151 9.54303L9.31501 9.44553C9.27601 9.47328 9.22501 9.49353 9.19951 9.53103C8.76986 10.1703 8.34285 10.8113 7.91851 11.454C7.89226 11.4945 7.89376 11.5538 7.88101 11.604C7.93351 11.5935 7.99201 11.5958 8.03476 11.5695C8.39909 11.3504 8.76012 11.1259 9.11776 10.896C9.18061 10.8517 9.22389 10.7848 9.23851 10.7093C9.28651 10.3343 9.31951 9.95703 9.36151 9.54303ZM18.3593 14.9805H18.9788C19.098 14.9805 19.1438 14.9355 19.068 14.8208C18.6743 14.2193 18.282 13.617 17.8868 13.0178C17.8658 12.9848 17.8178 12.9705 17.7818 12.948C17.763 12.9855 17.7308 13.023 17.727 13.0628C17.6813 13.6493 17.64 14.2358 17.595 14.8223C17.5868 14.934 17.6258 14.9843 17.7398 14.982C17.946 14.9775 18.1523 14.9805 18.3593 14.9805V14.9805ZM5.05876 14.9355C5.15326 14.958 5.19976 14.979 5.24551 14.9798C5.91526 14.9813 6.58501 14.9798 7.25401 14.9813C7.38376 14.9813 7.41676 14.9355 7.36201 14.8103C7.15276 14.334 6.94576 13.8555 6.74551 13.3748C6.68701 13.2345 6.63301 13.2413 6.54076 13.3403C6.18376 13.7258 5.82376 14.1075 5.46526 14.4908C5.34001 14.6258 5.21776 14.7608 5.05876 14.9355V14.9355ZM14.955 11.4758C14.9985 11.5605 15.0128 11.5973 15.0345 11.6288L15.9405 12.9443C16.3148 13.488 16.6883 14.0318 17.0655 14.5733C17.091 14.6108 17.1405 14.631 17.178 14.6588C17.1975 14.6138 17.229 14.571 17.235 14.5245C17.25 14.397 17.253 14.2695 17.2613 14.142C17.3018 13.5608 17.3468 12.9803 17.3813 12.3998C17.3963 12.1523 17.289 12.0248 17.0543 11.9663C16.428 11.8095 15.8018 11.652 15.1748 11.4968C15.1185 11.4833 15.0593 11.4855 14.955 11.4758V11.4758ZM14.796 7.62453L14.739 7.63428C14.7315 7.74903 14.7203 7.86453 14.7165 7.98078L14.6333 10.809C14.6295 10.9125 14.6603 10.9665 14.7675 10.992C15.417 11.1495 16.065 11.3153 16.7145 11.475C16.7708 11.4885 16.833 11.4758 16.8923 11.475C16.8773 11.4173 16.8743 11.352 16.8465 11.301C16.1993 10.1235 15.5505 8.94603 14.9003 7.77003C14.8718 7.71828 14.8313 7.67253 14.796 7.62453V7.62453ZM11.8823 13.4048C11.9003 13.305 11.9175 13.245 11.9198 13.185C11.9295 12.8708 11.9303 12.5565 11.9445 12.2423C11.958 12.0028 11.8868 11.7663 11.7435 11.574C11.148 10.7478 10.5543 9.92027 9.96226 9.09153C9.93526 9.05403 9.92401 9.00528 9.90526 8.96178L9.83476 9.00378C9.81751 9.06678 9.79051 9.12903 9.78376 9.19278C9.73126 9.70278 9.68626 10.2128 9.63001 10.7213C9.62144 10.7748 9.6256 10.8296 9.64215 10.8812C9.6587 10.9328 9.68717 10.9797 9.72526 11.0183C10.3965 11.766 11.0633 12.5183 11.733 13.2683C11.769 13.3088 11.8125 13.3418 11.8823 13.4048ZM12.315 13.248L12.36 13.278C12.4013 13.2458 12.45 13.2203 12.483 13.1805C13.0533 12.4882 13.6215 11.7942 14.1878 11.0985C14.2225 11.0544 14.2429 11.0008 14.2463 10.9448C14.2733 10.0185 14.2965 9.09228 14.3175 8.16603C14.319 8.11503 14.2898 8.06328 14.274 8.01228C14.2328 8.05203 14.175 8.08428 14.1518 8.13228C13.6268 9.24378 13.125 10.3665 12.5745 11.4638C12.2835 12.0443 12.33 12.6435 12.315 13.2488V13.248ZM9.68776 14.9813C10.0485 14.9813 10.41 14.9865 10.7708 14.9768C10.8531 14.9729 10.9313 14.9396 10.9913 14.883C11.2425 14.6198 11.478 14.3408 11.7285 14.0768C11.8223 13.9793 11.8013 13.9193 11.7218 13.8323C11.2985 13.3732 10.879 12.9107 10.4633 12.4448C10.3628 12.3323 10.305 12.333 10.215 12.456C9.64426 13.2368 9.06751 14.0123 8.49376 14.7915C8.46526 14.8305 8.45476 14.8823 8.43526 14.928C8.48551 14.946 8.53576 14.9783 8.58676 14.9783C8.95426 14.9828 9.32026 14.9813 9.68776 14.9813ZM10.0613 12.0068C9.86176 11.775 9.66601 11.5568 9.48076 11.328C9.40276 11.2328 9.34276 11.223 9.23776 11.2883C8.61076 11.6828 7.97701 12.0668 7.35151 12.4635C7.23826 12.5355 7.14901 12.6473 7.05301 12.7455C6.96376 12.837 6.97576 12.9375 7.02451 13.05C7.26826 13.6073 7.50601 14.1668 7.74676 14.7255C7.83826 14.9355 7.87276 14.9393 8.01301 14.7518C8.38426 14.2568 8.75401 13.7595 9.12376 13.2638L10.0613 12.0068V12.0068ZM14.4075 11.4158C14.3588 11.4945 14.3355 11.5425 14.3025 11.5815C13.7085 12.306 13.1138 13.0305 12.5153 13.752C12.4178 13.8698 12.468 13.9163 12.5783 13.9665C13.266 14.2815 13.9508 14.6018 14.64 14.9153C14.7283 14.955 14.8237 14.9765 14.9205 14.9783C15.4875 14.9835 16.0553 14.982 16.623 14.979C16.6755 14.979 16.7288 14.955 16.782 14.9415C16.7633 14.886 16.755 14.8223 16.722 14.775C16.1993 14.0108 15.6735 13.248 15.1478 12.486C14.9153 12.1485 14.6813 11.811 14.4075 11.4158V11.4158ZM11.9948 15.7485C9.41326 15.7485 6.83176 15.7478 4.25026 15.75C4.04926 15.75 3.86776 15.7275 3.78076 15.5115C3.69826 15.3068 3.79426 15.1553 3.92851 15.012C4.69951 14.1885 5.48101 13.374 6.23101 12.5325C6.51751 12.2115 6.73876 11.8298 6.98101 11.469C7.75726 10.308 8.52751 9.14253 9.30751 7.98453C9.38401 7.87128 9.50101 7.75653 9.62401 7.71153C9.79351 7.64853 9.93826 7.74603 10.0463 7.90053C10.674 8.79753 11.3063 9.69153 11.937 10.587C12.0668 10.77 12.1133 10.764 12.2093 10.5555L14.1548 6.31803C14.2313 6.15153 14.3325 6.00978 14.5298 6.00078C14.736 5.99103 14.8613 6.11628 14.958 6.29328C15.9345 8.06478 16.8885 9.85128 17.9033 11.6003C18.5168 12.6578 19.227 13.656 19.8938 14.6813C19.9763 14.8073 20.0595 14.9325 20.1405 15.06C20.238 15.2138 20.2958 15.3825 20.2043 15.5528C20.1143 15.7178 19.9478 15.7493 19.773 15.7493C17.1803 15.7478 14.5875 15.7485 11.9948 15.7485" fill="white"/>
</svg>
