<svg width="24" height="24" viewBox="0 0 24 24" fill="none" xmlns="http://www.w3.org/2000/svg">
<path d="M12 24C18.6274 24 24 18.6274 24 12C24 5.37258 18.6274 0 12 0C5.37258 0 0 5.37258 0 12C0 18.6274 5.37258 24 12 24Z" fill="#7F368A"/>
<path d="M19.1768 15.987C19.2255 16.1843 19.029 16.2825 18.8813 16.2338H16.4228C16.275 16.2338 16.1768 16.1843 16.0778 16.1348C15.9308 16.0853 15.8325 15.8888 15.783 15.6915V15.642L13.4715 7.11751C13.4228 7.11751 13.275 7.26526 13.2255 7.26526C13.1768 7.31401 13.0778 7.36351 13.029 7.31401C12.9308 7.26526 12.8813 7.11751 12.9308 7.01851C13.0283 6.77251 13.275 6.62401 13.521 6.57526C13.8158 6.52576 14.0618 6.52576 14.3565 6.52576H16.1768C16.3238 6.52576 16.4715 6.52576 16.6193 6.57526C16.767 6.67351 16.8158 6.87076 16.8653 7.01851C16.9628 7.36351 17.0123 7.70851 17.1113 8.05351L18.291 12.489L18.7335 14.2628C18.8813 14.805 19.0785 15.3968 19.176 15.9878L19.1768 15.987ZM13.4715 15.987C13.521 16.1843 13.3238 16.2825 13.1768 16.2338H10.7175C10.5698 16.2338 10.4715 16.1843 10.3725 16.1348C10.2255 16.0853 10.1273 15.8888 10.0778 15.6915V15.642L7.76702 7.11751C7.71752 7.11751 7.56977 7.26526 7.52102 7.26526C7.47152 7.31401 7.37327 7.36351 7.32377 7.31401C7.22627 7.26526 7.17677 7.11751 7.22627 7.01851C7.32377 6.77251 7.56977 6.62401 7.81577 6.57526C8.11127 6.52576 8.35652 6.52576 8.65202 6.52576H10.4715C10.6193 6.52576 10.767 6.52576 10.914 6.57526C11.0618 6.67351 11.1113 6.87076 11.16 7.01851C11.2583 7.36351 11.3078 7.70851 11.406 8.05351L12.5865 12.489L13.029 14.2628C13.1768 14.805 13.3733 15.3968 13.4715 15.9878V15.987ZM8.94677 14.1143L8.35652 15.987C8.3293 16.0842 8.27165 16.1702 8.19202 16.2323C8.11239 16.2944 8.01496 16.3293 7.91402 16.332H5.30777C5.17727 16.3316 5.05225 16.2795 4.96004 16.1872C4.86784 16.0949 4.81596 15.9698 4.81577 15.8393V15.7403L6.88127 7.95451C6.93077 7.85551 7.02902 7.75726 7.12727 7.75726C7.27502 7.75726 7.37327 7.85551 7.37327 7.95451L8.94677 14.1143V14.1143ZM14.7503 13.9665L14.406 15.0015C14.3565 15.0998 14.3078 15.1493 14.2095 15.1493C14.1113 15.1493 14.0618 15.0998 14.0123 15.0015L12.291 8.98876L12.636 7.75726C12.636 7.65826 12.7335 7.60951 12.8325 7.60951C12.93 7.60951 13.029 7.65826 13.029 7.75726L14.7503 13.9665V13.9665Z" fill="white"/>
</svg>
