<svg width="24" height="24" viewBox="0 0 24 24" fill="none" xmlns="http://www.w3.org/2000/svg">
<path d="M12 24C18.6274 24 24 18.6274 24 12C24 5.37258 18.6274 0 12 0C5.37258 0 0 5.37258 0 12C0 18.6274 5.37258 24 12 24Z" fill="#DEC799"/>
<path d="M17.6475 10.0605L16.5787 5.25L14.481 8.5605C12.8502 8.16673 11.1491 8.16673 9.51825 8.5605L7.4265 5.25L6.354 10.0605C5.20275 10.9815 4.5 12.1853 4.5 13.5068C4.5 16.4018 7.857 18.7485 11.9977 18.7485C16.1385 18.7485 19.4955 16.401 19.4955 13.5068C19.4947 12.1853 18.798 10.9815 17.6467 10.0605H17.6475ZM7.8315 12.2625H7.332L8.55225 10.8555H9.44025L7.8315 12.2625ZM11.9595 15.7005L9.885 12.0465L10.3972 11.754L10.86 12.5677H13.1257L13.6087 11.7502L14.1157 12.0518L11.9595 15.7005V15.7005ZM16.1692 12.2625L14.5597 10.8555H15.4537L16.6725 12.2625H16.1692ZM11.9692 14.5237L11.1945 13.1588H12.7755L11.9692 14.5237V14.5237Z" fill="white"/>
</svg>
