<svg width="24" height="24" viewBox="0 0 24 24" fill="none" xmlns="http://www.w3.org/2000/svg">
<path d="M12 24C18.6274 24 24 18.6274 24 12C24 5.37258 18.6274 0 12 0C5.37258 0 0 5.37258 0 12C0 18.6274 5.37258 24 12 24Z" fill="#104FCA"/>
<path d="M5.25 7.17603L8.4255 12.5033V18C6.672 18 5.25 16.623 5.25 14.9243V7.17603Z" fill="white" fill-opacity="0.5"/>
<path d="M15.5737 12.4973L18.7477 7.17303H18.7492V14.925C18.75 16.623 17.328 18 15.5737 18V12.4973Z" fill="white" fill-opacity="0.6"/>
<path d="M11.9977 12.3435L10.41 15.0075C10.0807 14.925 9.72675 14.6055 9.348 14.0498L5.25 7.17603C6.76875 6.32628 8.71125 6.83103 9.588 8.30103L11.9977 12.3435Z" fill="white" fill-opacity="0.8"/>
<path d="M14.412 8.29502C15.2888 6.82352 17.2313 6.31952 18.75 7.16927L14.652 14.043C14.356 14.4721 13.9597 14.8224 13.4975 15.0634C13.0353 15.3044 12.5213 15.4289 12 15.426C11.5064 15.427 11.019 15.3154 10.575 15.0998L10.41 15.0075L14.412 8.29502Z" fill="white"/>
</svg>
