<svg width="24" height="24" viewBox="0 0 24 24" fill="none" xmlns="http://www.w3.org/2000/svg">
<path d="M12 24C18.6274 24 24 18.6274 24 12C24 5.37258 18.6274 0 12 0C5.37258 0 0 5.37258 0 12C0 18.6274 5.37258 24 12 24Z" fill="#50479E"/>
<path d="M15.27 10.245V13.833L12.0397 15.6083V12.0218L15.2692 10.2465L15.27 10.245ZM19.125 9.32553V14.6738C19.125 15.054 19.02 15.426 18.8228 15.7493C18.6278 16.0718 18.345 16.3455 17.9948 16.5383L15.5858 17.862V14.3325L15.8903 14.1653V9.90603L18.8408 8.28378C19.0238 8.59878 19.125 8.95503 19.125 9.32628V9.32553ZM6.00525 16.5383C5.67684 16.3589 5.39941 16.099 5.199 15.783C4.98814 15.4517 4.87578 15.0673 4.875 14.6745V11.25L8.193 13.8413V13.9853L8.19825 14.1338L8.45625 14.286L11.7682 16.107L12.0413 16.257V19.5C11.6325 19.5082 11.2286 19.4094 10.8698 19.2135L6.00525 16.5375V16.5383ZM5.86725 7.54503L9.375 5.62503L11.76 7.93503L8.193 9.90228V10.2023L4.8825 12.0203L4.875 9.32478C4.875 8.94453 4.98 8.57103 5.17875 8.24778C5.35275 7.96278 5.58825 7.72278 5.86725 7.54428V7.54503ZM17.9948 7.46178C18.3461 7.65366 18.6385 7.93756 18.8408 8.28303L15.8903 9.90528V9.87828L15.5858 9.71103L12.3353 7.92453L15.5858 6.13728L17.9948 7.46178ZM4.8825 12.0218L8.193 10.2015V13.8413L4.8825 12.021V12.0218ZM12.0413 7.78503V4.50003C12.4222 4.50581 12.796 4.60441 13.1302 4.78728L15.5858 6.13728L12.3353 7.92378L12.0413 7.78503ZM11.7682 7.93503L8.46225 6.11853L11.0138 4.71528C11.3357 4.56713 11.6869 4.49355 12.0413 4.50003V7.78503L11.7682 7.93503ZM12.0623 16.2683L12.3353 16.1183L15.5468 17.8838L13.1302 19.2128C12.7959 19.3953 12.4221 19.4937 12.0413 19.4993V16.257L12.0623 16.2683ZM15.5858 14.3318V17.862L15.5468 17.8838L12.3353 16.1183L15.5858 14.3318Z" fill="white"/>
</svg>
