<svg width="24" height="24" viewBox="0 0 24 24" fill="none" xmlns="http://www.w3.org/2000/svg">
<path d="M12 24C18.6274 24 24 18.6274 24 12C24 5.37258 18.6274 0 12 0C5.37258 0 0 5.37258 0 12C0 18.6274 5.37258 24 12 24Z" fill="#2AB0FD"/>
<path fill-rule="evenodd" clip-rule="evenodd" d="M19.1363 11.103C19.26 11.1015 19.3388 11.118 19.3883 11.163C19.4408 11.211 19.4618 11.289 19.473 11.4113C19.8225 15.4455 16.7715 19.092 12.7245 19.4663C8.5515 19.8525 4.929 16.8413 4.533 12.6563C4.1475 8.592 7.19925 4.905 11.2725 4.5345C13.5795 4.3245 15.5715 5.049 17.2485 6.6465C17.2658 6.663 17.262 6.732 17.2425 6.7515C16.8659 7.13517 16.4859 7.51543 16.1025 7.89225C16.0808 7.91325 16.0028 7.91025 15.9788 7.8885C14.2485 6.303 12.2438 5.8335 10.0515 6.63225C7.8345 7.44 6.56625 9.1125 6.315 11.4675C5.9775 14.6543 8.38275 17.463 11.5913 17.7053C14.4998 17.9243 17.1353 15.8655 17.6175 12.9915C17.622 12.963 17.5575 12.8918 17.5245 12.8918C15.7283 12.8865 13.932 12.888 12.1365 12.8813C12.09 12.8813 12.0038 12.795 12.0023 12.7478C11.9928 12.2458 11.9928 11.7437 12.0023 11.2418C12.003 11.1968 12.0833 11.1158 12.1275 11.115C13.3245 11.1083 17.997 11.1188 19.1355 11.1023L19.1363 11.103Z" fill="white"/>
</svg>
