<svg width="24" height="24" viewBox="0 0 24 24" fill="none" xmlns="http://www.w3.org/2000/svg">
<path d="M12 24C18.6274 24 24 18.6274 24 12C24 5.37258 18.6274 0 12 0C5.37258 0 0 5.37258 0 12C0 18.6274 5.37258 24 12 24Z" fill="#4099CD"/>
<path fill-rule="evenodd" clip-rule="evenodd" d="M1.50375 17.82C1.9575 16.497 2.832 15.0645 4.05 13.65C3.8333 13.362 3.72756 13.0055 3.75214 12.6459C3.77671 12.2863 3.92996 11.9476 4.18383 11.6917C4.4377 11.4358 4.77522 11.2799 5.13462 11.2525C5.49403 11.2251 5.85128 11.3281 6.141 11.5425C7.10832 10.6907 8.13711 9.91133 9.219 9.21076C14.4195 5.83351 19.9155 4.75576 22.596 6.36226C23.3683 7.81065 23.8332 9.40288 23.9618 11.0393C23.0963 13.8728 20.2373 17.2583 16.1633 19.9043C13.353 21.729 10.4558 22.8833 7.9635 23.304C5.21683 22.3192 2.92128 20.3704 1.50375 17.82V17.82ZM4.31625 13.9238C2.55825 15.9548 1.854 18.0443 2.706 19.3568C3.993 21.339 8.346 20.7968 12.4268 18.147C16.5083 15.4965 18.7733 11.7405 17.4863 9.75826C16.1985 7.77601 11.8463 8.31826 7.76475 10.968C7.3125 11.262 6.882 11.5695 6.477 11.8868C6.68473 12.1819 6.77909 12.542 6.74278 12.901C6.70647 13.2601 6.54193 13.594 6.27934 13.8416C6.01674 14.0891 5.67369 14.2337 5.31312 14.2488C4.95255 14.2639 4.59862 14.1485 4.31625 13.9238V13.9238Z" fill="white"/>
</svg>
