<svg width="24" height="24" viewBox="0 0 24 24" fill="none" xmlns="http://www.w3.org/2000/svg">
<path d="M12 24C18.6274 24 24 18.6274 24 12C24 5.37258 18.6274 0 12 0C5.37258 0 0 5.37258 0 12C0 18.6274 5.37258 24 12 24Z" fill="#25AAE1"/>
<path fill-rule="evenodd" clip-rule="evenodd" d="M12.2595 18.7447C11.0295 18.7582 9.99674 18.5362 9.02324 18.0525C8.96324 18.0225 8.91824 18.021 8.85824 18.0547C8.26695 18.3889 7.6178 18.6083 6.94499 18.7012C6.65699 18.7387 6.36599 18.7792 6.07649 18.72C5.89823 18.685 5.73247 18.6032 5.59621 18.4831C5.45996 18.3629 5.3581 18.2087 5.30109 18.0362C5.24407 17.8637 5.23395 17.6791 5.27176 17.5015C5.30957 17.3238 5.39395 17.1593 5.51624 17.025C5.85992 16.6346 6.11797 16.1765 6.27374 15.6802C6.2829 15.6555 6.28584 15.6289 6.28231 15.6027C6.27878 15.5766 6.26889 15.5517 6.25349 15.5302C5.72256 14.6875 5.39469 13.7329 5.29574 12.7417C5.07524 10.5502 5.75699 8.67298 7.32824 7.13398C8.3171 6.15449 9.59679 5.52188 10.9755 5.33098C12.8782 5.05273 14.6122 5.49223 16.1355 6.67198C17.4945 7.72498 18.3405 9.11173 18.6352 10.8052C19.0087 12.9487 18.468 14.8582 17.0302 16.4902C15.9675 17.6962 14.6175 18.4125 13.029 18.6667C12.7275 18.7155 12.4215 18.729 12.2595 18.7447V18.7447ZM7.43699 16.9537C7.48574 16.9402 7.51424 16.9327 7.54199 16.9237C7.96857 16.7796 8.37144 16.5732 8.73749 16.311C9.00149 16.125 9.26174 16.116 9.53999 16.275C10.137 16.617 10.7767 16.83 11.463 16.9027C12.5782 17.022 13.6305 16.8097 14.5717 16.2052C16.1992 15.1612 17.0092 13.6582 16.9215 11.712C16.8652 10.4655 16.377 9.38923 15.4927 8.51248C14.427 7.45648 13.1302 6.97498 11.628 7.07848C10.6155 7.14898 9.70049 7.49698 8.92124 8.14723C7.41149 9.40723 6.82874 11.0227 7.16324 12.96C7.27274 13.5975 7.52699 14.1825 7.88549 14.7225C7.95391 14.819 8.00077 14.9291 8.02289 15.0453C8.04502 15.1615 8.0419 15.2811 8.01374 15.396C7.92749 15.771 7.80749 16.1325 7.65374 16.4835C7.58699 16.6357 7.51499 16.785 7.43774 16.9537H7.43699ZM12.0052 9.14473L12.4327 10.0125C12.5827 10.32 12.7372 10.6275 12.8827 10.938C12.9202 11.019 12.9705 11.0475 13.0545 11.0587C13.6845 11.1465 14.3137 11.2387 14.943 11.3295C14.9647 11.3332 14.9865 11.3392 15.0135 11.3445C14.8972 11.4645 14.7892 11.5815 14.676 11.6917C14.3205 12.039 13.9642 12.3847 13.6057 12.7282C13.5435 12.7882 13.5187 12.8445 13.5352 12.9367C13.6477 13.569 13.7527 14.2027 13.8592 14.8365C13.8615 14.8522 13.8615 14.8687 13.8637 14.8995C13.8292 14.886 13.803 14.8777 13.779 14.865C13.2225 14.5717 12.6652 14.2792 12.111 13.9815C12.036 13.941 11.9775 13.9372 11.8995 13.9792C11.3415 14.277 10.7812 14.5702 10.221 14.8642C10.1985 14.877 10.1745 14.8867 10.131 14.9077C10.1587 14.7375 10.1827 14.5852 10.209 14.4337C10.2975 13.9222 10.3852 13.41 10.479 12.8992C10.4925 12.8242 10.4505 12.789 10.4085 12.7477C9.96149 12.309 9.51449 11.8702 9.06599 11.4337C9.04049 11.4082 9.00449 11.394 8.97299 11.3745L8.99624 11.3385L9.68324 11.2395C10.1152 11.178 10.5465 11.115 10.9792 11.0557C11.0482 11.046 11.0797 11.0092 11.1082 10.9507C11.391 10.374 11.6767 9.79873 11.961 9.22273C11.9715 9.20248 11.9835 9.18373 12.006 9.14473H12.0052Z" fill="white"/>
</svg>
