<svg width="24" height="24" viewBox="0 0 24 24" fill="none" xmlns="http://www.w3.org/2000/svg">
<path d="M12 24C18.6274 24 24 18.6274 24 12C24 5.37258 18.6274 0 12 0C5.37258 0 0 5.37258 0 12C0 18.6274 5.37258 24 12 24Z" fill="#03E8B0"/>
<path d="M11.568 4.62973C12.051 4.41973 12.396 4.86523 12.6945 5.16373C13.227 5.61598 13.734 6.09673 14.214 6.60373C14.4893 6.90448 14.3775 7.45423 14.0033 7.62148C13.7153 7.77898 13.3635 7.66048 13.143 7.44148C12.5633 6.88648 12.009 6.30373 11.4075 5.77348C11.034 5.46823 11.1105 4.80598 11.568 4.62973V4.62973ZM16.8435 6.16798C17.1713 5.99173 17.6963 6.13498 17.787 6.52573C17.9258 6.87298 17.703 7.21573 17.4585 7.44748C16.9223 7.97623 16.401 8.51998 15.8798 9.06448C15.69 9.29398 15.3548 9.35548 15.0863 9.23173C14.6985 9.07123 14.5935 8.48923 14.886 8.19373C15.5438 7.52473 16.1243 6.77473 16.8435 6.16873V6.16798ZM6.36751 6.27598C6.70876 6.06973 7.13101 6.20623 7.38376 6.48598C7.95226 7.05973 8.53876 7.61398 9.11251 8.17873C9.49276 8.52973 9.22726 9.27373 8.69701 9.27673C8.25301 9.34423 8.01751 8.90548 7.72051 8.66548C7.20001 8.23423 6.72301 7.75423 6.25051 7.27048C5.98351 6.99523 6.06301 6.48973 6.36826 6.27598H6.36751ZM6.80851 9.66598C7.38076 9.44473 7.93951 10.1662 7.58251 10.6635C7.16026 11.214 6.61051 11.6572 6.15001 12.177C5.87776 12.4567 5.62501 12.8872 5.17126 12.8325C4.64101 12.8122 4.37476 12.075 4.76026 11.7172C5.45701 11.0505 6.00976 10.2075 6.80926 9.66523L6.80851 9.66598ZM18.4155 11.2612C18.8093 11.004 19.4033 11.2965 19.416 11.7712C19.4738 12.2167 19.0313 12.4522 18.7875 12.7522C18.3585 13.2682 17.8875 13.7497 17.4015 14.2132C17.046 14.5485 16.383 14.313 16.3193 13.827C16.236 13.3252 16.707 13.014 17.004 12.693C17.496 12.2362 17.9115 11.6985 18.4155 11.2612ZM8.30176 14.79C8.68426 14.5612 9.26401 14.8327 9.27301 15.297C9.34426 15.7455 8.90101 15.9832 8.65876 16.2825C8.23126 16.8 7.75426 17.2747 7.27276 17.7435C6.96001 18.06 6.29251 17.9077 6.20401 17.454C6.05251 17.0152 6.42451 16.662 6.70801 16.3867C7.25776 15.8722 7.73551 15.2842 8.30176 14.79V14.79ZM15.0983 14.7727C15.3098 14.7 15.5783 14.694 15.7568 14.847C16.419 15.4762 17.124 16.0605 17.7465 16.7325C17.9385 16.9275 17.9558 17.2537 17.8283 17.4877C17.6483 17.9085 17.0318 17.919 16.7325 17.6212C16.128 17.0512 15.5475 16.452 14.94 15.8842C14.5725 15.5992 14.6588 14.9377 15.0975 14.7727H15.0983ZM9.99826 16.3815C10.3133 16.2112 10.6838 16.3725 10.9103 16.6125C11.4778 17.183 12.0564 17.7423 12.6458 18.2902C13.0358 18.6607 12.7718 19.413 12.222 19.419C11.778 19.4715 11.547 19.0305 11.2493 18.789C10.7353 18.3551 10.247 17.8919 9.78676 17.4015C9.50626 17.103 9.62026 16.5465 9.99826 16.3815ZM8.98576 5.20123C8.98576 5.37389 8.91717 5.53947 8.79508 5.66156C8.673 5.78365 8.50741 5.85223 8.33476 5.85223C8.1621 5.85223 7.99652 5.78365 7.87443 5.66156C7.75235 5.53947 7.68376 5.37389 7.68376 5.20123C7.68949 5.0325 7.76055 4.87259 7.88194 4.75525C8.00333 4.63792 8.16555 4.57233 8.33438 4.57233C8.50321 4.57233 8.66544 4.63792 8.78683 4.75525C8.90822 4.87259 8.97928 5.0325 8.98501 5.20123H8.98576ZM10.8818 6.93223C10.8818 7.10479 10.8132 7.27028 10.6912 7.39229C10.5692 7.51431 10.4037 7.58286 10.2311 7.58286C10.0586 7.58286 9.89309 7.51431 9.77107 7.39229C9.64906 7.27028 9.58051 7.10479 9.58051 6.93223C9.58051 6.75968 9.64906 6.59419 9.77107 6.47217C9.89309 6.35016 10.0586 6.28161 10.2311 6.28161C10.4037 6.28161 10.5692 6.35016 10.6912 6.47217C10.8132 6.59419 10.8818 6.75968 10.8818 6.93223V6.93223ZM5.80126 8.52223C5.80422 8.60953 5.78959 8.69654 5.75823 8.77806C5.72686 8.85959 5.67942 8.93397 5.61871 8.99677C5.558 9.05958 5.48527 9.10953 5.40486 9.14364C5.32444 9.17775 5.23798 9.19533 5.15063 9.19533C5.06328 9.19533 4.97683 9.17775 4.89641 9.14364C4.816 9.10953 4.74327 9.05958 4.68256 8.99677C4.62185 8.93397 4.5744 8.85959 4.54304 8.77806C4.51168 8.69654 4.49704 8.60953 4.50001 8.52223C4.50574 8.3535 4.5768 8.19359 4.69819 8.07625C4.81958 7.95892 4.9818 7.89333 5.15063 7.89333C5.31946 7.89333 5.48169 7.95892 5.60308 8.07625C5.72447 8.19359 5.79553 8.3535 5.80126 8.52223V8.52223ZM16.1303 5.14948C16.1303 5.32214 16.0617 5.48772 15.9396 5.60981C15.8175 5.7319 15.6519 5.80048 15.4793 5.80048C15.3066 5.80048 15.141 5.7319 15.0189 5.60981C14.8968 5.48772 14.8283 5.32214 14.8283 5.14948C14.8283 4.97673 14.8969 4.81105 15.019 4.68889C15.1412 4.56673 15.3069 4.49811 15.4796 4.49811C15.6524 4.49811 15.8181 4.56673 15.9402 4.68889C16.0624 4.81105 16.131 4.97673 16.131 5.14948H16.1303ZM19.5 8.35948C19.5 8.53204 19.4315 8.69753 19.3094 8.81954C19.1874 8.94156 19.0219 9.01011 18.8494 9.01011C18.6768 9.01011 18.5113 8.94156 18.3893 8.81954C18.2673 8.69753 18.1988 8.53204 18.1988 8.35948C18.1988 8.18693 18.2673 8.02144 18.3893 7.89942C18.5113 7.77741 18.6768 7.70886 18.8494 7.70886C19.0219 7.70886 19.1874 7.77741 19.3094 7.89942C19.4315 8.02144 19.5 8.18693 19.5 8.35948V8.35948ZM17.7218 10.2285C17.7218 10.401 17.6532 10.5665 17.5312 10.6885C17.4092 10.8106 17.2437 10.8791 17.0711 10.8791C16.8986 10.8791 16.7331 10.8106 16.6111 10.6885C16.4891 10.5665 16.4205 10.401 16.4205 10.2285C16.4205 10.0559 16.4891 9.89044 16.6111 9.76842C16.7331 9.64641 16.8986 9.57786 17.0711 9.57786C17.2437 9.57786 17.4092 9.64641 17.5312 9.76842C17.6532 9.89044 17.7218 10.0559 17.7218 10.2285V10.2285ZM19.497 15.483C19.497 15.6555 19.4285 15.821 19.3064 15.943C19.1844 16.0651 19.0189 16.1336 18.8464 16.1336C18.6738 16.1336 18.5083 16.0651 18.3863 15.943C18.2643 15.821 18.1958 15.6555 18.1958 15.483C18.1958 15.3104 18.2643 15.1449 18.3863 15.0229C18.5083 14.9009 18.6738 14.8324 18.8464 14.8324C19.0189 14.8324 19.1844 14.9009 19.3064 15.0229C19.4285 15.1449 19.497 15.3104 19.497 15.483ZM14.4225 17.07C14.4255 17.1573 14.4108 17.2443 14.3795 17.3258C14.3481 17.4073 14.3007 17.4817 14.24 17.5445C14.1792 17.6073 14.1065 17.6573 14.0261 17.6914C13.9457 17.7255 13.8592 17.7431 13.7719 17.7431C13.6845 17.7431 13.5981 17.7255 13.5177 17.6914C13.4372 17.6573 13.3645 17.6073 13.3038 17.5445C13.2431 17.4817 13.1957 17.4073 13.1643 17.3258C13.1329 17.2443 13.1183 17.1573 13.1213 17.07C13.127 16.9013 13.198 16.7413 13.3194 16.624C13.4408 16.5067 13.6031 16.4411 13.7719 16.4411C13.9407 16.4411 14.1029 16.5067 14.2243 16.624C14.3457 16.7413 14.4168 16.9013 14.4225 17.07ZM16.2945 18.849C16.2975 18.9363 16.2828 19.0233 16.2515 19.1048C16.2201 19.1863 16.1727 19.2607 16.112 19.3235C16.0512 19.3863 15.9785 19.4363 15.8981 19.4704C15.8177 19.5045 15.7312 19.5221 15.6439 19.5221C15.5565 19.5221 15.4701 19.5045 15.3897 19.4704C15.3092 19.4363 15.2365 19.3863 15.1758 19.3235C15.1151 19.2607 15.0677 19.1863 15.0363 19.1048C15.0049 19.0233 14.9903 18.9363 14.9933 18.849C14.999 18.6803 15.07 18.5203 15.1914 18.403C15.3128 18.2857 15.4751 18.2201 15.6439 18.2201C15.8127 18.2201 15.9749 18.2857 16.0963 18.403C16.2177 18.5203 16.2888 18.6803 16.2945 18.849V18.849ZM9.16951 18.849C9.16951 19.0216 9.10092 19.1872 8.97883 19.3093C8.85675 19.4314 8.69116 19.5 8.51851 19.5C8.34585 19.5 8.18027 19.4314 8.05818 19.3093C7.9361 19.1872 7.86751 19.0216 7.86751 18.849C7.87324 18.6803 7.9443 18.5203 8.06569 18.403C8.18708 18.2857 8.3493 18.2201 8.51813 18.2201C8.68696 18.2201 8.84919 18.2857 8.97058 18.403C9.09197 18.5203 9.16303 18.6803 9.16876 18.849H9.16951ZM7.58176 13.7535C7.58472 13.8408 7.57009 13.9278 7.53873 14.0093C7.50736 14.0908 7.45991 14.1652 7.39921 14.228C7.3385 14.2908 7.26577 14.3408 7.18536 14.3749C7.10494 14.409 7.01848 14.4266 6.93113 14.4266C6.84378 14.4266 6.75733 14.409 6.67691 14.3749C6.5965 14.3408 6.52377 14.2908 6.46306 14.228C6.40235 14.1652 6.3549 14.0908 6.32354 14.0093C6.29218 13.9278 6.27754 13.8408 6.28051 13.7535C6.28624 13.5847 6.3573 13.4248 6.47869 13.3075C6.60008 13.1902 6.7623 13.1246 6.93113 13.1246C7.09996 13.1246 7.26219 13.1902 7.38358 13.3075C7.50497 13.4248 7.57603 13.5847 7.58176 13.7535V13.7535ZM5.80126 15.6442C5.80422 15.7315 5.78959 15.8185 5.75823 15.9001C5.72686 15.9816 5.67942 16.056 5.61871 16.1188C5.558 16.1816 5.48527 16.2315 5.40486 16.2656C5.32444 16.2997 5.23798 16.3173 5.15063 16.3173C5.06328 16.3173 4.97683 16.2997 4.89641 16.2656C4.816 16.2315 4.74327 16.1816 4.68256 16.1188C4.62185 16.056 4.5744 15.9816 4.54304 15.9001C4.51168 15.8185 4.49704 15.7315 4.50001 15.6442C4.50574 15.4755 4.5768 15.3156 4.69819 15.1983C4.81958 15.0809 4.9818 15.0153 5.15063 15.0153C5.31946 15.0153 5.48169 15.0809 5.60308 15.1983C5.72447 15.3156 5.79553 15.4755 5.80126 15.6442" fill="white"/>
</svg>
