<svg width="24" height="24" viewBox="0 0 24 24" fill="none" xmlns="http://www.w3.org/2000/svg">
<path d="M12 24C18.6274 24 24 18.6274 24 12C24 5.37258 18.6274 0 12 0C5.37258 0 0 5.37258 0 12C0 18.6274 5.37258 24 12 24Z" fill="#5E4778"/>
<path fill-rule="evenodd" clip-rule="evenodd" d="M7.875 9.18075H12.4897V10.122H7.875V9.18075ZM16.875 9.62325C16.875 11.8538 15.2925 13.2945 13.104 13.2945H10.0725V18H8.8725V12.2302H12.9412C14.5725 12.2302 15.6375 11.2613 15.6375 9.62325C15.6375 8.00475 14.5725 7.0635 12.96 7.0635H11.694L8.66175 7.07325V6H13.0942C15.2917 6 16.8743 7.39275 16.8743 9.62325H16.875V9.62325Z" fill="white" stroke="white"/>
</svg>
