<svg width="24" height="24" viewBox="0 0 24 24" fill="none" xmlns="http://www.w3.org/2000/svg">
<path d="M12 24C18.6274 24 24 18.6274 24 12C24 5.37258 18.6274 0 12 0C5.37258 0 0 5.37258 0 12C0 18.6274 5.37258 24 12 24Z" fill="#348F8D"/>
<path d="M17.484 5.28303C17.6632 5.46893 17.7633 5.71707 17.7633 5.97528C17.7633 6.23348 17.6632 6.48162 17.484 6.66753L15.1365 9.07428C15.0619 9.15048 14.9752 9.21384 14.88 9.26178C14.7077 9.359 14.5079 9.39622 14.3122 9.36757C14.1164 9.33893 13.9357 9.24605 13.7985 9.10353L11.46 6.70803L6.95624 11.3273L8.04374 12.4395C8.1998 12.6036 8.28639 12.8216 8.28542 13.0481C8.28444 13.2745 8.19596 13.4918 8.03849 13.6545C7.96164 13.734 7.86966 13.7973 7.76796 13.8407C7.66627 13.8841 7.55692 13.9067 7.44635 13.9072C7.33578 13.9077 7.22624 13.8861 7.12416 13.8436C7.02209 13.8011 6.92955 13.7386 6.85199 13.6598L5.12249 11.895C4.96376 11.7308 4.87503 11.5114 4.87503 11.283C4.87503 11.0547 4.96376 10.8352 5.12249 10.671L5.13449 10.6598C5.13819 10.6562 5.14169 10.6525 5.14499 10.6485L10.863 4.78353H10.8637L10.8645 4.78278L10.8832 4.76328C11.026 4.61497 11.2171 4.52275 11.422 4.50334C11.6269 4.48394 11.832 4.53865 12 4.65753C12.054 4.69428 12.105 4.73553 12.15 4.78278L14.388 7.07253L16.1332 5.28303C16.221 5.19253 16.326 5.12058 16.4421 5.07145C16.5582 5.02231 16.6829 4.997 16.809 4.997C16.935 4.997 17.0598 5.02231 17.1759 5.07145C17.292 5.12058 17.397 5.19253 17.4847 5.28303H17.484ZM18.8775 12.1095C19.0368 12.2726 19.126 12.4915 19.1262 12.7195C19.1263 12.9475 19.0373 13.1665 18.8782 13.3298L18.8662 13.341C18.8623 13.3446 18.8585 13.3483 18.855 13.3523L13.1145 19.2375C13.0272 19.328 12.9213 19.3982 12.804 19.4433C12.6867 19.4884 12.561 19.5073 12.4356 19.4987C12.3102 19.49 12.1883 19.4541 12.0783 19.3933C11.9683 19.3325 11.873 19.2483 11.799 19.1468L9.61124 16.9088L7.87649 18.6923C7.63499 18.9413 7.28249 19.0395 6.95174 18.9488C6.62099 18.858 6.36224 18.594 6.27374 18.255C6.18599 17.9168 6.28124 17.5553 6.52499 17.3085L8.87174 14.9025C9.00524 14.763 9.17699 14.6685 9.36449 14.631C9.66749 14.5635 9.98399 14.658 10.2037 14.883L12.5482 17.2815L17.0437 12.6735L15.9562 11.5613C15.8002 11.3972 15.7136 11.1792 15.7146 10.9527C15.7155 10.7263 15.804 10.509 15.9615 10.3463C16.0383 10.2668 16.1303 10.2035 16.232 10.1601C16.3337 10.1167 16.4431 10.0941 16.5536 10.0936C16.6642 10.0931 16.7737 10.1147 16.8758 10.1572C16.9779 10.1997 17.0704 10.2622 17.148 10.341L18.8527 12.0848L18.8542 12.0863L18.8565 12.0878L18.8775 12.1095Z" fill="white"/>
</svg>
