<svg width="24" height="24" viewBox="0 0 24 24" fill="none" xmlns="http://www.w3.org/2000/svg">
<path d="M12 24C18.6274 24 24 18.6274 24 12C24 5.37258 18.6274 0 12 0C5.37258 0 0 5.37258 0 12C0 18.6274 5.37258 24 12 24Z" fill="#610089"/>
<path fill-rule="evenodd" clip-rule="evenodd" d="M12.3675 3.75225C16.215 3.95925 19.329 6.62925 20.0932 10.4032C20.1937 10.9012 20.2207 11.4165 20.2485 11.9257C20.2732 12.3757 19.98 12.6795 19.5742 12.6787C19.1767 12.6787 18.9165 12.3907 18.9067 11.9437C18.834 8.6535 16.6117 5.94 13.4032 5.25375C12.9232 5.15175 12.4222 5.15025 11.9317 5.09475C11.5582 5.05275 11.3107 4.7655 11.3212 4.401C11.3317 4.04025 11.6017 3.77175 11.9782 3.753C12.108 3.747 12.2377 3.75225 12.3675 3.75225V3.75225ZM11.649 20.25C7.95674 20.139 4.63574 17.34 3.93524 13.716C3.82874 13.161 3.78824 12.5917 3.75149 12.027C3.72899 11.682 3.94874 11.4345 4.26899 11.352C4.53449 11.283 4.84349 11.3962 4.97849 11.649C5.04599 11.7772 5.07824 11.9392 5.08124 12.087C5.13599 15.24 7.26824 17.9535 10.3282 18.708C10.8802 18.8445 11.4622 18.8662 12.0322 18.927C12.3577 18.9607 12.6187 19.182 12.6622 19.4992C12.7035 19.7992 12.5145 20.1345 12.2272 20.2057C12.042 20.2515 11.8417 20.2372 11.649 20.25V20.25ZM11.988 8.99775C13.6207 8.9925 14.9917 10.3312 15.003 11.9415C15.0067 12.4965 14.4982 12.846 14.028 12.6067C13.773 12.4777 13.6635 12.2617 13.653 11.9745C13.6451 11.5858 13.5004 11.2123 13.2443 10.9198C12.9881 10.6273 12.637 10.4346 12.2527 10.3755C11.3887 10.2285 10.5487 10.815 10.3807 11.6827C10.209 12.5692 10.764 13.4325 11.628 13.6192C11.7465 13.6447 11.868 13.659 11.988 13.6657C12.39 13.6867 12.672 13.9635 12.669 14.3407C12.666 14.7232 12.3637 15.0067 11.9542 15.0105C10.6672 15.0217 9.45374 14.0827 9.10274 12.8047C8.57849 10.896 10.0125 9.00375 11.988 8.99775V8.99775ZM17.6542 11.8155C17.6392 11.943 17.6445 12.1027 17.598 12.2452C17.5005 12.5482 17.178 12.7237 16.863 12.6727C16.5352 12.6187 16.302 12.3502 16.2982 11.9827C16.293 11.4232 16.2022 10.8802 15.9727 10.3725C15.213 8.69625 13.9132 7.797 12.0697 7.71C11.619 7.6875 11.3197 7.4235 11.3227 7.02C11.3265 6.6165 11.628 6.35325 12.0855 6.35475C14.838 6.36 17.2432 8.49 17.592 11.2327C17.616 11.418 17.6317 11.6032 17.6542 11.8155V11.8155ZM6.35849 12.1612C6.32024 11.856 6.39824 11.5552 6.74699 11.3947C7.20599 11.1825 7.68674 11.511 7.69574 12.0502C7.70474 12.567 7.79324 13.0642 7.97924 13.5457C8.28185 14.3423 8.81513 15.0305 9.51091 15.5225C10.2067 16.0144 11.0334 16.2876 11.8852 16.3072C12.4672 16.3222 12.8055 16.7437 12.6202 17.2222C12.5167 17.4922 12.2887 17.649 11.9767 17.646C10.3252 17.631 8.93249 17.0122 7.81874 15.7995C6.90135 14.8078 6.38149 13.5128 6.35849 12.162V12.1612ZM15.009 14.2762C14.9812 14.6115 14.8665 14.8237 14.6145 14.9415C14.364 15.0585 14.1097 15.0405 13.9095 14.8552C13.5466 14.5189 13.1961 14.1694 12.8587 13.8075C12.6262 13.5585 12.6487 13.1662 12.8767 12.921C13.1092 12.6712 13.5247 12.6195 13.779 12.8527C14.1555 13.1962 14.5117 13.5637 14.859 13.938C14.9505 14.037 14.976 14.1967 15.009 14.2755V14.2762Z" fill="white"/>
</svg>
