<svg width="24" height="24" viewBox="0 0 24 24" fill="none" xmlns="http://www.w3.org/2000/svg">
<path d="M12 24C18.6274 24 24 18.6274 24 12C24 5.37258 18.6274 0 12 0C5.37258 0 0 5.37258 0 12C0 18.6274 5.37258 24 12 24Z" fill="#252525"/>
<path d="M19.221 15.9067C19.2961 15.9083 19.3675 15.9395 19.4197 15.9934C19.472 16.0473 19.5008 16.1197 19.5 16.1948V17.625H14.7908L14.7728 16.38C14.7735 16.2975 14.8102 16.2187 14.8725 16.167C14.8911 16.1431 14.9122 16.1212 14.9355 16.1017C17.0107 14.6542 17.808 11.898 16.842 9.51375C15.8752 7.1295 13.413 5.78025 10.9568 6.28875C8.50125 6.7965 6.7335 9.02175 6.73275 11.6063C6.73125 13.3725 7.57275 15.0263 8.9835 16.0275C9.01425 16.0448 9.039 16.0702 9.0555 16.1017C9.10674 16.1257 9.15011 16.1637 9.18053 16.2114C9.21094 16.2591 9.22715 16.3144 9.22725 16.371L9.20925 17.616H4.5V16.185C4.5 16.026 4.62525 15.897 4.779 15.897C4.93275 15.897 5.058 16.026 5.058 16.185V17.049H8.6595L8.6685 16.5105H8.6595C6.58875 15.009 5.7 12.297 6.462 9.807C7.22625 7.317 9.465 5.625 11.9962 5.625C14.5275 5.625 16.7662 7.317 17.529 9.807C18.2917 12.297 17.403 15.009 15.3315 16.5105L15.3412 17.058H18.9427V16.1948C18.9419 16.1197 18.9708 16.0473 19.023 15.9934C19.0753 15.9395 19.1467 15.9083 19.2217 15.9067H19.221ZM15.5025 12.0248C16.1235 12.8145 16.3125 13.5202 16.0425 13.9845C15.8355 14.3467 15.3945 14.5417 14.7548 14.5417C14.353 14.532 13.954 14.4728 13.5668 14.3655C13.2158 15.5917 12.648 16.3815 12 16.3815C11.352 16.3815 10.785 15.5917 10.4423 14.3655C10.055 14.4728 9.65598 14.532 9.25425 14.5417C8.6145 14.5417 8.1735 14.3467 7.9665 13.9845C7.6335 13.4085 8.0115 12.5078 8.8755 11.5883C8.74485 11.4525 8.62167 11.3098 8.5065 11.1607C7.8855 10.371 7.6965 9.67425 7.9665 9.19125C8.1735 8.829 8.6145 8.634 9.25425 8.634C9.65601 8.64403 10.055 8.70348 10.4423 8.811C10.7933 7.58475 11.361 6.795 12.009 6.795C12.657 6.795 13.224 7.58475 13.5668 8.82C13.954 8.71273 14.353 8.65354 14.7548 8.64375C15.3945 8.64375 15.8355 8.83875 16.0425 9.201C16.3125 9.684 16.1235 10.3808 15.5025 11.1705C15.387 11.3198 15.264 11.4622 15.1335 11.598C15.264 11.733 15.387 11.8755 15.5025 12.0248V12.0248ZM14.7637 8.98725C14.3901 8.99901 14.0189 9.05182 13.6567 9.14475C13.7535 9.58575 13.8218 10.0328 13.8638 10.4828C14.2193 10.7453 14.559 11.031 14.8815 11.3377C15.0075 11.2072 15.1245 11.0677 15.2325 10.938C15.7455 10.278 15.9345 9.71175 15.7455 9.36825C15.5745 9.0525 15.1155 8.98725 14.7637 8.98725V8.98725ZM12.7838 12.9907C13.0448 12.8332 13.2968 12.666 13.5308 12.4988C13.5578 12.201 13.5668 11.904 13.5668 11.5883C13.5668 11.2725 13.5488 10.9658 13.5308 10.6778C13.2877 10.5074 13.0383 10.3462 12.783 10.1948C12.5259 10.0483 12.2648 9.909 12 9.777C11.7315 9.9015 11.4705 10.041 11.217 10.1948C10.947 10.3523 10.7032 10.5105 10.4692 10.6778C10.4422 10.9658 10.4333 11.2725 10.4333 11.5883C10.4333 11.9033 10.4512 12.2108 10.4692 12.4988C10.9558 12.8403 11.4675 13.1444 12 13.4085C12.2685 13.284 12.5295 13.1445 12.783 12.9907H12.7838ZM13.4948 12.963C13.3148 13.074 13.1437 13.1857 12.9637 13.2975C12.7837 13.4085 12.6038 13.5113 12.4238 13.6035C12.7193 13.737 13.023 13.8518 13.3328 13.9478C13.3958 13.641 13.4498 13.3155 13.4948 12.963V12.963ZM11.595 13.6035L11.055 13.2975C10.875 13.1857 10.695 13.074 10.5233 12.963C10.5555 13.2945 10.6095 13.623 10.6852 13.9478C10.9942 13.8503 11.298 13.7355 11.595 13.6035V13.6035ZM10.1183 12.2288C10.1075 12.0154 10.1015 11.8019 10.1003 11.5883C10.1003 11.3655 10.1093 11.1607 10.1183 10.947C9.8565 11.145 9.60675 11.3588 9.37125 11.5883C9.60825 11.8155 9.858 12.03 10.1183 12.2288ZM10.5233 10.2322C10.6924 10.1134 10.8666 10.0018 11.0453 9.89775C11.235 9.786 11.415 9.684 11.595 9.591C11.2988 9.4575 10.995 9.3435 10.6852 9.2475C10.6222 9.5535 10.5683 9.879 10.5233 10.2322V10.2322ZM12.414 9.591C12.594 9.684 12.774 9.786 12.954 9.89775C13.134 10.0087 13.314 10.1205 13.4858 10.2322C13.4538 9.90074 13.3997 9.57176 13.3237 9.2475C13.0147 9.345 12.711 9.459 12.414 9.591V9.591ZM13.8998 10.956C13.9088 11.1705 13.9177 11.3745 13.9177 11.5973C13.9177 11.82 13.9088 12.0338 13.8998 12.2385C14.1608 12.0248 14.4128 11.811 14.6378 11.5973C14.4063 11.3676 14.1597 11.1536 13.8998 10.9568V10.956ZM12.009 7.14825C11.55 7.14825 11.082 7.7985 10.7752 8.90325C11.1967 9.036 11.6085 9.19725 12.009 9.3855C12.409 9.19753 12.8212 9.03666 13.2427 8.904C12.936 7.7985 12.459 7.14825 12.009 7.14825V7.14825ZM8.2725 9.36825C8.0745 9.71175 8.2635 10.2878 8.7855 10.9283C8.8935 11.067 9.0105 11.1967 9.1365 11.3362C9.4575 11.0287 9.7965 10.7438 10.1542 10.4828C10.1955 10.0328 10.2645 9.58575 10.3612 9.1455C9.99975 9.048 9.62775 8.9955 9.25425 8.98725C8.9025 8.98725 8.4525 9.0525 8.2725 9.36825V9.36825ZM9.25425 14.1982C9.6285 14.1907 10.0005 14.1345 10.3612 14.0303C10.2647 13.5895 10.1956 13.1431 10.1542 12.6937C9.792 12.4357 9.44925 12.15 9.1275 11.8387C8.3535 12.666 8.0475 13.4085 8.2725 13.8173C8.4435 14.133 8.9025 14.1982 9.25425 14.1982V14.1982ZM12.009 16.0372C12.459 16.0372 12.936 15.387 13.2427 14.2822C12.8211 14.1491 12.409 13.9877 12.009 13.7993C11.6085 13.9875 11.1967 14.1487 10.7752 14.2822C11.082 15.387 11.559 16.0372 12.009 16.0372ZM15.7455 13.8173C15.9345 13.4828 15.7455 12.9075 15.2325 12.2475C15.1245 12.1177 15.0075 11.9783 14.8815 11.8485C14.5605 12.156 14.2215 12.441 13.8638 12.7035C13.8225 13.1527 13.7535 13.5998 13.6567 14.0408C14.0182 14.1375 14.3902 14.1907 14.7637 14.1982C15.1155 14.1982 15.5655 14.133 15.7455 13.8173V13.8173ZM12.009 10.2322C12.7365 10.2322 13.3275 10.8375 13.3328 11.5883C13.3328 12.336 12.7455 12.9428 12.021 12.9443C11.2965 12.9458 10.707 12.342 10.7032 11.5942C10.7002 10.8465 11.2845 10.2367 12.009 10.2322V10.2322ZM12.009 12.6008C12.5445 12.5963 12.9773 12.15 12.9818 11.5973C12.9818 11.043 12.5467 10.5945 12.009 10.5945C11.4712 10.5945 11.0363 11.043 11.0363 11.5973C11.0363 12.1515 11.472 12.6008 12.009 12.6008Z" fill="white"/>
</svg>
