<svg width="24" height="24" viewBox="0 0 24 24" fill="none" xmlns="http://www.w3.org/2000/svg">
<path d="M12 24C18.6274 24 24 18.6274 24 12C24 5.37258 18.6274 0 12 0C5.37258 0 0 5.37258 0 12C0 18.6274 5.37258 24 12 24Z" fill="#2E9AD0"/>
<path d="M18.9848 17.727L17.505 16.41L14.511 18.6562C14.5467 18.7347 14.5652 18.8198 14.565 18.906C14.5662 19.0621 14.5055 19.2123 14.3961 19.3236C14.2867 19.435 14.1376 19.4984 13.9815 19.5C13.8444 19.4992 13.712 19.4505 13.607 19.3623C13.5021 19.274 13.4313 19.1519 13.407 19.017H10.1745C10.1502 19.1518 10.0796 19.2738 9.97478 19.362C9.87001 19.4502 9.73771 19.499 9.60076 19.5C9.44455 19.4986 9.29527 19.4353 9.18572 19.3239C9.07617 19.2125 9.01531 19.0622 9.01651 18.906C9.01635 18.8204 9.03451 18.7358 9.06976 18.6578L6.41026 16.6777C6.30427 16.7738 6.16632 16.827 6.02326 16.827C5.86705 16.8256 5.71777 16.7623 5.60822 16.6509C5.49867 16.5395 5.43781 16.3892 5.43901 16.233C5.43901 16.008 5.56201 15.8122 5.74351 15.711L4.76626 12.591C4.68448 12.5982 4.6021 12.5883 4.52439 12.5618C4.44668 12.5353 4.37536 12.4929 4.31499 12.4373C4.25462 12.3816 4.20654 12.314 4.17383 12.2387C4.14111 12.1634 4.12449 12.0821 4.12501 12C4.12452 11.9163 4.14184 11.8335 4.17581 11.7571C4.20979 11.6806 4.25965 11.6123 4.32208 11.5566C4.38451 11.5009 4.45808 11.4592 4.5379 11.4341C4.61772 11.409 4.70195 11.4012 4.78501 11.4113L5.74576 8.2905C5.65241 8.23874 5.57468 8.16284 5.52071 8.07075C5.46675 7.97865 5.43853 7.87374 5.43901 7.767C5.43901 7.43925 5.70076 7.173 6.02326 7.173C6.17476 7.173 6.31276 7.2315 6.41626 7.3275L9.09601 5.3925C9.04388 5.30166 9.01647 5.19874 9.01651 5.094C9.01651 4.76625 9.27826 4.5 9.60076 4.5C9.88576 4.5 10.1235 4.70775 10.1745 4.983H13.407C13.4313 4.8481 13.5021 4.72596 13.607 4.63774C13.712 4.54953 13.8444 4.5008 13.9815 4.5C14.304 4.5 14.565 4.76625 14.565 5.094C14.5652 5.19344 14.5408 5.29137 14.4938 5.379L17.1563 7.3365C17.2641 7.23163 17.4086 7.17297 17.559 7.173C17.8815 7.173 18.1425 7.43925 18.1425 7.767C18.1429 7.8656 18.1189 7.96278 18.0726 8.04982C18.0263 8.13686 17.9591 8.21105 17.877 8.26575L18.834 11.4075C18.9146 11.402 18.9955 11.4133 19.0716 11.4407C19.1476 11.4681 19.2171 11.5111 19.2756 11.5668C19.3342 11.6225 19.3805 11.6898 19.4116 11.7644C19.4428 11.8389 19.4581 11.9192 19.4565 12C19.4571 12.0789 19.4419 12.1572 19.4117 12.2301C19.3815 12.3031 19.337 12.3692 19.2807 12.4246C19.2245 12.48 19.1577 12.5236 19.0843 12.5527C19.0109 12.5818 18.9324 12.5958 18.8535 12.594L17.7308 16.2165L19.1685 17.496C19.3275 17.3519 19.5344 17.2722 19.749 17.2725C20.2328 17.2725 20.625 17.6715 20.625 18.1635C20.625 18.6555 20.2328 19.0545 19.749 19.0545C19.633 19.0535 19.5183 19.0297 19.4115 18.9844C19.3047 18.9391 19.2078 18.8732 19.1265 18.7904C19.0451 18.7077 18.9809 18.6097 18.9374 18.5022C18.8939 18.3946 18.872 18.2795 18.873 18.1635C18.873 18.0045 18.9135 17.856 18.9855 17.727H18.9848ZM14.031 18.3143L15.1463 15.8025C15.0547 15.7268 14.9878 15.6255 14.9543 15.5115L12.3668 15.888C12.3484 15.998 12.2995 16.1006 12.2258 16.1843L13.761 18.3555C13.8464 18.3202 13.939 18.3061 14.031 18.3143V18.3143ZM14.3258 18.4268L17.2275 16.2495L15.9765 15.705C15.912 15.7904 15.8251 15.8563 15.7254 15.8954C15.6257 15.9344 15.5171 15.9451 15.4118 15.9263L14.307 18.4133C14.3133 18.4174 14.3196 18.4216 14.3258 18.426V18.4268ZM13.527 18.5325L11.982 16.3485C11.8583 16.3922 11.7233 16.3922 11.5995 16.3485L10.0545 18.5325C10.0992 18.5884 10.1335 18.6519 10.1558 18.72H13.4258C13.448 18.6519 13.4823 18.5884 13.527 18.5325V18.5325ZM18.573 12.51C18.4858 12.4566 18.4139 12.3816 18.3641 12.2922C18.3143 12.2029 18.2884 12.1023 18.2888 12C18.2888 11.79 18.3953 11.6062 18.5565 11.5005L17.652 8.5305L17.4495 11.436C17.682 11.514 17.8508 11.7367 17.8508 12C17.8513 12.1234 17.8134 12.2439 17.7423 12.3447C17.6712 12.4455 17.5704 12.5216 17.454 12.5625L17.6535 15.477L18.573 12.51ZM16.8825 11.5522L15.6945 9.2235C15.5977 9.25551 15.4942 9.26121 15.3945 9.24L14.3505 11.5403C14.4178 11.5964 14.472 11.6667 14.509 11.7462C14.5461 11.8257 14.5652 11.9123 14.565 12C14.5652 12.0891 14.5454 12.1771 14.5071 12.2576C14.4688 12.338 14.413 12.4089 14.3438 12.465L15.42 14.7555C15.4973 14.7427 15.5764 14.7458 15.6525 14.7645L16.8668 12.432C16.8084 12.3762 16.7619 12.3092 16.7302 12.2349C16.6985 12.1607 16.6822 12.0807 16.6823 12C16.6823 11.8215 16.7603 11.661 16.8825 11.5522ZM17.163 12.585C17.1494 12.5825 17.1359 12.5795 17.1225 12.576L15.9098 14.904C15.9809 14.9705 16.0347 15.0533 16.0664 15.1454C16.0982 15.2374 16.107 15.3358 16.092 15.432L17.397 16.0005L17.163 12.585V12.585ZM17.1585 11.4165L17.373 8.331C17.26 8.29213 17.1616 8.21964 17.091 8.12325L16.0875 8.5425C16.1051 8.63478 16.101 8.72987 16.0757 8.82032C16.0503 8.91076 16.0043 8.99409 15.9413 9.06375L17.1443 11.4188C17.149 11.4179 17.1538 11.4172 17.1585 11.4165V11.4165ZM14.0775 12.5865C13.9938 12.6005 13.908 12.5959 13.8263 12.573L12.234 15.4005C12.2817 15.4568 12.3185 15.5214 12.3428 15.591L14.9438 15.213C14.9738 15.0773 15.0488 14.958 15.1523 14.8755L14.0775 12.585V12.5865ZM14.085 11.4157L15.1328 9.108C15.0263 9.01444 14.9566 8.88602 14.9363 8.74575L12.33 8.367C12.3013 8.43699 12.2596 8.50088 12.207 8.55525L13.8113 11.4315C13.9001 11.4041 13.9943 11.3987 14.0858 11.4157H14.085ZM13.5735 12.4252C13.5175 12.3696 13.473 12.3033 13.4428 12.2303C13.4125 12.1573 13.397 12.079 13.3973 12C13.3973 11.8395 13.4603 11.6933 13.5623 11.5868L11.9573 8.70825C11.8678 8.73536 11.7731 8.74025 11.6813 8.7225L10.026 11.5927C10.1285 11.7036 10.1853 11.849 10.185 12C10.1855 12.1567 10.1243 12.3073 10.0148 12.4193L11.6408 15.213C11.7572 15.1817 11.8805 15.1878 11.9933 15.2302L13.5735 12.4252ZM5.04076 12.489L5.97226 15.4635L6.19201 12.5805C6.0607 12.5505 5.94353 12.4766 5.85982 12.3711C5.77611 12.2656 5.73086 12.1347 5.73151 12C5.73082 11.8636 5.77723 11.7311 5.86291 11.6249C5.94858 11.5187 6.06827 11.4454 6.20176 11.4172L5.97451 8.54175L5.05726 11.523C5.1309 11.5788 5.19057 11.6509 5.23157 11.7337C5.27257 11.8165 5.29377 11.9076 5.29351 12C5.29351 12.2025 5.19301 12.3825 5.04076 12.489V12.489ZM7.95676 14.7585C8.04331 14.7415 8.13259 14.7446 8.21776 14.7675L9.24526 12.4717C9.17375 12.4157 9.11597 12.3441 9.07633 12.2623C9.03669 12.1806 9.01623 12.0909 9.01651 12C9.01651 11.814 9.10051 11.6482 9.23176 11.5395L8.18776 9.24C8.11567 9.25521 8.04133 9.25648 7.96876 9.24375L6.70951 11.562C6.7697 11.618 6.81769 11.6858 6.85047 11.7611C6.88325 11.8365 6.90012 11.9178 6.90001 12C6.90025 12.0799 6.88444 12.1591 6.85352 12.2328C6.8226 12.3064 6.7772 12.3732 6.72001 12.429L7.95751 14.7585H7.95676ZM8.19976 15.921C8.09288 15.9461 7.98105 15.9402 7.87742 15.9039C7.77379 15.8676 7.68267 15.8025 7.61476 15.7162L6.60226 16.1572C6.61375 16.2495 6.604 16.3431 6.57376 16.431L9.25501 18.4275C9.26287 18.4215 9.27087 18.4158 9.27901 18.4103L8.19901 15.9202L8.19976 15.921ZM7.49251 15.4462C7.47385 15.3434 7.48253 15.2374 7.51767 15.139C7.55281 15.0405 7.61319 14.953 7.69276 14.8853L6.48301 12.609L6.24826 15.684C6.34669 15.7261 6.43175 15.7943 6.49426 15.8812L7.49251 15.4462V15.4462ZM8.64001 15.222L11.2388 15.5925C11.269 15.504 11.3196 15.4238 11.3865 15.3585L9.76351 12.5707C9.68277 12.5947 9.59777 12.6005 9.51451 12.588L8.47201 14.9138C8.55786 14.9972 8.61644 15.1046 8.64001 15.222V15.222ZM8.62501 15.5198C8.59373 15.6204 8.53627 15.711 8.45851 15.7822L9.55576 18.3135C9.64608 18.3067 9.73673 18.3211 9.82051 18.3555L11.3565 16.1843C11.283 16.101 11.2342 15.999 11.2155 15.8895L8.62501 15.5198V15.5198ZM7.49776 8.52825L6.49951 8.11125C6.4369 8.2012 6.3504 8.27185 6.24976 8.31525L6.48976 11.3535L7.70176 9.1215C7.61619 9.05135 7.5518 8.95879 7.51577 8.85417C7.47975 8.74954 7.47352 8.63696 7.49776 8.529V8.52825ZM8.21026 8.082L9.24151 5.652L6.57676 7.5765C6.60429 7.65928 6.6135 7.74706 6.60376 7.83375L7.63126 8.2635C7.70148 8.18258 7.79281 8.12275 7.89504 8.0907C7.99728 8.05866 8.10641 8.05564 8.21026 8.082V8.082ZM8.64676 8.73675C8.62827 8.88034 8.55815 9.0123 8.44951 9.108L9.49651 11.4157C9.5911 11.3983 9.68855 11.4047 9.78001 11.4345L11.4165 8.595C11.3439 8.53285 11.2873 8.45413 11.2515 8.3655L8.64676 8.73675V8.73675ZM8.46676 8.22525C8.52976 8.28525 8.57926 8.3595 8.61151 8.442L11.2103 8.0715C11.2222 7.96289 11.2637 7.85964 11.3303 7.773L9.83776 5.637C9.74622 5.6786 9.64535 5.69541 9.54526 5.68575L8.46751 8.22525H8.46676ZM15.459 8.067C15.5531 8.05829 15.6479 8.07266 15.7352 8.10886C15.8225 8.14506 15.8997 8.202 15.96 8.27475L16.98 7.84875C16.9684 7.76145 16.9758 7.67266 17.0018 7.5885L14.355 5.643L15.4583 8.067H15.459ZM14.967 8.4495C15.0091 8.33577 15.085 8.23763 15.1845 8.16825L14.052 5.6835C13.9472 5.69626 13.8409 5.68018 13.7445 5.637L12.252 7.773C12.3184 7.86033 12.3598 7.964 12.372 8.073L14.967 8.45025V8.4495ZM13.515 5.4525C13.4763 5.40021 13.4464 5.34194 13.4265 5.28H10.155C10.1349 5.34199 10.1047 5.40026 10.0658 5.4525L11.5613 7.59225C11.6334 7.56087 11.7113 7.54468 11.79 7.54468C11.8687 7.54468 11.9466 7.56087 12.0188 7.59225L13.515 5.4525Z" fill="white"/>
</svg>
