<svg width="24" height="24" viewBox="0 0 24 24" fill="none" xmlns="http://www.w3.org/2000/svg">
<path d="M12 24C18.6274 24 24 18.6274 24 12C24 5.37258 18.6274 0 12 0C5.37258 0 0 5.37258 0 12C0 18.6274 5.37258 24 12 24Z" fill="#6CFCCD"/>
<path d="M7.5 4.5H12.4553C13.1318 4.50525 13.6357 4.54275 13.9672 4.6125C14.518 4.71393 15.0417 4.92871 15.5051 5.24322C15.9684 5.55773 16.3614 5.9651 16.659 6.4395C17.3475 7.53225 17.4375 8.958 16.914 10.1332C16.44 11.2147 15.4485 12.0615 14.289 12.3682C13.5533 12.5767 12.7815 12.4995 12.0255 12.513C13.3188 14.6163 14.61 16.7208 15.8993 18.8265L14.8275 19.5C12.5813 15.84 10.8975 13.095 9.77625 11.265C10.971 11.259 12.1658 11.274 13.3598 11.2575C14.7375 11.2208 15.9428 10.026 15.9713 8.6745C16.0613 7.50675 15.2887 6.342 14.16 5.958C13.848 5.83875 13.3575 5.78325 12.6878 5.793L7.5 5.79075V4.5Z" fill="white"/>
</svg>
