<svg width="24" height="24" viewBox="0 0 24 24" fill="none" xmlns="http://www.w3.org/2000/svg">
<path d="M12 24C18.6274 24 24 18.6274 24 12C24 5.37258 18.6274 0 12 0C5.37258 0 0 5.37258 0 12C0 18.6274 5.37258 24 12 24Z" fill="#60E4DD"/>
<path fill-rule="evenodd" clip-rule="evenodd" d="M7.608 15.018C7.833 14.6768 8.046 14.3572 8.247 14.058H5.949C5.9305 14.058 5.91276 14.0507 5.89968 14.0376C5.8866 14.0245 5.87925 14.0067 5.87925 13.9882V13.5112C5.87925 13.473 5.91075 13.4415 5.949 13.4415H8.6655C10.1182 11.3198 10.8442 10.446 10.8442 10.3568C10.8442 10.2195 10.8142 10.1512 10.3192 10.1512C9.34125 10.1512 7.7325 9.453 7.7325 7.5465C7.7325 6.50925 9.41025 5.25 10.3897 5.25C10.8442 5.25 10.914 5.44275 10.7047 5.4555C10.1452 5.49 8.92125 6.6075 8.92125 7.683C8.92125 8.403 9.56025 9.63675 10.9838 9.63675C12.6653 9.63675 14.1015 6.96375 17.5928 6.96375C19.6905 6.96375 20.25 8.60475 20.25 9.05475C20.25 9.50475 19.5952 9.74025 18.7117 9.74025C17.8282 9.74025 17.7952 8.163 16.0192 8.163C13.2307 8.163 10.8563 11.1825 9.7155 13.4415H11.6835C11.7225 13.4415 11.7532 13.473 11.7532 13.5112V13.9882C11.7533 13.9975 11.7516 14.0066 11.7482 14.0152C11.7447 14.0237 11.7396 14.0315 11.7331 14.0381C11.7266 14.0446 11.7189 14.0498 11.7104 14.0534C11.7019 14.0569 11.6927 14.0588 11.6835 14.0588H9.426C9.27 14.4188 9.15375 14.745 9.081 15.0187H11.0535C11.0925 15.0187 11.124 15.0488 11.124 15.0878V15.5655C11.124 15.584 11.1167 15.6017 11.1036 15.6148C11.0905 15.6279 11.0727 15.6353 11.0543 15.6353H8.9925C9.02925 16.5098 9.76275 17.298 11.1945 18H5.7045C6.19655 17.2067 6.69657 16.4184 7.2045 15.6353H5.3205C5.31128 15.6353 5.30213 15.6336 5.29358 15.6302C5.28503 15.6267 5.27725 15.6216 5.27069 15.6151C5.26414 15.6086 5.25893 15.6009 5.25538 15.5924C5.25183 15.5839 5.25 15.5747 5.25 15.5655V15.0878C5.25 15.0495 5.2815 15.018 5.31975 15.018H7.608Z" fill="white"/>
</svg>
