<svg width="24" height="24" viewBox="0 0 24 24" fill="none" xmlns="http://www.w3.org/2000/svg">
<path d="M12 24C18.6274 24 24 18.6274 24 12C24 5.37258 18.6274 0 12 0C5.37258 0 0 5.37258 0 12C0 18.6274 5.37258 24 12 24Z" fill="#48B254"/>
<path fill-rule="evenodd" clip-rule="evenodd" d="M17.0108 5.526L17.7195 6.1695L8.7705 11.2785L4.4385 8.78475L4.8435 7.98L8.7705 10.2127L17.0108 5.52525V5.526ZM15.2093 4.5L16.1603 4.983L8.7705 9.207L5.3295 7.2555L5.916 6.552L8.7705 8.181L15.21 4.5H15.2093ZM18.3473 6.83325L18.873 7.5375L8.7705 13.3102L3.89175 10.5345L4.1145 9.6495L8.7705 12.3045L18.3473 6.83325V6.83325ZM19.8045 9.42825C20.1015 10.26 20.25 11.1307 20.25 12.0427C20.25 12.9547 20.1015 13.8405 19.8045 14.6978L19.602 15.2415C19.1862 16.2168 18.5885 17.1041 17.841 17.856C17.0846 18.5987 16.1903 19.1865 15.2085 19.5862C14.1698 20.0287 13.0973 20.25 11.9903 20.25C10.8698 20.25 9.7965 20.0287 8.7705 19.5862C7.80038 19.1762 6.91487 18.5895 6.159 17.856C5.40287 17.1112 4.80403 16.2221 4.398 15.2415C3.9705 14.229 3.74925 13.1415 3.75 12.0427V11.4998L8.7705 14.3362L19.359 8.30175L19.8045 9.42825V9.42825Z" fill="white"/>
</svg>
