<svg width="24" height="24" viewBox="0 0 24 24" fill="none" xmlns="http://www.w3.org/2000/svg">
<path d="M12 24C18.6274 24 24 18.6274 24 12C24 5.37258 18.6274 0 12 0C5.37258 0 0 5.37258 0 12C0 18.6274 5.37258 24 12 24Z" fill="#1C1C1C"/>
<path d="M11.7862 10.0747C12.0157 10.1685 12.2452 10.1212 12.429 10.0747C12.567 10.5427 12.7965 10.9635 13.0252 11.1502C12.888 12.3202 12.4747 12.741 12.0157 12.741C11.3737 12.741 11.052 11.3842 11.052 11.151C11.19 11.0572 11.6032 10.776 11.787 10.0747H11.7862ZM11.0977 14.1915C11.3737 13.9575 11.5567 13.5832 11.7862 12.975C11.97 13.0687 12.2452 13.0215 12.429 12.975C12.567 13.6297 12.7042 14.0512 13.0252 14.238C12.9337 14.9865 12.4747 15.501 12.0615 15.501C11.4652 15.501 11.19 14.5657 11.0977 14.1915V14.1915ZM7.4265 15.6412C7.61025 15.4072 7.61025 15.0337 7.51875 14.3317C7.656 14.3782 7.794 14.3782 7.88625 14.3317C8.16075 14.9865 8.39025 15.4072 8.75775 15.6412C8.8035 15.969 8.75775 16.3432 8.61975 16.3897C8.115 16.6237 7.656 16.0155 7.42725 15.6412H7.4265ZM5.499 14.3782C5.59125 14.3782 5.637 14.3782 5.7285 14.4255C6.05025 15.267 6.60075 15.735 6.60075 15.735C6.7845 16.1092 6.876 16.4835 6.738 16.4835C6.3255 16.53 6.00375 16.2495 5.68275 15.6412C5.7285 15.501 5.68275 15.4072 5.499 14.3782V14.3782ZM4.26 14.3782C4.719 16.3432 5.59125 16.2495 5.5455 16.1557C5.36175 15.8287 5.178 15.6885 4.99425 15.5482C4.58175 15.1267 4.26 14.238 4.26 14.3782V14.3782ZM9.85875 15.6412C10.1805 15.4072 10.2262 14.8927 10.272 14.2387C10.4557 14.2845 10.6845 14.2845 10.8225 14.2387C10.9147 14.6587 11.052 15.267 11.4652 15.5482C11.4195 16.0627 11.2815 16.3432 10.9605 16.3897C10.731 16.4835 10.0882 16.4835 9.85875 15.6412V15.6412ZM5.91225 14.1915C6.096 13.9575 6.14175 13.5832 6.1875 13.0687C6.3255 13.1152 6.50925 13.1152 6.6 13.0687C6.738 13.6762 6.9675 14.0512 7.2435 14.2387C7.335 15.2205 7.2435 15.5482 7.05975 15.5482C6.64725 15.5482 6.096 14.6587 5.91225 14.1907V14.1915ZM4.4895 14.1915C4.4895 14.0977 4.53525 13.4895 4.58175 13.0687H4.76475C4.99425 13.9575 5.316 14.2387 5.316 14.2387C5.5455 15.3142 5.5455 15.5947 5.361 15.501C4.9485 15.3607 4.6275 14.5657 4.4895 14.1915ZM8.16075 14.1915C8.39025 14.004 8.52825 13.677 8.61975 13.0687C8.84925 13.1617 9.07875 13.1152 9.21675 13.0687C9.354 13.6762 9.58425 14.0512 9.90525 14.2387C9.90525 14.7525 9.85875 15.5947 9.21675 15.4537C8.6655 15.3142 8.20725 14.3782 8.16075 14.1915ZM7.74825 14.0512C7.197 14.0512 6.876 13.1617 6.876 12.8812C7.15125 12.6007 7.2885 12.0862 7.4265 11.1975C7.51875 11.244 7.656 11.244 7.794 11.1975C7.83975 12.18 8.115 12.6007 8.3445 12.8347C8.253 13.6297 8.0235 14.0512 7.74825 14.0512ZM4.90275 12.8812C4.99425 12.6937 4.99425 12.6472 5.27025 11.1975H5.499C5.499 12.18 5.77425 12.6472 5.91225 12.8347C5.8665 13.3492 5.958 14.0512 5.54475 14.0512C5.36175 14.0512 5.13225 13.8172 4.90275 12.8812ZM3.98475 11.244C4.12275 11.2912 4.0305 12.507 4.21425 12.9285C4.21425 12.9285 4.21425 14.0977 4.12275 14.004C3.43425 13.1617 3.89325 11.1975 3.98475 11.244ZM9.492 12.8812C9.813 12.6472 9.99675 12.1327 10.272 11.1975C10.4557 11.244 10.6845 11.244 10.8225 11.1975C10.9147 11.8987 11.0977 12.414 11.4652 12.7875C11.3737 13.536 11.0062 14.0512 10.5472 14.0512C9.813 14.0512 9.53775 13.0215 9.492 12.8812V12.8812ZM5.7285 11.0572C6.096 10.917 6.3255 10.1212 6.37125 10.0275C6.42174 10.0728 6.48717 10.0978 6.555 10.0978C6.62282 10.0978 6.68825 10.0728 6.73875 10.0275C6.73875 10.6357 6.92175 10.917 7.05975 11.01C6.92175 11.805 6.738 12.741 6.32475 12.741C5.958 12.741 5.77425 11.8987 5.7285 11.0572V11.0572ZM4.581 12.7875C4.26 12.7875 4.1685 11.5717 4.26 11.0572C4.26 11.0572 4.53525 10.6357 4.719 10.0275C4.76475 10.0275 4.857 10.0747 4.90275 10.0275C4.857 10.6357 4.9485 10.917 5.04 11.0572C5.04 11.0572 4.81125 12.7875 4.58175 12.7875H4.581ZM8.06925 11.0572C8.253 10.9635 8.61975 10.449 8.8035 9.98099C8.98725 10.0747 9.171 10.0747 9.39975 10.0275C9.492 10.5427 9.62924 10.8697 9.95099 11.0572C9.81299 11.8987 9.53775 12.741 8.9415 12.741C8.39025 12.741 8.115 11.6182 8.06925 11.0572V11.0572ZM8.48175 9.79424C8.20725 10.5427 7.93125 10.9635 7.5645 10.9635C7.1055 10.9635 7.05975 9.98099 7.05975 9.88724C7.42725 9.60674 7.70175 9.04574 7.93125 8.57774H8.253C8.16075 9.27899 8.3445 9.60674 8.4825 9.79424H8.48175ZM6.23325 8.62424C6.00375 9.27899 6.096 9.60674 6.18825 9.84074C5.82075 10.776 5.637 11.0107 5.36175 11.0107C5.0865 10.9635 5.0865 10.4017 5.178 9.93449C5.45325 9.74699 6.05025 8.67149 6.05025 8.62424H6.23325ZM4.90275 8.67149C5.04 8.62424 4.53525 9.32624 4.58175 9.65399C4.62675 10.1212 4.07625 10.917 4.0305 10.8697C3.8475 10.8232 4.21425 9.13874 4.90275 8.67149ZM11.4195 9.79424C11.2815 10.3087 11.0977 10.9635 10.3177 10.9635C9.90525 10.917 9.67575 10.356 9.5835 9.88724C10.0425 9.56024 10.272 8.99849 10.41 8.57774C10.5472 8.62424 10.7775 8.62424 10.9147 8.57774C11.0062 9.27899 11.2357 9.60674 11.4195 9.79424V9.79424ZM5.178 8.53049C5.2695 8.48399 5.8665 7.68899 6.1875 7.68899C6.37125 7.73549 5.8665 8.20349 5.91225 8.43749C5.77425 8.67149 5.13225 9.83999 4.90275 9.83999C4.719 9.83999 4.719 9.23249 5.178 8.53049ZM16.4677 14.3317C16.4212 15.033 16.4212 15.4072 16.5592 15.6412C16.3755 16.0162 15.8707 16.5772 15.3667 16.3897C15.1822 16.3432 15.1822 15.969 15.228 15.6412C15.6412 15.4072 15.9165 14.94 16.1002 14.3317C16.1917 14.3782 16.3297 14.3782 16.4677 14.3317ZM18.303 14.3317C18.3487 14.3782 18.441 14.3782 18.5325 14.2845C18.3487 15.3142 18.303 15.4072 18.3487 15.5482C18.0277 16.1557 17.7067 16.3897 17.2935 16.3897C17.1097 16.3897 17.202 16.0627 17.4315 15.6412C17.4315 15.6412 17.982 15.174 18.303 14.3317ZM19.038 15.5482C18.8535 15.735 18.6705 15.8287 18.5325 16.1557C18.4867 16.2495 19.359 16.3432 19.8172 14.3782C19.7257 14.238 19.4497 15.1267 19.0372 15.5482H19.038ZM13.7595 14.3317C13.7595 14.8927 13.8975 15.4072 14.1727 15.735C13.9432 16.53 13.3012 16.53 13.0717 16.4835C12.75 16.3897 12.6585 16.1092 12.567 15.6412C12.9337 15.3142 13.1175 14.7525 13.209 14.3317C13.3927 14.3782 13.5765 14.3782 13.7595 14.3317V14.3317ZM17.8897 13.0215C17.8897 13.5832 17.9362 13.9575 18.1657 14.1442C17.982 14.6122 17.3857 15.5017 17.0182 15.5017C16.8345 15.5017 16.743 15.174 16.8345 14.1915C17.1097 14.004 17.3392 13.536 17.4772 13.0215C17.5402 13.0568 17.6113 13.0754 17.6835 13.0754C17.7557 13.0754 17.8268 13.0568 17.8897 13.0215V13.0215ZM19.542 13.1152C19.542 13.4902 19.542 14.0977 19.6342 14.238C19.4505 14.613 19.1295 15.408 18.762 15.5482C18.5325 15.5947 18.5782 15.3142 18.8077 14.2845C18.8077 14.2845 19.1295 13.9575 19.359 13.1152H19.542ZM15.4575 13.0215C15.5497 13.677 15.6412 14.004 15.9165 14.1442C15.8715 14.3782 15.366 15.3142 14.8612 15.4072C14.2185 15.5482 14.1727 14.6587 14.1727 14.1915C14.4937 14.004 14.7232 13.5832 14.8612 13.0215C14.9992 13.0687 15.2287 13.1152 15.4575 13.0215V13.0215ZM17.202 12.8812C17.1555 13.1617 16.7887 14.0512 16.3297 14.0512C16.0545 14.0512 15.825 13.5832 15.7335 12.8347C15.963 12.6472 16.2382 12.18 16.284 11.1975C16.402 11.2443 16.5335 11.2443 16.6515 11.1975C16.8345 12.0397 16.9725 12.6007 17.202 12.8812V12.8812ZM18.8077 11.1975C19.0372 12.6472 19.083 12.6945 19.1752 12.8812C18.9457 13.77 18.7162 14.0512 18.5325 14.0512C18.12 14.0512 18.2115 13.3027 18.165 12.8347C18.3487 12.6472 18.5782 12.18 18.5782 11.1975C18.6705 11.244 18.7162 11.1975 18.8077 11.1975ZM19.7715 12.8812C20.001 12.507 19.9095 11.2912 20.001 11.1975C20.139 11.1502 20.5515 13.209 19.8637 13.9575C19.7715 14.0512 19.7715 12.8812 19.7715 12.8812ZM13.8975 11.1975C14.0355 12.1327 14.265 12.6472 14.6775 12.8812C14.6317 13.0215 14.265 14.0512 13.6222 14.0512C13.1175 14.0977 12.8422 13.4895 12.7042 12.7875C13.0252 12.414 13.2547 11.8987 13.347 11.1975C13.4385 11.244 13.668 11.244 13.8975 11.1975ZM17.7067 10.0275C17.7067 10.1212 17.982 10.917 18.303 11.1502C18.303 11.9452 18.0735 12.8347 17.7067 12.8347C17.2935 12.8347 17.1097 11.946 16.9717 11.1037C17.1097 10.9635 17.2935 10.6357 17.2935 10.0747C17.3608 10.1015 17.4337 10.1112 17.5057 10.103C17.5777 10.0948 17.6465 10.0688 17.706 10.0275H17.7067ZM19.7715 11.0572C19.8172 11.5717 19.7257 12.7875 19.4962 12.741C19.2667 12.741 19.0372 11.01 19.0372 11.01C19.1295 10.8697 19.221 10.5427 19.1752 10.0275C19.2005 10.0502 19.2332 10.0628 19.2671 10.0628C19.3011 10.0628 19.3338 10.0502 19.359 10.0275C19.542 10.6357 19.7715 11.0572 19.7715 11.0572V11.0572ZM15.2745 10.0275C15.4575 10.449 15.7792 10.9635 16.0545 11.1037C16.0087 11.6655 15.687 12.7875 15.1822 12.7875C14.4937 12.8347 14.3107 11.9925 14.1727 11.1037C14.448 10.9162 14.6317 10.5427 14.6775 10.0747C14.8612 10.1212 15.09 10.1212 15.2745 10.0275ZM16.422 10.917C16.1002 10.9635 15.825 10.542 15.504 9.79424C15.687 9.60674 15.825 9.23249 15.7335 8.57774C15.8707 8.62424 15.963 8.62424 16.0545 8.57774C16.3297 9.09224 16.605 9.60674 16.926 9.84074C16.926 9.98099 16.881 10.917 16.4212 10.917H16.422ZM17.8897 9.79424C17.9362 9.60674 18.0277 9.27899 17.7525 8.57774H17.9362C17.9362 8.62424 18.5782 9.74774 18.8077 9.88724C18.9 10.4017 18.9 10.917 18.624 10.9635C18.3952 10.9635 18.2115 10.7295 17.8897 9.79349V9.79424ZM19.4497 9.65324C19.4962 9.32624 19.0372 8.62424 19.083 8.67074C19.818 9.13874 20.0932 10.8232 19.9552 10.8697C19.9095 10.917 19.4047 10.0747 19.4505 9.65324H19.4497ZM13.6222 10.917C12.9337 10.9635 12.75 10.3087 12.6127 9.79424C12.8422 9.65324 13.0717 9.23249 13.1175 8.57774C13.2547 8.62424 13.485 8.62424 13.6222 8.57774C13.7595 8.99849 13.9897 9.56024 14.3565 9.84074C14.3107 10.4017 14.0812 10.8697 13.6215 10.917H13.6222ZM17.8897 7.68899C18.1192 7.68899 18.8077 8.48399 18.8535 8.53049C19.359 9.27899 19.359 9.84074 19.1752 9.84074C18.9 9.84074 18.303 8.67074 18.1657 8.43749C18.2107 8.20349 17.7067 7.68899 17.8897 7.68899ZM7.70175 7.82924C7.61025 8.10974 7.5645 8.39024 7.70175 8.53049C7.4265 9.09224 6.9675 9.88799 6.55425 9.84074C6.096 9.74699 6.46275 8.67074 6.50925 8.57774C6.7845 8.43749 7.4265 7.54874 7.65675 7.54874C7.794 7.59524 7.70175 7.82924 7.70175 7.82924V7.82924ZM9.85875 7.78274C9.85875 8.06324 9.90525 8.39024 10.134 8.53049C9.951 9.09224 9.5835 9.84074 8.9865 9.79424C8.574 9.74699 8.4825 9.04574 8.574 8.53049C8.9865 8.39024 9.354 7.50149 9.62925 7.50149C9.85875 7.50149 9.85875 7.73549 9.85875 7.78274V7.78274ZM16.3762 8.53049C16.4677 8.39024 16.4677 8.11049 16.3762 7.82924C16.3762 7.78274 16.284 7.54874 16.4212 7.54874C16.6507 7.54874 17.2935 8.43749 17.5687 8.57774C17.6145 8.67149 17.9812 9.74774 17.523 9.84074C17.064 9.88724 16.6507 9.04574 16.3755 8.53049H16.3762ZM13.9432 8.53049C14.127 8.39024 14.1727 8.06324 14.2185 7.78274C14.2185 7.73549 14.2185 7.50149 14.448 7.50149C14.6775 7.45499 15.1365 8.39024 15.504 8.53049C15.6412 9.13874 15.549 9.74699 15.0907 9.79424C14.448 9.88724 14.127 9.04574 13.9432 8.53049V8.53049ZM12.0157 7.50149C12.4747 7.50149 12.4747 8.39024 12.8422 8.57774C12.8422 8.81174 12.7042 9.84074 11.97 9.84074C11.3272 9.84074 11.19 8.99849 11.1442 8.57774C11.6947 8.34374 11.5117 7.50149 12.0157 7.50149Z" fill="white"/>
</svg>
