<svg width="24" height="24" viewBox="0 0 24 24" fill="none" xmlns="http://www.w3.org/2000/svg">
<path d="M12 24C18.6274 24 24 18.6274 24 12C24 5.37258 18.6274 0 12 0C5.37258 0 0 5.37258 0 12C0 18.6274 5.37258 24 12 24Z" fill="#01AEF0"/>
<path fill-rule="evenodd" clip-rule="evenodd" d="M15.8018 14.1675C15.792 15.723 14.8935 17.0475 13.4603 17.5913C13.1243 17.7188 12.7748 17.8125 12.4268 17.8995C12.219 17.952 12.1058 18.0547 12.0893 18.282C12.0683 18.5685 12.039 18.8543 11.9993 19.137C11.9513 19.4715 11.8365 19.548 11.529 19.4745C10.9995 19.3485 10.9425 19.263 11.013 18.7073C11.019 18.66 11.0258 18.6128 11.031 18.5648C11.0835 18.1095 11.019 18.0442 10.5833 18.066C10.3875 18.0757 10.3058 18.1725 10.287 18.3645C10.2615 18.6405 10.2345 18.9173 10.1895 19.1895C10.1445 19.4685 10.0275 19.5375 9.75901 19.479C9.18601 19.3553 9.14401 19.2915 9.21901 18.6855C9.31351 17.9332 9.31126 17.9415 8.61676 17.7322C8.30926 17.6392 8.01076 17.5102 7.71001 17.391C7.52701 17.319 7.46701 17.1825 7.51651 16.9792C7.57951 16.7205 7.62301 16.4557 7.67701 16.194C7.77001 15.7477 7.98601 15.6127 8.39851 15.7747C9.12901 16.062 9.87901 16.239 10.6598 16.2577C11.364 16.275 12.0608 16.2285 12.7035 15.8827C13.128 15.654 13.44 15.3187 13.5968 14.838C13.8293 14.124 13.6208 13.5465 12.9518 13.2592C12.4005 13.023 11.8088 12.8917 11.253 12.6652C10.7595 12.4642 10.2465 12.2632 9.82051 11.9475C8.86276 11.2395 8.69551 10.1925 8.90551 9.07425C9.14401 7.8135 9.91576 6.996 11.061 6.56175C11.3663 6.447 11.5043 6.2865 11.5095 5.94375C11.514 5.5725 11.5733 5.20125 11.6183 4.8315C11.6528 4.54725 11.7638 4.46775 12.0293 4.51125C12.5933 4.6035 12.6608 4.69275 12.6053 5.2785C12.5835 5.50725 12.5648 5.736 12.5378 5.96325C12.5153 6.1545 12.576 6.24225 12.7763 6.24825C13.233 6.26175 13.2525 6.2535 13.3065 5.781C13.341 5.47725 13.3665 5.17275 13.4078 4.86975C13.4528 4.53375 13.5615 4.45725 13.8713 4.52025C14.3925 4.6275 14.4503 4.707 14.3993 5.25C14.3768 5.48775 14.3655 5.72775 14.3243 5.9625C14.277 6.2325 14.3595 6.35775 14.628 6.42C15.1388 6.5385 15.6443 6.6885 16.146 6.8445C16.5233 6.9615 16.5383 7.00425 16.4655 7.3965C16.4228 7.63125 16.38 7.86675 16.3245 8.0985C16.221 8.535 16.0035 8.66475 15.588 8.52525C14.877 8.28525 14.163 8.0685 13.4093 8.03625C12.7493 8.0085 12.0983 8.01825 11.5253 8.433C10.7183 9.0165 10.7138 10.203 11.5718 10.7025C12.1178 11.0205 12.7485 11.1825 13.3403 11.4165C13.701 11.559 14.0715 11.682 14.418 11.8545C15.3465 12.318 15.8123 13.0927 15.8018 14.1682" fill="white"/>
</svg>
