<svg width="24" height="24" viewBox="0 0 24 24" fill="none" xmlns="http://www.w3.org/2000/svg">
<path d="M12 24C18.6274 24 24 18.6274 24 12C24 5.37258 18.6274 0 12 0C5.37258 0 0 5.37258 0 12C0 18.6274 5.37258 24 12 24Z" fill="#4BA2F2"/>
<path d="M7.4025 6.17176C7.5645 6.19951 7.161 7.27426 7.386 8.50201C7.581 9.55426 10.0163 13.629 9.91575 15.027C9.83775 15.9045 7.83825 17.9633 7.6275 17.826C7.39725 17.7623 8.235 16.3635 7.9245 15.198C7.563 13.839 5.4195 10.326 5.42175 8.77501C5.42175 7.64026 7.25775 6.09826 7.40175 6.17176H7.4025ZM11.9843 4.56676C12.1898 4.60201 11.6768 5.97376 11.9633 7.53601C12.2108 8.88001 15.318 14.076 15.189 15.8573C15.0885 16.9778 12.54 19.6005 12.27 19.4273C11.9775 19.347 13.0455 17.5628 12.6495 16.0763C12.1898 14.3453 9.456 9.86476 9.45825 7.88701C9.45825 6.43876 11.7998 4.47451 11.9843 4.56751V4.56676ZM16.713 6.17176C16.875 6.19951 16.4723 7.27426 16.6965 8.50201C16.8915 9.55426 19.3268 13.629 19.227 15.027C19.1498 15.9045 17.1495 17.9633 16.938 17.826C16.7085 17.7623 17.5455 16.3635 17.235 15.198C16.8743 13.839 14.73 10.326 14.7323 8.77501C14.7323 7.64026 16.5698 6.09826 16.713 6.17176V6.17176Z" fill="white"/>
</svg>
