<svg width="24" height="24" viewBox="0 0 24 24" fill="none" xmlns="http://www.w3.org/2000/svg">
<path d="M12 24C18.6274 24 24 18.6274 24 12C24 5.37258 18.6274 0 12 0C5.37258 0 0 5.37258 0 12C0 18.6274 5.37258 24 12 24Z" fill="#2683FF"/>
<path d="M18.7327 14.2283C19.0475 14.417 19.2762 14.7211 19.3704 15.0757C19.4647 15.4304 19.417 15.8079 19.2375 16.128C18.852 16.8045 17.976 17.0445 17.2867 16.6665C17.2192 16.6298 17.1607 16.5862 17.1007 16.5427L13.4062 18.6307C13.4152 18.6982 13.4205 18.7665 13.4212 18.8348C13.4212 18.915 13.4212 18.9878 13.4062 19.0673C13.2802 19.8323 12.546 20.3557 11.7667 20.232C10.9882 20.1082 10.4542 19.3875 10.5802 18.624L6.86249 16.521C6.80493 16.5623 6.74563 16.6011 6.68474 16.6373C6.62474 16.6665 6.56549 16.7025 6.49874 16.7242C6.14827 16.8647 5.75663 16.8618 5.40828 16.7162C5.05992 16.5705 4.78274 16.2938 4.63649 15.9457C4.34024 15.2257 4.69649 14.4105 5.43074 14.1195V9.9135C5.36333 9.89178 5.29865 9.86233 5.23799 9.82575C5.18237 9.79122 5.12784 9.75496 5.07449 9.717C4.87237 9.57014 4.7134 9.3717 4.61419 9.1424C4.51497 8.9131 4.47916 8.66137 4.51049 8.4135C4.54369 8.16505 4.64249 7.92992 4.79672 7.73233C4.95095 7.53473 5.15504 7.38179 5.38799 7.28925C5.62257 7.19468 5.87773 7.16278 6.12837 7.19671C6.37901 7.23064 6.6165 7.32922 6.81749 7.48275L10.572 5.3505C10.5645 5.28525 10.557 5.2275 10.557 5.1615C10.557 4.3905 11.217 3.75 12.0037 3.75C12.7897 3.75 13.4347 4.3755 13.4355 5.154C13.4355 5.22 13.428 5.27775 13.4205 5.34375L17.2042 7.49025C17.3687 7.36975 17.5567 7.28523 17.7559 7.24219C17.9552 7.19915 18.1613 7.19855 18.3608 7.24044C18.5603 7.28232 18.7488 7.36575 18.9139 7.48529C19.079 7.60483 19.2171 7.7578 19.3192 7.93425C19.704 8.61075 19.452 9.4695 18.762 9.84825C18.6952 9.87675 18.6285 9.9135 18.5617 9.93525V14.1487C18.621 14.1712 18.678 14.1975 18.732 14.2283H18.7327ZM18.993 15.9893C19.0663 15.8683 19.1146 15.7339 19.1353 15.594C19.1559 15.4541 19.1483 15.3115 19.113 15.1745C19.0777 15.0376 19.0154 14.9091 18.9298 14.7965C18.8441 14.684 18.7369 14.5897 18.6142 14.5192C18.4122 14.4028 18.1785 14.3535 17.9466 14.3784C17.7148 14.4034 17.4969 14.5013 17.3242 14.658L15.6247 13.6905C15.8281 13.2796 15.8741 12.8085 15.7538 12.366C15.6336 11.9236 15.3556 11.5405 14.9722 11.289C14.9245 11.1284 14.8623 10.9725 14.7862 10.8232L17.3535 9.39675C17.6205 9.64425 17.9962 9.7455 18.3547 9.66675C18.4944 9.63661 18.6266 9.57903 18.7439 9.49734C18.8611 9.41566 18.9609 9.31151 19.0375 9.19093C19.1141 9.07036 19.166 8.93577 19.1902 8.79497C19.2143 8.65417 19.2103 8.50997 19.1782 8.37075C19.0447 7.78875 18.4507 7.4325 17.8582 7.563C17.7186 7.59306 17.5863 7.65056 17.4691 7.73216C17.3519 7.81375 17.252 7.91782 17.1754 8.03832C17.0987 8.15882 17.0467 8.29335 17.0224 8.4341C16.9982 8.57486 17.0021 8.71903 17.034 8.85825L14.4375 10.3065C13.9335 9.717 12.3307 9.324 12.3307 9.324V6.11475C12.4911 6.06866 12.6375 5.98336 12.7566 5.86657C12.8758 5.74977 12.964 5.60515 13.0132 5.44575C13.0519 5.31871 13.0649 5.18525 13.0514 5.05315C13.0379 4.92105 12.9982 4.79297 12.9347 4.67637C12.8711 4.55977 12.785 4.457 12.6813 4.37405C12.5776 4.2911 12.4584 4.22964 12.3307 4.19325C11.7892 4.0335 11.2177 4.3245 11.0542 4.85625C11.0157 4.98324 11.0028 5.11663 11.0164 5.24864C11.0299 5.38065 11.0696 5.50865 11.1332 5.62516C11.1967 5.74168 11.2828 5.84438 11.3864 5.92727C11.49 6.01017 11.6091 6.07161 11.7367 6.108V9.3825C11.7367 9.3825 10.8622 9.666 10.521 9.942C10.1585 9.95033 9.80291 10.0428 9.48224 10.212L7.04099 8.8365C7.08213 8.66464 7.07923 8.48519 7.03255 8.31475C6.98588 8.14432 6.89695 7.98842 6.77399 7.8615C6.57519 7.65189 6.30182 7.52901 6.01308 7.51946C5.72434 7.50991 5.44346 7.61447 5.23124 7.8105C5.12615 7.90583 5.04125 8.02128 4.98154 8.15C4.92184 8.27872 4.88856 8.4181 4.88367 8.55991C4.87877 8.70172 4.90236 8.84306 4.95305 8.97559C5.00373 9.10812 5.08048 9.22915 5.17874 9.3315C5.37768 9.54116 5.65117 9.66406 5.94003 9.67361C6.2289 9.68315 6.5099 9.57857 6.72224 9.3825L8.92574 10.6193C8.53926 10.9951 8.30108 11.4977 8.2548 12.0348C8.20852 12.5719 8.35725 13.1078 8.67374 13.5443L6.73724 14.643C6.60302 14.5207 6.44102 14.4329 6.26525 14.3873C6.08948 14.3417 5.90525 14.3396 5.72849 14.3812C5.58892 14.4124 5.45691 14.4709 5.34013 14.5534C5.22335 14.636 5.12412 14.7409 5.04821 14.8621C4.9723 14.9833 4.92121 15.1183 4.89792 15.2594C4.87462 15.4005 4.87957 15.5448 4.91249 15.684C5.05424 16.2645 5.64824 16.6223 6.23999 16.4835C6.37949 16.4524 6.51143 16.3939 6.62815 16.3114C6.74487 16.2289 6.84406 16.1241 6.91996 16.0029C6.99586 15.8818 7.04697 15.7469 7.07032 15.6059C7.09367 15.4649 7.0888 15.3206 7.05599 15.1815L9.12599 14.01C9.65849 14.4323 10.3537 14.6003 11.025 14.4683C11.232 14.5628 11.445 14.643 11.6625 14.7083V17.7653C11.5154 17.8108 11.3788 17.8851 11.2605 17.9837C11.1422 18.0823 11.0446 18.2033 10.9732 18.3397C10.9058 18.4724 10.8656 18.6173 10.8549 18.7657C10.8442 18.9142 10.8633 19.0633 10.911 19.2043C10.9587 19.3452 11.0341 19.4753 11.1328 19.5867C11.2314 19.6982 11.3513 19.7888 11.4855 19.8533C11.5305 19.8758 11.5747 19.8967 11.6265 19.9117C11.634 19.9117 11.6415 19.9193 11.649 19.9193C12.2565 20.1008 12.903 19.773 13.0882 19.1768C13.1326 19.0343 13.1481 18.8845 13.1339 18.736C13.1197 18.5875 13.0761 18.4433 13.0056 18.3118C12.9351 18.1804 12.8391 18.0643 12.7232 17.9703C12.6073 17.8763 12.4739 17.8064 12.3307 17.7645V14.7675C12.3307 14.7675 12.8872 14.7165 13.1467 14.6362C13.8705 14.9212 14.6985 14.7525 15.2467 14.2073L16.9822 15.2048C16.9289 15.4292 16.9501 15.6648 17.0425 15.8762C17.1349 16.0875 17.2935 16.263 17.4945 16.3762C17.7455 16.5192 18.0423 16.5588 18.322 16.4867C18.6017 16.4146 18.8424 16.2365 18.993 15.99V15.9893ZM5.98799 14.9708C6.15299 14.9715 6.30449 15.057 6.38849 15.1957C6.42635 15.2653 6.44669 15.3431 6.44774 15.4222C6.44636 15.5429 6.39719 15.6581 6.31101 15.7426C6.22484 15.8271 6.10868 15.874 5.98799 15.873C5.86718 15.8742 5.75083 15.8274 5.66449 15.7429C5.57815 15.6584 5.52888 15.5431 5.52749 15.4222C5.52749 15.1725 5.73374 14.9708 5.98799 14.9708V14.9708ZM12.4867 5.15475C12.4848 5.27537 12.4353 5.39035 12.3491 5.47474C12.2629 5.55912 12.1469 5.60611 12.0262 5.6055C11.9056 5.6065 11.7894 5.55962 11.7032 5.47513C11.617 5.39064 11.5679 5.27543 11.5665 5.15475C11.5665 4.905 11.7727 4.70325 12.0262 4.70325C12.2812 4.70325 12.4867 4.90575 12.4867 5.15475ZM18.0952 9.06975C17.9748 9.06958 17.8592 9.02221 17.7732 8.93781C17.6873 8.85341 17.6378 8.73869 17.6355 8.61825C17.6355 8.36925 17.8417 8.16675 18.0952 8.16675C18.3502 8.16675 18.5557 8.36925 18.5557 8.61825C18.5544 8.73906 18.5051 8.85438 18.4187 8.93889C18.3324 9.02341 18.2161 9.0702 18.0952 9.069V9.06975ZM6.20249 8.20275C6.25463 8.23088 6.30057 8.26922 6.33756 8.31549C6.37455 8.36176 6.40184 8.41501 6.4178 8.47206C6.43376 8.52911 6.43806 8.58879 6.43045 8.64754C6.42284 8.70629 6.40347 8.7629 6.37349 8.814C6.3128 8.91858 6.21317 8.99488 6.09638 9.02622C5.97959 9.05757 5.85515 9.0414 5.75024 8.98125C5.69795 8.95328 5.65187 8.91502 5.61475 8.86876C5.57764 8.82251 5.55027 8.76923 5.5343 8.71212C5.51832 8.65501 5.51407 8.59526 5.52179 8.53646C5.52952 8.47767 5.54906 8.42104 5.57924 8.37C5.63994 8.26542 5.73957 8.18912 5.85636 8.15777C5.97315 8.12643 6.09759 8.1426 6.20249 8.20275V8.20275ZM18.2805 15.0577C18.3325 15.0859 18.3784 15.1242 18.4153 15.1704C18.4522 15.2166 18.4795 15.2698 18.4954 15.3267C18.5114 15.3837 18.5157 15.4433 18.5082 15.502C18.5006 15.5606 18.4813 15.6172 18.4515 15.6683C18.4089 15.7365 18.3499 15.793 18.2798 15.8325C18.2096 15.8719 18.1307 15.8931 18.0502 15.894C17.9693 15.8954 17.8894 15.8754 17.8186 15.8362C17.7478 15.797 17.6885 15.7398 17.6467 15.6705C17.6057 15.6017 17.584 15.523 17.584 15.4429C17.584 15.3627 17.6057 15.2841 17.6467 15.2153C17.6885 15.1459 17.7478 15.0888 17.8186 15.0495C17.8894 15.0103 17.9693 14.9904 18.0502 14.9918C18.1312 14.9943 18.2102 15.0167 18.2805 15.057V15.0577ZM11.5665 18.819C11.5672 18.8133 11.5699 18.808 11.574 18.804C11.5942 18.6861 11.66 18.5809 11.7571 18.511C11.8541 18.4412 11.9748 18.4123 12.093 18.4305C12.2112 18.4464 12.3183 18.5085 12.3908 18.6033C12.4632 18.6981 12.495 18.8178 12.4792 18.936C12.457 19.0453 12.3975 19.1435 12.3109 19.2138C12.2243 19.2841 12.116 19.3222 12.0045 19.3215C11.9422 19.3188 11.8811 19.3035 11.8249 19.2765C11.7687 19.2494 11.7186 19.2113 11.6776 19.1643C11.6367 19.1173 11.6057 19.0624 11.5866 19.0031C11.5675 18.9437 11.5606 18.8811 11.5665 18.819V18.819ZM14.208 11.8553C14.4286 11.9231 14.6214 12.0603 14.7578 12.2465C14.8941 12.4327 14.9667 12.658 14.9647 12.8887C14.9647 12.9255 14.9572 12.9622 14.9572 12.9982C14.9497 13.0275 14.9497 13.0568 14.9422 13.0853V13.1077C14.9272 13.173 14.9122 13.2383 14.8822 13.3035C14.8 13.5041 14.6577 13.6743 14.475 13.791C14.43 13.8135 14.3925 13.8352 14.349 13.857L14.3265 13.8645C14.2395 13.9049 14.147 13.9319 14.052 13.9448L14.0145 13.9515C13.9627 13.9515 13.9185 13.959 13.8667 13.959C13.6245 13.959 13.3897 13.8795 13.1992 13.7333L12.9982 13.8203C12.9367 13.8503 12.8722 13.872 12.8055 13.8862H12.798C12.3389 14.0091 11.8507 13.9598 11.4255 13.7475H11.418C11.3737 13.7257 11.3295 13.704 11.292 13.6823L11.277 13.6747C11.2327 13.6462 11.196 13.617 11.151 13.5878C10.9712 13.6666 10.7766 13.7062 10.5802 13.704C10.5202 13.704 10.4685 13.704 10.4167 13.6965L10.3867 13.689L10.2532 13.668L10.2382 13.6605C10.1907 13.6516 10.1438 13.6394 10.098 13.6238C9.97837 13.5841 9.86383 13.5305 9.75674 13.464C9.5333 13.3258 9.35724 13.1228 9.25199 12.882C9.25199 12.867 9.24449 12.8595 9.23699 12.8453C9.22828 12.8205 9.21827 12.7962 9.20699 12.7725C9.19815 12.7561 9.19063 12.7391 9.18449 12.7215C9.17699 12.6997 9.16274 12.678 9.16274 12.6562C9.16128 12.6338 9.15621 12.6118 9.14774 12.591C9.14024 12.5685 9.14024 12.561 9.13274 12.5325C9.12524 12.5032 9.12524 12.4747 9.11849 12.4455C9.11849 12.423 9.11099 12.4087 9.11099 12.3945C9.10477 12.3485 9.10226 12.3021 9.10349 12.2557C9.10263 12.1999 9.10513 12.144 9.11099 12.0885C9.11099 12.0668 9.11849 12.0525 9.11849 12.0375C9.12599 11.994 9.13349 11.958 9.14099 11.9213C9.14849 11.9063 9.14849 11.8852 9.15599 11.8702C9.16486 11.8305 9.17716 11.7916 9.19274 11.754C9.20024 11.739 9.20024 11.7322 9.20774 11.718C9.2241 11.6728 9.24391 11.6289 9.26699 11.5868L9.27449 11.5717C9.39629 11.3485 9.57347 11.1603 9.78901 11.0253C10.0046 10.8902 10.2512 10.8129 10.5052 10.8008C10.5277 10.7933 10.5502 10.7932 10.5802 10.7932C10.6695 10.7932 10.7587 10.8007 10.8472 10.8157C10.8847 10.7707 10.9215 10.7348 10.9657 10.6913L11.0032 10.6552C11.0475 10.6185 11.0842 10.5825 11.1292 10.5533L11.1517 10.5382C11.181 10.5165 11.2327 10.4805 11.2552 10.4655C11.2777 10.4513 11.3145 10.422 11.337 10.4145C11.3631 10.4055 11.388 10.3934 11.4112 10.3785C11.4555 10.356 11.5297 10.32 11.574 10.3058L11.6115 10.2765C11.9086 10.1611 12.2303 10.1236 12.546 10.1678H12.5535C12.6135 10.1738 12.6727 10.1828 12.7312 10.1963H12.7387C12.7987 10.2038 12.8505 10.2263 12.9097 10.2405L12.9172 10.248C12.9765 10.269 13.0282 10.2908 13.08 10.3133L13.095 10.3207C13.146 10.3417 13.1955 10.3658 13.2435 10.3928L13.251 10.4002C13.2952 10.4227 13.347 10.4587 13.392 10.4872L13.3995 10.4948C13.4512 10.524 13.4955 10.56 13.5397 10.5967L13.5472 10.6042C13.7953 10.8128 13.9868 11.0805 14.1037 11.3828V11.3903C14.1187 11.4338 14.1337 11.4848 14.1487 11.5283C14.1487 11.5433 14.1562 11.5575 14.1562 11.5717C14.1682 11.6092 14.1787 11.649 14.1855 11.688L14.208 11.8553V11.8553Z" fill="white"/>
</svg>
