<svg width="24" height="24" viewBox="0 0 24 24" fill="none" xmlns="http://www.w3.org/2000/svg">
<path d="M12 24C18.6274 24 24 18.6274 24 12C24 5.37258 18.6274 0 12 0C5.37258 0 0 5.37258 0 12C0 18.6274 5.37258 24 12 24Z" fill="#FF4081"/>
<path d="M10.4175 16.1273L10.536 18.75C10.536 18.75 11.9422 18.5115 13.407 18.75L13.524 16.1273H10.4175ZM8.7195 14.1C8.7195 14.1 12.8213 13.7423 15.2235 14.1L15.4575 11.2388C13.1759 11.0618 10.8841 11.0618 8.6025 11.2388L8.7195 14.1ZM19.5 6.70801C19.5 6.70801 11.6483 5.03851 4.5 6.82726L5.02725 10.1055L5.67225 8.85376C5.67225 8.85376 12.4103 7.84051 18.4448 8.85376L19.0312 10.1063L19.5 6.70801Z" fill="white"/>
</svg>
