<svg width="24" height="24" viewBox="0 0 24 24" fill="none" xmlns="http://www.w3.org/2000/svg">
<path d="M12 24C18.6274 24 24 18.6274 24 12C24 5.37258 18.6274 0 12 0C5.37258 0 0 5.37258 0 12C0 18.6274 5.37258 24 12 24Z" fill="#30C0F2"/>
<path d="M7.59224 5.25H16.4227C16.4227 5.25 16.6567 6.4155 17.9077 6.4935C17.9077 6.4935 22.0492 16.131 11.9685 20.25C11.9685 20.25 2.66924 17.2965 5.95124 6.5715C5.95124 6.5715 7.35824 6.4935 7.59224 5.25ZM15.9547 6.01725H8.06474L8.05424 6.18525C7.98824 6.552 7.80449 6.80775 7.53524 6.98025C7.36837 7.08546 7.18139 7.15469 6.98624 7.1835L6.84824 7.197L6.80924 7.3305C6.08249 9.813 6.05774 11.958 6.62999 13.788C7.09949 15.288 7.94924 16.518 9.06899 17.5005C9.65996 18.0187 10.3139 18.4605 11.0152 18.8152C11.2477 18.933 11.4652 19.0297 11.6595 19.1077C11.7772 19.155 11.8635 19.1857 11.9107 19.2015L11.9842 19.224L12.0555 19.194C14.835 18.006 16.5165 16.2105 17.2695 13.974C17.892 12.129 17.8365 10.1647 17.3722 8.30475C17.283 7.94793 17.1753 7.59596 17.0497 7.25025C17.0396 7.22286 17.0291 7.1956 17.0182 7.1685L16.9702 7.05L16.842 7.04175C16.4775 7.01775 16.2457 6.86925 16.1025 6.63075C16.0262 6.50251 15.9789 6.35918 15.9637 6.21075L15.9547 6.01725ZM8.42099 6.426C13.1962 6.42675 15.5835 6.4275 15.5835 6.42825C15.6165 6.5685 15.6697 6.708 15.7485 6.84075C15.9405 7.1595 16.2487 7.37475 16.6807 7.43625C16.7941 7.75375 16.8917 8.07664 16.9732 8.40375C17.4202 10.1947 17.4727 12.0832 16.8795 13.8442C16.1707 15.9495 14.595 17.6445 11.9662 18.7867C11.7056 18.6885 11.4504 18.5761 11.202 18.45C10.5315 18.1112 9.90635 17.6894 9.34124 17.1945C8.27549 16.2585 7.46849 15.0915 7.02299 13.6672C6.48449 11.946 6.49874 9.9225 7.16849 7.56675C7.37691 7.51915 7.57591 7.43701 7.75724 7.32375C8.08419 7.11935 8.3214 6.7985 8.42099 6.426V6.426ZM13.941 10.6125H13.7137C13.7362 10.1565 13.635 9.1635 12.4012 8.8875C12.0428 8.80179 11.6674 8.81895 11.3182 8.937C10.8367 9.108 10.2622 9.53775 10.2405 10.6125H10.0732C9.90282 10.6125 9.73933 10.6799 9.61847 10.8001C9.49762 10.9202 9.42923 11.0833 9.42824 11.2538V13.935C9.42923 14.1054 9.49762 14.2685 9.61847 14.3887C9.73933 14.5088 9.90282 14.5763 10.0732 14.5762H13.9417C14.1122 14.5763 14.2756 14.5088 14.3965 14.3887C14.5174 14.2685 14.5857 14.1054 14.5867 13.935V11.2538C14.5857 11.0833 14.5174 10.9202 14.3965 10.8001C14.2756 10.6799 14.1122 10.6125 13.9417 10.6125H13.941ZM12.4372 13.644H11.5777L11.805 12.5137C11.6981 12.4677 11.6104 12.3861 11.5568 12.2828C11.5032 12.1795 11.4869 12.0608 11.5108 11.9469C11.5346 11.833 11.597 11.7308 11.6876 11.6577C11.7781 11.5845 11.8911 11.5449 12.0075 11.5455C12.0762 11.5159 12.1506 11.5019 12.2254 11.5046C12.3002 11.5073 12.3734 11.5265 12.4399 11.561C12.5063 11.5955 12.5642 11.6443 12.6094 11.7039C12.6547 11.7635 12.6861 11.8324 12.7014 11.9057C12.7167 11.9789 12.7155 12.0547 12.698 12.1274C12.6804 12.2001 12.6469 12.2681 12.5999 12.3263C12.5529 12.3845 12.4935 12.4315 12.4261 12.4639C12.3586 12.4963 12.2848 12.5134 12.21 12.5137L12.4372 13.644ZM10.7962 10.6125C10.8172 10.2615 10.9657 9.4305 11.8905 9.369C11.8905 9.369 13.11 9.30225 13.0882 10.6125H10.7962Z" fill="white"/>
</svg>
