<svg width="24" height="24" viewBox="0 0 24 24" fill="none" xmlns="http://www.w3.org/2000/svg">
<path d="M12 24C18.6274 24 24 18.6274 24 12C24 5.37258 18.6274 0 12 0C5.37258 0 0 5.37258 0 12C0 18.6274 5.37258 24 12 24Z" fill="#F58634"/>
<path d="M9.96599 17.049H9.96899C10.8607 16.941 11.6107 16.671 12.219 16.239C13.0245 15.6615 13.4272 14.928 13.4272 14.0385C13.4272 13.2885 13.1325 12.6607 12.5437 12.147C11.9535 11.6347 11.154 11.3235 10.1452 11.2155C9.80249 11.1712 9.31649 11.139 8.69249 11.103C7.33199 11.0205 6.44924 10.8345 6.03974 10.5427C5.89416 10.4383 5.77162 10.3051 5.67974 10.1512C5.6019 10.0114 5.56159 9.85379 5.56274 9.69375C5.56274 9.273 5.80574 8.9175 6.29549 8.63775C6.78449 8.35875 7.40249 8.21625 8.15399 8.21625C8.86574 8.21625 9.57149 8.33775 10.239 8.57625C13.1085 9.59925 15.849 13.1752 17.6737 15.7357C16.1865 16.6395 14.1607 17.1967 11.9287 17.1967C11.2717 17.1967 10.6155 17.148 9.96599 17.049V17.049ZM6.75674 15.5925C4.13699 14.6362 2.99024 12.273 4.28399 9.978C4.31999 10.3005 4.43924 10.6102 4.63124 10.878C4.87124 11.2147 5.22374 11.4885 5.68649 11.7037C7.30274 12.4057 10.275 11.9572 11.499 12.849C11.9107 13.149 12.117 13.5322 12.117 13.9995C12.117 14.5867 11.8297 15.0675 11.2552 15.441C10.6815 15.8145 9.93449 16.0012 9.01499 16.0012C8.24448 15.9969 7.4806 15.8586 6.75749 15.5925H6.75674Z" fill="white"/>
<path opacity="0.5" d="M19.434 14.1562V9.76573C19.9268 10.4325 20.202 11.1772 20.202 11.961C20.202 12.7455 19.9268 13.4887 19.434 14.1562ZM18.1973 8.56123L18.201 14.157C16.4438 11.6625 13.818 8.52373 10.5908 7.47523C10.0325 7.29291 9.45569 7.17293 8.871 7.11748C9.87149 6.87092 10.8983 6.74751 11.9288 6.74998C14.4338 6.74998 16.68 7.45198 18.1973 8.56123Z" fill="white"/>
</svg>
