<svg width="24" height="24" viewBox="0 0 24 24" fill="none" xmlns="http://www.w3.org/2000/svg">
<path d="M12 24C18.6274 24 24 18.6274 24 12C24 5.37258 18.6274 0 12 0C5.37258 0 0 5.37258 0 12C0 18.6274 5.37258 24 12 24Z" fill="#408AF1"/>
<path d="M17.2867 7.70777C17.3667 7.57192 17.473 7.45346 17.5995 7.35937C17.7259 7.26527 17.8699 7.19746 18.023 7.15992C18.1761 7.12238 18.3352 7.11588 18.4908 7.1408C18.6465 7.16572 18.7955 7.22156 18.9292 7.30502C19.4917 7.65752 19.6687 8.40752 19.3237 8.98277C18.0457 11.1113 16.6035 13.3388 15.4012 15.0398C13.6462 17.5223 13.266 18.375 12 18.375C10.734 18.375 10.449 17.6228 8.64374 15.033C7.57124 13.4955 6.22649 11.4368 4.69124 9.00602C4.51927 8.73397 4.46027 8.40554 4.52681 8.09064C4.59335 7.77575 4.78016 7.49926 5.04749 7.32002C5.17915 7.23333 5.32686 7.1739 5.48187 7.14525C5.63689 7.11661 5.79608 7.11932 5.95003 7.15323C6.10399 7.18713 6.24958 7.25155 6.37822 7.34268C6.50686 7.4338 6.61593 7.54979 6.69899 7.68377C8.21624 10.0853 11.6437 15.0908 12.0097 15.537C12.3922 15.084 16.0387 9.78677 17.2867 7.70702V7.70777Z" fill="white"/>
</svg>
