<svg width="24" height="24" viewBox="0 0 24 24" fill="none" xmlns="http://www.w3.org/2000/svg">
<path d="M12 24C18.6274 24 24 18.6274 24 12C24 5.37258 18.6274 0 12 0C5.37258 0 0 5.37258 0 12C0 18.6274 5.37258 24 12 24Z" fill="#ED1650"/>
<path fill-rule="evenodd" clip-rule="evenodd" d="M17.61 7.5H14.577C14.5155 7.50011 14.4546 7.5125 14.3979 7.53646C14.3413 7.56041 14.2899 7.59545 14.247 7.6395L8.71575 13.2863C8.6728 13.3303 8.62149 13.3653 8.56482 13.3893C8.50815 13.4132 8.44727 13.4256 8.38575 13.4257H7.37175C7.31023 13.4256 7.24934 13.4132 7.19268 13.3893C7.13601 13.3653 7.08469 13.3303 7.04175 13.2863L6.32475 12.5557C6.2369 12.4663 6.18762 12.3459 6.1875 12.2205V11.1878C6.18751 11.0621 6.23678 10.9415 6.32475 10.8518L7.04175 10.1213C7.08472 10.0772 7.13604 10.0422 7.1927 10.0183C7.24936 9.99431 7.31023 9.9819 7.37175 9.98175H8.38575C8.5095 9.98175 8.628 10.032 8.71575 10.1213L9.156 10.5698C9.19891 10.6138 9.25022 10.6489 9.3069 10.6728C9.36358 10.6967 9.42448 10.7091 9.486 10.7091C9.54752 10.7091 9.60842 10.6967 9.6651 10.6728C9.72178 10.6489 9.77309 10.6138 9.816 10.5698L10.8802 9.48675C10.9678 9.39684 11.0169 9.27628 11.0169 9.15075C11.0169 9.02522 10.9678 8.90466 10.8802 8.81475L9.72525 7.6395C9.68228 7.59548 9.63096 7.56047 9.5743 7.53652C9.51763 7.51256 9.45677 7.50015 9.39525 7.5H6.36225C6.30073 7.50015 6.23986 7.51256 6.1832 7.53652C6.12654 7.56047 6.07522 7.59548 6.03225 7.6395L3.88725 9.8235C3.79956 9.91334 3.75056 10.034 3.75075 10.1595V13.248C3.75075 13.374 3.80025 13.4955 3.88725 13.584L6.03225 15.7688C6.07528 15.8126 6.12663 15.8475 6.18329 15.8713C6.23995 15.8952 6.30078 15.9074 6.36225 15.9075H9.396C9.45752 15.9073 9.51838 15.8949 9.57505 15.871C9.63171 15.847 9.68303 15.812 9.726 15.768L15.2572 10.122C15.3002 10.0778 15.3514 10.0427 15.4081 10.0186C15.4648 9.99453 15.5257 9.982 15.5872 9.98175H16.6012C16.725 9.98175 16.8435 10.032 16.9312 10.1213L17.6482 10.8518C17.7362 10.9415 17.7855 11.0621 17.7855 11.1878V12.2205C17.7853 12.3459 17.736 12.4662 17.6482 12.5557L16.9312 13.2863C16.8883 13.3303 16.837 13.3653 16.7803 13.3893C16.7237 13.4132 16.6628 13.4256 16.6012 13.4257H15.5872C15.5257 13.4256 15.4648 13.4132 15.4082 13.3893C15.3515 13.3653 15.3002 13.3303 15.2572 13.2863L14.8132 12.834C14.7706 12.7902 14.7198 12.7554 14.6636 12.7315C14.6074 12.7076 14.547 12.6951 14.4859 12.6947C14.4248 12.6944 14.3643 12.7062 14.3078 12.7294C14.2514 12.7527 14.2001 12.787 14.157 12.8303L12.8445 14.1368C12.7999 14.1814 12.7646 14.2344 12.7406 14.2927C12.7165 14.351 12.7042 14.4134 12.7042 14.4765V17.5065C12.7042 17.769 12.9135 17.982 13.1707 17.982H14.7007C14.7626 17.9815 14.8238 17.9688 14.8807 17.9447C14.9377 17.9206 14.9893 17.8855 15.0327 17.8414C15.0761 17.7973 15.1104 17.7451 15.1336 17.6878C15.1568 17.6304 15.1685 17.5691 15.168 17.5073V16.3823C15.168 16.1198 15.3772 15.9075 15.6345 15.9075H17.6107C17.6722 15.9074 17.733 15.8952 17.7897 15.8713C17.8464 15.8475 17.8977 15.8126 17.9407 15.7688L20.0857 13.584C20.1737 13.4943 20.223 13.3736 20.223 13.248V10.1595C20.2232 10.034 20.1742 9.91334 20.0865 9.8235L17.9415 7.6395C17.8985 7.59548 17.8472 7.56047 17.7905 7.53652C17.7339 7.51256 17.673 7.50015 17.6115 7.5" fill="white"/>
</svg>
