<svg width="24" height="24" viewBox="0 0 24 24" fill="none" xmlns="http://www.w3.org/2000/svg">
<path d="M12 24C18.6274 24 24 18.6274 24 12C24 5.37258 18.6274 0 12 0C5.37258 0 0 5.37258 0 12C0 18.6274 5.37258 24 12 24Z" fill="#FF6600"/>
<path d="M11.9775 3.92627C16.4663 3.92627 20.0963 7.55627 20.0963 12.0443C20.0932 12.919 19.952 13.7877 19.6778 14.6183H17.2583V7.79777L11.9783 13.0778L6.69826 7.79777V14.6183H4.27801C4.00405 13.7876 3.86306 12.9189 3.86026 12.0443C3.86026 7.55627 7.49026 3.92627 11.9783 3.92627H11.9775ZM10.7685 14.265L12 15.4763L13.2098 14.2658L15.498 11.9558V16.2458H18.9083C18.1849 17.4354 17.1673 18.4187 15.9535 19.1008C14.7396 19.7828 13.3706 20.1406 11.9783 20.1398C9.05176 20.1398 6.47776 18.5783 5.04826 16.2458H8.45776V11.9558L10.7678 14.2658L10.7685 14.265Z" fill="white"/>
</svg>
