<svg width="24" height="24" viewBox="0 0 24 24" fill="none" xmlns="http://www.w3.org/2000/svg">
<path d="M12 24C18.6274 24 24 18.6274 24 12C24 5.37258 18.6274 0 12 0C5.37258 0 0 5.37258 0 12C0 18.6274 5.37258 24 12 24Z" fill="#EC1076"/>
<path fill-rule="evenodd" clip-rule="evenodd" d="M15.7875 15.75C15.336 15.75 14.8403 15.5228 14.8403 14.841C14.8403 14.505 15.1028 13.4723 15.6263 11.742C15.7335 11.475 15.7868 11.235 15.7868 11.0227C15.7868 10.614 15.4718 10.2053 14.8853 10.2053C14.5448 10.2053 13.803 10.3402 13.578 11.0677C13.428 11.553 13.0823 12.8408 12.5408 14.9318C12.3308 15.477 11.955 15.75 11.4143 15.75C10.6028 15.75 10.467 15.159 10.467 14.7952C10.467 14.6512 10.683 13.7805 11.1158 12.1852C11.2845 11.6527 11.3685 11.265 11.3685 11.0227C11.3685 10.659 11.0985 10.2053 10.467 10.2053C9.83627 10.2053 9.24976 10.659 8.97976 11.6588C8.79976 12.3263 8.54402 13.326 8.21327 14.6588C8.03327 15.3863 7.62677 15.75 6.99601 15.75C6.42451 15.75 6.12451 15.432 6.09451 14.7952L7.13102 10.4775H4.83226C4.68981 10.4825 4.54781 10.4589 4.41461 10.4081C4.28141 10.3574 4.1597 10.2805 4.05665 10.1821C3.9536 10.0836 3.8713 9.96549 3.81457 9.83473C3.75784 9.70397 3.72785 9.56318 3.72635 9.42065C3.72485 9.27812 3.75187 9.13673 3.80583 9.00481C3.85979 8.87288 3.93959 8.75308 4.04055 8.65245C4.1415 8.55183 4.26156 8.47241 4.39366 8.41888C4.52577 8.36535 4.66724 8.33879 4.80976 8.34075H8.66402C9.20477 8.34075 9.53551 8.59875 9.65551 9.11325C10.197 8.43225 10.9178 8.25 11.55 8.25C12.1823 8.25 12.9923 8.61375 13.353 9.432C13.848 8.886 14.7053 8.25 15.9225 8.25C17.049 8.25 17.9963 9.0225 17.9963 10.386C17.9963 10.9012 17.7405 11.9775 17.2298 13.614L19.2075 13.6005C19.7858 13.6005 20.25 14.082 20.25 14.6752C20.25 15.2685 19.7858 15.75 19.2128 15.75H15.7875Z" fill="white"/>
</svg>
