<svg width="24" height="24" viewBox="0 0 24 24" fill="none" xmlns="http://www.w3.org/2000/svg">
<path d="M12 24C18.6274 24 24 18.6274 24 12C24 5.37258 18.6274 0 12 0C5.37258 0 0 5.37258 0 12C0 18.6274 5.37258 24 12 24Z" fill="#23B852"/>
<path d="M14.0438 14.361H16.5863V16.584H8.94751L18.4298 7.09503C18.5801 6.94285 18.6829 6.75016 18.7255 6.54051C18.7682 6.33086 18.7488 6.11334 18.6698 5.91453C18.5859 5.71693 18.4456 5.54847 18.2664 5.43026C18.0872 5.31205 17.8772 5.24936 17.6625 5.25003H6.33751C6.19429 5.24903 6.0523 5.27652 5.91981 5.33092C5.78732 5.38531 5.66697 5.46551 5.56577 5.56685C5.46456 5.66819 5.38453 5.78865 5.33032 5.92122C5.27611 6.05379 5.24881 6.19581 5.25001 6.33903V14.361L9.95626 9.65103H7.41376V7.41603H15.0398L5.57026 16.905C5.41989 17.0572 5.31711 17.2499 5.27449 17.4595C5.23186 17.6692 5.25124 17.8867 5.33026 18.0855C5.50201 18.4868 5.89126 18.75 6.33751 18.75H17.6625C17.8054 18.75 17.947 18.7218 18.079 18.6671C18.2111 18.6124 18.331 18.5321 18.432 18.431C18.533 18.3298 18.6131 18.2098 18.6677 18.0777C18.7222 17.9455 18.7502 17.804 18.75 17.661V9.65103L14.0438 14.361Z" fill="white"/>
</svg>
