<svg width="24" height="24" viewBox="0 0 24 24" fill="none" xmlns="http://www.w3.org/2000/svg">
<path d="M12 24C18.6274 24 24 18.6274 24 12C24 5.37258 18.6274 0 12 0C5.37258 0 0 5.37258 0 12C0 18.6274 5.37258 24 12 24Z" fill="#49C1BF"/>
<path d="M6.75 5.46075L15.0855 9.498L17.2192 8.5365L8.91825 4.5L6.75 5.46075Z" fill="white" fill-opacity="0.304"/>
<path d="M15.0855 9.48822L17.2193 8.52747V10.6762L15.0855 11.637V9.48822ZM15.0855 19.4512V12.7485L17.2193 11.7772V18.4905L15.0855 19.4512Z" fill="white" fill-opacity="0.646"/>
<path d="M6.75 5.46301V7.63576L12.5198 10.4385L6.75 13.296V15.438L15.0855 19.4678V17.3123L9.4245 14.559L15.0855 11.6483V9.49951L6.75 5.46301Z" fill="white"/>
</svg>
