<svg width="24" height="24" viewBox="0 0 24 24" fill="none" xmlns="http://www.w3.org/2000/svg">
<path d="M12 24C18.6274 24 24 18.6274 24 12C24 5.37258 18.6274 0 12 0C5.37258 0 0 5.37258 0 12C0 18.6274 5.37258 24 12 24Z" fill="#2D2D31"/>
<path d="M11.5965 20.7998C11.3805 20.7773 11.1645 20.7578 10.9485 20.7323C9.78734 20.5937 8.66603 20.2226 7.65149 19.6411C7.63649 19.6336 7.62224 19.6208 7.59299 19.6006C9.35774 18.2806 11.1142 16.9688 12.8805 15.6488L13.413 16.1663C13.7085 16.4558 14.0062 16.7423 14.2965 17.0363C14.3685 17.1083 14.421 17.1076 14.505 17.0641C15.3848 16.6248 16.1365 15.9661 16.6875 15.1516L16.773 15.0256C16.7977 15.0548 16.821 15.0781 16.8405 15.1036C17.4532 15.9211 18.0667 16.7386 18.6825 17.5538C18.7357 17.6243 18.7297 17.6663 18.6727 17.7293C17.2462 19.3508 15.4732 20.3491 13.3365 20.6903C13.068 20.7338 12.795 20.7503 12.5242 20.7796C12.4882 20.7833 12.4522 20.7931 12.417 20.7998H11.5965V20.7998ZM12.3727 3.20032L12.8205 3.24532C14.0812 3.36532 15.261 3.73882 16.359 4.36507C16.3755 4.37482 16.389 4.38532 16.4152 4.40482L11.0407 8.25982C10.9695 8.19232 10.9005 8.12857 10.833 8.06257C10.455 7.69507 10.0755 7.32757 9.70049 6.95632C9.64049 6.89632 9.59549 6.89032 9.52049 6.92782C8.62505 7.36969 7.86095 8.03837 7.30424 8.86732L7.22399 8.98732L5.24924 6.35707C5.44874 6.14557 5.63249 5.93557 5.83199 5.74057C7.13024 4.47457 8.67224 3.66907 10.4587 3.34507C10.8022 3.28282 11.1532 3.26182 11.5012 3.22057C11.541 3.21682 11.58 3.20707 11.6182 3.20032H12.3727V3.20032ZM4.36649 7.62757L8.36249 12.8656L7.55624 13.6928C7.35524 13.8983 7.15574 14.1068 6.95099 14.3086C6.89324 14.3663 6.89099 14.4106 6.92624 14.4811C7.38205 15.4074 8.08061 16.1928 8.94749 16.7536C8.95199 16.7558 8.95499 16.7641 8.96849 16.7911L6.35999 18.7486C4.79999 17.4046 3.78749 15.7493 3.38174 13.7423C2.94674 11.5936 3.29924 9.56332 4.36724 7.62757H4.36649V7.62757ZM15.7065 11.1226L16.4415 10.3606C16.6455 10.1483 16.8465 9.93307 17.0565 9.72532C17.1225 9.66082 17.1217 9.61207 17.0835 9.53557C16.6394 8.62914 15.9629 7.85666 15.123 7.29682C15.093 7.27657 15.0645 7.25557 15.0142 7.21957L17.6377 5.25157C19.1227 6.52357 20.1097 8.09107 20.5627 9.98332C21.1282 12.3451 20.6242 14.6806 19.6447 16.3253L15.7065 11.1233V11.1226Z" fill="white"/>
</svg>
