<svg width="48" height="48" viewBox="0 0 24 24" fill="none" xmlns="http://www.w3.org/2000/svg">
<path d="M12 24C5.37225 24 0 18.6277 0 12C0 5.37225 5.37225 0 12 0C18.6277 0 24 5.37225 24 12C24 18.6277 18.6277 24 12 24ZM11.9513 3C7.0065 3.00075 3 7.01025 3 11.955C3.00075 16.899 7.01025 20.907 11.955 20.9062C16.899 20.9047 20.907 16.896 20.9062 11.9513C20.9061 10.7755 20.6743 9.61129 20.2241 8.52512C19.774 7.43895 19.1143 6.45208 18.2827 5.62087C17.4512 4.78966 16.464 4.13039 15.3777 3.6807C14.2913 3.23101 13.127 2.9997 11.9513 3ZM8.316 6.9225C8.31659 6.89816 8.32678 6.87505 8.34434 6.85819C8.3619 6.84133 8.38541 6.8321 8.40975 6.8325H12.1395C12.9219 6.81784 13.6977 6.97878 14.4097 7.3035C14.5447 7.3695 14.6775 7.443 14.8057 7.5225L12.378 8.91225H11.1112C11.0991 8.91254 11.0872 8.91522 11.0761 8.92013C11.065 8.92503 11.055 8.93208 11.0467 8.94085C11.0383 8.94963 11.0318 8.95996 11.0274 8.97127C11.023 8.98258 11.021 8.99463 11.0212 9.00675V9.70575L8.316 11.2703V6.9225V6.9225ZM7.31175 14.781L5.69025 13.143L11.0302 10.062V12.0585C11.0308 12.0828 11.041 12.106 11.0586 12.1228C11.0761 12.1397 11.0997 12.1489 11.124 12.1485H11.8867L7.317 14.781H7.31175ZM15.3082 13.2585C14.5252 13.9125 13.4505 14.2395 12.084 14.2395H11.1112C11.0868 14.2395 11.0633 14.2492 11.046 14.2665C11.0287 14.2838 11.019 14.3073 11.019 14.3317V16.3478L9.6615 17.1293L8.394 17.862L8.31375 17.907V14.5657L12.516 12.1478C12.8752 12.1368 13.2192 12.0007 13.4888 11.763C13.5845 11.668 13.665 11.5587 13.7272 11.439L16.4108 9.88575C16.4558 10.1317 16.4782 10.3808 16.4775 10.6313C16.4805 11.7285 16.0905 12.6037 15.3075 13.2585H15.3082ZM13.8682 10.9943C13.8862 10.8795 13.8952 10.7625 13.896 10.6462C13.9187 10.1895 13.7678 9.741 13.4738 9.39075C13.3089 9.20783 13.0977 9.07283 12.8625 9L16.5922 6.84675L18.2288 8.484L13.8682 10.9943V10.9943Z" fill="black"/>
</svg>
