<svg xmlns="http://www.w3.org/2000/svg" viewBox="0 0 24 24" width="24" height="24">
  <g fill="none" fill-rule="evenodd">
    <circle id="Oval" fill="#3EFFFF" cx="12" cy="12" r="12"></circle>
    <path d="M4.875,7.86525 L12,3.75 L19.125,7.86525 L19.125,16.13475 L12,20.25 L4.875,16.13475 L4.875,7.86525 Z M5.559,15.34275 L8.4165,13.689 L9.86625,11.15025 L5.559,8.658 L5.559,15.34275 Z M5.90175,15.936 L11.67825,19.27275 L11.67825,16.08 L8.64975,14.34525 L5.90175,15.93525 L5.90175,15.936 Z M18.441,8.68125 L14.172,11.151 L15.621,13.6875 L18.441,15.3195 L18.441,8.68125 Z M18.1185,8.07525 L12.36225,4.7505 L12.36225,7.98225 L13.83225,10.5555 L18.1185,8.07525 Z M13.58325,11.4915 L12.70425,12 L14.448,13.00875 L13.58325,11.4915 L13.58325,11.4915 Z M13.2435,10.896 L12.36225,9.351 L12.36225,11.406 L13.2435,10.896 Z M9.5955,13.00725 L11.3355,12 L10.45875,11.493 L9.59625,13.00725 L9.5955,13.00725 Z M9.336,13.94925 L11.67825,15.29025 L11.67825,12.594 L9.336,13.94925 Z M5.901,8.064 L10.206,10.554 L11.67825,7.97775 L11.67825,4.72725 L5.901,8.064 Z M18.1185,15.92475 L15.3915,14.34675 L12.36225,16.1025 L12.36225,19.2495 L18.1185,15.92475 L18.1185,15.92475 Z M14.7075,13.95075 L12.36225,12.594 L12.36225,15.3105 L14.7075,13.95 L14.7075,13.95075 Z M10.7985,10.8975 L11.67825,11.406 L11.67825,9.35475 L10.7985,10.8975 L10.7985,10.8975 Z" id="Shape" fill="#FFFFFF"></path>
  </g>
</svg>
