<svg width="48" height="48" viewBox="0 0 24 24" fill="none" xmlns="http://www.w3.org/2000/svg">
<path d="M12 24C5.37225 24 0 18.6277 0 12C0 5.37225 5.37225 0 12 0C18.6277 0 24 5.37225 24 12C24 18.6277 18.6277 24 12 24ZM10.3275 4.875C10.2116 4.87494 10.0978 4.90576 9.99771 4.96429C9.89766 5.02281 9.81501 5.10694 9.75825 5.208L4.57875 14.4473C4.52423 14.5446 4.4956 14.6544 4.4956 14.766C4.4956 14.8776 4.52423 14.9874 4.57875 15.0848L6.23625 18.0413C6.29285 18.1423 6.37534 18.2265 6.47525 18.2852C6.57516 18.3439 6.68889 18.3748 6.80475 18.375H17.1953C17.3112 18.375 17.4251 18.3441 17.5252 18.2854C17.6252 18.2267 17.7078 18.1425 17.7645 18.0413L19.4213 15.0848C19.4758 14.9874 19.5044 14.8776 19.5044 14.766C19.5044 14.6544 19.4758 14.5446 19.4213 14.4473L14.2418 5.208C14.185 5.10694 14.1023 5.02281 14.0023 4.96429C13.9022 4.90576 13.7884 4.87494 13.6725 4.875H10.3275ZM12 8.55075L15.4897 14.766H8.51025L12 8.55075Z" fill="black"/>
</svg>
