<svg width="24" height="24" viewBox="0 0 24 24" fill="none" xmlns="http://www.w3.org/2000/svg">
<path d="M12 24C18.6274 24 24 18.6274 24 12C24 5.37258 18.6274 0 12 0C5.37258 0 0 5.37258 0 12C0 18.6274 5.37258 24 12 24Z" fill="#3CC8C8"/>
<path d="M11.7938 4.54501C12.153 4.35976 12.5918 4.78801 12.4013 5.14126C12.2895 5.42926 11.8688 5.50576 11.6543 5.28601C11.427 5.07601 11.5013 4.65901 11.7938 4.54426V4.54501ZM7.9275 4.95451C8.14575 4.86601 8.4225 5.06251 8.4 5.29726C8.4225 5.55076 8.1075 5.73826 7.88475 5.61751C7.59 5.50501 7.62375 5.03401 7.9275 4.95451V4.95451ZM15.846 5.62426C15.5048 5.58376 15.4508 5.05576 15.7785 4.94926C16.0335 4.82776 16.2675 5.05651 16.305 5.29426C16.251 5.49676 16.0785 5.68276 15.846 5.62426V5.62426ZM8.80725 6.57301C9.1725 6.34576 9.693 6.68401 9.63675 7.10176C9.618 7.52251 9.0495 7.76701 8.7285 7.48201C8.418 7.25851 8.46525 6.74551 8.80725 6.57301ZM14.3798 6.81451C14.5425 6.40201 15.2025 6.38851 15.3878 6.79051C15.5715 7.10326 15.3458 7.49101 15.0195 7.59751C14.5868 7.67701 14.1765 7.21651 14.3798 6.81451ZM11.328 7.57426C11.3243 7.21876 11.6528 6.95476 11.9955 6.93001C12.2235 6.97501 12.471 7.07026 12.5685 7.29601C12.7508 7.60801 12.5888 8.03626 12.261 8.17951C12.111 8.26201 11.9325 8.23126 11.769 8.22151C11.5193 8.10151 11.3085 7.86376 11.328 7.57426ZM5.5785 8.09176C5.91225 7.88926 6.36225 8.25676 6.2355 8.61376C6.1665 8.92201 5.745 9.04726 5.50425 8.85076C5.247 8.66626 5.2875 8.22301 5.57925 8.09101L5.5785 8.09176ZM17.925 8.09026C18.2078 7.87426 18.675 8.12251 18.6405 8.47351C18.66 8.79376 18.2558 9.03601 17.9753 8.87101C17.6663 8.73376 17.634 8.26576 17.925 8.09101V8.09026ZM12.945 8.72851C13.4115 8.56351 13.9665 8.76076 14.232 9.17101C14.583 9.67126 14.397 10.4333 13.8518 10.7205C13.2878 11.0603 12.4635 10.773 12.2543 10.152C12.018 9.59701 12.363 8.90251 12.9443 8.72851H12.945ZM10.2053 8.78326C10.7228 8.54326 11.4195 8.74426 11.6693 9.26476C11.9633 9.77176 11.736 10.4775 11.2103 10.7393C10.6838 11.034 9.9405 10.8105 9.68625 10.2668C9.4005 9.74026 9.654 9.02551 10.2053 8.78326V8.78326ZM7.4625 9.70501C7.50225 9.37726 7.8165 9.16351 8.13375 9.14101C8.2992 9.15848 8.45383 9.23157 8.57236 9.34832C8.69088 9.46508 8.76629 9.61859 8.78625 9.78376C8.76375 10.1213 8.499 10.4498 8.136 10.4483C7.73625 10.482 7.386 10.0905 7.4625 9.70501V9.70501ZM15.564 9.21301C15.9743 8.97826 16.5435 9.31951 16.5255 9.78301C16.5533 10.2743 15.9233 10.62 15.5153 10.332C15.0908 10.092 15.1238 9.41701 15.564 9.21301ZM9.0915 10.9433C9.57 10.8135 10.119 11.0355 10.3538 11.469C10.611 11.9055 10.506 12.5115 10.1063 12.8325C9.5925 13.302 8.64675 13.113 8.37375 12.4725C8.0595 11.8853 8.44125 11.0978 9.09075 10.9425L9.0915 10.9433ZM14.2868 10.941C14.7525 10.8098 15.3 10.986 15.5505 11.4038C15.882 11.8815 15.7238 12.5948 15.231 12.9023C14.7135 13.26 13.914 13.0725 13.629 12.513C13.284 11.9348 13.6313 11.1173 14.2868 10.941V10.941ZM6.00675 11.4855C6.42075 11.3318 6.87975 11.781 6.71175 12.1853C6.60975 12.5528 6.0825 12.6893 5.81025 12.4178C5.4915 12.1628 5.60925 11.5965 6.00675 11.4855V11.4855ZM17.2335 12.072C17.2257 11.9069 17.2835 11.7454 17.3941 11.6227C17.5048 11.4999 17.6595 11.4258 17.8245 11.4165C18.108 11.4615 18.384 11.6865 18.3615 11.9903C18.3878 12.3915 17.8965 12.6638 17.5485 12.4755C17.3858 12.3938 17.3025 12.2295 17.2335 12.072ZM3.9705 11.685C4.2195 11.5778 4.52775 11.79 4.47075 12.0623C4.45725 12.3705 3.9945 12.4898 3.825 12.2318C3.675 12.0525 3.765 11.7773 3.9705 11.6843V11.685ZM19.6823 11.6783C19.8578 11.556 20.1398 11.6438 20.2088 11.8455C20.3265 12.066 20.1105 12.3675 19.8585 12.3308C19.5045 12.3623 19.3905 11.832 19.6823 11.6783ZM10.4445 13.158C11.1 12.9908 11.805 13.5285 11.8095 14.193C11.8515 14.8643 11.157 15.459 10.4865 15.3045C9.9675 15.222 9.56025 14.73 9.5775 14.2148C9.576 13.7213 9.954 13.2623 10.4445 13.158V13.158ZM13.041 13.1573C13.7063 12.9743 14.4323 13.5218 14.4218 14.2013C14.457 14.8598 13.7843 15.435 13.1273 15.3038C12.5085 15.2258 12.0525 14.5575 12.225 13.9665C12.312 13.5735 12.6465 13.254 13.041 13.1565V13.1573ZM8.034 13.566C8.4945 13.4888 8.9265 13.9935 8.73975 14.424C8.60325 14.883 7.92525 15.0068 7.62525 14.6325C7.27425 14.2725 7.53675 13.6155 8.034 13.566V13.566ZM15.6495 13.5863C16.0605 13.4168 16.5645 13.7663 16.533 14.205C16.5495 14.6873 15.927 15.0203 15.5258 14.7383C15.0705 14.4855 15.1538 13.7408 15.6495 13.5863V13.5863ZM17.778 15.6863C17.6175 15.3915 17.9093 15.0008 18.243 15.0555C18.408 15.0525 18.5243 15.1808 18.63 15.2888C18.6518 15.4635 18.6885 15.672 18.5408 15.8063C18.3405 16.056 17.8868 15.9848 17.778 15.6863V15.6863ZM5.577 15.1373C5.88825 14.934 6.336 15.2378 6.2655 15.5948C6.228 15.912 5.823 16.0928 5.55675 15.9128C5.27025 15.75 5.28075 15.2858 5.577 15.1373V15.1373ZM11.7218 15.7995C12.129 15.6233 12.648 15.972 12.609 16.413C12.639 16.9005 11.9978 17.238 11.5995 16.9455C11.157 16.6943 11.2313 15.9548 11.7218 15.7995V15.7995ZM8.87625 16.4528C9.22275 16.2735 9.68775 16.5833 9.65625 16.9658C9.66675 17.2793 9.35625 17.5463 9.04125 17.4998C8.781 17.4945 8.6115 17.2643 8.5275 17.046C8.532 16.8083 8.63175 16.5435 8.87625 16.4535V16.4528ZM14.6408 16.4588C14.9978 16.2413 15.5048 16.5533 15.471 16.9613C15.48 17.3888 14.907 17.6618 14.5748 17.3813C14.2538 17.1615 14.2928 16.6335 14.6408 16.4588ZM15.6435 18.8963C15.4845 18.6608 15.6713 18.3765 15.9285 18.3225C16.1363 18.3638 16.356 18.5175 16.3118 18.753C16.2818 19.0733 15.8063 19.1708 15.6435 18.897V18.8963ZM7.68525 18.6915C7.74825 18.504 7.90125 18.3188 8.1255 18.3675C8.45175 18.39 8.5485 18.8745 8.26275 19.0238C8.00625 19.194 7.70775 18.9608 7.68525 18.6915ZM11.5253 18.9068C11.5875 18.6293 11.9513 18.495 12.1913 18.642C12.3503 18.7095 12.3968 18.8835 12.4373 19.032C12.4158 19.1091 12.3958 19.1867 12.3773 19.2645C12.279 19.3785 12.1523 19.4933 11.9888 19.4895C11.685 19.5248 11.4105 19.1865 11.5245 18.9068H11.5253Z" fill="white"/>
</svg>
