<svg width="48" height="48" viewBox="0 0 24 24" fill="none" xmlns="http://www.w3.org/2000/svg">
<path d="M12 24C5.37225 24 0 18.6277 0 12C0 5.37225 5.37225 0 12 0C18.6277 0 24 5.37225 24 12C24 18.6277 18.6277 24 12 24ZM18.738 13.2233H15.042L14.382 11.2433H18.732C18.8808 11.2433 19.0235 11.1841 19.1287 11.0789C19.2339 10.9737 19.293 10.831 19.293 10.6823C19.293 10.5335 19.2339 10.3908 19.1287 10.2856C19.0235 10.1804 18.8808 10.1212 18.732 10.1212H14.025L12.1373 4.3665C12.1133 4.17637 12.0224 4.00101 11.8808 3.8719C11.7392 3.74279 11.5562 3.66839 11.3646 3.66207C11.1731 3.65575 10.9856 3.71791 10.8358 3.8374C10.686 3.95688 10.5837 4.12587 10.5472 4.314L6.03225 18.0413C6.02025 18.1163 6.02025 18.1912 6.03225 18.2662C6.03538 18.4492 6.10446 18.6248 6.22678 18.7608C6.3491 18.8968 6.51643 18.9841 6.69798 19.0065C6.87952 19.029 7.06307 18.9851 7.21485 18.883C7.36662 18.7809 7.47641 18.6274 7.524 18.4507L11.3123 6.90075L12.3945 10.1212H11.457C11.3082 10.1212 11.1655 10.1804 11.0603 10.2856C10.9551 10.3908 10.896 10.5335 10.896 10.6823C10.896 10.831 10.9551 10.9737 11.0603 11.0789C11.1655 11.1841 11.3082 11.2433 11.457 11.2433H12.777L13.437 13.2233H11.457C11.3833 13.2233 11.3104 13.2378 11.2423 13.266C11.1743 13.2941 11.1124 13.3355 11.0603 13.3876C11.0082 13.4397 10.9669 13.5015 10.9387 13.5696C10.9105 13.6376 10.896 13.7106 10.896 13.7842C10.896 13.8579 10.9105 13.9309 10.9387 13.9989C10.9669 14.067 11.0082 14.1288 11.0603 14.1809C11.1124 14.233 11.1743 14.2744 11.2423 14.3025C11.3104 14.3307 11.3833 14.3453 11.457 14.3453H13.827L14.8958 17.5132H9.2265C9.01645 17.5132 8.815 17.5967 8.66647 17.7452C8.51794 17.8938 8.4345 18.0952 8.4345 18.3052C8.4345 18.5153 8.51794 18.7168 8.66647 18.8653C8.815 19.0138 9.01645 19.0972 9.2265 19.0972H15.9323C16.3478 19.0972 16.6845 18.7605 16.6845 18.345C16.6849 18.231 16.6601 18.1183 16.6118 18.015L15.4042 14.3453H18.7042C18.7779 14.3453 18.8509 14.3307 18.9189 14.3025C18.987 14.2744 19.0488 14.233 19.1009 14.1809C19.153 14.1288 19.1944 14.067 19.2225 13.9989C19.2507 13.9309 19.2653 13.8579 19.2653 13.7842C19.2653 13.7106 19.2507 13.6376 19.2225 13.5696C19.1944 13.5015 19.153 13.4397 19.1009 13.3876C19.0488 13.3355 18.987 13.2941 18.9189 13.266C18.8509 13.2378 18.7779 13.2233 18.7042 13.2233H18.7372H18.738Z" fill="black"/>
</svg>
