<svg width="48" height="48" viewBox="0 0 24 24" fill="none" xmlns="http://www.w3.org/2000/svg">
<path fill-rule="evenodd" clip-rule="evenodd" d="M12 24C5.37225 24 0 18.6277 0 12C0 5.37225 5.37225 0 12 0C18.6277 0 24 5.37225 24 12C24 18.6277 18.6277 24 12 24ZM8.69025 6.4515L6.75 8.52L10.02 11.9805L6.75 15.51L8.69025 17.5477L12 14.094L15.2288 17.547L17.25 15.4523L13.953 11.9992L17.25 8.52L15.2288 6.45225L12 9.906L8.69025 6.4515ZM8.9565 6.1695L10.551 7.86825L11.9865 6.28275L13.422 7.86825L15.0165 6.1695L11.9865 3L8.9565 6.1695V6.1695ZM8.9565 17.8305L11.9865 21L15.0165 17.8305L13.422 16.1318L11.9865 17.7172L10.551 16.1318L8.9565 17.8305V17.8305Z" fill="black"/>
</svg>
