<svg width="24" height="24" viewBox="0 0 24 24" fill="none" xmlns="http://www.w3.org/2000/svg">
<path d="M12 24C18.6274 24 24 18.6274 24 12C24 5.37258 18.6274 0 12 0C5.37258 0 0 5.37258 0 12C0 18.6274 5.37258 24 12 24Z" fill="#00BFEC"/>
<path d="M11.9783 17.3625C9.0105 17.3625 6.59625 14.9633 6.59625 12.015C6.59625 9.066 9.01125 6.6675 11.9783 6.6675C14.946 6.6675 17.3603 9.066 17.3603 12.015C17.3603 14.9633 14.946 17.3625 11.9783 17.3625V17.3625ZM11.9783 7.7145C9.5925 7.7145 7.65075 9.6435 7.65075 12.015C7.65075 14.3858 9.5925 16.3148 11.9783 16.3148C14.3648 16.3148 16.3058 14.3858 16.3058 12.015C16.3058 9.6435 14.3648 7.7145 11.9783 7.7145V7.7145ZM15.747 5.90325C14.6116 5.2119 13.3076 4.84703 11.9783 4.84875C10.7546 4.84824 9.55078 5.15733 8.47875 5.74725L7.96575 4.83225C9.19471 4.1551 10.5751 3.80007 11.9783 3.80025C13.5083 3.80025 15.0023 4.21875 16.299 5.01075L15.747 5.90325V5.90325ZM17.3183 18.2858L16.6365 17.4855C17.4359 16.8156 18.0789 15.9786 18.5201 15.0335C18.9613 14.0884 19.19 13.058 19.1903 12.015H20.2448C20.2448 14.4345 19.1783 16.7197 17.3183 18.285V18.2858ZM11.9783 20.2283C10.0605 20.2283 8.1915 19.5607 6.71625 18.3495L7.38825 17.5425C8.68331 18.602 10.305 19.181 11.9783 19.1813C13.1483 19.1813 14.2643 18.9113 15.2948 18.3803L15.78 19.3103C14.6036 19.9139 13.3005 20.2288 11.9783 20.229V20.2283Z" fill="white"/>
<path opacity="0.5" d="M19.0125 10.0688C18.7368 9.07978 18.2519 8.16157 17.5905 7.37625L18.2655 6.81675C19.0069 7.69719 19.5504 8.72669 19.8593 9.8355L19.0133 10.0688H19.0125ZM5.145 16.482C4.26604 15.1582 3.79817 13.604 3.80025 12.015C3.80025 9.7935 4.68525 7.719 6.2925 6.17325L6.903 6.801C6.19744 7.47337 5.6363 8.28248 5.25384 9.17893C4.87138 10.0754 4.67562 11.0404 4.6785 12.015C4.6785 13.4393 5.094 14.8178 5.8785 16.002L5.145 16.482V16.482Z" fill="white"/>
</svg>
