<svg width="24" height="24" viewBox="0 0 24 24" fill="none" xmlns="http://www.w3.org/2000/svg">
<path d="M12 24C18.6274 24 24 18.6274 24 12C24 5.37258 18.6274 0 12 0C5.37258 0 0 5.37258 0 12C0 18.6274 5.37258 24 12 24Z" fill="#2DAEE4"/>
<path fill-rule="evenodd" clip-rule="evenodd" d="M6.22725 8.96775H6.30975C7.032 8.95425 7.65975 8.68125 8.19225 8.1495C8.70975 7.59 8.96925 6.94875 8.96925 6.22575C8.96925 5.8575 9.102 5.54025 9.36825 5.274C9.49443 5.14464 9.64577 5.04249 9.81294 4.97387C9.98011 4.90525 10.1596 4.8716 10.3402 4.875C10.7077 4.875 11.0257 5.00775 11.2912 5.274C11.5575 5.54025 11.6902 5.8575 11.6902 6.22575C11.6902 6.59325 11.5642 6.91125 11.3122 7.1775C11.1964 7.30493 11.0561 7.40773 10.8997 7.47976C10.7432 7.55179 10.5739 7.59158 10.4017 7.59675C9.624 7.569 8.95575 7.83525 8.39625 8.39475C7.83675 8.95425 7.57125 9.609 7.59825 10.3597C7.62525 11.1367 7.90575 11.7847 8.4375 12.303C9.024 12.8212 9.67875 13.074 10.4017 13.0605C10.5739 13.0658 10.7433 13.1057 10.8997 13.1778C11.0562 13.25 11.1965 13.3529 11.3122 13.4805C11.5642 13.746 11.6902 14.0565 11.6902 14.4105C11.6902 14.793 11.5575 15.117 11.2912 15.3832C11.1684 15.5112 11.0206 15.6125 10.857 15.6812C10.6935 15.7498 10.5176 15.7842 10.3402 15.7822C9.95775 15.7822 9.6345 15.6487 9.36825 15.3832C9.23888 15.2571 9.13674 15.1057 9.06812 14.9386C8.99949 14.7714 8.96585 14.5919 8.96925 14.4113C8.97503 14.061 8.909 13.7133 8.77524 13.3895C8.64148 13.0657 8.44281 12.7728 8.1915 12.5287C7.94878 12.2713 7.65745 12.0645 7.33433 11.9203C7.01121 11.7761 6.66272 11.6974 6.309 11.6888C6.05025 11.703 5.829 11.6617 5.6445 11.5665C5.46325 11.4736 5.30845 11.3363 5.1945 11.1675C5.07699 10.9938 4.99351 10.7993 4.9485 10.5945C4.90133 10.39 4.89116 10.1786 4.9185 9.9705C5.0955 9.30225 5.532 8.96775 6.22725 8.96775V8.96775ZM6.246 13.0605C6.60075 13.0605 6.91125 13.1903 7.17675 13.4498C7.443 13.7085 7.5825 14.016 7.59675 14.3707C7.5825 15.1207 7.842 15.7755 8.37375 16.335C8.90625 16.8803 9.54675 17.1533 10.2975 17.1533H10.359C11.0955 17.1533 11.7292 16.8803 12.2617 16.335C12.807 15.789 13.0732 15.135 13.0597 14.37C13.0587 14.0121 12.9836 13.6583 12.8392 13.3308C12.6948 13.0034 12.4841 12.7093 12.2205 12.4672C11.682 11.955 11.0557 11.6955 10.3402 11.6895H10.2562C10.0841 11.6843 9.91477 11.6445 9.75834 11.5725C9.60191 11.5005 9.46159 11.3977 9.34575 11.2703C9.22307 11.1444 9.12645 10.9955 9.06146 10.8321C8.99646 10.6688 8.96436 10.4943 8.967 10.3185C8.967 9.951 9.1005 9.633 9.366 9.36675C9.59175 9.14175 9.8595 9.01125 10.1685 8.97675L10.2585 8.96775L10.293 8.9685C10.3287 8.96755 10.3645 8.9678 10.4002 8.96925C11.1052 8.96025 11.7187 8.694 12.243 8.16975C12.8025 7.61025 13.0755 6.94875 13.0612 6.1845C13.0612 5.8845 13.164 5.6115 13.3687 5.36625L13.389 5.346L13.4092 5.325C13.4092 5.3115 13.4167 5.30475 13.4295 5.30475L13.4505 5.2845V5.26425H13.4707V5.2425C13.4842 5.2425 13.491 5.23575 13.491 5.22225L13.5112 5.202H13.5525C13.5525 5.18775 13.56 5.181 13.5727 5.181L13.5937 5.16075V5.1405H13.6342C13.6342 5.12625 13.6417 5.1195 13.6545 5.1195L13.6755 5.09925L13.6957 5.079H13.716C13.716 5.0655 13.7235 5.05875 13.737 5.05875C13.7505 5.05875 13.7572 5.05125 13.7572 5.03775H13.7775L13.7977 5.0175H13.839V4.99725H13.8592L13.8802 4.97625H13.9207V4.9575H13.962L13.9822 4.93725H14.0235L14.0437 4.917H14.1052L14.1255 4.896H14.187C14.2005 4.896 14.2072 4.88925 14.2072 4.87575H14.637L14.6475 4.88625C14.6542 4.893 14.664 4.896 14.6775 4.896H14.7187L14.7292 4.9065C14.736 4.91325 14.7457 4.917 14.7592 4.917H14.8005L14.8207 4.93725H14.862L14.8822 4.9575H14.9235C14.937 4.971 14.9505 4.97775 14.964 4.97775L14.985 4.99875H15.0255V5.019H15.0465L15.0667 5.03925L15.0765 5.04975C15.084 5.05725 15.0937 5.06025 15.1072 5.06025L15.1282 5.0805H15.1485C15.1485 5.094 15.162 5.10075 15.189 5.10075L15.21 5.121V5.142H15.2302C15.2302 5.1555 15.2437 5.16225 15.2715 5.16225C15.2715 5.17575 15.2782 5.1825 15.2917 5.1825V5.2035H15.312L15.333 5.22375C15.3465 5.23725 15.36 5.244 15.3735 5.244L15.3937 5.265C15.3937 5.2785 15.4012 5.28525 15.4147 5.28525V5.3055H15.435C15.435 5.319 15.4387 5.3295 15.4455 5.3355L15.4552 5.34675C15.4552 5.36025 15.4627 5.367 15.4762 5.367L15.4965 5.38725C15.4965 5.40075 15.4995 5.41125 15.5062 5.418L15.5167 5.4285L15.537 5.44875L15.558 5.469V5.51025L15.5782 5.5305V5.55H15.5985C15.5985 5.56425 15.6022 5.574 15.609 5.58075L15.6187 5.59125C15.6187 5.60475 15.6262 5.6115 15.6397 5.6115V5.6325C15.6397 5.646 15.6427 5.65575 15.6495 5.6625L15.66 5.673L15.6802 5.69325C15.6802 5.721 15.6877 5.7345 15.7012 5.7345V5.75475C15.7012 5.769 15.7042 5.77875 15.711 5.7855L15.7215 5.796V5.8365L15.7417 5.8575V5.919C15.7552 5.9325 15.762 5.946 15.762 5.9595V6.021C15.7762 6.0345 15.783 6.048 15.783 6.06225V6.225C15.783 6.948 16.0417 7.58925 16.56 8.14875C17.0925 8.6805 17.727 8.9535 18.4635 8.967C18.831 8.9535 19.1587 9.0795 19.446 9.34575C19.7317 9.61125 19.875 9.93525 19.875 10.3177C19.875 10.6995 19.7422 11.0228 19.476 11.2898C19.353 11.4178 19.2051 11.5192 19.0414 11.5878C18.8778 11.6564 18.7017 11.6908 18.5242 11.6888C18.3486 11.6913 18.1742 11.6591 18.011 11.5941C17.8478 11.5292 17.6991 11.4326 17.5732 11.31C17.4441 11.191 17.3404 11.0472 17.2682 10.8871C17.1961 10.727 17.157 10.554 17.1532 10.3785C17.1675 9.6285 16.8945 8.967 16.3357 8.394C15.7897 7.848 15.1282 7.5825 14.3505 7.596C13.9968 7.60459 13.6484 7.68318 13.3253 7.82723C13.0021 7.97128 12.7108 8.17793 12.468 8.43525C12.2166 8.67926 12.018 8.97219 11.8842 9.29596C11.7504 9.61974 11.6844 9.96748 11.6902 10.3177L11.6895 10.3807C11.7045 11.0782 11.9632 11.6985 12.4665 12.2407C12.9982 12.7732 13.6327 13.0463 14.3692 13.0598C14.8597 13.0328 15.2355 13.2097 15.4942 13.5922C15.7537 13.9597 15.8355 14.3497 15.7402 14.7585C15.549 15.441 15.1125 15.7815 14.4307 15.7815H14.3692C13.605 15.8085 12.9705 16.089 12.4665 16.6207C11.9475 17.139 11.6887 17.7735 11.6887 18.5235C11.6887 18.8917 11.556 19.209 11.2897 19.4752C11.1668 19.6033 11.0189 19.7047 10.8552 19.7733C10.6915 19.8419 10.5155 19.8763 10.338 19.8743H10.2975C9.92925 19.8743 9.615 19.7415 9.35625 19.4752C9.23082 19.3508 9.13171 19.2025 9.06484 19.039C8.99797 18.8754 8.96469 18.7001 8.967 18.5235C8.967 17.7735 8.70825 17.139 8.19 16.6207C7.94722 16.3634 7.65585 16.1568 7.33274 16.0127C7.00962 15.8687 6.66117 15.7901 6.3075 15.7815C6.12171 15.7919 5.9358 15.7635 5.76151 15.6983C5.58723 15.6332 5.42838 15.5325 5.295 15.4028C5.15884 15.2764 5.05101 15.1227 4.97862 14.9517C4.90622 14.7806 4.87091 14.5962 4.875 14.4105C4.875 14.0423 5.00775 13.725 5.274 13.4587C5.40018 13.3294 5.55152 13.2272 5.71869 13.1586C5.88586 13.09 6.06532 13.0563 6.246 13.0598V13.0605Z" fill="white"/>
</svg>
