<svg width="48" height="48" viewBox="0 0 24 24" fill="none" xmlns="http://www.w3.org/2000/svg">
<path fill-rule="evenodd" clip-rule="evenodd" d="M12 24C5.37225 24 0 18.6277 0 12C0 5.37225 5.37225 0 12 0C18.6277 0 24 5.37225 24 12C24 18.6277 18.6277 24 12 24ZM6.22725 8.96775C5.532 8.96775 5.09475 9.30225 4.91775 9.9705C4.89075 10.1752 4.9005 10.383 4.9485 10.5945C4.9965 10.806 5.07825 10.9973 5.19375 11.1675C5.31 11.3378 5.46 11.4712 5.64375 11.5665C5.82825 11.6617 6.05025 11.703 6.309 11.6895C6.66261 11.698 7.01104 11.7765 7.33415 11.9204C7.65726 12.0643 7.94866 12.2708 8.1915 12.528C8.44282 12.772 8.64148 13.065 8.77524 13.3887C8.90901 13.7125 8.97503 14.0602 8.96925 14.4105C8.96925 14.793 9.102 15.117 9.36825 15.3832C9.6345 15.6487 9.9585 15.7822 10.3402 15.7822C10.7077 15.7822 11.0258 15.6487 11.2913 15.3832C11.5575 15.117 11.6902 14.793 11.6902 14.4113C11.6915 14.2388 11.6588 14.0677 11.594 13.9079C11.5291 13.748 11.4334 13.6026 11.3123 13.4797C11.1965 13.3522 11.0562 13.2492 10.8997 13.1771C10.7433 13.1049 10.5739 13.065 10.4018 13.0598C9.67875 13.074 9.024 12.8212 8.43675 12.303C7.905 11.7855 7.62525 11.1368 7.59825 10.359C7.57125 9.609 7.83675 8.95425 8.39625 8.394C8.95575 7.83525 9.624 7.569 10.4018 7.59675C10.5739 7.59148 10.7433 7.55158 10.8997 7.47942C11.0562 7.40726 11.1965 7.30432 11.3123 7.17675C11.4347 7.05089 11.5311 6.9021 11.596 6.73891C11.6609 6.57572 11.6929 6.40134 11.6902 6.22575C11.6902 5.8575 11.5575 5.54025 11.2913 5.274C11.1684 5.14609 11.0206 5.0447 10.857 4.97608C10.6935 4.90746 10.5176 4.87306 10.3402 4.875C9.95775 4.875 9.6345 5.00775 9.36825 5.274C9.24025 5.39696 9.1388 5.54486 9.07018 5.70855C9.00155 5.87224 8.9672 6.04827 8.96925 6.22575C8.96925 6.94875 8.70975 7.59 8.1915 8.1495C7.659 8.68125 7.032 8.95425 6.309 8.96775H6.22725V8.96775ZM6.246 13.0605C5.8635 13.0605 5.54025 13.194 5.274 13.4595C5.146 13.5825 5.04455 13.7304 4.97593 13.8941C4.9073 14.0577 4.87295 14.2338 4.875 14.4113C4.875 14.8073 5.0145 15.138 5.295 15.4035C5.4283 15.5334 5.58714 15.6341 5.76144 15.6993C5.93574 15.7645 6.1217 15.7927 6.3075 15.7822C6.66117 15.7908 7.00963 15.8694 7.33274 16.0135C7.65586 16.1575 7.94722 16.3642 8.19 16.6215C8.7075 17.1398 8.967 17.7742 8.967 18.5242C8.967 18.8925 9.09675 19.2098 9.35625 19.476C9.615 19.7423 9.92925 19.875 10.2975 19.875H10.338C10.7063 19.875 11.0235 19.7423 11.2898 19.476C11.556 19.2098 11.6888 18.8925 11.6888 18.5242C11.6888 17.7742 11.9475 17.1398 12.4665 16.6215C12.9705 16.089 13.605 15.8092 14.3693 15.7822H14.4307C15.1125 15.7822 15.5482 15.441 15.7402 14.7593C15.8355 14.3498 15.7538 13.9613 15.4943 13.593C15.2355 13.2105 14.8598 13.0335 14.3693 13.0605C13.6328 13.047 12.9982 12.774 12.4665 12.2422C11.9632 11.6992 11.7038 11.079 11.6895 10.3823L11.6902 10.3185C11.6902 9.58125 11.9498 8.9535 12.468 8.436C12.7107 8.17855 13.0021 7.97175 13.3252 7.82757C13.6483 7.68339 13.9968 7.60469 14.3505 7.596C15.1283 7.58325 15.7898 7.84875 16.335 8.39475C16.8945 8.96775 17.1675 9.62925 17.154 10.3792C17.1675 10.7482 17.307 11.058 17.5732 11.3108C17.6991 11.4333 17.8478 11.5299 18.011 11.5949C18.1742 11.6599 18.3486 11.692 18.5242 11.6895C18.8932 11.6895 19.2097 11.556 19.4767 11.2905C19.7422 11.0242 19.875 10.7003 19.875 10.3185C19.875 9.936 19.7325 9.612 19.4453 9.3465C19.1588 9.08025 18.8318 8.95425 18.4628 8.96775C17.727 8.95425 17.0925 8.68125 16.56 8.1495C16.0425 7.59 15.783 6.94875 15.783 6.22575V6.06225C15.783 6.048 15.7755 6.0345 15.762 6.021V5.9595C15.762 5.946 15.7553 5.9325 15.7418 5.919V5.8575L15.7215 5.8365V5.796L15.711 5.7855C15.7042 5.77875 15.7012 5.769 15.7012 5.7555V5.7345C15.687 5.7345 15.6802 5.721 15.6802 5.69325L15.66 5.673L15.6495 5.6625C15.6427 5.65575 15.6398 5.646 15.6398 5.6325V5.6115C15.6263 5.6115 15.6188 5.60475 15.6188 5.59125L15.609 5.58075C15.6015 5.574 15.5985 5.56425 15.5985 5.55075H15.5782V5.52975L15.558 5.5095V5.4675L15.537 5.44725L15.5167 5.427L15.5062 5.4165C15.4995 5.40975 15.4965 5.39925 15.4965 5.3865L15.4763 5.3655C15.462 5.3655 15.4553 5.358 15.4553 5.34525L15.4455 5.33475C15.438 5.32725 15.435 5.3175 15.435 5.304H15.4147V5.28375C15.4005 5.28375 15.3937 5.27625 15.3937 5.2635L15.3735 5.2425C15.36 5.2425 15.3465 5.23575 15.333 5.22225L15.312 5.202H15.2917V5.181C15.2782 5.181 15.2715 5.17425 15.2715 5.16075C15.2437 5.16075 15.2302 5.15325 15.2302 5.1405H15.21V5.1195L15.189 5.09925C15.162 5.09925 15.1485 5.0925 15.1485 5.079H15.1282L15.1072 5.05875C15.0937 5.05875 15.084 5.055 15.0773 5.04825C15.0738 5.04474 15.0703 5.04124 15.0668 5.03775L15.0465 5.0175H15.0255V4.99725H14.985L14.964 4.97625C14.9505 4.97625 14.937 4.9695 14.9235 4.956H14.8823L14.862 4.93575H14.8207L14.8005 4.9155H14.76C14.7458 4.9155 14.736 4.91175 14.7292 4.905L14.7188 4.8945H14.6782C14.664 4.8945 14.6543 4.8915 14.6475 4.88475L14.637 4.87425H14.2073C14.2073 4.88775 14.2005 4.8945 14.187 4.8945H14.1255L14.1052 4.9155H14.0438L14.0235 4.93575H13.9822L13.962 4.956H13.9208V4.97625H13.8802L13.8593 4.99725H13.839V5.0175H13.7977L13.7775 5.03775H13.7573C13.7573 5.052 13.7497 5.05875 13.737 5.05875C13.7227 5.05875 13.716 5.0655 13.716 5.079H13.6957L13.6755 5.09925L13.6545 5.1195C13.641 5.1195 13.6343 5.127 13.6343 5.1405H13.5938V5.16075L13.5728 5.181C13.5593 5.181 13.5525 5.1885 13.5525 5.202H13.5112L13.491 5.22225C13.491 5.23575 13.4843 5.2425 13.4708 5.2425V5.2635H13.4505V5.28375L13.4295 5.304C13.416 5.304 13.4092 5.3115 13.4092 5.32425L13.389 5.34525L13.368 5.3655C13.1706 5.59244 13.0617 5.88297 13.0613 6.18375C13.0748 6.948 12.8025 7.6095 12.243 8.169C11.718 8.69325 11.1045 8.9595 10.4002 8.9685C10.3645 8.96726 10.3287 8.96726 10.293 8.9685L10.2585 8.967C10.2285 8.96925 10.1985 8.97225 10.1685 8.97675C9.86359 9.0088 9.5796 9.14682 9.366 9.36675C9.23809 9.48963 9.1367 9.6374 9.06808 9.80096C8.99946 9.96451 8.96506 10.1404 8.967 10.3177C8.967 10.686 9.09375 11.0033 9.34575 11.2695C9.4691 11.4051 9.62008 11.5127 9.78853 11.585C9.95698 11.6573 10.139 11.6927 10.3222 11.6888H10.3402C11.0557 11.6948 11.6828 11.9542 12.2205 12.4665C12.4842 12.7087 12.6949 13.0028 12.8393 13.3304C12.9838 13.658 13.0588 14.012 13.0598 14.37C13.0733 15.1335 12.807 15.7882 12.2618 16.3342C11.7293 16.8795 11.0955 17.1525 10.359 17.1525H10.2975C9.5475 17.1525 8.9055 16.8795 8.37375 16.3342C7.84125 15.7747 7.5825 15.12 7.59675 14.3693C7.59081 14.1958 7.55065 14.0251 7.47857 13.8672C7.40649 13.7093 7.30392 13.5672 7.17675 13.449C7.05564 13.325 6.91083 13.2267 6.75093 13.1598C6.59103 13.0929 6.41932 13.0589 6.246 13.0598V13.0605Z" fill="black"/>
</svg>
