<svg width="48" height="48" viewBox="0 0 24 24" fill="none" xmlns="http://www.w3.org/2000/svg">
<path fill-rule="evenodd" clip-rule="evenodd" d="M12 24C5.37225 24 0 18.6277 0 12C0 5.37225 5.37225 0 12 0C18.6277 0 24 5.37225 24 12C24 18.6277 18.6277 24 12 24ZM4.5 14.4375V17.625L12 8.0625L19.5 17.625V14.4375L12 4.875L4.5 14.4375ZM12.375 15.375C12.8723 15.375 13.3492 15.1775 13.7008 14.8258C14.0525 14.4742 14.25 13.9973 14.25 13.5C14.25 13.0027 14.0525 12.5258 13.7008 12.1742C13.3492 11.8225 12.8723 11.625 12.375 11.625C11.8777 11.625 11.4008 11.8225 11.0492 12.1742C10.6975 12.5258 10.5 13.0027 10.5 13.5C10.5 13.9973 10.6975 14.4742 11.0492 14.8258C11.4008 15.1775 11.8777 15.375 12.375 15.375V15.375Z" fill="black"/>
</svg>
