<svg width="24" height="24" viewBox="0 0 24 24" fill="none" xmlns="http://www.w3.org/2000/svg">
<path d="M12 24C18.6274 24 24 18.6274 24 12C24 5.37258 18.6274 0 12 0C5.37258 0 0 5.37258 0 12C0 18.6274 5.37258 24 12 24Z" fill="#FD875E"/>
<path d="M10.245 13.0395L12.0345 7.7055L13.857 13.0395H10.245ZM17.829 16.4123L16.3492 12.4305H17.2327C17.4001 12.4307 17.5608 12.3651 17.6801 12.2477C17.7994 12.1304 17.8677 11.9708 17.8702 11.8035C17.8702 11.646 17.8058 11.4938 17.6925 11.3828C17.5793 11.2718 17.424 11.208 17.2628 11.208H15.8828L15.6615 10.5885H17.2327C17.3965 10.59 17.5543 10.5276 17.6728 10.4146C17.7913 10.3016 17.861 10.1469 17.8672 9.98325C17.868 9.81675 17.8013 9.65775 17.6813 9.54075C17.5613 9.42375 17.3992 9.35775 17.2297 9.3585H15.1898L14.085 6.3825C13.9187 5.95553 13.6458 5.57829 13.2922 5.28675C12.9397 5.00382 12.4967 4.85785 12.045 4.87575C11.5919 4.86112 11.1482 5.00664 10.7917 5.28675C10.4383 5.57856 10.1648 5.95533 9.99675 6.38175L8.8395 9.38475H6.8115C6.65115 9.38335 6.49675 9.4454 6.38196 9.55737C6.26717 9.66935 6.20132 9.82217 6.19875 9.9825C6.19875 10.326 6.483 10.6043 6.834 10.6043H8.37375L8.13675 11.2073H6.75675C6.67707 11.2064 6.59799 11.2212 6.52404 11.2508C6.45008 11.2805 6.3827 11.3245 6.32573 11.3802C6.26876 11.4359 6.22332 11.5023 6.19201 11.5756C6.1607 11.6488 6.14413 11.7276 6.14325 11.8073C6.14325 12.1478 6.42375 12.423 6.77025 12.4245H7.656L6.1515 16.4115C6.05925 16.6365 6.00825 16.875 6 17.1173C6.015 17.457 6.1665 17.7773 6.42 18.0098C6.69825 18.2468 7.05525 18.375 7.425 18.372C7.73212 18.3905 8.03637 18.3036 8.28734 18.1256C8.53831 17.9476 8.72095 17.6892 8.805 17.3933L9.387 15.6915H14.745L15.3278 17.4338C15.4223 17.7197 15.6091 17.9662 15.8589 18.1345C16.1086 18.3028 16.4072 18.3835 16.7078 18.3638C16.9403 18.369 17.169 18.3113 17.3707 18.1988C17.5455 18.0713 17.7007 17.9213 17.8312 17.7503C17.9452 17.5583 18.0037 17.3393 18 17.1173C17.9635 16.8809 17.9062 16.6483 17.829 16.422V16.4123Z" fill="#FEFEFE"/>
</svg>
