<svg width="48" height="48" viewBox="0 0 24 24" fill="none" xmlns="http://www.w3.org/2000/svg">
<path d="M12 24C5.37225 24 0 18.6277 0 12C0 5.37225 5.37225 0 12 0C18.6277 0 24 5.37225 24 12C24 18.6277 18.6277 24 12 24ZM8.06625 3.9345L8.07375 3.92625C6.16848 4.86716 4.65962 6.45457 3.81652 8.40509C2.97342 10.3556 2.85096 12.5423 3.471 14.5748C3.82978 15.8068 4.47044 16.9384 5.34225 17.88C5.9475 16.5503 6.41775 15.165 6.975 13.8262L8.64 9.60525C8.9025 8.96025 9.1095 8.27475 9.5715 7.7415C10.0575 7.176 10.806 6.92925 11.523 6.849C12.4175 6.72164 13.3296 6.86313 14.1435 7.2555C14.7247 7.57425 15.099 8.163 15.3218 8.7765L17.6318 14.8298C18.0143 15.8333 18.3562 16.8525 18.8025 17.8245C20.1594 16.2623 20.9331 14.2783 20.9923 12.21C21.0514 10.1417 20.3921 8.11673 19.1267 6.4796C17.8613 4.84247 16.0678 3.69425 14.0514 3.23025C12.0349 2.76624 9.91994 3.0151 8.06625 3.9345V3.9345ZM11.3955 10.035C10.2405 12.9263 9.11775 15.825 7.971 18.7162C7.836 19.0507 7.65225 19.3778 7.6125 19.7438C8.0025 20.0228 8.4645 20.1817 8.91 20.3655C10.104 20.8115 11.3793 20.9981 12.651 20.9129C13.9227 20.8276 15.1617 20.4726 16.2855 19.8713C16.368 19.8248 16.443 19.7655 16.509 19.6965C16.4287 19.29 16.23 18.9158 16.0942 18.5258C15.0667 15.8093 14.0475 13.0852 13.0118 10.3777C12.909 10.1227 12.8288 9.83625 12.6068 9.669C12.192 9.39825 11.5545 9.55725 11.3955 10.035V10.035Z" fill="black"/>
</svg>
