<svg width="48" height="48" viewBox="0 0 24 24" fill="none" xmlns="http://www.w3.org/2000/svg">
<path d="M8.82 10.5765C8.93256 10.7123 8.99196 10.8844 8.98713 11.0607C8.9823 11.237 8.91358 11.4056 8.79375 11.535L11.6992 16.71C11.8004 16.663 11.9107 16.639 12.0222 16.6396C12.1337 16.6403 12.2437 16.6656 12.3442 16.7137L15.1658 11.6227C15.0778 11.5557 15.0063 11.4695 14.9564 11.3708C14.9066 11.2721 14.8797 11.1634 14.8779 11.0528C14.8761 10.9422 14.8994 10.8327 14.946 10.7324C14.9926 10.6321 15.0613 10.5437 15.147 10.4738L12.0915 4.92375C12.0495 4.90575 12.0375 4.9125 12.0315 4.923L8.82 10.5765ZM8.5125 11.727C8.39423 11.7729 8.26631 11.7884 8.1405 11.772L6.2715 15.0623C6.45 15.4395 6.6615 15.8002 6.9045 16.1407C7.47675 16.2757 8.93925 16.6237 11.2928 17.1877C11.3191 17.0903 11.3653 16.9994 11.4285 16.9208L8.5125 11.727ZM8.10825 10.3148C8.25694 10.2893 8.40985 10.3083 8.54775 10.3695L11.6693 4.875C9.32925 4.9125 7.371 5.35125 5.793 6.1905L8.10825 10.3148ZM7.79325 10.4467L5.50125 6.36225C5.41784 6.42898 5.35169 6.51477 5.30836 6.61239C5.26503 6.71002 5.24578 6.81663 5.25225 6.92325L5.59875 12.4598C5.64654 13.2202 5.81646 13.968 6.102 14.6745L7.8195 11.652C7.72062 11.5866 7.63909 11.4982 7.58189 11.3944C7.5247 11.2905 7.49354 11.1744 7.49111 11.0559C7.48868 10.9373 7.51503 10.82 7.56792 10.7139C7.62081 10.6078 7.69864 10.5161 7.79475 10.4467H7.79325ZM12.7432 17.1953L17.16 16.05C17.364 15.7522 17.5455 15.4403 17.703 15.1163L15.8475 11.7458C15.7269 11.7825 15.5991 11.7887 15.4755 11.7638L12.612 16.929C12.672 17.007 12.7177 17.097 12.7432 17.1953V17.1953ZM12.1875 18.0953V19.866C12.2522 19.8476 12.3139 19.8198 12.3705 19.7835L15.0878 18.0488C15.7533 17.6247 16.3451 17.0947 16.8397 16.4797L12.7477 17.541C12.7157 17.6767 12.6462 17.8006 12.5471 17.8987C12.4481 17.9969 12.3235 18.0652 12.1875 18.096V18.0953ZM11.847 18.0953C11.7093 18.0642 11.5833 17.9946 11.4837 17.8946C11.3841 17.7946 11.315 17.6683 11.2845 17.5305C9.9326 17.2065 8.58035 16.884 7.22775 16.563C7.70864 17.1428 8.27696 17.644 8.91225 18.0488L11.6295 19.7842C11.697 19.8277 11.7712 19.8577 11.847 19.875V18.0953ZM15.8745 10.3448L18.1845 6.1785C16.638 5.361 14.7277 4.9275 12.4537 4.87725L15.4515 10.3238C15.5917 10.2906 15.7383 10.2979 15.8745 10.3448ZM16.1617 10.5255C16.2312 10.5949 16.2859 10.6777 16.3226 10.7688C16.3593 10.8598 16.3772 10.9574 16.3753 11.0556C16.3735 11.1537 16.3518 11.2505 16.3116 11.3401C16.2714 11.4297 16.2136 11.5103 16.1415 11.577L17.8762 14.7292C18.1749 14.0071 18.3523 13.2405 18.4012 12.4605L18.7485 6.92325C18.7551 6.81223 18.7339 6.70132 18.6867 6.6006C18.6396 6.49988 18.568 6.41253 18.4785 6.3465L16.1617 10.5255ZM12 24C5.37225 24 0 18.6277 0 12C0 5.37225 5.37225 0 12 0C18.6277 0 24 5.37225 24 12C24 18.6277 18.6277 24 12 24ZM12 8.42625C12.1061 8.42794 12.2074 8.47041 12.2829 8.54485C12.3585 8.61929 12.4025 8.71998 12.4058 8.826V10.2915L14.5703 11.625L14.3055 12.1583L12.4058 11.4908V12.957L12.9473 13.3568V13.7565L12 13.4902L11.0528 13.7565V13.3568L11.5942 12.957V11.4915L9.6615 12.1245L9.429 11.6242L11.5942 10.2915V8.826C11.5975 8.71998 11.6415 8.61929 11.7171 8.54485C11.7926 8.47041 11.8939 8.42794 12 8.42625Z" fill="black"/>
</svg>
