<svg width="24" height="24" viewBox="0 0 24 24" fill="none" xmlns="http://www.w3.org/2000/svg">
<path d="M12 24C18.6274 24 24 18.6274 24 12C24 5.37258 18.6274 0 12 0C5.37258 0 0 5.37258 0 12C0 18.6274 5.37258 24 12 24Z" fill="#343434"/>
<path d="M17.9378 15.8325C18.07 15.787 18.1836 15.6991 18.2609 15.5825C18.3382 15.4659 18.3748 15.3271 18.3653 15.1875V16.0125C18.3653 16.2975 18.189 16.563 17.919 16.6575L12.228 18.7072C12.0845 18.7644 11.9245 18.7644 11.781 18.7072L6.09 16.6582C5.9577 16.6106 5.84358 16.5228 5.76358 16.4072C5.68358 16.2916 5.64168 16.1538 5.64375 16.0132V15.1882C5.64375 15.4725 5.82 15.738 6.09 15.8332L11.7998 17.8822C11.9431 17.9392 12.1027 17.9392 12.246 17.8822L17.9378 15.8325ZM17.9378 14.3715C18.2078 14.2672 18.384 14.0115 18.3653 13.7265V14.5515C18.3653 14.8365 18.189 15.102 17.919 15.1965L12.228 17.2462C12.0845 17.3034 11.9245 17.3034 11.781 17.2462L6.09 15.1972C5.9577 15.1496 5.84358 15.0618 5.76358 14.9462C5.68358 14.8306 5.64168 14.6928 5.64375 14.5522V13.7175C5.64375 14.0115 5.82 14.2672 6.09 14.3715L11.7998 16.4212C11.9431 16.4782 12.1027 16.4782 12.246 16.4212L17.9378 14.3715ZM17.9378 12.9015C18.0682 12.8548 18.1806 12.7682 18.259 12.6541C18.3375 12.5399 18.3781 12.404 18.375 12.2655V13.0905C18.375 13.3755 18.198 13.641 17.928 13.7355L12.237 15.7852C12.0937 15.8422 11.9341 15.8422 11.7908 15.7852L6.09 13.7265C5.9577 13.6789 5.84358 13.5911 5.76358 13.4755C5.68358 13.3598 5.64168 13.2221 5.64375 13.0815V12.2565C5.64375 12.5407 5.82 12.8062 6.09 12.9015L11.7998 14.9505C11.9431 15.0074 12.1027 15.0074 12.246 14.9505L17.9378 12.9015ZM5.625 7.9965C5.62293 7.8559 5.66483 7.71817 5.74483 7.60253C5.82483 7.4869 5.93895 7.39913 6.07125 7.3515L11.772 5.29275C11.9153 5.23583 12.0749 5.23583 12.2183 5.29275L17.919 7.3515C18.0513 7.39913 18.1654 7.4869 18.2454 7.60253C18.3254 7.71817 18.3673 7.8559 18.3653 7.9965V11.6205C18.3653 11.9055 18.189 12.171 17.919 12.2655L12.2092 14.3145C12.0659 14.3714 11.9063 14.3714 11.763 14.3145L6.07125 12.2655C5.93895 12.2179 5.82483 12.1301 5.74483 12.0145C5.66483 11.8988 5.62293 11.7611 5.625 11.6205V7.9965Z" fill="white"/>
</svg>
