<svg width="24" height="24" viewBox="0 0 24 24" fill="none" xmlns="http://www.w3.org/2000/svg">
<path d="M12 24C18.6274 24 24 18.6274 24 12C24 5.37258 18.6274 0 12 0C5.37258 0 0 5.37258 0 12C0 18.6274 5.37258 24 12 24Z" fill="#346FCE"/>
<path fill-rule="evenodd" clip-rule="evenodd" d="M15.12 14.0295L15.837 15.3773C16.2448 16.1445 16.3313 17.0423 16.0773 17.8732C15.8233 18.7042 15.2496 19.4002 14.4825 19.8083L14.3895 19.8578C14.0096 20.0598 13.5936 20.1851 13.1652 20.2264C12.7369 20.2676 12.3046 20.2242 11.8931 20.0984C11.4816 19.9726 11.0988 19.767 10.7668 19.4933C10.4347 19.2196 10.1598 18.8832 9.95775 18.5033L7.5405 13.9568C7.14749 13.2177 7.05222 12.3562 7.27425 11.5492C7.49628 10.7421 8.01876 10.0506 8.7345 9.61651L8.0175 8.26876C7.6097 7.50144 7.52339 6.60356 7.77754 5.77261C8.03169 4.94166 8.6055 4.24568 9.37275 3.83776L9.46575 3.78826C10.233 3.38041 11.1308 3.29398 11.9617 3.54799C12.7927 3.802 13.4887 4.37564 13.8967 5.14276L16.314 9.68926C16.7071 10.4282 16.8024 11.2896 16.5806 12.0967C16.3587 12.9038 15.8364 13.5953 15.1207 14.0295H15.12ZM15.12 14.0295L13.4197 10.8308C13.0117 10.0636 12.3157 9.49 11.4847 9.23599C10.6538 8.98198 9.75597 9.06841 8.98875 9.47626L8.89575 9.52501C8.841 9.55501 8.787 9.58501 8.7345 9.61651L10.4355 12.8153C10.8436 13.5824 11.5396 14.156 12.3705 14.41C13.2015 14.664 14.0993 14.5776 14.8665 14.1698L14.9595 14.121C15.0142 14.091 15.0682 14.061 15.1207 14.0295H15.12Z" fill="white"/>
</svg>
