<svg width="48" height="48" viewBox="0 0 24 24" fill="none" xmlns="http://www.w3.org/2000/svg">
<path d="M12 24C5.37225 24 0 18.6277 0 12C0 5.37225 5.37225 0 12 0C18.6277 0 24 5.37225 24 12C24 18.6277 18.6277 24 12 24ZM8.1405 9.948L10.848 11.388L12.288 10.668L8.84625 8.8035V5.52L15.4635 8.955L16.9035 8.235L8.4285 3.792C8.33186 3.74123 8.22374 3.71628 8.11463 3.71957C8.00551 3.72287 7.8991 3.75429 7.80569 3.8108C7.71229 3.86731 7.63507 3.94699 7.58151 4.04211C7.52796 4.13724 7.49988 4.24458 7.5 4.35375V8.904C7.50225 9.34425 7.749 9.747 8.1405 9.948ZM18.4583 9.1845C18.3647 9.09358 18.2453 9.03376 18.1164 9.01322C17.9875 8.99268 17.8555 9.01243 17.7382 9.06975L8.1405 14.052C7.74675 14.2545 7.49925 14.6603 7.5 15.1035V19.6462C7.49988 19.7554 7.52796 19.8628 7.58151 19.9579C7.63507 20.053 7.71229 20.1327 7.80569 20.1892C7.8991 20.2457 8.00551 20.2771 8.11463 20.2804C8.22374 20.2837 8.33186 20.2588 8.4285 20.208L18.0045 15.24C18.4043 15.033 18.6525 14.6175 18.6458 14.1675V9.6315C18.6458 9.54827 18.6292 9.46587 18.597 9.38912C18.5648 9.31237 18.5176 9.24281 18.4583 9.1845ZM17.3063 14.088L8.84625 18.48V15.1965L17.3063 10.8045V14.088Z" fill="black"/>
</svg>
