<svg width="48" height="48" viewBox="0 0 24 24" fill="none" xmlns="http://www.w3.org/2000/svg">
<path fill-rule="evenodd" clip-rule="evenodd" d="M12 24C5.37225 24 0 18.6277 0 12C0 5.37225 5.37225 0 12 0C18.6277 0 24 5.37225 24 12C24 18.6277 18.6277 24 12 24ZM18.375 14.4503V8.30025L12 4.5L5.625 8.30025V15.7665L12 19.5L17.2612 16.419L11.6078 13.0665L12.6315 12.5002V6.57525L16.9365 9.14175V11.8665L15.5963 11.0753L15.2363 12.567L18.375 14.4503V14.4503ZM7.0635 9.1425L11.202 6.675V11.601L7.0635 14.001V9.1425ZM10.1363 13.9005L14.3812 16.4152L12 17.8088L7.78275 15.339L10.1363 13.8998V13.9005Z" fill="black"/>
</svg>
