<svg width="24" height="24" viewBox="0 0 24 24" fill="none" xmlns="http://www.w3.org/2000/svg">
<path d="M12 24C18.6274 24 24 18.6274 24 12C24 5.37258 18.6274 0 12 0C5.37258 0 0 5.37258 0 12C0 18.6274 5.37258 24 12 24Z" fill="#004AB5"/>
<path d="M9.36224 5.84474C8.3725 6.21769 7.48749 6.8242 6.78252 7.61268C6.07756 8.40116 5.57349 9.34826 5.31321 10.3734C5.05294 11.3986 5.04415 12.4714 5.28761 13.5007C5.53107 14.53 6.01957 15.4852 6.71153 16.2851C7.4035 17.085 8.27846 17.7059 9.26196 18.095C10.2455 18.4841 11.3084 18.6299 12.3604 18.5199C13.4123 18.4099 14.4221 18.0474 15.3039 17.4633C16.1856 16.8792 16.9132 16.0907 17.4247 15.165L11.6782 11.9887L14.01 5.84999C12.5134 5.28186 10.8608 5.27999 9.36299 5.84474H9.36224ZM9.77174 7.02449C10.9848 6.56709 12.3233 6.56869 13.5352 7.02899L11.6475 11.9992L16.3005 14.5717C15.8862 15.3212 15.297 15.9594 14.583 16.4322C13.8691 16.905 13.0515 17.1984 12.1998 17.2874C11.3481 17.3763 10.4875 17.2583 9.69128 16.9432C8.89503 16.6281 8.18666 16.1254 7.62643 15.4778C7.06619 14.8301 6.67068 14.0568 6.47353 13.2235C6.27638 12.3901 6.28343 11.5215 6.49407 10.6915C6.70471 9.86153 7.11272 9.09468 7.68339 8.45622C8.25405 7.81777 8.97048 7.3266 9.77174 7.02449V7.02449ZM11.9737 3.73499C12.867 3.77024 13.7482 3.95024 14.5837 4.26749L11.6475 11.9992L18.8857 16.0005C18.1736 17.2891 17.1303 18.3642 15.8638 19.1148C14.5972 19.8654 13.1533 20.2644 11.681 20.2705C10.2087 20.2765 8.76151 19.8895 7.48881 19.1494C6.2161 18.4092 5.16402 17.3428 4.44122 16.0601C3.71841 14.7775 3.35107 13.3252 3.37714 11.8531C3.4032 10.3811 3.82172 8.94266 4.58947 7.68641C5.35723 6.43016 6.4464 5.40162 7.74451 4.70699C9.04262 4.01235 10.5026 3.6768 11.9737 3.73499V3.73499ZM17.6205 6.59399C17.8185 6.59399 18.003 6.61724 18.1725 6.66524C18.672 6.80249 19.0095 7.11299 19.185 7.59599C19.2922 7.88924 19.3155 8.17724 19.2555 8.45999C19.2015 8.74049 19.0717 8.99249 18.8662 9.21749C19.2517 9.20024 19.5885 9.28649 19.8787 9.47399C20.166 9.65549 20.3782 9.93374 20.514 10.3072C20.7067 10.8367 20.649 11.3205 20.3392 11.7585C20.0332 12.189 19.4865 12.5482 18.6982 12.8347L15.5752 13.9717L13.377 7.93199L16.3275 6.85799C16.8105 6.68249 17.2417 6.59399 17.6205 6.59399V6.59399ZM17.163 7.84349C16.983 7.84349 16.7752 7.88699 16.5382 7.97324L15.1492 8.47874L15.6667 9.90299L17.0565 9.39674C17.4015 9.27149 17.6415 9.11624 17.775 8.93024C17.91 8.74424 17.934 8.53349 17.8477 8.29799C17.7622 8.06249 17.6092 7.91924 17.3887 7.86899C17.3148 7.85116 17.239 7.84259 17.163 7.84349V7.84349ZM18.3345 10.185C18.1455 10.1872 17.9235 10.2345 17.6685 10.3275L16.038 10.9207L16.581 12.4132L18.2115 11.82C18.579 11.6857 18.834 11.5252 18.9735 11.337C19.1197 11.1472 19.146 10.926 19.0545 10.6725C18.9345 10.3447 18.6945 10.182 18.3345 10.185V10.185Z" fill="white"/>
</svg>
