<svg width="48" height="48" viewBox="0 0 24 24" fill="none" xmlns="http://www.w3.org/2000/svg">
<path d="M16.9387 7.2705L16.989 7.29375L19.1865 10.2232L19.1715 10.2397L19.1273 10.1497L15.7365 11.8628L14.706 8.45025L16.9965 7.39875L16.9387 7.2705ZM16.815 7.21275L14.5837 8.23725H9.44625L7.13475 7.26525L9.35625 6.24525H14.7338L16.815 7.21275ZM6.9495 7.45275L9.2895 8.4375L8.2545 11.8628L4.86975 10.1535L6.9495 7.45275ZM9.5295 8.4825H14.4615L15.531 12.0225L11.9955 18.2715L8.46075 12.0225L9.5295 8.4825ZM18.9135 10.5323L12.5955 17.7053L15.7493 12.1305L18.9135 10.5323ZM11.3782 17.6752L5.09475 10.5413L8.24175 12.1312L11.3782 17.6752ZM4.82325 10.2322L4.81575 10.2248L4.848 10.182L4.82325 10.2322ZM12 24C5.37225 24 0 18.6277 0 12C0 5.37225 5.37225 0 12 0C18.6277 0 24 5.37225 24 12C24 18.6277 18.6277 24 12 24ZM6.9165 7.0965L4.5 10.2345L12 18.75L19.5 10.236L17.1458 7.0965L14.7877 6H9.30375L6.9165 7.0965ZM13.8173 11.1255C13.758 10.503 13.2278 10.2945 12.5573 10.2345V9.37125H12.0383V10.212C11.9018 10.212 11.7623 10.215 11.6235 10.218V9.37125H11.1053V10.2345C10.9928 10.2367 10.8825 10.239 10.7752 10.239L10.7745 10.2368H10.0583V10.7978C10.0583 10.7978 10.4422 10.7903 10.4355 10.7978C10.6455 10.7978 10.7145 10.9208 10.734 11.028V12.0112C10.749 12.0112 10.7677 12.012 10.7895 12.015H10.734V13.3935C10.725 13.461 10.686 13.5675 10.539 13.5675C10.5465 13.5735 10.1617 13.5675 10.1617 13.5675L10.059 14.1953H10.734C10.86 14.1953 10.9838 14.1975 11.1053 14.1982V15.0712H11.6235V14.2073C11.766 14.2103 11.904 14.2117 12.0383 14.2117V15.072H12.5573V14.1998C13.4303 14.1488 14.0407 13.9267 14.1172 13.0972C14.1772 12.4282 13.8675 12.1298 13.3718 12.0098C13.6733 11.8545 13.8615 11.5807 13.8173 11.1255V11.1255ZM13.0912 12.993C13.0912 13.6455 11.988 13.5713 11.6363 13.572V12.4147C11.988 12.4147 13.0912 12.312 13.0912 12.993ZM12.8497 11.3603C12.8497 11.9543 11.9288 11.8853 11.6363 11.8853V10.8352C11.9288 10.8352 12.8497 10.7408 12.8497 11.3603V11.3603Z" fill="black"/>
</svg>
