<svg width="24" height="24" viewBox="0 0 24 24" fill="none" xmlns="http://www.w3.org/2000/svg">
<path d="M12 24C18.6274 24 24 18.6274 24 12C24 5.37258 18.6274 0 12 0C5.37258 0 0 5.37258 0 12C0 18.6274 5.37258 24 12 24Z" fill="#8DC351"/>
<path d="M15.9052 7.90051C15.3232 6.42151 13.8637 6.28801 12.1642 6.61801L11.559 4.50826L10.275 4.8765L10.8645 6.9315C10.527 7.0275 10.1835 7.13401 9.84224 7.23901L9.24974 5.1705L7.96649 5.538L8.57024 7.64775C8.29424 7.73325 8.02274 7.81725 7.75649 7.89375L7.75424 7.88626L5.98274 8.39401L6.37649 9.76651C6.37649 9.76651 7.31999 9.4755 7.30874 9.498C7.82924 9.34875 8.08499 9.60225 8.20874 9.849L8.89874 12.252C8.93399 12.2423 8.98124 12.2303 9.03674 12.222L8.90099 12.261L9.86624 15.6285C9.89024 15.7988 9.86924 16.0875 9.50624 16.1925C9.52649 16.2023 8.57174 16.4595 8.57174 16.4595L8.75699 18.0668L10.428 17.5868C10.7392 17.499 11.0467 17.4165 11.3475 17.3318L11.9602 19.4655L13.2427 19.098L12.6375 16.9868C12.9815 16.8955 13.3245 16.8005 13.6665 16.7018L14.268 18.804L15.5527 18.4358L14.9422 16.3058C17.0655 15.5625 18.4207 14.5853 18.027 12.5033C17.7105 10.8278 16.734 10.3193 15.4237 10.3763C16.0597 9.78375 16.3335 8.98275 15.9052 7.90125V7.90051ZM15.4177 12.978C15.8752 14.5733 13.0927 15.1748 12.2227 15.4253L11.412 12.5978C12.282 12.348 14.94 11.3153 15.417 12.9788L15.4177 12.978ZM13.6762 9.1605C14.0917 10.6118 11.766 11.0955 11.0407 11.3033L10.3057 8.73901C11.0302 8.53126 13.242 7.64776 13.6762 9.16126V9.1605Z" fill="white"/>
</svg>
