<svg width="48" height="48" viewBox="0 0 24 24" fill="none" xmlns="http://www.w3.org/2000/svg">
<path d="M11.9992 23.9977C5.37225 23.9977 0 18.6255 0 11.9992C0 5.37225 5.37225 0 11.9992 0C18.6255 0 23.9977 5.37225 23.9977 11.9992C23.9977 18.6255 18.6255 23.9977 11.9992 23.9977ZM17.5778 12.5655C17.1053 12.0435 16.4257 11.7195 15.5377 11.5935V11.5747C16.3155 11.4487 16.9267 11.13 17.3422 10.62C17.7639 10.1142 17.993 9.47549 17.9888 8.817C17.9888 7.72125 17.6363 6.9765 16.9058 6.39075C16.1753 5.80575 15.0788 5.613 13.593 5.613H7.98225V10.8352H4.76025V12.8355H13.5555C14.2477 12.8355 14.7675 12.8843 15.111 13.161C15.4545 13.4378 15.63 13.7955 15.63 14.3243C15.63 14.853 15.4568 15.3045 15.111 15.588C14.766 15.8708 14.2455 16.0575 13.5555 16.0575H10.5375V14.502H7.98225V18.0577H13.7775C15.2513 18.0577 16.3777 17.673 17.1592 17.0753C17.94 16.4775 18.3068 15.5947 18.3068 14.511C18.3165 13.794 18.0562 13.0996 17.5778 12.5655V12.5655ZM13.233 10.83H10.5375V7.608H13.233C14.619 7.608 15.3105 8.14875 15.3105 9.219C15.3105 10.2892 14.619 10.83 13.233 10.83Z" fill="black"/>
</svg>
