<svg width="48" height="48" viewBox="0 0 24 24" fill="none" xmlns="http://www.w3.org/2000/svg">
<path fill-rule="evenodd" clip-rule="evenodd" d="M12 24C5.37225 24 0 18.6277 0 12C0 5.37225 5.37225 0 12 0C18.6277 0 24 5.37225 24 12C24 18.6277 18.6277 24 12 24ZM6.996 6.46275C6.993 8.8005 6.996 11.1375 6.993 13.476C7.476 11.9168 8.709 10.6072 10.2555 10.0732C11.601 9.6015 13.1505 9.6885 14.412 10.3658C14.412 10.2345 14.412 10.104 14.4135 9.97275C12.834 9.21375 10.8983 9.25125 9.3615 10.0988C9.3765 8.06175 9.35925 6.02475 9.36975 3.98775C8.63131 4.73256 7.88931 5.47382 7.14375 6.2115C7.08375 6.2865 6.98175 6.3525 6.996 6.46275V6.46275ZM17.0385 15.2092C17.046 12.2655 17.0295 9.321 17.046 6.37725C16.236 5.5635 15.426 4.74825 14.6085 3.94275C14.631 4.3245 14.6242 4.707 14.6235 5.08875C14.622 8.13 14.634 11.1712 14.6295 14.2117C14.6243 14.8012 14.6843 15.417 14.4443 15.9742C14.067 16.9567 13.0493 17.6467 11.9948 17.6205C10.8983 17.6325 9.861 16.8667 9.53325 15.8235C9.16575 14.766 9.5835 13.5068 10.5052 12.8723C11.343 12.2648 12.549 12.2385 13.4167 12.7988C13.8555 13.0733 14.187 13.4873 14.4105 13.95C14.4019 12.8295 14.4019 11.709 14.4105 10.5885C13.0418 9.83475 11.3205 9.7785 9.90675 10.4445C8.82866 10.9448 7.96098 11.8085 7.45575 12.8843C7.011 13.8398 6.86625 14.9393 7.08 15.9735C7.326 17.28 8.12925 18.465 9.2385 19.1948C10.2143 19.8423 11.3858 20.1285 12.5502 20.0039C13.7147 19.8793 14.7991 19.3516 15.6157 18.5123C16.4841 17.6264 16.9914 16.4488 17.0385 15.2092V15.2092Z" fill="black"/>
</svg>
