<svg width="24" height="24" viewBox="0 0 24 24" fill="none" xmlns="http://www.w3.org/2000/svg">
<path d="M12 24C18.6274 24 24 18.6274 24 12C24 5.37258 18.6274 0 12 0C5.37258 0 0 5.37258 0 12C0 18.6274 5.37258 24 12 24Z" fill="#E54C40"/>
<path d="M6.99601 6.46275C6.98101 6.3525 7.08451 6.2865 7.14376 6.2115C7.88932 5.47382 8.63133 4.73256 9.36976 3.98775C9.35926 6.02475 9.37576 8.06175 9.36151 10.0987C10.8983 9.25125 12.834 9.21375 14.4135 9.97275C14.412 10.104 14.412 10.2345 14.412 10.3665C13.1513 9.6885 11.601 9.6015 10.2563 10.074C8.70901 10.6065 7.47601 11.9167 6.99376 13.476C6.99601 11.1375 6.99301 8.8005 6.99601 6.46275V6.46275ZM17.0385 15.2092C16.9916 16.4491 16.4843 17.627 15.6158 18.513C14.7991 19.3524 13.7147 19.88 12.5503 20.0047C11.3858 20.1293 10.2143 19.8431 9.23851 19.1955C8.12851 18.465 7.32601 17.28 7.08001 15.9735C6.86626 14.9385 7.01101 13.8397 7.45576 12.8835C7.96114 11.808 8.8288 10.9446 9.90676 10.4445C11.3198 9.7785 13.0418 9.83475 14.4098 10.5885C14.4015 11.709 14.4023 12.8295 14.4105 13.95C14.187 13.4872 13.8555 13.0732 13.4168 12.7987C12.549 12.2385 11.343 12.2647 10.5053 12.8722C9.58276 13.5067 9.16651 14.7652 9.53326 15.8235C9.86101 16.8667 10.8983 17.6325 11.9948 17.6205C13.0493 17.6467 14.067 16.9575 14.4443 15.9742C14.6843 15.417 14.6243 14.8012 14.6295 14.2117C14.634 11.1705 14.622 8.12925 14.6235 5.08875C14.6243 4.70625 14.631 4.32375 14.6085 3.94275C15.426 4.74825 16.236 5.5635 17.046 6.37725C17.0295 9.321 17.046 12.2647 17.0385 15.21V15.2092Z" fill="white"/>
</svg>
