<svg width="48" height="48" viewBox="0 0 24 24" fill="none" xmlns="http://www.w3.org/2000/svg">
<path fill-rule="evenodd" clip-rule="evenodd" d="M6.22275 8.676C5.63667 9.69543 5.32913 10.8511 5.331 12.027C5.331 15.7395 8.33475 18.75 12.0405 18.75C15.7463 18.75 18.75 15.7402 18.75 12.027C18.75 8.3145 15.7463 5.304 12.0405 5.304C10.8542 5.3023 9.68884 5.61712 8.66475 6.216C8.47569 5.85753 8.17192 5.57279 7.80199 5.40728C7.43206 5.24177 7.01732 5.20506 6.62406 5.303C6.23081 5.40095 5.88174 5.6279 5.63265 5.94759C5.38356 6.26727 5.24883 6.66123 5.25 7.0665C5.24968 7.39803 5.34017 7.72332 5.51166 8.00706C5.68315 8.2908 5.92907 8.52215 6.22275 8.676ZM12 24C5.37225 24 0 18.6277 0 12C0 5.37225 5.37225 0 12 0C18.6277 0 24 5.37225 24 12C24 18.6277 18.6277 24 12 24ZM12.0405 15.3345C10.218 15.3345 8.7405 13.854 8.7405 12.027C8.7405 10.2 10.218 8.7195 12.0405 8.7195C13.863 8.7195 15.3405 10.2007 15.3405 12.027C15.3405 13.8532 13.863 15.3345 12.0405 15.3345V15.3345Z" fill="black"/>
</svg>
