<svg width="48" height="48" viewBox="0 0 24 24" fill="none" xmlns="http://www.w3.org/2000/svg">
<path fill-rule="evenodd" clip-rule="evenodd" d="M12 24C5.37225 24 0 18.6277 0 12C0 5.37225 5.37225 0 12 0C18.6277 0 24 5.37225 24 12C24 18.6277 18.6277 24 12 24ZM12.7057 18.4327L17.3843 15.7755C17.5275 15.9323 17.7352 16.0305 17.9662 16.0305C18.399 16.0305 18.75 15.6855 18.75 15.2595C18.75 14.8943 18.492 14.5882 18.1462 14.5087L18.1597 9.243C18.4987 9.15825 18.75 8.85525 18.75 8.49525C18.75 8.06925 18.399 7.72425 17.9662 7.72425C17.8413 7.7239 17.718 7.7533 17.6066 7.81003C17.4952 7.86677 17.399 7.94919 17.3257 8.0505L12.7448 5.44875C12.7705 5.33461 12.7701 5.21613 12.7437 5.10215C12.7173 4.98817 12.6655 4.88161 12.5922 4.79042C12.5189 4.69923 12.4259 4.62576 12.3203 4.57548C12.2146 4.52519 12.099 4.49939 11.982 4.5C11.8646 4.49944 11.7485 4.52547 11.6426 4.57615C11.5367 4.62684 11.4436 4.70085 11.3703 4.79264C11.2971 4.88443 11.2456 4.99162 11.2197 5.10616C11.1938 5.2207 11.1941 5.33962 11.2208 5.454L6.66675 8.04C6.59329 7.94147 6.49777 7.86152 6.38785 7.80656C6.27792 7.75159 6.15665 7.72315 6.03375 7.7235C5.82765 7.7225 5.62954 7.8031 5.48268 7.94771C5.33583 8.09231 5.25218 8.28916 5.25 8.49525C5.25 8.85525 5.49975 9.15675 5.838 9.24225V14.5125C5.67087 14.5539 5.5223 14.6498 5.4158 14.7851C5.30931 14.9204 5.25096 15.0873 5.25 15.2595C5.25 15.6855 5.601 16.0305 6.03375 16.0305C6.255 16.0305 6.4545 15.9405 6.597 15.795L11.2552 18.4402C11.2176 18.5318 11.1982 18.6299 11.1982 18.729C11.1982 19.155 11.5492 19.5 11.982 19.5C12.4147 19.5 12.7657 19.155 12.7657 18.729C12.7657 18.624 12.7447 18.5242 12.7057 18.4327V18.4327ZM12.4965 18.1478C12.3533 18.0249 12.1707 17.9576 11.982 17.958C11.7825 17.958 11.5995 18.0315 11.4615 18.153L6.78 15.4943C6.82899 15.3443 6.83003 15.1828 6.783 15.0322L11.2657 12.012C11.3486 12.1174 11.4533 12.2038 11.5725 12.2652C11.6917 12.3266 11.8228 12.3617 11.9568 12.3679C12.0908 12.3742 12.2245 12.3515 12.349 12.3015C12.4734 12.2515 12.5856 12.1753 12.678 12.078L17.2275 15.003C17.1738 15.1528 17.1685 15.3158 17.2125 15.4688L12.4965 18.1478ZM12.5858 5.763L17.1915 8.379C17.1632 8.57473 17.2108 8.77387 17.3246 8.93562C17.4384 9.09737 17.6097 9.20949 17.8035 9.249L17.79 14.508C17.6475 14.5402 17.52 14.6108 17.4195 14.7075L12.8663 11.7802C12.9053 11.6797 12.9263 11.5703 12.9263 11.457C12.925 11.2416 12.8478 11.0336 12.7083 10.8695C12.5688 10.7054 12.3759 10.5958 12.1635 10.56L12.1755 6.01875C12.3382 5.9775 12.4815 5.88675 12.5858 5.76375V5.763ZM11.382 5.76675C11.4922 5.89575 11.6445 5.9895 11.8192 6.0255L11.8073 10.5652C11.6853 10.5902 11.5696 10.6398 11.4675 10.711C11.3653 10.7822 11.2788 10.8735 11.2131 10.9793C11.1475 11.0851 11.1041 11.2032 11.0857 11.3263C11.0673 11.4495 11.0742 11.5751 11.106 11.6955L6.60225 14.7285C6.49202 14.6143 6.34978 14.5361 6.19425 14.5043V9.2505C6.39103 9.21099 6.56479 9.09665 6.67895 8.93157C6.7931 8.76649 6.83874 8.56356 6.80625 8.3655L11.382 5.76675Z" fill="black"/>
</svg>
