<svg width="48" height="48" viewBox="0 0 24 24" fill="none" xmlns="http://www.w3.org/2000/svg">
<path fill-rule="evenodd" clip-rule="evenodd" d="M12 24C5.37225 24 0 18.6277 0 12C0 5.37225 5.37225 0 12 0C18.6277 0 24 5.37225 24 12C24 18.6277 18.6277 24 12 24ZM5.925 5.25C5.74598 5.25 5.57429 5.32112 5.4477 5.4477C5.32112 5.57429 5.25 5.74598 5.25 5.925V10.575C5.25 10.754 5.32112 10.9257 5.4477 11.0523C5.57429 11.1789 5.74598 11.25 5.925 11.25H10.575C10.754 11.25 10.9257 11.1789 11.0523 11.0523C11.1789 10.9257 11.25 10.754 11.25 10.575V5.925C11.25 5.74598 11.1789 5.57429 11.0523 5.4477C10.9257 5.32112 10.754 5.25 10.575 5.25H5.925ZM13.425 5.25C13.246 5.25 13.0743 5.32112 12.9477 5.4477C12.8211 5.57429 12.75 5.74598 12.75 5.925V10.575C12.75 10.754 12.8211 10.9257 12.9477 11.0523C13.0743 11.1789 13.246 11.25 13.425 11.25H18.075C18.254 11.25 18.4257 11.1789 18.5523 11.0523C18.6789 10.9257 18.75 10.754 18.75 10.575V5.925C18.75 5.74598 18.6789 5.57429 18.5523 5.4477C18.4257 5.32112 18.254 5.25 18.075 5.25H13.425ZM13.425 12.75C13.246 12.75 13.0743 12.8211 12.9477 12.9477C12.8211 13.0743 12.75 13.246 12.75 13.425V18.075C12.75 18.254 12.8211 18.4257 12.9477 18.5523C13.0743 18.6789 13.246 18.75 13.425 18.75H18.075C18.254 18.75 18.4257 18.6789 18.5523 18.5523C18.6789 18.4257 18.75 18.254 18.75 18.075V13.425C18.75 13.246 18.6789 13.0743 18.5523 12.9477C18.4257 12.8211 18.254 12.75 18.075 12.75H13.425ZM5.925 12.75C5.74598 12.75 5.57429 12.8211 5.4477 12.9477C5.32112 13.0743 5.25 13.246 5.25 13.425V18.075C5.25 18.254 5.32112 18.4257 5.4477 18.5523C5.57429 18.6789 5.74598 18.75 5.925 18.75H10.575C10.754 18.75 10.9257 18.6789 11.0523 18.5523C11.1789 18.4257 11.25 18.254 11.25 18.075V13.425C11.25 13.246 11.1789 13.0743 11.0523 12.9477C10.9257 12.8211 10.754 12.75 10.575 12.75H5.925Z" fill="black"/>
</svg>
