<svg width="24" height="24" viewBox="0 0 24 24" fill="none" xmlns="http://www.w3.org/2000/svg">
<path d="M12 24C18.6274 24 24 18.6274 24 12C24 5.37258 18.6274 0 12 0C5.37258 0 0 5.37258 0 12C0 18.6274 5.37258 24 12 24Z" fill="#181818"/>
<path d="M17.325 8.3475C17.3536 8.94693 17.1925 9.54013 16.8645 10.0427C16.5364 10.5452 16.0583 10.9315 15.498 11.1465C15.498 11.1465 16.257 10.3965 16.2217 8.47425C16.1857 6.552 14.7742 5.60175 14.7742 5.60175C14.7742 5.60175 17.2898 6.162 17.3243 8.34675L17.325 8.3475ZM8.952 18.6143L6.375 18.741V18.5002C6.375 18.5002 7.95225 18.3375 7.95225 15.5078V8.27775C7.95225 5.88225 6.375 5.4675 6.375 5.4675V5.25L8.952 5.376V18.6143ZM13.071 18.7493C11.9497 18.759 9.87 18.6022 9.87 18.6022V5.39475C11.241 5.376 11.7202 5.187 12.8497 5.34975C13.98 5.51175 14.9505 6.6405 15.2153 7.76925C15.48 8.898 15.198 9.97275 14.8358 10.5593C14.4735 11.1458 13.68 11.553 13.68 11.553C13.68 11.553 14.88 11.9685 15.3038 12.3292C15.7275 12.6907 16.5488 13.6747 16.2308 15.8152C15.9128 17.9557 14.1915 18.7403 13.071 18.7493V18.7493ZM16.0493 18.2618C16.0493 18.2618 17.2718 17.1968 17.2178 15.036C17.1638 12.8753 16.0493 11.8597 16.0493 11.8597C16.0493 11.8597 18.3488 12.4372 18.3743 15.0112C18.4013 17.5845 16.0493 18.2625 16.0493 18.2625V18.2618ZM13.7242 10.5113C14.5477 9.4155 14.289 7.35375 13.2915 6.64875C12.294 5.94375 11.244 6.29625 11.0415 6.495C10.8375 6.69375 10.8465 11.3175 10.8465 11.3175C10.8465 11.3175 12.9 11.607 13.7235 10.5113H13.7242ZM13.8765 12.48C13.1055 12.1365 10.8465 12.2265 10.8465 12.2265C10.8465 12.2265 10.8112 13.3943 10.8937 15.5798C10.9762 17.7653 11.706 17.7533 12.465 17.7833C13.224 17.8133 14.6715 17.7593 15.1478 15.8745C15.6248 13.9905 14.6475 12.8227 13.8765 12.48V12.48Z" fill="white"/>
</svg>
