<svg width="48" height="48" viewBox="0 0 24 24" fill="none" xmlns="http://www.w3.org/2000/svg">
<path d="M12 24C5.37225 24 0 18.6277 0 12C0 5.37225 5.37225 0 12 0C18.6277 0 24 5.37225 24 12C24 18.6277 18.6277 24 12 24ZM11.94 4.41L8.5515 6.39525L11.94 8.38125L15.3923 6.39525L11.94 4.41V4.41ZM12.4973 15.0105V18.9818L17.1 16.356V12.384L12.4973 15.0105V15.0105ZM15.9495 7.644L12.4965 9.63V13.602L15.9495 11.616V7.644ZM7.638 11.616L11.091 13.602V9.63L7.638 7.644V11.616ZM7.638 16.9965L11.091 18.9818V15.0105L7.638 13.0253V16.9957V16.9965Z" fill="black"/>
</svg>
