<svg width="24" height="24" viewBox="0 0 24 24" fill="none" xmlns="http://www.w3.org/2000/svg">
<path d="M12 24C18.6274 24 24 18.6274 24 12C24 5.37258 18.6274 0 12 0C5.37258 0 0 5.37258 0 12C0 18.6274 5.37258 24 12 24Z" fill="#FD7A3D"/>
<path d="M18.8963 14.55C19.4738 14.865 19.6665 15.5895 19.281 16.1565C18.9608 16.7235 18.2235 16.9125 17.646 16.5975C17.4721 16.4972 17.3255 16.3557 17.2192 16.1854C17.1128 16.0151 17.05 15.8213 17.0363 15.621H14.085L12.6735 18.0142C12.6735 18.0457 12.6413 18.0773 12.6098 18.1088C12.93 18.2978 13.155 18.6758 13.155 19.0853C13.155 19.7153 12.6098 20.25 11.9678 20.25C11.3265 20.25 10.7813 19.746 10.7813 19.0853C10.7813 18.6758 11.0063 18.3293 11.3265 18.1088C11.3265 18.0773 11.2943 18.0457 11.262 18.0142L9.85125 15.6218H6.9C6.86775 16.0305 6.6435 16.377 6.29025 16.5967C5.71275 16.9117 4.9755 16.7235 4.6545 16.1565C4.3335 15.5895 4.52625 14.8657 5.10375 14.5507C5.4885 14.3302 5.9055 14.3302 6.25875 14.5192C6.29025 14.4877 6.29025 14.4247 6.3225 14.3932L7.76625 12L6.35475 9.6075C6.32078 9.57285 6.29827 9.52861 6.29025 9.48075C5.93775 9.63825 5.4885 9.66975 5.13525 9.44925C4.99935 9.37428 4.87975 9.27299 4.78342 9.15129C4.6871 9.02959 4.61598 8.88992 4.57423 8.74044C4.53248 8.59095 4.52092 8.43465 4.54024 8.28065C4.55956 8.12665 4.60937 7.97804 4.68675 7.8435C5.007 7.2765 5.745 7.0875 6.3225 7.4025C6.70725 7.623 6.9 8.001 6.93225 8.379H9.915L11.3265 5.98575C11.3265 5.95425 11.3588 5.92275 11.3903 5.89125C11.2236 5.78851 11.086 5.64485 10.9906 5.47392C10.8952 5.303 10.845 5.11051 10.845 4.91475C10.845 4.28475 11.3903 3.75 12.0323 3.75C12.6735 3.75 13.2188 4.254 13.2188 4.91475C13.2188 5.32425 12.9938 5.67075 12.6735 5.89125C12.6735 5.92275 12.7058 5.95425 12.738 5.98575L14.1488 8.37825H17.1C17.1323 7.9695 17.3565 7.623 17.7098 7.40325C18.2873 7.08825 19.0245 7.2765 19.3455 7.8435C19.4229 7.97808 19.4726 8.12673 19.4919 8.28076C19.5112 8.4348 19.4995 8.59112 19.4577 8.74061C19.4159 8.8901 19.3447 9.02976 19.2483 9.15143C19.1519 9.2731 19.0322 9.37435 18.8963 9.44925C18.5115 9.66975 18.0945 9.66975 17.7413 9.48075C17.7098 9.51225 17.7098 9.57525 17.6775 9.60675L16.266 12L17.6775 14.3925C17.7115 14.4272 17.734 14.4714 17.742 14.5192C18.0945 14.3617 18.5438 14.3302 18.897 14.5507L18.8963 14.55ZM13.5398 11.2125C13.5398 10.5517 12.9945 10.0162 12.321 10.0162H10.7813C10.7436 10.0158 10.7063 10.0227 10.6714 10.0367C10.6365 10.0507 10.6047 10.0715 10.5778 10.0979C10.551 10.1242 10.5296 10.1556 10.515 10.1903C10.5003 10.2249 10.4927 10.2621 10.4925 10.2997V13.7003C10.4925 13.8578 10.6208 13.9838 10.7813 13.9838H12.321C12.9945 13.9838 13.5398 13.4482 13.5398 12.7875C13.5398 12.504 13.4438 12.2205 13.251 12.0315C13.4115 11.7795 13.5398 11.5275 13.5398 11.2125V11.2125Z" fill="white"/>
</svg>
