<svg width="48" height="48" viewBox="0 0 24 24" fill="none" xmlns="http://www.w3.org/2000/svg">
<path d="M12 24C5.37225 24 0 18.6277 0 12C0 5.37225 5.37225 0 12 0C18.6277 0 24 5.37225 24 12C24 18.6277 18.6277 24 12 24ZM18.8962 14.55C18.5437 14.3302 18.0945 14.3617 17.7413 14.5192C17.7333 14.4717 17.7111 14.4278 17.6775 14.3932L16.266 12L17.6775 9.6075C17.7097 9.57525 17.7098 9.51225 17.742 9.48075C18.0945 9.66975 18.5115 9.66975 18.897 9.44925C19.0329 9.37428 19.1525 9.27299 19.2488 9.15129C19.3452 9.02959 19.4163 8.88992 19.458 8.74044C19.4998 8.59095 19.5113 8.43465 19.492 8.28065C19.4727 8.12665 19.4229 7.97804 19.3455 7.8435C19.0245 7.2765 18.2873 7.0875 17.7098 7.4025C17.3573 7.623 17.1322 7.9695 17.1 8.379H14.1487L12.738 5.985C12.7057 5.9535 12.6735 5.922 12.6735 5.8905C12.9945 5.67 13.2188 5.3235 13.2188 4.914C13.2188 4.25325 12.6735 3.74925 12.0322 3.74925C11.3902 3.74925 10.845 4.28475 10.845 4.914C10.845 5.3235 11.07 5.7015 11.3903 5.8905C11.3588 5.922 11.3265 5.9535 11.3265 5.985L9.915 8.3775H6.93225C6.91825 8.17747 6.85533 7.98394 6.74901 7.81393C6.64268 7.64392 6.49622 7.50264 6.3225 7.4025C5.745 7.0875 5.007 7.27575 4.68675 7.84275C4.6094 7.97733 4.55963 8.12598 4.54037 8.28001C4.5211 8.43405 4.53272 8.59037 4.57454 8.73986C4.61637 8.88935 4.68756 9.02901 4.78396 9.15068C4.88036 9.27235 5.00004 9.3736 5.136 9.4485C5.4885 9.669 5.93775 9.6375 6.291 9.48C6.291 9.5115 6.3225 9.5745 6.35475 9.606L7.76625 12L6.3225 14.3925C6.29025 14.4248 6.29025 14.4877 6.258 14.5192C5.9055 14.3302 5.4885 14.3302 5.103 14.5507C4.52625 14.8657 4.3335 15.5895 4.6545 16.1565C4.9755 16.7235 5.71275 16.9125 6.29025 16.5975C6.64275 16.377 6.86775 16.0305 6.9 15.621H9.85125L11.262 18.0142C11.2942 18.0457 11.3265 18.0773 11.3265 18.1088C11.0055 18.3293 10.7812 18.6758 10.7812 19.0853C10.7812 19.746 11.3265 20.25 11.9677 20.25C12.6097 20.25 13.155 19.7145 13.155 19.0853C13.155 18.6758 12.93 18.2978 12.6097 18.1088C12.6412 18.0773 12.6735 18.0457 12.6735 18.0142L14.085 15.6218H17.0363C17.0678 15.999 17.2605 16.377 17.6453 16.5967C18.2228 16.9117 18.9608 16.7235 19.281 16.1565C19.3709 16.0288 19.4326 15.8834 19.462 15.73C19.4914 15.5765 19.4877 15.4186 19.4513 15.2667C19.4149 15.1148 19.3466 14.9724 19.2509 14.849C19.1552 14.7255 19.0343 14.6238 18.8962 14.5507V14.55ZM13.5397 11.2125C13.5397 11.5275 13.4115 11.7795 13.251 12.0315C13.4437 12.2205 13.5397 12.504 13.5397 12.7875C13.5397 13.4482 12.9945 13.9838 12.321 13.9838H10.7812C10.7436 13.9842 10.7063 13.9773 10.6714 13.9633C10.6365 13.9493 10.6047 13.9285 10.5778 13.9021C10.551 13.8758 10.5296 13.8444 10.515 13.8097C10.5003 13.7751 10.4927 13.7379 10.4925 13.7003V10.2997C10.4927 10.2621 10.5003 10.2249 10.515 10.1903C10.5296 10.1556 10.551 10.1242 10.5778 10.0979C10.6047 10.0715 10.6365 10.0507 10.6714 10.0367C10.7063 10.0227 10.7436 10.0158 10.7812 10.0162H12.321C12.9945 10.0162 13.5397 10.5517 13.5397 11.2125V11.2125Z" fill="black"/>
</svg>
