<svg width="48" height="48" viewBox="0 0 24 24" fill="none" xmlns="http://www.w3.org/2000/svg">
<path d="M12 24C5.37225 24 0 18.6277 0 12C0 5.37225 5.37225 0 12 0C18.6277 0 24 5.37225 24 12C24 18.6277 18.6277 24 12 24ZM5.82975 17.235L6.4725 19.3365L7.6275 18.9833L7.5915 18.8632L8.81775 20.682L9.819 20.007L9.73425 19.881L11.4503 21.27L12.21 20.331L12.0787 20.2252L14.1578 21.0225L14.5905 19.8953L14.4795 19.8525L16.6508 20.0048L16.7355 18.7995L16.5682 18.7883L18.7372 18.2872L18.4658 17.1097L18.2685 17.1562L20.2313 16.023L19.6275 14.9767L19.4385 15.0855L21 13.4115L20.1165 12.5873L19.9695 12.7448L20.9745 10.6845L19.8892 10.155L19.8007 10.335L20.1578 8.0835L18.9653 7.8945L18.9398 8.052L18.588 5.83275L17.3955 6.02175L17.403 6.07575L16.4662 4.15425L15.381 4.68375L15.4117 4.7475L13.9507 3.18075L13.0673 4.005L13.1407 4.083L11.2643 3L10.6605 4.04625L10.7955 4.12425L8.64525 3.62775L8.373 4.8045L8.57625 4.85175L6.32475 5.00925L6.40875 6.21375L6.66 6.1965L4.50975 7.0215L4.9425 8.1495L5.17275 8.061L3.372 9.519L4.13175 10.458L4.25175 10.3605L3 12.2167L4.00125 12.8917L4.0815 12.7733L3.429 14.907L4.584 15.2603L4.6215 15.138V17.3527H5.829V17.2358L5.82975 17.235ZM5.82975 15.7995V13.782H5.03625L5.62875 11.8455L4.86375 11.6122L5.99775 9.93225L5.334 9.4845L6.90675 8.211L6.40275 7.5885L8.2755 6.87L7.9815 6.1035L9.9705 5.96475L9.91425 5.16L11.8523 5.60775L12.03 4.83675L13.7527 5.83125L14.142 5.15625L15.5025 6.61575L16.0665 6.09L16.9462 7.89225L17.6378 7.55475L17.9535 9.54825L18.7222 9.42675L18.4065 11.4203L19.2098 11.5478L18.3248 13.3627L19.059 13.722L17.6813 15.1987L18.279 15.7552L16.5353 16.7618L16.9402 17.4623L14.9865 17.9138L15.1665 18.69L13.1738 18.5505L13.119 19.3305L11.2575 18.6157L10.9807 19.3358L9.43575 18.0848L8.93775 18.6998L7.8225 17.0468L7.17 17.487L6.58425 15.5693L5.82975 15.7995V15.7995ZM8.49975 8.41275L7.58625 14.9453H10.2615C10.551 14.9453 10.8465 14.9145 11.1472 14.853C11.4384 14.7954 11.7188 14.6927 11.9782 14.5485C12.2302 14.4068 12.4455 14.2207 12.6232 13.9897C12.8025 13.7595 12.9158 13.4723 12.9653 13.1273C12.9963 12.9311 12.9899 12.7308 12.9465 12.537C12.9078 12.3617 12.8324 12.1966 12.7252 12.0525C12.6174 11.9114 12.4806 11.795 12.324 11.7112C12.1502 11.6185 11.9612 11.5576 11.766 11.5312V11.5125C12.1162 11.4083 12.4132 11.235 12.6562 10.9912C12.8993 10.749 13.0455 10.443 13.0942 10.0732C13.1437 9.717 13.113 9.4305 13.002 9.21525C12.8942 9.00317 12.7255 8.82818 12.5175 8.71275C12.2887 8.5873 12.0383 8.5059 11.7795 8.47275C11.4998 8.43276 11.2176 8.41271 10.935 8.41275H8.499H8.49975ZM9.57 11.025L9.7635 9.6315H10.7415C10.8525 9.6315 10.9643 9.642 11.079 9.66375C11.1915 9.6855 11.292 9.72075 11.3782 9.7695C11.4633 9.81775 11.5321 9.89002 11.5763 9.97725C11.6247 10.0827 11.6394 10.2006 11.6183 10.3148C11.5995 10.4438 11.5582 10.5547 11.4937 10.6462C11.431 10.7367 11.349 10.8123 11.2538 10.8675C11.1576 10.9232 11.0533 10.9637 10.9448 10.9875C10.8338 11.0122 10.7227 11.025 10.6125 11.025H9.57V11.025ZM9.19125 13.728L9.4035 12.243H10.4925C10.6095 12.243 10.734 12.252 10.866 12.27C10.998 12.2888 11.1195 12.3225 11.2305 12.372C11.3364 12.4169 11.4265 12.4924 11.4893 12.5887C11.5508 12.684 11.5717 12.8085 11.5537 12.9623C11.5397 13.0923 11.4919 13.2164 11.415 13.3223C11.2728 13.5143 11.0638 13.6459 10.8293 13.6912C10.7093 13.7152 10.5937 13.728 10.4835 13.728H9.19125V13.728ZM16.1362 8.517L14.298 8.25525L13.347 14.0085L14.6085 14.097L16.1362 8.517V8.517ZM14.8043 14.679L13.1138 14.271L12.7297 16.1617L14.4075 16.6508L14.805 14.679H14.8043Z" fill="black"/>
</svg>
