<svg width="48" height="48" viewBox="0 0 24 24" fill="none" xmlns="http://www.w3.org/2000/svg">
<path fill-rule="evenodd" clip-rule="evenodd" d="M12 24C5.37225 24 0 18.6277 0 12C0 5.37225 5.37225 0 12 0C18.6277 0 24 5.37225 24 12C24 18.6277 18.6277 24 12 24ZM10.824 14.2125H12.8182C15.7732 14.2125 17.25 13.4017 17.25 11.7787V7.68375C17.25 6.06225 15.7725 5.25 12.8175 5.25H7.5V9.012H9.495V6.6885H13.0395C14.517 6.6885 15.2557 7.0575 15.2557 7.79475V11.6678C15.2557 12.4058 14.517 12.7748 13.0395 12.7748H10.824V14.2133V14.2125ZM15.2557 15.0983V16.2053C15.2557 16.9425 14.517 17.3115 13.0395 17.3115H9.495V11.5575H13.0402C13.2817 11.5575 13.5038 11.5672 13.7055 11.5875V10.146C13.4104 10.1275 13.1147 10.1184 12.819 10.119H7.5V18.75H12.8175C15.7725 18.75 17.25 17.9385 17.25 16.3155V15.0983H15.255H15.2557Z" fill="black"/>
</svg>
