<svg width="24" height="24" viewBox="0 0 24 24" fill="none" xmlns="http://www.w3.org/2000/svg">
<path d="M12 24C18.6274 24 24 18.6274 24 12C24 5.37258 18.6274 0 12 0C5.37258 0 0 5.37258 0 12C0 18.6274 5.37258 24 12 24Z" fill="#0F63D8"/>
<path d="M19.413 15.5528C19.3408 15.7015 19.2614 15.8466 19.1752 15.9878C19.1175 16.0913 19.062 16.1948 19.0012 16.293C18.9735 16.3388 18.951 16.386 18.9233 16.4303H18.9142C18.332 17.3555 17.5699 18.1545 16.6733 18.78C15.7767 19.4055 14.7637 19.8447 13.6943 20.0717C12.6249 20.2987 11.5209 20.3089 10.4475 20.1015C9.37409 19.8942 8.3532 19.4737 7.44525 18.8648C7.40775 18.8393 7.3755 18.8115 7.33875 18.7868C7.19682 18.6949 7.05941 18.5963 6.927 18.4913C6.71752 18.3317 6.5172 18.1604 6.327 17.9783C6.23605 17.894 6.14727 17.8075 6.06075 17.7188C5.96775 17.6235 5.88675 17.5313 5.79225 17.424C5.69725 17.3171 5.60473 17.2081 5.51475 17.097C5.44438 17.0071 5.37611 16.9156 5.31 16.8225C5.21798 16.6962 5.12945 16.5674 5.0445 16.4363C4.98975 16.3508 4.93875 16.2638 4.887 16.1753C4.80226 16.0341 4.72247 15.89 4.64775 15.7433C4.6035 15.6563 4.56225 15.5678 4.521 15.4793C4.45182 15.33 4.38605 15.1792 4.32375 15.027C4.28625 14.9325 4.2525 14.8365 4.21875 14.7405C4.167 14.5905 4.116 14.4338 4.07175 14.2868C4.04175 14.1803 4.023 14.079 3.99 13.9695C3.95325 13.8218 3.918 13.6748 3.89025 13.527C3.87525 13.4145 3.8505 13.296 3.84 13.1895C3.81812 13.0425 3.79986 12.8949 3.78525 12.747C3.77475 12.6308 3.762 12.5145 3.762 12.3975C3.75 12.2505 3.75 12.1028 3.75 11.955C3.75 11.8425 3.759 11.73 3.759 11.6168C3.77094 11.3558 3.79496 11.0955 3.831 10.8368C3.90488 10.3092 4.02946 9.79009 4.203 9.2865C4.26675 9.102 4.338 8.919 4.41675 8.73675C4.434 8.6955 4.45425 8.64525 4.46475 8.6115C4.4769 8.57434 4.49742 8.54047 4.52475 8.5125C4.602 8.346 4.6875 8.181 4.7775 8.0175C4.82025 7.926 4.872 7.836 4.92525 7.7475C4.96275 7.683 4.98825 7.62225 5.03775 7.55175C5.08575 7.4805 5.142 7.407 5.19225 7.3335C5.25657 7.23258 5.32487 7.13425 5.397 7.03875C5.4915 6.91125 5.58975 6.7875 5.69175 6.66675C5.87039 6.45554 6.05937 6.25329 6.258 6.06075C6.3315 5.99175 6.40425 5.922 6.47925 5.856C6.6105 5.73975 6.74475 5.6295 6.882 5.5245C6.95475 5.4675 7.02825 5.41125 7.1025 5.35575C7.2435 5.25825 7.3875 5.15925 7.533 5.061C7.61054 5.01008 7.68931 4.96107 7.76925 4.914C7.917 4.8285 8.064 4.746 8.21175 4.66875C8.5453 4.49603 8.89066 4.34716 9.24525 4.22325C9.61497 4.09103 9.99402 3.98649 10.3792 3.9105C10.6315 3.86125 10.8857 3.82272 11.1412 3.795C11.3077 3.777 11.4758 3.765 11.6453 3.7575C11.7368 3.75 11.8298 3.75 11.9228 3.75C12.1894 3.74678 12.456 3.75729 12.7215 3.7815C13.1535 3.81883 13.5817 3.89158 14.0018 3.999C14.109 4.0275 14.217 4.0575 14.3243 4.089C14.4818 4.134 14.6295 4.18275 14.7772 4.23675C14.8875 4.2765 14.9985 4.31925 15.1072 4.365C15.1897 4.3995 15.2738 4.42575 15.3563 4.4625V4.4745C16.3585 4.91334 17.2623 5.54897 18.0143 6.3437C18.7662 7.13842 19.3509 8.07606 19.7336 9.10099C20.1164 10.1259 20.2894 11.2173 20.2424 12.3104C20.1955 13.4034 19.9295 14.4759 19.4603 15.4643C19.4453 15.4958 19.4273 15.522 19.413 15.5528V15.5528ZM8.871 18.9278V18.9263C10.5551 19.6808 12.456 19.7976 14.2199 19.255C15.9837 18.7123 17.4902 17.5472 18.459 15.9765C18.513 15.8865 18.564 15.7935 18.615 15.702C18.6855 15.567 18.765 15.4365 18.8333 15.2895C19.2867 14.357 19.5437 13.3413 19.5881 12.3053C19.6326 11.2694 19.4636 10.2354 19.0917 9.26749C18.7198 8.29959 18.1529 7.41848 17.4262 6.67886C16.6994 5.93924 15.8284 5.3569 14.8672 4.968C14.7701 4.92659 14.6718 4.88783 14.5725 4.85175C14.3364 4.76794 14.0966 4.69462 13.854 4.632C13.4617 4.53176 13.0619 4.46378 12.6585 4.42875L12.4065 4.41075C12.2437 4.40325 12.0825 4.3995 11.9213 4.3995H11.6678C11.511 4.40625 11.3558 4.4175 11.2005 4.43325C11.1068 4.44375 11.0138 4.45575 10.9215 4.4685C10.6718 4.50229 10.4242 4.54987 10.1797 4.611C9.93349 4.67026 9.69063 4.74286 9.45225 4.8285C9.3465 4.8645 9.2445 4.9035 9.14625 4.94325C8.92735 5.03273 8.71217 5.13106 8.50125 5.238C8.28714 5.34888 8.07794 5.46899 7.87425 5.598C7.7385 5.68275 7.605 5.7735 7.4745 5.8725C7.407 5.91825 7.3395 5.96775 7.2735 6.0195C7.07673 6.17512 6.88752 6.34006 6.7065 6.51375C6.59625 6.62475 6.48825 6.73725 6.38175 6.85125C6.21413 7.03496 6.0552 7.22642 5.9055 7.425C5.74991 7.63429 5.60425 7.85078 5.469 8.07375C5.42025 8.15475 5.376 8.23575 5.33025 8.31675C5.24025 8.46825 5.16675 8.622 5.09325 8.78175C4.95375 9.0829 4.83399 9.3928 4.73475 9.7095C4.65201 9.95267 4.58512 10.2009 4.5345 10.4528C4.50225 10.6103 4.47525 10.77 4.4535 10.929C4.4415 11.0205 4.428 11.1135 4.41975 11.205C4.40475 11.3528 4.38825 11.4998 4.38825 11.6475C4.37925 11.748 4.37925 11.85 4.37925 11.9513C4.37925 12.0915 4.39125 12.231 4.39125 12.3713C4.40421 12.6148 4.42874 12.8576 4.46475 13.0988C4.48425 13.2 4.50075 13.296 4.5195 13.4048C4.5465 13.5435 4.57875 13.6823 4.6125 13.821C4.6365 13.9148 4.65975 14.0093 4.6875 14.1053C4.72875 14.2478 4.776 14.388 4.82625 14.5283C4.857 14.6138 4.88625 14.7008 4.92075 14.7863C4.977 14.928 5.0385 15.0653 5.09625 15.2108C5.1345 15.2918 5.17125 15.3735 5.2125 15.453C5.286 15.5873 5.35725 15.72 5.43375 15.8505C5.484 15.9323 5.53125 16.0118 5.5815 16.0913C5.658 16.212 5.742 16.3298 5.826 16.4483C5.88825 16.5338 5.93325 16.6043 6.015 16.7018C6.096 16.7993 6.1875 16.905 6.267 16.9965C6.3465 17.088 6.435 17.187 6.5145 17.2695C6.594 17.352 6.65625 17.4105 6.759 17.508C6.8625 17.6055 6.9675 17.703 7.07775 17.796C7.15275 17.859 7.23075 17.9213 7.3095 17.9813C7.79006 18.3584 8.31434 18.6762 8.871 18.9278V18.9278ZM11.985 18.309C10.7362 18.3099 9.51527 17.9404 8.47649 17.2474C7.43772 16.5543 6.6278 15.5688 6.14917 14.4154C5.67054 13.262 5.54469 11.9926 5.78755 10.7677C6.0304 9.54275 6.63105 8.41737 7.51353 7.53384C8.39601 6.65031 9.52068 6.04832 10.7453 5.80401C11.9699 5.5597 13.2395 5.68404 14.3935 6.1613C15.5474 6.63856 16.5339 7.44731 17.2282 8.48526C17.9225 9.52321 18.2934 10.7437 18.294 11.9925C18.2928 13.6661 17.628 15.2709 16.4453 16.455C15.2626 17.6391 13.6586 18.3058 11.985 18.309V18.309ZM11.985 7.7505C11.1451 7.74946 10.3237 7.99762 9.62486 8.46357C8.92602 8.92952 8.38111 9.59231 8.0591 10.3681C7.73709 11.1438 7.65245 11.9977 7.8159 12.8215C7.97934 13.6454 8.38352 14.4023 8.97729 14.9964C9.57105 15.5905 10.3277 15.995 11.1515 16.1589C11.9753 16.3228 12.8292 16.2386 13.6051 15.917C14.381 15.5954 15.0441 15.0509 15.5104 14.3523C15.9767 13.6537 16.2253 12.8324 16.2247 11.9925C16.2236 10.8679 15.7767 9.78968 14.982 8.994C14.1873 8.19832 13.1096 7.75008 11.985 7.7475V7.7505Z" fill="white"/>
</svg>
