<svg width="24" height="24" viewBox="0 0 24 24" fill="none" xmlns="http://www.w3.org/2000/svg">
<path d="M12 24C18.6274 24 24 18.6274 24 12C24 5.37258 18.6274 0 12 0C5.37258 0 0 5.37258 0 12C0 18.6274 5.37258 24 12 24Z" fill="#1D1D1D"/>
<path fill-rule="evenodd" clip-rule="evenodd" d="M7.4715 12.7155C7.47159 13.0958 7.54683 13.4723 7.69288 13.8235C7.83894 14.1746 8.05293 14.4934 8.32257 14.7616C8.59221 15.0298 8.91218 15.242 9.26411 15.3862C9.61603 15.5303 9.99296 15.6035 10.3733 15.6015C11.9648 15.5918 13.2577 14.3145 13.2585 12.7515C13.262 12.3702 13.1896 11.9919 13.0455 11.6388C12.9014 11.2858 12.6886 10.9648 12.4193 10.6948C12.15 10.4248 11.8297 10.211 11.477 10.0659C11.1244 9.92082 10.7463 9.84735 10.365 9.84975C8.766 9.852 7.4715 11.1338 7.4715 12.7155ZM7.4745 15.8205V16.7753H6V6C6.41925 6.0075 6.77325 6.1575 7.0575 6.45375C7.32975 6.73875 7.4655 7.08 7.464 7.476C7.46025 8.18625 7.4625 8.8965 7.4625 9.6405C8.49225 8.78025 9.639 8.3565 10.9748 8.5605C12.2985 8.763 13.3148 9.429 14.0078 10.5682C15.054 12.2895 14.715 14.4878 13.1993 15.8558C11.721 17.1908 9.26475 17.3977 7.4745 15.8205V15.8205ZM12.2438 16.7557C12.3023 16.7205 12.333 16.6995 12.3652 16.683C12.8297 16.4547 13.249 16.1442 13.6027 15.7665C13.6385 15.7258 13.6823 15.6929 13.7313 15.6698C13.7803 15.6467 13.8336 15.6339 13.8878 15.6323C15.1403 15.5603 16.269 14.5523 16.4813 13.3193C16.7603 11.6993 15.7762 10.2698 14.1487 9.95925C13.9252 9.92541 13.7207 9.81388 13.5712 9.64425C13.2712 9.31275 12.9067 9.054 12.519 8.83125C12.486 8.8125 12.4545 8.79225 12.4005 8.75925C13.1385 8.55675 13.8577 8.50875 14.5867 8.6745C15.312 8.83875 15.9367 9.19425 16.5217 9.6795V8.72325H18V19.5C17.8036 19.4988 17.6094 19.4582 17.4289 19.3807C17.2484 19.3031 17.0853 19.1902 16.9493 19.0485C16.8147 18.913 16.7087 18.7518 16.6376 18.5745C16.5664 18.3972 16.5317 18.2075 16.5353 18.0165V15.864C15.2618 16.9313 13.8533 17.2507 12.2438 16.7557V16.7557Z" fill="white"/>
</svg>
