<svg width="48" height="48" viewBox="0 0 24 24" fill="none" xmlns="http://www.w3.org/2000/svg">
<path fill-rule="evenodd" clip-rule="evenodd" d="M12 24C5.37225 24 0 18.6277 0 12C0 5.37225 5.37225 0 12 0C18.6277 0 24 5.37225 24 12C24 18.6277 18.6277 24 12 24ZM17.3917 10.515C17.6272 8.943 16.4295 8.09775 14.793 7.53375L15.324 5.40375L14.028 5.08125L13.5105 7.155C13.17 7.0695 12.8205 6.99 12.4717 6.9105L12.993 4.82325L11.697 4.5L11.166 6.62925C10.884 6.56475 10.6065 6.50175 10.338 6.43425L10.3395 6.4275L8.5515 5.98125L8.2065 7.36575C8.2065 7.36575 9.16875 7.58625 9.1485 7.59975C9.6735 7.731 9.768 8.07825 9.75225 8.35425L9.14775 10.7805C9.18375 10.7895 9.23025 10.803 9.28275 10.8232L9.1455 10.7895L8.298 14.1885C8.2335 14.3475 8.07075 14.5867 7.70325 14.496C7.71675 14.5147 6.76125 14.2612 6.76125 14.2612L6.11775 15.7448L7.80525 16.1655C8.11875 16.2443 8.42625 16.3267 8.7285 16.404L8.19225 18.558L9.4875 18.8805L10.0185 16.7505C10.3725 16.8457 10.716 16.9342 11.052 17.0182L10.5225 19.1392L11.8185 19.4617L12.3547 17.3123C14.5657 17.7308 16.2277 17.562 16.9275 15.5625C17.4915 13.953 16.8998 13.0238 15.7365 12.4185C16.584 12.2235 17.2215 11.6663 17.3917 10.515V10.515ZM14.4293 14.6685C14.0295 16.2788 11.3182 15.408 10.4392 15.1898L11.1518 12.336C12.0308 12.5557 14.8485 12.99 14.4293 14.6685ZM14.8305 10.4918C14.4653 11.9565 12.2092 11.2118 11.478 11.0295L12.123 8.442C12.8542 8.62425 15.2115 8.964 14.8305 10.4918Z" fill="black"/>
</svg>
