<svg width="24" height="24" viewBox="0 0 24 24" fill="none" xmlns="http://www.w3.org/2000/svg">
<path d="M12 24C18.6274 24 24 18.6274 24 12C24 5.37258 18.6274 0 12 0C5.37258 0 0 5.37258 0 12C0 18.6274 5.37258 24 12 24Z" fill="#FF9900"/>
<path d="M17.058 10.3867C17.2845 8.80049 16.1295 7.94849 14.5507 7.37924L15.063 5.23199L13.812 4.90649L13.3132 6.99749C12.9801 6.91158 12.6461 6.82907 12.3112 6.74999L12.8137 4.64474L11.5635 4.31924L11.0505 6.46649C10.7782 6.40124 10.5112 6.33749 10.2517 6.26999L10.2532 6.26324L8.52824 5.81324L8.19599 7.20974C8.19599 7.20974 9.12374 7.43174 9.10349 7.44599C9.61049 7.57799 9.70199 7.92824 9.68699 8.20649L8.28299 14.0902C8.22149 14.2507 8.06399 14.4922 7.70999 14.4007C7.72274 14.4195 6.80099 14.1637 6.80099 14.1637L6.17999 15.66L7.80749 16.0845C8.11049 16.1632 8.40749 16.2465 8.69999 16.3245L8.18174 18.4972L9.43124 18.8227L9.94349 16.674C10.2847 16.7707 10.6162 16.86 10.941 16.944L10.4295 19.083L11.6805 19.4092L12.198 17.241C14.331 17.6625 15.9345 17.4922 16.6102 15.4762C17.154 13.8525 16.5825 12.9157 15.4605 12.3052C16.278 12.108 16.893 11.5462 17.058 10.3852V10.3867ZM14.2005 14.5755C13.8135 16.1992 11.1982 15.321 10.35 15.1005L11.037 12.2227C11.8845 12.444 14.604 12.8827 14.1997 14.5755H14.2005ZM14.5867 10.3627C14.2342 11.8402 12.0577 11.0895 11.3512 10.9057L11.9737 8.29574C12.6802 8.47874 14.9542 8.82224 14.5867 10.3627Z" fill="white"/>
</svg>
