<svg width="24px" height="24px" viewBox="0 0 24 24" version="1.1" xmlns="http://www.w3.org/2000/svg" xmlns:xlink="http://www.w3.org/1999/xlink">
  <path d="M24,12 C24,18.6274 18.6274,24 12,24 C5.37258,24 0,18.6274 0,12 C0,5.37257 5.37258,0 12,0 C18.6274,0 24,5.37257 24,12 Z M14.5507,7.37924 L15.063,5.23199 L13.812,4.90649 L13.3132,6.9975 C12.9801,6.91158 12.6461,6.82907 12.3112,6.74998 L12.8137,4.64474 L11.5635,4.31924 L11.0505,6.46649 L11.0186,6.45885 C10.7573,6.39626 10.5011,6.33485 10.2517,6.26999 L10.2532,6.26324 L8.52824,5.81323 L8.19599,7.20975 C8.19599,7.20975 9.12374,7.43175 9.10349,7.44598 C9.61049,7.57799 9.70199,7.92824 9.68699,8.20648 L8.28299,14.0902 C8.22149,14.2507 8.06399,14.4922 7.70999,14.4007 C7.72274,14.4195 6.80099,14.1637 6.80099,14.1637 L6.17999,15.66 L7.80749,16.0845 C7.99053,16.132 8.17138,16.1813 8.35038,16.23 C8.46768,16.2619 8.58419,16.2936 8.69999,16.3245 L8.18174,18.4972 L9.43124,18.8227 L9.94349,16.674 C10.2847,16.7707 10.6162,16.86 10.941,16.944 L10.4295,19.083 L11.6805,19.4092 L12.198,17.241 C14.331,17.6625 15.9345,17.4922 16.6102,15.4762 C17.154,13.8525 16.5825,12.9157 15.4605,12.3052 C16.278,12.108 16.893,11.5462 17.058,10.3852 L17.058,10.3867 C17.2845,8.80049 16.1295,7.94849 14.5507,7.37924 Z M10.5933,15.1666 C10.5017,15.1413 10.4199,15.1187 10.35,15.1005 L11.037,12.2227 C11.1222,12.2449 11.2263,12.2694 11.3442,12.2971 C12.3996,12.5449 14.5642,13.0529 14.2005,14.5755 C13.8454,16.0655 11.6139,15.4487 10.5933,15.1666 Z M11.5576,10.9621 C11.4798,10.9404 11.4103,10.9211 11.3512,10.9057 L11.9737,8.29575 C12.0444,8.31407 12.1309,8.334 12.2288,8.35657 C13.109,8.55951 14.9174,8.97644 14.5867,10.3627 C14.2637,11.7165 12.4093,11.1996 11.5576,10.9621 Z"></path>
</svg>
