<svg width="48" height="48" viewBox="0 0 24 24" fill="none" xmlns="http://www.w3.org/2000/svg">
<path d="M12 24C5.37225 24 0 18.6277 0 12C0 5.37225 5.37225 0 12 0C18.6277 0 24 5.37225 24 12C24 18.6277 18.6277 24 12 24ZM12.8085 14.517C13.4895 15.5835 13.8173 17.817 13.7595 18.6172C22.7325 15.5325 19.9215 5.67525 13.9395 5.25C13.9395 7.45875 13.431 9.2415 12.8085 9.2415C15.2587 9.3915 16.6185 13.3418 12.8085 14.517V14.517ZM4.5 13.35C8.9655 13.35 12.5798 9.73275 12.5798 5.2575H8.409C8.4165 7.44975 6.67125 9.2415 4.50825 9.24975H4.5V13.35ZM9.96525 12.6075C8.835 13.6252 8.2035 14.1503 5.10675 14.6498C6.93375 14.6498 8.409 16.4835 8.409 18.75H12.579C12.579 18.0667 12.4402 14.6415 9.96525 12.6075Z" fill="black"/>
</svg>
