<svg width="48" height="48" viewBox="0 0 24 24" fill="none" xmlns="http://www.w3.org/2000/svg">
<path d="M12 24C5.37225 24 0 18.6277 0 12C0 5.37225 5.37225 0 12 0C18.6277 0 24 5.37225 24 12C24 18.6277 18.6277 24 12 24ZM12 20.25C12.8512 20.25 13.6972 20.1195 14.508 19.8608C14.5933 19.8359 14.6727 19.7942 14.7417 19.7382C14.8106 19.6822 14.8676 19.613 14.9094 19.5346C14.9512 19.4562 14.9769 19.3703 14.9849 19.2818C14.993 19.1934 14.9833 19.1042 14.9564 19.0195C14.9295 18.9349 14.8859 18.8565 14.8282 18.7889C14.7705 18.7214 14.6999 18.666 14.6206 18.6262C14.5412 18.5863 14.4546 18.5627 14.366 18.5568C14.2774 18.5509 14.1885 18.5628 14.1045 18.5917C13.424 18.8085 12.7141 18.9185 12 18.918C8.1855 18.918 5.082 15.8145 5.082 12C5.082 8.1855 8.1855 5.082 12 5.082C15.8145 5.082 18.918 8.1855 18.918 12C18.918 12.63 18.8325 13.2585 18.663 13.866C18.6155 14.0362 18.6375 14.2183 18.7242 14.3722C18.8109 14.5261 18.9552 14.6393 19.1254 14.6869C19.2955 14.7344 19.4776 14.7124 19.6316 14.6257C19.7855 14.539 19.8987 14.3947 19.9462 14.2245C20.1487 13.5 20.25 12.7515 20.25 12C20.25 7.45275 16.5473 3.75 12 3.75C7.45275 3.75 3.75 7.4505 3.75 12C3.75 16.5495 7.4505 20.25 12 20.25ZM14.5312 11.9805C14.2377 11.7394 13.8742 11.5994 13.4948 11.5815C13.7678 11.3861 13.9697 11.107 14.07 10.7865C14.1675 10.4775 14.181 10.149 14.1105 9.834C14.0165 9.40941 13.7798 9.02984 13.44 8.7585C13.2726 8.62783 13.0809 8.53172 12.876 8.47575C12.6603 8.41729 12.4335 8.41342 12.216 8.4645L11.7953 8.556C11.7379 8.56875 11.6778 8.55823 11.6281 8.52673C11.5785 8.49524 11.5434 8.44535 11.5305 8.388L11.4195 7.887C11.4066 7.82965 11.3715 7.77976 11.3219 7.74827C11.2722 7.71677 11.2121 7.70625 11.1548 7.719L10.647 7.8315C10.5897 7.84392 10.5397 7.87848 10.5078 7.92766C10.4759 7.97684 10.4647 8.03663 10.4767 8.094L10.5893 8.59875C10.5956 8.62721 10.5962 8.65664 10.5911 8.68535C10.5861 8.71406 10.5754 8.74149 10.5597 8.76607C10.544 8.79066 10.5237 8.81192 10.4998 8.82863C10.4759 8.84535 10.449 8.8572 10.4205 8.8635L9.04575 9.168C8.90553 9.19886 8.78331 9.28414 8.70596 9.4051C8.6286 9.52605 8.60245 9.67277 8.63325 9.813L9.87075 15.408C9.90161 15.5482 9.98689 15.6704 10.1078 15.7478C10.2288 15.8251 10.3755 15.8513 10.5157 15.8205L11.8905 15.5153C11.919 15.5089 11.9484 15.5083 11.9771 15.5134C12.0058 15.5184 12.0332 15.5291 12.0578 15.5448C12.0824 15.5605 12.1037 15.5808 12.1204 15.6047C12.1371 15.6286 12.1489 15.6555 12.1553 15.684L12.2662 16.1843C12.2726 16.2127 12.2844 16.2397 12.3011 16.2635C12.3178 16.2874 12.3391 16.3078 12.3637 16.3235C12.3883 16.3391 12.4157 16.3498 12.4444 16.3549C12.4731 16.3599 12.5025 16.3593 12.531 16.353L13.0388 16.2405C13.0672 16.2342 13.0942 16.2223 13.118 16.2056C13.1419 16.1889 13.1623 16.1677 13.178 16.1431C13.1936 16.1185 13.2043 16.0911 13.2094 16.0624C13.2144 16.0336 13.2138 16.0042 13.2075 15.9758L13.0958 15.4717C13.0831 15.4149 13.0934 15.3554 13.1242 15.306C13.1551 15.2566 13.2041 15.2213 13.2607 15.2078L13.4505 15.162C13.7565 15.0945 13.8172 15.0518 14.0737 14.919C14.3166 14.7984 14.5369 14.6368 14.7247 14.4412C14.8972 14.2605 15.0233 14.0423 15.0953 13.8038C15.1673 13.5465 15.1717 13.2743 15.1072 13.0148C15.0082 12.564 14.8162 12.219 14.5312 11.9805V11.9805ZM10.4587 10.7827C10.428 10.6425 10.4541 10.4958 10.5315 10.3748C10.6088 10.2539 10.731 10.1686 10.8712 10.1378L11.9062 9.90825C11.9844 9.88974 12.0655 9.88778 12.1444 9.9025C12.2233 9.91723 12.2983 9.94831 12.3645 9.99375C12.507 10.0867 12.6015 10.2428 12.6495 10.4618C12.702 10.6988 12.6758 10.8885 12.5693 11.0295C12.4696 11.1669 12.3227 11.2625 12.1567 11.298L11.178 11.5147C11.1085 11.5301 11.0367 11.5316 10.9666 11.5192C10.8965 11.5068 10.8296 11.4807 10.7696 11.4424C10.7096 11.404 10.6578 11.3543 10.6171 11.2959C10.5764 11.2376 10.5475 11.1718 10.5323 11.1023L10.4587 10.7827V10.7827ZM13.3905 13.608C13.34 13.6874 13.2738 13.7556 13.1959 13.8084C13.1179 13.8612 13.03 13.8974 12.9375 13.9147L11.7607 14.175C11.6205 14.2058 11.4738 14.1796 11.3528 14.1023C11.2319 14.0249 11.1466 13.9027 11.1158 13.7625L11.028 13.3672C10.9972 13.227 11.0234 13.0803 11.1007 12.9593C11.1781 12.8384 11.3003 12.7531 11.4405 12.7222L12.6825 12.447C12.7688 12.4267 12.8586 12.4267 12.9449 12.447C13.0312 12.4673 13.1116 12.5074 13.1797 12.564C13.3327 12.6855 13.437 12.8573 13.4738 13.0493C13.4989 13.143 13.5046 13.241 13.4905 13.3371C13.4765 13.4331 13.4429 13.5253 13.392 13.608H13.3905V13.608ZM15.864 17.6453C15.8322 17.683 15.8149 17.7309 15.8152 17.7803V17.9902C15.8152 18.105 15.9083 18.198 16.023 18.198H17.862C17.8893 18.1981 17.9164 18.1928 17.9417 18.1824C17.967 18.172 17.99 18.1567 18.0094 18.1374C18.0288 18.1181 18.0441 18.0952 18.0546 18.0699C18.0651 18.0447 18.0705 18.0176 18.0705 17.9902V17.829C18.0705 17.8017 18.0651 17.7746 18.0546 17.7493C18.0441 17.7241 18.0288 17.7011 18.0094 17.6818C17.99 17.6625 17.967 17.6472 17.9417 17.6368C17.9164 17.6265 17.8893 17.6212 17.862 17.6213H17.0737C17.0346 17.6213 16.9962 17.6104 16.963 17.5896C16.9298 17.5688 16.9031 17.539 16.8861 17.5037C16.8691 17.4685 16.8624 17.4291 16.8668 17.3902C16.8712 17.3512 16.8865 17.3143 16.911 17.2838L18.0105 15.9022C18.0402 15.8658 18.0563 15.8202 18.0563 15.7733V15.5602C18.0563 15.533 18.0509 15.506 18.0404 15.4807C18.03 15.4555 18.0147 15.4326 17.9954 15.4133C17.9761 15.3941 17.9532 15.3788 17.928 15.3683C17.9028 15.3579 17.8758 15.3525 17.8485 15.3525H16.08C16.0527 15.3524 16.0256 15.3577 16.0003 15.3681C15.975 15.3785 15.952 15.3938 15.9326 15.4131C15.9132 15.4324 15.8979 15.4553 15.8874 15.4806C15.8769 15.5058 15.8715 15.5329 15.8715 15.5602V15.7222C15.8715 15.837 15.9645 15.93 16.08 15.93H16.854C16.8936 15.9299 16.9324 15.9411 16.9658 15.9623C16.9993 15.9835 17.0259 16.0138 17.0427 16.0497C17.0595 16.0855 17.0657 16.1254 17.0606 16.1647C17.0554 16.2039 17.0392 16.2409 17.0137 16.2712L15.864 17.6453V17.6453Z" fill="black"/>
</svg>
