<svg width="48" height="48" viewBox="0 0 24 24" fill="none" xmlns="http://www.w3.org/2000/svg">
<path d="M12 24C18.6277 24 24 18.6277 24 12C24 5.37225 18.6277 0 12 0C5.37225 0 0 5.37225 0 12C0 18.6277 5.37225 24 12 24ZM12 2.25C17.3842 2.25 21.75 6.61575 21.75 12C21.75 17.3842 17.3842 21.75 12 21.75C6.61575 21.75 2.25 17.3842 2.25 12C2.25 6.61575 6.61575 2.25 12 2.25ZM11.9715 3.705C16.5367 3.705 20.2388 7.4055 20.2388 11.9715C20.2388 16.5367 16.5367 20.2388 11.9715 20.2388C7.4055 20.2388 3.705 16.5367 3.705 11.9715C3.705 7.4055 7.4055 3.705 11.9715 3.705V3.705ZM11.9715 21.0165C16.9657 21.0165 21.0142 16.968 21.0142 11.973C21.0142 6.978 16.965 2.93025 11.9715 2.93025C6.9765 2.93025 2.928 6.97875 2.928 11.973C2.928 16.968 6.9765 21.0165 11.9715 21.0165ZM13.509 12.7335C13.558 12.7629 13.5976 12.8057 13.6231 12.8569C13.6486 12.908 13.659 12.9654 13.653 13.0223C13.6303 13.2569 13.6553 13.4938 13.7265 13.7186C13.7976 13.9434 13.9135 14.1514 14.0671 14.3303C14.2208 14.5091 14.409 14.6551 14.6205 14.7594C14.8319 14.8636 15.0623 14.924 15.2977 14.937C15.5267 14.9459 15.7552 14.9095 15.9702 14.8301C16.1851 14.7507 16.3823 14.6297 16.5505 14.474C16.7187 14.3183 16.8546 14.1311 16.9504 13.9229C17.0463 13.7147 17.1001 13.4897 17.109 13.2607C17.1179 13.0318 17.0815 12.8033 17.0021 12.5883C16.9227 12.3734 16.8017 12.1762 16.646 12.008C16.4903 11.8398 16.3031 11.7039 16.0949 11.6081C15.8867 11.5122 15.6617 11.4584 15.4327 11.4495C15.1645 11.4431 14.8983 11.4987 14.655 11.612C14.4118 11.7253 14.198 11.8932 14.0303 12.1027C13.9842 12.1596 13.9191 12.1976 13.847 12.2098C13.7749 12.2219 13.7008 12.2073 13.6387 12.1688L12.3488 11.3752C12.3048 11.3481 12.2685 11.3103 12.2432 11.2653C12.2179 11.2203 12.2044 11.1696 12.204 11.118V11.1053C12.204 10.965 12.3015 10.848 12.435 10.8127C12.8295 10.7101 13.1755 10.4723 13.4128 10.1408C13.65 9.80928 13.7634 9.40504 13.7333 8.9985C13.7008 8.5742 13.5148 8.17627 13.2101 7.87919C12.9055 7.58211 12.503 7.40624 12.078 7.3845C11.6573 7.36514 11.2439 7.4986 10.9139 7.76023C10.584 8.02186 10.3598 8.39401 10.2828 8.808C10.2057 9.22199 10.281 9.64987 10.4948 10.0127C10.7085 10.3755 11.0463 10.6487 11.4457 10.782C11.506 10.802 11.5585 10.8404 11.5958 10.8918C11.6331 10.9432 11.6533 11.005 11.6535 11.0685V11.1428C11.6535 11.2515 11.5935 11.3528 11.499 11.406L10.2705 12.0945C10.2114 12.128 10.1425 12.1403 10.0754 12.1294C10.0083 12.1185 9.94698 12.085 9.9015 12.0345C9.73488 11.8473 9.52981 11.6984 9.30031 11.5978C9.07081 11.4972 8.82229 11.4474 8.57175 11.4518C8.11543 11.4615 7.68094 11.649 7.36073 11.9742C7.04052 12.2995 6.85988 12.7368 6.85725 13.1932C6.85854 13.4315 6.90869 13.667 7.00459 13.8851C7.10049 14.1032 7.2401 14.2993 7.4148 14.4613C7.5895 14.6233 7.79558 14.7478 8.02028 14.827C8.24499 14.9062 8.48355 14.9384 8.72123 14.9218C8.9589 14.9051 9.19064 14.8399 9.4021 14.7302C9.61357 14.6204 9.80028 14.4684 9.95069 14.2836C10.1011 14.0989 10.212 13.8852 10.2766 13.6558C10.3411 13.4265 10.3579 13.1864 10.326 12.9503C10.318 12.8925 10.327 12.8336 10.3519 12.7809C10.3768 12.7281 10.4165 12.6838 10.4662 12.6533L11.742 11.8658C11.789 11.8366 11.8432 11.8211 11.8985 11.8208C11.9539 11.8205 12.0082 11.8356 12.0555 11.8643L13.509 12.7343V12.7335ZM11.9977 5.0145C10.9569 5.01472 9.95501 5.40995 9.19435 6.12035C8.43369 6.83076 7.971 7.80338 7.89975 8.84175C8.39387 8.76375 8.89755 8.76882 9.39 8.85675C9.45608 8.21139 9.75913 7.61346 10.2405 7.17859C10.7219 6.74373 11.3475 6.50284 11.9962 6.5025C12.6912 6.50329 13.3574 6.77987 13.8486 7.27148C14.3398 7.76309 14.6158 8.42955 14.616 9.1245C14.616 9.867 14.3063 10.5368 13.8098 11.013C14.1013 10.8005 14.4326 10.6489 14.784 10.5674C15.1354 10.4858 15.4997 10.4759 15.855 10.5382C16.0831 9.91734 16.158 9.25052 16.0731 8.59449C15.9882 7.93846 15.7462 7.31263 15.3675 6.77022C14.9889 6.22781 14.4849 5.78487 13.8983 5.47906C13.3117 5.17325 12.66 5.01362 11.9985 5.01375L11.9977 5.0145ZM8.59875 17.2575C9.88875 17.2575 11.037 16.6575 11.7833 15.72C11.4583 15.2586 11.226 14.7384 11.0992 14.1885C10.9003 14.6885 10.5558 15.1174 10.1104 15.4194C9.665 15.7215 9.13917 15.8829 8.601 15.8828C7.89479 15.871 7.22148 15.5821 6.72623 15.0786C6.23098 14.575 5.95344 13.8969 5.95344 13.1906C5.95344 12.4843 6.23098 11.8063 6.72623 11.3027C7.22148 10.7991 7.89479 10.5103 8.601 10.4985C9.19275 10.4985 9.73875 10.6905 10.182 11.0138C9.68507 10.538 9.39544 9.88569 9.37575 9.198C8.78673 9.08309 8.17958 9.1 7.59786 9.24751C7.01615 9.39503 6.47431 9.66949 6.01123 10.0512C5.54814 10.4329 5.1753 10.9124 4.91946 11.4553C4.66362 11.9981 4.53113 12.5909 4.5315 13.191C4.5314 13.7251 4.63654 14.254 4.84091 14.7475C5.04529 15.2409 5.34489 15.6893 5.7226 16.0669C6.1003 16.4446 6.54872 16.7441 7.04222 16.9484C7.53572 17.1527 8.06464 17.2577 8.59875 17.2575V17.2575ZM15.3907 17.2575C15.9501 17.4001 16.5334 17.4219 17.1019 17.3217C17.6704 17.2214 18.211 17.0013 18.6879 16.676C19.1648 16.3507 19.5669 15.9276 19.8677 15.4349C20.1684 14.9421 20.3608 14.391 20.4322 13.8182C20.5035 13.2454 20.4521 12.6639 20.2814 12.1125C20.1107 11.561 19.8246 11.0523 19.4421 10.6199C19.0596 10.1876 18.5894 9.84161 18.0629 9.60498C17.5364 9.36835 16.9655 9.24649 16.3882 9.2475C16.3765 9.71011 16.2909 10.1679 16.1348 10.6035C16.7577 10.7834 17.2949 11.1822 17.6474 11.7264C17.9999 12.2707 18.1442 12.9239 18.0537 13.566C17.9632 14.2081 17.6441 14.796 17.1548 15.2216C16.6656 15.6472 16.0392 15.882 15.3907 15.8828C14.7234 15.8824 14.08 15.6342 13.5853 15.1863C13.0906 14.7384 12.7798 14.1228 12.7133 13.4587C12.2563 13.5339 11.7903 13.5367 11.3325 13.467C11.4028 14.4954 11.8609 15.4588 12.6143 16.1624C13.3676 16.866 14.3599 17.2574 15.3907 17.2575V17.2575Z" fill="black"/>
</svg>
