<svg width="48" height="48" viewBox="0 0 24 24" fill="none" xmlns="http://www.w3.org/2000/svg">
<path d="M12 24C5.37225 24 0 18.6277 0 12C0 5.37225 5.37225 0 12 0C18.6277 0 24 5.37225 24 12C24 18.6277 18.6277 24 12 24ZM12 20.25C16.5562 20.25 20.25 16.5562 20.25 12C20.25 7.44375 16.5562 3.75 12 3.75C7.44375 3.75 3.75 7.44375 3.75 12C3.75 16.5562 7.44375 20.25 12 20.25ZM11.259 5.055C11.586 5.0325 11.9152 5.0175 12.243 5.00625C12.2467 5.679 12.2452 6.3525 12.243 7.02525L11.2605 7.02375C11.2605 6.3675 11.2605 5.71125 11.259 5.055V5.055ZM13.623 7.05525H13.6238C13.6223 6.4365 13.6223 5.81775 13.6268 5.19975C15.4493 5.6565 17.0722 6.8475 18.027 8.46825C19.1077 10.266 19.2892 12.5617 18.5235 14.5132C17.7165 16.6282 15.8198 18.2633 13.6223 18.7995C13.6238 18.1845 13.6252 17.571 13.6207 16.9567C14.6647 16.8577 15.8085 16.7663 16.653 16.0718C17.5058 15.3248 17.703 14.0535 17.4555 12.993C17.265 12.1837 16.5022 11.6707 15.732 11.4915C17.019 10.809 17.154 8.829 16.1033 7.88625C15.4148 7.3035 14.487 7.1715 13.623 7.05525V7.05525ZM7.0635 7.029C7.902 6.2925 8.8515 5.67225 9.918 5.3265C9.92325 5.9055 9.92175 6.4845 9.92175 7.0635C8.9685 7.065 8.01525 7.07475 7.06425 7.029H7.0635ZM5.952 8.5215C6.2295 8.00175 6.666 7.59 6.9405 7.0695C6.99 7.13325 7.008 7.2105 6.99375 7.3005C7.0005 7.69575 7.0065 8.09025 7.0635 8.481C7.54875 8.484 8.0415 8.4465 8.52225 8.54175C8.81325 8.59725 8.98875 8.8995 8.9715 9.17925C8.98725 10.9148 8.967 12.651 8.98125 14.3865C8.96625 14.6902 9.042 15.057 8.778 15.279C8.32575 15.4312 7.8375 15.3495 7.3695 15.3593C7.188 15.8595 7.06275 16.3807 7.05225 16.9117C8.00625 16.9642 8.96475 16.929 9.921 16.9387C9.921 17.5162 9.9225 18.0952 9.91875 18.6727C8.046 18.0705 6.44625 16.6725 5.64 14.8755C4.70625 12.8707 4.83225 10.4273 5.952 8.52075V8.5215ZM11.2995 8.59725C12.1305 8.62125 13.044 8.49525 13.7925 8.93925C14.4337 9.30375 14.4735 10.3335 13.8525 10.7393C13.104 11.2358 12.1553 11.1405 11.3003 11.1562V8.59725H11.2995ZM11.2995 12.5333H11.3003C12.3218 12.561 13.44 12.3862 14.3602 12.936C15.0375 13.3132 15.1162 14.391 14.4592 14.8275C13.5405 15.4643 12.3555 15.2865 11.3003 15.372V12.5325L11.2995 12.5333ZM11.2613 16.977H12.285C12.285 17.649 12.2865 18.321 12.2835 18.993C11.9412 18.984 11.5992 18.9688 11.2575 18.9473C11.2598 18.2903 11.2613 17.6332 11.2613 16.977Z" fill="black"/>
</svg>
