<svg width="48" height="48" viewBox="0 0 24 24" fill="none" xmlns="http://www.w3.org/2000/svg">
<path d="M8.12025 11.532L9.429 8.757L5.4225 12.765L4.5 13.686L7.4205 16.5795L6.8115 14.3055L8.12025 11.5312L6.8115 14.3063L10.893 10.224L9.429 8.75775L8.12025 11.532V11.532ZM12 24C5.37225 24 0 18.6277 0 12C0 5.37225 5.37225 0 12 0C18.6277 0 24 5.37225 24 12C24 18.6277 18.6277 24 12 24ZM9.6945 6.8115L13.776 10.893L10.314 4.5L7.419 7.4205L9.6945 6.8115V6.8115ZM14.3055 17.1885L10.224 13.107L13.686 19.5L16.5795 16.5795L14.3055 17.1885V17.1885ZM15.03 7.005L16.5795 7.419L17.19 9.693L13.107 13.776L14.571 15.2407L19.5 10.3125L18.2715 5.72775L13.686 4.5L13.107 5.08125L15.03 7.005ZM10.314 19.5L10.893 18.9188L8.97 16.9935L7.4205 16.5795L4.5 13.686L5.73 18.27L10.314 19.5ZM19.5 13.686L18.9188 13.107L16.995 15.03L16.5795 16.5795L13.686 19.5L18.2715 18.2715L19.5 13.686ZM4.5 10.314L5.08125 10.893L7.005 8.9685L7.419 7.4205L10.314 4.5L5.73 5.7285L4.5 10.314ZM15.24 9.42675L11.235 5.42325L10.314 4.5L13.776 10.893L15.2407 9.42675H15.24ZM8.76 14.5718L13.6852 19.5L10.2232 13.107L8.7585 14.571L8.76 14.5718Z" fill="black"/>
</svg>
