<svg width="24" height="24" viewBox="0 0 24 24" fill="none" xmlns="http://www.w3.org/2000/svg">
<path d="M12 24C18.6274 24 24 18.6274 24 12C24 5.37258 18.6274 0 12 0C5.37258 0 0 5.37258 0 12C0 18.6274 5.37258 24 12 24Z" fill="#35BAEB"/>
<path fill-rule="evenodd" clip-rule="evenodd" d="M8.25 9.9015L11.4075 13.1595C11.2784 13.3538 11.1906 13.5726 11.1495 13.8022H8.25V9.90225V9.9015ZM8.25 9.0255V3.75L12.4545 7.60425V12.4553C12.2304 12.4985 12.0181 12.5893 11.832 12.7215L8.25 9.0255ZM16.146 17.172L14.1022 15.0645C14.2312 14.8701 14.319 14.6514 14.3602 14.4218H17.25C17.1877 15.4335 16.8005 16.398 16.146 17.172V17.172ZM15.7208 17.6108C14.9858 18.2797 14.0466 18.681 13.0552 18.75V15.7687C13.2794 15.7255 13.4917 15.6347 13.6777 15.5025L15.7208 17.61V17.6108ZM8.25975 14.4218H11.1495C11.1915 14.6565 11.2815 14.874 11.4075 15.0637L9.3645 17.172C8.7097 16.3981 8.32224 15.4335 8.25975 14.4218V14.4218ZM17.25 13.8022H14.3602C14.3191 13.5726 14.2313 13.3538 14.1022 13.1595L16.146 11.052C16.8004 11.8258 17.1876 12.7901 17.25 13.8015V13.8022ZM9.789 17.6108L11.832 15.5025C12.0158 15.6323 12.2273 15.7245 12.4545 15.7687V18.75C11.463 18.6808 10.5239 18.2792 9.789 17.61V17.6108ZM15.7215 10.6133L13.6777 12.7208C13.4916 12.5888 13.2793 12.4983 13.0552 12.4553V9.474C14.0466 9.54295 14.9858 9.94435 15.7208 10.6133H15.7215Z" fill="white"/>
</svg>
