<svg width="24" height="24" viewBox="0 0 24 24" fill="none" xmlns="http://www.w3.org/2000/svg">
<path d="M12 24C18.6274 24 24 18.6274 24 12C24 5.37258 18.6274 0 12 0C5.37258 0 0 5.37258 0 12C0 18.6274 5.37258 24 12 24Z" fill="#FB2EA3"/>
<path d="M16.974 10.515C16.8038 11.6663 16.1655 12.2235 15.3187 12.4185C16.4812 13.0238 17.0738 13.953 16.5098 15.5625C15.81 17.562 14.148 17.73 11.9377 17.3123L11.4 19.4625L10.104 19.1393L10.6335 17.0183C10.288 16.9325 9.94352 16.843 9.6 16.7498L9.069 18.8813L7.77375 18.5588L8.31075 16.404C8.00775 16.3268 7.70025 16.2443 7.386 16.1655L5.69925 15.7455L6.34275 14.2605C6.34275 14.2605 7.29825 14.5155 7.28475 14.496C7.65225 14.5868 7.815 14.3475 7.8795 14.1885L8.727 10.7895L8.86425 10.8233C8.82024 10.806 8.77514 10.7918 8.72925 10.7805L9.33375 8.35425C9.3495 8.07825 9.255 7.73175 8.73 7.59975C8.75025 7.58625 7.788 7.36575 7.788 7.36575L8.133 5.98125L9.921 6.4275L9.9195 6.435C10.188 6.501 10.4655 6.56475 10.7475 6.62925L11.2792 4.5L12.5752 4.8225L12.0547 6.9105C12.402 6.99 12.7523 7.0695 13.0928 7.155L13.6102 5.08125L14.9063 5.40375L14.3752 7.53375C16.0125 8.09775 17.2095 8.943 16.974 10.515V10.515ZM14.0115 14.6685C14.4315 12.99 11.613 12.5558 10.734 12.336L10.0222 15.1898C10.9012 15.408 13.6118 16.2788 14.0123 14.6685H14.0115ZM14.4127 10.4918C14.7937 8.964 12.4373 8.62425 11.7053 8.44125L11.0602 11.0295C11.7915 11.2125 14.0475 11.9565 14.4127 10.4918ZM18.1852 16.2135C18.1224 16.2051 18.0585 16.2092 17.9973 16.2255C17.936 16.2419 17.8786 16.2702 17.8283 16.3088C17.7308 16.3923 17.6647 16.5066 17.6408 16.6328C17.6254 16.7029 17.6203 16.7749 17.6257 16.8465C17.6322 16.9281 17.6584 17.0069 17.7023 17.076C17.7473 17.151 17.8193 17.2215 17.9168 17.2875C18.0143 17.3528 18.1493 17.4053 18.3218 17.445C18.4148 17.4675 18.5108 17.478 18.609 17.4773C18.708 17.4773 18.7995 17.4615 18.8835 17.43C18.9723 17.3986 19.0515 17.3448 19.1133 17.2737C19.1751 17.2025 19.2174 17.1166 19.236 17.0243C19.2537 16.9584 19.2582 16.8897 19.2492 16.8221C19.2401 16.7545 19.2178 16.6894 19.1835 16.6305C19.1145 16.515 19.0013 16.4265 18.843 16.365L18.9585 15.8655C19.2435 15.9803 19.443 16.1445 19.5585 16.3568C19.674 16.5698 19.698 16.8225 19.6305 17.115C19.5963 17.2772 19.5286 17.4305 19.4318 17.565C19.3447 17.6836 19.2331 17.7822 19.1046 17.8539C18.9761 17.9256 18.8337 17.9687 18.687 17.9805C18.5257 17.9951 18.363 17.9832 18.2055 17.9453C18.0435 17.9091 17.8879 17.8484 17.7443 17.7653C17.6118 17.6894 17.4962 17.5873 17.4045 17.4653C17.3153 17.344 17.2543 17.2043 17.226 17.0565C17.1957 16.8869 17.2021 16.7127 17.2448 16.5458C17.2735 16.419 17.3197 16.2968 17.382 16.1828C17.4428 16.0718 17.517 15.978 17.6063 15.9015C17.6948 15.825 17.7968 15.7695 17.9123 15.735C18.0285 15.6998 18.1575 15.693 18.3007 15.7133L18.1852 16.2135V16.2135ZM20.2043 14.6288C20.1689 14.7955 20.1003 14.9534 20.0025 15.093C19.9102 15.2205 19.8 15.321 19.6725 15.3953C19.5406 15.4702 19.3945 15.5167 19.2435 15.5318C19.076 15.5485 18.9069 15.5368 18.7432 15.4973C18.5802 15.4613 18.4245 15.3979 18.2828 15.3098C18.1538 15.2301 18.0429 15.1243 17.9573 14.9993C17.8732 14.8736 17.8169 14.7314 17.7923 14.5823C17.7658 14.4142 17.7735 14.2425 17.8147 14.0775C17.8501 13.9108 17.9187 13.7529 18.0165 13.6133C18.1095 13.4858 18.219 13.3845 18.3472 13.311C18.4792 13.2361 18.6253 13.1896 18.7763 13.1745C18.9338 13.1573 19.0988 13.1685 19.2713 13.2083C19.4357 13.2442 19.5929 13.3076 19.7363 13.3958C19.8713 13.4813 19.9793 13.5848 20.0618 13.707C20.1443 13.8293 20.199 13.968 20.2267 14.1233C20.2533 14.2915 20.2456 14.4635 20.2043 14.6288V14.6288ZM18.2362 12.5303L18.345 12.0615L18.783 12.1627L18.7853 12.1538C18.7241 12.1223 18.6698 12.0789 18.6255 12.0263C18.5237 11.9079 18.4563 11.7639 18.4305 11.61C18.4179 11.5322 18.4205 11.4528 18.438 11.376C18.4516 11.3127 18.4707 11.2507 18.495 11.1908L18.9772 11.3018C18.9632 11.3362 18.95 11.371 18.9375 11.406C18.9249 11.4406 18.9144 11.4759 18.906 11.5118C18.8853 11.594 18.8834 11.68 18.9006 11.7631C18.9177 11.8462 18.9534 11.9244 19.005 11.9918C19.0634 12.0672 19.1357 12.1309 19.218 12.1793C19.3073 12.234 19.4145 12.276 19.5405 12.3053L20.619 12.5543L20.5035 13.0538L18.2362 12.5303V12.5303ZM19.9462 10.8878C20.0332 10.9088 20.121 10.9155 20.2088 10.9103C20.2921 10.905 20.3736 10.8836 20.4488 10.8473C20.5233 10.8108 20.5887 10.758 20.64 10.6928C20.6979 10.6164 20.7379 10.5279 20.757 10.434C20.7918 10.3107 20.7874 10.1796 20.7443 10.059C20.6955 9.94795 20.6128 9.85524 20.508 9.79425L20.6167 9.321C20.7794 9.39495 20.9185 9.51251 21.0184 9.66065C21.1184 9.80879 21.1753 9.98171 21.183 10.1603C21.1905 10.2803 21.18 10.4018 21.1523 10.5248C21.111 10.7033 21.045 10.8548 20.955 10.9785C20.8685 11.1 20.7561 11.2007 20.6258 11.2734C20.4956 11.346 20.3508 11.3887 20.202 11.3985C19.8735 11.4248 19.545 11.3471 19.263 11.1765C19.1341 11.0959 19.0216 10.9915 18.9315 10.869C18.8438 10.748 18.7822 10.6101 18.7508 10.464C18.717 10.3155 18.7207 10.1565 18.759 9.98625C18.7948 9.81875 18.8713 9.66265 18.9817 9.53175C19.0852 9.41041 19.214 9.31314 19.359 9.24675C19.5073 9.18109 19.6671 9.14541 19.8293 9.14175C19.9988 9.13575 20.1652 9.16275 20.3302 9.222L19.9455 10.8885L19.9462 10.8878ZM19.8097 14.538C19.8345 14.4419 19.8345 14.3411 19.8099 14.245C19.7852 14.1489 19.7367 14.0606 19.6687 13.9883C19.6032 13.9167 19.5255 13.8573 19.4393 13.8128C19.2603 13.7186 19.0601 13.6721 18.858 13.6778C18.761 13.6796 18.6652 13.6992 18.5752 13.7355C18.4829 13.7711 18.401 13.8294 18.3372 13.9051C18.2733 13.9807 18.2296 14.0712 18.21 14.1683C18.185 14.264 18.1846 14.3645 18.2087 14.4604C18.2328 14.5564 18.2807 14.6447 18.348 14.7173C18.4103 14.7878 18.4868 14.8455 18.5775 14.8928C18.7566 14.9865 18.9567 15.033 19.1587 15.0278C19.2559 15.0254 19.3519 15.0058 19.4423 14.97C19.5349 14.9348 19.6172 14.8767 19.6815 14.8012C19.7457 14.7257 19.7898 14.6351 19.8097 14.538V14.538ZM19.8863 9.64575C19.8068 9.63334 19.7259 9.63258 19.6463 9.6435C19.5704 9.65199 19.497 9.67537 19.4302 9.71231C19.3634 9.74925 19.3045 9.79901 19.257 9.85875C19.2078 9.92523 19.1725 10.0009 19.1532 10.0813C19.1339 10.1617 19.1309 10.2452 19.1445 10.3268C19.1595 10.4055 19.1873 10.4768 19.2293 10.5405C19.3218 10.6746 19.4594 10.7712 19.617 10.8128L19.8863 9.64575Z" fill="white"/>
</svg>
