<svg width="48" height="48" viewBox="0 0 24 24" fill="none" xmlns="http://www.w3.org/2000/svg">
<path fill-rule="evenodd" clip-rule="evenodd" d="M12 24C5.37225 24 0 18.6277 0 12C0 5.37225 5.37225 0 12 0C18.6277 0 24 5.37225 24 12C24 18.6277 18.6277 24 12 24ZM16.974 10.515C17.2095 8.943 16.0125 8.09775 14.3752 7.53375L14.9062 5.40375L13.6102 5.08125L13.0928 7.155C12.7523 7.0695 12.4027 6.99 12.0547 6.9105L12.5753 4.82325L11.2792 4.5L10.7483 6.62925C10.4663 6.56475 10.1888 6.50175 9.92025 6.43425L9.92175 6.4275L8.13375 5.98125L7.78875 7.36575C7.78875 7.36575 8.751 7.58625 8.73075 7.59975C9.25575 7.731 9.35025 8.07825 9.3345 8.35425L8.73 10.7805C8.766 10.7895 8.8125 10.803 8.865 10.8232L8.72775 10.7895L7.88025 14.1885C7.81575 14.3475 7.653 14.5867 7.2855 14.496C7.299 14.5147 6.3435 14.2612 6.3435 14.2612L5.7 15.7448L7.3875 16.1655C7.701 16.2443 8.0085 16.3267 8.3115 16.404L7.7745 18.558L9.06975 18.8805L9.60075 16.7505C9.95475 16.8457 10.2982 16.9342 10.6342 17.0182L10.1047 19.1392L11.4008 19.4617L11.9377 17.3123C14.148 17.7308 15.81 17.562 16.5098 15.5625C17.0738 13.953 16.482 13.0238 15.3187 12.4185C16.1662 12.2235 16.8037 11.6663 16.974 10.515ZM14.0115 14.6685C13.6117 16.2788 10.9012 15.408 10.0222 15.1898L10.7347 12.336C11.6122 12.5557 14.4308 12.99 14.0123 14.6685H14.0115ZM14.4127 10.4918C14.0475 11.9565 11.7915 11.2118 11.0602 11.0295L11.7053 8.442C12.4373 8.62425 14.7937 8.964 14.4127 10.4918ZM18.1852 16.2135L18.3007 15.7133C18.1712 15.6919 18.0386 15.6993 17.9122 15.735C17.7967 15.7695 17.6948 15.825 17.6063 15.9015C17.5151 15.9811 17.4389 16.0763 17.3812 16.1827C17.3192 16.2968 17.2732 16.419 17.2448 16.5458C17.2022 16.7125 17.1958 16.8864 17.226 17.0557C17.2568 17.2095 17.316 17.346 17.4045 17.4645C17.4922 17.5837 17.6055 17.6835 17.7443 17.7645C17.8823 17.8463 18.0368 17.9063 18.2055 17.9453C18.372 17.9835 18.5325 17.9955 18.687 17.9805C18.8336 17.9688 18.976 17.9258 19.1045 17.8542C19.233 17.7826 19.3446 17.6843 19.4318 17.5657C19.5233 17.4435 19.5892 17.2935 19.6305 17.115C19.698 16.8225 19.674 16.5697 19.5585 16.3575C19.443 16.1445 19.2435 15.9802 18.9585 15.8655L18.843 16.365C19.0013 16.4265 19.1145 16.515 19.1835 16.6305C19.2525 16.7467 19.2698 16.878 19.236 17.0242C19.2172 17.1165 19.1749 17.2022 19.1131 17.2732C19.0514 17.3442 18.9722 17.398 18.8835 17.4293C18.7956 17.4614 18.7026 17.4777 18.609 17.4772C18.5108 17.4772 18.414 17.4667 18.321 17.4457C18.1776 17.4177 18.0404 17.3641 17.916 17.2875C17.8304 17.2332 17.7575 17.161 17.7023 17.076C17.6584 17.0069 17.6322 16.9281 17.6257 16.8465C17.6205 16.7677 17.6257 16.6965 17.6407 16.6328C17.6647 16.5066 17.7308 16.3923 17.8282 16.3088C17.8786 16.2701 17.936 16.2419 17.9973 16.2255C18.0585 16.2092 18.1224 16.2051 18.1852 16.2135V16.2135ZM20.2042 14.6287C20.2456 14.4635 20.2533 14.2915 20.2267 14.1232C20.202 13.9743 20.1457 13.8324 20.0618 13.707C19.9761 13.5819 19.8652 13.4762 19.7363 13.3965C19.593 13.3079 19.4358 13.2443 19.2712 13.2083C19.1093 13.1691 18.942 13.1577 18.7762 13.1745C18.6253 13.1896 18.4792 13.2361 18.3472 13.311C18.2197 13.3845 18.1095 13.4857 18.0165 13.6132C17.9187 13.7529 17.8501 13.9108 17.8148 14.0775C17.7735 14.2425 17.7658 14.4142 17.7922 14.5823C17.82 14.7383 17.8748 14.877 17.9573 14.9993C18.0398 15.1215 18.1485 15.2243 18.2828 15.3098C18.4178 15.3945 18.5707 15.4568 18.7432 15.4973C18.9187 15.5378 19.0853 15.549 19.2435 15.5317C19.3942 15.5166 19.5401 15.4701 19.6718 15.3953C19.8021 15.3189 19.9148 15.2159 20.0025 15.093C20.1005 14.9535 20.1694 14.7955 20.205 14.6287H20.2042ZM18.2363 12.5303L20.5035 13.0538L20.619 12.5543L19.5405 12.3052C19.427 12.2811 19.3181 12.2388 19.218 12.18C19.1357 12.1316 19.0634 12.068 19.005 11.9925C18.9534 11.9251 18.9177 11.847 18.9006 11.7638C18.8834 11.6807 18.8853 11.5948 18.906 11.5125C18.9135 11.4765 18.9247 11.4413 18.9375 11.406L18.9772 11.3018L18.495 11.1907L18.4703 11.2567C18.4628 11.2777 18.4515 11.3175 18.438 11.3767C18.4206 11.4533 18.418 11.5325 18.4305 11.61C18.4562 11.7642 18.5236 11.9084 18.6255 12.027C18.6698 12.0794 18.7241 12.1225 18.7853 12.1537L18.783 12.1627L18.345 12.0615L18.2363 12.5303V12.5303ZM19.9462 10.8878L20.3303 9.22275C20.17 9.16362 19.9999 9.13586 19.8292 9.141C19.667 9.14513 19.5072 9.18132 19.359 9.2475C19.215 9.31275 19.089 9.40725 18.9818 9.5325C18.8714 9.66319 18.7949 9.81902 18.759 9.98625C18.7202 10.1431 18.7174 10.3067 18.7507 10.4648C18.7837 10.614 18.8445 10.749 18.9315 10.869C19.0193 10.989 19.1295 11.0918 19.263 11.1765C19.5453 11.347 19.874 11.4244 20.2028 11.3977C20.3516 11.388 20.4963 11.3452 20.6266 11.2726C20.7568 11.2 20.8693 11.0992 20.9557 10.9778C21.0457 10.854 21.111 10.7032 21.1522 10.5247C21.18 10.4017 21.1905 10.2802 21.183 10.1602C21.1762 10.0436 21.1495 9.92896 21.1042 9.82125C21.0095 9.59977 20.8357 9.42147 20.6168 9.321L20.508 9.7935C20.6128 9.85481 20.6955 9.94775 20.7443 10.059C20.7874 10.1796 20.7918 10.3107 20.757 10.434C20.7379 10.5279 20.6979 10.6164 20.64 10.6927C20.5889 10.7579 20.5238 10.8107 20.4495 10.8473C20.3741 10.8835 20.2923 10.9046 20.2087 10.9095C20.1207 10.9155 20.0322 10.9084 19.9462 10.8885V10.8878ZM19.8098 14.538C19.7898 14.6351 19.7457 14.7256 19.6814 14.8012C19.6172 14.8767 19.5349 14.9348 19.4423 14.97C19.3518 15.0055 19.2559 15.0248 19.1588 15.027C18.9567 15.0329 18.7565 14.9867 18.5775 14.8928C18.4909 14.8487 18.4132 14.7893 18.348 14.7172C18.2806 14.6448 18.2325 14.5565 18.2083 14.4605C18.184 14.3646 18.1844 14.264 18.2092 14.1683C18.2289 14.0711 18.2728 13.9806 18.3367 13.9049C18.4007 13.8293 18.4828 13.771 18.5753 13.7355C18.6615 13.7002 18.756 13.6808 18.858 13.6785C19.06 13.673 19.2601 13.7192 19.4393 13.8127C19.5255 13.8573 19.6032 13.9167 19.6688 13.9882C19.7367 14.0606 19.7852 14.1489 19.8099 14.245C19.8345 14.3411 19.8345 14.4419 19.8098 14.538V14.538ZM19.8862 9.64575L19.6163 10.8127C19.4589 10.7711 19.3217 10.6745 19.2292 10.5405C19.1865 10.4759 19.1577 10.4031 19.1445 10.3268C19.1309 10.2452 19.1339 10.1617 19.1532 10.0813C19.1725 10.0009 19.2078 9.92523 19.257 9.85875C19.3046 9.79893 19.3636 9.74911 19.4305 9.71217C19.4974 9.67523 19.571 9.65189 19.647 9.6435C19.7257 9.633 19.806 9.63375 19.8862 9.64575V9.64575Z" fill="black"/>
</svg>
