<svg width="48" height="48" viewBox="0 0 24 24" fill="none" xmlns="http://www.w3.org/2000/svg">
<path fill-rule="evenodd" clip-rule="evenodd" d="M12 24C5.37225 24 0 18.6277 0 12C0 5.37225 5.37225 0 12 0C18.6277 0 24 5.37225 24 12C24 18.6277 18.6277 24 12 24ZM8.7795 14.472L9.17325 12.7545H10.32L9.37275 18H13.029C15.2917 18 16.686 16.9898 17.028 15.0953L17.199 14.1465C17.4202 12.9195 17.124 12.069 16.245 11.6183C17.133 11.184 17.6497 10.4318 17.8545 9.30075L17.9295 8.88375C18.2798 6.94125 17.3317 6 14.9925 6H11.538L10.6815 10.7468L7.248 10.7445L6.8655 12.5767H3L8.7795 14.472ZM12.579 12.4117H13.6965C14.8312 12.4117 15.2318 12.8722 15.0233 14.0295L14.8395 15.045C14.676 15.9502 14.1945 16.3342 13.3298 16.3342H11.871L12.579 12.4117ZM13.4363 7.665H14.6325C15.5175 7.665 15.8677 8.13 15.699 9.066L15.5812 9.71625C15.4087 10.6747 14.8433 11.0887 13.8773 11.0887H12.8175L13.4363 7.665Z" fill="black"/>
</svg>
