<svg width="24" height="24" viewBox="0 0 24 24" fill="none" xmlns="http://www.w3.org/2000/svg">
<path d="M12 24C18.6274 24 24 18.6274 24 12C24 5.37258 18.6274 0 12 0C5.37258 0 0 5.37258 0 12C0 18.6274 5.37258 24 12 24Z" fill="#F70808"/>
<path d="M12 4.5L10.755 6.762C10.614 7.008 10.3612 6.9855 10.1077 6.84825L9.20774 6.393L9.87824 9.86775C10.02 10.503 9.56699 10.503 9.34349 10.2278L7.76999 8.5125L7.51499 9.384C7.48499 9.49875 7.35599 9.61875 7.16174 9.59025L5.17424 9.18225L5.69549 11.0333C5.80799 11.445 5.89499 11.6152 5.58299 11.7232L4.87424 12.0488L8.29649 14.7578C8.36451 14.8094 8.41565 14.8801 8.44342 14.9609C8.47119 15.0417 8.47435 15.1289 8.45249 15.2115L8.15249 16.17C9.33149 16.0372 10.3875 15.8385 11.5665 15.7155C11.6707 15.705 11.8447 15.8722 11.844 15.99L11.6887 19.5H12.2617L12.1717 15.9975C12.171 15.8797 12.3292 15.705 12.4327 15.7155C13.6117 15.8385 14.6677 16.038 15.846 16.17L15.5467 15.2115C15.5248 15.1289 15.5279 15.0417 15.5557 14.9609C15.5834 14.8801 15.6346 14.8094 15.7027 14.7578L19.125 12.0488L18.4162 11.724C18.1042 11.6152 18.1912 11.445 18.3037 11.0333L18.8257 9.18225L16.8375 9.59025C16.6432 9.61875 16.5135 9.49875 16.485 9.384L16.2292 8.5125L14.6565 10.2285C14.433 10.503 13.98 10.503 14.1217 9.8685L14.793 6.393L13.8922 6.84825C13.6387 6.9855 13.386 7.008 13.245 6.762L12 4.5Z" fill="white"/>
</svg>
