<svg width="48" height="48" viewBox="0 0 24 24" fill="none" xmlns="http://www.w3.org/2000/svg">
<path fill-rule="evenodd" clip-rule="evenodd" d="M12 24C5.37225 24 0 18.6277 0 12C0 5.37225 5.37225 0 12 0C18.6277 0 24 5.37225 24 12C24 18.6277 18.6277 24 12 24ZM12 4.5L10.755 6.762C10.614 7.008 10.3613 6.9855 10.1078 6.84825L9.20775 6.393L9.87825 9.86775C10.02 10.503 9.567 10.503 9.3435 10.2278L7.77 8.5125L7.515 9.384C7.485 9.49875 7.356 9.61875 7.16175 9.59025L5.17425 9.18225L5.6955 11.0333C5.808 11.445 5.895 11.6152 5.583 11.7232L4.87425 12.0488L8.2965 14.7578C8.36452 14.8094 8.41566 14.8801 8.44343 14.9609C8.47121 15.0417 8.47436 15.1289 8.4525 15.2115L8.1525 16.17C9.3315 16.0372 10.3875 15.8385 11.5665 15.7155C11.6707 15.705 11.8447 15.8722 11.844 15.99L11.6888 19.5H12.2618L12.1718 15.9975C12.171 15.8797 12.3292 15.705 12.4327 15.7155C13.6117 15.8385 14.6678 16.038 15.846 16.17L15.5468 15.2115C15.5248 15.1289 15.5279 15.0417 15.5557 14.9609C15.5835 14.8801 15.6347 14.8094 15.7028 14.7578L19.125 12.0488L18.4163 11.724C18.1043 11.6152 18.1913 11.445 18.3038 11.0333L18.8257 9.18225L16.8375 9.59025C16.6433 9.61875 16.5135 9.49875 16.485 9.384L16.2292 8.5125L14.6565 10.2285C14.433 10.503 13.98 10.503 14.1218 9.8685L14.793 6.393L13.8923 6.84825C13.6388 6.9855 13.386 7.008 13.245 6.762L12 4.5Z" fill="black"/>
</svg>
