<svg width="48" height="48" viewBox="0 0 24 24" fill="none" xmlns="http://www.w3.org/2000/svg">
<path d="M12 24C5.37225 24 0 18.6277 0 12C0 5.37225 5.37225 0 12 0C18.6277 0 24 5.37225 24 12C24 18.6277 18.6277 24 12 24ZM7.1325 8.808L11.9145 6.057L16.6845 8.814L11.9145 11.5717L7.13325 8.808H7.1325ZM16.8645 8.7105L19.3073 7.2855L11.9145 3L4.5 7.2855V15.8572L11.9145 20.1428L19.3073 15.8572L16.686 14.3287L11.9145 17.0858L7.122 14.3287V11.8568L11.922 14.6287L16.7355 11.8425V14.3287L19.3282 15.8572V7.2855L16.8645 8.7105V8.7105Z" fill="black"/>
</svg>
