<svg width="48" height="48" viewBox="0 0 24 24" fill="none" xmlns="http://www.w3.org/2000/svg">
<path d="M10.161 19.056C10.9148 19.3065 11.7022 19.4423 12.516 19.4858C13.0472 19.5192 13.5805 19.4986 14.1075 19.4243C15.0008 19.2972 15.8612 18.9993 16.6417 18.5468C16.8442 18.429 17.0332 18.2903 17.2245 18.1635L14.9205 15.885C14.8957 15.9038 14.8657 15.9292 14.8335 15.9487C14.6055 16.0867 14.3887 16.2502 14.1465 16.3552C13.476 16.6462 12.774 16.7093 12.063 16.5983C11.429 17.4175 10.795 18.2368 10.161 19.056V19.056ZM9.4365 18.774C9.43958 18.7356 9.44869 18.6979 9.4635 18.6622L10.5472 16.0447C10.2319 15.8449 9.94784 15.5995 9.70425 15.3165C9.31304 14.8687 9.01021 14.3508 8.81175 13.7902L8.72775 13.8007C8.397 13.8442 8.16825 13.4872 8.35425 13.2172L8.58525 12.882C8.54681 12.6327 8.52451 12.3812 8.5185 12.129C8.5065 11.6385 8.56275 11.154 8.68125 10.6778C8.961 9.5535 9.55875 8.6415 10.5562 8.00775C11.0998 7.66011 11.72 7.4503 12.363 7.3965C13.006 6.463 13.649 5.5295 14.292 4.596C13.9942 4.54875 13.692 4.51875 13.3845 4.506C12.8873 4.4835 12.3848 4.527 11.8875 4.569C11.2291 4.62805 10.5818 4.77693 9.96375 5.0115C8.661 5.4975 7.56 6.25425 6.7215 7.359C5.81325 8.5575 5.3625 9.9195 5.27025 11.4C5.23425 11.9775 5.24475 12.5565 5.31675 13.131C5.4105 13.8727 5.59875 14.5905 5.90625 15.276C6.50175 16.602 7.42425 17.6437 8.6895 18.3885C8.934 18.5325 9.183 18.6607 9.4365 18.774ZM15.0187 4.7505C15.0343 4.82046 15.0291 4.89346 15.0037 4.9605L14.9783 5.0265L14.016 7.55775C14.3347 7.65825 14.6355 7.80525 14.916 8.00475C15.0075 8.06925 15.0548 8.05725 15.1298 7.98225C15.8108 7.30725 16.4948 6.63525 17.1788 5.96175C17.2005 5.94075 17.2185 5.91675 17.25 5.88075L17.1877 5.83725C17.0887 5.76 16.9942 5.67675 16.8907 5.60625C16.3193 5.21771 15.6865 4.9284 15.0187 4.7505V4.7505ZM12 24C5.37225 24 0 18.6277 0 12C0 5.37225 5.37225 0 12 0C18.6277 0 24 5.37225 24 12C24 18.6277 18.6277 24 12 24ZM12.2407 12.9615L9.8235 18.8032L9.85575 18.8257L16.5308 10.1932L12.3488 10.8532L14.64 4.83075L14.607 4.81575L8.676 13.4272L12.2407 12.9623V12.9615Z" fill="black"/>
</svg>
