<svg width="24" height="24" viewBox="0 0 24 24" fill="none" xmlns="http://www.w3.org/2000/svg">
<path d="M12 24C18.6274 24 24 18.6274 24 12C24 5.37258 18.6274 0 12 0C5.37258 0 0 5.37258 0 12C0 18.6274 5.37258 24 12 24Z" fill="#0576B4"/>
<path d="M18.5013 14.1473L17.707 13.65L19.4395 13.6298L19.4755 13.6103V13.629L20.191 13.6215L18.9768 15.597L18.868 14.6445L13.345 17.6918L11.2503 14.895L5.37776 17.9895V17.2845L11.4325 14.0948L13.5265 16.8915L18.502 14.1473H18.5013ZM10.9173 13.4685L8.62226 14.6768V6.483H10.9173V13.4685ZM17.407 13.8293L15.112 15.1043V6.483H17.407V13.8293Z" fill="white"/>
<path opacity="0.5" d="M14.1623 15.6323L13.6695 15.9053L11.8665 13.4978V7.4205H14.1615V15.6323H14.1623ZM7.67175 15.177L5.37675 16.386V8.484H7.67175V15.177V15.177Z" fill="white"/>
</svg>
