<svg width="24" height="24" viewBox="0 0 24 24" fill="none" xmlns="http://www.w3.org/2000/svg">
<path d="M12 24C18.6274 24 24 18.6274 24 12C24 5.37258 18.6274 0 12 0C5.37258 0 0 5.37258 0 12C0 18.6274 5.37258 24 12 24Z" fill="#20C5D3"/>
<path d="M13.3575 5.9025V5.83575C13.4903 5.7795 13.7535 5.72625 14.2065 5.84775C14.7248 5.98725 15.1253 6.50775 15.309 6.78825L15.3075 6.96825C15.2985 7.9725 14.979 10.4535 14.4255 12.3135C13.9418 13.9387 12.8865 16.101 12.672 16.533C12.5666 16.5098 12.4599 16.493 12.3525 16.4827C12.4418 15.9345 12.831 13.4925 13.0763 11.2672C13.3365 8.90625 13.3568 6.56475 13.3568 5.90325L13.3575 5.9025ZM15.5318 6.9705V6.96225C15.7268 6.95775 16.1588 6.993 16.6515 7.31025C17.1285 7.617 17.3745 8.2005 17.4765 8.514L17.4293 8.69925C17.313 9.15075 16.452 11.478 15.5258 13.2322C14.7398 14.7187 13.485 16.3635 13.2113 16.716C13.1081 16.6669 13.0015 16.625 12.8925 16.5908C13.1475 16.0755 14.1653 13.9725 14.64 12.3757C15.1995 10.4962 15.522 7.98675 15.5318 6.9705V6.9705ZM15.7245 13.3335C16.6065 11.6632 17.4975 9.3195 17.6445 8.76075C17.8388 8.83125 18.2558 9.018 18.5273 9.3885C18.7598 9.705 18.8355 10.1332 18.8603 10.4025L18.7695 10.614C18.594 11.0213 17.5245 12.8977 16.4468 14.235C15.5138 15.393 14.112 16.767 13.776 17.0925C13.6629 16.991 13.5404 16.9006 13.41 16.8225C13.7258 16.4145 14.9498 14.7997 15.7245 13.3335V13.3335ZM8.25375 7.1445L8.2275 6.939C8.34975 6.67275 8.61975 6.22875 9.1365 5.9925C9.699 5.736 10.1363 5.80575 10.332 5.86275L10.3335 5.907C10.3485 6.35325 10.4663 8.55 10.7535 11.1428C11.0175 13.515 11.4428 16.038 11.5245 16.5173C11.412 16.5375 11.3018 16.5652 11.1938 16.5997C10.9853 16.1572 10.0568 14.1472 9.43275 12.1335C8.73675 9.88725 8.33775 7.80225 8.25375 7.1445V7.1445ZM10.557 5.8995L10.554 5.79675C10.7595 5.61225 11.238 5.25 11.8365 5.25C12.4335 5.25 12.9225 5.61225 13.1333 5.7975V5.9025C13.1333 6.56175 13.113 8.8935 12.8535 11.2425C12.6053 13.4955 12.2085 15.9728 12.1275 16.4708L12.069 16.4692C11.961 16.4692 11.8538 16.4753 11.7465 16.4858C11.667 16.0245 11.2403 13.4955 10.9763 11.1187C10.6898 8.53275 10.5728 6.3435 10.557 5.89875V5.8995ZM12.069 16.6898C13.2818 16.6898 13.8405 17.4255 14.0093 17.706C13.0905 18.351 12.3428 18.75 12.0788 18.75C11.8148 18.75 11.1585 18.42 10.1265 17.6738C10.2915 17.4075 10.848 16.6898 12.069 16.6898ZM18.9698 10.7137C19.1543 10.8337 19.533 11.157 19.4978 11.7787C19.4513 12.5977 18.0465 14.2207 16.2825 15.8625C15.6211 16.4769 14.9222 17.0497 14.19 17.5778C14.1148 17.4605 14.0292 17.3503 13.9343 17.2485C14.2763 16.9177 15.6833 15.5385 16.6223 14.3723C17.7023 13.0328 18.777 11.151 18.9698 10.7137V10.7137ZM5.115 10.5547C5.06038 10.4191 5.00862 10.2823 4.95975 10.1445C4.9588 9.90156 5.01806 9.66218 5.13225 9.44775C5.38875 8.98275 6.03975 8.76975 6.29775 8.7015L6.29925 8.706L6.327 8.8035C6.5145 9.45675 6.9525 10.9875 8.106 13.2C9.13575 15.1748 10.2548 16.5398 10.5683 16.905C10.4842 16.9624 10.4041 17.0253 10.3283 17.0933C9.26995 16.1769 8.28935 15.1745 7.3965 14.0963C6.285 12.7523 5.51775 11.5612 5.115 10.5547V10.5547ZM10.17 17.2507C10.0875 17.3407 10.0125 17.4382 9.945 17.5417C9.29474 17.0568 8.66184 16.549 8.0475 16.0192C5.7885 14.088 4.5525 12.7448 4.503 11.8965C4.4655 11.2493 4.794 10.884 4.953 10.7468C5.3745 11.7495 6.1365 12.9218 7.2225 14.2358C8.12064 15.3197 9.10647 16.3278 10.17 17.25V17.2507ZM6.51525 8.64525C6.49084 8.56189 6.46784 8.47813 6.44625 8.394C6.504 8.1195 6.6465 7.7085 6.99525 7.455C7.29468 7.23772 7.65922 7.12899 8.02875 7.14675L8.0325 7.17225C8.11725 7.836 8.5185 9.93825 9.219 12.1973C9.84 14.2005 10.7588 16.2 10.9838 16.6785C10.9074 16.7106 10.8328 16.7466 10.7603 16.7865C10.4865 16.47 9.351 15.1042 8.30625 13.0995C7.1625 10.9065 6.729 9.39075 6.54375 8.7435L6.51525 8.64525Z" fill="white"/>
</svg>
