<svg width="48" height="48" viewBox="0 0 24 24" fill="none" xmlns="http://www.w3.org/2000/svg">
<path fill-rule="evenodd" clip-rule="evenodd" d="M12 24C5.37225 24 0 18.6277 0 12C0 5.37225 5.37225 0 12 0C18.6277 0 24 5.37225 24 12C24 18.6277 18.6277 24 12 24ZM12.207 19.5C13.2199 19.5058 14.2237 19.3095 15.1597 18.9225C16.4302 18.405 17.493 17.6153 18.324 16.533C19.1368 15.4897 19.6524 14.2461 19.8165 12.9338C19.9995 11.4953 19.7497 10.1317 19.1362 8.82975C18.6907 7.88475 18.0502 7.07625 17.2582 6.38475C16.188 5.45175 14.9408 4.87575 13.5405 4.62225C12.5097 4.43502 11.4512 4.46311 10.4318 4.70475C9.30527 4.96137 8.25066 5.46728 7.3455 6.18525C7.155 6.33675 7.1355 6.45525 7.2765 6.65475C7.3695 6.78675 7.4775 6.90975 7.5855 7.03125C7.81425 7.28775 7.91625 7.29225 8.1855 7.08225C8.72747 6.65686 9.33657 6.3248 9.98775 6.09975C11.2215 5.67525 12.477 5.5995 13.755 5.9085C15.1868 6.2535 16.3718 6.98475 17.2838 8.1165C18.5858 9.732 18.9532 11.5717 18.459 13.5577C18.0652 15.1402 17.124 16.3778 15.7455 17.268C14.5957 18.0098 13.323 18.3405 11.9392 18.2925C10.6362 18.2576 9.37454 17.827 8.322 17.058C7.86525 16.7295 7.8675 16.7273 7.482 17.145L7.45425 17.1743C7.13925 17.5133 7.1505 17.6685 7.52025 17.9393C8.91075 18.9615 10.4677 19.4955 12.207 19.4993V19.5ZM11.73 14.7128C11.6565 14.7083 11.64 14.703 11.6302 14.7075C11.6002 14.7225 11.571 14.7405 11.5417 14.757C11.1892 14.9543 10.8187 15.0262 10.4182 14.9205C10.2675 14.8807 10.227 14.82 10.3163 14.6805C10.644 14.166 10.7588 13.5953 10.7303 12.999C10.695 12.255 10.4602 11.589 9.8805 11.073C9.28951 10.5347 8.5176 10.2386 7.71825 10.2435C7.371 10.2412 7.023 10.2645 6.675 10.2773C6.52875 10.2825 6.474 10.2247 6.51675 10.0807C6.573 9.8865 6.6255 9.69075 6.675 9.49575C6.705 9.37875 6.77025 9.33375 6.894 9.333C7.44675 9.33 7.9995 9.3225 8.55225 9.30975C9.08475 9.297 9.57375 9.147 10.0013 8.8245C10.3628 8.55225 10.5577 8.202 10.5292 7.7475C10.5262 7.692 10.5023 7.6185 10.4618 7.59225C10.4355 7.57425 10.3522 7.61325 10.3117 7.647C9.97125 7.9275 9.58425 8.121 9.14475 8.1435C8.553 8.1735 7.95825 8.16675 7.36575 8.1525C6.9705 8.1435 6.5775 8.08425 6.18225 8.0625C5.91375 8.0475 5.73 8.16675 5.6595 8.397C5.337 9.447 5.0205 10.4977 4.70775 11.5508C4.66425 11.6963 4.55025 11.8605 4.7205 11.9985C4.88475 12.1305 5.03775 12.0075 5.178 11.943C6.129 11.5042 7.09575 11.4705 8.08425 11.808C9.21075 12.192 9.5085 13.2307 9.04725 14.1727C8.94525 14.3812 8.8845 14.3857 8.6805 14.2642C8.325 14.052 7.977 13.8225 7.605 13.6417C6.7905 13.2472 5.93925 13.0867 5.0445 13.3492C4.56 13.4917 4.08975 13.9252 4.12725 14.5605C4.149 14.925 4.32975 15.1845 4.58625 15.4042C4.92675 15.6967 5.3265 15.8685 5.77275 15.963C7.12875 16.251 8.41575 16.1415 9.61125 15.3915C9.69902 15.3434 9.79766 15.3186 9.89775 15.3195C10.1565 15.3135 10.416 15.336 10.6747 15.327C11.0482 15.3158 11.3572 15.156 11.6122 14.8898C11.6535 14.8463 11.6798 14.7893 11.73 14.7128V14.7128ZM8.304 14.8823C8.12775 14.9573 7.956 15.051 7.773 15.105C7.059 15.3165 6.348 15.309 5.6475 15.039C5.57703 15.0141 5.51039 14.9796 5.4495 14.9363C5.265 14.7953 5.10675 14.634 5.172 14.3752C5.232 14.1405 5.436 14.0888 5.64 14.0415C6.093 13.9358 6.52575 14.0445 6.942 14.1968C7.35 14.3453 7.74225 14.5402 8.13975 14.7165C8.19375 14.7405 8.24175 14.7788 8.292 14.8095L8.304 14.8823V14.8823Z" fill="black"/>
</svg>
