<svg width="24" height="24" viewBox="0 0 24 24" fill="none" xmlns="http://www.w3.org/2000/svg">
<path d="M12 24C18.6274 24 24 18.6274 24 12C24 5.37258 18.6274 0 12 0C5.37258 0 0 5.37258 0 12C0 18.6274 5.37258 24 12 24Z" fill="#C1A05C"/>
<path fill-rule="evenodd" clip-rule="evenodd" d="M12.207 19.5C10.4678 19.4955 8.91076 18.9615 7.52026 17.94C7.15051 17.6685 7.13926 17.5125 7.45426 17.1743L7.48276 17.1442C7.86751 16.7272 7.86526 16.7295 8.32201 17.058C9.37455 17.827 10.6362 18.2576 11.9393 18.2925C13.3238 18.3405 14.5958 18.0098 15.7455 17.268C17.1248 16.3785 18.0653 15.1395 18.459 13.5577C18.9533 11.5717 18.5858 9.73275 17.2838 8.1165C16.3718 6.984 15.1868 6.25425 13.755 5.9085C12.477 5.5995 11.2215 5.67525 9.98776 6.09975C9.33451 6.32475 8.73075 6.65625 8.1855 7.08225C7.91625 7.29225 7.81426 7.28775 7.58551 7.03125C7.47545 6.91171 7.37228 6.78601 7.27651 6.65475C7.13551 6.45525 7.15501 6.33675 7.34551 6.18525C8.25067 5.46728 9.30528 4.96137 10.4318 4.70475C11.4512 4.46311 12.5097 4.43502 13.5405 4.62225C14.9415 4.87575 16.188 5.45175 17.2583 6.38475C18.0503 7.07625 18.6908 7.88475 19.1363 8.82975C19.7498 10.1318 19.9995 11.4953 19.8158 12.9338C19.6518 14.2463 19.1361 15.4902 18.3233 16.5338C17.493 17.6153 16.4303 18.4042 15.1598 18.9225C14.2148 19.308 13.2323 19.5067 12.207 19.5V19.5ZM11.73 14.7128C11.6798 14.7893 11.6535 14.8463 11.6115 14.8898C11.358 15.156 11.0483 15.3158 10.6748 15.3278C10.416 15.3353 10.1565 15.3135 9.89775 15.3195C9.79767 15.3186 9.69902 15.3434 9.61125 15.3915C8.41575 16.1415 7.12876 16.251 5.77276 15.963C5.32651 15.8685 4.92676 15.6967 4.58626 15.4042C4.32976 15.1845 4.14901 14.925 4.12726 14.5605C4.08976 13.9252 4.56001 13.4917 5.04451 13.35C5.93926 13.0875 6.79051 13.2473 7.60501 13.6425C7.97701 13.8225 8.32501 14.052 8.68051 14.265C8.88451 14.3858 8.94526 14.3812 9.04726 14.1727C9.5085 13.2307 9.21076 12.192 8.08426 11.808C7.09576 11.4705 6.12901 11.5042 5.17726 11.943C5.03776 12.0075 4.88476 12.1305 4.72051 11.9985C4.55026 11.8605 4.66426 11.6963 4.70776 11.5508C5.02051 10.4977 5.33776 9.447 5.65951 8.397C5.73001 8.16675 5.91376 8.04825 6.18226 8.0625C6.57751 8.08425 6.97051 8.1435 7.36576 8.1525C7.95826 8.1675 8.55301 8.17275 9.14476 8.1435C9.58501 8.121 9.97125 7.9275 10.311 7.647C10.3523 7.61325 10.4355 7.57425 10.4625 7.59225C10.5023 7.6185 10.5263 7.692 10.53 7.7475C10.5578 8.202 10.3628 8.55225 10.0013 8.8245C9.57376 9.147 9.08551 9.297 8.55226 9.30975C7.99951 9.3225 7.44676 9.33 6.89476 9.33225C6.77026 9.33375 6.70425 9.37875 6.675 9.49575C6.6255 9.69075 6.57301 9.8865 6.51676 10.0808C6.47401 10.2255 6.52875 10.2833 6.675 10.2773C7.023 10.2645 7.37101 10.2413 7.71826 10.2435C8.54401 10.2488 9.26626 10.5262 9.8805 11.073C10.4603 11.589 10.695 12.255 10.7303 12.999C10.758 13.5953 10.644 14.166 10.3163 14.6797C10.227 14.82 10.2675 14.8807 10.4183 14.9205C10.8188 15.0262 11.1885 14.9543 11.5418 14.757C11.5718 14.7405 11.5995 14.7218 11.6303 14.7075C11.6408 14.703 11.6565 14.7083 11.73 14.7128V14.7128ZM8.304 14.8823L8.29201 14.8095C8.24176 14.7788 8.19451 14.7405 8.13976 14.7165C7.74226 14.5402 7.35 14.3453 6.942 14.1968C6.52575 14.0445 6.09301 13.9358 5.64001 14.0415C5.43601 14.0888 5.23201 14.1405 5.17276 14.3752C5.10676 14.634 5.26501 14.7953 5.44951 14.9363C5.50726 14.9805 5.57851 15.012 5.64751 15.039C6.34801 15.309 7.05901 15.3165 7.77301 15.105C7.95601 15.051 8.12775 14.9573 8.304 14.8823V14.8823Z" fill="white"/>
</svg>
