<svg width="24" height="24" viewBox="0 0 24 24" fill="none" xmlns="http://www.w3.org/2000/svg">
<path d="M12 24C18.6274 24 24 18.6274 24 12C24 5.37258 18.6274 0 12 0C5.37258 0 0 5.37258 0 12C0 18.6274 5.37258 24 12 24Z" fill="#383939"/>
<path fill-rule="evenodd" clip-rule="evenodd" d="M14.6047 8.60925L16.605 8.151L17.3798 6.87525L16.6147 5.6205L15.6353 4.944L13.623 4.5L12.3818 5.19975L10.3958 4.84575L7.66875 6.735L7.4565 8.9415L6.29925 9.4245L6.43275 11.4713L5.625 12.1147L6.432 14.4188L6.5535 14.6603L7.407 17.0325L9.16125 17.6535L10.4618 18.9765L11.9572 19.5L12.6337 19.305L13.707 19.1813L15.2805 18.7305L17.625 17.4067L17.0115 14.9827L15.831 14.5178L15.243 15.1905L13.5892 15.597L11.184 15.216L10.4077 14.3182L10.6778 13.44L9.54075 11.6407L10.497 10.4738L10.599 8.49L11.9685 7.704L12.9075 7.329L14.1825 7.55925L14.6047 8.60925Z" fill="white"/>
</svg>
