<svg width="48" height="48" viewBox="0 0 24 24" fill="none" xmlns="http://www.w3.org/2000/svg">
<path fill-rule="evenodd" clip-rule="evenodd" d="M10.8855 19.167C11.4553 19.6362 12.1025 20.0027 12.798 20.25L12.6915 19.2195C14.3096 19.0641 15.8287 18.3698 17.005 17.2479C18.1814 16.1261 18.947 14.6417 19.179 13.0328C19.6425 12.4666 20.0048 11.8246 20.25 11.1353L19.2128 11.2425C19.0437 9.6372 18.3442 8.1341 17.2249 6.97104C16.1056 5.80799 14.6304 5.0514 13.0328 4.821C12.4666 4.35752 11.8246 3.9952 11.1353 3.75L11.2425 4.78725C9.6372 4.95627 8.1341 5.65578 6.97104 6.77509C5.80799 7.89441 5.0514 9.3696 4.821 10.9673C4.35752 11.5334 3.9952 12.1754 3.75 12.8647L4.78725 12.7575C4.95473 14.3488 5.64352 15.84 6.74644 16.9993C7.84936 18.1585 9.30453 18.9206 10.8855 19.167V19.167ZM11.313 16.068C10.4253 15.9178 9.61101 15.4814 8.99437 14.8253C8.37773 14.1693 7.99253 13.3296 7.8975 12.4343L8.8725 12.333C8.51553 12.0537 8.19636 11.7293 7.923 11.3677C8.06276 10.4687 8.49569 9.64099 9.15448 9.0134C9.81326 8.38582 10.661 7.99351 11.5657 7.8975L11.667 8.8725C11.9463 8.51553 12.2707 8.19636 12.6323 7.923C13.5313 8.06276 14.359 8.49569 14.9866 9.15448C15.6142 9.81326 16.0065 10.661 16.1025 11.5657L15.1275 11.667C15.4844 11.9464 15.8036 12.2708 16.077 12.6323C15.9354 13.5425 15.4934 14.3791 14.8213 15.0091C14.1492 15.639 13.2857 16.026 12.3682 16.1085L12.2662 15.1268C11.9745 15.495 11.6572 15.8092 11.313 16.068ZM12 24C5.37225 24 0 18.6277 0 12C0 5.37225 5.37225 0 12 0C18.6277 0 24 5.37225 24 12C24 18.6277 18.6277 24 12 24Z" fill="black"/>
<path opacity="0.5" fill-rule="evenodd" clip-rule="evenodd" d="M4.78725 12.7575L3.75 12.8647C4.305 11.3122 5.40225 10.0702 7.04325 9.13873C7.1985 10.4257 7.80825 11.49 8.87325 12.333L7.89825 12.4342C7.99324 13.3295 8.37833 14.1691 8.99483 14.8251C9.61132 15.4811 10.4254 15.9176 11.313 16.068C10.6594 16.5597 9.88566 16.8666 9.07275 16.9567C9.5835 17.8567 10.188 18.594 10.8855 19.167C9.30453 18.9206 7.84936 18.1584 6.74644 16.9992C5.64352 15.84 4.95473 14.3488 4.78725 12.7575V12.7575ZM19.2128 11.2425L20.25 11.1352C19.695 12.6877 18.5977 13.9297 16.9567 14.8612C16.8015 13.5742 16.1918 12.51 15.1268 11.667L16.1017 11.5657C16.0058 10.6611 15.6136 9.81343 14.9861 9.15466C14.3587 8.49589 13.5312 8.06289 12.6323 7.92298C13.2836 7.43642 14.0532 7.1327 14.8613 7.04323C14.346 6.13648 13.737 5.39623 13.0328 4.82098C14.6304 5.05138 16.1056 5.80797 17.2249 6.97103C18.3442 8.13408 19.0437 9.63718 19.2128 11.2425V11.2425Z" fill="black"/>
</svg>
