<svg width="24" height="24" viewBox="0 0 24 24" fill="none" xmlns="http://www.w3.org/2000/svg">
<path d="M12 24C18.6274 24 24 18.6274 24 12C24 5.37258 18.6274 0 12 0C5.37258 0 0 5.37258 0 12C0 18.6274 5.37258 24 12 24Z" fill="#FF4314"/>
<path fill-rule="evenodd" clip-rule="evenodd" d="M6.87825 6H17.2402V7.44375H6.8775L6.87825 6ZM5.72325 10.2307H18.528V11.6895H14.6055V16.5698C14.6055 16.9448 14.7682 17.1323 15.108 17.1323H16.737C16.9147 17.1323 17.0625 17.0175 17.151 16.8007C17.2553 16.5697 17.3288 15.8618 17.3588 14.6925L18.75 15.126C18.6465 16.7572 18.4537 17.7248 18.1875 18.0285C17.9213 18.3165 17.5365 18.4755 17.0175 18.4755H14.6647C13.6132 18.4755 13.0958 17.9415 13.0958 16.887V11.6895H10.9042V11.9782C10.8307 13.812 10.4167 15.2843 9.6615 16.3823C8.92125 17.3925 7.737 18.1868 6.07875 18.75L5.25 17.4795C6.849 16.9305 7.91475 16.2375 8.47725 15.429C9.03975 14.5335 9.33525 13.3927 9.3945 11.9782V11.6895H5.724L5.72325 10.2307Z" fill="white"/>
</svg>
