<svg width="48" height="48" viewBox="0 0 24 24" fill="none" xmlns="http://www.w3.org/2000/svg">
<path fill-rule="evenodd" clip-rule="evenodd" d="M12 24C5.37225 24 0 18.6277 0 12C0 5.37225 5.37225 0 12 0C18.6277 0 24 5.37225 24 12C24 18.6277 18.6277 24 12 24ZM12 18.75H15.402L13.698 15.7822H10.302L8.598 18.75H12ZM10.3028 8.217H13.698L15.402 5.25H8.598L10.302 8.21775L10.3028 8.217ZM17.802 15.3713L19.5 12.4035H16.098L14.3992 15.3713H14.4L16.0972 18.3397L17.802 15.372H17.8005H17.802V15.3713ZM6.198 8.622L4.5 11.5898H7.902L9.6 8.622L7.902 5.65425L6.198 8.622V8.622ZM9.59925 15.372H9.6L7.902 12.4035H4.5L6.198 15.3713L7.902 18.3397L9.6 15.372H9.59925ZM17.802 8.622L16.0972 5.65425L14.3992 8.622L16.0972 11.5898H19.5L17.802 8.622V8.622Z" fill="black"/>
</svg>
