<svg width="48" height="48" viewBox="0 0 24 24" fill="none" xmlns="http://www.w3.org/2000/svg">
<path d="M12 24C5.37225 24 0 18.6277 0 12C0 5.37225 5.37225 0 12 0C18.6277 0 24 5.37225 24 12C24 18.6277 18.6277 24 12 24ZM19.2585 9.96225L17.9925 8.69625C17.8023 8.50506 17.576 8.35357 17.3267 8.25057C17.0774 8.14757 16.8102 8.09512 16.5405 8.09625H16.3455V7.89375C16.3455 7.539 16.2615 7.2015 16.0845 6.89775C15.9934 6.72159 15.8735 6.56189 15.7297 6.42525L14.4637 5.1585C14.2734 4.96722 14.047 4.81568 13.7976 4.71268C13.5482 4.60968 13.2808 4.55727 13.011 4.5585H7.1775C6.6285 4.5585 6.114 4.77 5.7255 5.1585L4.4595 6.4245C4.26778 6.61261 4.11585 6.83737 4.01278 7.0854C3.9097 7.33343 3.85757 7.59966 3.8595 7.86825L3.82575 13.3395C3.81825 13.8877 4.03725 14.4195 4.42575 14.808L5.69175 16.0748C5.88202 16.2658 6.10835 16.4172 6.35762 16.5201C6.60688 16.623 6.8741 16.6753 7.14375 16.674H7.37175V16.8765C7.37175 17.2313 7.4565 17.5687 7.6335 17.8725C7.7265 18.0502 7.84425 18.21 7.98825 18.345L9.25425 19.6125C9.4447 19.8033 9.67109 19.9544 9.92032 20.0571C10.1696 20.1599 10.4367 20.2122 10.7062 20.211H16.5488C17.0978 20.211 17.6122 20.0003 18.0007 19.6118L19.2675 18.3458C19.4584 18.1553 19.6096 17.929 19.7125 17.6797C19.8153 17.4305 19.8678 17.1634 19.8668 16.8937V11.406C19.8653 11.1372 19.8109 10.8714 19.7067 10.6237C19.6024 10.3759 19.4504 10.1512 19.2593 9.96225H19.2585ZM7.14375 14.8162C7.09017 14.8163 7.03871 14.7953 7.0005 14.7578L6.3675 14.124L5.73375 13.491C5.70656 13.459 5.68638 13.4217 5.6745 13.3815V7.87725C5.6745 7.81725 5.7 7.767 5.7345 7.73325L7.0005 6.46725C7.017 6.45 7.03425 6.44175 7.05075 6.4335C7.08203 6.41718 7.11672 6.40844 7.152 6.408H12.9945C13.0283 6.408 13.0538 6.41625 13.0875 6.4335C13.113 6.44175 13.1295 6.459 13.1467 6.4755L14.4127 7.74225C14.4315 7.7579 14.4459 7.77802 14.4548 7.80075C14.4638 7.80975 14.4637 7.818 14.4637 7.82625C14.4637 7.8345 14.4713 7.8435 14.4713 7.85175C14.4713 7.86 14.4802 7.8855 14.4802 7.902V8.172C14.4802 8.2905 14.3873 8.3745 14.2778 8.3745H13.2653C13.2114 8.37477 13.1597 8.35374 13.1213 8.316L12.5468 7.74225H7.59975L7.389 7.95225L7.10175 8.24025V12.993L7.59975 13.491H12.5385L13.113 12.909L13.1205 12.9C13.1377 12.8918 13.155 12.8745 13.1715 12.8663C13.197 12.8498 13.2315 12.8497 13.2562 12.8497H14.2687C14.3362 12.8497 14.3962 12.8835 14.4382 12.9338C14.4645 12.9678 14.4792 13.0093 14.4802 13.0522V13.3395C14.4801 13.3932 14.4588 13.4447 14.421 13.4827L13.788 14.1157L13.155 14.7488C13.1468 14.7578 13.1295 14.766 13.1213 14.7742C13.1213 14.7742 13.113 14.7825 13.104 14.7825C13.0958 14.7915 13.0875 14.7915 13.0785 14.7915C13.071 14.7915 13.071 14.7915 13.062 14.7997C13.0538 14.7997 13.0447 14.808 13.0365 14.808H7.14375V14.8162V14.8162ZM18.018 16.8765C18.0177 16.9303 17.9961 16.9818 17.958 17.0198L16.692 18.2865C16.6773 18.3005 16.6603 18.3119 16.6417 18.3203C16.6105 18.3366 16.5758 18.3453 16.5405 18.3458H10.698C10.6653 18.3453 10.6333 18.3365 10.605 18.3203C10.5824 18.3112 10.5623 18.2967 10.5465 18.2783L9.27975 17.0115C9.26325 16.995 9.246 16.9778 9.23775 16.9523C9.22875 16.9448 9.22875 16.9357 9.22875 16.9275C9.22875 16.9185 9.22125 16.9102 9.22125 16.902C9.22125 16.8937 9.21225 16.8683 9.21225 16.851V16.581C9.21225 16.4632 9.30525 16.3785 9.41475 16.3785H10.4272C10.4872 16.3785 10.5375 16.404 10.5713 16.4377L11.1458 17.0115H16.0845L16.2952 16.8007L16.5825 16.5135V11.7607L16.0845 11.262H11.154L10.5803 11.8448L10.5713 11.853C10.5548 11.862 10.5375 11.8785 10.521 11.8867C10.4955 11.904 10.4617 11.904 10.4362 11.904H9.42375C9.39097 11.9034 9.35875 11.8954 9.32943 11.8808C9.30011 11.8661 9.27443 11.8451 9.25425 11.8192C9.22814 11.7854 9.21343 11.7442 9.21225 11.7015V11.4142C9.21223 11.3877 9.21746 11.3613 9.22762 11.3367C9.23779 11.3122 9.2527 11.2898 9.2715 11.271L9.9045 10.638L10.5375 10.0042C10.5465 9.996 10.563 9.98775 10.5713 9.97875C10.5713 9.97875 10.5803 9.97125 10.5885 9.97125C10.5968 9.96225 10.605 9.96225 10.614 9.96225C10.6215 9.96225 10.6215 9.96225 10.6305 9.954C10.6387 9.954 10.6478 9.945 10.656 9.945H16.5405C16.599 9.945 16.65 9.9705 16.6838 10.005L17.3168 10.638L17.9505 11.271C17.9607 11.2807 17.9691 11.2921 17.9752 11.3047C17.9902 11.3282 18.0016 11.3537 18.009 11.3805V11.4225C18.018 11.406 18.018 16.8765 18.018 16.8765Z" fill="black"/>
</svg>
