<svg width="48" height="48" viewBox="0 0 24 24" fill="none" xmlns="http://www.w3.org/2000/svg">
<path d="M12 24C5.37225 24 0 18.6277 0 12C0 5.37225 5.37225 0 12 0C18.6277 0 24 5.37225 24 12C24 18.6277 18.6277 24 12 24ZM19.365 11.0363C19.6477 11.0228 19.9275 10.968 20.25 10.9268C20.1848 10.4618 20.151 10.0133 20.055 9.579C19.6552 7.76625 18.708 6.2985 17.22 5.1915C15.9742 4.26675 14.5665 3.79425 13.017 3.75825C12.3698 3.74325 11.7225 3.753 11.0745 3.75525C10.4418 3.7571 9.81215 3.84234 9.20175 4.00875C7.67443 4.42312 6.32097 5.31795 5.34149 6.56095C4.362 7.80394 3.80848 9.32912 3.76275 10.911C3.74134 11.7 3.74834 12.4895 3.78375 13.278C3.80025 13.6928 3.85725 14.1128 3.95175 14.517C4.374 16.3388 5.3535 17.7982 6.87075 18.8865C8.1315 19.7902 9.54825 20.2305 11.097 20.247C11.6557 20.253 12.2145 20.247 12.7733 20.2485C13.2981 20.2548 13.822 20.2032 14.3355 20.0947C16.6268 19.5885 18.3203 18.2902 19.4183 16.2165C19.863 15.3765 20.1038 14.4713 20.1953 13.5255C20.2088 13.38 20.211 13.233 20.22 13.0605C19.71 13.0132 19.215 12.948 18.7178 12.9277C18.241 12.9099 17.7636 12.9164 17.2875 12.9473C16.8652 12.9735 16.4445 13.0417 16.0237 13.0972C15.9619 13.1069 15.9036 13.1328 15.855 13.1722C15.0232 13.851 14.208 14.5507 13.4827 15.3472C13.1887 15.6697 12.9067 16.0012 12.7845 16.4407C12.6645 16.8682 12.3218 17.1068 11.8748 17.1068C11.639 17.1059 11.4113 17.0213 11.2322 16.8679C11.0532 16.7146 10.9345 16.5026 10.8975 16.2698C10.8292 15.7898 11.0715 15.3157 11.5635 15.198C11.8095 15.1395 12.03 15.0225 12.2108 14.8485C12.6082 14.4666 12.9995 14.0783 13.3845 13.6838C13.5675 13.4963 13.731 13.2885 13.9005 13.0875C14.0415 12.9203 13.98 12.75 13.767 12.7155C13.6905 12.7035 13.6125 12.6998 13.5353 12.6945C12.9675 12.6593 12.3998 12.609 11.832 12.5955C11.3849 12.5904 10.9377 12.6044 10.4918 12.6375C10.2143 12.6548 9.945 12.72 9.69825 12.8625C9.60327 12.9195 9.50005 12.9615 9.39225 12.987C9.02325 13.0642 8.61225 12.8558 8.40375 12.4988C8.29581 12.3109 8.25213 12.0929 8.27933 11.878C8.30654 11.663 8.40315 11.4628 8.5545 11.3077C8.805 11.0512 9.255 10.8728 9.68925 11.1338C9.8205 11.2118 9.9705 11.2778 10.119 11.3033C10.4422 11.3573 10.77 11.4083 11.0963 11.4113C11.6805 11.4173 12.2648 11.394 12.8483 11.37C13.158 11.3572 13.467 11.325 13.7753 11.289C13.974 11.2665 14.04 11.0865 13.9103 10.9312C13.4573 10.3875 12.9908 9.855 12.4703 9.37425C12.18 9.10575 11.8733 8.86875 11.475 8.77275C11.3646 8.74151 11.2639 8.68266 11.1825 8.60175C10.7227 8.15775 10.8165 7.383 11.3625 7.05C11.883 6.73275 12.585 6.9435 12.753 7.49175C12.8775 7.89825 13.0995 8.23275 13.374 8.5425C14.127 9.39 14.9857 10.1235 15.8595 10.8398C15.9016 10.8757 15.9527 10.8995 16.0073 10.9088C16.5353 10.9703 17.0625 11.0588 17.592 11.0775C18.1822 11.0985 18.7747 11.064 19.365 11.0363V11.0363Z" fill="black"/>
</svg>
