<svg width="48" height="48" viewBox="0 0 24 24" fill="none" xmlns="http://www.w3.org/2000/svg">
<path fill-rule="evenodd" clip-rule="evenodd" d="M12 24C5.37225 24 0 18.6277 0 12C0 5.37225 5.37225 0 12 0C18.6277 0 24 5.37225 24 12C24 18.6277 18.6277 24 12 24ZM9.102 11.9745L8.16225 12.9277L11.7135 16.5L19.5 8.65425L18.5602 7.701L11.7127 14.5935L9.102 11.9745ZM10.6845 11.742L11.6258 12.6968L15.8378 8.45325L14.898 7.5L10.6845 11.742ZM8.9775 15.3645L5.43825 11.775L4.5 12.7275L8.0505 16.299L8.9775 15.3645Z" fill="black"/>
</svg>
