<svg width="48" height="48" viewBox="0 0 24 24" fill="none" xmlns="http://www.w3.org/2000/svg">
<path fill-rule="evenodd" clip-rule="evenodd" d="M12 24C5.37225 24 0 18.6277 0 12C0 5.37225 5.37225 0 12 0C18.6277 0 24 5.37225 24 12C24 18.6277 18.6277 24 12 24ZM18.6248 11.5095C18.5768 11.6002 18.5565 11.6445 18.531 11.6865C18.2355 12.1717 17.937 12.6547 17.6437 13.1415C17.0962 14.0505 16.5503 14.961 16.005 15.8715C15.9435 15.9735 15.8775 16.0268 15.7552 15.963C14.8957 15.522 13.962 15.384 13.0253 15.279C12.0244 15.1669 11.0122 15.2082 10.0237 15.4012C9.669 15.4695 9.6675 15.4613 9.82425 15.7965C9.96675 16.104 10.02 16.1295 10.3207 16.0778C12.2392 15.7478 14.0978 15.9135 15.8723 16.785C16.1408 16.9162 16.1985 16.8975 16.3538 16.6373L20.1255 10.2975C20.1615 10.2375 20.193 10.1737 20.25 10.0665C20.1667 10.0995 20.1352 10.1085 20.1075 10.1227C19.245 10.5502 18.3675 10.9297 17.4165 11.0887C16.7438 11.2012 16.074 11.2388 15.4163 10.9883C14.7458 10.7333 14.2387 10.2532 13.764 9.72675L13.4348 9.36525L13.191 9.7605C13.0957 9.915 13.1257 10.05 13.251 10.1685C13.509 10.4145 13.7595 10.671 14.0295 10.902C14.6977 11.4735 15.4545 11.8282 16.3373 11.862C16.9973 11.8867 17.6347 11.7555 18.2692 11.5898C18.3705 11.5628 18.474 11.5432 18.6248 11.5095V11.5095ZM5.38425 11.6003L5.418 11.5583C5.7105 11.6168 6.00375 11.6783 6.29775 11.733C6.9405 11.8523 7.584 11.883 8.22525 11.7292C9.0405 11.5342 9.735 11.1045 10.3553 10.536C11.0475 9.9 11.5717 9.1245 12.0922 8.3415C12.3255 7.9905 12.3907 7.689 12.1147 7.35075C12.0637 7.2885 12.024 7.218 11.9618 7.125C11.9078 7.221 11.877 7.275 11.847 7.3305C11.3745 8.1795 10.8548 8.994 10.2135 9.72C9.813 10.1723 9.36825 10.569 8.82825 10.8383C7.9605 11.271 7.06125 11.2447 6.15075 11.0182C5.44125 10.8427 4.77075 10.5547 4.10925 10.245C4.0005 10.194 3.8895 10.1475 3.77925 10.0995L3.75 10.14C3.78375 10.2045 3.81375 10.272 3.8505 10.335C4.11075 10.7737 4.3725 11.2118 4.6335 11.6505C5.5995 13.275 6.56475 14.9002 7.533 16.524C7.80675 16.9815 7.7505 16.929 8.199 16.7228C8.40675 16.6275 8.4075 16.6215 8.28675 16.4227C7.44675 15.027 6.6045 13.632 5.76375 12.237C5.63625 12.0255 5.51025 11.8133 5.38425 11.601V11.6003Z" fill="black"/>
</svg>
