<svg width="24" height="24" viewBox="0 0 24 24" fill="none" xmlns="http://www.w3.org/2000/svg">
<path d="M12 24C18.6274 24 24 18.6274 24 12C24 5.37258 18.6274 0 12 0C5.37258 0 0 5.37258 0 12C0 18.6274 5.37258 24 12 24Z" fill="#262626"/>
<path fill-rule="evenodd" clip-rule="evenodd" d="M12.6982 7.21875C14.538 7.3545 15.4305 8.4525 15.4305 8.65125C15.4305 8.7915 15.3967 9.0975 15.3967 9.285C15.3967 9.41025 15.4417 9.6105 15.5317 9.885C15.5092 10.0725 15.3855 10.167 15.1597 10.167C14.8222 10.167 14.9167 9.78825 14.4157 9.03825C13.8757 8.2305 13.3297 8.061 12.6952 8.02575C12.708 9.74775 12.7552 14.4877 12.759 16.1182C14.4502 15.8722 15.3892 14.6093 15.633 14.6093C15.768 14.6093 15.9375 14.7142 15.9375 14.9617C15.9375 15.483 14.601 16.662 12.7335 16.8953C12.594 18.417 11.874 20.25 10.0875 20.25C9.24224 20.25 8.53199 19.5975 8.53199 18.84C8.53199 18.3465 8.90399 18.135 9.24224 18.135C9.57974 18.135 9.91799 18.3818 9.91799 18.84C9.91799 19.1453 9.81674 19.3575 9.61424 19.4745C9.81674 19.6155 10.0192 19.686 10.2225 19.686C10.899 19.686 11.4075 18.462 11.4945 16.8885C9.52349 16.572 7.68674 14.694 7.68674 11.9648C7.68674 8.895 9.59924 7.5675 11.475 7.27125C11.5125 5.89125 12.2332 3.78375 14.0775 3.75C15.1927 3.75 15.666 4.6665 15.666 5.16C15.666 5.6535 15.3112 5.865 14.9565 5.865C14.601 5.865 14.2462 5.583 14.2462 5.16C14.2462 4.878 14.3587 4.6785 14.5837 4.56075C14.4262 4.41975 14.2237 4.34925 13.9762 4.34925C13.038 4.34925 12.7432 6.32775 12.6975 7.21875H12.6982ZM11.508 16.0598C11.505 14.2343 11.4817 10.0275 11.4757 8.09475C9.74474 8.52 9.17549 10.5795 9.17549 11.9648C9.17549 14.1608 10.2135 15.669 11.508 16.0598Z" fill="white"/>
</svg>
