<svg width="48" height="48" viewBox="0 0 24 24" fill="none" xmlns="http://www.w3.org/2000/svg">
<path fill-rule="evenodd" clip-rule="evenodd" d="M12.6982 7.21875C12.744 6.32775 13.0388 4.34925 13.9763 4.34925C14.2238 4.34925 14.427 4.41975 14.5853 4.56075C14.3603 4.6785 14.247 4.878 14.247 5.16075C14.247 5.583 14.6018 5.86575 14.9573 5.86575C15.312 5.86575 15.6667 5.6535 15.6667 5.16075C15.6675 4.66575 15.195 3.75 14.0775 3.75C12.234 3.7845 11.5125 5.89125 11.4757 7.27125C9.6 7.5675 7.6875 8.895 7.6875 11.9648C7.6875 14.6948 9.52425 16.572 11.4952 16.8885C11.4082 18.462 10.8997 19.686 10.2232 19.686C10.0207 19.686 9.81825 19.6155 9.615 19.4745C9.8175 19.3567 9.91875 19.1453 9.91875 18.84C9.91875 18.3818 9.58125 18.135 9.243 18.135C8.90475 18.135 8.53275 18.3465 8.53275 18.84C8.53275 19.5975 9.243 20.25 10.0883 20.25C11.8733 20.25 12.5933 18.417 12.7335 16.8953C14.601 16.662 15.9375 15.483 15.9375 14.9617C15.9375 14.7142 15.7687 14.6093 15.633 14.6093C15.3892 14.6093 14.4502 15.8723 12.759 16.119C12.7545 14.4878 12.708 9.74775 12.6953 8.02575C13.3298 8.061 13.8758 8.2305 14.4158 9.03825C14.9168 9.78825 14.8215 10.167 15.1597 10.167C15.3847 10.167 15.5092 10.0725 15.5317 9.88425C15.4417 9.6105 15.3967 9.41025 15.3967 9.285C15.3967 9.0975 15.4305 8.7915 15.4305 8.6505C15.4305 8.4525 14.538 7.3545 12.6982 7.21875V7.21875ZM11.508 16.0598C10.2135 15.669 9.1755 14.1608 9.1755 11.9648C9.1755 10.5795 9.7455 8.52 11.4757 8.09475C11.4817 10.0275 11.505 14.2343 11.508 16.0598V16.0598ZM12 24C5.37225 24 0 18.6277 0 12C0 5.37225 5.37225 0 12 0C18.6277 0 24 5.37225 24 12C24 18.6277 18.6277 24 12 24Z" fill="black"/>
</svg>
