<svg width="48" height="48" viewBox="0 0 24 24" fill="none" xmlns="http://www.w3.org/2000/svg">
<path d="M12 24C5.37225 24 0 18.6277 0 12C0 5.37225 5.37225 0 12 0C18.6277 0 24 5.37225 24 12C24 18.6277 18.6277 24 12 24ZM11.9228 3.2985V3.29325L15.5588 13.5C15.5729 13.5301 15.5803 13.5629 15.5803 13.5961C15.5803 13.6293 15.5729 13.6622 15.5587 13.6922C15.5445 13.7222 15.5238 13.7488 15.4982 13.7699C15.4725 13.791 15.4425 13.8061 15.4103 13.8143L12.7147 14.5568C12.495 14.6115 12.5445 14.9745 12.7703 14.9858L19.6395 16.3552C19.7715 16.377 19.9035 16.4213 20.0408 16.4213C17.4682 11.9837 14.8942 7.5469 12.3187 3.111C12.2092 2.87475 11.8133 3.051 11.9228 3.2985ZM11.5268 3.321C8.9385 7.791 6.34575 12.258 3.75 16.7235V16.851C3.80475 16.9275 3.87075 17.0048 3.96975 17.0048C4.10775 16.9883 4.179 16.8562 4.2615 16.7685L11.3452 8.4465C11.4172 8.3415 11.5762 8.27625 11.6865 8.37525C12.369 9.10125 13.029 9.849 13.7213 10.575C13.8533 10.7175 14.1233 10.5585 14.0513 10.3665C13.2428 8.0565 12.4072 5.7465 11.5927 3.4365C11.574 3.39621 11.552 3.35757 11.5268 3.321V3.321ZM9.36 11.2462C7.70475 13.215 6.06 15.2063 4.41 17.1863H20.145L20.25 17.076V16.9222C20.1953 16.878 20.145 16.8233 20.0737 16.812C16.3672 16.0695 12.66 15.3 8.95275 14.5575C8.83725 14.5515 8.72775 14.442 8.77125 14.3205C9.05775 13.3695 9.34875 12.4178 9.624 11.4608C9.66825 11.301 9.492 11.208 9.36 11.2462V11.2462Z" fill="black"/>
</svg>
