<svg width="24" height="24" viewBox="0 0 24 24" fill="none" xmlns="http://www.w3.org/2000/svg">
<path d="M12 24C18.6274 24 24 18.6274 24 12C24 5.37258 18.6274 0 12 0C5.37258 0 0 5.37258 0 12C0 18.6274 5.37258 24 12 24Z" fill="white"/>
<path d="M11.9985 2.73401L21.1898 11.9253L11.9985 21.1165L2.80725 11.9253L11.9985 2.73401Z" fill="#FFCE45"/>
<path d="M11.9985 14.9243L2.79974 11.9243L11.9985 2.733L21.1972 11.925L11.9985 14.9243Z" fill="#FEBE44"/>
<path d="M5.99924 11.325H10.1992L11.9985 9.32474L13.998 11.3242H18.198L11.9985 4.62524L5.99924 11.325Z" fill="white"/>
<path opacity="0.42" d="M11.9985 21.1155V2.733L21.1898 11.925L11.9985 21.1155Z" fill="#D9A547"/>
</svg>
