<svg width="48" height="48" viewBox="0 0 24 24" fill="none" xmlns="http://www.w3.org/2000/svg">
<path d="M12 24C5.37225 24 0 18.6277 0 12C0 5.37225 5.37225 0 12 0C18.6277 0 24 5.37225 24 12C24 18.6277 18.6277 24 12 24ZM19.9747 11.8628L11.8628 3.75L3.75 11.8628L11.8628 14.8597L19.9747 11.8628V11.8628ZM6.273 11.175L11.7727 5.5515C11.7727 5.5515 17.1495 11.0512 17.376 11.1615C17.6032 11.271 13.6777 11.1615 13.6777 11.1615L11.8628 9.30525L10.0268 11.175H6.273V11.175ZM11.8628 15.4305L3.75 12.4537L11.8628 19.9747L19.9747 12.4125L11.8628 15.4305V15.4305Z" fill="black"/>
</svg>
