<svg width="48" height="48" viewBox="0 0 24 24" fill="none" xmlns="http://www.w3.org/2000/svg">
<path d="M12 24C5.37225 24 0 18.6277 0 12C0 5.37225 5.37225 0 12 0C18.6277 0 24 5.37225 24 12C24 18.6277 18.6277 24 12 24ZM14.3145 6.003H8.8575L8.406 8.52825L13.3275 8.53575C15.7508 8.53575 16.47 9.4155 16.4468 10.8758C16.4363 11.6243 16.11 12.8903 15.972 13.2983C15.5992 14.3933 14.8313 15.6397 11.9528 15.636L7.16925 15.633L6.71775 18.1613H12.1605C14.0798 18.1613 14.8972 17.937 15.7605 17.5388C17.676 16.6553 18.8168 14.763 19.275 12.2933C19.9545 8.61825 19.107 6.003 14.3137 6.003H14.3145ZM11.8545 11.8485C12.033 11.1098 12.0892 10.8135 12.0892 10.8135H6.50475C5.07675 10.8135 4.87275 11.7435 4.737 12.306C4.55925 13.0418 4.503 13.3417 4.503 13.3417H10.0883C11.5155 13.3417 11.7195 12.4118 11.8553 11.8485H11.8545Z" fill="black"/>
</svg>
