<svg width="48" height="48" viewBox="0 0 24 24" fill="none" xmlns="http://www.w3.org/2000/svg">
<path fill-rule="evenodd" clip-rule="evenodd" d="M12 24C5.37225 24 0 18.6277 0 12C0 5.37225 5.37225 0 12 0C18.6277 0 24 5.37225 24 12C24 18.6277 18.6277 24 12 24ZM15.0405 4.2045C14.7585 4.2045 14.5223 4.2945 14.3303 4.47375C14.1503 4.653 14.061 4.88925 14.061 5.184V10.368C13.6139 9.81761 13.0488 9.37479 12.4075 9.07231C11.7662 8.76982 11.0651 8.61541 10.356 8.6205C9.4335 8.6205 8.59575 8.8515 7.8405 9.312C7.098 9.7725 6.50925 10.413 6.07425 11.232C5.65125 12.0382 5.4405 12.9405 5.4405 13.9395C5.4405 14.9385 5.67075 15.8468 6.13125 16.6658C6.58326 17.4632 7.2395 18.1259 8.0325 18.5858C8.8515 19.0463 9.75375 19.2765 10.74 19.2765C11.7255 19.2765 12.615 19.0463 13.4085 18.5858C14.2012 18.1258 14.8572 17.4631 15.309 16.6658C15.783 15.8468 16.0192 14.9378 16.0192 13.9395V5.184C16.0192 4.88925 15.93 4.653 15.7507 4.47375C15.5715 4.29375 15.3345 4.2045 15.0405 4.2045V4.2045ZM10.7393 17.5485C10.0995 17.5485 9.51675 17.3955 8.99175 17.088C8.4773 16.7653 8.0543 16.316 7.76325 15.783C7.46925 15.2318 7.32225 14.6175 7.32225 13.9395C7.32225 13.2615 7.46925 12.6525 7.76325 12.1155C8.0513 11.5849 8.47562 11.1406 8.9925 10.8285C9.5175 10.509 10.0995 10.3485 10.74 10.3485C11.3797 10.3485 11.955 10.509 12.4672 10.8285C12.9922 11.136 13.4017 11.565 13.6965 12.1155C13.9905 12.6525 14.1382 13.2608 14.1382 13.9395C14.1382 14.6183 13.9905 15.2317 13.6957 15.7822C13.4124 16.321 12.9877 16.7724 12.4672 17.088C11.9557 17.3955 11.3798 17.5485 10.7393 17.5485V17.5485Z" fill="black"/>
</svg>
