<svg width="48" height="48" viewBox="0 0 24 24" fill="none" xmlns="http://www.w3.org/2000/svg">
<path d="M12 24C5.37225 24 0 18.6277 0 12C0 5.37225 5.37225 0 12 0C18.6277 0 24 5.37225 24 12C24 18.6277 18.6277 24 12 24ZM18.105 7.4355L19.3102 6.24C19.5952 5.958 19.536 5.442 19.1797 5.08875C18.8235 4.73475 18.3023 4.677 18.018 4.95975L15.756 7.20225L15.6788 7.2795L13.7078 9.23325C13.0526 8.76081 12.2513 8.53551 11.4459 8.59729C10.6405 8.65906 9.88297 9.00391 9.3075 9.57075C8.73676 10.1361 8.38834 10.8879 8.32583 11.6888C8.26332 12.4897 8.49089 13.2864 8.967 13.9335L7.4625 15.426C7.07226 14.906 6.77093 14.3248 6.57075 13.7062C6.066 12.1777 6.20175 10.5037 7.02075 9.12375C8.298 6.97125 10.5833 6.03525 12.7493 6.30975C12.8583 6.32504 12.9694 6.31771 13.0755 6.28823C13.1816 6.25874 13.2805 6.20772 13.3661 6.13835C13.4516 6.06898 13.522 5.98275 13.5728 5.88501C13.6236 5.78727 13.6537 5.68013 13.6613 5.57025C13.6755 5.31814 13.5918 5.07027 13.4278 4.87829C13.2638 4.68632 13.032 4.56504 12.7808 4.53975C10.605 4.317 8.35575 5.02725 6.6945 6.67425C3.942 9.40275 3.78075 13.731 6.1995 16.6777L4.8195 18.0465C4.54725 18.3165 4.61475 18.8228 4.97175 19.176C5.328 19.5293 5.838 19.5975 6.11025 19.3275L7.596 17.8545H7.59675L8.67075 16.7895L8.673 16.7865L10.4145 15.06C11.0337 15.3122 11.7134 15.3773 12.3692 15.2472C13.0251 15.1171 13.6284 14.7975 14.1045 14.328C14.5771 13.8604 14.8998 13.2626 15.0314 12.6109C15.1629 11.9592 15.0974 11.2831 14.8433 10.6688L16.8187 8.7105C18.267 10.8915 17.9798 13.911 15.9863 15.8865C15.3868 16.4837 14.6662 16.9453 13.873 17.2402C13.0799 17.535 12.2327 17.6563 11.3888 17.5958C11.1987 17.5849 11.0119 17.6482 10.8678 17.7725C10.7237 17.8968 10.6335 18.0722 10.6162 18.2618L10.5952 18.5018C10.5858 18.6067 10.5978 18.7125 10.6305 18.8127C10.6631 18.9129 10.7158 19.0055 10.7853 19.0847C10.8548 19.164 10.9397 19.2283 11.0348 19.2737C11.1299 19.3192 11.2332 19.3449 11.3385 19.3492C12.4204 19.4073 13.5024 19.2373 14.5144 18.8502C15.5263 18.4631 16.4456 17.8676 17.2125 17.1022C19.9103 14.427 20.2222 10.3065 18.105 7.43475V7.4355ZM12.8542 13.0867C12.5484 13.3881 12.1362 13.5571 11.7068 13.5571C11.2773 13.5571 10.8651 13.3881 10.5593 13.0867C10.409 12.9379 10.2898 12.7607 10.2084 12.5655C10.127 12.3703 10.0851 12.1609 10.0851 11.9494C10.0851 11.7379 10.127 11.5285 10.2084 11.3333C10.2898 11.138 10.409 10.9609 10.5593 10.812C10.8651 10.5104 11.2773 10.3414 11.7068 10.3414C12.1362 10.3414 12.5484 10.5104 12.8542 10.812C13.0045 10.9609 13.1237 11.138 13.2051 11.3333C13.2865 11.5285 13.3284 11.7379 13.3284 11.9494C13.3284 12.1609 13.2865 12.3703 13.2051 12.5655C13.1237 12.7607 13.0045 12.9379 12.8542 13.0867Z" fill="black"/>
</svg>
