<svg width="24" height="24" viewBox="0 0 24 24" fill="none" xmlns="http://www.w3.org/2000/svg">
<path d="M12 24C18.6274 24 24 18.6274 24 12C24 5.37258 18.6274 0 12 0C5.37258 0 0 5.37258 0 12C0 18.6274 5.37258 24 12 24Z" fill="#2ED6A1"/>
<path d="M11.142 13.215H14.457C14.7512 13.2141 15.0423 13.1553 15.3138 13.0419C15.5852 12.9285 15.8317 12.7627 16.0391 12.5541C16.2465 12.3454 16.4108 12.098 16.5226 11.8258C16.6343 11.5537 16.6914 11.2622 16.6905 10.968C16.6921 10.374 16.4577 9.80364 16.0389 9.38241C15.62 8.96118 15.051 8.72354 14.457 8.72175H13.4025L11.142 6.75H14.457C15.432 6.75233 16.3759 7.0937 17.1268 7.71561C17.8778 8.33751 18.389 9.20123 18.573 10.1588C18.7608 11.1168 18.611 12.1104 18.149 12.9704C17.687 13.8305 16.9413 14.5039 16.0387 14.8762L18.6525 17.1578H15.6592L11.142 13.2143V13.215ZM12.7597 10.695H9.44474C8.85085 10.6968 8.28197 10.9343 7.86315 11.3554C7.44433 11.7765 7.20985 12.3466 7.21124 12.9405C7.20965 13.5345 7.44405 14.1049 7.86289 14.5261C8.28173 14.9473 8.85072 15.185 9.44474 15.1868H10.5L12.759 17.1593H9.44474C8.46972 17.1569 7.52586 16.8156 6.77492 16.1936C6.02398 15.5717 5.51271 14.708 5.32874 13.7505C5.1409 12.7924 5.29073 11.7989 5.75276 10.9388C6.21478 10.0788 6.96047 9.40531 7.86299 9.033L5.25149 6.75H8.24474L12.7597 10.695V10.695Z" fill="white"/>
</svg>
