<svg width="48" height="48" viewBox="0 0 24 24" fill="none" xmlns="http://www.w3.org/2000/svg">
<path fill-rule="evenodd" clip-rule="evenodd" d="M12 24C5.37225 24 0 18.6277 0 12C0 5.37225 5.37225 0 12 0C18.6277 0 24 5.37225 24 12C24 18.6277 18.6277 24 12 24ZM11.142 13.215L15.6592 17.1578H18.6517L16.0388 14.8762C16.9414 14.5041 17.6873 13.8307 18.1494 12.9706C18.6116 12.1105 18.7615 11.1169 18.5737 10.1588C18.3897 9.20086 17.8781 8.33684 17.1267 7.71489C16.3753 7.09294 15.4309 6.75181 14.4555 6.75H11.1412L13.4017 8.72175H14.4562C15.0503 8.72354 15.6193 8.96118 16.0381 9.38241C16.4569 9.80364 16.6913 10.374 16.6898 10.968C16.6913 11.562 16.4569 12.1324 16.0381 12.5536C15.6193 12.9748 15.0503 13.2125 14.4562 13.2142H11.1412L11.142 13.215ZM12.7598 10.695L8.24475 6.75H5.25225L7.863 9.03225C6.96034 9.40443 6.21449 10.0778 5.75232 10.9379C5.29015 11.798 5.14021 12.7916 5.328 13.7498C5.51202 14.7075 6.0235 15.5714 6.77475 16.1934C7.526 16.8153 8.47022 17.1565 9.4455 17.1585H12.759L10.5 15.1875H9.44475C8.85073 15.1857 8.28174 14.9481 7.86289 14.5268C7.44405 14.1056 7.20966 13.5353 7.21125 12.9412C7.20966 12.3472 7.44405 11.7769 7.86289 11.3557C8.28174 10.9344 8.85073 10.6968 9.44475 10.695H12.7598Z" fill="black"/>
</svg>
