<svg width="48" height="48" viewBox="0 0 24 24" fill="none" xmlns="http://www.w3.org/2000/svg">
<path d="M12 24C5.37225 24 0 18.6277 0 12C0 5.37225 5.37225 0 12 0C18.6277 0 24 5.37225 24 12C24 18.6277 18.6277 24 12 24ZM10.2802 14.895C10.2784 15.3768 10.2851 15.8587 10.3005 16.3403L14.4877 13.8727C16.5952 12.6307 18.1627 11.703 18.6052 11.4367C15.4333 9.48061 12.2566 7.53235 9.075 5.592L8.50425 5.25L7.6725 5.8125C7.3305 6.045 7.04475 6.24 6.89775 6.342C6.993 6.4035 7.149 6.4995 7.34925 6.6195C7.43025 6.6675 15.4342 11.5305 15.456 11.6242C15.4785 11.7015 15.4785 11.7015 14.1863 12.492C12.8805 13.2872 11.5785 14.0885 10.2802 14.8958V14.895ZM8.50425 10.173V14.832C8.50575 17.1652 8.5095 18.9548 8.5125 19.479C9.70275 18.804 18.243 13.9163 18.5543 13.7318L18.6068 13.7017L18.75 11.6888L18.315 11.9453C10.1925 16.737 10.1835 16.74 10.1625 16.7468L10.1168 16.7632L10.0763 16.7355C10.0163 16.6927 10.0162 16.6928 9.96675 12.51L9.95025 11.0625L9.17775 10.584C8.95474 10.4446 8.73023 10.3076 8.50425 10.173V10.173ZM6.75 18.6L7.52775 19.0807C7.81725 19.2607 8.064 19.413 8.20875 19.5007C8.21025 18.9457 8.2125 17.0423 8.214 14.7518L8.21775 9.67575L8.706 9.96C8.8935 10.0695 9.822 10.6365 10.776 11.226C11.7255 11.8133 12.678 12.3945 12.8992 12.525L13.2532 12.7313L15.0262 11.6468L14.49 11.3242C14.124 11.1052 12.4035 10.0567 10.6545 8.98575C9.45888 8.25144 8.26062 7.52143 7.05975 6.79575L6.76875 6.62475L6.75 18.6Z" fill="black"/>
</svg>
