<svg width="24" height="24" viewBox="0 0 24 24" fill="none" xmlns="http://www.w3.org/2000/svg">
<path d="M12 24C18.6274 24 24 18.6274 24 12C24 5.37258 18.6274 0 12 0C5.37258 0 0 5.37258 0 12C0 18.6274 5.37258 24 12 24Z" fill="#666666"/>
<path fill-rule="evenodd" clip-rule="evenodd" d="M18.8115 15.8625C18.6571 16.1201 18.4081 16.307 18.1178 16.3834C17.8274 16.4598 17.5186 16.4195 17.2575 16.2712L13.6732 14.2388V12.9487L14.8117 12.3038L18.3952 14.3355C18.9397 14.6438 19.1257 15.3278 18.8115 15.8618V15.8625ZM13.1377 18.6068C13.1377 19.224 12.6285 19.7242 12 19.7242C11.3715 19.7242 10.8622 19.224 10.8622 18.6068V14.5425L12 13.8975L13.1377 14.5425V18.6068ZM6.7425 16.2712C6.4813 16.4195 6.17248 16.4596 5.88207 16.3831C5.59167 16.3066 5.34273 16.1194 5.1885 15.8618C5.11405 15.7346 5.06573 15.5939 5.04637 15.4478C5.02702 15.3017 5.03702 15.1533 5.07579 15.0111C5.11456 14.869 5.18131 14.736 5.27214 14.62C5.36297 14.504 5.47605 14.4072 5.60475 14.3355L9.18825 12.303L10.3267 12.9487V14.2388L6.7425 16.2712ZM5.60475 9.6645C5.47605 9.59275 5.36297 9.49604 5.27214 9.38002C5.18131 9.26401 5.11456 9.13103 5.07579 8.98887C5.03702 8.84672 5.02702 8.69826 5.04637 8.5522C5.06573 8.40613 5.11405 8.2654 5.1885 8.13825C5.34273 7.88056 5.59167 7.69344 5.88207 7.61692C6.17248 7.54039 6.4813 7.58053 6.7425 7.72875L10.3267 9.76125V11.0512L9.18825 11.6963L5.60475 9.6645ZM10.8622 5.39325C10.8622 4.776 11.3722 4.27575 12 4.27575C12.6285 4.27575 13.1377 4.776 13.1377 5.39325V9.45675L12 10.1025L10.8622 9.4575V5.39325ZM13.6732 11.6588L14.2762 12L13.6732 12.3412V11.6588ZM12.5355 10.4062L13.1377 10.0642V10.7475L12.5355 10.4062ZM10.8622 10.7475V10.065L11.4645 10.4062L10.8622 10.7475ZM10.3267 12.3412L9.72375 12L10.3267 11.6588V12.3412ZM11.4645 13.5938L10.8622 13.9357V13.2525L11.4645 13.5938ZM13.1377 13.2525V13.935L12.5355 13.5938L13.1377 13.2525ZM12 13.29L10.8622 12.645V11.355L12 10.71L13.1377 11.355V12.645L12 13.29ZM17.2575 7.72875C17.5187 7.58053 17.8275 7.54039 18.1179 7.61692C18.4083 7.69344 18.6573 7.88056 18.8115 8.13825C19.1265 8.67225 18.939 9.35625 18.3952 9.6645L14.8117 11.697L13.6732 11.0512V9.76125L17.2575 7.72875ZM18.663 13.8802L15.3472 12L18.663 10.1198C18.8524 10.0143 19.0188 9.87216 19.1525 9.70155C19.2862 9.53095 19.3845 9.33536 19.4415 9.12626C19.4986 8.91717 19.5134 8.69877 19.4849 8.4839C19.4564 8.26903 19.3853 8.06202 19.2757 7.875C18.8137 7.089 17.79 6.81975 16.9897 7.2735L13.6732 9.15375V5.3925C13.6732 4.48575 12.924 3.75 12 3.75C11.076 3.75 10.3267 4.48575 10.3267 5.39325V9.15375L7.01025 7.2735C6.21 6.81975 5.18625 7.089 4.725 7.875C4.61543 8.06202 4.54433 8.26903 4.51586 8.4839C4.48739 8.69877 4.50212 8.91717 4.5592 9.12626C4.61628 9.33536 4.71455 9.53095 4.84824 9.70155C4.98193 9.87216 5.14836 10.0143 5.33775 10.1198L8.65275 12L5.33775 13.8802C5.1483 13.9856 4.9818 14.1277 4.84803 14.2983C4.71426 14.4689 4.61592 14.6645 4.55877 14.8736C4.50162 15.0827 4.48682 15.3011 4.51523 15.516C4.54365 15.7309 4.61471 15.9379 4.72425 16.125C5.18625 16.911 6.21 17.1803 7.01025 16.7265L10.3267 14.8463V18.6068C10.3267 19.5143 11.076 20.25 12 20.25C12.924 20.25 13.6732 19.5143 13.6732 18.6068V14.8463L16.9897 16.7265C17.79 17.1803 18.8137 16.911 19.2757 16.125C19.3853 15.938 19.4564 15.731 19.4849 15.5161C19.5134 15.3012 19.4986 15.0828 19.4415 14.8737C19.3845 14.6646 19.2862 14.469 19.1525 14.2984C19.0188 14.1278 18.8524 13.9857 18.663 13.8802V13.8802Z" fill="white"/>
</svg>
