<svg width="24" height="24" viewBox="0 0 24 24" fill="none" xmlns="http://www.w3.org/2000/svg">
<path d="M12 24C18.6274 24 24 18.6274 24 12C24 5.37258 18.6274 0 12 0C5.37258 0 0 5.37258 0 12C0 18.6274 5.37258 24 12 24Z" fill="#FEC907"/>
<path d="M9.12075 17.112C9.58425 17.112 9.96075 17.4795 9.96075 17.931C9.96075 18.3833 9.58425 18.75 9.12075 18.75H8.031C7.791 18.75 7.56 18.657 7.3905 18.4913C7.30674 18.4101 7.24008 18.3131 7.19448 18.2058C7.14888 18.0985 7.12525 17.9831 7.125 17.8665V6.11175C7.125 5.883 7.218 5.664 7.38375 5.502C7.54875 5.34075 7.77375 5.25 8.0085 5.25H9.17625C9.63975 5.25 10.0162 5.61675 10.0162 6.069C10.0162 6.2865 9.927 6.49425 9.7695 6.648C9.612 6.801 9.39825 6.888 9.17625 6.888H8.9175V17.112H9.12075ZM18.2482 8.523C18.8325 9.5265 19.125 10.6492 19.125 11.8912C19.125 13.1332 18.8288 14.256 18.2385 15.2603C17.6483 16.2645 16.992 17.034 15.9142 17.7308C14.9242 18.3713 13.8908 18.7493 12.609 18.7493H12.1838C11.7203 18.7493 11.3438 18.3825 11.3438 17.9302C11.3438 17.478 11.7203 17.112 12.1838 17.112H12.7012C13.6087 17.112 14.268 16.7363 15.0082 16.3095C15.7477 15.8835 16.2218 15.1852 16.6508 14.4323C17.0805 13.68 17.2958 12.8392 17.2958 11.9107C17.295 10.9695 17.0775 10.1227 16.6417 9.36975C16.2175 8.62811 15.6021 8.01379 14.8597 7.59075C14.1067 7.158 13.2697 6.94125 12.3495 6.94125H12.1268C11.6633 6.94125 11.2867 6.57525 11.2867 6.123C11.2867 5.9055 11.376 5.697 11.5335 5.544C11.691 5.39025 11.904 5.304 12.1268 5.304H12.3885C13.6575 5.304 14.805 5.589 15.831 6.1605C16.8376 6.71213 17.6737 7.52926 18.2482 8.523V8.523Z" fill="white"/>
</svg>
