<svg width="48" height="48" viewBox="0 0 24 24" fill="none" xmlns="http://www.w3.org/2000/svg">
<path fill-rule="evenodd" clip-rule="evenodd" d="M12 24C5.37225 24 0 18.6277 0 12C0 5.37225 5.37225 0 12 0C18.6277 0 24 5.37225 24 12C24 18.6277 18.6277 24 12 24ZM9.12075 17.112H8.9175V6.88725H9.17625C9.39825 6.88725 9.612 6.801 9.7695 6.64725C9.927 6.49425 10.0155 6.28575 10.0155 6.069C10.0155 5.61675 9.63975 5.25 9.1755 5.25H8.0085C7.77375 5.25 7.5495 5.34 7.38375 5.502C7.3021 5.58121 7.23713 5.67598 7.19269 5.7807C7.14825 5.88542 7.12524 5.99799 7.125 6.11175V17.8665C7.125 18.1005 7.22025 18.3255 7.3905 18.4913C7.56 18.6563 7.79025 18.75 8.031 18.75H9.12075C9.58425 18.75 9.96075 18.3833 9.96075 17.931C9.96075 17.4788 9.58425 17.1127 9.12075 17.112V17.112ZM18.2482 8.523C17.6739 7.52936 16.8381 6.71224 15.8317 6.1605C14.805 5.58975 13.6567 5.304 12.3885 5.304H12.1268C11.904 5.304 11.691 5.39025 11.5335 5.544C11.376 5.697 11.2875 5.9055 11.2875 6.123C11.2875 6.57525 11.6633 6.94125 12.1275 6.94125H12.3495C13.2697 6.94125 14.1067 7.15875 14.8597 7.59075C15.6021 8.01379 16.2175 8.62811 16.6417 9.36975C17.0767 10.1227 17.2942 10.9695 17.295 11.9107C17.295 12.8392 17.0805 13.6808 16.6515 14.4323C16.2217 15.1852 15.7477 15.8835 15.0082 16.3095C14.268 16.7363 13.6095 17.112 12.7012 17.112H12.1838C11.7203 17.112 11.3438 17.478 11.3438 17.9302C11.3438 18.3825 11.721 18.75 12.1845 18.75H12.6097C13.8915 18.75 14.9257 18.372 15.915 17.7315C16.9927 17.034 17.649 16.2652 18.2393 15.261C18.8295 14.2567 19.1257 13.1347 19.1257 11.892C19.1257 10.6493 18.8333 9.52725 18.249 8.52375L18.2482 8.523Z" fill="black"/>
</svg>
