<svg width="24" height="24" viewBox="0 0 24 24" fill="none" xmlns="http://www.w3.org/2000/svg">
<path d="M12 24C18.6274 24 24 18.6274 24 12C24 5.37258 18.6274 0 12 0C5.37258 0 0 5.37258 0 12C0 18.6274 5.37258 24 12 24Z" fill="#006AD2"/>
<path fill-rule="evenodd" clip-rule="evenodd" d="M9.276 18.75L9.63525 17.7885L8.99775 17.8515L8.76825 18.459C8.75025 18.5048 8.73525 18.5528 8.712 18.5963C8.66175 18.69 8.5845 18.7485 8.47725 18.7493C8.00475 18.75 7.53375 18.7493 7.06125 18.7485C7.05 18.7485 7.03875 18.7418 7.014 18.7343L7.3155 17.9205C6.76575 17.9055 6.231 17.8965 5.6985 17.8358C5.7075 17.736 8.745 10.077 8.86575 9.84676C8.89575 9.84451 8.931 9.83926 8.967 9.83926H11.4195C11.4442 9.83926 11.469 9.83926 11.493 9.84076C11.7413 9.85951 11.8792 10.0695 11.793 10.308C11.6782 10.623 11.5567 10.9365 11.439 11.25L9.8955 15.3555C9.87975 15.3975 9.86625 15.441 9.84675 15.498C9.89025 15.5003 9.924 15.5048 9.95775 15.5033C12.2798 15.402 13.9838 14.2935 15.0848 12.2108C15.3255 11.7556 15.495 11.2661 15.5873 10.7595C15.642 10.4633 15.6593 10.1663 15.585 9.87001C15.5102 9.55744 15.3241 9.28283 15.0615 9.09751C14.7105 8.84476 14.316 8.73676 13.89 8.73451H5.625C5.643 8.68951 5.65125 8.65951 5.6655 8.63251L6.7065 6.75676C6.75507 6.65896 6.83091 6.57731 6.92488 6.52168C7.01884 6.46605 7.1269 6.43881 7.236 6.44326H11.6355L12.0862 5.25076H13.4227C13.4557 5.25076 13.4888 5.24851 13.5203 5.25301C13.6155 5.26801 13.6703 5.34301 13.656 5.44051C13.65 5.48101 13.635 5.52001 13.62 5.55901C13.5277 5.80726 13.4333 6.05476 13.341 6.30301C13.3253 6.34501 13.3125 6.38776 13.296 6.43801H13.8998C13.9148 6.40576 13.9297 6.37276 13.9432 6.33901L14.3152 5.35126C14.3527 5.25151 14.3542 5.25076 14.454 5.25076C14.877 5.25076 15.3008 5.24926 15.7238 5.25076C15.9023 5.25151 15.966 5.34601 15.9022 5.51851C15.801 5.79526 15.6968 6.06976 15.5933 6.34501C15.579 6.38326 15.5663 6.42226 15.5483 6.47476C15.5895 6.48226 15.6232 6.48976 15.657 6.49426C16.2457 6.56626 16.8187 6.69976 17.3625 6.94501C17.7757 7.13176 18.1515 7.37551 18.4605 7.71751C18.879 8.17876 19.0868 8.73001 19.1198 9.35251C19.1513 9.95626 19.041 10.5383 18.8408 11.1C18.3668 12.4313 17.6933 13.641 16.7183 14.6603C16.0463 15.3623 15.2707 15.9203 14.4202 16.3718C13.5022 16.8593 12.5318 17.2005 11.5268 17.442C11.4368 17.4645 11.3895 17.5035 11.3588 17.592C11.2485 17.8995 11.1315 18.2055 11.016 18.5115C10.9447 18.699 10.8735 18.75 10.677 18.75H9.276V18.75Z" fill="white"/>
</svg>
