<svg width="48" height="48" viewBox="0 0 24 24" fill="none" xmlns="http://www.w3.org/2000/svg">
<path d="M12 24C5.37225 24 0 18.6277 0 12C0 5.37225 5.37225 0 12 0C18.6277 0 24 5.37225 24 12C24 18.6277 18.6277 24 12 24ZM18.8063 14.325C18.186 14.2905 18.531 13.3035 18.255 12.1777C17.9273 10.9312 18.4102 10.065 19.0477 10.1003C19.3477 10.1468 19.6313 10.2653 19.875 10.446C19.7644 9.90395 19.5666 9.38344 19.2892 8.90475C18.72 7.95225 17.4795 6.567 15.9285 5.4765V15.918C15.9944 16.06 16.0277 16.2149 16.0259 16.3714C16.0241 16.5279 15.9873 16.6821 15.9182 16.8225C15.849 16.9629 15.7494 17.0861 15.6264 17.183C15.5035 17.2799 15.3604 17.348 15.2077 17.3824C15.055 17.4167 14.8965 17.4165 14.7439 17.3816C14.5913 17.3467 14.4485 17.2782 14.3258 17.1809C14.2032 17.0836 14.1039 16.9601 14.0352 16.8194C13.9666 16.6788 13.9303 16.5245 13.929 16.368C13.1056 16.8809 12.1263 17.0834 11.1671 16.9391C10.2078 16.7947 9.33145 16.313 8.6955 15.5805C8.05705 14.8459 7.69901 13.9092 7.68474 12.936C7.67046 11.9628 8.00087 11.016 8.6175 10.263C9.2314 9.51183 10.0931 9.00423 11.0477 8.83143C12.0023 8.65863 12.9872 8.83195 13.8255 9.32025V5.26875C13.8203 4.953 13.9605 4.65225 14.205 4.455C12.1883 3.51975 9.93075 3.32925 8.00025 5.04375C4.76025 7.935 3.14025 11.97 4.76025 15.987C4.79475 16.074 4.82925 16.1602 4.86375 16.2292C4.911 16.1317 4.9755 16.0447 5.0535 15.9697C5.898 15.1042 6.82875 16.8698 8.811 17.892C10.0688 18.5325 10.7925 19.3807 11.0685 20.1772C12.912 20.4022 14.808 20.1082 16.3245 19.2247C18.3068 18.0825 19.4618 16.0043 19.875 13.8923C19.5777 14.1529 19.2011 14.3054 18.8063 14.325V14.325ZM11.034 14.394C12.0337 14.9655 13.2397 14.7405 13.464 13.4587C13.584 12.7147 13.5158 11.5537 12.861 11.1907C10.689 9.94425 8.862 13.1475 11.034 14.394ZM12.051 6.117C12.516 6.09975 12.9465 6.654 12.9637 6.9135C12.981 7.17375 12.5678 7.0695 12.1193 7.2255C11.6198 7.398 11.2575 7.24275 11.241 6.98325C11.2237 6.723 11.568 6.13425 12.051 6.117V6.117Z" fill="black"/>
</svg>
