<svg width="48" height="48" viewBox="0 0 24 24" fill="none" xmlns="http://www.w3.org/2000/svg">
<path d="M12 24C5.37225 24 0 18.6277 0 12C0 5.37225 5.37225 0 12 0C18.6277 0 24 5.37225 24 12C24 18.6277 18.6277 24 12 24ZM11.9482 8.07825V8.07525C10.745 7.9345 9.52737 8.16128 8.45548 8.72574C7.38359 9.2902 6.50767 10.1659 5.94295 11.2377C5.37823 12.3094 5.15117 13.527 5.29162 14.7303C5.43208 15.9335 5.93348 17.0661 6.72986 17.979C7.52625 18.8918 8.58031 19.5423 9.75339 19.8447C10.9265 20.1471 12.1636 20.0873 13.3021 19.6732C14.4405 19.2591 15.427 18.5101 16.1317 17.5247C16.8363 16.5393 17.2262 15.3637 17.25 14.1525L17.2493 14.1022V4.6065C17.2493 4.37914 17.1589 4.1611 16.9982 4.00033C16.8374 3.83957 16.6194 3.74925 16.392 3.74925C16.1646 3.74925 15.9466 3.83957 15.7858 4.00033C15.6251 4.1611 15.5347 4.37914 15.5347 4.6065V14.0385C15.5314 14.9144 15.2589 15.7681 14.7541 16.4838C14.2493 17.1996 13.5367 17.7429 12.7127 18.0401C11.8888 18.3373 10.9934 18.374 10.1479 18.1452C9.30246 17.9164 8.54775 17.4333 7.98609 16.7612C7.42442 16.0891 7.08296 15.2606 7.00796 14.3879C6.93297 13.5152 7.12808 12.6406 7.56685 11.8826C8.00562 11.1245 8.66683 10.5197 9.46089 10.15C10.2549 9.78035 11.1435 9.66375 12.006 9.816L10.7257 11.0963C10.5712 11.2582 10.4862 11.4742 10.4888 11.6981C10.4914 11.9219 10.5815 12.1359 10.7398 12.2942C10.8981 12.4525 11.1121 12.5426 11.3359 12.5452C11.5598 12.5478 11.7758 12.4628 11.9377 12.3082L14.6677 9.58125C14.7474 9.50164 14.8106 9.40711 14.8537 9.30307C14.8968 9.19902 14.919 9.0875 14.919 8.97488C14.919 8.86225 14.8968 8.75073 14.8537 8.64668C14.8106 8.54264 14.7474 8.44811 14.6677 8.3685L11.9407 5.6415L11.9123 5.613C11.8308 5.53509 11.7348 5.47399 11.6297 5.43319C11.5247 5.39238 11.4126 5.37267 11.2999 5.37518C11.1872 5.37768 11.0761 5.40236 10.973 5.4478C10.8698 5.49324 10.7767 5.55855 10.6988 5.64C10.6208 5.72145 10.5597 5.81745 10.5189 5.92252C10.4781 6.02758 10.4584 6.13966 10.4609 6.25234C10.4634 6.36503 10.4881 6.47611 10.5335 6.57926C10.579 6.68241 10.6443 6.77559 10.7257 6.8535L11.9482 8.07825V8.07825Z" fill="black"/>
</svg>
