<svg width="48" height="48" viewBox="0 0 24 24" fill="none" xmlns="http://www.w3.org/2000/svg">
<path fill-rule="evenodd" clip-rule="evenodd" d="M12 24C5.37225 24 0 18.6277 0 12C0 5.37225 5.37225 0 12 0C18.6277 0 24 5.37225 24 12C24 18.6277 18.6277 24 12 24ZM7.8615 12.672V18H12.7733C13.6808 18 14.466 17.8425 15.1298 17.5297C15.7935 17.2155 16.335 16.7873 16.7557 16.2435C17.1757 15.7005 17.4885 15.0645 17.6932 14.3362C17.898 13.608 18 12.8288 18 12C18.0051 11.2108 17.9017 10.4247 17.6925 9.66375C17.4885 8.93625 17.1758 8.2995 16.755 7.7565C16.335 7.21275 15.7935 6.7845 15.1298 6.47025C14.466 6.1575 13.68 6 12.7725 6H7.86075V10.9575H6.75V12.672H7.8615ZM9.936 10.9583V7.7145H11.9767C12.7845 7.7145 13.4453 7.82325 13.9598 8.04225C14.4743 8.2605 14.8778 8.56275 15.171 8.94975C15.4709 9.35219 15.6751 9.81775 15.768 10.311C15.873 10.8323 15.9255 11.3948 15.9255 12C15.9291 12.5668 15.8764 13.1326 15.768 13.689C15.663 14.2103 15.4643 14.664 15.171 15.0502C14.8778 15.4372 14.4735 15.7395 13.9598 15.9578C13.4453 16.1768 12.7845 16.2855 11.9767 16.2855H9.936V12.672H13.1715V10.9583H9.936V10.9583Z" fill="black"/>
</svg>
