<svg width="48" height="48" viewBox="0 0 24 24" fill="none" xmlns="http://www.w3.org/2000/svg">
<path d="M7.05225 7.46775L7.05 15.585H9.1635L9.1095 10.0898L15.3195 17.9745L16.9905 20.097L16.977 18.9172L16.9553 8.283H14.8748L14.9288 13.8225L7.18275 3.9795L7.053 3.8145V6.7755L7.05 7.4655L7.05225 7.46775ZM12 24C5.37225 24 0 18.6277 0 12C0 5.37225 5.37225 0 12 0C18.6277 0 24 5.37225 24 12C24 18.6277 18.6277 24 12 24Z" fill="black"/>
<path opacity="0.398" d="M7.05225 7.46775L15.3203 17.9752L9.1095 10.0897L9.1635 15.585H7.05L7.05225 7.46775ZM7.05225 6.7755L7.053 3.81525L7.18275 3.9795L7.062 3.8265L7.05225 6.7755ZM14.9288 13.8225L14.8748 8.283H16.9553L16.9777 18.918L16.9493 16.3905L14.9288 13.8225V13.8225Z" fill="black"/>
</svg>
