<svg width="48" height="48" viewBox="0 0 24 24" fill="none" xmlns="http://www.w3.org/2000/svg">
<path d="M12 24C5.37225 24 0 18.6277 0 12C0 5.37225 5.37225 0 12 0C18.6277 0 24 5.37225 24 12C24 18.6277 18.6277 24 12 24ZM17.3505 13.1002C16.9373 11.28 15.6525 9.273 15.6525 9.273C17.133 13.3133 16.563 16.3605 16.1708 18.0892C16.1708 18.0892 15.6533 20.0227 16.767 18.4117C18.156 16.3957 17.3505 13.1002 17.3505 13.1002ZM13.6935 5.9325C14.4637 8.676 14.8125 11.0047 14.9213 12.9465C15.1125 16.2555 14.6078 18.4328 14.2943 19.5825C14.1938 19.9568 14.6123 20.235 14.856 19.9523L14.8605 19.9478C15.4695 19.251 15.7575 17.619 15.8925 16.1865L15.9315 15.7162C16.0575 13.9912 15.984 12.2505 15.579 10.5825C14.8342 7.5045 13.6935 5.9325 13.6935 5.9325V5.9325ZM12.3135 10.7655C12.126 6.2595 11.7863 2.25825 11.7863 2.25825C11.7863 2.25825 11.4427 6.05925 11.2552 10.4648C11.2252 11.1795 11.1983 11.9063 11.1765 12.6375C11.1465 13.7003 11.133 14.7675 11.133 15.7988C11.1375 17.6318 11.208 19.3515 11.373 20.7233C11.4382 21.267 12.1432 21.267 12.2085 20.7233C12.3217 19.7873 12.387 18.6375 12.4133 17.3745C12.4376 16.009 12.4319 14.6432 12.396 13.278C12.3735 12.4418 12.348 11.5973 12.3135 10.7655V10.7655ZM7.04925 16.1955C6.94669 15.346 6.92334 14.4888 6.9795 13.635C7.023 12.9645 7.119 12.246 7.28475 11.4795C7.437 10.7782 7.6455 10.0425 7.929 9.26775C7.929 9.26775 7.023 10.683 6.492 12.2108C6.387 12.5033 6.30075 12.8032 6.23475 13.095C6.23475 13.095 6.06525 13.8615 6.03975 14.8845C6.02175 15.594 6.078 16.434 6.3045 17.2267C6.41898 17.6417 6.59062 18.0388 6.8145 18.4065C6.8145 18.4065 7.929 20.0655 7.41075 18.084C7.24952 17.4627 7.12877 16.8317 7.04925 16.1948V16.1955ZM8.6385 15.3068C8.60215 14.4096 8.61667 13.5112 8.682 12.6157C8.72725 11.9546 8.79705 11.2954 8.89125 10.6395C9.08625 9.22875 9.405 7.66575 9.88875 5.9325C9.88875 5.9325 8.74275 7.5045 7.99875 10.5825C7.959 10.7475 7.92375 10.9132 7.88925 11.0745C7.75425 11.745 7.66725 12.4245 7.62375 13.1122C7.57125 13.9747 7.58475 14.8447 7.64625 15.7117L7.68525 16.1865C7.82025 17.619 8.103 19.251 8.7165 19.9478L8.721 19.9523C8.96475 20.2313 9.387 19.9523 9.2835 19.5825C9.05625 18.7335 8.721 17.3228 8.6385 15.3068V15.3068ZM10.5413 15.4763C10.5167 14.4779 10.5122 13.4792 10.5277 12.4808C10.5367 11.8238 10.554 11.1307 10.5847 10.404C10.659 8.5275 11.0115 5.81475 11.2552 3.516C11.2552 3.516 10.0538 6.00225 9.50475 10.4872C9.43125 11.1007 9.3615 11.7622 9.309 12.477L9.27 13.008C9.27 13.008 9.20475 13.9567 9.23025 15.237C9.2655 16.8825 9.44775 19.077 10.1273 20.514C10.1498 20.5575 10.1752 20.5965 10.2097 20.6265L10.2143 20.6318C10.4715 20.8755 10.8675 20.6445 10.833 20.2657C10.6732 18.6737 10.5756 17.0759 10.5405 15.4763H10.5413ZM13.0312 15.4763C12.975 17.8103 12.8272 19.443 12.7402 20.2657C12.705 20.6445 13.101 20.8755 13.3583 20.6318L13.3627 20.6273C13.3974 20.5952 13.4254 20.5568 13.4453 20.514C14.1248 19.077 14.3077 16.8825 14.3422 15.237C14.3685 13.9567 14.3032 13.008 14.3032 13.008L14.2635 12.477C14.2142 11.8123 14.1492 11.1489 14.0685 10.4872C13.5195 6.00225 12.3173 3.516 12.3173 3.516C12.5618 5.81475 12.9142 8.5275 12.9877 10.404C13.0185 11.1315 13.0357 11.8238 13.0447 12.4815C13.0603 13.4797 13.0558 14.4782 13.0312 15.4763V15.4763Z" fill="black"/>
</svg>
