<svg width="24" height="24" viewBox="0 0 24 24" fill="none" xmlns="http://www.w3.org/2000/svg">
<path d="M12 24C18.6274 24 24 18.6274 24 12C24 5.37258 18.6274 0 12 0C5.37258 0 0 5.37258 0 12C0 18.6274 5.37258 24 12 24Z" fill="#121747"/>
<path d="M13.524 17.1525C13.524 18.0112 12.834 18.708 11.982 18.708C11.13 18.708 10.4408 18.0112 10.4408 17.1517V6.80999C10.4408 5.95124 11.1308 5.25449 11.982 5.25449C12.8333 5.25449 13.524 5.95124 13.524 6.81074V17.1525ZM8.334 17.1562C8.33899 17.4307 8.27118 17.7016 8.13747 17.9414C8.00375 18.1812 7.8089 18.3812 7.57275 18.5212C7.33789 18.6601 7.07007 18.7333 6.79725 18.7333C6.52443 18.7333 6.25661 18.6601 6.02175 18.5212C5.78574 18.3811 5.59104 18.181 5.45746 17.9413C5.32388 17.7015 5.25618 17.4306 5.26125 17.1562V14.8312C5.25618 14.5568 5.32388 14.286 5.45746 14.0462C5.59104 13.8064 5.78574 13.6063 6.02175 13.4662C6.25661 13.3274 6.52443 13.2542 6.79725 13.2542C7.07007 13.2542 7.33789 13.3274 7.57275 13.4662C7.80876 13.6063 8.00346 13.8064 8.13704 14.0462C8.27062 14.286 8.33832 14.5568 8.33325 14.8312L8.334 17.1562Z" fill="white"/>
<path opacity="0.5" d="M18.717 13.05C18.717 13.9087 18.027 14.6055 17.175 14.6055C16.323 14.6055 15.633 13.908 15.633 13.0492V9.12449C15.633 8.26499 16.323 7.56824 17.175 7.56824C18.027 7.56824 18.717 8.26499 18.717 9.12449V13.05Z" fill="white"/>
</svg>
