<svg width="24" height="24" viewBox="0 0 24 24" fill="none" xmlns="http://www.w3.org/2000/svg">
<path d="M12 24C18.6274 24 24 18.6274 24 12C24 5.37258 18.6274 0 12 0C5.37258 0 0 5.37258 0 12C0 18.6274 5.37258 24 12 24Z" fill="#1693D4"/>
<path fill-rule="evenodd" clip-rule="evenodd" d="M7.446 12.4305C7.42666 12.1609 7.42541 11.8903 7.44225 11.6205H5.34225L3 9.74701H7.8705C8.3254 8.63732 9.10053 7.68827 10.097 7.02092C11.0935 6.35356 12.2662 5.99815 13.4655 6.00001C16.7985 6.00001 19.5 8.68651 19.5 12C19.5 15.3135 16.7985 18 13.4655 18C12.2756 18.0018 11.1117 17.6519 10.12 16.9943C9.12826 16.3368 8.35298 15.4008 7.8915 14.304H3L5.34225 12.4305H7.446ZM16.9028 12.1118C16.9028 11.4893 16.8188 10.9463 16.65 10.4828C16.4813 10.0193 16.2472 9.63076 15.9487 9.32026C15.6495 9.00901 15.2955 8.77426 14.8853 8.61676C14.475 8.45926 14.0302 8.37976 13.548 8.37976C13.0275 8.37976 12.543 8.46826 12.0945 8.64526C11.646 8.82226 11.2583 9.07126 10.9305 9.39151C10.6028 9.71251 10.3455 10.0995 10.1573 10.554C9.969 11.0085 9.87525 11.514 9.87525 12.069C9.87525 12.633 9.969 13.1378 10.1573 13.5825C10.3448 14.0273 10.605 14.403 10.9373 14.709C11.2703 15.0158 11.6633 15.252 12.1163 15.42C12.5939 15.5917 13.0983 15.6768 13.6058 15.6713C14.907 15.6713 15.9008 15.2115 16.5848 14.2928L15.4275 13.3748C15.2347 13.6523 14.9895 13.8698 14.6902 14.0273C14.3917 14.1848 14.025 14.2643 13.5915 14.2643C13.341 14.2643 13.0995 14.2215 12.8685 14.1353C12.6375 14.049 12.4297 13.932 12.246 13.7835C12.0615 13.6367 11.9097 13.453 11.8002 13.2442C11.6907 13.0353 11.6259 12.806 11.61 12.5708H16.8885C16.8982 12.4943 16.9028 12.4178 16.9028 12.3413V12.1118ZM15.1672 11.3363H11.61C11.649 10.8488 11.8485 10.449 12.21 10.1378C12.5723 9.82726 13.0125 9.67126 13.5338 9.67126C13.8128 9.67126 14.0565 9.71626 14.2635 9.80776C14.4705 9.89926 14.6422 10.0208 14.7772 10.1738C14.9122 10.3268 15.0105 10.5038 15.0735 10.7048C15.1365 10.9058 15.1672 11.1165 15.1672 11.3363Z" fill="white"/>
</svg>
