<svg width="48" height="48" viewBox="0 0 24 24" fill="none" xmlns="http://www.w3.org/2000/svg">
<path d="M12 24C5.37225 24 0 18.6277 0 12C0 5.37225 5.37225 0 12 0C18.6277 0 24 5.37225 24 12C24 18.6277 18.6277 24 12 24ZM11.9992 19.209C11.9559 19.2094 11.9131 19.2183 11.8732 19.2353C11.8333 19.2522 11.7971 19.2768 11.7668 19.3078C11.7364 19.3387 11.7124 19.3753 11.6962 19.4155C11.68 19.4557 11.6719 19.4987 11.6722 19.542C11.6719 19.5853 11.68 19.6283 11.6962 19.6685C11.7124 19.7087 11.7364 19.7453 11.7668 19.7762C11.7971 19.8071 11.8333 19.8318 11.8732 19.8487C11.9131 19.8657 11.9559 19.8746 11.9992 19.875C12.0426 19.8746 12.0854 19.8657 12.1253 19.8487C12.1652 19.8318 12.2014 19.8071 12.2317 19.7762C12.2621 19.7453 12.2861 19.7087 12.3023 19.6685C12.3185 19.6283 12.3266 19.5853 12.3262 19.542C12.3267 19.4546 12.2925 19.3706 12.2313 19.3082C12.17 19.2458 12.0866 19.2102 11.9992 19.209V19.209ZM5.41425 8.5185C5.529 8.586 5.673 8.57625 5.77875 8.4945C5.83072 8.45372 5.86958 8.39858 5.89051 8.33592C5.91145 8.27326 5.91353 8.20583 5.8965 8.142C5.92267 8.09547 5.93705 8.04324 5.93839 7.98987C5.93972 7.9365 5.92797 7.88361 5.90415 7.83583C5.88034 7.78805 5.84519 7.74682 5.80177 7.71576C5.75835 7.68469 5.70799 7.66473 5.65508 7.65761C5.60217 7.6505 5.54832 7.65644 5.49823 7.67494C5.44815 7.69343 5.40336 7.7239 5.36776 7.76369C5.33217 7.80348 5.30686 7.85138 5.29405 7.90321C5.28123 7.95503 5.2813 8.00921 5.29425 8.061C5.25031 8.13777 5.23826 8.22872 5.2607 8.31429C5.28315 8.39985 5.33828 8.47318 5.41425 8.5185V8.5185ZM5.41425 15.489C5.33879 15.534 5.28397 15.6068 5.26154 15.6918C5.23911 15.7767 5.25085 15.8671 5.29425 15.9435C5.38425 16.1025 5.5845 16.1572 5.74125 16.0657C5.81671 16.0207 5.87153 15.9479 5.89396 15.863C5.91639 15.778 5.90465 15.6877 5.86125 15.6113C5.84014 15.5737 5.81177 15.5406 5.77779 15.5141C5.74381 15.4876 5.7049 15.468 5.66331 15.4567C5.62172 15.4453 5.57829 15.4423 5.53554 15.4478C5.49278 15.4534 5.45155 15.4674 5.41425 15.489V15.489ZM18.5842 8.5185C18.6412 8.48526 18.6871 8.43601 18.7162 8.37688C18.7454 8.31775 18.7565 8.25135 18.7482 8.18595C18.7398 8.12055 18.7125 8.05905 18.6695 8.00909C18.6264 7.95913 18.5697 7.92293 18.5062 7.905C18.4432 7.88804 18.3766 7.89041 18.3149 7.9118C18.2533 7.9332 18.1995 7.97264 18.1605 8.025C18.1209 8.07788 18.0975 8.14119 18.0934 8.20715C18.0893 8.27311 18.1045 8.33884 18.1373 8.39625C18.1584 8.43384 18.1867 8.46686 18.2207 8.4934C18.2547 8.51994 18.2936 8.53946 18.3352 8.55083C18.3768 8.56221 18.4202 8.56521 18.463 8.55966C18.5057 8.5541 18.5469 8.54012 18.5842 8.5185V8.5185ZM12 4.791C12.0654 4.79194 12.1297 4.77321 12.1844 4.73724C12.239 4.70127 12.2817 4.64972 12.3068 4.58925C12.3323 4.52854 12.3395 4.46167 12.3275 4.3969C12.3155 4.33213 12.2848 4.27229 12.2393 4.22475C12.1942 4.17761 12.1358 4.14521 12.072 4.13183C12.0081 4.11844 11.9417 4.12469 11.8815 4.14975C11.8212 4.17541 11.7699 4.21827 11.7339 4.27297C11.6979 4.32766 11.6788 4.39176 11.679 4.45725C11.679 4.6395 11.8215 4.78725 12 4.791V4.791ZM17.85 15.4365C17.9274 15.2962 18.0536 15.1891 18.2047 15.1356C18.3558 15.0821 18.5213 15.0859 18.6697 15.1462V8.85C18.5219 8.91028 18.3571 8.91435 18.2065 8.86142C18.0559 8.8085 17.9299 8.70225 17.8522 8.56275C17.773 8.42278 17.746 8.25918 17.7762 8.10118C17.8065 7.94318 17.8919 7.80107 18.0173 7.70025L12.6533 4.55025C12.6327 4.70915 12.5553 4.85524 12.4354 4.96143C12.3154 5.06762 12.161 5.12671 12.0007 5.12775C11.8405 5.12671 11.6861 5.06762 11.5661 4.96143C11.4462 4.85524 11.3688 4.70915 11.3482 4.55025L5.98575 7.701C6.11061 7.80223 6.19545 7.94453 6.22512 8.1025C6.25479 8.26048 6.22737 8.42386 6.14775 8.5635C6.07004 8.70252 5.94422 8.80836 5.79395 8.86112C5.64368 8.91388 5.47931 8.90992 5.33175 8.85V15.15C5.47958 15.0897 5.64436 15.0857 5.79498 15.1386C5.9456 15.1915 6.07162 15.2977 6.14925 15.4373C6.22854 15.5772 6.25548 15.7408 6.22525 15.8988C6.19502 16.0568 6.1096 16.1989 5.98425 16.2997L11.3482 19.4505C11.3689 19.2917 11.4464 19.1458 11.5664 19.0398C11.6863 18.9338 11.8406 18.8748 12.0007 18.8738C12.3292 18.8738 12.6075 19.1198 12.6533 19.4505L18.0165 16.3005C17.8907 16.1997 17.8048 16.0574 17.7745 15.899C17.7441 15.7407 17.7711 15.5767 17.8508 15.4365H17.85ZM13.266 14.4713C13.8456 14.131 14.2823 13.5922 14.4952 12.9548C14.814 12.006 16.2472 12.5348 15.711 13.7678C15.711 13.7798 15.7013 13.791 15.6968 13.8015L17.4608 14.8365C17.5321 14.8804 17.5836 14.9503 17.6044 15.0315C17.6251 15.1127 17.6134 15.1988 17.5718 15.2715C17.5517 15.3073 17.5248 15.3388 17.4925 15.3641C17.4602 15.3895 17.4233 15.4082 17.3838 15.4192C17.3442 15.4302 17.3029 15.4333 17.2622 15.4283C17.2215 15.4233 17.1822 15.4103 17.1465 15.39L15.3937 14.364C15.0429 14.9243 14.5633 15.3928 13.995 15.7305C13.4915 16.0311 12.9283 16.2179 12.345 16.278V18.228C12.345 18.4103 12.1995 18.558 12.0203 18.558C11.9772 18.5577 11.9347 18.5489 11.8951 18.5322C11.8555 18.5154 11.8196 18.491 11.7894 18.4604C11.7592 18.4297 11.7354 18.3934 11.7193 18.3535C11.7032 18.3137 11.6951 18.271 11.6955 18.228V16.2945C11.0506 16.2555 10.4231 16.0696 9.86095 15.7512C9.29879 15.4327 8.8168 14.9901 8.45175 14.457L6.855 15.3915C6.81925 15.4125 6.77967 15.4261 6.73859 15.4316C6.69751 15.4371 6.65575 15.4343 6.61574 15.4235C6.57573 15.4127 6.53828 15.394 6.50558 15.3686C6.47287 15.3431 6.44556 15.3114 6.42525 15.2753C6.38318 15.202 6.37155 15.1151 6.39287 15.0333C6.41419 14.9516 6.46675 14.8814 6.53925 14.838L8.12925 13.9042C8.02556 13.6858 7.93978 13.4593 7.87275 13.227L7.72125 12.369C7.66321 11.5923 7.8161 10.8144 8.16375 10.1175L6.54 9.162C6.46798 9.11873 6.41568 9.04906 6.39425 8.96781C6.37282 8.88657 6.38394 8.80017 6.42525 8.727C6.44535 8.69096 6.47244 8.65929 6.50493 8.63384C6.53741 8.60839 6.57464 8.58968 6.61445 8.57878C6.65425 8.56789 6.69582 8.56504 6.73674 8.5704C6.77766 8.57576 6.8171 8.58922 6.85275 8.61L8.49075 9.57075C8.83879 9.0805 9.28691 8.6697 9.8055 8.3655C10.3806 8.0266 11.0295 7.83253 11.6963 7.8V5.772C11.6963 5.58975 11.8417 5.442 12.021 5.442C12.2002 5.442 12.345 5.58975 12.345 5.772V7.8195C12.9521 7.8896 13.5367 8.09085 14.0584 8.40929C14.58 8.72774 15.0262 9.15577 15.366 9.66375L17.1525 8.61C17.188 8.58821 17.2275 8.57391 17.2687 8.56797C17.3099 8.56203 17.3519 8.56459 17.3921 8.57547C17.4323 8.58636 17.4698 8.60536 17.5024 8.63128C17.535 8.65721 17.5619 8.68953 17.5815 8.72625C17.6224 8.79993 17.633 8.88665 17.611 8.968C17.589 9.04936 17.5362 9.11894 17.4637 9.162L15.0345 10.5915L15.0015 10.6072L14.43 10.9448L13.224 11.6527L9.6855 13.7258C10.083 14.2724 10.6698 14.6516 11.3315 14.7894C11.9932 14.9272 12.6826 14.8138 13.2653 14.4713H13.266ZM18.585 15.489C18.5478 15.4673 18.5066 15.4532 18.4639 15.4476C18.4212 15.442 18.3778 15.445 18.3362 15.4564C18.2946 15.4678 18.2558 15.4874 18.2219 15.5139C18.188 15.5405 18.1597 15.5736 18.1387 15.6113C18.0953 15.6877 18.0836 15.778 18.106 15.863C18.1285 15.9479 18.1833 16.0207 18.2587 16.0657C18.2959 16.0877 18.337 16.102 18.3798 16.1077C18.4225 16.1135 18.4659 16.1106 18.5075 16.0993C18.5491 16.0879 18.5881 16.0684 18.622 16.0418C18.6559 16.0151 18.6841 15.982 18.705 15.9443C18.7482 15.8677 18.7599 15.7773 18.7375 15.6922C18.7151 15.6072 18.6604 15.5343 18.585 15.489V15.489ZM9.213 12.4402L13.608 9.85875C13.1782 9.50775 12.6512 9.29687 12.098 9.2545C11.5447 9.21212 10.9917 9.34029 10.5135 9.62175C9.3285 10.3178 9.18075 11.19 9.213 12.4402Z" fill="black"/>
</svg>
