<svg width="24" height="24" viewBox="0 0 24 24" fill="none" xmlns="http://www.w3.org/2000/svg">
<path d="M12 24C18.6274 24 24 18.6274 24 12C24 5.37258 18.6274 0 12 0C5.37258 0 0 5.37258 0 12C0 18.6274 5.37258 24 12 24Z" fill="#AA15DD"/>
<path d="M11.9992 19.209C12.1792 19.2097 12.3255 19.359 12.3262 19.542C12.327 19.6294 12.2931 19.7135 12.232 19.776C12.1708 19.8384 12.0874 19.874 12 19.875C11.9567 19.8746 11.9138 19.8657 11.8739 19.8487C11.834 19.8318 11.7979 19.8071 11.7675 19.7762C11.7372 19.7453 11.7132 19.7087 11.697 19.6685C11.6807 19.6283 11.6726 19.5853 11.673 19.542C11.6726 19.4987 11.6807 19.4557 11.697 19.4155C11.7132 19.3753 11.7372 19.3387 11.7675 19.3078C11.7979 19.2768 11.834 19.2522 11.8739 19.2353C11.9138 19.2183 11.9567 19.2094 12 19.209H11.9992ZM5.41424 8.51849C5.33847 8.47318 5.28348 8.39998 5.26105 8.3146C5.23862 8.22921 5.25053 8.13844 5.29424 8.06174C5.32633 8.00469 5.3748 7.95858 5.43338 7.92938C5.49197 7.90018 5.55797 7.88923 5.62284 7.89796C5.68771 7.90668 5.74847 7.93468 5.79726 7.97832C5.84605 8.02196 5.88062 8.07924 5.89649 8.14274C5.91336 8.20646 5.9112 8.27373 5.89027 8.33624C5.86935 8.39875 5.83057 8.45376 5.77874 8.49449C5.72744 8.53468 5.66522 8.55847 5.60019 8.56275C5.53517 8.56704 5.47036 8.55161 5.41424 8.51849V8.51849ZM5.41424 15.489C5.45154 15.4674 5.49277 15.4534 5.53553 15.4478C5.57828 15.4423 5.62171 15.4453 5.6633 15.4567C5.70489 15.468 5.7438 15.4875 5.77778 15.5141C5.81176 15.5406 5.84013 15.5736 5.86124 15.6112C5.90464 15.6876 5.91638 15.778 5.89395 15.863C5.87152 15.9479 5.8167 16.0207 5.74124 16.0657C5.70399 16.0876 5.66275 16.1017 5.61995 16.1074C5.57715 16.113 5.53365 16.1101 5.49201 16.0987C5.45037 16.0873 5.41142 16.0677 5.37746 16.0411C5.3435 16.0144 5.3152 15.9812 5.29424 15.9435C5.25084 15.8671 5.2391 15.7767 5.26153 15.6918C5.28396 15.6068 5.33878 15.534 5.41424 15.489V15.489ZM18.5842 8.51849C18.5469 8.5401 18.5057 8.55409 18.463 8.55964C18.4202 8.5652 18.3768 8.5622 18.3352 8.55082C18.2936 8.53945 18.2547 8.51993 18.2207 8.49339C18.1867 8.46685 18.1584 8.43383 18.1372 8.39624C18.1044 8.3389 18.089 8.27321 18.093 8.20725C18.097 8.1413 18.1202 8.07794 18.1597 8.02499C18.1988 7.97249 18.2527 7.93296 18.3145 7.91155C18.3763 7.89015 18.4431 7.88786 18.5062 7.90499C18.5697 7.92292 18.6264 7.95912 18.6695 8.00908C18.7125 8.05903 18.7398 8.12054 18.7482 8.18594C18.7565 8.25134 18.7454 8.31774 18.7162 8.37687C18.6871 8.436 18.6412 8.48525 18.5842 8.51849V8.51849ZM12 4.79099C11.9134 4.78883 11.8311 4.75269 11.7709 4.69039C11.7107 4.62809 11.6774 4.54462 11.6782 4.45799C11.6782 4.32299 11.7592 4.20074 11.8815 4.14974C11.9417 4.12468 12.0081 4.11843 12.072 4.13182C12.1358 4.1452 12.1941 4.1776 12.2392 4.22474C12.2848 4.27228 12.3155 4.33212 12.3275 4.39689C12.3395 4.46166 12.3323 4.52852 12.3067 4.58924C12.2817 4.64971 12.239 4.70126 12.1844 4.73723C12.1297 4.7732 12.0654 4.79192 12 4.79099V4.79099ZM17.85 15.4365C17.7705 15.5768 17.7435 15.7408 17.774 15.8992C17.8046 16.0575 17.8905 16.1998 18.0165 16.3005L12.6532 19.4505C12.6326 19.2917 12.5551 19.1458 12.4351 19.0398C12.3152 18.9337 12.1608 18.8748 12.0007 18.8737C11.8406 18.8748 11.6863 18.9337 11.5664 19.0398C11.4464 19.1458 11.3689 19.2917 11.3482 19.4505L5.98349 16.3005C6.10903 16.1996 6.19457 16.0574 6.2248 15.8992C6.25504 15.741 6.22798 15.5773 6.14849 15.4372C6.07088 15.2979 5.94499 15.1918 5.79454 15.1389C5.64409 15.086 5.47948 15.0899 5.33174 15.15V8.84999C5.4793 8.90991 5.64367 8.91387 5.79394 8.86111C5.94421 8.80835 6.07003 8.70251 6.14774 8.56349C6.22728 8.42377 6.25458 8.26033 6.22477 8.10235C6.19496 7.94437 6.10997 7.80211 5.98499 7.70099L11.3482 4.55099C11.3689 4.70976 11.4464 4.85566 11.5664 4.9617C11.6863 5.06773 11.8406 5.12672 12.0007 5.12774C12.161 5.1267 12.3154 5.06761 12.4353 4.96142C12.5553 4.85523 12.6327 4.70914 12.6532 4.55024L18.018 7.70024C17.8926 7.80106 17.8072 7.94317 17.777 8.10117C17.7468 8.25917 17.7737 8.42277 17.853 8.56274C17.9306 8.70207 18.0565 8.80819 18.2069 8.8611C18.3574 8.91401 18.522 8.91006 18.6697 8.84999V15.1462C18.5213 15.0861 18.3561 15.0824 18.2052 15.1359C18.0542 15.1894 17.9282 15.2963 17.8507 15.4365H17.85ZM13.266 14.4712C12.6833 14.8138 11.994 14.9272 11.3322 14.7894C10.6705 14.6516 10.0837 14.2724 9.68624 13.7257L13.2247 11.6527L14.4307 10.9447L15.0022 10.6072L15.0352 10.5915L17.4652 9.16199C17.6152 9.07424 17.6677 8.87924 17.5822 8.72624C17.5626 8.68952 17.5357 8.6572 17.5031 8.63127C17.4706 8.60534 17.433 8.58635 17.3928 8.57546C17.3527 8.56457 17.3107 8.56202 17.2695 8.56796C17.2283 8.5739 17.1887 8.5882 17.1532 8.60999L15.3667 9.66374C15.027 9.15562 14.5809 8.72744 14.0592 8.40886C13.5376 8.09029 12.9529 7.88893 12.3457 7.81874V5.77199C12.3461 5.72905 12.3381 5.68645 12.322 5.64662C12.3059 5.6068 12.2822 5.57053 12.2521 5.53988C12.222 5.50924 12.1862 5.48482 12.1467 5.46802C12.1071 5.45123 12.0647 5.44238 12.0217 5.44199C11.9787 5.44228 11.9362 5.45106 11.8966 5.46781C11.857 5.48456 11.8211 5.50896 11.7909 5.53962C11.7607 5.57027 11.7369 5.60658 11.7208 5.64645C11.7047 5.68632 11.6966 5.72898 11.697 5.77199V7.79999C11.0305 7.83264 10.3819 8.0267 9.80699 8.36549C9.28813 8.66961 8.83974 9.08041 8.49149 9.57074L6.85349 8.60999C6.8178 8.58909 6.77831 8.57553 6.73731 8.57011C6.69631 8.56469 6.65465 8.56751 6.61475 8.5784C6.57486 8.5893 6.53755 8.60806 6.50501 8.63358C6.47246 8.65909 6.44534 8.69085 6.42524 8.72699C6.38393 8.80016 6.37281 8.88656 6.39424 8.9678C6.41567 9.04905 6.46797 9.11872 6.53999 9.16199L8.16524 10.1175C7.81759 10.8144 7.6647 11.5923 7.72274 12.369L7.87349 13.227C7.94099 13.4595 8.02574 13.686 8.12924 13.9042L6.53999 14.838C6.46749 14.8814 6.41493 14.9515 6.39361 15.0333C6.37229 15.1151 6.38392 15.202 6.42599 15.2752C6.4463 15.3114 6.47361 15.3431 6.50632 15.3685C6.53902 15.394 6.57647 15.4127 6.61648 15.4235C6.65649 15.4343 6.69825 15.4371 6.73933 15.4316C6.78041 15.4261 6.81998 15.4124 6.85574 15.3915L8.45099 14.457C8.81604 14.9901 9.29803 15.4327 9.86019 15.7512C10.4224 16.0696 11.0498 16.2555 11.6947 16.2945V18.228C11.6947 18.4102 11.8402 18.558 12.0195 18.558C12.0624 18.5576 12.1049 18.5487 12.1444 18.532C12.1839 18.5152 12.2198 18.4907 12.2498 18.4601C12.2799 18.4295 12.3037 18.3932 12.3198 18.3534C12.3358 18.3135 12.3439 18.2709 12.3435 18.228V16.278C12.9271 16.218 13.4905 16.0311 13.9942 15.7305C14.5626 15.3928 15.0421 14.9243 15.393 14.364L17.1457 15.39C17.2957 15.4755 17.4847 15.4222 17.571 15.2707C17.6126 15.198 17.6243 15.1119 17.6036 15.0308C17.5829 14.9496 17.5314 14.8796 17.46 14.8357L15.696 13.8007C15.7005 13.791 15.711 13.7797 15.711 13.7677C16.2465 12.5347 14.8132 12.0052 14.4945 12.9547C14.2816 13.5922 13.8449 14.131 13.2652 14.4712H13.266ZM18.585 15.489C18.6604 15.5343 18.7151 15.6072 18.7375 15.6922C18.7599 15.7773 18.7482 15.8677 18.705 15.9442C18.684 15.9819 18.6556 16.015 18.6216 16.0416C18.5876 16.0682 18.5487 16.0877 18.507 16.099C18.4654 16.1103 18.4219 16.1132 18.3792 16.1075C18.3364 16.1018 18.2952 16.0876 18.258 16.0657C18.1825 16.0207 18.1277 15.9479 18.1053 15.863C18.0828 15.778 18.0946 15.6876 18.138 15.6112C18.159 15.5735 18.1872 15.5403 18.2212 15.5137C18.2552 15.487 18.2941 15.4674 18.3358 15.456C18.3774 15.4446 18.4209 15.4417 18.4637 15.4474C18.5065 15.453 18.5477 15.4672 18.585 15.489V15.489ZM9.21299 12.4402C9.18074 11.19 9.32924 10.3177 10.5135 9.62174C10.9917 9.34028 11.5447 9.21211 12.0979 9.25449C12.6512 9.29686 13.1782 9.50774 13.608 9.85874L9.21299 12.4402V12.4402Z" fill="white"/>
</svg>
