<svg width="24" height="24" viewBox="0 0 24 24" fill="none" xmlns="http://www.w3.org/2000/svg">
<path d="M12 24C18.6274 24 24 18.6274 24 12C24 5.37258 18.6274 0 12 0C5.37258 0 0 5.37258 0 12C0 18.6274 5.37258 24 12 24Z" fill="#2B1544"/>
<path d="M18.7425 9.37651V14.3685C18.7425 14.5905 18.7537 14.817 18.7035 15.0353C18.5898 15.5402 18.3282 15.9998 17.952 16.3553C17.775 16.5255 17.5545 16.6358 17.3437 16.7603C15.9135 17.5928 14.4877 18.4275 13.0582 19.2615C12.6217 19.4948 12.1057 19.5345 11.6212 19.4745C11.3682 19.4437 11.1236 19.3637 10.9012 19.239C9.39599 18.3615 7.89074 17.4818 6.38624 16.605C6.01874 16.4003 5.74424 16.0628 5.54249 15.6998C5.37749 15.3848 5.25674 15.0383 5.25674 14.6775V9.28801C5.28449 8.76301 5.51699 8.26576 5.84774 7.86901C5.98178 7.70131 6.14394 7.55818 6.32699 7.44601C7.72574 6.63151 9.12449 5.81401 10.5225 4.99651C10.7527 4.86901 10.971 4.71301 11.22 4.62751C11.641 4.49602 12.0881 4.47077 12.5212 4.55401C12.714 4.60801 12.9105 4.66501 13.0837 4.76701C14.6062 5.66026 16.131 6.54676 17.6527 7.44076C18.0585 7.68076 18.3562 8.08201 18.5497 8.51026C18.672 8.78026 18.7425 9.07801 18.7425 9.37651V9.37651ZM11.955 7.51951C11.632 7.99845 11.258 8.44103 10.8397 8.83951C10.6207 9.04726 10.41 9.27151 10.2847 9.54976C10.1842 9.74626 10.1167 9.96976 10.1452 10.1948C10.179 10.4978 10.395 10.7648 10.6755 10.8728C10.9605 10.9868 11.283 10.9613 11.5665 10.8503C11.6175 10.8275 11.674 10.8197 11.7292 10.8278C11.6737 11.1833 11.4577 11.4833 11.2867 11.79L11.2942 11.841C11.4487 12.006 11.6115 12.162 11.7652 12.324C11.8042 12.3608 11.8402 12.4118 11.8942 12.429C12.0735 12.2903 12.2137 12.108 12.3787 11.955C12.4155 11.913 12.4912 11.8673 12.4515 11.802C12.2917 11.502 12.1147 11.1983 12.0645 10.8518C12.0945 10.7813 12.1792 10.8405 12.2295 10.8578C12.4957 10.9883 12.8175 11.0078 13.0957 10.9005C13.4745 10.7558 13.71 10.3125 13.6252 9.91201C13.5607 9.55201 13.3702 9.22201 13.1122 8.97001C12.7147 8.56126 12.333 8.12476 12.0615 7.61926C12.0519 7.59599 12.0374 7.57505 12.0191 7.55785C12.0007 7.54064 11.9788 7.52757 11.955 7.51951V7.51951ZM9.23024 12.402C8.78024 12.6465 8.47949 13.1258 8.40524 13.635C8.30249 14.3498 8.72024 15.0968 9.36749 15.3893C9.77699 15.5655 10.2525 15.5618 10.665 15.4005C10.878 15.315 11.0602 15.1755 11.217 15.0113C11.2762 14.9483 11.3625 14.892 11.3625 14.7953C11.355 14.6985 11.268 14.6453 11.2117 14.5793C11.1382 14.514 11.0797 14.4293 10.9957 14.3775C10.8607 14.3183 10.7797 14.466 10.6927 14.5395C10.3515 14.886 9.73724 14.889 9.38774 14.5508C9.27513 14.4448 9.19035 14.3127 9.1409 14.1662C9.09146 14.0197 9.07887 13.8633 9.10424 13.7108C9.14624 13.4235 9.31724 13.1513 9.57224 13.0148C9.73724 12.9323 9.92249 12.8873 10.1047 12.8955C10.362 12.912 10.5975 13.0485 10.7715 13.236C11.3655 13.827 11.937 14.4398 12.5287 15.033C12.8422 15.3428 13.2765 15.5415 13.719 15.5243C14.0565 15.5318 14.3812 15.3968 14.6557 15.2063C15.06 14.925 15.306 14.4368 15.3307 13.9433C15.3847 13.1618 14.8185 12.3735 14.0557 12.2228C13.569 12.1238 13.0192 12.2258 12.6442 12.5723C12.3772 12.8153 12.1342 13.0883 11.8702 13.338C11.598 13.1138 11.3827 12.8303 11.1165 12.6008C11.0028 12.4929 10.8707 12.4063 10.7265 12.345C10.6995 12.3278 10.6905 12.3195 10.6545 12.3053C10.4262 12.2083 10.1783 12.1665 9.9308 12.1833C9.68333 12.2001 9.44332 12.275 9.23024 12.402V12.402ZM13.008 13.191C13.2022 12.9975 13.4767 12.8843 13.7505 12.9068C14.0475 12.915 14.3355 13.074 14.493 13.3298C14.739 13.7048 14.667 14.244 14.3505 14.553C14.025 14.8688 13.467 14.9085 13.1167 14.61C12.8565 14.3888 12.6382 14.1248 12.3892 13.8923C12.3862 13.8758 12.3832 13.8443 12.3802 13.83C12.588 13.614 12.8002 13.407 13.008 13.191V13.191Z" fill="white"/>
</svg>
