<svg width="48" height="48" viewBox="0 0 24 24" fill="none" xmlns="http://www.w3.org/2000/svg">
<path d="M12 24C5.37225 24 0 18.6277 0 12C0 5.37225 5.37225 0 12 0C18.6277 0 24 5.37225 24 12C24 18.6277 18.6277 24 12 24ZM7.10325 6.762C6.72225 6.762 6.32325 6.7275 5.97675 6.897C5.7945 7.1775 5.75175 7.5765 5.9685 7.857C6.17625 8.04375 6.47925 8.04375 6.7485 8.052C7.953 8.052 9.1575 8.04375 10.3628 8.052C10.3283 9.096 10.3627 10.149 10.3455 11.202C9.27075 11.202 8.187 11.193 7.113 11.202C6.8355 11.202 6.5055 11.253 6.384 11.5327C6.28875 11.7877 6.28875 12.1185 6.5055 12.3135C6.68775 12.4665 6.948 12.4665 7.182 12.4755C8.2395 12.4755 9.288 12.4665 10.3455 12.4755C10.3455 13.6215 10.3283 14.7757 10.3538 15.93C8.98425 15.9555 7.6065 15.9135 6.23625 15.9555C5.6565 15.9218 5.43975 16.7032 5.8035 17.0677C6.01125 17.2552 6.315 17.229 6.5835 17.2463C9.045 17.2463 11.4983 17.2545 13.9598 17.2463C15.225 17.238 16.56 16.9238 17.5132 16.0665C18.588 15.132 19.056 13.698 19.1168 12.3315C19.1775 10.9552 18.909 9.4785 17.9902 8.3835C17.2102 7.44075 16.005 6.94875 14.8005 6.82125C13.5952 6.711 12.7928 6.76125 11.178 6.76125H7.1025L7.10325 6.762ZM11.8538 11.202V8.49375C11.862 8.34075 11.871 8.1285 12.0443 8.0775C12.5903 8.0265 13.0943 8.04375 13.6823 8.04375C14.7135 7.98375 15.8235 8.23875 16.56 8.98575C17.3745 9.81825 17.583 11.0407 17.5568 12.1522C17.5395 13.1542 17.2792 14.2073 16.5682 14.9625C15.8752 15.684 14.8357 15.99 13.8472 15.9473C13.182 15.9473 12.6682 15.9645 12.0787 15.9135C11.862 15.8963 11.8538 15.642 11.8448 15.4717C11.8448 14.4705 11.8538 13.4768 11.8448 12.4755C12.339 12.4665 12.8422 12.5175 13.3267 12.441C13.9252 12.3562 13.9253 11.3205 13.3358 11.2357C12.8415 11.1682 12.3473 11.2102 11.8538 11.202V11.202Z" fill="black"/>
</svg>
