<svg width="24" height="24" viewBox="0 0 24 24" fill="none" xmlns="http://www.w3.org/2000/svg">
<path d="M12 24C18.6274 24 24 18.6274 24 12C24 5.37258 18.6274 0 12 0C5.37258 0 0 5.37258 0 12C0 18.6274 5.37258 24 12 24Z" fill="#0FACF3"/>
<path d="M7.10326 6.76199H11.1773C12.7928 6.76199 13.5953 6.71099 14.7998 6.82124C16.005 6.94874 17.2103 7.44074 17.9903 8.38349C18.909 9.47849 19.1775 10.956 19.1168 12.3307C19.0568 13.698 18.588 15.132 17.5133 16.0657C16.56 16.9237 15.2258 17.238 13.9598 17.2462C11.4983 17.2545 9.04501 17.2462 6.58351 17.2462C6.31501 17.229 6.01126 17.2545 5.80351 17.0677C5.43976 16.7032 5.65651 15.9217 6.23701 15.9555C7.60651 15.9135 8.98426 15.9555 10.3545 15.93C10.3283 14.7757 10.3455 13.6215 10.3455 12.4755C9.28801 12.4665 8.23876 12.4755 7.18201 12.4755C6.94726 12.4665 6.68701 12.4665 6.50551 12.3135C6.28876 12.1185 6.28876 11.7877 6.38401 11.5335C6.50551 11.253 6.83476 11.202 7.11226 11.202C8.18701 11.193 9.27076 11.202 10.3448 11.202C10.3628 10.149 10.3283 9.09599 10.3628 8.05199C9.15751 8.04374 7.95301 8.05199 6.74776 8.05199C6.47926 8.04374 6.17626 8.04374 5.96776 7.85699C5.75176 7.57649 5.79526 7.17749 5.97676 6.89699C6.32326 6.72749 6.72226 6.76199 7.10326 6.76199V6.76199ZM11.8538 11.202C12.3473 11.2102 12.8415 11.1675 13.3358 11.2357C13.9253 11.3205 13.9253 12.3562 13.3268 12.441C12.8415 12.5175 12.339 12.4665 11.8448 12.4755C11.8538 13.4767 11.8448 14.4705 11.8448 15.4717C11.8538 15.642 11.862 15.8962 12.0788 15.9135C12.6683 15.9645 13.1813 15.9472 13.8473 15.9472C14.835 15.99 15.8753 15.6847 16.5683 14.9625C17.2793 14.2072 17.5395 13.155 17.5568 12.1522C17.583 11.0407 17.3745 9.81824 16.5593 8.98574C15.8235 8.23874 14.7143 7.98449 13.6823 8.04374C13.0943 8.04374 12.5903 8.02649 12.0443 8.07749C11.871 8.12849 11.862 8.34074 11.8538 8.49374V11.2012V11.202Z" fill="white"/>
</svg>
