<svg width="24" height="24" viewBox="0 0 24 24" fill="none" xmlns="http://www.w3.org/2000/svg">
<path d="M12 24C18.6274 24 24 18.6274 24 12C24 5.37258 18.6274 0 12 0C5.37258 0 0 5.37258 0 12C0 18.6274 5.37258 24 12 24Z" fill="#3FBADF"/>
<path d="M8.25 16.5893L12 14.4743V18.7005L8.25 16.5893V16.5893ZM8.25 9.83927L12 7.72427V11.9505L8.25 9.83927Z" fill="white" fill-opacity="0.4"/>
<path d="M19.5 14.4225L15.75 16.587V12.3225L19.5 14.4225ZM19.5 7.67251L15.75 9.83701V5.57251L19.5 7.67251Z" fill="white" fill-opacity="0.7"/>
<path d="M8.25 16.5877V12.3255L12 14.478L8.25 16.5877ZM8.25 9.83775V5.5755L12 7.728L8.25 9.83775V9.83775Z" fill="white" fill-opacity="0.8"/>
<path d="M15.75 16.587L12 14.478L15.75 12.3225V16.587ZM15.75 9.83701L12 7.72801L15.75 5.57251V9.83701Z" fill="white"/>
<path d="M15.75 16.587L12 18.7005V14.478L15.75 16.587V16.587ZM15.75 9.837L12 11.9505V7.728L15.75 9.837V9.837Z" fill="white" fill-opacity="0.6"/>
<path d="M8.25 12.3255V16.5877L4.5 14.424L8.25 12.3255ZM8.25 5.5755V9.83775L4.5 7.674L8.25 5.5755Z" fill="white" fill-opacity="0.5"/>
</svg>
