<svg width="24" height="24" viewBox="0 0 24 24" fill="none" xmlns="http://www.w3.org/2000/svg">
<path d="M12 24C18.6274 24 24 18.6274 24 12C24 5.37258 18.6274 0 12 0C5.37258 0 0 5.37258 0 12C0 18.6274 5.37258 24 12 24Z" fill="#2B5EBB"/>
<path fill-rule="evenodd" clip-rule="evenodd" d="M19.5 11.9715C19.4992 13.7235 18.1425 15.09 16.4085 15.0848C14.7105 15.0795 13.332 13.6755 13.341 11.9603C13.35 10.2458 14.7435 8.84775 16.4325 8.859C18.1567 8.87025 19.5007 10.2345 19.5 11.9715ZM6.8175 17.94C6.5178 17.9402 6.22105 17.8809 5.94444 17.7656C5.66783 17.6503 5.41687 17.4812 5.2061 17.2681C4.99534 17.055 4.82898 16.8022 4.71665 16.5244C4.60432 16.2466 4.54827 15.9492 4.55175 15.6495C4.5555 14.37 5.556 13.3358 6.81375 13.365C7.17525 13.3733 7.53825 13.5083 7.89075 13.6185C8.39175 13.7753 8.88075 13.9695 9.38025 14.133C9.69 14.235 9.98625 14.163 10.26 13.9935C10.6575 13.746 10.995 13.4475 11.2102 13.0095C11.4277 12.564 11.9227 12.3983 12.363 12.5873C12.771 12.7628 12.9832 13.2075 12.8655 13.6395C12.7327 14.1248 12.333 14.3858 11.835 14.2988C11.3932 14.2215 10.9552 14.079 10.5067 14.2418C9.70425 14.5335 9.35175 15.198 9.08775 15.9563C8.94375 16.371 8.79075 16.8068 8.53275 17.1488C8.11875 17.7008 7.50975 17.943 6.8175 17.94V17.94ZM6.7695 6.0615C7.79475 6.0615 8.5935 6.6615 8.9415 7.64925C9.0795 8.03925 9.2865 8.4045 9.4635 8.78025C9.90075 9.71025 10.998 9.80175 11.694 9.5475C12.3105 9.3225 12.9045 9.7185 12.9187 10.3575C12.9285 10.8 12.7012 11.1225 12.2857 11.253C11.9182 11.367 11.5042 11.2118 11.2792 10.8765C11.199 10.7565 11.124 10.632 11.0347 10.5188C10.4227 9.74625 9.74325 9.54375 8.82225 9.89025C8.50125 10.0103 8.2005 10.1903 7.899 10.3575C7.62656 10.5127 7.32486 10.6096 7.01302 10.642C6.70118 10.6744 6.386 10.6418 6.08745 10.546C5.78891 10.4503 5.51351 10.2935 5.27872 10.0857C5.04392 9.87797 4.85485 9.62368 4.7235 9.339C4.0065 7.8165 5.1015 6.0615 6.7695 6.0615V6.0615ZM13.917 17.9925C13.908 18.8318 13.2232 19.515 12.4057 19.5C11.616 19.485 10.956 18.8048 10.9357 18.0398C10.914 17.1743 11.55 16.47 12.4342 16.4618C13.2802 16.4535 13.9267 17.151 13.9177 17.9918L13.917 17.9925ZM10.9455 6.015C10.9455 5.166 11.61 4.4925 12.4417 4.5C13.2502 4.5075 13.9267 5.19975 13.92 6.0135C13.914 6.86925 13.2735 7.5555 12.4305 7.53975C11.4712 7.52175 10.9065 6.7485 10.9455 6.015V6.015Z" fill="white"/>
</svg>
