<svg width="48" height="48" viewBox="0 0 24 24" fill="none" xmlns="http://www.w3.org/2000/svg">
<path d="M12 24C5.37225 24 0 18.6277 0 12C0 5.37225 5.37225 0 12 0C18.6277 0 24 5.37225 24 12C24 18.6277 18.6277 24 12 24ZM7.5735 17.697L11.9887 19.4557L16.4017 17.6948L14.0123 11.9872L16.4033 6.27375L11.9887 4.51725L7.5735 6.276L9.96525 11.9872L7.5735 17.697Z" fill="black"/>
<path d="M11.9888 11.988V15.9675L7.57125 17.7L11.9888 11.985V8.00551L16.4063 6.27301L11.9888 11.988Z" fill="black" fill-opacity="0.197"/>
<path d="M11.9888 15.9675V19.4557L7.57125 17.6977L11.9888 15.9615V11.988L7.57125 6.27299L11.9888 8.00549V4.51724L16.4063 6.27449L11.9888 8.01074V11.985L16.4063 17.7L11.9888 15.9675Z" fill="black" fill-opacity="0.5"/>
<path d="M7.57125 6.27449L11.9888 4.51724V8.01074L7.57125 6.27449ZM16.4063 17.6977L11.9888 19.4557V15.9615L16.4063 17.6977Z" fill="black" fill-opacity="0.75"/>
</svg>
