<svg width="48" height="48" viewBox="0 0 24 24" fill="none" xmlns="http://www.w3.org/2000/svg">
<path fill-rule="evenodd" clip-rule="evenodd" d="M12 24C5.37225 24 0 18.6277 0 12C0 5.37225 5.37225 0 12 0C18.6277 0 24 5.37225 24 12C24 18.6277 18.6277 24 12 24ZM13.5547 9.909L15.21 8.25375L12 3.75L8.8125 8.2965L10.4348 9.9195L12 8.355L13.5547 9.909ZM9.8925 10.4625L8.2425 8.8125L3.75 12L8.292 15.1718L9.909 13.5547L8.355 12L9.8925 10.4625ZM14.0805 13.5652L15.717 15.2017L20.25 12L15.7665 8.7825L14.097 10.452L15.645 12L14.0805 13.5652ZM10.452 14.0978L8.847 15.702L12 20.25L15.174 15.7448L13.5375 14.1075L12 15.645L10.452 14.0978ZM12 9.39525L9.396 12L12 14.604L14.604 12L12 9.39525Z" fill="black"/>
</svg>
