<svg width="24" height="24" viewBox="0 0 24 24" fill="none" xmlns="http://www.w3.org/2000/svg">
<path d="M12 24C18.6274 24 24 18.6274 24 12C24 5.37258 18.6274 0 12 0C5.37258 0 0 5.37258 0 12C0 18.6274 5.37258 24 12 24Z" fill="#624DBF"/>
<path d="M16.7347 6.75C17.1052 6.79275 17.4803 6.816 17.8463 6.882C18.5715 7.01925 18.8085 7.36425 18.6855 8.064C18.636 8.3475 18.453 8.52225 18.162 8.5695C17.9886 8.59392 17.8137 8.60645 17.6385 8.607C15.2587 8.61225 12.8737 8.61675 10.494 8.6265C10.134 8.6265 9.77775 8.6595 9.4275 8.7165C8.247 8.901 7.803 9.369 7.704 10.5075C7.659 11.0423 7.659 11.0423 8.21775 11.0423H17.9888C18.1425 11.0468 18.2903 11.0753 18.4185 11.1548C18.8535 11.4203 18.7447 11.8358 18.72 12.219C18.7005 12.5265 18.5078 12.696 18.177 12.7575C18.038 12.7788 17.8976 12.7883 17.757 12.786H8.0145C7.6545 12.786 7.65975 12.786 7.689 13.1265C7.71375 13.4385 7.734 13.746 7.81275 14.0483C7.9605 14.6108 8.32125 14.9603 8.904 15.1163C9.5505 15.291 10.2173 15.3293 10.884 15.3338C13.209 15.348 15.5303 15.3435 17.856 15.3435C18.1523 15.3435 18.4283 15.381 18.6015 15.6413C18.9375 16.1423 18.6758 16.8413 18.0878 17.0213C17.5845 17.1773 17.0557 17.2148 16.5322 17.22C14.3497 17.2575 12.1672 17.2628 9.98475 17.22C9.31168 17.2027 8.64129 17.1284 7.98075 16.998C6.42525 16.6905 5.64975 15.9345 5.388 14.4405C5.32875 14.0955 5.29425 13.746 5.25 13.4003V10.6733C5.28 10.4033 5.304 10.1348 5.33925 9.87C5.54625 8.17725 6.33675 7.3455 8.0745 6.97725C8.69175 6.8445 9.32325 6.816 9.94575 6.7545C12.2025 6.75 14.4675 6.75 16.7347 6.75Z" fill="white"/>
</svg>
