<svg width="48" height="48" viewBox="0 0 24 24" fill="none" xmlns="http://www.w3.org/2000/svg">
<path d="M12 24C5.37225 24 0 18.6277 0 12C0 5.37225 5.37225 0 12 0C18.6277 0 24 5.37225 24 12C24 18.6277 18.6277 24 12 24ZM11.0528 3.3765C10.9718 3.38775 10.659 3.44625 10.3582 3.492C8.67975 3.7755 7.1295 4.5975 5.84475 5.8875C4.55475 7.17225 3.76725 8.6595 3.43725 10.4302C3.28725 11.235 3.28725 12.8085 3.43725 13.6132C3.76725 15.3832 4.55475 16.8705 5.84475 18.1553C7.1295 19.4453 8.616 20.2327 10.3867 20.5627C11.1915 20.7127 12.765 20.7127 13.5698 20.5627C15.3398 20.2327 16.8277 19.4453 18.1125 18.1553C19.4025 16.8705 20.19 15.384 20.52 13.6132C20.67 12.8085 20.67 11.235 20.52 10.4302C20.19 8.66025 19.4025 7.17225 18.1125 5.8875C16.8562 4.626 15.4388 3.8565 13.7205 3.51C13.188 3.39975 11.4173 3.31275 11.0528 3.3765V3.3765ZM14.1428 6.444C14.2118 6.4725 14.235 6.55875 14.235 6.7905V7.10325H13.8705C13.4077 7.10325 13.0433 7.2765 12.8925 7.566C12.7943 7.75125 12.7883 7.977 12.7883 10.7198C12.7883 12.3398 12.7657 13.6995 12.7425 13.74C12.621 13.9252 11.73 13.9777 11.3303 13.821L11.1682 13.7573V10.7662C11.1682 7.97625 11.1622 7.75125 11.064 7.566C10.914 7.2765 10.5487 7.10325 10.086 7.10325H9.7215V6.7905C9.7215 6.594 9.75075 6.4665 9.7965 6.44925C9.9015 6.40275 14.0325 6.40275 14.1428 6.44325V6.444ZM10.821 8.856V9.5685L10.653 9.666C10.4048 9.8115 9.98775 10.245 9.8205 10.5285C9.71886 10.7144 9.63716 10.9105 9.57675 11.1135L9.4845 11.4435H8.81925C8.061 11.4435 8.08425 11.472 8.24625 10.836C8.44875 10.0658 8.94075 9.28425 9.53625 8.81025C9.86625 8.544 10.5952 8.14425 10.74 8.14425C10.8037 8.14425 10.821 8.295 10.821 8.85675V8.856ZM13.6912 8.3475C14.1857 8.5944 14.6216 8.94407 14.97 9.37311C15.3183 9.80215 15.5709 10.3007 15.711 10.8352C15.873 11.472 15.8963 11.4427 15.138 11.4427H14.4728L14.3798 11.1128C14.3195 10.91 14.2381 10.7142 14.1368 10.5285C13.9688 10.245 13.5518 9.8115 13.3035 9.666L13.1355 9.5685V8.856C13.1355 8.295 13.1527 8.14425 13.2165 8.14425C13.257 8.14425 13.4715 8.23725 13.6912 8.34675V8.3475ZM9.4905 11.9872C9.4905 12.2587 9.66975 12.8145 9.855 13.104C10.8443 14.6715 13.1122 14.6715 14.1022 13.104C14.2875 12.8145 14.4667 12.2588 14.4667 11.9865V11.79H15.8497L15.8205 12.0908C15.6757 13.497 14.9002 14.6318 13.6852 15.2333C13.1242 15.5108 12.6322 15.627 11.9782 15.627C9.95325 15.627 8.3505 14.151 8.136 12.0908L8.1075 11.7907H9.4905V11.9872V11.9872ZM12.8175 16.1708C12.8925 16.5758 13.3095 16.8248 13.9343 16.8248H14.235V17.4608H9.7215V16.8412L10.1437 16.8127C10.416 16.7955 10.6358 16.7438 10.7573 16.674C10.9373 16.5698 11.1682 16.2225 11.1682 16.0605C11.1682 16.0027 11.3535 15.9855 11.9723 15.9855H12.7822L12.8175 16.1708V16.1708Z" fill="black"/>
</svg>
