<svg width="48" height="48" viewBox="0 0 24 24" fill="none" xmlns="http://www.w3.org/2000/svg">
<path d="M12 24C5.37225 24 0 18.6277 0 12C0 5.37225 5.37225 0 12 0C18.6277 0 24 5.37225 24 12C24 18.6277 18.6277 24 12 24ZM7.929 8.66025L6.0765 17.1232C6.06292 17.1751 6.06697 17.23 6.08802 17.2793C6.10907 17.3286 6.14591 17.3695 6.19275 17.3955L11.8725 20.9542C11.9145 20.9805 11.9595 20.9918 12.0023 20.9918C12.0485 20.9922 12.0938 20.9792 12.1328 20.9542L17.8125 17.3955C17.8592 17.3693 17.8959 17.3284 17.9168 17.2791C17.9377 17.2298 17.9416 17.175 17.928 17.1232L16.0755 8.66025C16.0685 8.62491 16.0536 8.5916 16.032 8.56275L12.1995 3.32625C12.1774 3.29475 12.1477 3.26922 12.1133 3.25194C12.0789 3.23467 12.0407 3.22619 12.0023 3.22725C11.9639 3.22631 11.9259 3.23485 11.8916 3.25212C11.8573 3.26939 11.8278 3.29485 11.8058 3.32625L7.97325 8.5635C7.95139 8.59228 7.93627 8.6256 7.929 8.661V8.66025ZM6.88275 15.6855L8.208 9.633L8.9655 12.0112L6.88275 15.6855ZM6.72075 16.9455L9.1635 12.6345L10.536 16.9448H6.72L6.72075 16.9455ZM7.1445 17.4255H10.689L11.5725 20.1998L7.1445 17.4247V17.4255ZM9.28725 11.442L8.43 8.751L11.76 4.20225V7.07925L9.28725 11.442ZM12.0023 19.9688L11.1923 17.4247H12.8123L12.0023 19.9688ZM12.4327 20.1998L13.3162 17.4247H16.8608L12.4327 20.1998ZM15.7972 9.633L17.1218 15.6855L15.0397 12.0112L15.7972 9.63375V9.633ZM14.7172 11.442L12.2452 7.08V4.20225L15.5753 8.751L14.7172 11.442V11.442ZM17.2838 16.9448H13.47L14.8425 12.6345L17.2845 16.9448H17.2838ZM12.0023 7.6245L14.5192 12.0652L12.9653 16.9448H11.04L9.486 12.0652L12.0023 7.6245Z" fill="black"/>
</svg>
