<svg width="24" height="24" viewBox="0 0 24 24" fill="none" xmlns="http://www.w3.org/2000/svg">
<path d="M12 24C18.6274 24 24 18.6274 24 12C24 5.37258 18.6274 0 12 0C5.37258 0 0 5.37258 0 12C0 18.6274 5.37258 24 12 24Z" fill="#C9A35E"/>
<path d="M7.52025 14.535C7.49746 14.5821 7.46189 14.6218 7.4176 14.6497C7.3733 14.6775 7.32207 14.6924 7.26975 14.6925H4.215C4.16717 14.6922 4.12024 14.6794 4.07883 14.6555C4.03741 14.6316 4.00292 14.5973 3.97875 14.556C3.95297 14.5143 3.93869 14.4665 3.93737 14.4175C3.93605 14.3685 3.94774 14.32 3.97125 14.277L9.52425 4.2675C9.624 4.08825 9.9105 4.08825 10.0103 4.2675L14.3392 12.051C14.361 12.0946 14.3716 12.1428 14.3703 12.1914C14.369 12.2401 14.3558 12.2877 14.3317 12.33C14.3088 12.3723 14.2746 12.4074 14.2329 12.4314C14.1912 12.4553 14.1436 12.4672 14.0955 12.4657H12.8295C12.7801 12.465 12.7318 12.4515 12.6892 12.4265C12.6466 12.4016 12.6112 12.366 12.5865 12.3232L9.774 7.20825L6.627 13.0245H7.8285C7.9215 13.0245 8.0145 13.074 8.06475 13.1527C8.08981 13.1933 8.10426 13.2395 8.10675 13.287C8.10924 13.3346 8.0997 13.3821 8.079 13.425L7.521 14.5335L7.52025 14.535ZM20.0258 14.277C20.0509 14.3195 20.0635 14.3682 20.0622 14.4176C20.0608 14.4669 20.0456 14.5149 20.0182 14.556C19.9954 14.5982 19.9613 14.6332 19.9197 14.6572C19.8781 14.6811 19.8307 14.6931 19.7828 14.6917H11.448C11.374 14.6917 11.303 14.6624 11.2507 14.61C11.1984 14.5577 11.169 14.4867 11.169 14.4127V13.305C11.169 13.1475 11.2972 13.026 11.448 13.026H17.379L14.238 7.23L13.644 8.41725C13.5442 8.60325 13.2367 8.60325 13.1437 8.41725L12.5858 7.30875C12.568 7.26937 12.5589 7.22668 12.5589 7.1835C12.5589 7.14032 12.568 7.09763 12.5858 7.05825L13.9733 4.27575C13.9975 4.23193 14.0325 4.19505 14.0751 4.16865C14.1176 4.14226 14.1662 4.12723 14.2162 4.125C14.3092 4.125 14.4165 4.17525 14.4667 4.2675L20.0258 14.277V14.277ZM16.413 15.3855L17.793 17.8897C17.8176 17.9321 17.8306 17.9802 17.8306 18.0292C17.8306 18.0783 17.8176 18.1264 17.793 18.1687C17.7701 18.2109 17.736 18.246 17.6944 18.2699C17.6529 18.2939 17.6055 18.3059 17.5575 18.3045H6.44025C6.39076 18.3039 6.34227 18.2904 6.29955 18.2655C6.25682 18.2405 6.22131 18.2048 6.1965 18.162C6.17285 18.1189 6.16109 18.0703 6.1624 18.0211C6.16372 17.972 6.17808 17.924 6.204 17.8822L8.4285 14.2695L10.6462 10.3845C10.6965 10.2922 10.7963 10.2345 10.8968 10.242C10.9475 10.2407 10.9976 10.2542 11.0409 10.2809C11.0841 10.3075 11.1187 10.3461 11.1405 10.392L11.6985 11.5012C11.7202 11.5423 11.731 11.5882 11.7297 11.6346C11.7284 11.681 11.715 11.7263 11.691 11.766L8.8725 16.6305H15.1252L14.5455 15.6645C14.5181 15.6234 14.5029 15.5754 14.5016 15.5261C14.5003 15.4767 14.5129 15.428 14.538 15.3855C14.5628 15.3427 14.5983 15.307 14.641 15.282C14.6838 15.2571 14.7323 15.2436 14.7817 15.243H16.1693C16.2698 15.243 16.3628 15.3 16.413 15.3855V15.3855Z" fill="white"/>
</svg>
