<svg width="48" height="48" viewBox="0 0 24 24" fill="none" xmlns="http://www.w3.org/2000/svg">
<path d="M12 24C5.37225 24 0 18.6277 0 12C0 5.37225 5.37225 0 12 0C18.6277 0 24 5.37225 24 12C24 18.6277 18.6277 24 12 24ZM7.52025 14.535L8.07825 13.425C8.0987 13.3821 8.10804 13.3348 8.10542 13.2873C8.1028 13.2399 8.0883 13.1939 8.06325 13.1535C8.03748 13.1145 8.00254 13.0824 7.96148 13.06C7.92042 13.0377 7.8745 13.0257 7.82775 13.0253H6.62625L9.774 7.20825L12.5858 12.3232C12.6353 12.4095 12.7282 12.4665 12.8287 12.4665H14.0947C14.1428 12.4681 14.1903 12.4563 14.232 12.4324C14.2737 12.4086 14.308 12.3737 14.331 12.3315C14.3551 12.2891 14.3685 12.2414 14.3698 12.1926C14.3711 12.1438 14.3603 12.0954 14.3385 12.0518L10.0095 4.26825C9.90975 4.089 9.62325 4.089 9.5235 4.26825L3.972 14.277C3.94849 14.32 3.9368 14.3685 3.93812 14.4175C3.93944 14.4665 3.95372 14.5143 3.9795 14.556C4.029 14.6415 4.122 14.6918 4.215 14.6918H7.26975C7.32207 14.6916 7.37331 14.6768 7.4176 14.6489C7.46189 14.6211 7.49746 14.5814 7.52025 14.5342V14.535ZM20.0258 14.277L14.4675 4.2675C14.4418 4.2239 14.4052 4.18776 14.3613 4.16264C14.3173 4.13752 14.2676 4.12428 14.217 4.12425C14.1671 4.1264 14.1185 4.14132 14.076 4.16758C14.0334 4.19384 13.9983 4.23056 13.974 4.27425L12.5865 7.0575C12.5688 7.09688 12.5596 7.13957 12.5596 7.18275C12.5596 7.22593 12.5688 7.26862 12.5865 7.308L13.1445 8.4165C13.2375 8.6025 13.545 8.6025 13.6448 8.4165L14.2388 7.22925L17.3798 13.0245H11.4488C11.2988 13.0245 11.1697 13.146 11.1697 13.3035V14.412C11.1697 14.562 11.2913 14.691 11.4488 14.691H19.7835C19.8316 14.6925 19.8792 14.6806 19.9209 14.6566C19.9626 14.6327 19.9968 14.5976 20.0198 14.5552C20.0471 14.5142 20.0623 14.4662 20.0637 14.4168C20.065 14.3675 20.0524 14.3188 20.0272 14.2762L20.0258 14.277ZM16.413 15.3855C16.3883 15.3428 16.3529 15.3072 16.3103 15.2822C16.2677 15.2573 16.2194 15.2437 16.17 15.243H14.7817C14.7324 15.2437 14.6841 15.2573 14.6415 15.2822C14.5989 15.3072 14.5635 15.3428 14.5388 15.3855C14.5136 15.428 14.501 15.4767 14.5023 15.5261C14.5037 15.5754 14.5189 15.6234 14.5463 15.6645L15.1252 16.6305H8.8725L11.691 11.766C11.715 11.7263 11.7284 11.681 11.7297 11.6346C11.731 11.5882 11.7202 11.5423 11.6985 11.5013L11.1405 10.392C11.1187 10.3461 11.0841 10.3075 11.0409 10.2809C10.9976 10.2542 10.9475 10.2407 10.8968 10.242C10.8458 10.2395 10.7951 10.2516 10.7508 10.2768C10.7064 10.302 10.6701 10.3394 10.6462 10.3845L8.4285 14.2695L6.204 17.8823C6.17822 17.9239 6.16394 17.9717 6.16262 18.0207C6.1613 18.0697 6.17299 18.1182 6.1965 18.1613C6.22116 18.2043 6.25661 18.2401 6.29936 18.2652C6.34211 18.2904 6.39067 18.3039 6.44025 18.3045H17.5575C17.6056 18.306 17.6532 18.2941 17.6949 18.2701C17.7366 18.2462 17.7708 18.2111 17.7938 18.1688C17.8184 18.1264 17.8314 18.0783 17.8314 18.0292C17.8314 17.9802 17.8184 17.9321 17.7938 17.8898L16.413 15.3855Z" fill="black"/>
</svg>
