<svg width="48" height="48" viewBox="0 0 24 24" fill="none" xmlns="http://www.w3.org/2000/svg">
<path d="M12 24C5.37225 24 0 18.6277 0 12C0 5.37225 5.37225 0 12 0C18.6277 0 24 5.37225 24 12C24 18.6277 18.6277 24 12 24ZM12.54 7.5585C14.8597 7.104 14.9888 8.66175 14.9888 8.66175C15.1178 10.4145 13.635 10.4797 13.635 10.4797L13.1985 10.5097C12.516 10.53 11.9445 11.0347 11.835 11.7127C11.8024 11.9147 11.8132 12.1213 11.8666 12.3187C11.92 12.5162 12.0148 12.7 12.1448 12.858C12.4073 13.1767 12.7943 13.3657 13.2053 13.3755L13.635 13.4003C16.7295 13.2053 17.6325 10.674 17.6325 10.674C18.9218 7.494 16.407 5.54625 16.407 5.54625C14.5282 4.071 12.3645 4.4265 10.887 4.97925C9.63378 5.45225 8.52718 6.24689 7.6785 7.28325C4.083 11.6423 7.38225 16.386 7.38225 16.386C9.06675 18.669 11.6625 19.6185 13.5967 19.488C13.9775 19.458 14.3328 19.285 14.5911 19.0036C14.8494 18.7222 14.9914 18.3534 14.9888 17.9715C14.9888 17.568 14.8298 17.181 14.5463 16.896C14.4064 16.755 14.2401 16.643 14.0568 16.5665C13.8735 16.4901 13.6769 16.4506 13.4783 16.4505H13.2847C13.003 16.4509 12.7225 16.4148 12.45 16.3433C8.5155 15.3038 8.994 11.4532 8.994 11.4532C9.44475 8.013 12.5392 7.5585 12.5392 7.5585H12.54Z" fill="black"/>
</svg>
