<svg width="24" height="24" viewBox="0 0 24 24" fill="none" xmlns="http://www.w3.org/2000/svg">
<path d="M12 24C18.6274 24 24 18.6274 24 12C24 5.37258 18.6274 0 12 0C5.37258 0 0 5.37258 0 12C0 18.6274 5.37258 24 12 24Z" fill="#F68922"/>
<path d="M12.54 7.5585C12.54 7.5585 9.44475 8.013 8.994 11.4533C8.994 11.4533 8.5155 15.3038 12.45 16.3433C12.7225 16.4148 13.003 16.4509 13.2848 16.4505H13.4783C13.8788 16.4505 14.2628 16.611 14.5463 16.896C14.8298 17.181 14.9888 17.568 14.9888 17.9715C14.9914 18.3534 14.8494 18.7222 14.5911 19.0036C14.3328 19.285 13.9775 19.458 13.5968 19.488C11.6625 19.6185 9.06675 18.669 7.38225 16.386C7.38225 16.386 4.083 11.6423 7.6785 7.28325C8.52698 6.247 9.6333 5.45237 10.8863 4.97925C12.3638 4.4265 14.5283 4.071 16.407 5.54625C16.407 5.54625 18.9218 7.494 17.6325 10.674C17.6325 10.674 16.7295 13.2053 13.635 13.4003L13.2053 13.3762C13.0017 13.3709 12.8016 13.3218 12.6187 13.2324C12.4357 13.143 12.2741 13.0153 12.1448 12.858C11.8823 12.5392 11.769 12.1215 11.835 11.7127C11.8869 11.3849 12.0515 11.0854 12.3003 10.8657C12.5492 10.646 12.8667 10.5199 13.1985 10.509L13.635 10.479C13.635 10.479 15.1178 10.4145 14.9888 8.66175C14.9888 8.66175 14.8598 7.104 12.5393 7.55925" fill="white"/>
</svg>
