<svg width="48" height="48" viewBox="0 0 24 24" fill="none" xmlns="http://www.w3.org/2000/svg">
<path fill-rule="evenodd" clip-rule="evenodd" d="M12 24C5.37225 24 0 18.6277 0 12C0 5.37225 5.37225 0 12 0C18.6277 0 24 5.37225 24 12C24 18.6277 18.6277 24 12 24ZM17.049 12L12 9.1425L6.951 12L12 14.8358L17.049 11.9985V12ZM12 15.7853C10.251 14.7955 8.50101 13.8075 6.75 12.8212C8.30925 15.2572 10.245 18.2663 12 20.9993C13.755 18.267 15.6908 15.2572 17.25 12.8212C15.499 13.8075 13.749 14.7955 12 15.7853V15.7853ZM12 8.2185L17.25 11.1487L12 3L6.75 11.1495L12 8.21925V8.2185Z" fill="black"/>
<path d="M17.0325 11.982L11.9917 12.4148V9.1305L17.0317 11.982H17.0325ZM11.9917 15.7605C13.4767 14.9205 15.3945 13.8375 17.2327 12.8025C15.6757 15.234 13.7437 18.237 11.9917 20.964V15.7605V15.7605ZM11.9917 8.20875V3L17.2327 11.1338L11.9917 8.20875V8.20875Z" fill="black" fill-opacity="0.296"/>
<path fill-rule="evenodd" clip-rule="evenodd" d="M11.9917 12.4147L17.0317 11.982L11.9917 14.8132V12.4147Z" fill="black" fill-opacity="0.803"/>
<path opacity="0.311" fill-rule="evenodd" clip-rule="evenodd" d="M11.991 12.4147L6.95026 11.982L11.991 14.8132V12.4147Z" fill="black"/>
</svg>
