<svg width="24" height="24" viewBox="0 0 24 24" fill="none" xmlns="http://www.w3.org/2000/svg">
<path d="M12 24C18.6274 24 24 18.6274 24 12C24 5.37258 18.6274 0 12 0C5.37258 0 0 5.37258 0 12C0 18.6274 5.37258 24 12 24Z" fill="#00FFBA"/>
<path d="M8.15324 8.17799C7.94728 8.38876 7.82034 8.66412 7.79383 8.9576C7.76732 9.25109 7.84288 9.54474 8.00774 9.78899C8.1243 9.96442 8.28267 10.1081 8.46859 10.2071C8.6545 10.3061 8.86212 10.3572 9.07274 10.356C9.50806 10.3561 9.92551 10.5291 10.2333 10.837C10.541 11.1449 10.7138 11.5624 10.7137 11.9977C10.7136 12.4331 10.5406 12.8505 10.2327 13.1583C9.92484 13.466 9.5073 13.6388 9.07199 13.6387C8.16648 13.6391 7.28133 13.3701 6.52913 12.866C5.77692 12.3619 5.19165 11.6454 4.84776 10.8078C4.50386 9.97009 4.41689 9.04907 4.59789 8.16184C4.77889 7.27461 5.2197 6.46126 5.86423 5.82524C6.67164 5.02661 7.74784 4.55777 8.8825 4.51033C10.0172 4.4629 11.1287 4.84029 12 5.56874C11.4872 5.99745 11.0749 6.53356 10.7921 7.13917C10.5093 7.74478 10.363 8.40511 10.3635 9.07349C10.3633 9.50716 10.5347 9.92328 10.8404 10.2309C11.1461 10.5385 11.5611 10.7127 11.9947 10.7152C11.7792 10.7152 11.5657 10.6728 11.3666 10.5903C11.1674 10.5077 10.9865 10.3868 10.8341 10.2343C10.6817 10.0819 10.5609 9.90089 10.4784 9.70171C10.396 9.50253 10.3536 9.28906 10.3537 9.07349C10.355 8.81829 10.2792 8.56865 10.1362 8.35724C9.99659 8.15053 9.80023 7.98854 9.57074 7.89074C9.41276 7.82465 9.24323 7.79062 9.07199 7.79062C8.90074 7.79062 8.73121 7.82465 8.57324 7.89074C8.41549 7.95755 8.2727 8.05522 8.15324 8.17799V8.17799ZM19.1332 13.149C19.482 13.9758 19.5797 14.8871 19.4141 15.7691C19.2484 16.6511 18.8268 17.4648 18.2017 18.1087C17.5689 18.7608 16.7558 19.2091 15.8666 19.3962C14.9774 19.5832 14.0525 19.5006 13.2106 19.1587C12.3687 18.8169 11.648 18.2314 11.1409 17.4774C10.6338 16.7234 10.3634 15.8352 10.3642 14.9265C10.3596 14.7081 10.3985 14.491 10.4789 14.2878C10.5593 14.0847 10.6794 13.8996 10.8322 13.7435C10.985 13.5874 11.1674 13.4634 11.3688 13.3787C11.5702 13.294 11.7864 13.2504 12.0049 13.2504C12.2233 13.2504 12.4396 13.294 12.6409 13.3787C12.8423 13.4634 13.0248 13.5874 13.1776 13.7435C13.3304 13.8996 13.4505 14.0847 13.5308 14.2878C13.6112 14.491 13.6502 14.7081 13.6455 14.9265C13.6443 15.1791 13.7181 15.4264 13.8576 15.637C13.9972 15.8475 14.1961 16.0119 14.4292 16.1092C14.7517 16.2442 15.114 16.2427 15.435 16.1055C15.7419 15.9726 15.9852 15.7258 16.1137 15.417C16.2419 15.1039 16.2417 14.7529 16.1131 14.4399C15.9846 14.1269 15.738 13.8771 15.4267 13.7445C15.269 13.6777 15.0993 13.6435 14.928 13.644C14.4927 13.644 14.0752 13.4711 13.7674 13.1632C13.4595 12.8554 13.2866 12.4379 13.2866 12.0026C13.2866 11.5673 13.4595 11.1498 13.7674 10.842C14.0752 10.5342 14.4927 10.3612 14.928 10.3612C15.8253 10.3608 16.7029 10.625 17.4508 11.1209C18.1987 11.6167 18.7836 12.3222 19.1325 13.149H19.1332Z" fill="white"/>
<path opacity="0.7" d="M11.9958 13.2857C12.9018 13.2857 13.6368 14.0207 13.6368 14.9267C13.6374 15.8368 13.3659 16.7263 12.8571 17.4809C12.3483 18.2355 11.6256 18.8208 10.7816 19.1615C9.93772 19.5023 9.0112 19.5829 8.12111 19.3931C7.23102 19.2032 6.41802 18.7516 5.78655 18.0962C5.16453 17.4514 4.746 16.6378 4.58309 15.7568C4.42019 14.8758 4.52011 13.9663 4.8704 13.1417C5.2207 12.3171 5.80589 11.6138 6.55306 11.1194C7.30024 10.625 8.17637 10.3614 9.0723 10.3614C9.50762 10.3614 9.92511 10.5344 10.2329 10.8422C10.5407 11.15 10.7137 11.5675 10.7137 12.0028C10.7137 12.4381 10.5407 12.8556 10.2329 13.1634C9.92511 13.4713 9.50762 13.6442 9.0723 13.6442C8.8173 13.6434 8.5683 13.7192 8.3568 13.8617C8.14995 14.0015 7.98794 14.1982 7.8903 14.4279C7.79277 14.6594 7.76537 14.9145 7.8115 15.1614C7.85763 15.4083 7.97527 15.6363 8.1498 15.8169V15.8184C8.35881 16.0354 8.63771 16.1717 8.93735 16.2033C9.23699 16.2348 9.53816 16.1596 9.7878 15.9909C9.96275 15.8739 10.106 15.7155 10.2048 15.5296C10.3036 15.3438 10.3549 15.1364 10.354 14.9259C10.354 14.0207 11.089 13.2857 11.9958 13.2857V13.2857ZM18.9903 6.98869C19.3471 7.68484 19.5192 8.46098 19.49 9.24271C19.4608 10.0244 19.2313 10.7856 18.8235 11.4532C18.4157 12.1207 17.8433 12.6724 17.1611 13.0553C16.4789 13.4381 15.7098 13.6394 14.9275 13.6397C14.4921 13.6397 14.0745 13.4667 13.7667 13.1588C13.4588 12.8509 13.2858 12.4334 13.2858 11.9979C13.2858 11.5625 13.4588 11.1449 13.7667 10.837C14.0745 10.5292 14.4921 10.3562 14.9275 10.3562C15.1799 10.3564 15.4268 10.2822 15.6372 10.1428C15.8476 10.0034 16.0121 9.80496 16.1103 9.57244C16.1825 9.39978 16.2162 9.21349 16.2092 9.02648C16.2022 8.83948 16.1547 8.65623 16.0698 8.48944C15.9877 8.32758 15.872 8.18505 15.7306 8.07133C15.5891 7.95762 15.425 7.87533 15.2493 7.82992C15.0736 7.78451 14.8902 7.77704 14.7114 7.80799C14.5325 7.83894 14.3623 7.90762 14.212 8.00944C14.0369 8.12625 13.8934 8.28467 13.7944 8.47053C13.6955 8.65639 13.6441 8.86388 13.645 9.07444C13.6497 9.29284 13.6106 9.50997 13.5302 9.71309C13.4498 9.9162 13.3297 10.1012 13.1769 10.2573C13.024 10.4134 12.8415 10.5374 12.6401 10.622C12.4388 10.7066 12.2225 10.7502 12.004 10.7501C11.7856 10.7501 11.5693 10.7064 11.368 10.6217C11.1666 10.537 10.9842 10.4129 10.8315 10.2568C10.6787 10.1006 10.5586 9.91554 10.4783 9.71239C10.398 9.50923 10.3591 9.29209 10.3638 9.07369C10.3633 8.22741 10.5981 7.39766 11.0419 6.67713C11.4858 5.95661 12.1213 5.37369 12.8773 4.99352C13.6334 4.61334 14.4803 4.45088 15.3234 4.52428C16.1665 4.59769 16.9726 4.90407 17.6515 5.40919L17.6545 5.41144C18.214 5.82856 18.6706 6.36805 18.9895 6.98869H18.9903Z" fill="white"/>
</svg>
