<svg width="24" height="24" viewBox="0 0 24 24" fill="none" xmlns="http://www.w3.org/2000/svg">
<path d="M12 24C18.6274 24 24 18.6274 24 12C24 5.37258 18.6274 0 12 0C5.37258 0 0 5.37258 0 12C0 18.6274 5.37258 24 12 24Z" fill="#00A5FF"/>
<path fill-rule="evenodd" clip-rule="evenodd" d="M13.56 9.43051C13.5577 10.1003 13.5532 10.7693 13.5525 11.4383C13.5517 12.5513 13.5502 13.665 13.5555 14.778C13.5555 14.913 13.518 14.9933 13.4002 15.0645C12.9427 15.3398 12.4927 15.627 12.0097 15.9293V15.6855C12.0097 13.9628 12.0075 12.2393 12.0127 10.5165C12.0135 10.3733 11.9752 10.2923 11.8462 10.2225C11.445 10.005 11.0527 9.77101 10.6567 9.54451C10.6132 9.51976 10.5667 9.49951 10.5 9.46651V9.70276C10.5 11.247 10.497 12.7913 10.5045 14.3348C10.5045 14.49 10.455 14.571 10.3245 14.6438C9.93074 14.8613 9.54599 15.0938 9.15674 15.3203C9.10199 15.3518 9.04424 15.3795 8.95724 15.4253V15.1853C8.95724 13.6343 8.95349 12.0833 8.96249 10.533C8.96324 10.353 8.90249 10.263 8.75249 10.1805C8.31449 9.93601 7.88474 9.67651 7.42949 9.41026C7.93349 9.12001 8.41799 8.83801 8.90774 8.56726C8.95274 8.54251 9.04649 8.57476 9.10274 8.60701C9.52949 8.84701 9.95474 9.08926 10.3755 9.33901C10.4775 9.39901 10.5517 9.40651 10.6582 9.34126C11.0467 9.10351 11.4487 8.88526 11.8357 8.64376C11.9752 8.55676 12.0757 8.57101 12.2085 8.65051C12.6562 8.91826 13.1115 9.17551 13.5645 9.43576L13.56 9.43051V9.43051ZM13.5645 9.43576C13.5975 9.40126 13.626 9.35701 13.6657 9.33376C14.088 9.08776 14.5102 8.84026 14.94 8.60776C14.9816 8.5896 15.0265 8.58041 15.0719 8.5808C15.1172 8.58119 15.162 8.59114 15.2032 8.61001C15.6397 8.84476 16.0702 9.09076 16.4955 9.34426C16.554 9.37876 16.6125 9.47026 16.6125 9.53551C16.6192 11.1578 16.6185 12.7808 16.6155 14.403C16.6155 14.4555 16.602 14.538 16.5667 14.559C16.0807 14.8485 15.5895 15.1298 15.0682 15.4313V15.1845C15.0682 13.6215 15.0667 12.0585 15.0712 10.4963C15.0712 10.3635 15.0397 10.2833 14.9152 10.215C14.4592 9.96151 14.0107 9.69301 13.56 9.43051L13.5645 9.43576V9.43576ZM5.20424 14.091C5.06368 14.0927 4.92418 14.0666 4.79375 14.0142C4.66332 13.9617 4.54455 13.884 4.44425 13.7856C4.34395 13.6871 4.26411 13.5697 4.20932 13.4403C4.15453 13.3108 4.12587 13.1718 4.12499 13.0313C4.1236 12.8906 4.15013 12.751 4.20304 12.6206C4.25595 12.4902 4.33419 12.3716 4.43323 12.2717C4.53227 12.1717 4.65015 12.0924 4.78005 12.0383C4.90995 11.9842 5.04928 11.9564 5.18999 11.9565C5.33068 11.9544 5.47039 11.9803 5.601 12.0326C5.73162 12.085 5.85054 12.1627 5.95087 12.2614C6.0512 12.36 6.13094 12.4776 6.18546 12.6073C6.23999 12.737 6.26821 12.8763 6.26849 13.017C6.27008 13.1577 6.24371 13.2972 6.19091 13.4276C6.13811 13.558 6.05994 13.6766 5.96092 13.7765C5.86191 13.8764 5.74403 13.9557 5.61413 14.0097C5.48424 14.0637 5.34491 14.0913 5.20424 14.091V14.091ZM6.64049 17.3063C6.37318 17.3085 6.11587 17.2048 5.92475 17.0179C5.73363 16.831 5.62425 16.576 5.62049 16.3088C5.61984 16.0414 5.72413 15.7844 5.91094 15.5931C6.09775 15.4018 6.35217 15.2915 6.61949 15.2858C7.16324 15.2738 7.63349 15.7358 7.63949 16.2885C7.64149 16.5558 7.53748 16.813 7.35023 17.0038C7.16299 17.1945 6.90778 17.3033 6.64049 17.3063V17.3063ZM5.82524 8.54926C6.36524 8.55076 6.79874 8.98426 6.79874 9.52051C6.79874 10.0658 6.35474 10.5045 5.80874 10.4985C5.68106 10.4976 5.55483 10.4714 5.43738 10.4213C5.31994 10.3712 5.21363 10.2982 5.12465 10.2067C5.03566 10.1151 4.96578 10.0067 4.91905 9.88792C4.87233 9.76909 4.8497 9.64216 4.85249 9.51451C4.85127 9.38677 4.87565 9.26009 4.9242 9.14194C4.97275 9.02379 5.04447 8.91656 5.13515 8.82658C5.22582 8.73661 5.3336 8.66571 5.45213 8.61808C5.57065 8.57045 5.69752 8.54705 5.82524 8.54926V8.54926ZM18.9667 12.2288C18.7251 12.2288 18.4933 12.1328 18.3224 11.9619C18.1515 11.791 18.0555 11.5592 18.0555 11.3175C18.0555 11.0758 18.1515 10.844 18.3224 10.6732C18.4933 10.5023 18.7251 10.4063 18.9667 10.4063C19.2084 10.4063 19.4402 10.5023 19.6111 10.6732C19.782 10.844 19.878 11.0758 19.878 11.3175C19.878 11.5592 19.782 11.791 19.6111 11.9619C19.4402 12.1328 19.2084 12.2288 18.9667 12.2288V12.2288ZM7.15649 6.46276C7.15488 6.35344 7.1752 6.24492 7.21627 6.14359C7.25734 6.04227 7.31831 5.95022 7.39558 5.87288C7.47285 5.79554 7.56485 5.73448 7.66613 5.69333C7.76742 5.65217 7.87593 5.63174 7.98524 5.63326C8.09463 5.63315 8.20295 5.65478 8.30392 5.69689C8.40488 5.73899 8.49647 5.80074 8.57337 5.87855C8.65026 5.95635 8.71093 6.04866 8.75185 6.15011C8.79278 6.25156 8.81313 6.36013 8.81174 6.46951C8.81214 6.5788 8.79086 6.68709 8.74912 6.78811C8.70739 6.88913 8.64604 6.98086 8.56861 7.05801C8.49119 7.13515 8.39923 7.19617 8.29807 7.23754C8.1969 7.27891 8.08854 7.2998 7.97924 7.29901C7.86991 7.29953 7.76157 7.27816 7.66063 7.23615C7.55969 7.19414 7.46818 7.13234 7.3915 7.05441C7.31481 6.97647 7.25452 6.88396 7.21415 6.78235C7.17379 6.68074 7.15419 6.57207 7.15649 6.46276V6.46276ZM18.477 15.6825C18.3677 15.6848 18.2591 15.6652 18.1576 15.6247C18.0561 15.5842 17.9638 15.5237 17.8861 15.4468C17.8084 15.3699 17.747 15.2782 17.7055 15.1771C17.664 15.076 17.6433 14.9675 17.6445 14.8583C17.6429 14.749 17.6629 14.6405 17.7034 14.5389C17.7438 14.4374 17.8039 14.3448 17.8802 14.2666C17.9565 14.1883 18.0475 14.1259 18.148 14.0829C18.2485 14.0399 18.3565 14.0172 18.4657 14.016C18.575 14.0157 18.6832 14.037 18.7843 14.0785C18.8853 14.1201 18.9771 14.1812 19.0545 14.2583C19.1319 14.3355 19.1934 14.4271 19.2353 14.528C19.2773 14.6288 19.2989 14.737 19.299 14.8463C19.3017 14.9556 19.2824 15.0644 19.2422 15.1662C19.2021 15.2679 19.1419 15.3605 19.0652 15.4386C18.9885 15.5166 18.8969 15.5784 18.7959 15.6203C18.6948 15.6622 18.5864 15.6833 18.477 15.6825ZM11.9895 5.14126C11.9893 5.22383 11.9724 5.3055 11.9398 5.38138C11.9073 5.45726 11.8597 5.52579 11.8001 5.58287C11.7404 5.63994 11.6698 5.68439 11.5926 5.71353C11.5153 5.74268 11.433 5.75594 11.3505 5.75251C11.2679 5.751 11.1865 5.73293 11.111 5.69939C11.0356 5.66584 10.9676 5.61749 10.9112 5.55721C10.8548 5.49693 10.811 5.42593 10.7825 5.34843C10.754 5.27093 10.7413 5.18849 10.7452 5.10601C10.7505 4.94274 10.8195 4.78801 10.9373 4.67491C11.0552 4.56181 11.2126 4.4993 11.376 4.50076C11.4586 4.50151 11.5403 4.51879 11.6162 4.55159C11.692 4.58438 11.7606 4.63202 11.8177 4.69171C11.8749 4.7514 11.9195 4.82192 11.949 4.89912C11.9785 4.97633 11.9923 5.05866 11.9895 5.14126V5.14126ZM16.3177 18.2678C16.2366 18.2682 16.1561 18.2524 16.0811 18.2213C16.0061 18.1902 15.938 18.1445 15.8809 18.0868C15.8238 18.0292 15.7787 17.9607 15.7484 17.8853C15.718 17.81 15.703 17.7294 15.7042 17.6483C15.7038 17.5653 15.7201 17.4831 15.7521 17.4065C15.7842 17.33 15.8313 17.2607 15.8908 17.2028C15.9502 17.1449 16.0207 17.0996 16.0981 17.0695C16.1754 17.0395 16.2581 17.0254 16.341 17.028C16.686 17.0325 16.956 17.3055 16.9545 17.6505C16.9545 18.0045 16.6785 18.2708 16.3177 18.2678ZM13.1077 19.5C13.0298 19.5017 12.9524 19.4875 12.8802 19.4583C12.8079 19.4292 12.7424 19.3856 12.6875 19.3304C12.6326 19.2751 12.5894 19.2092 12.5607 19.1368C12.532 19.0644 12.5183 18.9869 12.5205 18.909C12.5202 18.831 12.5354 18.7537 12.5654 18.6816C12.5953 18.6095 12.6394 18.5442 12.6949 18.4893C12.7504 18.4345 12.8163 18.3913 12.8888 18.3623C12.9612 18.3332 13.0387 18.319 13.1167 18.3203C13.2742 18.322 13.4246 18.3856 13.5356 18.4973C13.6466 18.609 13.7092 18.7598 13.71 18.9173C13.7098 18.9954 13.694 19.0727 13.6634 19.1446C13.6329 19.2165 13.5882 19.2816 13.532 19.3359C13.4759 19.3902 13.4094 19.4328 13.3365 19.4609C13.2636 19.4891 13.1858 19.5024 13.1077 19.5V19.5ZM15.0787 6.20776C14.9375 6.20696 14.8024 6.1501 14.7031 6.04967C14.6038 5.94924 14.5484 5.81349 14.5492 5.67226C14.55 5.53103 14.6069 5.3959 14.7073 5.2966C14.8078 5.1973 14.9435 5.14196 15.0847 5.14276C15.3727 5.14426 15.6172 5.39101 15.6165 5.67826C15.6128 5.81895 15.5547 5.95274 15.4544 6.05149C15.3541 6.15024 15.2195 6.20625 15.0787 6.20776V6.20776ZM10.1752 18.4193C10.1751 18.4806 10.1626 18.5412 10.1386 18.5976C10.1146 18.654 10.0796 18.7051 10.0355 18.7477C9.99149 18.7904 9.93935 18.8237 9.88219 18.8459C9.82504 18.8681 9.76402 18.8786 9.70274 18.8768C9.64138 18.8767 9.58065 18.8642 9.52424 18.8401C9.46782 18.816 9.41687 18.7807 9.37448 18.7363C9.33208 18.6919 9.2991 18.6394 9.27753 18.582C9.25597 18.5245 9.24626 18.4633 9.24899 18.402C9.24977 18.3409 9.2626 18.2805 9.28674 18.2243C9.31089 18.1682 9.34587 18.1173 9.38968 18.0747C9.4335 18.032 9.48529 17.9985 9.5421 17.9759C9.59891 17.9533 9.65961 17.9421 9.72074 17.943C9.78188 17.9444 9.84214 17.9578 9.89809 17.9825C9.95403 18.0071 10.0046 18.0426 10.0468 18.0869C10.089 18.1311 10.1221 18.1832 10.1441 18.2403C10.1662 18.2973 10.1767 18.3581 10.1752 18.4193V18.4193ZM18.1725 7.93501C18.1747 7.9879 18.1664 8.04071 18.1479 8.09035C18.1295 8.13999 18.1014 8.18547 18.0653 8.22414C18.0291 8.26282 17.9856 8.2939 17.9373 8.3156C17.889 8.33729 17.8369 8.34916 17.784 8.35051C17.6774 8.35232 17.5744 8.31197 17.4974 8.23822C17.4205 8.16448 17.3757 8.06332 17.373 7.95676C17.3709 7.90391 17.3794 7.85117 17.3979 7.80165C17.4165 7.75213 17.4448 7.70682 17.4811 7.66838C17.5175 7.62995 17.5611 7.59917 17.6095 7.57785C17.6579 7.55654 17.7101 7.54512 17.763 7.54426C17.9872 7.53676 18.168 7.71001 18.1725 7.93576V7.93501Z" fill="white"/>
</svg>
