<svg width="48" height="48" viewBox="0 0 24 24" fill="none" xmlns="http://www.w3.org/2000/svg">
<path fill-rule="evenodd" clip-rule="evenodd" d="M12 24C5.37225 24 0 18.6277 0 12C0 5.37225 5.37225 0 12 0C18.6277 0 24 5.37225 24 12C24 18.6277 18.6277 24 12 24ZM13.56 9.4305L13.5645 9.43575C13.1115 9.17475 12.657 8.91825 12.2085 8.6505C12.0765 8.571 11.9753 8.55675 11.8358 8.64375C11.4488 8.88525 11.0468 9.1035 10.6583 9.34125C10.5518 9.4065 10.4775 9.39975 10.3755 9.339C9.95411 9.09007 9.52983 8.84605 9.10275 8.607C9.0465 8.5755 8.95275 8.5425 8.90775 8.56725C8.418 8.838 7.9335 9.12 7.43025 9.41025C7.88475 9.6765 8.3145 9.936 8.75325 10.1805C8.9025 10.263 8.96325 10.353 8.9625 10.533C8.9535 12.0832 8.95725 13.6343 8.95725 15.1845V15.4245C9.04425 15.3795 9.102 15.3518 9.15675 15.3195C9.546 15.0945 9.93075 14.862 10.3238 14.6437C10.455 14.571 10.5053 14.49 10.5038 14.3348C10.497 12.7913 10.5 11.247 10.5 9.70275V9.4665C10.5668 9.4995 10.6125 9.51975 10.6567 9.5445C11.0527 9.771 11.445 10.005 11.8463 10.2225C11.9753 10.2923 12.0135 10.3725 12.0128 10.5165C12.0075 12.2393 12.0098 13.9627 12.0098 15.6855V15.9293C12.4935 15.627 12.9428 15.3398 13.4003 15.0645C13.5188 14.9933 13.5555 14.9123 13.5555 14.778C13.5513 13.6648 13.5503 12.5515 13.5525 11.4383C13.5532 10.7693 13.5577 10.1003 13.56 9.4305V9.4305ZM13.5645 9.43575L13.56 9.4305C14.0107 9.693 14.4592 9.9615 14.9152 10.215C15.0397 10.2832 15.0712 10.3635 15.0712 10.4962C15.0667 12.0585 15.0682 13.6215 15.0682 15.1845V15.4313C15.5895 15.1298 16.0808 14.8485 16.5668 14.559C16.602 14.538 16.6155 14.4563 16.6155 14.403C16.6185 12.7808 16.6192 11.1577 16.6125 9.5355C16.6125 9.47025 16.554 9.378 16.4955 9.34425C16.07 9.09017 15.6391 8.84511 15.2032 8.60925C15.1619 8.5905 15.1171 8.58067 15.0718 8.58042C15.0264 8.58016 14.9815 8.58947 14.94 8.60775C14.5103 8.84025 14.088 9.08775 13.6658 9.33375C13.626 9.35625 13.5983 9.40125 13.5645 9.43575V9.43575ZM5.20425 14.091C5.34492 14.0913 5.48425 14.0637 5.61414 14.0097C5.74404 13.9557 5.86192 13.8764 5.96093 13.7765C6.05995 13.6766 6.13812 13.558 6.19092 13.4276C6.24372 13.2972 6.27009 13.1577 6.2685 13.017C6.26822 12.8763 6.24 12.737 6.18547 12.6073C6.13095 12.4776 6.05121 12.36 5.95088 12.2614C5.85055 12.1627 5.73163 12.085 5.60101 12.0326C5.4704 11.9803 5.33069 11.9544 5.19 11.9565C5.04929 11.9564 4.90996 11.9842 4.78006 12.0383C4.65016 12.0924 4.53228 12.1717 4.43324 12.2716C4.3342 12.3716 4.25596 12.4902 4.20305 12.6206C4.15014 12.751 4.12361 12.8905 4.125 13.0312C4.1295 13.6238 4.608 14.094 5.205 14.091H5.20425ZM6.6405 17.3063C6.90778 17.3033 7.163 17.1945 7.35024 17.0037C7.53749 16.813 7.6415 16.5558 7.6395 16.2885C7.6335 15.7365 7.16325 15.2738 6.6195 15.2858C6.35218 15.2914 6.09776 15.4018 5.91095 15.5931C5.72414 15.7844 5.61985 16.0414 5.6205 16.3088C5.628 16.8653 6.0825 17.3093 6.6405 17.3063V17.3063ZM5.82525 8.54925C5.69753 8.54704 5.57066 8.57044 5.45214 8.61807C5.33361 8.6657 5.22583 8.7366 5.13516 8.82657C5.04448 8.91655 4.97276 9.02378 4.92421 9.14193C4.87566 9.26009 4.85128 9.38677 4.8525 9.5145C4.84971 9.64215 4.87234 9.76909 4.91906 9.88791C4.96579 10.0067 5.03567 10.1151 5.12466 10.2067C5.21364 10.2982 5.31995 10.3712 5.43739 10.4213C5.55484 10.4714 5.68107 10.4976 5.80875 10.4985C5.93822 10.5002 6.06673 10.4761 6.18682 10.4277C6.30691 10.3793 6.41618 10.3075 6.50829 10.2166C6.60041 10.1256 6.67352 10.0172 6.72338 9.89768C6.77324 9.77819 6.79886 9.64998 6.79875 9.5205C6.79875 8.98425 6.3645 8.55075 5.82525 8.54925V8.54925ZM18.9667 12.2288C19.2084 12.2288 19.4402 12.1327 19.6111 11.9619C19.782 11.791 19.878 11.5592 19.878 11.3175C19.878 11.0758 19.782 10.844 19.6111 10.6731C19.4402 10.5023 19.2084 10.4062 18.9667 10.4062C18.7251 10.4062 18.4933 10.5023 18.3224 10.6731C18.1515 10.844 18.0555 11.0758 18.0555 11.3175C18.0555 11.5592 18.1515 11.791 18.3224 11.9619C18.4933 12.1327 18.7251 12.2288 18.9667 12.2288V12.2288ZM7.1565 6.46275C7.1542 6.57206 7.1738 6.68073 7.21416 6.78234C7.25453 6.88396 7.31482 6.97646 7.3915 7.0544C7.46818 7.13234 7.5597 7.19413 7.66064 7.23614C7.76158 7.27815 7.86992 7.29953 7.97925 7.299C8.08854 7.29979 8.19691 7.2789 8.29808 7.23753C8.39924 7.19617 8.4912 7.13514 8.56862 7.058C8.64605 6.98085 8.7074 6.88912 8.74913 6.7881C8.79087 6.68709 8.81215 6.5788 8.81175 6.4695C8.81314 6.36012 8.79278 6.25155 8.75186 6.1501C8.71094 6.04865 8.65027 5.95634 8.57337 5.87854C8.49648 5.80074 8.40489 5.73899 8.30393 5.69688C8.20296 5.65477 8.09464 5.63314 7.98525 5.63325C7.87593 5.63173 7.76742 5.65216 7.66614 5.69332C7.56486 5.73448 7.47286 5.79553 7.39559 5.87287C7.31832 5.95021 7.25735 6.04227 7.21628 6.14359C7.17521 6.24491 7.15488 6.35344 7.1565 6.46275V6.46275ZM18.477 15.6825C18.5864 15.6833 18.6948 15.6622 18.7959 15.6203C18.8969 15.5784 18.9885 15.5166 19.0652 15.4385C19.1419 15.3605 19.2021 15.2679 19.2423 15.1661C19.2824 15.0644 19.3017 14.9556 19.299 14.8463C19.2989 14.737 19.2773 14.6288 19.2353 14.5279C19.1934 14.4271 19.1319 14.3354 19.0545 14.2583C18.9772 14.1812 18.8853 14.1201 18.7843 14.0785C18.6832 14.037 18.575 14.0157 18.4658 14.016C18.3565 14.0172 18.2485 14.0399 18.148 14.0829C18.0475 14.1259 17.9565 14.1883 17.8802 14.2666C17.8039 14.3448 17.7438 14.4374 17.7034 14.5389C17.6629 14.6404 17.6429 14.749 17.6445 14.8583C17.6433 14.9675 17.664 15.0759 17.7055 15.177C17.747 15.2781 17.8084 15.3699 17.8861 15.4468C17.9638 15.5237 18.0561 15.5842 18.1576 15.6246C18.2591 15.6651 18.3677 15.6848 18.477 15.6825V15.6825ZM11.9895 5.14125C11.9924 5.05859 11.9787 4.97618 11.9493 4.89889C11.9198 4.82159 11.8752 4.75098 11.818 4.69121C11.7608 4.63145 11.6923 4.58374 11.6163 4.5509C11.5404 4.51806 11.4587 4.50075 11.376 4.5C11.2127 4.49854 11.0552 4.56105 10.9373 4.67415C10.8195 4.78725 10.7505 4.94198 10.7452 5.10525C10.7413 5.18774 10.754 5.27017 10.7825 5.34767C10.811 5.42517 10.8548 5.49617 10.9112 5.55645C10.9676 5.61674 11.0356 5.66508 11.1111 5.69863C11.1865 5.73217 11.2679 5.75024 11.3505 5.75175C11.433 5.75518 11.5153 5.74193 11.5926 5.71278C11.6698 5.68363 11.7404 5.63918 11.8001 5.58211C11.8597 5.52504 11.9073 5.4565 11.9398 5.38062C11.9724 5.30474 11.9893 5.22307 11.9895 5.1405V5.14125ZM16.3177 18.2678C16.6785 18.2708 16.9538 18.0045 16.9553 17.6512C16.9562 17.5699 16.9411 17.4891 16.9106 17.4136C16.8801 17.3381 16.835 17.2694 16.7778 17.2115C16.7206 17.1536 16.6525 17.1076 16.5773 17.0763C16.5022 17.0449 16.4216 17.0287 16.3403 17.0287C16.2574 17.0262 16.175 17.0404 16.0978 17.0704C16.0205 17.1005 15.9502 17.1457 15.8908 17.2036C15.8315 17.2614 15.7844 17.3305 15.7523 17.4069C15.7203 17.4833 15.7039 17.5654 15.7042 17.6483C15.7031 17.7294 15.7181 17.81 15.7484 17.8853C15.7787 17.9607 15.8238 18.0292 15.8809 18.0868C15.938 18.1445 16.0061 18.1902 16.0811 18.2213C16.1561 18.2524 16.2366 18.2682 16.3177 18.2678V18.2678ZM13.1077 19.5C13.1858 19.5024 13.2636 19.4891 13.3365 19.4609C13.4094 19.4327 13.4759 19.3902 13.532 19.3359C13.5882 19.2816 13.6329 19.2165 13.6634 19.1446C13.694 19.0727 13.7098 18.9954 13.71 18.9172C13.7092 18.7598 13.6466 18.609 13.5356 18.4973C13.4246 18.3856 13.2742 18.322 13.1168 18.3203C13.0387 18.319 12.9612 18.3332 12.8888 18.3623C12.8164 18.3913 12.7504 18.4345 12.6949 18.4893C12.6394 18.5442 12.5954 18.6095 12.5654 18.6816C12.5355 18.7536 12.5202 18.831 12.5205 18.909C12.5183 18.9869 12.532 19.0644 12.5607 19.1368C12.5894 19.2092 12.6326 19.2751 12.6875 19.3303C12.7424 19.3856 12.808 19.4291 12.8802 19.4583C12.9524 19.4875 13.0299 19.5017 13.1077 19.5V19.5ZM15.0787 6.20775C15.2195 6.20625 15.3542 6.15023 15.4544 6.05148C15.5547 5.95273 15.6128 5.81895 15.6165 5.67825C15.6144 5.53753 15.5578 5.4031 15.4586 5.30323C15.3595 5.20337 15.2255 5.14584 15.0848 5.14275C14.9435 5.14195 14.8078 5.19729 14.7073 5.29659C14.6069 5.39589 14.55 5.53102 14.5493 5.67225C14.5485 5.81348 14.6038 5.94924 14.7031 6.04966C14.8024 6.15009 14.9375 6.20695 15.0787 6.20775ZM10.1753 18.4193C10.1781 18.2958 10.1318 18.1764 10.0466 18.0871C9.96134 17.9978 9.84415 17.9459 9.72075 17.943C9.65956 17.942 9.59877 17.9531 9.54188 17.9757C9.48499 17.9982 9.4331 18.0318 9.38921 18.0744C9.34531 18.117 9.31026 18.1679 9.28607 18.2242C9.26189 18.2804 9.24903 18.3408 9.24825 18.402C9.24562 18.4633 9.25543 18.5245 9.27709 18.5819C9.29874 18.6393 9.3318 18.6918 9.37427 18.7361C9.41674 18.7804 9.46774 18.8156 9.5242 18.8396C9.58065 18.8637 9.64139 18.8761 9.70275 18.876C9.76396 18.8778 9.82492 18.8673 9.88203 18.8452C9.93913 18.8231 9.99124 18.7898 10.0353 18.7472C10.0793 18.7047 10.1144 18.6537 10.1384 18.5974C10.1625 18.5411 10.175 18.4805 10.1753 18.4193V18.4193ZM18.1725 7.935C18.1719 7.88225 18.1608 7.83015 18.1398 7.78177C18.1188 7.73339 18.0883 7.6897 18.0501 7.65329C18.012 7.61687 17.9669 7.58846 17.9176 7.56974C17.8683 7.55101 17.8157 7.54235 17.763 7.54425C17.7101 7.54511 17.6579 7.55653 17.6095 7.57785C17.5611 7.59916 17.5175 7.62994 17.4811 7.66838C17.4448 7.70681 17.4165 7.75212 17.3979 7.80164C17.3794 7.85117 17.3709 7.9039 17.373 7.95675C17.3758 8.06331 17.4205 8.16447 17.4975 8.23822C17.5744 8.31196 17.6774 8.35232 17.784 8.3505C18.009 8.343 18.177 8.163 18.1725 7.93575V7.935Z" fill="black"/>
</svg>
