<svg width="24" height="24" viewBox="0 0 24 24" fill="none" xmlns="http://www.w3.org/2000/svg">
<path d="M12 24C18.6274 24 24 18.6274 24 12C24 5.37258 18.6274 0 12 0C5.37258 0 0 5.37258 0 12C0 18.6274 5.37258 24 12 24Z" fill="#347FFB"/>
<path fill-rule="evenodd" clip-rule="evenodd" d="M14.775 9.79125L12.6232 15.6038L12.6097 15.639L12.2153 14.8478L11.3903 15.2228L13.554 9.375L14.379 9L14.7742 9.79125H14.775ZM20.16 9.9285L18.009 15.75L17.6138 14.9565L16.7888 15.3315L16.839 15.195L18.9893 9.375L19.8143 9L20.208 9.79125L20.16 9.9285V9.9285ZM15.555 14.9625L16.8218 11.5403L15.9945 11.9153L15.6015 11.1225L14.331 14.544L14.7247 15.3375L15.555 14.9625V14.9625ZM8.70225 11.5875H4.9185L5.5635 12.1875L4.9185 12.7972H8.6985L9.3405 12.1875L8.70225 11.5875ZM4.395 14.1248H10.5113L9.8685 14.73L10.5113 15.3337H4.395L3.75 14.73L4.395 14.124V14.1248ZM6.27075 9.04875H12.3832L11.7427 9.65475L12.384 10.2585H6.2715L5.6265 9.654L6.2715 9.04875H6.27075Z" fill="white"/>
</svg>
