<svg width="48" height="48" viewBox="0 0 24 24" fill="none" xmlns="http://www.w3.org/2000/svg">
<path fill-rule="evenodd" clip-rule="evenodd" d="M12 24C5.37225 24 0 18.6277 0 12C0 5.37225 5.37225 0 12 0C18.6277 0 24 5.37225 24 12C24 18.6277 18.6277 24 12 24ZM19.5 11.0378V8.04975C19.4677 8.06175 19.434 8.07 19.4047 8.0865L15.9127 10.0463C15.8527 10.0793 15.8475 10.1085 15.8752 10.1663C16.461 11.3918 16.4588 12.615 15.864 13.836C15.834 13.8975 15.8392 13.9283 15.9015 13.9635C17.0655 14.6108 18.2288 15.261 19.392 15.9097C19.4145 15.9217 19.4385 15.9315 19.4715 15.9465C19.4752 15.8715 19.4805 15.8115 19.4805 15.7515L19.4835 13.8713C19.4858 12.9563 19.4887 12.0398 19.4925 11.1248C19.4925 11.0955 19.497 11.067 19.5 11.0378V11.0378ZM12.225 3.75H12.21C12.2055 3.786 12.1973 3.82125 12.1973 3.85725C12.1973 4.38225 12.1973 4.90725 12.1995 5.4315C12.2018 6.19125 12.2062 6.95175 12.207 7.7115C12.207 7.78575 12.234 7.81275 12.3045 7.81275C12.3446 7.81278 12.3847 7.81528 12.4245 7.82025C13.7625 7.97625 14.8155 8.59125 15.5828 9.6675C15.6435 9.753 15.6427 9.75375 15.7327 9.7035L19.197 7.76925C19.2195 7.7565 19.2413 7.7415 19.2728 7.72125C19.2375 7.70025 19.2127 7.68375 19.188 7.67025L12.4012 3.8565C12.3412 3.82275 12.2835 3.78525 12.225 3.75ZM11.76 20.25H11.805C11.808 20.2312 11.8133 20.2125 11.8133 20.1937L11.8095 18.285C11.8073 17.6122 11.8042 16.9395 11.805 16.2667C11.805 16.1917 11.7765 16.1723 11.7045 16.1693C11.5772 16.1644 11.4502 16.1524 11.3242 16.1332C10.095 15.9337 9.1155 15.345 8.39925 14.3505C8.35575 14.2905 8.32425 14.2762 8.2545 14.3152C7.107 14.958 5.9595 15.5985 4.812 16.2397C4.7895 16.2525 4.77 16.2683 4.74 16.2885C4.78425 16.3148 4.815 16.3335 4.84725 16.3515L11.6843 20.1953C11.7113 20.2103 11.7345 20.2312 11.76 20.25V20.25ZM4.5 15.3375V15.9503C4.53375 15.942 4.57125 15.9405 4.6005 15.924C5.74716 15.281 6.89341 14.6372 8.03925 13.9927C8.13675 13.938 8.13525 13.9387 8.0865 13.8397C7.4895 12.6075 7.4865 11.3752 8.0865 10.1437C8.1195 10.0747 8.1105 10.0463 8.04375 10.0088C6.90075 9.3735 5.76 8.736 4.6185 8.0985C4.596 8.08575 4.572 8.076 4.539 8.06025C4.53675 8.094 4.53375 8.115 4.53375 8.13525L4.53 8.85675C4.52625 9.972 4.5225 11.0865 4.52025 12.2017L4.515 14.3212C4.515 14.637 4.5135 14.9527 4.512 15.2685C4.512 15.291 4.5045 15.315 4.5 15.3383V15.3375ZM14.6047 14.64C14.6025 14.6085 14.6002 14.5777 14.5995 14.547C14.586 14.1645 14.5335 13.7872 14.4 13.425C14.2553 13.032 14.046 12.6803 13.695 12.4238C13.6118 12.3638 13.608 12.3645 13.557 12.453C13.3594 12.7955 13.1234 13.1143 12.8535 13.4033C11.781 14.5388 10.3545 14.7382 9.0585 14.292C9.033 14.2837 9.009 14.2725 8.98425 14.262C9.2535 14.2823 9.5175 14.298 9.7815 14.2582C10.3492 14.1727 10.809 13.9223 11.1015 13.4243C11.1578 13.3298 11.1578 13.329 11.0543 13.2833C10.2623 12.933 9.72 12.3592 9.432 11.5612C9.20025 10.9215 9.162 10.2615 9.2325 9.59175C9.23925 9.53175 9.2475 9.471 9.25575 9.411C9.2655 9.351 9.27675 9.29175 9.28725 9.2325C9.30525 9.25425 9.30975 9.27525 9.31575 9.2955C9.39075 9.555 9.45525 9.8175 9.543 10.0717C9.6435 10.362 9.7965 10.6268 10.0155 10.851C10.125 10.9635 10.2518 11.052 10.4033 11.1038C10.5195 11.1435 10.5233 11.1428 10.5833 11.0363C10.9908 10.2963 11.663 9.73775 12.465 9.4725C13.1175 9.24825 13.7918 9.20325 14.4765 9.26775C14.5868 9.27825 14.6963 9.29475 14.8065 9.30825L14.8215 9.28425L14.6955 9.17625C13.5757 8.22075 12.2963 7.914 10.854 8.29875C8.934 8.81175 7.647 10.755 8.073 12.7642C8.529 14.9107 10.7557 16.2622 12.951 15.7222C14.9295 15.2362 16.2038 13.401 15.9165 11.4457C15.8046 10.673 15.454 9.95448 14.9138 9.39075C14.8821 9.35827 14.8391 9.33921 14.7938 9.3375C14.4713 9.3492 14.1527 9.41146 13.8495 9.522C13.4145 9.69 13.0612 9.9525 12.8595 10.3748C12.7702 10.5623 12.786 10.524 12.9368 10.5998C13.5053 10.8848 13.9718 11.277 14.2943 11.8185C14.5748 12.2888 14.7082 12.7995 14.7405 13.338C14.7696 13.7763 14.7237 14.2164 14.6047 14.6392V14.64ZM19.3057 16.299C19.2637 16.2743 19.2368 16.257 19.2098 16.242L15.7267 14.3107C15.624 14.2537 15.6248 14.2538 15.5543 14.3505C14.7518 15.4493 13.6582 16.0537 12.2767 16.1677C12.2152 16.173 12.198 16.194 12.198 16.2525C12.1995 17.55 12.1988 18.8467 12.1995 20.1442C12.1995 20.169 12.2047 20.1945 12.2085 20.2358L19.3057 16.2983V16.299ZM11.8043 3.777C11.7533 3.804 11.7143 3.82275 11.6768 3.84375C9.399 5.1075 7.1205 6.37125 4.8435 7.63575C4.80225 7.659 4.7655 7.68975 4.7265 7.71675C4.764 7.74225 4.8015 7.76925 4.84125 7.79175L8.23125 9.67425C8.3265 9.72675 8.325 9.726 8.38875 9.6375C9.2055 8.517 10.3192 7.90725 11.727 7.80525C11.802 7.8 11.8095 7.77 11.8095 7.71V3.87C11.8095 3.8445 11.8065 3.819 11.8043 3.777V3.777Z" fill="black"/>
</svg>
