<svg width="48" height="48" viewBox="0 0 24 24" fill="none" xmlns="http://www.w3.org/2000/svg">
<path fill-rule="evenodd" clip-rule="evenodd" d="M12 24C5.37225 24 0 18.6277 0 12C0 5.37225 5.37225 0 12 0C18.6277 0 24 5.37225 24 12C24 18.6277 18.6277 24 12 24ZM6 18.1905V18.39L6.03375 18.5212C6.15375 18.9705 6.465 19.2503 6.915 19.3868C7.446 19.548 7.989 19.5157 8.5275 19.422C9.3165 19.2855 9.9765 18.9142 10.5338 18.3727C10.9193 17.9977 11.2358 17.5747 11.4945 17.1105C12.0285 16.1527 12.3547 15.1237 12.6465 14.0835C12.792 13.566 12.918 13.044 13.0493 12.5235C13.0718 12.4342 13.1115 12.405 13.212 12.405C13.5817 12.4073 13.9523 12.4027 14.322 12.3885C14.538 12.3802 14.7413 12.321 14.8868 12.1492C14.9565 12.0667 15.0338 11.9887 15.0983 11.9025C15.297 11.6377 15.2632 11.3003 15.0262 11.0648C14.832 10.8728 14.586 10.803 14.3198 10.7932C14.0723 10.7842 13.8248 10.7917 13.5743 10.7917C13.5728 10.7707 13.569 10.7572 13.572 10.7452C13.632 10.5007 13.6957 10.2562 13.7535 10.011C13.767 9.951 13.8045 9.95175 13.8517 9.951C14.208 9.945 14.5642 9.942 14.9197 9.93C15.186 9.921 15.441 9.88425 15.6585 9.70575C15.9255 9.48825 15.9818 9.26325 15.927 8.9775C15.873 8.69625 15.6683 8.532 15.4005 8.4315C15.1808 8.349 14.9513 8.34825 14.721 8.352C14.562 8.35425 14.4023 8.352 14.2395 8.352C14.2433 8.31975 14.2417 8.2995 14.2477 8.28C14.4352 7.668 14.6633 7.071 14.9783 6.507C15.1298 6.23625 15.3097 5.9835 15.54 5.76675C15.5827 5.72625 15.6405 5.69925 15.6915 5.66625L15.7117 5.6925C15.7027 5.71725 15.693 5.742 15.6855 5.7675C15.585 6.1035 15.6157 6.42 15.8655 6.69C16.131 6.9795 16.4745 7.0875 16.8735 7.074C17.3932 7.05675 17.967 6.62775 17.9985 5.95275C18.0105 5.715 17.9107 5.514 17.808 5.31225C17.7297 5.15596 17.6211 5.01683 17.4885 4.903C17.3558 4.78916 17.2019 4.7029 17.0355 4.64925C16.4535 4.44975 15.8557 4.47525 15.264 4.58025C14.3715 4.7385 13.6268 5.1705 12.9945 5.78025C12.5145 6.243 12.1275 6.77625 11.7975 7.344C11.6167 7.656 11.4637 7.983 11.3077 8.30775C11.2627 8.40225 11.2125 8.439 11.0992 8.43675C10.631 8.42975 10.1627 8.42875 9.6945 8.43375C9.58369 8.43339 9.47328 8.44725 9.366 8.475C9.0675 8.5575 8.88075 8.75175 8.83725 9.04275C8.7945 9.33075 8.86725 9.59025 9.132 9.77325C9.345 9.92025 9.59175 9.978 9.846 9.9885C10.17 10.0012 10.4947 9.9915 10.8232 9.9915C10.8232 10.017 10.827 10.0343 10.8232 10.0493C10.7542 10.3088 10.686 10.569 10.6125 10.827C10.6057 10.8502 10.5615 10.8795 10.5345 10.8795C10.245 10.884 9.9555 10.8787 9.66525 10.8832C9.363 10.8885 9.054 10.869 8.76 10.9207C8.34 10.9927 8.1195 11.2785 8.127 11.6505C8.1345 12.0758 8.4405 12.3525 8.88975 12.387C9.21975 12.4125 9.55275 12.4028 9.88425 12.408C9.98175 12.4095 10.0785 12.408 10.1843 12.408C10.1693 12.4778 10.1595 12.537 10.1437 12.594C9.7485 14.049 9.35625 15.5063 8.95425 16.9598C8.88 17.2275 8.76975 17.4863 8.6715 17.7473C8.6565 17.787 8.61375 17.817 8.58375 17.8508C8.556 17.8163 8.52075 17.7847 8.50275 17.7457C8.43901 17.6061 8.33709 17.4873 8.20875 17.403C7.809 17.1315 7.36875 17.0835 6.9075 17.2103C6.453 17.3355 6.1485 17.6115 6.03225 18.0593L6 18.1905V18.1905Z" fill="black"/>
</svg>
