<svg width="24" height="24" viewBox="0 0 24 24" fill="none" xmlns="http://www.w3.org/2000/svg">
<path d="M12 24C18.6274 24 24 18.6274 24 12C24 5.37258 18.6274 0 12 0C5.37258 0 0 5.37258 0 12C0 18.6274 5.37258 24 12 24Z" fill="#C99705"/>
<path fill-rule="evenodd" clip-rule="evenodd" d="M6 18.1905L6.03225 18.0592C6.1485 17.6115 6.453 17.3355 6.9075 17.2102C7.36875 17.0827 7.809 17.1315 8.20875 17.403C8.34 17.4915 8.439 17.6047 8.50275 17.7465C8.52075 17.7847 8.556 17.8162 8.58375 17.8515C8.61375 17.817 8.6565 17.787 8.6715 17.748C8.76975 17.4862 8.88 17.2275 8.95425 16.9605C9.35625 15.5055 9.74925 14.0497 10.1437 12.594C10.1595 12.537 10.1693 12.4777 10.1835 12.4087C10.0785 12.4087 9.981 12.4095 9.88425 12.4087C9.55275 12.4027 9.21975 12.4125 8.88975 12.387C8.4405 12.3525 8.13525 12.0757 8.127 11.6505C8.1195 11.2785 8.33925 10.9927 8.76 10.92C9.054 10.869 9.363 10.8885 9.66525 10.8832C9.9555 10.8787 10.245 10.8832 10.5352 10.8802C10.5615 10.8802 10.6057 10.8502 10.6125 10.827C10.686 10.569 10.7543 10.3095 10.8225 10.0492C10.827 10.0342 10.8232 10.017 10.8232 9.9915C10.4947 9.9915 10.17 10.0012 9.846 9.9885C9.591 9.978 9.345 9.92025 9.132 9.77325C8.86725 9.591 8.7945 9.33075 8.83725 9.04275C8.88075 8.75175 9.0675 8.55675 9.366 8.475C9.471 8.4465 9.585 8.4345 9.6945 8.43375C10.1627 8.42912 10.631 8.43012 11.0992 8.43675C11.2125 8.439 11.2627 8.40225 11.3077 8.30775C11.4637 7.983 11.6167 7.65525 11.7975 7.344C12.1275 6.77625 12.5145 6.243 12.9945 5.7795C13.6268 5.1705 14.3715 4.7385 15.264 4.58025C15.8565 4.47525 16.4535 4.44975 17.0355 4.64925C17.385 4.76925 17.6445 4.992 17.808 5.31225C17.9107 5.51475 18.0105 5.715 17.9993 5.95275C17.967 6.62775 17.3932 7.05675 16.8735 7.074C16.4745 7.0875 16.131 6.9795 15.8655 6.69075C15.6157 6.41925 15.585 6.1035 15.6855 5.76675C15.693 5.742 15.7027 5.71725 15.7117 5.69175L15.6915 5.66625C15.6405 5.69925 15.5827 5.72625 15.54 5.76675C15.3159 5.98338 15.1262 6.23302 14.9775 6.507C14.6625 7.071 14.4352 7.668 14.2477 8.28C14.2417 8.29875 14.2432 8.31975 14.2402 8.352C14.4022 8.352 14.562 8.35425 14.7203 8.352C14.9513 8.34825 15.1808 8.349 15.4005 8.4315C15.6683 8.532 15.873 8.69625 15.927 8.9775C15.9818 9.26325 15.9255 9.4875 15.6585 9.70575C15.441 9.88425 15.186 9.921 14.9197 9.93C14.5642 9.942 14.2072 9.945 13.8517 9.951C13.8045 9.95175 13.767 9.951 13.7535 10.011C13.6957 10.2562 13.6328 10.5007 13.572 10.7452C13.569 10.7572 13.5728 10.7707 13.5743 10.7917C13.824 10.7917 14.0723 10.7842 14.3198 10.7932C14.586 10.803 14.832 10.8727 15.0262 11.0647C15.2632 11.3002 15.2963 11.6377 15.0983 11.9025C15.0338 11.9887 14.9565 12.0675 14.8868 12.15C14.7413 12.321 14.538 12.3802 14.322 12.3885C13.9523 12.4035 13.5817 12.4072 13.212 12.405C13.1115 12.405 13.0718 12.435 13.0493 12.5235C12.918 13.044 12.792 13.566 12.6465 14.0835C12.354 15.1237 12.0285 16.1535 11.4945 17.1105C11.2377 17.5759 10.914 18.0012 10.5338 18.3727C9.9765 18.9142 9.3165 19.2855 8.5275 19.4227C7.989 19.5157 7.446 19.548 6.915 19.3867C6.465 19.2502 6.15375 18.9705 6.03375 18.5212L6 18.39V18.1905V18.1905Z" fill="white"/>
</svg>
