<svg width="48" height="48" viewBox="0 0 24 24" fill="none" xmlns="http://www.w3.org/2000/svg">
<path fill-rule="evenodd" clip-rule="evenodd" d="M6.009 7.50375L6.0255 7.4865L6.07275 7.4235L6.12075 7.35975C6.08171 7.40653 6.04419 7.45455 6.00825 7.50375H6.009ZM5.955 7.566C5.91525 7.6245 5.8785 7.68225 5.835 7.74075C5.8312 7.74445 5.82745 7.7482 5.82375 7.752C5.86423 7.68776 5.90804 7.62567 5.955 7.566V7.566ZM6.009 7.50375C5.94525 7.57125 5.88225 7.66125 5.82375 7.752C5.8235 7.7525 5.82325 7.753 5.823 7.7535C5.79668 7.7949 5.77093 7.83665 5.74575 7.87875L6.009 7.50375ZM5.676 7.995C5.64375 8.05875 5.58075 8.1855 5.517 8.24925C5.55076 8.15389 5.60504 8.0671 5.676 7.995C5.61225 8.09025 5.5485 8.154 5.517 8.24925C5.4855 8.313 5.45325 8.37675 5.45325 8.43975C5.5485 8.28075 5.676 8.1225 5.77125 7.9635C5.84175 7.77525 5.91225 7.6395 6.009 7.50375L5.676 7.995ZM6.63 6.80475C6.71475 6.71325 6.8145 6.633 6.915 6.53325C6.9745 6.45972 7.0381 6.38961 7.1055 6.32325C7.06228 6.36069 7.01977 6.39895 6.978 6.438C7.053 6.363 7.08375 6.333 7.149 6.2805C7.5825 5.86575 8.2755 5.4195 9.012 5.103C9.20025 5.025 9.3795 4.9605 9.54675 4.9095C9.69225 4.85175 9.83925 4.8075 9.98475 4.7715C7.19475 6.2445 7.2555 6.198 7.35975 6.12075C7.23225 6.216 7.23225 6.216 6.978 6.438C6.837 6.57975 6.69525 6.69525 6.59925 6.831L6.53325 6.8835C6.4479 6.99227 6.3733 7.10907 6.3105 7.23225C6.3105 7.2645 6.279 7.3275 6.279 7.35975C6.31807 7.31138 6.35989 7.26531 6.40425 7.22175C6.37064 7.25484 6.33932 7.29017 6.3105 7.3275C6.279 7.35975 6.279 7.39125 6.279 7.4235C6.2475 7.55025 6.279 7.614 6.3105 7.7085L6.32325 7.6935C6.56475 7.99275 7.443 7.923 8.53575 7.455C8.91675 7.3275 9.26625 7.137 9.58425 6.9465C9.64725 6.88275 9.61575 6.7875 9.58425 6.756C9.552 6.7245 9.42525 6.5655 9.32925 6.597C9.07575 6.756 8.78925 6.88275 8.5035 7.0095C7.635 7.38225 6.948 7.452 6.738 7.218L6.75525 7.20075C6.69225 7.137 6.69225 7.04175 6.72375 6.9465L6.636 7.017L6.72375 6.9465C6.75525 6.819 6.819 6.69225 6.91425 6.5655C6.81975 6.636 6.72525 6.72525 6.63 6.8055V6.80475ZM4.8045 13.9402L4.8075 13.95C4.80611 13.9865 4.80661 14.0231 4.809 14.0595C4.80413 14.0197 4.80263 13.9796 4.8045 13.9395L4.785 13.8735C4.722 13.7775 4.68975 13.6822 4.6575 13.587C4.71375 13.7535 4.76925 13.9927 4.82475 14.178C5.05125 15.303 7.4235 15.2422 10.5698 13.8735C14.1923 12.348 17.4652 9.774 17.91 8.091C18.0052 7.7085 17.9737 7.4235 17.7825 7.20075C17.6242 7.04175 17.4653 6.85125 17.3063 6.69225C17.529 6.915 17.5927 7.20075 17.4975 7.614C17.052 9.26625 13.8428 11.808 10.3148 13.3013C7.55025 14.4765 5.38875 14.6677 4.81725 13.8735C4.84875 14.0955 4.9125 14.286 4.97625 14.4765C4.86147 14.3275 4.80232 14.1432 4.809 13.9553C4.8645 14.1428 4.92 14.31 4.97625 14.4765C4.91565 14.4145 4.87178 14.3381 4.84875 14.2545C4.84037 14.2291 4.83237 14.2036 4.82475 14.178L4.8045 13.9402ZM4.65825 13.0552C5.193 13.821 7.272 13.6688 9.96525 12.507C13.3657 11.0768 16.4805 8.63025 16.893 7.04175C16.989 6.62925 16.893 6.31125 16.6387 6.08925L16.3215 5.8665L16.0665 5.7075C16.194 5.80275 16.449 5.96175 16.4167 6.4065C16.3215 8.8845 6.75525 14.7315 4.62675 12.4747C4.62675 12.5707 4.62675 12.6735 4.6305 12.777C4.63425 12.6735 4.626 12.5707 4.626 12.4747C4.563 12.348 4.49925 12.2213 4.49925 12.03C4.49925 12.1695 4.5165 12.36 4.5255 12.5265C4.52025 12.5902 4.5225 12.654 4.5315 12.7147V12.6975C4.5315 12.648 4.52925 12.5925 4.5255 12.5333C4.521 12.6008 4.52325 12.6637 4.5315 12.7245C4.5345 12.8707 4.56825 12.9892 4.65825 13.0785V13.056V13.0552ZM4.6425 10.6328C4.6575 10.5368 4.674 10.4415 4.68975 10.3463V10.41L4.626 10.6642L4.563 11.109C4.563 11.0813 4.569 11.0542 4.57575 11.0265L4.563 11.109C4.53754 11.2786 4.57202 11.4518 4.6605 11.5988C4.6605 11.6055 4.659 11.6115 4.65825 11.6175C4.54608 11.4614 4.50024 11.2673 4.53075 11.0775C4.49925 11.4585 4.626 11.7128 4.944 11.8718C5.00775 11.9033 5.03925 11.7758 5.0715 11.6805C5.0715 11.6805 5.1345 11.3632 5.03925 11.2357C4.94205 11.1931 4.85473 11.1308 4.78275 11.0528L4.785 11.0453C4.6575 10.9178 4.626 10.6957 4.68975 10.4415L4.6425 10.632V10.6328ZM7.758 5.83125L7.70925 5.8665L7.69575 5.87325C7.60048 5.93722 7.50694 6.00374 7.41525 6.07275L7.4475 6.045C7.50375 6.006 7.575 5.97 7.74075 5.8665C7.836 5.77125 7.836 5.77125 8.05875 5.64375C8.154 5.58 8.154 5.58 8.376 5.45325C8.5035 5.3895 8.5035 5.3895 8.72625 5.26275C8.85375 5.199 8.85375 5.199 9.10725 5.10375C9.1512 5.08139 9.19545 5.05964 9.24 5.0385C9.18543 5.06133 9.13042 5.08309 9.075 5.10375C8.94825 5.13525 8.94825 5.13525 8.694 5.26275C8.5665 5.32575 8.5665 5.32575 8.3445 5.45325C8.24925 5.517 8.24925 5.517 8.0265 5.64375C7.93557 5.70418 7.84604 5.76669 7.758 5.83125C8.2138 5.53209 8.69757 5.2779 9.2025 5.07225C9.285 5.02575 9.3675 4.98525 9.45 4.94925L7.758 5.83125ZM9.3165 5.00625C9.37425 4.983 9.44625 4.959 9.58425 4.91325C9.62625 4.896 9.657 4.88325 9.68625 4.87275C9.81375 4.83375 9.8655 4.818 9.92625 4.79475C9.8567 4.81498 9.78767 4.83698 9.71925 4.86075C10.4647 4.6665 10.9222 4.779 10.8232 5.199C10.7917 5.3265 10.6958 5.48475 10.5375 5.67525C10.6013 5.739 10.95 5.80275 11.1097 5.739C11.3002 5.5485 11.427 5.358 11.4593 5.1675C11.5868 4.6275 10.9822 4.5 10.029 4.75425L9.984 4.7715L9.3165 5.00625ZM5.109 9.852L4.97625 10.251C5.38875 10.8548 6.97875 10.6958 9.0435 9.8385C11.6497 8.7255 14.0333 6.85125 14.3513 5.64375C14.4788 5.199 14.319 4.91325 13.9058 4.75425C13.8428 4.75425 13.7475 4.72275 13.62 4.6905C13.4295 4.62675 13.4295 4.62675 13.3657 4.659C13.7152 4.7865 13.8427 5.04 13.7475 5.45325C13.461 6.53325 11.268 8.24925 8.8845 9.29775C7.02825 10.0845 5.57625 10.2165 5.178 9.6945L5.19825 9.64725C5.1475 9.5619 5.11556 9.4667 5.10457 9.36801C5.09358 9.26932 5.10378 9.16943 5.1345 9.075C5.04703 9.24916 4.97282 9.42967 4.9125 9.615C4.88025 9.67875 4.88025 9.711 4.88025 9.774C4.84875 9.96525 4.88025 10.1243 4.97625 10.251C5.00435 10.1132 5.04892 9.9792 5.109 9.852V9.852ZM5.51625 8.91675C5.421 8.78925 5.421 8.694 5.421 8.535C5.421 8.694 5.4525 8.8215 5.51625 8.91675ZM10.0125 19.0095C10.013 19.0095 10.0135 19.0095 10.014 19.0095C10.8518 18.9803 12.003 18.6982 13.3342 18.1305C16.2892 16.86 18.9908 14.7307 19.3718 13.365C19.404 13.3327 19.404 13.3013 19.404 13.2698C19.404 13.1108 19.4355 12.888 19.4678 12.6975L19.4993 12.6022C19.1745 14.901 13.302 18.4192 9.954 18.75C9.36825 18.8077 8.859 18.768 8.472 18.6075C8.63025 18.7027 8.8845 18.798 9.07575 18.8932C9.31425 18.9832 9.63075 19.0223 10.0125 19.0095V19.0095ZM10.3845 17.703C8.8005 18.1463 7.617 18.156 7.1055 17.718C7.26375 17.8455 7.4865 18.003 7.6455 18.1305C8.0895 18.4335 8.94375 18.4673 10.0703 18.231C10.0668 18.2399 10.0636 18.2489 10.0605 18.258L10.0747 18.2302C10.7197 18.0952 11.4547 17.871 12.2535 17.559C12.444 17.4638 12.444 17.3363 12.4125 17.304C12.4125 17.304 12.285 17.082 11.9355 17.1772C11.3872 17.3925 10.8682 17.5673 10.386 17.7023L10.4423 17.6227L10.3845 17.703V17.703ZM12 24C5.37225 24 0 18.6277 0 12C0 5.37225 5.37225 0 12 0C18.6277 0 24 5.37225 24 12C24 18.6277 18.6277 24 12 24ZM6.4065 17.019C6.43875 17.019 6.47025 17.0505 6.47025 17.082C6.34275 16.923 6.15225 16.701 6.0255 16.542C6.12075 16.701 6.27975 16.86 6.4065 17.019V17.019ZM11.46 4.5315H11.3325C12.0637 4.4685 12.477 4.6905 12.3495 5.199C12.1905 5.739 11.46 6.47025 10.4745 7.137C10.4745 7.137 10.443 7.137 10.443 7.16925C10.3792 7.29675 10.602 7.58175 10.824 7.4865C11.9363 6.7245 12.7942 5.8665 12.954 5.26275C13.08 4.75425 12.762 4.5 12.0945 4.5C11.904 4.5 11.6498 4.5315 11.4593 4.5315H11.46ZM15.273 5.26275C15.0825 5.1675 14.8283 5.07225 14.6378 4.97625C15.0503 5.13525 15.2415 5.45325 15.1147 5.9295C14.7645 7.2645 12.1267 9.3615 9.23475 10.6005C8.69475 10.8232 8.18625 11.013 7.71 11.1405C7.67775 11.1728 7.64625 11.1727 7.61475 11.2357C7.48725 11.4262 7.51875 11.808 7.80525 11.7758C8.31375 11.6175 8.88525 11.4263 9.4575 11.1728C12.5085 9.87 15.3053 7.67775 15.6863 6.2475C15.8138 5.77125 15.6547 5.4525 15.2737 5.26275H15.273ZM18.5782 8.40825L18.324 7.9635C18.4192 8.091 18.4515 8.21775 18.4515 8.40825C18.483 8.56725 18.6735 8.94825 18.7687 8.97975V8.94825C18.7687 8.82075 18.7688 8.82075 18.6735 8.56725L18.5782 8.40825V8.40825ZM19.2457 10.092C19.2142 9.9015 19.1183 9.64725 19.023 9.393C19.0868 9.5835 19.0868 9.8055 19.023 10.0605C18.642 11.49 16.1955 13.587 13.2705 15.1125C13.195 15.1528 13.1384 15.2213 13.113 15.303C13.0485 15.525 13.2398 15.7477 13.557 15.621C16.449 14.127 18.8325 12.0623 19.2142 10.6635C19.2772 10.4415 19.2772 10.251 19.2457 10.092ZM19.4685 11.427L19.4047 11.0138C19.4362 11.1728 19.4047 11.331 19.3732 11.49C19.1505 12.3795 18.0697 13.524 16.5757 14.6355C16.5015 14.7051 16.4469 14.7931 16.4175 14.8905C16.3852 15.0488 16.5127 15.2715 16.7355 15.1125C18.165 14.0325 19.2143 12.9203 19.4363 12.0623C19.4685 11.9033 19.4685 11.8073 19.4685 11.6805V11.4262V11.427ZM6.31125 7.7085C6.27975 7.61325 6.24825 7.5495 6.27975 7.42275C6.24825 7.5495 6.27975 7.61325 6.31125 7.70775V7.7085ZM8.091 8.598C8.091 8.598 8.091 8.31225 7.9635 8.34375C6.8835 8.69325 6.0885 8.69325 5.835 8.37525C5.7075 8.5665 5.61225 8.72475 5.517 8.91525C5.77125 9.20175 6.312 9.23325 6.693 9.17025C8.0595 8.979 8.091 8.757 8.091 8.598ZM4.977 10.2502C4.881 10.1227 4.8495 9.9645 4.881 9.77325C4.8495 9.9645 4.881 10.1235 4.977 10.2502ZM16.9575 11.3625C16.926 11.2672 16.83 11.076 16.5765 11.2035C15.1777 12.4425 13.1123 13.746 10.9515 14.667C8.091 15.906 5.8665 16.065 5.26275 15.2708C5.3265 15.366 5.358 15.4928 5.42175 15.588C5.45325 15.6203 5.45325 15.6517 5.4855 15.6832C5.517 15.747 5.5485 15.7785 5.58075 15.8422C5.45325 15.6517 5.45325 15.4927 5.45325 15.4612C5.42175 15.4927 5.3895 15.429 5.42175 15.5242C5.64375 16.6687 8.0595 16.5728 11.2687 15.2393C13.4302 14.3168 15.4957 13.0462 16.8937 11.775C16.9383 11.7172 16.9675 11.6491 16.9786 11.5769C16.9898 11.5048 16.9825 11.4311 16.9575 11.3625V11.3625ZM8.9175 17.1765C8.88525 17.1135 8.727 16.9222 8.50425 16.9222C7.2645 17.1135 6.4065 16.986 6.057 16.5413C6.1845 16.7003 6.375 16.9222 6.50175 17.0812C6.8835 17.4945 7.70925 17.5897 8.85375 17.3992C8.98125 17.3677 8.949 17.2403 8.9175 17.1765V17.1765ZM18.9277 14.8575C17.8155 17.145 12.6675 19.6875 10.6335 19.3695C10.3967 19.3351 10.1629 19.282 9.9345 19.2105C10.665 19.4325 12.0315 19.1782 13.6845 18.4792C16.3545 17.3355 18.801 15.429 19.182 14.19C19.119 14.3805 19.023 14.667 18.9277 14.8575V14.8575ZM17.2755 17.145C17.307 17.1135 17.307 17.0812 17.307 17.0812C17.2755 17.0812 17.2755 17.0497 17.2755 17.0497C17.244 17.0497 17.244 17.0812 17.2117 17.0812C16.4167 17.7487 15.3367 18.384 14.2245 18.861C13.1122 19.3058 12.1905 19.5285 11.5545 19.4963H12.3495C12.8895 19.4648 13.6208 19.2735 14.4473 18.924C15.432 18.5115 16.3853 17.9392 17.085 17.3677C17.2125 17.2725 17.2755 17.1765 17.2755 17.145ZM4.881 9.64725C4.94475 9.45675 5.0085 9.26625 5.10375 9.10725C5.13525 9.012 5.1675 8.94825 5.1675 8.85225C5.10375 9.0435 4.977 9.32925 4.9125 9.51975C4.9125 9.552 4.881 9.61575 4.881 9.64725Z" fill="black"/>
</svg>
