<svg width="24" height="24" viewBox="0 0 24 24" fill="none" xmlns="http://www.w3.org/2000/svg">
<path d="M12 24C18.6274 24 24 18.6274 24 12C24 5.37258 18.6274 0 12 0C5.37258 0 0 5.37258 0 12C0 18.6274 5.37258 24 12 24Z" fill="#417BA4"/>
<path d="M5.7645 7.97475C5.73975 8.14125 5.7465 8.25675 5.835 8.3445C5.721 8.54325 5.6325 8.691 5.54775 8.856C5.63325 8.691 5.721 8.54625 5.835 8.376C6.08925 8.694 6.8835 8.694 7.96425 8.3445C8.09175 8.313 8.09175 8.59875 8.09175 8.59875C8.09175 8.75775 8.0595 8.97975 6.693 9.171C6.31125 9.234 5.7705 9.2025 5.517 8.916C5.45325 8.8215 5.42175 8.694 5.42175 8.535C5.42175 8.5035 5.42175 8.472 5.45325 8.4075C5.4545 8.40575 5.45575 8.404 5.457 8.40225C5.46978 8.3487 5.48997 8.29721 5.517 8.24925C5.5485 8.154 5.61225 8.09025 5.676 7.995C5.64375 8.05875 5.58075 8.1855 5.517 8.24925C5.55076 8.15389 5.60504 8.0671 5.676 7.995L5.7645 7.97475ZM5.955 7.566C6.0015 7.497 6.0525 7.42875 6.12075 7.35975L6.0255 7.48725C6.01992 7.49267 6.01442 7.49817 6.009 7.50375C6.04275 7.4565 6.0795 7.40925 6.12075 7.35975L6.0255 7.48725C6.0006 7.51222 5.97707 7.5385 5.955 7.566V7.566ZM5.955 7.566C5.91525 7.6245 5.8785 7.68225 5.835 7.74075C5.83088 7.74489 5.82688 7.74914 5.823 7.7535C5.79668 7.7949 5.77093 7.83665 5.74575 7.87875L5.955 7.566ZM6.63075 6.80475C6.726 6.72525 6.8205 6.636 6.91575 6.56475C6.82679 6.67801 6.76173 6.80813 6.7245 6.94725C6.693 7.04175 6.693 7.137 6.756 7.20075C6.75023 7.20648 6.74448 7.21223 6.73875 7.218C6.94875 7.452 7.63575 7.383 8.50425 7.01025C8.79 6.88275 9.0765 6.75525 9.33075 6.59775C9.426 6.5655 9.55275 6.7245 9.585 6.75525C9.6165 6.7875 9.648 6.88275 9.585 6.9465C9.267 7.137 8.9175 7.3275 8.53575 7.455C7.44375 7.923 6.5655 7.99275 6.324 7.69425L6.31125 7.70925C6.27975 7.614 6.24825 7.55025 6.27975 7.4235C6.27975 7.39125 6.27975 7.35975 6.31125 7.3275C6.34007 7.29017 6.37139 7.25484 6.405 7.22175C6.36064 7.26531 6.31882 7.31138 6.27975 7.35975C6.27975 7.3275 6.31125 7.2645 6.31125 7.23225C6.375 7.10475 6.43875 7.01025 6.534 6.88275C6.5565 6.86625 6.5775 6.849 6.6 6.831C6.696 6.696 6.83775 6.57975 6.97875 6.438C7.23375 6.216 7.23375 6.216 7.3605 6.12075C7.38736 6.09309 7.41674 6.06798 7.44825 6.04575C7.43749 6.05474 7.42674 6.06374 7.416 6.07275C7.506 6.00525 7.599 5.9385 7.6965 5.87325L7.71 5.86575L7.75875 5.83125C8.21455 5.53209 8.69832 5.2779 9.20325 5.07225C9.28575 5.02575 9.36825 4.98525 9.45075 4.94925C9.402 4.96875 9.363 4.986 9.31725 5.0055C9.2382 5.0403 9.15817 5.07281 9.07725 5.103C8.94975 5.13525 8.94975 5.13525 8.69475 5.26275C8.56725 5.32575 8.56725 5.32575 8.34525 5.45325C8.25 5.517 8.25 5.517 8.02725 5.64375C7.93632 5.70418 7.8468 5.76669 7.75875 5.83125C9.83925 4.8075 9.69375 4.85175 9.5475 4.9095C9.36618 4.96545 9.18771 5.03028 9.01275 5.10375C8.27625 5.41875 7.58325 5.86575 7.14975 6.2805C7.0845 6.333 7.05375 6.363 6.97875 6.438C7.01925 6.39975 7.062 6.3615 7.10625 6.32325C7.03859 6.38959 6.97474 6.4597 6.915 6.53325C6.81525 6.633 6.7155 6.71325 6.63075 6.80475V6.80475ZM4.8255 14.1772C4.833 14.2042 4.84125 14.2298 4.8495 14.2545C4.87253 14.3381 4.9164 14.4145 4.977 14.4765C4.91786 14.3039 4.8621 14.1301 4.80975 13.9553C4.80675 14.1615 4.869 14.3423 4.977 14.4765C4.90514 14.281 4.85191 14.0791 4.818 13.8735C5.3895 14.6677 7.551 14.4765 10.3155 13.3013C13.8435 11.808 17.0527 9.26625 17.4982 7.614C17.5935 7.20075 17.5298 6.915 17.307 6.69225C17.466 6.85125 17.625 7.04175 17.784 7.20075C17.9745 7.4235 18.006 7.70925 17.9115 8.09025C17.466 9.774 14.193 12.348 10.5698 13.8727C7.42425 15.2422 5.052 15.303 4.82475 14.178C4.77 13.9927 4.7145 13.7535 4.659 13.587C4.6905 13.6822 4.72275 13.7775 4.7865 13.8735L4.80525 13.9402C4.80342 13.9801 4.80493 14.0199 4.80975 14.0595C4.80732 14.0231 4.80682 13.9865 4.80825 13.95C4.80725 13.9468 4.80625 13.9435 4.80525 13.9402L4.8255 14.1772ZM9.9855 4.77225L10.0298 4.75425C10.983 4.5 11.5867 4.62675 11.46 5.16675C11.4277 5.358 11.301 5.5485 11.1105 5.739C10.9515 5.80275 10.602 5.739 10.5382 5.67525C10.6972 5.48475 10.7925 5.32575 10.824 5.199C10.923 4.779 10.4655 4.6665 9.72 4.86075L9.687 4.87275L9.9855 4.77225ZM9.92775 4.79475L10.0612 4.75425C10.0359 4.75975 10.0107 4.7655 9.9855 4.7715L9.92775 4.79475ZM4.659 13.056V13.0785C4.569 12.9885 4.53525 12.8707 4.5315 12.7245C4.52342 12.6611 4.52166 12.597 4.52625 12.5333C4.53 12.5937 4.532 12.6542 4.53225 12.7147C4.52354 12.6524 4.52153 12.5893 4.52625 12.5265C4.51725 12.36 4.5 12.1695 4.5 12.03C4.5 12.2213 4.56375 12.348 4.6275 12.4747C4.6275 12.5707 4.635 12.6735 4.6425 12.777C4.6275 12.6735 4.6275 12.5707 4.6275 12.4747C6.756 14.7307 16.3222 8.8845 16.4175 6.4065C16.449 5.96175 16.1947 5.80275 16.068 5.7075L16.3223 5.8665L16.6395 6.0885C16.8945 6.31125 16.9897 6.6285 16.8945 7.04175C16.4812 8.63025 13.3665 11.0768 9.966 12.507C7.2735 13.6688 5.19375 13.821 4.659 13.056V13.056ZM4.64325 10.632L4.6905 10.4415C4.62675 10.6965 4.659 10.9185 4.78575 11.0453C4.78499 11.0477 4.78424 11.0502 4.7835 11.0528C4.84575 11.1278 4.93125 11.1817 5.04 11.2357C5.13525 11.3632 5.07225 11.6805 5.07225 11.6805C5.04 11.7758 5.0085 11.9033 4.94475 11.8718C4.62675 11.7128 4.5 11.4585 4.53225 11.0768C4.50153 11.2664 4.5471 11.4606 4.659 11.6168L4.662 11.5988C4.57326 11.4519 4.53851 11.2787 4.56375 11.109L4.5765 11.0265C4.56896 11.0534 4.56468 11.0811 4.56375 11.109L4.62675 10.6642L4.6905 10.4092V10.3463L4.64325 10.632V10.632ZM5.10975 9.852C5.04967 9.9792 5.0051 10.1132 4.977 10.251C4.881 10.1235 4.8495 9.96525 4.881 9.774C4.881 9.711 4.881 9.67875 4.91325 9.61575C4.97386 9.43053 5.04806 9.25004 5.13525 9.07575C5.10464 9.17007 5.0945 9.26983 5.10549 9.36838C5.11648 9.46692 5.14836 9.562 5.199 9.64725L5.17875 9.6945C5.577 10.2165 7.029 10.0845 8.88525 9.29775C11.2688 8.24925 13.4617 6.53325 13.7482 5.45325C13.8435 5.04075 13.716 4.78575 13.3665 4.65825C13.4303 4.62675 13.4302 4.62675 13.6207 4.6905C13.7482 4.72275 13.8435 4.75425 13.9065 4.75425C14.3197 4.91325 14.4787 5.199 14.352 5.64375C14.034 6.85125 11.6505 8.72625 9.04425 9.83775C6.97875 10.6957 5.3895 10.8548 4.977 10.251L5.10975 9.852V9.852ZM10.0132 19.0095C9.6315 19.0223 9.315 18.9825 9.07575 18.8932C8.88525 18.798 8.631 18.7027 8.47275 18.6075C8.8605 18.768 9.369 18.8077 9.954 18.75C13.3028 18.42 19.1753 14.901 19.5 12.6022L19.4685 12.6975C19.433 12.8864 19.4117 13.0777 19.4047 13.2698C19.4047 13.3013 19.4047 13.3327 19.3732 13.365C18.9915 14.7307 16.2908 16.86 13.335 18.1305C12.0038 18.6982 10.8525 18.9803 10.0147 19.0095C10.0142 19.0095 10.0137 19.0095 10.0132 19.0095V19.0095ZM10.3853 17.703L10.443 17.6227C10.4235 17.649 10.4055 17.6753 10.3867 17.7023C10.869 17.5673 11.388 17.3925 11.9362 17.1772C12.2857 17.082 12.4133 17.3047 12.4133 17.3047C12.4448 17.3362 12.4448 17.4638 12.2543 17.559C11.4563 17.871 10.7213 18.0952 10.0755 18.2302C10.0707 18.2395 10.066 18.2487 10.0612 18.258L10.071 18.231C8.9445 18.4673 8.09025 18.4335 7.64625 18.1305C7.48725 18.003 7.2645 17.8455 7.10625 17.718C7.61775 18.156 8.80125 18.1463 10.3853 17.703V17.703ZM6.4065 17.019C6.279 16.86 6.12075 16.701 6.0255 16.542C6.153 16.701 6.3435 16.923 6.47025 17.082C6.46902 17.0656 6.46188 17.0501 6.45017 17.0386C6.43845 17.027 6.42294 17.02 6.4065 17.019V17.019ZM11.46 4.5315C11.6505 4.5315 11.9048 4.5 12.0953 4.5C12.7628 4.5 13.0807 4.75425 12.9532 5.26275C12.7942 5.8665 11.9363 6.7245 10.824 7.4865C10.602 7.58175 10.3792 7.296 10.443 7.16925C10.443 7.137 10.4745 7.137 10.4745 7.137C11.46 6.4695 12.1905 5.739 12.3495 5.199C12.477 4.6905 12.0637 4.4685 11.3325 4.5315H11.46V4.5315ZM15.273 5.26275C15.6548 5.45325 15.813 5.77125 15.6863 6.2475C15.3053 7.677 12.5085 9.87 9.4575 11.1728C8.88525 11.4263 8.31375 11.6175 7.80525 11.7758C7.51875 11.808 7.48725 11.4262 7.61475 11.2357C7.64625 11.1727 7.67775 11.1728 7.71 11.1405C8.18625 11.013 8.69475 10.8232 9.2355 10.6005C12.1268 9.3615 14.7645 7.2645 15.1147 5.9295C15.2415 5.45325 15.051 5.13525 14.6378 4.977C14.8283 5.07225 15.0825 5.1675 15.273 5.262V5.26275ZM18.5782 8.40825L18.6735 8.56725C18.7688 8.8215 18.7687 8.8215 18.7687 8.94825V8.97975C18.6735 8.94825 18.4837 8.56725 18.4515 8.40825C18.4515 8.21775 18.4192 8.09025 18.324 7.9635L18.579 8.40825H18.5782ZM19.2457 10.092C19.2772 10.251 19.2772 10.4415 19.2142 10.6642C18.8325 12.0622 16.449 14.127 13.557 15.621C13.2398 15.7477 13.0485 15.525 13.1122 15.303C13.138 15.221 13.1952 15.1525 13.2712 15.1125C16.1947 13.587 18.6412 11.49 19.0237 10.0605C19.0867 9.8055 19.0867 9.5835 19.0237 9.393C19.119 9.64725 19.2142 9.9015 19.2457 10.092V10.092ZM19.4685 11.427V11.6805C19.4685 11.808 19.4685 11.9033 19.4363 12.0623C19.2143 12.9203 18.165 14.0317 16.7355 15.1125C16.5127 15.2715 16.3852 15.0488 16.4175 14.8898C16.4473 14.7925 16.5021 14.7048 16.5765 14.6355C18.0697 13.524 19.1505 12.3795 19.3732 11.49C19.4047 11.331 19.4362 11.1728 19.4047 11.0138L19.4685 11.4262V11.427ZM6.31125 7.7085C6.27975 7.61325 6.24825 7.5495 6.27975 7.42275C6.24825 7.5495 6.27975 7.61325 6.31125 7.70775V7.7085ZM5.51625 8.916C5.45325 8.82075 5.42175 8.69325 5.42175 8.53425C5.42175 8.69325 5.42175 8.78925 5.517 8.916H5.51625ZM4.97625 10.2502C4.881 10.1227 4.8495 9.9645 4.881 9.77325C4.8495 9.9645 4.881 10.1235 4.977 10.2502H4.97625ZM16.9575 11.3625C16.9823 11.4311 16.9895 11.5048 16.9783 11.5769C16.9672 11.649 16.9381 11.7171 16.8937 11.775C15.4957 13.0462 13.4302 14.3175 11.2687 15.2385C8.05875 16.5735 5.64375 16.6687 5.42175 15.5242C5.3895 15.429 5.42175 15.4927 5.45325 15.4612C5.45325 15.4927 5.45325 15.6517 5.58075 15.8422C5.5485 15.7785 5.517 15.747 5.4855 15.6832C5.45325 15.6517 5.45325 15.6203 5.42175 15.588C5.358 15.4928 5.3265 15.366 5.26275 15.2708C5.8665 16.065 8.091 15.906 10.9515 14.667C13.1123 13.7452 15.1777 12.4425 16.5765 11.2035C16.8307 11.076 16.926 11.2672 16.9575 11.3625V11.3625ZM8.9175 17.1765C8.949 17.2403 8.98125 17.3677 8.85375 17.3992C7.71 17.5897 6.8835 17.4945 6.50175 17.0812C6.375 16.9222 6.1845 16.7003 6.057 16.5413C6.4065 16.986 7.2645 17.1135 8.50425 16.9222C8.727 16.9222 8.88525 17.1135 8.91675 17.1772L8.9175 17.1765ZM18.9277 14.8575C19.023 14.667 19.119 14.3805 19.1827 14.19C18.8002 15.429 16.3538 17.3355 13.6845 18.48C12.0315 19.1782 10.665 19.4325 9.9345 19.2105C10.125 19.2735 10.4108 19.338 10.6335 19.3695C12.6675 19.6868 17.8155 17.145 18.9285 14.8575H18.9277ZM17.2755 17.145C17.2755 17.1765 17.2118 17.2725 17.085 17.3677C16.3853 17.9392 15.432 18.5115 14.4473 18.924C13.6208 19.2735 12.8895 19.464 12.3495 19.4963H11.5545C12.1905 19.5278 13.1122 19.3058 14.2245 18.861C15.3367 18.384 16.4175 17.7487 17.2117 17.0812C17.244 17.0812 17.244 17.0497 17.2755 17.0497C17.2755 17.0497 17.2755 17.0812 17.307 17.0812C17.307 17.0812 17.307 17.1135 17.2755 17.145ZM4.881 9.64725C4.881 9.61575 4.91325 9.552 4.91325 9.51975C4.977 9.32925 5.10375 9.0435 5.1675 8.85225C5.1675 8.94825 5.13525 9.012 5.10375 9.10725C5.0085 9.26625 4.94475 9.45675 4.881 9.64725V9.64725Z" fill="white"/>
</svg>
