<svg width="48" height="48" viewBox="0 0 24 24" fill="none" xmlns="http://www.w3.org/2000/svg">
<path d="M12.1455 9.2445H12.1432H12.1455L11.6325 11.475C11.952 11.5455 12.285 11.6625 12.6135 11.5703C12.7191 11.537 12.8149 11.4783 12.8925 11.3993C12.97 11.3203 13.0269 11.2234 13.0582 11.1172C13.1197 10.92 13.1505 10.7175 13.2045 10.521L13.7475 10.659C13.7715 10.6627 13.7437 10.677 13.7587 10.6613L13.7723 10.6508C13.9973 10.4093 14.2537 10.1445 14.4562 9.88875C14.1238 9.72254 13.7696 9.60412 13.404 9.537L12.1785 9.252L12.1815 9.24525H12.147L12.1455 9.2445ZM12 24C5.37225 24 0 18.6277 0 12C0 5.37225 5.37225 0 12 0C18.6277 0 24 5.37225 24 12C24 18.6277 18.6277 24 12 24ZM15.2295 8.871C15.2662 8.81175 15.2993 8.733 15.333 8.6655C16.0968 7.31299 16.4988 5.78629 16.5 4.233C15.4238 3.612 14.2875 3.2205 13.0515 3.08475C13.509 5.08125 14.157 7.01475 15.0938 8.8365L15.2295 8.871ZM9.05775 8.52975L9.02475 8.52225L8.76225 8.46225V8.45775H8.7585L8.99475 7.428C9.1695 7.4655 9.34425 7.50675 9.51825 7.5495H9.522C10.1587 6.11247 10.655 4.61727 11.004 3.08475C9.39377 3.26289 7.86169 3.87318 6.57 4.851V4.854C5.4857 5.6749 4.60127 6.73058 3.98301 7.94191C3.36474 9.15325 3.02868 10.4888 3 11.8485V12.0285C3.96067 12.5806 5.01385 12.9532 6.108 13.128L6.11325 13.1227C7.26147 11.7049 8.24994 10.1649 9.06075 8.5305H9.0585L9.05775 8.52975ZM14.6932 10.0485L14.6512 10.02C14.4487 10.2765 14.2515 10.4865 14.0265 10.7227L14.0903 10.7347L14.1727 10.7625L13.3613 14.2785L12.3878 14.0535C12.4388 13.7663 12.5655 13.4798 12.5062 13.1813C12.4788 13.0743 12.4265 12.9753 12.3537 12.8923C12.2808 12.8093 12.1895 12.7446 12.087 12.7035C11.868 12.5992 11.6235 12.5625 11.3895 12.5062L10.9365 14.4728C10.9087 14.6055 10.9087 14.754 10.9927 14.8665C11.0602 14.9655 11.1757 15.0165 11.2882 15.0443L12.0112 15.213L11.7945 16.0792C14.3295 16.0545 16.9095 16.4498 19.332 17.1953C19.728 16.6598 19.8945 16.4468 20.1622 15.8378C18.6825 14.4653 17.4637 12.7193 16.365 11.028L16.095 12.2003L15.0068 11.9475C15.099 11.5088 15.1868 11.0415 15.057 10.5975C14.9633 10.3028 14.8897 10.1542 14.6932 10.0485V10.0485ZM6.135 13.3538C5.41125 14.2455 4.6545 15.1125 3.81225 15.8932C4.07625 16.5037 4.245 16.6327 4.63875 17.1675C5.97554 16.7637 7.34199 16.4655 8.7255 16.2758C8.796 15.969 8.8125 15.885 8.88 15.5753L7.218 15.1905C7.29675 14.85 7.3785 14.5065 7.45425 14.163C7.70475 14.2118 7.95225 14.2793 8.19975 14.3295C8.32125 14.3595 8.4495 14.337 8.55375 14.268C8.658 14.1915 8.71125 14.0655 8.73975 13.944L8.8995 13.3312C8.84602 13.333 8.79269 13.3377 8.73975 13.3455C8.0505 13.443 7.3785 13.4295 6.68625 13.368C6.49275 13.3477 6.34725 13.3635 6.15825 13.3215L6.13575 13.3538H6.135ZM9.99375 15.8317L9.92625 16.1693L10.638 16.1182L10.6605 15.9863L9.99375 15.8317ZM8.7645 13.1483C8.817 13.1408 8.8695 13.1362 8.922 13.134V13.131L9.77925 9.4185C9.813 9.24975 9.8805 9.081 9.82725 8.91225C9.80665 8.85174 9.77239 8.79679 9.72713 8.75166C9.68186 8.70653 9.62682 8.67243 9.56625 8.652L9.5385 8.643C9.396 8.60475 9.5055 8.63175 9.36075 8.598C9.345 8.59425 9.273 8.61825 9.2565 8.61525C8.45473 10.2308 7.47571 11.7522 6.3375 13.1512C6.5265 13.1902 6.495 13.179 6.68325 13.1985C7.377 13.2622 8.07525 13.245 8.7645 13.1483V13.1483ZM10.6718 7.81275V7.81575C10.8038 7.2585 10.9275 6.699 11.0625 6.1425L12.171 6.3975L11.7855 8.0715L12.4493 8.226C12.5153 7.94775 12.5805 7.66875 12.6442 7.38975L12.741 6.97125L12.8378 6.55275L13.9455 6.80625C13.9305 6.88125 13.914 6.95625 13.8975 7.03125C13.7903 7.51575 13.671 7.9965 13.5637 8.48325L14.8403 8.78025C13.9028 6.95775 13.2825 5.05275 12.8257 3.05625C12.5392 3.0225 12.4185 3.03375 12.1282 3.0285H11.9513C11.6333 3.0285 11.5155 3.02025 11.2035 3.05625C10.8532 4.5885 10.4385 6.19575 9.801 7.63275L10.6718 7.81275V7.81275ZM20.223 8.367C19.4475 6.6315 18.3412 5.325 16.6965 4.3725C16.695 5.9265 16.3215 7.31325 15.558 8.667C15.5117 8.75171 15.4694 8.83855 15.4313 8.92725C15.9458 9.03975 16.2668 9.10875 16.7812 9.22425V9.2295L16.4498 10.7198C17.5463 12.4103 18.7695 14.2717 20.2463 15.6442C20.7173 14.5702 20.9737 13.4145 21 12.2415V11.8192C20.9713 10.6283 20.7075 9.45486 20.2238 8.36625L20.223 8.367ZM3 12.225V12.3547C3.01725 13.554 3.27375 14.5403 3.75375 15.6398C4.55005 14.9052 5.28989 14.1117 5.967 13.266C4.87575 13.092 3.95625 12.78 3 12.225ZM11.7638 16.275L11.3865 17.9175H11.3842L10.2705 17.6625L10.5803 16.3148L9.8715 16.365L9.609 17.5073H9.6075L8.493 17.2515C8.54925 16.998 8.6055 16.7505 8.66775 16.5007C7.341 16.6807 6.0315 16.9695 4.75275 17.364C5.57403 18.4786 6.64111 19.3891 7.87117 20.0246C9.10123 20.6601 10.4612 21.0036 11.8455 21.0285H12.2137C13.5878 20.9931 14.9356 20.6446 16.1546 20.0095C17.3735 19.3745 18.4315 18.4697 19.248 17.364C16.8243 16.6176 14.2997 16.2503 11.7638 16.275V16.275Z" fill="black"/>
</svg>
