<svg width="48" height="48" viewBox="0 0 24 24" fill="none" xmlns="http://www.w3.org/2000/svg">
<path fill-rule="evenodd" clip-rule="evenodd" d="M12 24C5.37225 24 0 18.6277 0 12C0 5.37225 5.37225 0 12 0C18.6277 0 24 5.37225 24 12C24 18.6277 18.6277 24 12 24ZM13.4197 12.8475C14.7682 9.76275 14.0213 7.0425 11.9843 4.5C9.93225 7.06275 9.19275 9.8025 10.5833 12.8978C8.90325 11.1345 6.83175 10.7205 4.5 11.0985C4.8975 12.615 6.9375 14.7278 8.1465 14.874C6.99675 14.1488 6.066 13.2885 5.796 11.901C5.943 11.871 6.04725 11.8455 6.15225 11.8297C7.0395 11.697 7.84725 11.946 8.6175 12.3435C9.5595 12.8288 10.3613 13.4977 11.1158 14.2245C11.2193 14.3242 11.3183 14.4285 11.4518 14.5635C9.63825 14.631 8.29425 15.342 7.503 16.9537C8.4555 17.2687 9.918 17.0542 10.425 16.5322C9.71925 16.7947 9.03375 16.9568 8.331 16.6013C8.634 15.7913 10.5915 14.7405 11.4998 14.8868C11.0895 15.6255 10.8503 16.398 10.9553 17.2493C11.0595 18.0968 11.4405 18.8137 11.985 19.5C13.155 18.0255 13.3957 16.5023 12.438 14.8245C13.1475 14.97 13.7887 15.117 14.3632 15.4313C14.7337 15.6338 15.0698 15.9053 15.3983 16.1738C15.5183 16.2713 15.5707 16.4467 15.6592 16.5975C14.9325 16.9425 14.2695 16.7925 13.6042 16.5892C14.487 17.1562 15.438 17.2042 16.4775 16.974C15.6772 15.3382 14.3265 14.6295 12.5527 14.5627C12.5805 14.511 12.588 14.487 12.6038 14.4705C13.509 13.5668 14.4735 12.7358 15.6592 12.195C16.3642 11.874 17.1007 11.709 17.886 11.835C18.1005 11.8695 18.183 11.9355 18.1185 12.1688C17.9175 12.9075 17.5132 13.5225 16.944 14.0303C16.6027 14.3348 16.2255 14.6002 15.8115 14.925C17.6865 14.205 18.7477 12.8265 19.5 11.1015C17.166 10.728 15.1065 11.1217 13.4197 12.8475V12.8475ZM11.985 15.2228C11.1262 16.203 11.1053 17.5477 11.9948 18.4432C12.8355 17.6332 12.8362 16.1235 11.985 15.2228ZM11.9857 6.07875C9.957 8.42475 10.0335 11.1982 11.9843 13.503C13.9703 11.151 13.9755 8.391 11.9857 6.078V6.07875Z" fill="black"/>
</svg>
