<svg width="24" height="24" viewBox="0 0 24 24" fill="none" xmlns="http://www.w3.org/2000/svg">
<path d="M12 24C18.6274 24 24 18.6274 24 12C24 5.37258 18.6274 0 12 0C5.37258 0 0 5.37258 0 12C0 18.6274 5.37258 24 12 24Z" fill="#27323A"/>
<path d="M18.4522 4.5C18.4522 4.5 19.6875 5.598 18.8107 7.83225C18.6441 8.24296 18.4126 8.6243 18.1252 8.96175L15.0765 12.5392L12.63 15.7327C12.63 15.7327 9.8205 15.2707 8.7285 16.404L13.359 16.6095C13.359 16.6095 12.3705 17.6917 8.469 16.917C8.469 16.917 8.5215 18.003 10.2907 18.312C10.2907 18.312 8.7285 18.8287 7.79175 17.3317C7.79175 17.3317 7.79175 18.4178 8.88375 18.8798C8.88375 18.8798 7.99875 19.0852 7.26975 18.1575L6.0225 19.4955C6.0225 19.4955 5.76375 19.5473 5.919 19.2908L6.95925 18.0547C6.95925 18.0547 7.06275 17.178 6.43725 17.4863C6.43725 17.4863 6.0225 17.64 6.17775 18.1058C6.17775 18.1058 5.55225 17.5928 6.282 16.9215L4.875 15.528L6.696 16.5068L5.91525 14.5995L7.21425 16.2502C7.21425 16.2502 7.10625 14.3947 7.68075 13.881C7.68075 13.881 7.836 15.6855 8.56575 15.84L8.51325 12.0765L9.29475 11.406L9.39825 13.7745C9.39825 13.7745 9.60525 14.031 9.81225 13.7235C9.81225 13.7235 10.2825 12.9495 10.2825 10.683L11.5297 9.498L11.6857 10.4265C11.6857 10.4265 11.8965 10.7858 12.156 10.4775L12.4147 8.67375C12.4147 8.67375 14.0797 6.7665 18.4522 4.5V4.5ZM10.1272 14.9625C14.4427 10.995 16.7347 7.1295 16.7302 7.1295C14.5987 8.622 10.1272 14.9633 10.1272 14.9633V14.9625Z" fill="white"/>
</svg>
