<svg width="48" height="48" viewBox="0 0 24 24" fill="none" xmlns="http://www.w3.org/2000/svg">
<path d="M12 24C5.37225 24 0 18.6277 0 12C0 5.37225 5.37225 0 12 0C18.6277 0 24 5.37225 24 12C24 18.6277 18.6277 24 12 24ZM18.4523 4.5C14.0798 6.7665 12.4147 8.67375 12.4147 8.67375L12.156 10.4775C11.8965 10.7858 11.6858 10.4265 11.6858 10.4265L11.5298 9.49875L10.2825 10.6837C10.2825 12.9487 9.81225 13.7235 9.81225 13.7235C9.60525 14.031 9.39825 13.7745 9.39825 13.7745L9.29475 11.406L8.51325 12.0765L8.56575 15.84C7.836 15.6855 7.68075 13.881 7.68075 13.881C7.10625 14.3947 7.21425 16.2502 7.21425 16.2502L5.91525 14.6002L6.696 16.5068L4.875 15.528L6.282 16.9215C5.55225 17.5928 6.17775 18.1065 6.17775 18.1065C6.15303 18.0489 6.14015 17.9868 6.13987 17.9241C6.13959 17.8614 6.15192 17.7993 6.17613 17.7414C6.20033 17.6836 6.23592 17.6312 6.28078 17.5873C6.32564 17.5435 6.37885 17.5091 6.43725 17.4863C7.06275 17.1788 6.95925 18.0547 6.95925 18.0547L5.919 19.29C5.76375 19.5465 6.0225 19.4948 6.0225 19.4948L7.26975 18.1567C7.9995 19.0845 8.88375 18.879 8.88375 18.879C7.79175 18.417 7.79175 17.331 7.79175 17.331C8.7285 18.828 10.2907 18.3105 10.2907 18.3105C8.52075 18.003 8.46975 16.917 8.46975 16.917C12.3705 17.691 13.3597 16.6095 13.3597 16.6095L8.7285 16.4033C9.8205 15.2708 12.63 15.732 12.63 15.732L15.0765 12.5377L18.1252 8.96025C18.4126 8.62303 18.644 8.24195 18.8107 7.8315C19.6875 5.59725 18.4523 4.5 18.4523 4.5ZM10.1273 14.9625C10.1273 14.9625 14.5987 8.622 16.7302 7.1295C16.7347 7.1295 14.4428 10.995 10.1273 14.9633V14.9625Z" fill="black"/>
</svg>
