<svg width="24" height="24" viewBox="0 0 24 24" fill="none" xmlns="http://www.w3.org/2000/svg">
<path d="M12 24C18.6274 24 24 18.6274 24 12C24 5.37258 18.6274 0 12 0C5.37258 0 0 5.37258 0 12C0 18.6274 5.37258 24 12 24Z" fill="#ED1968"/>
<path d="M9.52499 20.175C8.56678 19.9095 7.67331 19.45 6.89999 18.825C6.13801 18.238 5.47901 17.5283 4.94999 16.725C4.38589 15.88 3.97934 14.9398 3.74999 13.95C3.48743 12.7644 3.48743 11.5356 3.74999 10.35C3.97376 9.34706 4.35337 8.38538 4.87499 7.50001C5.63865 6.27482 6.72975 5.28764 8.02499 4.65001C8.47985 4.40519 8.95701 4.20428 9.44999 4.05001C10.2 4.95001 10.95 5.92501 11.7 6.90001C11.775 7.05001 11.925 7.12501 12 7.27501C11.2477 7.30654 10.5088 7.48489 9.82499 7.80001C9.22044 8.11606 8.685 8.54951 8.24999 9.07501C7.82198 9.6408 7.49236 10.2747 7.27499 10.95C7.07471 11.7665 7.10063 12.6221 7.34999 13.425L10.575 10.875C11.325 11.85 12.075 12.75 12.825 13.725C11.775 14.55 10.65 15.375 9.59999 16.275C10.65 17.625 11.775 19.05 12.825 20.475C11.7161 20.6061 10.5921 20.5039 9.52499 20.175V20.175ZM16.6725 11.0895C16.645 10.9667 16.6124 10.8451 16.575 10.725C16.4737 10.8045 14.2425 12.51 13.35 13.275C12.6 12.3 11.85 11.4 11.1 10.425C12.15 9.60001 13.275 8.77501 14.325 7.87501C13.275 6.52501 12.225 5.17501 11.1 3.75001C11.1 3.67501 11.025 3.67501 11.025 3.60001H12.075C13.9988 3.61796 15.8559 4.30773 17.325 5.55001C18.041 6.14163 18.6498 6.85199 19.125 7.65001C19.6846 8.50908 20.0435 9.4832 20.175 10.5C20.3759 11.669 20.3505 12.8656 20.1 14.025C19.8853 14.9964 19.4772 15.9147 18.9 16.725C18.3963 17.5029 17.7619 18.188 17.025 18.75C16.3073 19.3736 15.4629 19.8342 14.55 20.1C13.875 19.275 13.275 18.525 12.675 17.7C12.4508 17.4434 12.25 17.1673 12.075 16.875C12.7847 16.8774 13.4853 16.7162 14.1227 16.4041C14.76 16.0919 15.3168 15.6371 15.75 15.075C16.182 14.5224 16.489 13.8827 16.65 13.2C16.7895 12.6308 16.797 11.9273 16.6725 11.0895V11.0895ZM13.1302 17.3693C13.6482 18.0767 14.1859 18.7695 14.7427 19.4468C15.4551 19.1892 16.1133 18.8013 16.6837 18.303C17.3692 17.7803 17.9587 17.1428 18.4417 16.398C18.9746 15.6503 19.3516 14.803 19.5502 13.9065C19.7857 12.8175 19.809 11.6933 19.6177 10.572C19.4951 9.63171 19.1615 8.73129 18.642 7.93801C18.1985 7.19366 17.6302 6.53124 16.962 5.97976C15.6121 4.83772 13.9096 4.19616 12.1417 4.16326C12.837 5.04826 13.5412 5.95051 14.769 7.53001L15.099 7.95301L14.691 8.30176C14.1575 8.75548 13.6129 9.19586 13.0575 9.62251C13.005 9.66376 12.3675 10.1535 11.889 10.524C12.0862 10.7753 12.315 11.0618 12.6645 11.499C13.0095 11.9303 13.2382 12.2175 13.4355 12.4688C13.7835 12.1815 14.163 11.88 14.6175 11.5275C14.691 11.4705 15.8895 10.548 16.2277 10.2825L16.8697 9.77776L17.112 10.5578C17.3917 11.4585 17.421 12.4178 17.1975 13.329C17.0183 14.0897 16.6765 14.8025 16.1955 15.4185C15.4307 16.411 14.3321 17.0929 13.1032 17.3378L13.1302 17.3693V17.3693Z" fill="white"/>
</svg>
