<svg width="24" height="24" viewBox="0 0 24 24" fill="none" xmlns="http://www.w3.org/2000/svg">
<path d="M12 24C18.6274 24 24 18.6274 24 12C24 5.37258 18.6274 0 12 0C5.37258 0 0 5.37258 0 12C0 18.6274 5.37258 24 12 24Z" fill="#2D475B"/>
<path d="M9.65175 9.51373H17.9655V11.3797H9.65175V9.51373ZM17.9655 12.6217H18V17.529C18 17.529 11.5148 22.2277 6.47775 17.115C6.47775 17.115 3.71775 14.316 4.71825 10.239C4.71825 10.239 5.51175 5.16073 11.5493 4.53898C11.5493 4.53898 15.2745 4.01998 17.6895 6.78448L16.2405 8.20048C16.2405 8.20048 13.17 5.02198 9.06525 7.51048C9.06525 7.51048 5.71875 9.37573 7.09875 14.0745C7.09875 14.0745 8.61675 18.1515 13.377 17.322C13.377 17.322 14.9985 16.953 15.8265 16.239V14.4877H9.6525V12.6217H17.9655Z" fill="white"/>
</svg>
