<svg width="48" height="48" viewBox="0 0 24 24" fill="none" xmlns="http://www.w3.org/2000/svg">
<path fill-rule="evenodd" clip-rule="evenodd" d="M12 24C5.37225 24 0 18.6277 0 12C0 5.37225 5.37225 0 12 0C18.6277 0 24 5.37225 24 12C24 18.6277 18.6277 24 12 24ZM18.75 16.935V7.21575L13.5075 9.07575V14.4907L18.75 16.935ZM11.1172 19.5V9.85425L6 7.4685V17.115L11.1172 19.5ZM18.6248 6.86775L18.6705 6.852L13.6238 4.5L13.5773 4.51575L13.4445 4.563L13.3815 4.5855L6.2025 7.1325L11.2492 9.4845L13.3815 8.7285L13.5068 8.6835L18.54 6.8985L18.624 6.8685L18.6248 6.86775Z" fill="black"/>
</svg>
