<svg width="48" height="48" viewBox="0 0 24 24" fill="none" xmlns="http://www.w3.org/2000/svg">
<path fill-rule="evenodd" clip-rule="evenodd" d="M12 24C5.37225 24 0 18.6277 0 12C0 5.37225 5.37225 0 12 0C18.6277 0 24 5.37225 24 12C24 18.6277 18.6277 24 12 24ZM8.31525 11.1112H6.75V13.089H8.31525V16.4355L6.75 16.8923V18.375H17.2103V16.3403H10.7715V13.089H15.705V11.1112H10.7715V9.42C10.7715 7.956 11.5642 7.04325 12.8917 7.04325C14.001 7.04325 14.6745 7.557 15.3878 8.43075L17.25 7.005C16.299 5.8065 15.0705 4.875 12.8715 4.875C9.9795 4.875 8.31525 6.60525 8.31525 9.36225V11.1112Z" fill="black"/>
</svg>
