<svg width="24" height="24" viewBox="0 0 24 24" fill="none" xmlns="http://www.w3.org/2000/svg">
<path d="M12 24C18.6274 24 24 18.6274 24 12C24 5.37258 18.6274 0 12 0C5.37258 0 0 5.37258 0 12C0 18.6274 5.37258 24 12 24Z" fill="#BC3FE0"/>
<path fill-rule="evenodd" clip-rule="evenodd" d="M8.31525 11.1112V9.36225C8.31525 6.60525 9.9795 4.875 12.8715 4.875C15.0705 4.875 16.299 5.8065 17.25 7.005L15.3878 8.43C14.6745 7.55625 14.0002 7.0425 12.8917 7.0425C11.5642 7.0425 10.7715 7.95525 10.7715 9.42V11.1112H15.705V13.089H10.7715V16.3403H17.2103V18.375H6.75V16.8923L8.31525 16.4355V13.089H6.75V11.1112H8.31525Z" fill="white"/>
</svg>
