<svg width="48" height="48" viewBox="0 0 24 24" fill="none" xmlns="http://www.w3.org/2000/svg">
<path fill-rule="evenodd" clip-rule="evenodd" d="M12 24C5.37225 24 0 18.6277 0 12C0 5.37225 5.37225 0 12 0C18.6277 0 24 5.37225 24 12C24 18.6277 18.6277 24 12 24ZM11.7743 8.2545H8.24925C7.503 8.2545 6.6435 8.49825 5.95875 8.98425C5.03775 9.63825 4.5 10.6628 4.5 12.0023C4.5 13.3418 5.03775 14.3663 5.95875 15.0203C6.63157 15.4876 7.42935 15.7418 8.2485 15.75H9.75V14.205H8.25C7.7925 14.205 7.22925 14.0445 6.81 13.7475C6.2895 13.3785 6 12.8265 6 12.0023C6 11.178 6.29025 10.626 6.81 10.257C7.23493 9.96695 7.73559 9.80788 8.25 9.7995H11.775L11.7743 8.2545ZM8.02425 12.891H10.275V15.75H11.775V11.3452H8.025L8.02425 12.891ZM14.25 9.795H18V14.2035H14.2485V9.7995H12.7485V15.75H19.5V8.25H14.2485L14.25 9.795Z" fill="black"/>
</svg>
