<svg width="48" height="48" viewBox="0 0 24 24" fill="none" xmlns="http://www.w3.org/2000/svg">
<path d="M12 24C5.37225 24 0 18.6277 0 12C0 5.37225 5.37225 0 12 0C18.6277 0 24 5.37225 24 12C24 18.6277 18.6277 24 12 24ZM15.7515 7.39125L16.359 4.9605L14.412 4.476L13.9297 6.40725C13.6123 6.30037 13.2868 6.21936 12.9562 6.165L13.4393 4.23375L11.4922 3.75L10.8847 6.18075C8.6475 6.58725 6.753 8.2335 6.17475 10.548C5.5965 12.8625 6.49425 15.2025 8.27775 16.608L7.67025 19.0395L9.61725 19.524L10.0995 17.5928C10.4169 17.6996 10.7425 17.7806 11.073 17.835L10.59 19.7662L12.537 20.25L13.1445 17.8193C13.9312 17.6782 14.6817 17.3808 15.3516 16.9448C16.0214 16.5087 16.5971 15.9428 17.0445 15.2805L14.9092 14.7495C14.4162 15.2477 13.8016 15.6087 13.1263 15.7968C12.4511 15.9849 11.7384 15.9936 11.0587 15.822C8.90925 15.288 7.59375 13.143 8.121 11.0317C8.64825 8.9205 10.8203 7.6425 12.9705 8.17725C13.6509 8.34354 14.276 8.68483 14.7839 9.16726C15.2917 9.64969 15.6646 10.2565 15.8655 10.9275L18 11.4585C17.9167 10.6645 17.6748 9.89537 17.2885 9.19669C16.9023 8.49802 16.3796 7.88406 15.7515 7.39125V7.39125Z" fill="black"/>
</svg>
