<svg width="24" height="24" viewBox="0 0 24 24" fill="none" xmlns="http://www.w3.org/2000/svg">
<path d="M12 24C18.6274 24 24 18.6274 24 12C24 5.37258 18.6274 0 12 0C5.37258 0 0 5.37258 0 12C0 18.6274 5.37258 24 12 24Z" fill="#EFB914"/>
<path fill-rule="evenodd" clip-rule="evenodd" d="M15.7515 7.39125C16.3796 7.88406 16.9022 8.49802 17.2885 9.19669C17.6747 9.89537 17.9167 10.6645 18 11.4585L15.8647 10.9275C15.6638 10.2565 15.2909 9.64969 14.7831 9.16726C14.2753 8.68483 13.6502 8.34354 12.9697 8.17725C10.8202 7.6425 8.64975 8.9205 8.121 11.0317C7.59225 13.143 8.9085 15.288 11.0587 15.8228C11.7384 15.9943 12.4511 15.9856 13.1263 15.7975C13.8016 15.6095 14.4162 15.2485 14.9092 14.7502L17.0445 15.2805C16.5971 15.9428 16.0214 16.5087 15.3516 16.9448C14.6817 17.3808 13.9312 17.6782 13.1445 17.8193L12.537 20.25L10.59 19.7662L11.073 17.835C10.7425 17.7806 10.4169 17.6996 10.0995 17.5928L9.61725 19.524L7.67025 19.0395L8.27775 16.6088C6.49425 15.2025 5.5965 12.8618 6.17475 10.548C6.753 8.23425 8.6475 6.58725 10.8847 6.18075L11.4922 3.75L13.4392 4.23375L12.9562 6.165C13.2867 6.21936 13.6123 6.30038 13.9297 6.40725L14.412 4.476L16.359 4.9605L15.7515 7.39125Z" fill="white"/>
</svg>
