<svg width="48" height="48" viewBox="0 0 24 24" fill="none" xmlns="http://www.w3.org/2000/svg">
<path d="M12 24C5.37225 24 0 18.6277 0 12C0 5.37225 5.37225 0 12 0C18.6277 0 24 5.37225 24 12C24 18.6277 18.6277 24 12 24ZM9.246 3.4485C8.739 3.6075 8.253 3.825 7.7835 4.068C7.4235 4.26675 7.06725 4.4775 6.738 4.725C5.21151 5.83148 4.06963 7.38799 3.4725 9.17625C3.27169 9.78686 3.1352 10.4168 3.06525 11.0558C3.03075 11.4878 2.99775 11.9228 3.02775 12.3555C3.05175 13.2578 3.23775 14.148 3.53025 14.9993C3.9945 16.2998 4.75102 17.4765 5.74156 18.4387C6.73211 19.4009 7.93025 20.1229 9.24375 20.5493C9.8985 20.7518 10.5712 20.9017 11.2567 20.9482C11.4067 20.9745 11.5628 20.958 11.7143 20.9783C12.6293 21.0045 13.5473 20.8972 14.4293 20.6445C14.9543 20.5065 15.4642 20.3033 15.9532 20.0648C17.7025 19.2041 19.1261 17.8 20.0107 16.0627C20.2483 15.5954 20.4441 15.108 20.5958 14.6063C20.7758 13.9988 20.9062 13.3747 20.9512 12.7432C20.9767 12.5917 20.9603 12.4373 20.9813 12.2858C20.9858 12.0938 20.9888 11.904 20.9813 11.715C20.9603 11.5627 20.9767 11.4082 20.9512 11.2567C20.9017 10.5555 20.745 9.86325 20.535 9.19425C20.3714 8.70863 20.1698 8.23667 19.932 7.78275C19.7368 7.42006 19.5173 7.07102 19.275 6.738C18.1996 5.25125 16.6965 4.12758 14.9662 3.51675C13.905 3.1545 12.7762 2.97225 11.6542 3.02325C10.836 3.04875 10.0245 3.20325 9.24675 3.4485H9.246ZM10.9785 6.696V8.7975C10.974 8.835 11.0085 8.856 11.0273 8.8815C11.3498 9.2205 11.6752 9.5565 11.9977 9.89625C11.9954 8.8295 11.9954 7.76275 11.9977 6.696C11.6587 6.696 11.3175 6.69375 10.9778 6.696H10.9785ZM6.546 7.7835C6.62325 7.8345 6.6795 7.90875 6.74475 7.9725C7.43925 8.67375 8.136 9.37275 8.8275 10.0785C9.46125 10.719 10.0972 11.3572 10.728 11.9977C9.96375 12.7807 9.18525 13.5503 8.42325 14.3333C7.8135 14.9483 7.203 15.5632 6.5955 16.1775C6.57944 16.1906 6.56293 16.2031 6.546 16.215C7.44375 16.215 8.34375 16.2173 9.24375 16.2105C10.1625 15.249 11.0858 14.2905 12.0023 13.3275C12.921 14.2883 13.842 15.249 14.7607 16.2105C15.6585 16.2173 16.5562 16.2128 17.4532 16.215C17.316 16.1048 17.208 15.9675 17.0798 15.8475C16.437 15.198 15.7897 14.5477 15.1485 13.896C14.5267 13.2622 13.8937 12.6383 13.2765 12C13.4265 11.85 13.566 11.694 13.7205 11.5463C14.8965 10.3613 16.068 9.17175 17.2432 7.986C17.3137 7.9185 17.3722 7.839 17.4532 7.7835C16.5532 7.7835 15.6562 7.7805 14.7585 7.785C13.8397 8.74575 12.9188 9.705 12 10.665C11.0835 9.702 10.1602 8.7435 9.2415 7.785C8.34375 7.78275 7.44375 7.78275 6.546 7.78275V7.7835ZM12.0045 14.0947C12.0045 15.165 12.0068 16.2337 12.0023 17.3047C12.3435 17.3017 12.6847 17.3047 13.0237 17.3047V15.2003C13.0252 15.189 13.0238 15.1776 13.0197 15.167C13.0157 15.1564 13.0091 15.1469 13.0005 15.1395C12.828 14.952 12.645 14.7773 12.4747 14.5905C12.3202 14.4218 12.1545 14.268 12.0045 14.0947V14.0947Z" fill="black"/>
</svg>
