<svg width="48" height="48" viewBox="0 0 24 24" fill="none" xmlns="http://www.w3.org/2000/svg">
<path d="M12 24C5.37225 24 0 18.6277 0 12C0 5.37225 5.37225 0 12 0C18.6277 0 24 5.37225 24 12C24 18.6277 18.6277 24 12 24ZM20.2125 10.08C20.1754 10.0224 20.1177 9.98108 20.0513 9.9645C19.7921 9.90088 19.5321 9.84088 19.2712 9.7845L19.3417 9.4365L19.3868 9.2175L19.4078 9.1065L19.428 8.9865C19.4564 8.80851 19.4365 8.62614 19.3702 8.4585C19.3002 8.27978 19.1852 8.1222 19.0363 8.00104C18.8874 7.87989 18.7097 7.79926 18.5205 7.767C18.4582 7.38894 18.372 7.01519 18.2625 6.648L18.2498 6.603L16.3853 4.338L16.3155 4.31775C16.2397 4.2975 14.5598 3.801 12.273 3.80025L12.2985 3.34875C12.5087 3.27958 12.6873 3.13748 12.8018 2.94815C12.9164 2.75881 12.9595 2.53473 12.9233 2.31641C12.887 2.09809 12.7739 1.89994 12.6043 1.75777C12.4347 1.6156 12.2198 1.5388 11.9985 1.54125C11.7776 1.53936 11.5633 1.61641 11.3942 1.75852C11.2251 1.90063 11.1123 2.09846 11.0761 2.31637C11.0399 2.53428 11.0827 2.75795 11.1968 2.94709C11.311 3.13623 11.4889 3.2784 11.6985 3.348L11.7248 3.80175C9.42825 3.804 7.73925 4.2975 7.66725 4.3215L7.5975 4.3425L5.733 6.60675L5.721 6.65175C5.6115 7.01925 5.52525 7.392 5.463 7.76925H5.457L5.325 7.80225C5.07848 7.87738 4.86673 8.03779 4.72767 8.25477C4.58861 8.47174 4.5313 8.73113 4.566 8.9865L4.58625 9.10575L4.60725 9.21675L4.65225 9.43575L4.72275 9.78525C4.464 9.84225 4.20525 9.90075 3.94725 9.96375C3.8807 9.98019 3.82298 10.0215 3.786 10.0793C3.76014 10.1226 3.74767 10.1725 3.75014 10.2229C3.75262 10.2733 3.76994 10.3218 3.79992 10.3624C3.8299 10.4029 3.8712 10.4337 3.91864 10.4509C3.96607 10.468 4.01751 10.4708 4.0665 10.4587C4.3185 10.3972 4.5705 10.3387 4.82325 10.284L4.842 10.38C4.25299 12.2482 4.38846 14.2696 5.2215 16.0425C6.3525 18.456 8.955 21.0585 12 21.0585C15.0443 21.0585 17.6475 18.456 18.7815 16.0388C19.6118 14.2643 19.7444 12.2424 19.1528 10.3748L19.1708 10.2863C19.4243 10.3418 19.6777 10.4003 19.9305 10.4618C19.9795 10.4738 20.0309 10.471 20.0784 10.4539C20.1258 10.4367 20.1671 10.4059 20.1971 10.3654C20.2271 10.3248 20.2444 10.2763 20.2469 10.2259C20.2493 10.1755 20.2369 10.1256 20.211 10.0822L20.2125 10.08V10.08ZM11.334 2.4735C11.3346 2.28036 11.411 2.09518 11.5468 1.95784C11.6826 1.8205 11.8669 1.742 12.06 1.73925C12.465 1.73925 12.465 3.20325 12.06 3.20775C11.8669 3.205 11.6826 3.1265 11.5468 2.98916C11.411 2.85182 11.3346 2.66664 11.334 2.4735V2.4735ZM11.82 3.381C11.8793 3.39225 11.9385 3.39825 11.9985 3.39825H12.027L12.084 4.97475C12.1209 5.02381 12.1387 5.08454 12.1343 5.14574C12.1299 5.20694 12.1035 5.26448 12.06 5.30775C12.0362 5.33159 12.0079 5.35049 11.9767 5.36337C11.9456 5.37624 11.9122 5.38282 11.8785 5.38275C11.499 5.38275 11.1938 5.26725 11.1938 5.12775C11.1938 4.99875 11.4503 4.8915 11.7863 4.8735L11.8785 4.87125H11.904L11.82 3.381V3.381ZM6.117 7.00875L6.33525 6.93075L6.7065 6.807L7.194 6.663C7.371 6.609 7.569 6.5595 7.77525 6.5055L8.43075 6.35775C8.658 6.31275 8.89275 6.2625 9.13575 6.22125C9.3795 6.18 9.62325 6.147 9.87075 6.10575C10.1183 6.0645 10.3658 6.04425 10.6088 6.01575C10.8525 5.98575 11.0918 5.97375 11.3265 5.9535C11.4503 5.94225 11.577 5.937 11.6978 5.9325H11.7105L11.9992 8.50275L12.2917 5.91075H12.6052C12.7912 5.91075 12.9645 5.9025 13.1168 5.91075L13.5128 5.92725L13.8593 5.93925L13.5173 5.90625L13.1213 5.86875C12.9683 5.853 12.7987 5.8485 12.6097 5.8365C12.4078 5.82156 12.2055 5.8133 12.003 5.81175H12C11.787 5.81175 11.5575 5.799 11.3235 5.80725C11.0902 5.8155 10.845 5.81175 10.5975 5.82825L9.84675 5.87775C9.59475 5.898 9.3435 5.919 9.096 5.952C8.8485 5.985 8.60475 6.02175 8.37375 6.051C8.151 6.07875 7.93125 6.1215 7.72425 6.15825L7.35525 6.129L8.0895 5.127L11.7563 4.3275L11.7787 4.725C11.2837 4.764 10.9125 4.92825 10.9125 5.1255C10.9125 5.3505 11.4 5.5335 12.0015 5.5335C12.603 5.5335 13.0905 5.35125 13.0905 5.1255C13.0905 4.92825 12.7192 4.764 12.2242 4.725L12.2468 4.329L15.8978 5.12625L16.6328 6.12825L15.6113 6.21075L15.5925 6.2085L15.6038 6.2115H15.5887L17.544 7.1805C17.544 7.1805 18.387 9.888 17.2252 12.189C17.0927 12.449 16.9384 12.6974 16.764 12.9315C16.764 12.9315 14.9595 13.7647 12.1852 13.9117L12 13.149C12.2268 13.1566 12.4528 13.1172 12.6638 13.0335L13.2413 12.8438C14.4143 12.4823 15.5887 12.126 16.764 11.775L16.8795 11.7427L16.917 11.6355L16.9545 11.5283L16.983 11.4247L17.0363 11.2223C17.1308 10.8248 17.1983 10.4213 17.2388 10.014L17.2717 9.6015L17.2792 9.39525V9.18525L17.2838 8.97L17.2635 8.7555L17.2305 8.54175C17.2164 8.47204 17.1984 8.40318 17.1765 8.3355L17.1435 8.2275L17.106 8.1L17.0798 8.09625L17.0693 8.06325L17.0317 7.935L16.884 7.91475C15.6662 7.77271 14.4423 7.68862 13.2165 7.66275L13.089 7.65825L13.035 7.7655L12.363 9.08325L12 9.08925L11.6025 9.09675L10.8825 7.80675L10.845 7.737L10.77 7.74075C10.1602 7.77525 9.55125 7.82475 8.943 7.89C8.33696 7.95429 7.73315 8.03808 7.1325 8.14125H7.1445H7.137L7.1115 8.22375C7.1048 8.24505 7.0988 8.26656 7.0935 8.28825C7.1055 8.2395 7.11975 8.1915 7.13475 8.14125C7.11102 8.20729 7.08347 8.2719 7.05225 8.33475C7.03875 8.38725 7.02375 8.43975 7.014 8.49225L7.0065 8.5125L6.9615 8.715L6.9285 8.91675L6.9075 9.123C6.89882 9.26032 6.89631 9.39796 6.9 9.5355L6.91575 9.948C6.9435 10.3605 6.99825 10.7715 7.08075 11.1772L7.12575 11.3798L7.18425 11.5852L7.20075 11.6355L7.2585 11.6558L9.59325 12.423C10.2803 12.6465 10.9665 12.8767 11.6512 13.1122C11.7097 13.1242 11.769 13.1325 11.829 13.1362L11.8702 13.1407H11.8823L11.9033 13.1445L11.9895 13.149H12.0023L11.8117 13.9252C11.1309 13.9451 10.4494 13.9206 9.77175 13.8517C8.10525 13.6282 7.00875 13.2293 6.72375 13.116C5.79884 11.218 5.58388 9.05154 6.11775 7.00875H6.117ZM14.967 8.15625L12.7612 12.315L12.6135 12.5925L12.5062 12.6293C12.3779 12.6759 12.243 12.7025 12.1065 12.708C11.8972 12.7288 11.686 12.7032 11.4878 12.633L11.4128 12.6045L11.5073 12.4282L13.8173 8.07825L13.9215 7.881C14.2965 7.89825 14.6805 7.92675 15.072 7.95975L14.967 8.15625V8.15625ZM15.645 8.22375L15.753 8.01975L16.0703 8.049L16.3718 8.082L16.4092 8.08575H16.4332L16.3223 8.29575L14.4922 11.7443L14.3422 12.027L13.4843 12.2993L13.632 12.0195L15.645 8.22375V8.22375ZM4.8825 9.17625L4.8705 9.06525L4.86225 8.958C4.8509 8.78854 4.89835 8.62036 4.99658 8.48182C5.09482 8.34328 5.23783 8.24286 5.4015 8.1975C5.25723 9.4245 5.36441 10.668 5.7165 11.8523L5.68275 11.8417C5.56094 11.7987 5.4503 11.7289 5.35894 11.6376C5.26758 11.5462 5.19781 11.4356 5.15475 11.3138C5.12199 11.2105 5.10135 11.1038 5.09325 10.9958L4.90725 9.40125L4.8825 9.17625V9.17625ZM6.948 17.766L6.93675 17.757L6.942 17.7645C6.90017 17.7532 6.86162 17.7321 6.8295 17.703C6.36678 17.1291 5.97355 16.5025 5.658 15.8362C5.0102 14.4541 4.81089 12.904 5.088 11.403L5.091 11.4105C5.15523 11.5329 5.24566 11.6397 5.35585 11.7231C5.46604 11.8066 5.59327 11.8648 5.7285 11.8935C5.88825 12.42 6.09525 12.9307 6.34725 13.4197L6.38475 13.4858L6.4545 13.5187C6.7185 13.6267 6.98775 13.7212 7.2615 13.803H7.2675L7.24875 13.809C7.18787 13.8294 7.12783 13.8521 7.06875 13.8773C7.01953 13.8979 6.97076 13.9197 6.9225 13.9425L6.6045 14.0947L6.50175 14.1442L6.489 14.2477C6.39938 15.0322 6.47761 15.8268 6.7185 16.5787C6.83475 16.953 6.99825 17.3107 7.20525 17.6437L7.209 17.6512L7.22175 17.6843C7.23975 17.7675 7.0785 17.8012 6.948 17.7667V17.766ZM9.783 19.425C9.20234 19.2126 8.67159 18.883 8.22375 18.4567C7.9684 18.2071 7.7504 17.9219 7.5765 17.61C7.40377 17.2978 7.27074 16.9652 7.1805 16.62C7.092 16.2742 7.03799 15.9205 7.01925 15.564C6.99688 15.2513 7.00668 14.9372 7.0485 14.6265L7.242 14.5493C7.44075 14.484 7.64175 14.4263 7.84425 14.3768L8.154 14.3145C8.42175 14.2695 8.691 14.2372 8.9625 14.2192H8.99475L9.00675 14.2208C8.77498 14.8524 8.65814 15.5204 8.66175 16.1932C8.66175 17.5357 9.10425 18.678 9.807 19.4393L9.783 19.425V19.425ZM13.008 18.5677C12.6975 18.7435 12.3463 18.8345 11.9895 18.8317C11.6178 18.8335 11.2526 18.7337 10.9335 18.543C10.782 18.379 10.6529 18.1957 10.5495 17.9977C10.7243 18.2006 10.9401 18.3642 11.1825 18.478C11.425 18.5917 11.6887 18.6529 11.9565 18.6577C12.2243 18.6624 12.49 18.6106 12.7364 18.5055C12.9827 18.4004 13.2041 18.2445 13.386 18.048C13.2833 18.2373 13.1562 18.4123 13.008 18.5685V18.5677V18.5677ZM11.9895 18.2543C11.7964 18.2551 11.605 18.218 11.4263 18.1449C11.2475 18.0718 11.0849 17.9642 10.9478 17.8282C10.8107 17.6923 10.7017 17.5306 10.627 17.3525C10.5524 17.1744 10.5135 16.9834 10.5128 16.7902V16.785C10.5125 16.4945 10.5982 16.2105 10.7592 15.9687C10.9203 15.7269 11.1493 15.5383 11.4174 15.4266C11.6856 15.3149 11.9808 15.2851 12.2659 15.341C12.5509 15.397 12.813 15.5361 13.019 15.7409C13.225 15.9457 13.3658 16.2069 13.4235 16.4916C13.4812 16.7763 13.4532 17.0717 13.3431 17.3405C13.2331 17.6093 13.0458 17.8395 12.805 18.002C12.5643 18.1645 12.2807 18.252 11.9903 18.2535V18.2543H11.9895ZM13.8555 16.5C13.78 16.0538 13.547 15.6494 13.1989 15.3602C12.8507 15.071 12.4104 14.9162 11.9579 14.9238C11.5054 14.9314 11.0706 15.101 10.7324 15.4017C10.3942 15.7025 10.175 16.1145 10.1145 16.563C10.0922 16.393 10.0784 16.2221 10.0732 16.0507C10.2242 15.6657 10.4882 15.3354 10.8305 15.1034C11.1729 14.8714 11.5775 14.7485 11.991 14.751H11.9985C12.4039 14.75 12.8005 14.8695 13.1379 15.0942C13.4753 15.3189 13.7384 15.6388 13.8937 16.0132C13.8887 16.1763 13.8759 16.3389 13.8555 16.5007V16.5ZM14.1795 19.4482H14.187L14.172 19.4535C14.8845 18.6915 15.3345 17.5417 15.3345 16.1887C15.3385 15.5158 15.2214 14.8477 14.9888 14.2162H14.9993C16.0605 14.3692 16.6132 14.9138 16.6132 14.9138C16.6132 14.9138 16.7258 18.0232 14.181 19.4482H14.1795V19.4482ZM19.0267 12.7432V12.9037C19.0267 12.9405 19.0238 12.9765 19.023 13.0125C19.0204 13.0946 19.0159 13.1766 19.0095 13.2585C19.0095 13.284 19.005 13.3103 19.0027 13.3358C18.9982 13.389 18.9937 13.4422 18.9877 13.4955C18.9877 13.5075 18.9855 13.5195 18.984 13.5315C18.9783 13.5831 18.972 13.6346 18.9653 13.686V13.6935L18.9443 13.842V13.8472C18.8254 14.621 18.5828 15.3706 18.2258 16.0673L18.2003 16.1168C18.174 16.167 18.1477 16.218 18.12 16.2682C17.848 16.7756 17.5291 17.2565 17.1675 17.7045C17.1371 17.7335 17.1 17.7546 17.0595 17.766L17.064 17.7578L17.0535 17.7675C16.923 17.805 16.7573 17.7727 16.776 17.685L16.788 17.652L16.7955 17.6445C17.0002 17.31 17.163 16.953 17.2792 16.5795C17.5161 15.8283 17.5932 15.0358 17.5057 14.253L17.4938 14.1503L17.3903 14.1008C17.283 14.0468 17.1802 13.9935 17.073 13.9478L16.7468 13.8157L16.7175 13.8052L16.725 13.803C16.9972 13.7227 17.265 13.6268 17.5267 13.5173L17.5965 13.4843L17.634 13.4183C17.8852 12.9293 18.0915 12.4193 18.2505 11.8943C18.5317 11.8365 18.7718 11.6565 18.9053 11.403C18.984 11.8245 19.0252 12.2528 19.029 12.6818C19.0276 12.7022 19.0269 12.7227 19.0267 12.7432V12.7432ZM7.2345 8.35125L7.40775 8.14125H7.4655H7.37925C7.29225 8.26875 7.18575 8.391 7.0905 8.51625C7.14525 8.46075 7.188 8.409 7.2345 8.35125ZM12.7125 4.6575C13.0755 4.75275 13.3148 4.926 13.3148 5.12775C13.3148 5.33025 13.0718 5.50275 12.7125 5.598C13.2075 5.553 13.5787 5.35875 13.5787 5.12775C13.5787 4.89675 13.2075 4.701 12.7125 4.6575ZM11.52 6.5115C11.57 6.51151 11.618 6.49185 11.6537 6.45677C11.6893 6.42169 11.7097 6.374 11.7105 6.324C11.7105 6.2989 11.7056 6.27404 11.6959 6.25086C11.6862 6.22769 11.6721 6.20666 11.6542 6.189C11.6365 6.17152 11.6154 6.15785 11.5922 6.14882C11.569 6.1398 11.5441 6.1356 11.5193 6.1365C11.47 6.13709 11.4231 6.15716 11.3887 6.1923C11.3542 6.22744 11.3351 6.2748 11.3355 6.324C11.3355 6.4275 11.418 6.5115 11.52 6.5115V6.5115ZM6.53625 7.143C6.49904 7.14335 6.46276 7.15468 6.43196 7.17556C6.40116 7.19645 6.37721 7.22596 6.36311 7.2604C6.34902 7.29484 6.3454 7.33267 6.35272 7.36916C6.36004 7.40565 6.37796 7.43916 6.40425 7.4655C6.4395 7.50075 6.48675 7.5195 6.53625 7.518C6.57346 7.51765 6.60974 7.50632 6.64054 7.48544C6.67134 7.46455 6.69529 7.43504 6.70939 7.4006C6.72348 7.36616 6.7271 7.32833 6.71978 7.29184C6.71246 7.25535 6.69454 7.22184 6.66825 7.1955C6.65104 7.17814 6.63043 7.16452 6.60772 7.15549C6.58501 7.14646 6.56068 7.14221 6.53625 7.143V7.143ZM7.056 13.1978C7.09321 13.1974 7.12949 13.1861 7.16029 13.1652C7.19109 13.1443 7.21504 13.1148 7.22914 13.0804C7.24323 13.0459 7.24685 13.0081 7.23953 12.9716C7.23221 12.9351 7.21429 12.9016 7.188 12.8752C7.17079 12.8579 7.15018 12.8443 7.12747 12.8352C7.10476 12.8262 7.08043 12.822 7.056 12.8228C7.00639 12.8231 6.95893 12.843 6.92385 12.8781C6.88877 12.9132 6.86889 12.9606 6.8685 13.0103C6.87225 13.1153 6.95475 13.1978 7.056 13.1978ZM11.61 13.9155C11.6472 13.9152 11.6835 13.9038 11.7143 13.8829C11.7451 13.8621 11.769 13.8325 11.7831 13.7981C11.7972 13.7637 11.8008 13.7258 11.7935 13.6893C11.7862 13.6529 11.7683 13.6193 11.742 13.593C11.7248 13.5756 11.7042 13.562 11.6815 13.553C11.6588 13.544 11.6344 13.5397 11.61 13.5405C11.5599 13.5415 11.5122 13.5621 11.4772 13.5978C11.4421 13.6336 11.4225 13.6817 11.4225 13.7318C11.4258 13.78 11.4467 13.8255 11.4812 13.8593C11.5158 13.8932 11.5616 13.9132 11.61 13.9155V13.9155ZM12.6337 6.51525C12.6838 6.51526 12.7318 6.4956 12.7674 6.46052C12.803 6.42544 12.8235 6.37775 12.8243 6.32775C12.8243 6.30265 12.8193 6.27779 12.8097 6.25461C12.8 6.23144 12.7858 6.21041 12.768 6.19275C12.7503 6.17527 12.7291 6.1616 12.7059 6.15257C12.6827 6.14355 12.6579 6.13935 12.633 6.14025C12.5838 6.14084 12.5368 6.16091 12.5024 6.19605C12.468 6.23119 12.4489 6.27855 12.4493 6.32775C12.4493 6.432 12.5317 6.51525 12.6337 6.51525ZM12.5422 13.545C12.4928 13.5458 12.4455 13.5658 12.4105 13.6008C12.3755 13.6358 12.3555 13.683 12.3547 13.7325C12.3622 13.8352 12.4425 13.9162 12.5422 13.92C12.5795 13.9196 12.6157 13.9083 12.6465 13.8874C12.6773 13.8666 12.7013 13.837 12.7154 13.8026C12.7295 13.7682 12.7331 13.7303 12.7258 13.6938C12.7185 13.6574 12.7005 13.6238 12.6743 13.5975C12.657 13.5801 12.6364 13.5665 12.6137 13.5575C12.591 13.5485 12.5667 13.5442 12.5422 13.545V13.545ZM7.4595 14.8073C7.42682 14.8049 7.39414 14.8118 7.36521 14.8272C7.33629 14.8426 7.3123 14.8658 7.296 14.8942C7.27868 14.9234 7.26917 14.9565 7.26838 14.9904C7.2676 15.0243 7.27556 15.0578 7.2915 15.0878C7.3245 15.1478 7.386 15.1845 7.452 15.1815H7.4595C7.50858 15.1805 7.55531 15.1603 7.58967 15.1253C7.62402 15.0902 7.64326 15.0431 7.64325 14.994C7.64377 14.9463 7.62607 14.9001 7.59375 14.865C7.57651 14.8465 7.5556 14.8318 7.53235 14.8219C7.5091 14.8119 7.48403 14.8069 7.45875 14.8073H7.4595ZM8.59125 14.4697C8.54205 14.4701 8.49501 14.49 8.46043 14.525C8.42585 14.56 8.40655 14.6073 8.40675 14.6565C8.40675 14.76 8.48925 14.844 8.59125 14.844C8.64126 14.844 8.68926 14.8243 8.7249 14.7893C8.76054 14.7542 8.78096 14.7065 8.78175 14.6565C8.78177 14.6314 8.77681 14.6065 8.76715 14.5834C8.7575 14.5602 8.74334 14.5392 8.7255 14.5215C8.70775 14.504 8.68663 14.4904 8.66342 14.4813C8.6402 14.4723 8.61539 14.4681 8.5905 14.469L8.59125 14.4697ZM15.5625 14.4697C15.5371 14.4695 15.5119 14.4745 15.4885 14.4843C15.4651 14.4941 15.4439 14.5085 15.4262 14.5267C15.4085 14.545 15.3947 14.5666 15.3857 14.5903C15.3766 14.6141 15.3725 14.6394 15.3735 14.6648C15.3745 14.6901 15.3807 14.715 15.3916 14.738C15.4025 14.7609 15.418 14.7813 15.4371 14.7981C15.4562 14.8149 15.4784 14.8276 15.5026 14.8355C15.5267 14.8434 15.5522 14.8463 15.5775 14.844C15.6272 14.842 15.6741 14.8203 15.7079 14.7838C15.7416 14.7472 15.7595 14.6987 15.7575 14.649C15.7555 14.5993 15.7338 14.5524 15.6973 14.5186C15.6607 14.4849 15.6122 14.467 15.5625 14.469V14.4697Z" fill="black"/>
</svg>
