<svg width="24" height="24" viewBox="0 0 24 24" fill="none" xmlns="http://www.w3.org/2000/svg">
<path d="M12 24C18.6274 24 24 18.6274 24 12C24 5.37258 18.6274 0 12 0C5.37258 0 0 5.37258 0 12C0 18.6274 5.37258 24 12 24Z" fill="#00A6C4"/>
<path d="M18.5828 7.875L18.7328 8.12325C19.4807 9.37929 19.8754 10.8141 19.875 12.276C19.8615 16.677 16.3388 20.25 12 20.25H11.9865C7.64776 20.25 4.11151 16.6492 4.12501 12.2482C4.12501 10.7722 4.53301 9.3375 5.28076 8.0955L5.41726 7.8615L6.13801 8.59275C5.99514 8.80158 5.88088 9.0286 5.79826 9.26775C5.52345 10.0293 5.56081 10.8685 5.9022 11.6026C6.2436 12.3366 6.86134 12.906 7.62076 13.1865C8.06722 13.3455 8.54484 13.3971 9.01496 13.3372C9.48508 13.2772 9.93448 13.1074 10.3268 12.8415L12 14.5522L13.9178 12.6068C14.0948 12.7313 14.2988 12.828 14.5163 12.9105C16.0538 13.4625 17.7398 12.648 18.2835 11.103C18.6098 10.1925 18.4605 9.24075 17.9843 8.48175L18.5828 7.875V7.875ZM7.02226 9.489L9.27976 11.7653C9.00751 11.9865 8.66776 12.1102 8.30026 12.1102C7.41676 12.1102 6.69526 11.379 6.69526 10.4828C6.69526 10.11 6.81826 9.765 7.02226 9.489ZM14.8973 11.6273L17.1278 9.36525C17.3048 9.62775 17.3993 9.94425 17.3993 10.2758C17.3993 11.172 16.6793 11.9033 15.7943 11.9033C15.4545 11.9033 15.1553 11.8065 14.8973 11.6273V11.6273ZM12.027 13.338L5.52601 6.7155L5.78401 6.44025C7.38901 4.71525 9.57901 3.75 11.9325 3.75H11.946C14.3265 3.75 16.611 4.785 18.2025 6.5775L18.4478 6.85425L12.0278 13.338H12.027ZM6.58651 6.7155L12.027 12.2482L17.4 6.8265C15.9585 5.364 14.0003 4.5225 11.9603 4.5225H11.946C9.91951 4.5225 8.02951 5.295 6.58726 6.71625L6.58651 6.7155Z" fill="white"/>
</svg>
