<svg width="48" height="48" viewBox="0 0 24 24" fill="none" xmlns="http://www.w3.org/2000/svg">
<path fill-rule="evenodd" clip-rule="evenodd" d="M12 24C5.37225 24 0 18.6277 0 12C0 5.37225 5.37225 0 12 0C18.6277 0 24 5.37225 24 12C24 18.6277 18.6277 24 12 24ZM18.5828 7.875L17.9843 8.4825C18.4605 9.24075 18.6097 10.1925 18.2842 11.103C17.7397 12.648 16.053 13.4625 14.5162 12.9105C14.2987 12.828 14.0947 12.7305 13.9177 12.6068L12 14.5522L10.3275 12.8422C9.93498 13.1083 9.48529 13.2781 9.01489 13.3379C8.54449 13.3977 8.06661 13.3459 7.62 13.1865C6.86076 12.906 6.24316 12.3368 5.90178 11.6029C5.5604 10.869 5.52292 10.0299 5.7975 9.2685C5.88 9.02025 6.00225 8.799 6.138 8.59275L5.41725 7.8615L5.28075 8.0955C4.52548 9.34905 4.12617 10.7848 4.12575 12.2482C4.11 16.65 7.647 20.25 11.985 20.25H12C16.3387 20.25 19.8615 16.677 19.875 12.276C19.875 10.8135 19.4805 9.37875 18.7327 8.12325L18.5828 7.875V7.875ZM7.02225 9.489C6.80982 9.77673 6.69545 10.1251 6.696 10.4828C6.696 11.379 7.416 12.1102 8.301 12.1102C8.66775 12.1102 9.0075 11.9865 9.27975 11.7653L7.02225 9.489V9.489ZM14.8973 11.6273C15.1553 11.8073 15.4545 11.9033 15.795 11.9033C16.6785 11.9033 17.4 11.172 17.4 10.2758C17.4 9.94425 17.3047 9.627 17.1277 9.36525L14.8973 11.6273ZM12.027 13.338L18.447 6.85425L18.2017 6.57825C17.4174 5.69217 16.4544 4.98209 15.3761 4.49464C14.2978 4.0072 13.1286 3.75342 11.9453 3.75H11.9318C9.579 3.75 7.389 4.716 5.784 6.44025L5.526 6.71625L12.027 13.3387V13.338ZM6.5865 6.7155C7.29185 6.01584 8.12817 5.46205 9.04765 5.08576C9.96714 4.70947 10.9518 4.51807 11.9453 4.5225H11.9595C13.9995 4.5225 15.9577 5.364 17.3992 6.8265L12.027 12.249L6.5865 6.71625V6.7155Z" fill="black"/>
</svg>
