<svg width="24" height="24" viewBox="0 0 24 24" fill="none" xmlns="http://www.w3.org/2000/svg">
<path d="M12 24C18.6274 24 24 18.6274 24 12C24 5.37258 18.6274 0 12 0C5.37258 0 0 5.37258 0 12C0 18.6274 5.37258 24 12 24Z" fill="#002D64"/>
<path fill-rule="evenodd" clip-rule="evenodd" d="M15.5993 3.4305L16.5615 4.3935L14.7398 6.2655C15.1262 6.85461 15.3316 7.54397 15.3308 8.2485C15.3373 9.18328 14.9757 10.0831 14.3243 10.7535C13.8486 11.256 13.229 11.5987 12.5505 11.7345V13.3657C13.2255 13.5049 13.8425 13.8451 14.3205 14.3415C14.9741 15.0124 15.337 15.9137 15.3308 16.8502C15.3368 17.7866 14.9739 18.6876 14.3205 19.3582C14.0022 19.688 13.6208 19.9502 13.1989 20.1292C12.777 20.3082 12.3233 20.4003 11.865 20.4C11.4064 20.4014 10.9523 20.3098 10.5302 20.1307C10.108 19.9517 9.7265 19.6889 9.40876 19.3582C8.75757 18.6863 8.39547 17.786 8.40001 16.8502C8.40001 15.9067 8.75851 15.0112 9.40651 14.3452C9.88223 13.843 10.5019 13.5006 11.1803 13.365V11.733C10.5053 11.5933 9.88835 11.253 9.41026 10.7565C8.75834 10.0846 8.39567 9.18394 8.40001 8.24775C8.40001 7.30425 8.75851 6.40875 9.40951 5.73975C9.7278 5.40976 10.1094 5.14736 10.5314 4.96823C10.9534 4.78911 11.4073 4.69694 11.8658 4.69725C12.5535 4.69725 13.2158 4.90725 13.7813 5.29725L15.6 3.42975H15.5993V3.4305ZM11.865 14.676C11.5872 14.6738 11.312 14.7288 11.0564 14.8376C10.8008 14.9463 10.5703 15.1066 10.3793 15.3082C9.97888 15.7214 9.75623 16.2749 9.75901 16.8502C9.75901 17.4307 9.97951 17.9722 10.3793 18.3922C10.5717 18.5919 10.8023 18.7507 11.0575 18.8592C11.3126 18.9677 11.587 19.0237 11.8643 19.0237C12.1418 19.0259 12.4169 18.9709 12.6724 18.8623C12.9278 18.7537 13.1582 18.5937 13.3493 18.3922C13.7498 17.979 13.9718 17.4255 13.9695 16.8502C13.9695 16.2705 13.7498 15.729 13.347 15.3052C13.1563 15.1044 12.9263 14.9449 12.6714 14.8367C12.4164 14.7284 12.142 14.6738 11.865 14.676V14.676ZM13.347 9.804C13.7487 9.39028 13.9721 8.83561 13.9695 8.259C13.9732 7.9738 13.9203 7.6907 13.814 7.42604C13.7077 7.16138 13.55 6.92039 13.35 6.717C13.1577 6.51719 12.9271 6.35822 12.6719 6.24958C12.4168 6.14095 12.1423 6.08489 11.865 6.08475C11.5872 6.08255 11.312 6.13755 11.0564 6.24632C10.8008 6.35509 10.5703 6.51531 10.3793 6.717C9.97888 7.13015 9.75623 7.68368 9.75901 8.259C9.75901 8.8395 9.97951 9.381 10.3793 9.801C10.5717 10.0006 10.8023 10.1594 11.0575 10.2679C11.3126 10.3764 11.587 10.4324 11.8643 10.4325C12.4343 10.4325 12.9585 10.212 13.347 9.804V9.804Z" fill="white"/>
</svg>
