<svg width="48" height="48" viewBox="0 0 24 24" fill="none" xmlns="http://www.w3.org/2000/svg">
<path d="M12 24C5.37225 24 0 18.6277 0 12C0 5.37225 5.37225 0 12 0C18.6277 0 24 5.37225 24 12C24 18.6277 18.6277 24 12 24ZM16.98 7.176C16.725 6.60525 16.4887 5.47725 15.8362 5.226C14.9962 4.9035 14.478 7.017 14.3542 7.551H14.229C14.0175 6.636 13.734 5.3385 12.729 5.0505C12.264 7.00425 13.215 9.111 14.1045 10.8022C15.054 10.3477 15.5167 8.92725 15.6045 7.926H15.7297L16.7302 10.9268C17.535 10.6958 17.8147 9.89925 18.105 9.17625C18.729 7.62525 19.2525 5.71725 18.855 4.05C17.655 4.3905 17.289 6.10725 16.98 7.176V7.176ZM4.977 11.1772C6.051 10.6642 6.5625 9.03975 6.7275 7.926H6.852C6.9795 8.463 7.31925 9.8475 7.98975 9.936C8.84475 10.0493 9.2925 8.15325 9.3525 7.551H9.47775C9.75 8.49225 10.0373 9.717 10.9778 10.1768C11.3258 8.71875 10.9103 7.164 10.377 5.8005C10.2398 5.45025 9.9585 4.5045 9.47475 4.5045C8.68275 4.5045 8.23725 6.5925 8.10225 7.176H7.97775L6.97725 4.17525C5.21775 5.01525 4.26225 9.483 4.977 11.1772V11.1772ZM3.10125 12.6772C4.40625 18.3727 10.4295 21.6022 15.855 19.1962C17.822 18.3222 19.402 16.7598 20.298 14.8027C20.5312 14.2972 20.9895 13.3815 20.7225 12.7178C20.4562 12.0563 17.8763 13.1363 17.2313 13.419C17.1867 13.4387 17.1478 13.4693 17.1182 13.5079C17.0886 13.5466 17.0692 13.5921 17.0618 13.6403C17.0512 13.7089 17.055 13.779 17.0728 13.8462C17.0907 13.9133 17.1222 13.976 17.1655 14.0304C17.2087 14.0848 17.2627 14.1296 17.3241 14.1621C17.3855 14.1946 17.453 14.2141 17.5223 14.2192L18.6052 14.3032C16.644 18.0997 11.3408 19.7782 7.60275 16.7452C6.76575 16.0665 6.0195 15.2602 5.517 14.3032C5.274 13.8405 5.04825 13.2487 4.63575 12.9307C4.23825 12.6262 3.63675 12.5212 3.10125 12.6772V12.6772Z" fill="black"/>
</svg>
