<svg width="24" height="24" viewBox="0 0 24 24" fill="none" xmlns="http://www.w3.org/2000/svg">
<g clip-path="url(#clip0)">
<path d="M12 24C18.6274 24 24 18.6274 24 12C24 5.37258 18.6274 0 12 0C5.37258 0 0 5.37258 0 12C0 18.6274 5.37258 24 12 24Z" fill="#377E96"/>
<path fill-rule="evenodd" clip-rule="evenodd" d="M17.7187 22.5525L17.7817 22.506C17.6077 22.1873 17.3257 22.02 17.0085 21.9443C16.5555 21.8363 16.095 21.7365 15.633 21.7043C14.6062 21.63 13.5765 21.6128 12.549 21.5505C11.4045 21.4808 10.2615 21.384 9.11624 21.309C9.01649 21.3015 8.87324 21.339 8.81624 21.4103C8.51624 21.7778 8.22599 22.1558 7.95599 22.5458C7.82399 22.737 7.74224 22.962 7.63949 23.1683L7.71824 23.2133C7.2668 23.0409 6.82624 22.8413 6.39899 22.6155C6.47699 22.6305 6.57899 22.6185 6.61724 22.5803C7.08674 22.11 7.54124 21.6248 7.99799 21.1448C7.65674 20.8718 7.32299 20.6295 7.01924 20.355C6.73574 20.0985 6.61724 19.7588 6.64199 19.3695C6.67949 18.7718 6.94124 18.2625 7.32599 17.835C7.78124 17.3303 8.29199 16.875 8.77949 16.3995C8.83949 16.3418 8.90174 16.2885 8.95724 16.2375C8.93849 16.2045 8.93624 16.1948 8.93099 16.191L8.78849 16.1085C7.22249 15.2055 6.44174 13.8338 6.42149 12.0435C6.40349 10.5105 7.05599 9.26926 8.21024 8.28901C9.33524 7.33426 10.6605 6.99901 12.1147 7.03201C13.191 7.05676 14.1967 7.29451 15.1335 7.82926C15.186 7.85926 15.318 7.824 15.366 7.77375C15.8092 7.3095 16.2585 6.84975 16.674 6.36C17.19 5.7525 17.6265 5.09251 17.8072 4.29601C17.9482 3.67501 17.8882 3.09151 17.4382 2.60701C16.7775 1.89526 15.6405 1.99126 15.0607 2.80201C14.9467 2.96101 14.8807 3.1545 14.769 3.31725C14.7277 3.37725 14.6227 3.39451 14.5462 3.43201C14.5282 3.36451 14.4862 3.29475 14.496 3.2325C14.5215 3.0615 14.5545 2.88751 14.6107 2.72551C14.8957 1.90801 15.4252 1.35001 16.3132 1.22551C16.602 1.18501 16.902 1.21876 17.2035 1.21876C17.1885 1.19851 17.1825 1.18126 17.1705 1.17601C17.1147 1.14594 17.0579 1.11767 17.0002 1.09126C16.4343 0.832674 15.8496 0.617065 15.2512 0.446255C16.375 0.76176 17.4464 1.24035 18.4312 1.86676C18.4372 1.93201 18.4335 1.94926 18.441 1.95826C19.1032 2.77501 19.0185 3.64126 18.6015 4.52326C18.2475 5.26951 17.7315 5.90101 17.1742 6.50251C16.6642 7.05301 16.1512 7.60125 15.6375 8.1525C15.6585 8.166 15.6705 8.18101 15.6825 8.18101C16.4677 8.18176 17.253 8.19301 18.0375 8.17651C18.447 8.16901 18.8107 8.03325 19.0635 7.671C19.1115 7.60125 19.242 7.5885 19.335 7.5495L19.3875 7.62226C19.17 8.24926 18.9555 8.877 18.726 9.49875C18.7065 9.55125 18.591 9.594 18.5175 9.597C18.24 9.609 17.9625 9.60226 17.685 9.60226H16.6875L16.8007 9.82725C17.3407 10.8848 17.484 12.006 17.211 13.1498C16.8082 14.8373 15.7042 15.9278 14.0985 16.4948C12.7875 16.9583 11.442 16.9418 10.0957 16.62C9.97649 16.5915 9.79199 16.5675 9.72824 16.6313C9.43874 16.9208 9.13274 17.2125 8.92424 17.559C8.49449 18.273 8.74424 18.7695 9.56324 18.942L9.58649 18.945C10.3905 19.0073 11.1937 19.0838 11.9985 19.128C13.137 19.1903 14.277 19.215 15.4147 19.2833C16.104 19.3245 16.7842 19.446 17.4052 19.7753C18.2047 20.1975 18.771 20.82 19.0192 21.7298C19.0777 21.6885 19.1362 21.6473 19.1947 21.6045C18.7275 21.9548 18.2347 22.272 17.7172 22.5525H17.7187ZM14.0812 23.82C13.3533 23.9474 12.6152 24.0076 11.8762 24C12.6146 23.9927 13.3515 23.9326 14.0812 23.82V23.82ZM24 12.0375V12C24 10.965 23.8687 9.96075 23.6227 9.003C23.8678 9.99633 23.9944 11.0152 24 12.0383V12.0375ZM21.21 4.30875C20.5145 3.47659 19.71 2.74197 18.8182 2.12475C19.731 2.78475 20.5305 3.51225 21.2107 4.30875H21.21ZM6.22949 22.5225C5.63753 22.1972 5.07403 21.8227 4.54499 21.4028C5.07974 21.8085 5.66324 22.1565 6.22949 22.5225ZM-6.0821e-06 12.0233C0.00146528 11.384 0.0508536 10.7457 0.147744 10.1138C0.0481137 10.7451 -0.00129117 11.3834 -6.0821e-06 12.0225V12.0233ZM2.18699 5.09101C2.65771 4.4362 3.18742 3.8259 3.76949 3.26775C3.1824 3.82083 2.65225 4.43139 2.18699 5.09026V5.09101ZM8.34974 0.565505C9.53258 0.200756 10.7622 0.0102555 12 5.08252e-06C10.7613 -0.00113528 9.52999 0.189627 8.34974 0.565505V0.565505ZM14.6745 12.492L14.6295 12.4808C14.6032 12.1178 14.589 11.7533 14.55 11.3918C14.4615 10.5548 14.2237 9.76426 13.7625 9.05176C13.08 7.99576 11.94 7.56975 10.8465 7.99275C9.94874 8.33925 9.47249 9.05175 9.25799 9.96C9.05399 10.8195 9.07049 11.6903 9.17399 12.5573C9.27374 13.3823 9.50924 14.1675 9.98399 14.8658C10.5945 15.762 11.4457 16.1535 12.504 15.9765C13.509 15.81 14.1405 15.1598 14.3977 14.193C14.5455 13.641 14.586 13.0605 14.6752 12.492H14.6745Z" fill="white"/>
</g>
<defs>
<clipPath id="clip0">
<rect width="24" height="24" fill="white"/>
</clipPath>
</defs>
</svg>
