<svg width="48" height="48" viewBox="0 0 24 24" fill="none" xmlns="http://www.w3.org/2000/svg">
<g clip-path="url(#clip0)">
<path fill-rule="evenodd" clip-rule="evenodd" d="M7.9979 21.1447C7.5404 21.6247 7.08665 22.1099 6.6179 22.5802C6.56615 22.6319 6.39965 22.6349 6.3329 22.5907C5.64365 22.1407 4.92365 21.7252 4.2914 21.2032C2.56415 19.7797 1.3454 17.9857 0.625402 15.8609C0.0831518 14.2619 -0.0975982 12.6194 0.0479018 10.9379C0.250402 8.61595 1.05665 6.52345 2.4869 4.69045C4.4834 2.13145 7.0979 0.587948 10.3169 0.125948C12.6314 -0.206302 14.8664 0.118448 17.0002 1.0912C17.0579 1.11745 17.1149 1.14595 17.1704 1.17595C17.1824 1.18195 17.1884 1.19845 17.2034 1.2187C16.9019 1.2187 16.6019 1.18495 16.3124 1.2262C15.4252 1.34995 14.8964 1.90795 14.6107 2.72545C14.5544 2.8882 14.5207 3.06145 14.4959 3.23245C14.4862 3.2947 14.5282 3.3652 14.5462 3.43195C14.6227 3.39445 14.7277 3.3772 14.7689 3.3172C14.8799 3.15445 14.9467 2.96095 15.0614 2.80195C15.6404 1.9912 16.7774 1.8952 17.4382 2.60695C17.8882 3.09145 17.9482 3.67495 17.8072 4.29595C17.6272 5.09245 17.1899 5.75245 16.6739 6.35995C16.2592 6.8497 15.8092 7.30945 15.3659 7.7737C15.3179 7.82395 15.1859 7.85845 15.1334 7.8292C14.1959 7.29445 13.1909 7.0567 12.1147 7.03195C10.6604 6.99895 9.33515 7.3342 8.21015 8.28895C7.05515 9.2692 6.4034 10.5104 6.4214 12.0427C6.44165 13.8337 7.2224 15.2054 8.78765 16.1077L8.93015 16.1909C8.93615 16.1947 8.9384 16.2044 8.95715 16.2374C8.90165 16.2884 8.83865 16.3424 8.7794 16.3994C8.2919 16.8757 7.7819 17.3302 7.3259 17.8349C6.94115 18.2624 6.6794 18.7717 6.6419 19.3694C6.61715 19.7587 6.73565 20.0984 7.01915 20.3549C7.3229 20.6294 7.65665 20.8717 7.9979 21.1447V21.1447ZM19.0199 21.7297C18.7724 20.8199 18.2054 20.1974 17.4059 19.7752C16.7849 19.4459 16.1047 19.3252 15.4154 19.2832C14.2777 19.2157 13.1377 19.1902 11.9992 19.1279C11.1944 19.0829 10.3912 19.0072 9.58715 18.9449C9.57934 18.9445 9.57157 18.9435 9.5639 18.9419C8.74415 18.7694 8.49515 18.2729 8.9249 17.5589C9.1334 17.2124 9.4394 16.9207 9.7289 16.6312C9.79265 16.5674 9.97715 16.5914 10.0964 16.6199C11.4427 16.9417 12.7889 16.9582 14.0992 16.4954C15.7049 15.9277 16.8089 14.8379 17.2117 13.1504C17.4847 12.0059 17.3407 10.8854 16.8014 9.82795L16.6889 9.6022H17.6849C17.9624 9.6022 18.2399 9.60895 18.5174 9.59695C18.5902 9.59395 18.7064 9.55195 18.7259 9.49945C18.9554 8.87695 19.1692 8.2492 19.3874 7.6222L19.3349 7.54945C19.2419 7.58845 19.1114 7.60195 19.0634 7.67095C18.8107 8.0332 18.4469 8.16895 18.0374 8.17645C17.2529 8.19295 16.4677 8.1817 15.6824 8.18095C15.6704 8.18095 15.6584 8.16595 15.6374 8.15245C16.1512 7.6012 16.6642 7.05295 17.1742 6.50245C17.7314 5.90095 18.2474 5.26945 18.6014 4.52245C19.0177 3.6412 19.1032 2.77495 18.4409 1.95745C18.4334 1.94845 18.4372 1.92895 18.4297 1.8517C21.6202 4.01845 23.5214 6.94045 23.9287 10.7497C24.1645 12.8514 23.8336 14.9779 22.9705 16.9086C22.1073 18.8393 20.7433 20.5039 19.0199 21.7297V21.7297ZM14.6744 12.4919C14.5859 13.0604 14.5454 13.6409 14.3977 14.1929C14.1404 15.1604 13.5082 15.8099 12.5039 15.9764C11.4457 16.1534 10.5944 15.7619 9.9839 14.8664C9.50915 14.1674 9.27365 13.3822 9.1739 12.5572C9.06965 11.6902 9.0539 10.8194 9.2579 9.95995C9.4724 9.0517 9.9479 8.3392 10.8464 7.9927C11.9407 7.5697 13.0807 7.9957 13.7624 9.05095C14.2237 9.7642 14.4614 10.5547 14.5499 11.3917C14.5889 11.7532 14.6032 12.1177 14.6287 12.4807L14.6744 12.4919V12.4919ZM17.7817 22.5059C15.5797 24.1559 9.9239 24.5309 7.6394 23.1682C7.74215 22.9619 7.8239 22.7369 7.9559 22.5457C8.2259 22.1557 8.51615 21.7784 8.81615 21.4102C8.87315 21.3397 9.0164 21.3022 9.11615 21.3089C10.2607 21.3839 11.4037 21.4807 12.5489 21.5504C13.5764 21.6127 14.6062 21.6299 15.6329 21.7034C16.0949 21.7364 16.5554 21.8362 17.0084 21.9442C17.3257 22.0192 17.6084 22.1872 17.7817 22.5059Z" fill="black"/>
</g>
<defs>
<clipPath id="clip0">
<rect width="48" height="48" fill="white"/>
</clipPath>
</defs>
</svg>
