<svg width="24" height="24" viewBox="0 0 24 24" fill="none" xmlns="http://www.w3.org/2000/svg">
<path d="M12 24C18.6274 24 24 18.6274 24 12C24 5.37258 18.6274 0 12 0C5.37258 0 0 5.37258 0 12C0 18.6274 5.37258 24 12 24Z" fill="#7F27FF"/>
<path d="M11.532 10.5H6.015V15.9165C6.009 16.4707 6.231 17.004 6.63 17.3955C7.029 17.787 7.57275 18.0052 8.1375 18H11.5327L11.532 10.5ZM11.6595 7.66572H12.2535C12.8415 6.65322 13.38 5.96472 13.8862 5.59272C14.5102 5.13297 15.1493 5.12922 15.6503 5.62122C16.1183 6.08022 16.206 6.65622 15.8978 7.21122C15.8108 7.36572 15.6952 7.51722 15.5505 7.66572H17.7315C18.2408 7.66572 18.75 8.08422 18.75 8.66547C18.75 9.16572 18.3233 9.66597 17.7315 9.66597H12.381V8.33247H11.532V9.66597H6.2685C5.76 9.66597 5.25 9.24747 5.25 8.66547C5.25 8.16597 5.67675 7.66572 6.2685 7.66572H8.4735C8.33553 7.53715 8.21273 7.39322 8.1075 7.23672C7.74225 6.67872 7.7865 6.08922 8.26275 5.62122C8.76375 5.12922 9.40275 5.13372 10.0275 5.59272C10.533 5.96472 11.0715 6.65397 11.6602 7.66572H11.6595ZM10.6732 7.66572C10.2382 6.97347 9.84975 6.50322 9.51825 6.25947C9.2115 6.03447 9.0435 6.03297 8.86275 6.20997C8.6775 6.39222 8.66625 6.54822 8.8215 6.78522C8.9985 7.05597 9.37125 7.36122 9.90825 7.66572H10.6732ZM13.2397 7.66572H14.1547C14.667 7.37172 15.0052 7.07472 15.1522 6.81072C15.2797 6.58272 15.2527 6.40947 15.0502 6.21072C14.8695 6.03297 14.7015 6.03372 14.3955 6.25947C14.0633 6.50322 13.674 6.97347 13.2405 7.66572H13.2397ZM12.381 10.4992H17.8987V15.9165C17.9011 16.1917 17.8479 16.4646 17.7422 16.7187C17.6365 16.9729 17.4806 17.2031 17.2838 17.3955C16.8813 17.7889 16.339 18.0063 15.7762 18H12.381V10.4992Z" fill="white"/>
</svg>
