<svg width="48" height="48" viewBox="0 0 24 24" fill="none" xmlns="http://www.w3.org/2000/svg">
<path d="M11.6602 7.66575C11.0715 6.65325 10.533 5.96475 10.0275 5.59275C9.4035 5.133 8.76375 5.12925 8.26275 5.62125C7.7865 6.0885 7.74225 6.67875 8.1075 7.23675C8.20275 7.3815 8.325 7.52475 8.4735 7.66575H6.2685C5.676 7.66575 5.25 8.166 5.25 8.6655C5.25 9.2475 5.76 9.666 6.2685 9.666H11.532V8.3325H12.381V9.666H17.7315C18.324 9.666 18.75 9.16575 18.75 8.6655C18.75 8.08425 18.24 7.66575 17.7315 7.66575H15.5505C15.6945 7.51725 15.8107 7.36575 15.897 7.21125C16.206 6.65625 16.1183 6.08025 15.6503 5.62125C15.1493 5.12925 14.5102 5.13375 13.8862 5.59275C13.38 5.96475 12.8415 6.654 12.2535 7.66575H11.6602ZM10.6732 7.66575H9.90825C9.37125 7.36125 8.9985 7.056 8.82075 6.78525C8.66625 6.54825 8.67825 6.39225 8.86275 6.21C9.0435 6.033 9.2115 6.03375 9.5175 6.2595C9.84975 6.50325 10.239 6.9735 10.6732 7.66575V7.66575ZM13.2397 7.66575C13.6747 6.9735 14.0633 6.50325 14.3948 6.2595C14.7015 6.0345 14.8695 6.033 15.0502 6.21C15.2527 6.4095 15.2797 6.58275 15.1522 6.81075C15.0052 7.07475 14.667 7.37175 14.1547 7.66575H13.2397ZM12 24C5.37225 24 0 18.6277 0 12C0 5.37225 5.37225 0 12 0C18.6277 0 24 5.37225 24 12C24 18.6277 18.6277 24 12 24ZM11.532 10.5H6.015V15.9165C6.009 16.4708 6.231 17.004 6.63 17.3955C7.029 17.787 7.57275 18.0053 8.1375 18H11.5327L11.532 10.5ZM12.381 10.5V18H15.777C16.3395 18.0061 16.8815 17.7887 17.2838 17.3955C17.4806 17.2031 17.6365 16.9729 17.7422 16.7188C17.8479 16.4646 17.9011 16.1917 17.8987 15.9165V10.4992L12.381 10.5Z" fill="black"/>
</svg>
