<svg width="48" height="48" viewBox="0 0 24 24" fill="none" xmlns="http://www.w3.org/2000/svg">
<path d="M12 24C5.37225 24 0 18.6277 0 12C0 5.37225 5.37225 0 12 0C18.6277 0 24 5.37225 24 12C24 18.6277 18.6277 24 12 24ZM11.9925 9.50925L14.0925 7.39425C13.4668 6.37958 12.7674 5.41222 12 4.5C11.2313 5.41615 10.5309 6.38752 9.9045 7.40625L11.9925 9.50925V9.50925ZM16.281 11.6168C15.7118 10.3598 15.1448 9.19125 14.4885 8.05575L11.9925 10.5698L9.51 8.06925C8.889 9.14775 8.3415 10.2697 7.8 11.487C7.2105 13.1385 6.2415 14.9197 7.0725 16.5052C8.50275 19.2383 11.8628 20.2958 14.577 18.8565C15.5733 18.3247 16.3866 17.5055 16.911 16.5052C17.7353 14.9197 16.8705 13.2682 16.281 11.6175V11.6168Z" fill="black"/>
</svg>
