<svg width="48" height="48" viewBox="0 0 24 24" fill="none" xmlns="http://www.w3.org/2000/svg">
<path d="M12 24C5.37225 24 0 18.6277 0 12C0 5.37225 5.37225 0 12 0C18.6277 0 24 5.37225 24 12C24 18.6277 18.6277 24 12 24ZM5.265 5.27025H5.26575C4.2705 6.22275 4.23975 7.97175 5.21325 8.95275C7.07925 10.8525 8.98425 12.7178 10.8593 14.6093C9.999 15.4853 9.12675 16.3455 8.26575 17.2215C7.94175 17.5335 7.59825 17.9468 7.09875 17.9025C6.276 17.916 5.76 16.7978 6.34575 16.197C7.21425 15.273 8.142 14.4015 9.02325 13.491C8.64675 13.116 8.27025 12.7372 7.89375 12.3622C6.99218 13.2436 6.10087 14.1354 5.22 15.0375C4.28175 15.981 4.26 17.6407 5.15925 18.615C6.05175 19.6702 7.79925 19.8075 8.8365 18.888C9.91875 17.868 10.9402 16.7865 12.0112 15.756C13.0147 16.752 14.0032 17.7675 15.0135 18.759C15.9847 19.746 17.7285 19.7437 18.702 18.7612C19.6905 17.8417 19.7782 16.1377 18.8655 15.138C17.8485 14.0677 16.7797 13.0523 15.7537 11.9955C16.758 10.9905 17.766 9.993 18.7612 8.979C19.728 8.031 19.7438 6.32775 18.8115 5.35125C17.9033 4.31625 16.164 4.2045 15.1403 5.1285C14.0648 6.14175 13.0628 7.22775 11.9918 8.2455C10.985 7.22107 9.9679 6.20677 8.94075 5.20275C7.95675 4.23525 6.2175 4.275 5.26575 5.27025H5.265ZM6.35475 7.81275C5.89725 7.35 6.07725 6.498 6.65025 6.2205C7.062 5.976 7.602 6.10275 7.91775 6.44325C8.90775 7.41525 9.882 8.40675 10.8593 9.3915C10.3658 9.879 9.87525 10.3702 9.38775 10.8637C8.3775 9.846 7.34775 8.84775 6.35475 7.81275V7.81275ZM16.0598 6.47025H16.059C16.3613 6.129 16.8735 5.976 17.2935 6.19275C17.919 6.45 18.1147 7.36125 17.625 7.83675C16.6538 8.87475 15.6083 9.83925 14.622 10.8622C14.2388 10.4947 13.8645 10.1212 13.4895 9.74775C13.116 10.1265 12.7403 10.5037 12.3645 10.8795C14.0093 12.531 15.6585 14.1795 17.3107 15.8243C17.6617 16.1498 18.0337 16.5968 17.8702 17.1143C17.718 17.8463 16.695 18.183 16.1677 17.628C15.129 16.6492 14.1428 15.6187 13.1378 14.6077C13.5113 14.2365 13.8818 13.8653 14.25 13.4895C13.8705 13.116 13.4963 12.738 13.1198 12.3622C12.747 12.7357 12.375 13.1093 12.0007 13.4783C11.5114 12.9819 11.0156 12.4918 10.5135 12.0082C12.3682 10.1692 14.1953 8.2995 16.059 6.4695L16.0598 6.47025Z" fill="black"/>
</svg>
