<svg width="48" height="48" viewBox="0 0 24 24" fill="none" xmlns="http://www.w3.org/2000/svg">
<path d="M6.9405 6.23025C6.92248 6.23119 6.90448 6.23244 6.8865 6.234C6.8265 6.309 6.753 6.264 6.678 6.279C6.41025 6.324 6.2025 6.51675 6.2175 6.7395C6.2325 6.993 6.44025 7.05225 6.64875 7.0965C7.15425 7.2165 7.6605 7.1715 8.166 7.1865C8.77575 7.1865 9.1185 7.4835 9.207 8.094C9.267 8.5395 10.6058 20.262 10.6208 20.5148C10.622 20.5664 10.6401 20.6162 10.6723 20.6566C10.7046 20.6969 10.7492 20.7256 10.7993 20.7382C11.3048 20.892 11.8328 20.9633 12.3608 20.9468C12.954 20.9618 13.5457 20.8868 14.1157 20.7233C14.2057 20.6933 14.28 20.6632 14.28 20.5447C14.295 20.2327 15.1425 9.03075 15.1425 8.85225C15.1336 8.33125 15.3015 7.82261 15.6188 7.40925C15.8715 7.1115 16.1542 6.84375 16.407 6.54675C16.4088 6.5368 16.4103 6.5268 16.4115 6.51675C16.7077 6.50175 17.004 6.50175 17.2995 6.47175C17.4337 6.45675 17.6423 6.45675 17.6273 6.204C17.5973 6.0555 17.3595 5.63925 16.2735 5.892C16.1692 5.922 15.5745 6.1005 15.366 5.99625C15.6833 5.79075 16.011 5.6025 16.3478 5.43075C16.4963 5.3115 16.6155 5.148 16.5262 4.9695C16.437 4.791 16.2585 4.806 16.095 4.86525C15.7868 4.96101 15.5062 5.1295 15.2767 5.3565C15.126 5.5095 14.9618 5.649 14.7855 5.77275C14.3543 5.98125 14.3542 5.98125 14.25 5.95125C14.1165 5.89125 13.9672 5.78775 14.0715 5.63925C14.1322 5.5425 14.1772 5.43675 14.2057 5.3265C14.2507 5.133 14.1908 5.07375 14.0565 5.07375C13.7888 5.08875 13.6995 5.475 13.6553 5.535C13.6268 5.5935 13.5915 5.6475 13.551 5.6985C13.5165 5.7326 13.4731 5.7563 13.4257 5.76691C13.3784 5.77752 13.329 5.77461 13.2833 5.7585C13.194 5.7435 13.1197 5.6985 13.194 5.57925C13.3282 5.3715 13.7445 5.04375 13.8638 4.6125C13.8638 4.6125 14.0715 4.047 13.4918 4.03275C13.179 4.01775 12.9262 4.2405 12.837 4.5825C12.7477 4.9395 12.9412 5.43075 12.837 5.6685C12.7995 5.769 12.7492 5.8635 12.6885 5.95125C12.5883 6.04106 12.4585 6.09073 12.324 6.09073C12.1895 6.09073 12.0597 6.04106 11.9595 5.95125C11.9023 5.8845 11.8605 5.80589 11.8373 5.72107C11.8141 5.63626 11.81 5.54735 11.8253 5.46075C11.8762 5.26466 11.916 5.06584 11.9445 4.86525C11.9595 4.71675 11.6918 4.449 11.4683 4.6275C11.364 4.7025 11.4082 4.821 11.4532 4.92525C11.5282 5.148 11.6617 5.78775 10.9327 5.475C10.65 5.3265 10.8877 4.5975 10.7842 4.32975C10.7745 4.28847 10.7546 4.25025 10.7265 4.21849C10.6984 4.18673 10.6629 4.16242 10.6231 4.14772C10.5833 4.13302 10.5405 4.12839 10.4984 4.13424C10.4564 4.14009 10.4165 4.15624 10.3823 4.18125C10.3436 4.19696 10.309 4.22095 10.2806 4.25152C10.2523 4.28209 10.231 4.31851 10.2183 4.35819C10.2056 4.39788 10.2017 4.43988 10.2069 4.48123C10.2122 4.52258 10.2265 4.56227 10.2487 4.5975C10.3087 4.71675 10.665 5.40075 10.3823 5.52C10.278 5.565 10.0552 5.475 9.90675 5.38575C9.37125 5.148 9.282 4.32975 9.11775 4.2255C9.0418 4.16947 8.94926 4.1405 8.85491 4.14322C8.76057 4.14593 8.66985 4.18019 8.59725 4.2405C8.52402 4.28176 8.46846 4.34845 8.4411 4.42792C8.41373 4.5074 8.41645 4.59415 8.44875 4.67175C8.523 4.806 8.80575 4.88025 8.865 5.3415L8.88225 5.35425C8.87625 5.35425 8.87025 5.35425 8.865 5.3565C8.77575 5.3565 8.7315 5.2965 8.6715 5.25225C8.5382 5.16066 8.38503 5.10208 8.22463 5.08135C8.06424 5.06061 7.90121 5.07832 7.749 5.133C7.6853 5.14801 7.6274 5.18138 7.58247 5.22897C7.53754 5.27656 7.50757 5.33629 7.49625 5.40075C7.49704 5.46948 7.51889 5.53632 7.55886 5.59224C7.59882 5.64817 7.65498 5.69049 7.71975 5.7135C7.8675 5.769 8.0115 5.8335 8.151 5.907C8.226 5.937 8.3445 5.952 8.3295 6.0855V6.09C8.31758 6.07496 8.30212 6.06311 8.2845 6.0555C7.91748 6.10172 7.54558 6.02327 7.2285 5.83275C7.15675 5.7821 7.07108 5.7549 6.98325 5.7549C6.89542 5.7549 6.80975 5.7821 6.738 5.83275C6.5445 5.99625 6.82725 6.18975 6.84225 6.18975C6.87237 6.2084 6.90529 6.22207 6.93975 6.23025H6.9405ZM10.4392 5.562C10.4205 5.5657 10.402 5.57046 10.3838 5.57625C10.393 5.57182 10.4025 5.56806 10.4123 5.565C10.4212 5.56381 10.4302 5.56281 10.4392 5.562V5.562ZM12 24C5.37225 24 0 18.6277 0 12C0 5.37225 5.37225 0 12 0C18.6277 0 24 5.37225 24 12C24 18.6277 18.6277 24 12 24ZM17.91 7.08225C17.3445 6.87375 16.095 7.18575 16.035 7.275C16.2735 7.32 16.3478 7.35 16.7048 7.40925C17.0873 7.479 17.4548 7.61475 17.7908 7.81125C18.1478 8.019 18.2963 7.73625 18.2963 7.73625C18.3563 7.60275 18.1927 7.18575 17.91 7.08225ZM7.74975 4.6125C7.65835 4.4683 7.55895 4.32933 7.452 4.19625C7.16925 3.8985 6.6195 3.75 6.321 3.8985C6.1575 3.9735 6.08325 4.077 6.2175 4.2555C6.38025 4.41675 6.58725 4.5255 6.81225 4.56825C6.94575 4.59825 7.54125 4.73175 7.68975 4.761C7.83975 4.761 7.74975 4.6125 7.74975 4.6125V4.6125ZM18.1927 5.565C18.2227 5.475 18.1927 5.178 17.6565 5.25225C17.2102 5.32725 16.8983 5.44575 16.9133 5.505C16.9283 5.565 17.4188 5.65425 17.523 5.6685C17.9393 5.7435 18.1777 5.6235 18.1927 5.565ZM12.7778 3.08025C12.7256 3.03201 12.658 3.00398 12.587 3.00123C12.5161 2.99848 12.4464 3.02119 12.3907 3.06525C11.9445 3.348 12.2715 4.31475 12.3157 4.31475C12.3607 4.31475 12.4057 3.97275 12.852 3.46725C12.8732 3.43714 12.888 3.40307 12.8957 3.36709C12.9034 3.3311 12.9037 3.29394 12.8967 3.25781C12.8897 3.22169 12.8755 3.18734 12.855 3.15683C12.8344 3.12633 12.8079 3.10028 12.777 3.08025H12.7778Z" fill="black"/>
</svg>
