<svg width="48" height="48" viewBox="0 0 24 24" fill="none" xmlns="http://www.w3.org/2000/svg">
<path d="M12 24C5.37225 24 0 18.6277 0 12C0 5.37225 5.37225 0 12 0C18.6277 0 24 5.37225 24 12C24 18.6277 18.6277 24 12 24ZM19.872 7.749L13.5308 18.204H9.74925L12.6555 13.4062H9.76725L6.39975 18.9592C8.00501 20.2642 10.0136 20.9712 12.0823 20.9595C14.151 20.9478 16.1515 20.2181 17.7419 18.8952C19.3323 17.5722 20.4139 15.738 20.802 13.706C21.1902 11.674 20.8606 9.57025 19.8698 7.75425L19.872 7.749ZM14.3355 5.8725L11.583 10.4025H14.475L17.6805 5.11575C16.0752 3.81083 14.0667 3.10382 11.998 3.11551C9.92925 3.1272 7.9288 3.85687 6.33839 5.17985C4.74798 6.50283 3.66631 8.33702 3.27821 10.369C2.8901 12.401 3.21963 14.5048 4.2105 16.3207L10.5495 5.87325H14.3348L14.3355 5.8725Z" fill="black"/>
</svg>
