<svg width="48" height="48" viewBox="0 0 24 24" fill="none" xmlns="http://www.w3.org/2000/svg">
<path d="M12 24C5.37225 24 0 18.6277 0 12C0 5.37225 5.37225 0 12 0C18.6277 0 24 5.37225 24 12C24 18.6277 18.6277 24 12 24ZM5.25 15.9225C5.1615 16.1205 5.0865 16.2975 5.00475 16.4888C4.86825 16.803 4.725 17.1165 4.5885 17.4307C4.56825 17.4712 4.58175 17.4848 4.61625 17.4915C4.677 17.5058 4.7385 17.5125 4.8 17.5192C4.971 17.526 5.148 17.5328 5.325 17.5328C5.44125 17.5403 5.56425 17.5403 5.68725 17.5328C5.898 17.5125 6.1095 17.4915 6.321 17.4578C6.93593 17.3717 7.5341 17.1921 8.09475 16.9252C8.39589 16.7862 8.68361 16.6198 8.95425 16.428C9.17925 16.257 9.40425 16.0868 9.61575 15.903C9.75225 15.78 9.882 15.6503 9.99825 15.507C10.1618 15.3225 10.3117 15.1245 10.455 14.9272C10.6395 14.6677 10.7895 14.388 10.9125 14.0947C11.0625 13.7467 11.1713 13.3853 11.2395 13.017H12.6172C12.6787 13.017 12.7125 13.0305 12.7125 13.0995C12.72 13.1332 12.7267 13.1745 12.7402 13.2083C12.8152 13.563 12.924 13.911 13.0815 14.238C13.345 14.7935 13.7 15.3008 14.1315 15.7388C14.2275 15.8408 14.3362 15.9435 14.4457 16.032C14.616 16.1685 14.7863 16.305 14.9633 16.4348C15.3053 16.6733 15.6592 16.8712 16.0417 17.0347C16.3598 17.1704 16.6884 17.28 17.0242 17.3625C17.3032 17.4232 17.5898 17.4713 17.8695 17.5125C18.0743 17.5395 18.2858 17.5598 18.4973 17.5598C18.7298 17.5598 18.9683 17.5463 19.2 17.5328C19.2953 17.5253 19.3837 17.5057 19.4797 17.4847C19.377 17.253 19.2818 17.0348 19.1865 16.8165C19.0652 16.5451 18.947 16.2723 18.8317 15.9982C18.8242 15.984 18.8107 15.9773 18.7972 15.9705C18.7297 15.9638 18.6608 15.9637 18.5925 15.957L18.054 15.9158C17.7633 15.8894 17.477 15.8277 17.2012 15.732C16.9145 15.6374 16.6381 15.514 16.3762 15.3638C15.9745 15.1405 15.6143 14.8498 15.3113 14.5043C15.1948 14.3692 15.0856 14.228 14.9843 14.0812C14.8137 13.8303 14.6782 13.5573 14.5815 13.2698C14.5545 13.1873 14.5342 13.1055 14.5065 13.0103H15.5025C15.612 13.0103 15.639 12.99 15.6802 12.894C15.8167 12.567 15.96 12.246 16.0965 11.9258L16.2938 11.4757C16.287 11.4682 16.2802 11.4682 16.2735 11.4615C16.0711 11.3939 15.8591 11.3595 15.6458 11.3595C15.291 11.352 14.9295 11.3595 14.5748 11.3595H14.4998C14.5073 11.3392 14.5072 11.3115 14.514 11.2913C14.5957 11.0115 14.7045 10.7453 14.841 10.4933C15.0113 10.1858 15.2235 9.90675 15.4688 9.66075C15.564 9.55875 15.6802 9.47025 15.7822 9.381C16.035 9.1695 16.3073 8.9925 16.6013 8.84925C17.2291 8.54588 17.9162 8.38504 18.6135 8.37825C18.654 8.38575 18.6885 8.38575 18.729 8.37825C18.777 8.36475 18.8453 8.3925 18.8723 8.32425C18.9135 8.21475 18.9607 8.11275 19.0087 8.01C19.1385 7.7175 19.2615 7.43025 19.3837 7.14375L19.5 6.87075C19.4865 6.85725 19.4865 6.8505 19.4797 6.8505C19.3222 6.8235 19.1655 6.789 19.0087 6.783C18.852 6.7755 18.6952 6.783 18.5317 6.783C18.4222 6.783 18.3203 6.789 18.2108 6.79575C18.0405 6.81 17.8695 6.8235 17.706 6.8505C17.5065 6.87648 17.3084 6.91303 17.1127 6.96C16.8532 7.0275 16.5945 7.11 16.335 7.1985C15.96 7.335 15.6052 7.506 15.264 7.71675C14.9337 7.91931 14.6231 8.15233 14.3362 8.41275C14.1982 8.53852 14.0685 8.67305 13.9478 8.8155C13.7854 9.00078 13.6327 9.19429 13.4902 9.39525C13.3335 9.61275 13.1978 9.852 13.0883 10.0973C12.9518 10.3905 12.8422 10.6972 12.7605 11.0182C12.7412 11.1281 12.7187 11.2374 12.693 11.346H11.3077C11.2955 11.3455 11.2837 11.3413 11.2739 11.334C11.2641 11.3266 11.2568 11.3164 11.253 11.3047C11.2192 11.1547 11.1915 10.9973 11.151 10.8473C11.03 10.3901 10.8414 9.95349 10.5915 9.552C10.3398 9.14834 10.0396 8.77707 9.6975 8.4465C9.63 8.38575 9.56175 8.32425 9.4935 8.2695C9.3435 8.1465 9.186 8.0235 9.02925 7.908C8.67368 7.65573 8.29168 7.44298 7.89 7.2735C7.60192 7.15075 7.30572 7.048 7.0035 6.966C6.53086 6.84206 6.04585 6.77137 5.5575 6.75525C5.25215 6.74133 4.94617 6.75488 4.64325 6.79575L4.5 6.837C4.56825 6.9945 4.6365 7.137 4.698 7.287C4.77975 7.46475 4.85475 7.6485 4.9365 7.833C5.00475 7.98975 5.073 8.1405 5.14125 8.2965C5.14405 8.30632 5.14931 8.31526 5.15652 8.32248C5.16374 8.32969 5.17268 8.33495 5.1825 8.33775C5.22975 8.3445 5.27775 8.35125 5.325 8.35125C5.523 8.36475 5.71425 8.3715 5.91225 8.3925C6.16425 8.42625 6.41025 8.481 6.64875 8.556C6.93525 8.65125 7.215 8.77425 7.48125 8.92425C7.74 9.0675 7.97175 9.23775 8.18325 9.43575C8.35425 9.59925 8.511 9.77025 8.65425 9.954C8.9475 10.329 9.159 10.7595 9.282 11.223C9.2955 11.271 9.2955 11.3115 9.309 11.3662H9.2205C8.886 11.3662 8.559 11.3595 8.2245 11.3662C8.18402 11.3652 8.14472 11.38 8.115 11.4075C8.08806 11.447 8.06755 11.4906 8.05425 11.5365L7.638 12.4988C7.58389 12.634 7.52688 12.768 7.467 12.9008C7.4745 12.9083 7.48125 12.915 7.49475 12.9218C7.515 12.9218 7.53525 12.9285 7.55625 12.9352C7.77375 12.9832 7.99275 13.0103 8.21775 13.0103H9.28875C9.28125 13.0305 9.28125 13.0583 9.27525 13.0778C9.19606 13.3727 9.08147 13.657 8.934 13.9245C8.763 14.2245 8.5515 14.5043 8.30625 14.7495C8.19062 14.8576 8.06999 14.9602 7.94475 15.057C7.51522 15.3911 7.02376 15.6368 6.49875 15.78C6.23294 15.8511 5.9614 15.8988 5.68725 15.9225C5.544 15.93 5.39325 15.9225 5.25 15.9225V15.9225Z" fill="black"/>
</svg>
