<svg width="48" height="48" viewBox="0 0 24 24" fill="none" xmlns="http://www.w3.org/2000/svg">
<path fill-rule="evenodd" clip-rule="evenodd" d="M12 24C5.37225 24 0 18.6277 0 12C0 5.37225 5.37225 0 12 0C18.6277 0 24 5.37225 24 12C24 18.6277 18.6277 24 12 24ZM12.429 11.454C12.3143 12.0165 12.8887 11.8665 12.8887 11.8665C15.1837 11.3415 15.7965 9.129 15.7965 9.129C16.4145 7.13925 15.4717 5.8815 15.003 5.406C14.8265 5.22642 14.6067 5.09545 14.3647 5.02575C13.5135 4.7835 12.3907 5.00325 12.3907 5.00325L9.21525 5.49075L8.76375 5.55C8.68228 5.56069 8.60243 5.58134 8.526 5.6115L8.067 5.7915C10.3627 5.679 11.472 7.104 11.472 7.104C13.4242 9.2415 12.429 11.454 12.429 11.454V11.454ZM12.2872 12.687C11.8522 12.3038 11.691 12.8625 11.6917 12.864C10.9822 15.0668 12.612 16.7115 12.612 16.7115C14.0445 18.246 15.6293 18.0923 16.2855 17.9393C16.5315 17.883 16.758 17.7645 16.9425 17.5958C17.5898 17.0018 17.9685 15.9435 17.9685 15.9435L19.1595 13.0185L19.338 12.6083C19.3703 12.5333 19.3928 12.456 19.4055 12.3757L19.482 11.8972C18.4102 13.8907 16.5938 14.1 16.5938 14.1C13.7213 14.6535 12.2872 12.687 12.2872 12.687V12.687ZM11.2485 11.9767C11.8035 11.7945 11.385 11.3813 11.3835 11.3813C9.77475 9.69225 7.512 10.2743 7.512 10.2743C5.44425 10.7415 4.8015 12.1688 4.61475 12.804C4.54415 13.0427 4.53846 13.2959 4.59825 13.5375C4.806 14.3797 5.56125 15.225 5.56125 15.225L7.57575 17.6797L7.8525 18.0338C7.9026 18.098 7.96055 18.1557 8.025 18.2055L8.41275 18.5055C7.16925 16.6102 7.87725 14.958 7.87725 14.958C8.796 12.234 11.2485 11.9767 11.2485 11.9767V11.9767ZM12.8295 12.1193C12.2798 12.3158 12.7095 12.7178 12.7073 12.7178C14.3588 14.3648 16.6058 13.7272 16.6058 13.7272C18.6608 13.2097 19.2668 11.766 19.437 11.1263C19.5023 10.8863 19.5023 10.6343 19.437 10.3943C19.206 9.55575 18.4305 8.73075 18.4305 8.73075L16.353 6.32625L16.0673 5.97975C16.0153 5.91701 15.9558 5.86085 15.8903 5.8125L15.4943 5.52225C16.7873 7.38525 16.1227 9.0555 16.1227 9.0555C15.2752 11.8005 12.8303 12.1193 12.8303 12.1193H12.8295ZM11.601 12.5715C11.7323 12.012 11.1525 12.15 11.1525 12.1478C8.844 12.6158 8.175 14.8132 8.175 14.8132C7.5075 16.7865 8.41725 18.066 8.87475 18.5535C9.04575 18.7365 9.26175 18.873 9.5025 18.9487C10.3478 19.212 11.475 19.02 11.475 19.02L14.6625 18.6105L15.1147 18.5625C15.1967 18.5541 15.2773 18.5357 15.3547 18.5078L15.8175 18.339C13.518 18.3952 12.4462 16.944 12.4462 16.944C10.5502 14.7592 11.601 12.5715 11.601 12.5715ZM11.6827 11.4195C12.123 11.7967 12.2753 11.2342 12.2753 11.2357C12.9533 9.02325 11.3003 7.40175 11.3003 7.40175C9.846 5.8875 8.2635 6.06225 7.6095 6.225C7.36479 6.28425 7.13952 6.40566 6.9555 6.5775C6.318 7.17975 5.95425 8.24325 5.95425 8.24325L4.80525 11.1862L4.63275 11.5988C4.60275 11.6738 4.58025 11.7517 4.569 11.8312L4.5 12.3113C5.5425 10.3035 7.356 10.0695 7.356 10.0695C10.2187 9.4725 11.6827 11.4195 11.6827 11.4195V11.4195Z" fill="black"/>
<path opacity="0.5" d="M12.8295 12.1192C12.8295 12.1192 15.2745 11.8012 16.122 9.0555C16.122 9.0555 16.7873 7.38525 15.4943 5.52225L15.8903 5.8125C15.9555 5.86125 16.0155 5.9175 16.0673 5.97975L16.353 6.32625L18.4305 8.73075C18.4305 8.73075 19.206 9.55575 19.437 10.3942C19.5023 10.6342 19.5023 10.8862 19.437 11.1262C19.2668 11.766 18.6615 13.2097 16.6058 13.7272C16.6058 13.7272 14.3588 14.3647 12.7073 12.7177C12.7088 12.7177 12.2798 12.3157 12.8295 12.1192ZM11.601 12.5722C11.601 12.5722 10.5502 14.7592 12.4463 16.944C12.4463 16.944 13.518 18.3952 15.8175 18.339L15.354 18.5077C15.2768 18.5356 15.1964 18.554 15.1148 18.5625L14.6625 18.6105L11.475 19.02C11.475 19.02 10.3478 19.2127 9.5025 18.9487C9.26279 18.8731 9.0466 18.737 8.87475 18.5535C8.41725 18.066 7.5075 16.7865 8.17575 14.8132C8.17575 14.8132 8.84325 12.6157 11.1525 12.1477C11.1525 12.15 11.7323 12.0127 11.601 12.5722V12.5722ZM11.6828 11.4195C11.6828 11.4195 10.2188 9.4725 7.356 10.0695C7.356 10.0695 5.5425 10.3035 4.5 12.312L4.569 11.8312C4.58079 11.7514 4.60246 11.6733 4.6335 11.5987L4.806 11.1862L5.9535 8.24325C5.9535 8.24325 6.31725 7.17975 6.9555 6.57675C7.13961 6.40518 7.36487 6.28403 7.6095 6.225C8.2635 6.06225 9.846 5.8875 11.2995 7.40175C11.2995 7.40175 12.9533 9.0225 12.276 11.2357C12.276 11.2342 12.123 11.7967 11.6828 11.4195V11.4195Z" fill="black"/>
</svg>
