<svg width="24" height="24" viewBox="0 0 24 24" fill="none" xmlns="http://www.w3.org/2000/svg">
<path d="M12 24C18.6274 24 24 18.6274 24 12C24 5.37258 18.6274 0 12 0C5.37258 0 0 5.37258 0 12C0 18.6274 5.37258 24 12 24Z" fill="#1591CA"/>
<path d="M12.429 11.454C12.429 11.454 13.4243 9.24151 11.4728 7.10401C11.4728 7.10401 10.3628 5.67901 8.06775 5.79151L8.526 5.61151C8.6025 5.58151 8.68275 5.56051 8.76375 5.55001L9.21525 5.49151L12.3908 5.00401C12.3908 5.00401 13.5135 4.78351 14.3648 5.02651C14.607 5.09626 14.8275 5.22751 15.0023 5.40601C15.4718 5.88151 16.4145 7.13926 15.7973 9.12901C15.7973 9.12901 15.1845 11.3415 12.8888 11.8665C12.8888 11.8665 12.3143 12.0165 12.429 11.454V11.454ZM12.2873 12.687C12.2873 12.687 13.722 14.6543 16.5938 14.1C16.5938 14.1 18.4103 13.8908 19.482 11.8973L19.4055 12.3765C19.3928 12.456 19.3703 12.534 19.338 12.6083L19.1595 13.0185L17.9685 15.9435C17.9685 15.9435 17.5898 17.0018 16.9425 17.5958C16.7567 17.765 16.5304 17.8836 16.2855 17.94C15.6293 18.0923 14.0445 18.246 12.612 16.7115C12.612 16.7115 10.9823 15.0675 11.6918 12.864C11.6918 12.8625 11.8523 12.3038 12.2873 12.687V12.687ZM11.2485 11.9768C11.2485 11.9768 8.796 12.2348 7.87725 14.958C7.87725 14.958 7.16925 16.611 8.41275 18.5055L8.025 18.2055C7.96055 18.1557 7.9026 18.098 7.8525 18.0338L7.575 17.6798L5.562 15.225C5.562 15.225 4.80675 14.3798 4.599 13.5375C4.539 13.296 4.545 13.0425 4.6155 12.804C4.80225 12.1688 5.445 10.7415 7.51275 10.275C7.51275 10.275 9.7755 9.69226 11.3843 11.382C11.3858 11.382 11.8043 11.7945 11.2493 11.9768H11.2485Z" fill="white"/>
<path opacity="0.5" d="M12.8295 12.1193C12.8295 12.1193 15.2745 11.8013 16.122 9.05553C16.122 9.05553 16.7873 7.38528 15.4943 5.52228L15.8903 5.81253C15.9555 5.86128 16.0155 5.91753 16.0673 5.97978L16.353 6.32628L18.4305 8.73078C18.4305 8.73078 19.206 9.55578 19.437 10.3943C19.5023 10.6343 19.5023 10.8863 19.437 11.1263C19.2668 11.766 18.6615 13.2098 16.6058 13.7273C16.6058 13.7273 14.3588 14.3648 12.7073 12.7178C12.7088 12.7178 12.2798 12.3158 12.8295 12.1193ZM11.601 12.5723C11.601 12.5723 10.5502 14.7593 12.4463 16.944C12.4463 16.944 13.518 18.3953 15.8175 18.339L15.354 18.5078C15.2768 18.5357 15.1964 18.554 15.1148 18.5625L14.6625 18.6105L11.475 19.02C11.475 19.02 10.3478 19.2128 9.5025 18.9488C9.26279 18.8731 9.0466 18.737 8.87475 18.5535C8.41725 18.066 7.5075 16.7865 8.17575 14.8133C8.17575 14.8133 8.84325 12.6158 11.1525 12.1478C11.1525 12.15 11.7323 12.0128 11.601 12.5723V12.5723ZM11.6828 11.4195C11.6828 11.4195 10.2188 9.47253 7.356 10.0695C7.356 10.0695 5.5425 10.3035 4.5 12.312L4.569 11.8313C4.58079 11.7514 4.60246 11.6733 4.6335 11.5988L4.806 11.1863L5.9535 8.24328C5.9535 8.24328 6.31725 7.17978 6.9555 6.57678C7.13961 6.40521 7.36487 6.28406 7.6095 6.22503C8.2635 6.06228 9.846 5.88753 11.2995 7.40178C11.2995 7.40178 12.9533 9.02253 12.276 11.2358C12.276 11.2343 12.123 11.7968 11.6828 11.4195V11.4195Z" fill="white"/>
</svg>
