<svg width="48" height="48" viewBox="0 0 24 24" fill="none" xmlns="http://www.w3.org/2000/svg">
<path d="M12 24C5.37225 24 0 18.6277 0 12C0 5.37225 5.37225 0 12 0C18.6277 0 24 5.37225 24 12C24 18.6277 18.6277 24 12 24ZM8.0625 5.625C8.4711 6.23161 8.68439 6.94869 8.67375 7.68C7.84575 7.6875 7.0185 7.6875 6.19125 7.6875C5.385 9.1275 4.542 10.5502 3.75 11.9977V12C4.5405 13.4497 5.3805 14.8725 6.1905 16.3125H8.4105V14.5778H7.68375C7.1921 13.7197 6.70259 12.8605 6.21525 12L7.6815 9.42225H13.5817V11.1248H10.7557V9.63975H8.62575C8.61825 12.0525 8.643 14.4652 8.61825 16.875C8.6955 17.5823 7.95975 17.8927 7.5945 18.375H11.7922C11.1435 17.8522 10.5848 17.2275 10.7018 16.32C13.1895 16.305 15.6742 16.3178 18.1597 16.3125C18.786 15.2378 19.2885 14.0572 20.25 13.2277C19.278 13.0972 18.2963 13.1497 17.3198 13.125C17.151 13.6252 16.9395 14.1075 16.701 14.58C16.3755 14.5778 16.05 14.5778 15.7267 14.5778C15.7342 12.0848 15.714 9.59025 15.729 7.09725C15.6915 6.54 16.077 6.09975 16.3035 5.625H13.0155C13.4408 6.2325 13.6395 6.93975 13.6268 7.68C12.6548 7.68975 11.6805 7.68975 10.7093 7.68C10.6943 6.93525 10.935 6.2475 11.328 5.625H8.06175H8.0625ZM10.7565 12.8752H13.5817V14.5778H10.7565V12.8752V12.8752ZM15.9427 7.6875V9.42225L16.6807 9.42C16.9417 9.8775 17.178 10.3552 17.2972 10.875C18.2392 10.8277 19.1857 10.923 20.1202 10.8C20.103 10.743 20.0707 10.6253 20.0527 10.5675C19.1782 9.7875 18.7613 8.6625 18.1553 7.6875H15.9427V7.6875ZM13.659 16.53C13.7137 17.3723 13.08 17.8605 12.5377 18.375H16.7655C16.1918 17.88 15.6075 17.3625 15.6225 16.5278C14.9685 16.53 14.3122 16.5323 13.659 16.53Z" fill="black"/>
</svg>
