<svg width="48" height="48" viewBox="0 0 24 24" fill="none" xmlns="http://www.w3.org/2000/svg">
<path fill-rule="evenodd" clip-rule="evenodd" d="M12 24C5.37225 24 0 18.6277 0 12C0 5.37225 5.37225 0 12 0C18.6277 0 24 5.37225 24 12C24 18.6277 18.6277 24 12 24ZM11.2552 13.9927V14.9805C11.2552 15.0225 11.2553 15.0653 11.2613 15.1065C11.3138 15.441 11.601 15.675 11.9272 15.651C12.0866 15.6365 12.2347 15.5624 12.3419 15.4435C12.4491 15.3247 12.5075 15.1698 12.5055 15.0098C12.507 14.6468 12.5062 14.2823 12.5055 13.9193C12.5038 13.8918 12.4936 13.8656 12.4763 13.8442C12.4035 13.7542 12.3277 13.6665 12.2527 13.5787C12.039 13.3267 11.826 13.0748 11.6115 12.8243C11.5395 12.7403 11.4525 12.7147 11.3708 12.7507C11.2808 12.7897 11.2537 12.8632 11.2545 12.9592C11.2567 13.3042 11.2545 13.6485 11.2545 13.9927H11.2552ZM11.2575 7.23525C11.4075 7.0035 11.61 6.885 11.8815 6.88425C12.156 6.88425 12.357 7.008 12.5025 7.257L12.5062 7.221C12.5047 6.52275 12.5085 5.82375 12.5018 5.1255C12.5021 5.03381 12.4822 4.94317 12.4435 4.86005C12.4047 4.77693 12.3482 4.70338 12.2777 4.64464C12.2073 4.5859 12.1248 4.54343 12.0361 4.52024C11.9474 4.49705 11.8546 4.49373 11.7645 4.5105C11.472 4.5615 11.256 4.82625 11.256 5.142C11.2545 5.8245 11.2552 6.5085 11.2552 7.191L11.2575 7.236V7.23525ZM11.2552 16.695V16.866C11.2552 17.5358 11.253 18.2055 11.2567 18.8752C11.2575 19.0341 11.3185 19.1868 11.4273 19.3026C11.5361 19.4184 11.6847 19.4886 11.8433 19.4993C12.177 19.5143 12.4657 19.2705 12.4957 18.9352C12.5107 18.7665 12.5055 18.5947 12.5055 18.4252C12.507 17.8642 12.5055 17.3032 12.5055 16.743V16.689C12.3577 16.92 12.159 17.0445 11.886 17.0452C11.6122 17.046 11.4082 16.9275 11.2552 16.695V16.695ZM12.5062 10.0755L12.5055 8.847C12.5055 8.7945 12.501 8.73975 12.4897 8.688C12.4207 8.3775 12.1268 8.157 11.8305 8.19C11.673 8.20393 11.5264 8.27661 11.42 8.3936C11.3135 8.5106 11.255 8.66334 11.256 8.8215C11.2538 9.357 11.2545 9.89325 11.256 10.4287C11.2576 10.4563 11.2681 10.4827 11.286 10.5038C11.3775 10.6155 11.472 10.7242 11.5657 10.8337C11.7472 11.0452 11.9272 11.2583 12.1095 11.4698C12.1407 11.5092 12.184 11.5375 12.2327 11.5502C12.2814 11.5629 12.3329 11.5594 12.3795 11.5403C12.4688 11.5043 12.5062 11.4398 12.5062 11.3213V10.0763V10.0755ZM13.8045 7.54275V9.168C13.8045 9.20625 13.806 9.2445 13.809 9.28275C13.839 9.67275 14.217 9.94425 14.5867 9.8445C14.871 9.76725 15.057 9.51675 15.057 9.207V7.11C15.057 6.69525 15.0593 6.27975 15.057 5.86425C15.0548 5.42325 14.6505 5.11725 14.2448 5.2455C13.9778 5.3295 13.806 5.5755 13.8052 5.877V7.542L13.8045 7.54275ZM10.0215 15.57C10.0215 14.9235 10.023 14.2763 10.0208 13.6298C10.0211 13.5344 9.9997 13.4402 9.95808 13.3543C9.91647 13.2685 9.85578 13.1934 9.78065 13.1346C9.70553 13.0758 9.61796 13.035 9.52464 13.0153C9.43133 12.9955 9.33473 12.9974 9.24225 13.0208C9.10541 13.0574 8.98473 13.1387 8.89939 13.2517C8.81405 13.3648 8.76895 13.5031 8.77125 13.6448V17.2095C8.77125 17.3167 8.769 17.424 8.77125 17.5312C8.7825 17.9055 9.141 18.1988 9.50175 18.129C9.64952 18.1018 9.78283 18.023 9.87789 17.9067C9.97295 17.7903 10.0236 17.644 10.0208 17.4938C10.0223 16.8525 10.0208 16.2113 10.0208 15.57H10.0215ZM10.0215 8.4855V7.8705C10.0215 7.197 10.023 6.5235 10.0208 5.84925C10.0212 5.75533 10.0006 5.6625 9.96037 5.57764C9.92014 5.49277 9.86133 5.41805 9.7883 5.35899C9.71527 5.29993 9.62989 5.25806 9.53848 5.23646C9.44708 5.21487 9.35199 5.21411 9.26025 5.23425C9.11873 5.26756 8.99294 5.34845 8.90392 5.46341C8.81491 5.57836 8.76807 5.7204 8.77125 5.86575V9.9945C8.77125 10.374 8.76825 10.7528 8.77125 11.1315C8.775 11.529 9.15 11.8275 9.5295 11.739C9.67132 11.7064 9.79759 11.626 9.88706 11.5113C9.97654 11.3965 10.0237 11.2545 10.0208 11.109V8.4855H10.0215ZM13.8045 14.625V17.4382C13.8045 17.4787 13.806 17.5185 13.809 17.5582C13.8405 17.9497 14.2245 18.2212 14.595 18.1147C14.8777 18.0337 15.057 17.7848 15.057 17.4713V11.7353C15.042 11.2748 14.586 10.9747 14.1795 11.163C13.926 11.2807 13.8045 11.493 13.8045 11.7765V14.625ZM17.625 11.7255V7.25775C17.6242 6.79725 17.1765 6.4875 16.764 6.65925C16.5195 6.76125 16.374 6.9915 16.374 7.28025V16.1625L16.3748 16.2195C16.3853 16.6042 16.7528 16.899 17.1218 16.8187C17.2668 16.7874 17.3963 16.7064 17.4881 16.5897C17.5798 16.4731 17.628 16.3281 17.6243 16.1797V11.7248L17.625 11.7255ZM7.62525 11.7188V8.70975C7.62525 8.21775 7.62825 7.72575 7.6245 7.2345C7.62394 7.13918 7.60161 7.04525 7.55921 6.95989C7.5168 6.87452 7.45545 6.79997 7.37983 6.74194C7.30422 6.68391 7.21634 6.64392 7.12291 6.62504C7.02948 6.60616 6.93297 6.60888 6.84075 6.633C6.55875 6.711 6.37575 6.96 6.37575 7.26675L6.375 16.1782V16.218C6.3855 16.6118 6.7605 16.9072 7.13625 16.818C7.431 16.7475 7.62525 16.4955 7.62525 16.1797V11.718V11.7188Z" fill="black"/>
</svg>
