<svg width="48" height="48" viewBox="0 0 24 24" fill="none" xmlns="http://www.w3.org/2000/svg">
<path fill-rule="evenodd" clip-rule="evenodd" d="M12 24C5.37225 24 0 18.6277 0 12C0 5.37225 5.37225 0 12 0C18.6277 0 24 5.37225 24 12C24 18.6277 18.6277 24 12 24ZM11.145 8.64525C10.9065 8.70975 10.8113 8.961 10.7003 9.1635C9.76275 10.953 8.81025 12.7335 7.87275 14.5065C7.81356 14.605 7.78854 14.7203 7.80156 14.8345C7.81458 14.9487 7.86491 15.0553 7.94475 15.138C8.127 15.3405 8.41275 15.2677 8.65125 15.2842C8.89725 15.2842 9.21525 15.324 9.366 15.0735C9.67575 14.523 9.94575 13.9402 10.2555 13.3815C10.4377 13.041 10.986 13.098 11.1128 13.4542C11.3273 13.9965 11.5028 14.5635 11.7248 15.1058C11.8748 15.462 12.423 15.462 12.5903 15.1223C13.5908 13.2518 14.5987 11.3895 15.5992 9.51975C15.8062 9.204 15.5363 8.74275 15.171 8.76675C14.8215 8.799 14.361 8.637 14.106 8.96925C13.797 9.50325 13.5435 10.062 13.2255 10.5885C13.035 10.8795 12.5505 10.839 12.408 10.5233C12.1688 9.9975 11.9625 9.45525 11.733 8.92875C11.637 8.70225 11.3752 8.5725 11.145 8.64525V8.64525ZM7.87275 8.78325C7.6905 8.79075 7.5555 8.94525 7.476 9.09825C6.507 10.9207 5.53875 12.7417 4.56975 14.5552C4.3635 14.8552 4.64925 15.3 4.9905 15.2842C5.268 15.2842 5.5545 15.3083 5.832 15.2678C6.0705 15.2033 6.1575 14.9437 6.26925 14.7502C7.19775 13.0005 8.13525 11.2523 9.0645 9.49575C9.2145 9.21225 9.0165 8.8155 8.70675 8.78325C8.42899 8.76705 8.15051 8.76705 7.87275 8.78325V8.78325ZM17.7277 8.799C17.5372 8.86425 17.4577 9.07425 17.3707 9.23625C17.2192 9.552 17.0287 9.85125 16.8937 10.1753C16.7437 10.5803 17.259 10.9927 17.6085 10.7505C18.1643 10.41 18.7043 10.038 19.2525 9.69C19.5225 9.552 19.5863 9.1395 19.3718 8.9205C19.197 8.7105 18.8947 8.7585 18.657 8.75025C18.3472 8.775 18.0292 8.70975 17.7277 8.799ZM15.099 13.6403C14.9407 13.713 14.8687 13.8997 14.7975 14.0527C14.7022 14.2552 14.583 14.442 14.5035 14.6528C14.3925 14.9438 14.631 15.3 14.9325 15.3C15.5362 15.3075 16.1475 15.3 16.7587 15.3C17.0445 15.324 17.2912 15.0413 17.259 14.7495C17.2515 14.5313 17.061 14.3775 16.878 14.2965C16.449 14.094 16.0282 13.8667 15.6075 13.6567C15.4567 13.5757 15.258 13.5435 15.099 13.6403V13.6403Z" fill="black"/>
</svg>
