<svg width="24" height="24" viewBox="0 0 24 24" fill="none" xmlns="http://www.w3.org/2000/svg">
<path d="M12 24C18.6274 24 24 18.6274 24 12C24 5.37258 18.6274 0 12 0C5.37258 0 0 5.37258 0 12C0 18.6274 5.37258 24 12 24Z" fill="#DF1A14"/>
<path d="M11.145 8.64526C11.3752 8.57251 11.637 8.70226 11.7322 8.92876C11.9625 9.45526 12.1687 9.99751 12.4072 10.5233C12.5497 10.839 13.035 10.8795 13.2247 10.5885C13.5427 10.062 13.797 9.50326 14.1067 8.96851C14.361 8.63701 14.8215 8.79901 15.171 8.76676C15.5362 8.74276 15.8062 9.20401 15.5992 9.51976C14.5987 11.3895 13.5907 13.2518 12.5902 15.1223C12.423 15.462 11.8755 15.462 11.7247 15.1058C11.502 14.5635 11.3272 13.9965 11.1127 13.4543C10.9852 13.098 10.4377 13.0418 10.2555 13.3815C9.94574 13.9403 9.67574 14.523 9.36599 15.0735C9.21524 15.324 8.89724 15.2835 8.65124 15.2835C8.41274 15.2678 8.12699 15.3405 7.94474 15.138C7.8649 15.0554 7.81457 14.9487 7.80155 14.8345C7.78853 14.7203 7.81356 14.605 7.87274 14.5065C8.81024 12.7335 9.76274 10.953 10.7002 9.16351C10.8112 8.96101 10.9065 8.70976 11.145 8.64601V8.64526ZM7.87274 8.78326C8.15051 8.76706 8.42898 8.76706 8.70674 8.78326C9.01649 8.81551 9.21524 9.21226 9.06449 9.49576C8.13449 11.2523 7.19774 13.0005 6.26924 14.7495C6.15749 14.9445 6.07049 15.2033 5.83199 15.267C5.55449 15.3083 5.26874 15.2843 4.99049 15.2843C4.64924 15.3 4.36349 14.8545 4.56974 14.5553C5.53874 12.7418 6.50699 10.92 7.47599 9.09901C7.55549 8.94526 7.69049 8.79151 7.87349 8.78326H7.87274ZM17.7277 8.79901C18.0292 8.70976 18.3472 8.77501 18.657 8.75026C18.8947 8.75851 19.197 8.70976 19.3717 8.92051C19.5862 9.13951 19.5217 9.55201 19.2517 9.69001C18.7042 10.038 18.1642 10.41 17.6092 10.7505C17.259 10.9928 16.743 10.5803 16.8937 10.1753C17.0287 9.85126 17.2192 9.55276 17.3707 9.23626C17.4577 9.07426 17.5372 8.86426 17.7277 8.79901V8.79901ZM15.099 13.6403C15.258 13.5428 15.4567 13.5758 15.6075 13.6568C16.0282 13.8668 16.449 14.094 16.878 14.2965C17.061 14.3775 17.2515 14.5313 17.259 14.7495C17.2912 15.0413 17.0445 15.324 16.7587 15.3C16.1475 15.3 15.5362 15.3075 14.9325 15.3C14.631 15.3 14.3925 14.9438 14.5035 14.6528C14.583 14.442 14.7022 14.2553 14.7975 14.0528C14.8687 13.8998 14.94 13.713 15.099 13.6403Z" fill="white"/>
</svg>
