<svg width="48" height="48" viewBox="0 0 24 24" fill="none" xmlns="http://www.w3.org/2000/svg">
<path fill-rule="evenodd" clip-rule="evenodd" d="M12 24C5.37225 24 0 18.6277 0 12C0 5.37225 5.37225 0 12 0C18.6277 0 24 5.37225 24 12C24 18.6277 18.6277 24 12 24ZM10.0845 9.21525C10.6538 9.21525 11.1158 8.7645 11.1158 8.20875C11.1158 7.65225 10.6538 7.2015 10.0845 7.2015C9.5145 7.2015 9.05325 7.65225 9.05325 8.20875C9.05325 8.7645 9.5145 9.21525 10.0845 9.21525ZM13.0297 8.06475C13.5997 8.06475 14.061 7.614 14.061 7.05825C14.061 6.50175 13.5997 6.051 13.0297 6.051C12.4605 6.051 11.9985 6.50175 11.9985 7.05825C11.9985 7.614 12.4605 8.06475 13.0297 8.06475ZM14.2095 14.9685C14.7787 14.9685 15.2407 14.5185 15.2407 13.962C15.2407 13.4055 14.7787 12.9548 14.2095 12.9548C13.6395 12.9548 13.1782 13.4055 13.1782 13.962C13.1782 14.5185 13.6395 14.9685 14.2095 14.9685ZM4.3395 13.53C4.41593 13.5309 4.49179 13.5167 4.56274 13.4883C4.63369 13.4599 4.69835 13.4177 4.75302 13.3643C4.8077 13.3109 4.85131 13.2472 4.88138 13.177C4.91144 13.1067 4.92737 13.0312 4.92825 12.9548C4.92825 12.6375 4.66425 12.3795 4.33875 12.3795C4.01325 12.3795 3.75 12.6375 3.75 12.9548C3.75 13.2728 4.014 13.53 4.33875 13.53H4.3395ZM5.9595 17.271C6.20325 17.271 6.402 17.0775 6.402 16.839C6.402 16.6005 6.20325 16.4078 5.9595 16.4078C5.71575 16.4078 5.517 16.6005 5.517 16.839C5.517 17.0775 5.715 17.271 5.9595 17.271ZM10.6732 20.1473C10.9177 20.1473 11.1158 19.9538 11.1158 19.7153C11.1158 19.4768 10.9177 19.284 10.6732 19.284C10.4287 19.284 10.2307 19.4768 10.2307 19.7153C10.2307 19.9538 10.4287 20.1473 10.6732 20.1473ZM18.3345 17.5582C18.5782 17.5582 18.777 17.3647 18.777 17.1262C18.777 16.8877 18.5782 16.6943 18.3345 16.6943C18.09 16.6943 17.892 16.8877 17.892 17.1262C17.892 17.3647 18.09 17.5582 18.3345 17.5582ZM13.62 16.6957C13.8645 16.6957 14.0625 16.5022 14.0625 16.2637C14.0625 16.0252 13.8645 15.8325 13.62 15.8325C13.3755 15.8325 13.1775 16.0252 13.1775 16.2637C13.1775 16.5022 13.3762 16.6957 13.62 16.6957ZM16.272 14.682C16.5157 14.682 16.7145 14.4885 16.7145 14.25C16.7145 14.0115 16.5157 13.8187 16.272 13.8187C16.0275 13.8187 15.8295 14.0115 15.8295 14.25C15.8295 14.4885 16.0275 14.682 16.272 14.682ZM13.1782 20.1473C13.503 20.1473 13.767 19.8893 13.767 19.572C13.767 19.2548 13.503 18.9968 13.1782 18.9968C12.8527 18.9968 12.5887 19.254 12.5887 19.572C12.5887 19.89 12.8527 20.1473 13.1782 20.1473ZM15.8295 12.9548C15.9059 12.9556 15.9818 12.9415 16.0527 12.913C16.1237 12.8846 16.1884 12.8425 16.243 12.7891C16.2977 12.7357 16.3413 12.672 16.3714 12.6017C16.4014 12.5314 16.4174 12.4559 16.4183 12.3795C16.4174 12.3031 16.4014 12.2276 16.3714 12.1573C16.3413 12.087 16.2977 12.0233 16.243 11.9699C16.1884 11.9165 16.1237 11.8744 16.0527 11.846C15.9818 11.8175 15.9059 11.8034 15.8295 11.8043C15.7531 11.8034 15.6772 11.8175 15.6063 11.846C15.5353 11.8744 15.4706 11.9165 15.416 11.9699C15.3613 12.0233 15.3177 12.087 15.2876 12.1573C15.2576 12.2276 15.2416 12.3031 15.2407 12.3795C15.2407 12.6975 15.504 12.9548 15.8295 12.9548ZM16.7145 18.7087C16.7909 18.7096 16.8668 18.6955 16.9377 18.667C17.0087 18.6386 17.0734 18.5965 17.128 18.5431C17.1827 18.4897 17.2263 18.426 17.2564 18.3557C17.2864 18.2854 17.3024 18.2099 17.3032 18.1335C17.3024 18.057 17.2864 17.9814 17.2563 17.9111C17.2262 17.8408 17.1825 17.7771 17.1278 17.7237C17.073 17.6702 17.0083 17.6281 16.9372 17.5997C16.8662 17.5714 16.7902 17.5573 16.7137 17.5582C16.6373 17.5574 16.5615 17.5715 16.4905 17.6C16.4196 17.6284 16.3549 17.6705 16.3002 17.7239C16.2456 17.7773 16.2019 17.841 16.1719 17.9113C16.1418 17.9816 16.1259 18.0571 16.125 18.1335C16.125 18.4507 16.389 18.7087 16.7137 18.7087H16.7145ZM5.07375 15.8325C5.481 15.8325 5.81025 15.51 5.81025 15.1132C5.81025 14.7165 5.48025 14.3948 5.07375 14.3948C4.66725 14.3948 4.33725 14.7172 4.33725 15.1132C4.33725 15.5092 4.66725 15.8325 5.07375 15.8325ZM12.1462 18.7087C12.7155 18.7087 13.1775 18.258 13.1775 17.7015C13.1775 17.145 12.7155 16.6943 12.1462 16.6943C11.5762 16.6943 11.115 17.1457 11.115 17.7015C11.115 18.2572 11.5762 18.7087 12.1462 18.7087ZM6.5475 13.8187C7.1175 13.8187 7.57875 13.3673 7.57875 12.8115C7.57875 12.2558 7.11675 11.8043 6.5475 11.8043C5.97825 11.8043 5.51625 12.255 5.51625 12.8115C5.51625 13.368 5.9775 13.8187 6.5475 13.8187ZM12.1462 16.119C12.5527 16.119 12.8828 15.7973 12.8828 15.4005C12.8828 15.0038 12.5527 14.682 12.1462 14.682C11.739 14.682 11.409 15.0038 11.409 15.4005C11.409 15.7973 11.739 16.119 12.1462 16.119ZM8.61 9.792C8.8545 9.792 9.0525 9.5985 9.0525 9.36C9.0525 9.1215 8.8545 8.928 8.61 8.928C8.3655 8.928 8.1675 9.1215 8.1675 9.36C8.1675 9.5985 8.3655 9.792 8.61 9.792ZM11.409 11.517C11.8965 11.517 12.2925 11.1308 12.2925 10.6545C12.2925 10.1775 11.8972 9.7905 11.409 9.7905C10.9215 9.7905 10.5255 10.1775 10.5255 10.6537C10.5255 11.1307 10.9215 11.5178 11.409 11.5178V11.517ZM13.4715 12.3795C13.5479 12.3804 13.6238 12.3662 13.6947 12.3378C13.7657 12.3094 13.8304 12.2672 13.885 12.2138C13.9397 12.1604 13.9833 12.0967 14.0134 12.0265C14.0434 11.9562 14.0594 11.8807 14.0602 11.8043C14.0594 11.7278 14.0434 11.6523 14.0134 11.582C13.9833 11.5118 13.9397 11.4481 13.885 11.3947C13.8304 11.3413 13.7657 11.2991 13.6947 11.2707C13.6238 11.2423 13.5479 11.2281 13.4715 11.229C13.3951 11.2281 13.3192 11.2423 13.2483 11.2707C13.1773 11.2991 13.1126 11.3413 13.058 11.3947C13.0033 11.4481 12.9597 11.5118 12.9296 11.582C12.8996 11.6523 12.8836 11.7278 12.8828 11.8043C12.8828 12.1223 13.146 12.3795 13.4715 12.3795ZM14.5027 5.1885C14.7472 5.1885 14.9453 4.99575 14.9453 4.75725C14.9453 4.51875 14.7472 4.32525 14.5027 4.32525C14.2582 4.32525 14.0602 4.51875 14.0602 4.75725C14.0602 4.99575 14.2582 5.1885 14.5027 5.1885ZM12.4402 5.18775C12.5359 5.18904 12.6309 5.17144 12.7197 5.13598C12.8086 5.10051 12.8896 5.04786 12.9581 4.98105C13.0266 4.91424 13.0812 4.83458 13.1188 4.74663C13.1565 4.65868 13.1764 4.56417 13.1775 4.4685C13.1763 4.3729 13.1563 4.27846 13.1186 4.1906C13.0809 4.10273 13.0263 4.02316 12.9578 3.95643C12.8893 3.8897 12.8084 3.83712 12.7196 3.8017C12.6308 3.76628 12.5359 3.74871 12.4402 3.75C12.3447 3.74881 12.2499 3.76645 12.1612 3.80192C12.0724 3.83738 11.9916 3.88998 11.9232 3.9567C11.8548 4.02342 11.8002 4.10296 11.7626 4.19077C11.7249 4.27859 11.7049 4.37296 11.7037 4.4685C11.7037 4.866 12.0337 5.18775 12.4402 5.18775ZM12.8828 9.7905C13.2083 9.7905 13.4715 9.53325 13.4715 9.21525C13.4715 8.89725 13.2083 8.64 12.8828 8.64C12.5573 8.64 12.294 8.898 12.294 9.21525C12.294 9.5325 12.5573 9.7905 12.8828 9.7905ZM7.284 16.1205C7.7715 16.1205 8.1675 15.7343 8.1675 15.2573C8.1675 14.7803 7.77225 14.394 7.284 14.394C6.7965 14.394 6.4005 14.7802 6.4005 15.2565C6.4005 15.7342 6.7965 16.1205 7.284 16.1205ZM15.8287 16.983C16.3162 16.983 16.7123 16.596 16.7123 16.119C16.7123 15.6428 16.3162 15.2565 15.8287 15.2565C15.3412 15.2565 14.9453 15.6428 14.9453 16.119C14.9453 16.596 15.3405 16.983 15.8287 16.983ZM14.6512 18.9968C15.1387 18.9968 15.534 18.6097 15.534 18.1335C15.534 17.6565 15.1388 17.2695 14.6505 17.2695C14.1623 17.2695 13.767 17.6565 13.767 18.1335C13.767 18.6097 14.163 18.996 14.6505 18.996L14.6512 18.9968ZM7.7265 18.9968C8.2965 18.9968 8.75775 18.546 8.75775 17.9895C8.75775 17.433 8.29575 16.983 7.7265 16.983C7.1565 16.983 6.69525 17.433 6.69525 17.9895C6.69525 18.546 7.15725 18.9968 7.7265 18.9968ZM4.63275 11.5178C5.12025 11.5178 5.51625 11.1307 5.51625 10.6537C5.51625 10.1775 5.12025 9.79125 4.63275 9.79125C4.14525 9.79125 3.75 10.1775 3.75 10.653C3.75 11.13 4.14525 11.517 4.6335 11.517L4.63275 11.5178ZM9.0525 12.9548C9.7035 12.9548 10.2315 12.4403 10.2315 11.8043C10.2315 11.169 9.7035 10.6537 9.0525 10.6537C8.40075 10.6537 7.87275 11.169 7.87275 11.8043C7.87275 12.4403 8.40075 12.9548 9.0525 12.9548ZM15.24 11.2297C15.891 11.2297 16.419 10.7145 16.419 10.0785C16.419 9.44325 15.891 8.928 15.24 8.928C14.5882 8.928 14.0602 9.44325 14.0602 10.0785C14.0602 10.7145 14.5882 11.229 15.24 11.229V11.2297ZM18.48 16.1205C18.9675 16.1205 19.3635 15.7343 19.3635 15.2573C19.3635 14.7803 18.9682 14.394 18.48 14.394C17.9917 14.394 17.5965 14.7802 17.5965 15.2565C17.5965 15.7342 17.9925 16.1205 18.48 16.1205ZM19.365 12.6683C19.8525 12.6683 20.2477 12.2813 20.2477 11.8043C20.2477 11.328 19.8525 10.9417 19.365 10.9417C18.8767 10.9417 18.4815 11.328 18.4815 11.8043C18.4815 12.2813 18.8767 12.6683 19.365 12.6683ZM15.9765 8.64075C16.383 8.64075 16.713 8.31825 16.713 7.92075C16.713 7.52325 16.383 7.20225 15.9765 7.20225C15.5693 7.20225 15.24 7.52475 15.24 7.9215C15.24 8.31825 15.57 8.64 15.9765 8.64V8.64075ZM16.1227 6.339C16.4482 6.339 16.7123 6.08175 16.7123 5.76375C16.7123 5.44575 16.4482 5.1885 16.1227 5.1885C15.798 5.1885 15.534 5.4465 15.534 5.76375C15.534 6.081 15.798 6.339 16.1227 6.339ZM17.4487 6.91425C17.6932 6.91425 17.8912 6.72075 17.8912 6.483C17.8912 6.24525 17.6932 6.051 17.4487 6.051C17.2042 6.051 17.0062 6.2445 17.0062 6.483C17.0062 6.7215 17.2042 6.91425 17.4487 6.91425ZM19.8068 10.3672C20.0513 10.3672 20.2493 10.1737 20.2493 9.93525C20.2493 9.69675 20.0513 9.50325 19.8068 9.50325C19.5623 9.50325 19.3643 9.69675 19.3643 9.93525C19.3643 10.1737 19.563 10.3672 19.8068 10.3672ZM7.137 6.627C7.3815 6.627 7.5795 6.43425 7.5795 6.19575C7.5795 5.95725 7.3815 5.76375 7.137 5.76375C6.8925 5.76375 6.6945 5.95725 6.6945 6.19575C6.6945 6.43425 6.8925 6.627 7.137 6.627ZM6.54825 10.3672C6.79275 10.3672 6.99075 10.1737 6.99075 9.93525C6.99075 9.69675 6.79275 9.50325 6.54825 9.50325C6.30375 9.50325 6.10575 9.69675 6.10575 9.93525C6.10575 10.1737 6.30375 10.3672 6.54825 10.3672ZM7.72725 10.9425C7.97175 10.9425 8.16975 10.749 8.16975 10.5105C8.16975 10.272 7.97175 10.0785 7.72725 10.0785C7.48275 10.0785 7.28475 10.272 7.28475 10.5105C7.28475 10.749 7.48275 10.9425 7.72725 10.9425ZM9.1995 5.475C9.444 5.475 9.642 5.2815 9.642 5.043C9.642 4.8045 9.444 4.61175 9.1995 4.61175C8.955 4.61175 8.757 4.8045 8.757 5.043C8.757 5.2815 8.955 5.475 9.1995 5.475ZM19.8075 14.1068C20.052 14.1068 20.25 13.9132 20.25 13.6747C20.25 13.4362 20.052 13.2435 19.8075 13.2435C19.563 13.2435 19.365 13.4362 19.365 13.6747C19.365 13.9132 19.5637 14.1068 19.8075 14.1068ZM18.3345 9.50325C18.9037 9.50325 19.3657 9.05325 19.3657 8.49675C19.3657 7.94025 18.9037 7.4895 18.3345 7.4895C17.7645 7.4895 17.3032 7.94025 17.3032 8.49675C17.3032 9.05325 17.7645 9.50325 18.3345 9.50325ZM17.4495 11.8043C17.8568 11.8043 18.186 11.4825 18.186 11.0858C18.186 10.689 17.856 10.3672 17.4495 10.3672C17.043 10.3672 16.713 10.689 16.713 11.0858C16.713 11.4825 17.043 11.8043 17.4495 11.8043ZM7.4325 8.64C7.83975 8.64 8.16975 8.31825 8.16975 7.9215C8.16975 7.52475 7.83975 7.20225 7.4325 7.20225C7.026 7.20225 6.696 7.52475 6.696 7.9215C6.696 8.31825 7.026 8.64 7.4325 8.64ZM10.6725 6.62625C10.7681 6.62754 10.863 6.60997 10.9518 6.57455C11.0406 6.53913 11.1216 6.48655 11.1901 6.41982C11.2585 6.35309 11.3132 6.27352 11.3509 6.18565C11.3886 6.09779 11.4086 6.00335 11.4098 5.90775C11.4087 5.81215 11.3888 5.7177 11.3512 5.62979C11.3136 5.54189 11.259 5.46226 11.1906 5.39546C11.1222 5.32866 11.0413 5.276 10.9525 5.24049C10.8637 5.20498 10.7689 5.18731 10.6732 5.1885C10.5776 5.18721 10.4826 5.20481 10.3938 5.24027C10.3049 5.27574 10.2239 5.32839 10.1554 5.3952C10.0869 5.46201 10.0323 5.54167 9.99466 5.62962C9.95701 5.71757 9.93708 5.81208 9.936 5.90775C9.936 6.3045 10.266 6.62625 10.6732 6.62625H10.6725ZM8.7585 6.91425C9.084 6.91425 9.34725 6.657 9.34725 6.339C9.34725 6.021 9.084 5.76375 8.7585 5.76375C8.433 5.76375 8.16975 6.02175 8.16975 6.339C8.16975 6.65625 8.433 6.91425 8.7585 6.91425ZM5.517 9.21525C5.59343 9.21614 5.66929 9.20197 5.74024 9.17354C5.81119 9.14511 5.87585 9.10299 5.93052 9.04957C5.9852 8.99615 6.02881 8.93249 6.05887 8.86221C6.08894 8.79194 6.10487 8.71643 6.10575 8.64C6.10575 8.32275 5.8425 8.06475 5.517 8.06475C5.1915 8.06475 4.92825 8.32275 4.92825 8.64C4.92825 8.958 5.1915 9.21525 5.517 9.21525V9.21525ZM17.892 13.8187C17.9684 13.8196 18.0443 13.8055 18.1152 13.777C18.1862 13.7486 18.2509 13.7065 18.3055 13.6531C18.3602 13.5997 18.4038 13.536 18.4339 13.4657C18.4639 13.3954 18.4799 13.3199 18.4808 13.2435C18.4799 13.1671 18.4639 13.0916 18.4339 13.0213C18.4038 12.951 18.3602 12.8873 18.3055 12.8339C18.2509 12.7805 18.1862 12.7384 18.1152 12.71C18.0443 12.6815 17.9684 12.6674 17.892 12.6683C17.8156 12.6674 17.7397 12.6815 17.6688 12.71C17.5978 12.7384 17.5331 12.7805 17.4785 12.8339C17.4238 12.8873 17.3802 12.951 17.3501 13.0213C17.3201 13.0916 17.3041 13.1671 17.3032 13.2435C17.3032 13.5608 17.5665 13.8187 17.892 13.8187ZM11.5575 14.1068C12.1275 14.1068 12.5887 13.656 12.5887 13.0995C12.5887 12.543 12.1275 12.093 11.5575 12.093C10.9875 12.093 10.5262 12.543 10.5262 13.0995C10.5262 13.656 10.9882 14.1068 11.5575 14.1068V14.1068ZM9.642 14.682C9.71843 14.6829 9.79429 14.6687 9.86524 14.6403C9.93619 14.6119 10.0009 14.5697 10.0555 14.5163C10.1102 14.4629 10.1538 14.3992 10.1839 14.329C10.2139 14.2587 10.2299 14.1832 10.2307 14.1068C10.2299 14.0303 10.2139 13.9548 10.1839 13.8845C10.1538 13.8143 10.1102 13.7506 10.0555 13.6972C10.0009 13.6438 9.93619 13.6016 9.86524 13.5732C9.79429 13.5448 9.71843 13.5306 9.642 13.5315C9.56557 13.5306 9.48971 13.5448 9.41876 13.5732C9.34781 13.6016 9.28315 13.6438 9.22848 13.6972C9.1738 13.7506 9.13019 13.8143 9.10013 13.8845C9.07006 13.9548 9.05413 14.0303 9.05325 14.1068C9.05325 14.424 9.3165 14.682 9.642 14.682ZM9.936 16.983C10.4243 16.983 10.8195 16.596 10.8195 16.119C10.8195 15.6428 10.4243 15.2565 9.936 15.2565C9.44775 15.2565 9.05325 15.6428 9.05325 16.119C9.05325 16.596 9.4485 16.983 9.936 16.983ZM9.936 18.708C10.0124 18.709 10.0883 18.6949 10.1593 18.6666C10.2303 18.6382 10.295 18.5962 10.3497 18.5429C10.4045 18.4895 10.4482 18.4259 10.4783 18.3557C10.5085 18.2854 10.5245 18.2099 10.5255 18.1335C10.5246 18.057 10.5087 17.9814 10.4786 17.9111C10.4484 17.8408 10.4048 17.7771 10.35 17.7237C10.2953 17.6702 10.2305 17.6281 10.1595 17.5997C10.0884 17.5714 10.0125 17.5573 9.936 17.5582C9.85957 17.5574 9.78371 17.5715 9.71276 17.6C9.64181 17.6284 9.57715 17.6705 9.52248 17.7239C9.4678 17.7773 9.42419 17.841 9.39412 17.9113C9.36406 17.9816 9.34813 18.0571 9.34725 18.1335C9.34725 18.4507 9.61125 18.7087 9.936 18.7087V18.708Z" fill="black"/>
<path opacity="0.5" d="M9.0525 12.9547C8.4015 12.9547 7.8735 12.4402 7.8735 11.8042C7.8735 11.169 8.4015 10.6537 9.05325 10.6537C9.70425 10.6537 10.2322 11.169 10.2322 11.8042C10.2322 12.4402 9.70425 12.9547 9.05325 12.9547H9.0525ZM15.24 11.2297C14.589 11.2297 14.061 10.7145 14.061 10.0785C14.061 9.44325 14.589 8.928 15.2407 8.928C15.8917 8.928 16.4197 9.44325 16.4197 10.0785C16.4197 10.7145 15.8917 11.229 15.2407 11.229L15.24 11.2297ZM18.4807 16.1205C17.9932 16.1205 17.5972 15.7342 17.5972 15.2572C17.5972 14.7802 17.9932 14.394 18.4807 14.394C18.9682 14.394 19.3642 14.7802 19.3642 15.2565C19.3642 15.7342 18.969 16.1205 18.4807 16.1205ZM19.3657 12.6682C19.251 12.6695 19.1371 12.6482 19.0306 12.6055C18.9241 12.5628 18.8271 12.4995 18.745 12.4192C18.663 12.339 18.5976 12.2434 18.5525 12.1379C18.5074 12.0324 18.4835 11.919 18.4822 11.8042C18.4822 11.328 18.8775 10.9417 19.3657 10.9417C19.8532 10.9417 20.2485 11.328 20.2485 11.8042C20.2485 12.2812 19.8532 12.6682 19.3657 12.6682ZM15.9772 8.64075C15.57 8.64075 15.2407 8.31825 15.2407 7.92075C15.2407 7.52325 15.5707 7.20225 15.9772 7.20225C16.3837 7.20225 16.7137 7.52475 16.7137 7.9215C16.7137 8.31825 16.3837 8.64 15.9772 8.64V8.64075ZM16.1235 6.339C15.7987 6.339 15.5347 6.08175 15.5347 5.76375C15.5347 5.44575 15.7987 5.1885 16.1235 5.1885C16.449 5.1885 16.713 5.4465 16.713 5.76375C16.713 6.081 16.449 6.339 16.1235 6.339ZM17.4495 6.91425C17.205 6.91425 17.007 6.72075 17.007 6.483C17.007 6.24525 17.205 6.051 17.4495 6.051C17.694 6.051 17.892 6.2445 17.892 6.483C17.892 6.7215 17.694 6.91425 17.4495 6.91425ZM19.8075 10.3672C19.5637 10.3672 19.365 10.1737 19.365 9.93525C19.365 9.69675 19.5637 9.50325 19.8075 9.50325C20.0512 9.50325 20.25 9.69675 20.25 9.93525C20.25 10.1737 20.052 10.3672 19.8075 10.3672ZM7.137 6.627C6.8925 6.627 6.6945 6.43425 6.6945 6.19575C6.6945 5.95725 6.8925 5.76375 7.137 5.76375C7.3815 5.76375 7.5795 5.95725 7.5795 6.19575C7.5795 6.43425 7.3815 6.627 7.137 6.627ZM6.54825 10.3672C6.30375 10.3672 6.10575 10.1737 6.10575 9.93525C6.10575 9.69675 6.30375 9.50325 6.54825 9.50325C6.79275 9.50325 6.99075 9.69675 6.99075 9.93525C6.99075 10.1737 6.79275 10.3672 6.54825 10.3672ZM7.72725 10.9425C7.48275 10.9425 7.28475 10.749 7.28475 10.5105C7.28475 10.272 7.48275 10.0785 7.72725 10.0785C7.97175 10.0785 8.16975 10.272 8.16975 10.5105C8.16975 10.749 7.97175 10.9425 7.72725 10.9425ZM9.1995 5.475C8.955 5.475 8.757 5.2815 8.757 5.043C8.757 4.8045 8.955 4.61175 9.1995 4.61175C9.444 4.61175 9.642 4.8045 9.642 5.043C9.642 5.2815 9.444 5.475 9.1995 5.475ZM19.8075 14.1067C19.5637 14.1067 19.365 13.9132 19.365 13.6747C19.365 13.4362 19.5637 13.2435 19.8075 13.2435C20.0512 13.2435 20.25 13.4362 20.25 13.6747C20.25 13.9132 20.052 14.1067 19.8075 14.1067ZM18.3345 9.50325C17.7645 9.50325 17.3032 9.05325 17.3032 8.49675C17.3032 7.94025 17.7645 7.4895 18.3345 7.4895C18.9037 7.4895 19.3657 7.94025 19.3657 8.49675C19.3657 9.05325 18.9037 9.50325 18.3345 9.50325ZM17.4495 11.8042C17.043 11.8042 16.713 11.4825 16.713 11.0857C16.713 10.689 17.043 10.3672 17.4495 10.3672C17.8567 10.3672 18.186 10.689 18.186 11.0857C18.186 11.4825 17.856 11.8042 17.4495 11.8042ZM7.4325 8.64C7.026 8.64 6.696 8.31825 6.696 7.9215C6.696 7.52475 7.026 7.20225 7.4325 7.20225C7.83975 7.20225 8.16975 7.52475 8.16975 7.9215C8.16975 8.31825 7.83975 8.64 7.4325 8.64ZM10.6725 6.62625C10.577 6.62744 10.4821 6.6098 10.3934 6.57433C10.3047 6.53886 10.2238 6.48627 10.1554 6.41955C10.087 6.35283 10.0325 6.27329 9.99481 6.18547C9.95716 6.09766 9.93717 6.00329 9.936 5.90775C9.936 5.51025 10.266 5.1885 10.6732 5.1885C10.7689 5.18731 10.8637 5.20498 10.9525 5.24049C11.0413 5.276 11.1222 5.32866 11.1906 5.39546C11.259 5.46226 11.3136 5.54189 11.3512 5.62979C11.3888 5.71769 11.4087 5.81215 11.4097 5.90775C11.4086 6.00329 11.3886 6.09766 11.3509 6.18547C11.3133 6.27329 11.2587 6.35283 11.1903 6.41955C11.1219 6.48627 11.0411 6.53886 10.9523 6.57433C10.8636 6.6098 10.7688 6.62744 10.6732 6.62625H10.6725ZM8.7585 6.91425C8.433 6.91425 8.16975 6.657 8.16975 6.339C8.16975 6.021 8.433 5.76375 8.7585 5.76375C9.084 5.76375 9.34725 6.02175 9.34725 6.339C9.34725 6.65625 9.084 6.91425 8.7585 6.91425ZM5.517 9.21525C5.44057 9.21614 5.36471 9.20197 5.29376 9.17354C5.22281 9.14511 5.15815 9.10299 5.10348 9.04957C5.0488 8.99615 5.00519 8.93249 4.97512 8.86221C4.94506 8.79194 4.92913 8.71643 4.92825 8.64C4.92825 8.32275 5.1915 8.06475 5.517 8.06475C5.8425 8.06475 6.10575 8.32275 6.10575 8.64C6.10487 8.71643 6.08894 8.79194 6.05887 8.86221C6.02881 8.93249 5.9852 8.99615 5.93052 9.04957C5.87585 9.10299 5.81119 9.14511 5.74024 9.17354C5.66929 9.20197 5.59343 9.21614 5.517 9.21525V9.21525ZM17.892 13.8187C17.8156 13.8196 17.7397 13.8055 17.6688 13.777C17.5978 13.7486 17.5331 13.7065 17.4785 13.6531C17.4238 13.5997 17.3802 13.536 17.3501 13.4657C17.3201 13.3954 17.3041 13.3199 17.3032 13.2435C17.3032 12.9255 17.5665 12.6682 17.892 12.6682C18.2175 12.6682 18.4807 12.9255 18.4807 13.2435C18.4799 13.3199 18.4639 13.3954 18.4339 13.4657C18.4038 13.536 18.3602 13.5997 18.3055 13.6531C18.2509 13.7065 18.1862 13.7486 18.1152 13.777C18.0443 13.8055 17.9684 13.8196 17.892 13.8187V13.8187ZM11.5575 14.1067C10.9875 14.1067 10.5262 13.656 10.5262 13.0995C10.5262 12.543 10.9882 12.093 11.5575 12.093C12.1275 12.093 12.5887 12.543 12.5887 13.0995C12.5887 13.656 12.1275 14.1067 11.5575 14.1067V14.1067ZM9.642 14.682C9.56557 14.6829 9.48971 14.6687 9.41876 14.6403C9.34781 14.6119 9.28315 14.5697 9.22848 14.5163C9.1738 14.4629 9.13019 14.3992 9.10012 14.329C9.07006 14.2587 9.05413 14.1832 9.05325 14.1067C9.05325 13.7887 9.3165 13.5315 9.642 13.5315C9.9675 13.5315 10.2307 13.7887 10.2307 14.1067C10.2299 14.1832 10.2139 14.2587 10.1839 14.329C10.1538 14.3992 10.1102 14.4629 10.0555 14.5163C10.0009 14.5697 9.93619 14.6119 9.86524 14.6403C9.79429 14.6687 9.71843 14.6829 9.642 14.682ZM9.936 16.983C9.4485 16.983 9.05325 16.596 9.05325 16.119C9.05325 15.6427 9.4485 15.2565 9.936 15.2565C10.4235 15.2565 10.8195 15.6427 10.8195 16.119C10.8195 16.596 10.4242 16.983 9.936 16.983ZM9.936 18.708C9.78177 18.7098 9.63313 18.6503 9.52274 18.5426C9.41235 18.4349 9.34923 18.2877 9.34725 18.1335C9.34725 17.8155 9.61125 17.5582 9.936 17.5582C10.2615 17.5582 10.5255 17.8155 10.5255 18.1335C10.5246 18.21 10.5087 18.2856 10.4786 18.3559C10.4484 18.4262 10.4048 18.4899 10.35 18.5433C10.2953 18.5968 10.2305 18.6389 10.1595 18.6673C10.0884 18.6956 10.0125 18.7097 9.936 18.7087V18.708Z" fill="black"/>
</svg>
