<svg width="24" height="24" viewBox="0 0 24 24" fill="none" xmlns="http://www.w3.org/2000/svg">
<path d="M12 24C18.6274 24 24 18.6274 24 12C24 5.37258 18.6274 0 12 0C5.37258 0 0 5.37258 0 12C0 18.6274 5.37258 24 12 24Z" fill="#B2A3F6"/>
<path d="M10.0845 9.21525C9.5145 9.21525 9.05325 8.7645 9.05325 8.20875C9.05325 7.653 9.5145 7.20151 10.0845 7.20151C10.6538 7.20151 11.1158 7.65225 11.1158 8.20875C11.1158 8.76525 10.6538 9.21525 10.0845 9.21525ZM13.0298 8.06476C12.4605 8.06476 11.9985 7.61401 11.9985 7.05826C11.9985 6.50176 12.4605 6.05101 13.0298 6.05101C13.5998 6.05101 14.061 6.50176 14.061 7.05826C14.061 7.61401 13.5998 8.06476 13.0298 8.06476ZM14.2095 14.9685C13.6395 14.9685 13.1783 14.5185 13.1783 13.962C13.1783 13.4055 13.6395 12.9548 14.2095 12.9548C14.7788 12.9548 15.2408 13.4055 15.2408 13.962C15.2408 14.5185 14.7788 14.9685 14.2095 14.9685ZM4.3395 13.53C4.26301 13.531 4.18707 13.5169 4.11603 13.4885C4.04499 13.4601 3.98024 13.418 3.92549 13.3646C3.87074 13.3112 3.82706 13.2475 3.79695 13.1771C3.76684 13.1068 3.75088 13.0313 3.75 12.9548C3.75 12.6375 4.014 12.3795 4.33875 12.3795C4.6635 12.3795 4.92825 12.6375 4.92825 12.9548C4.92737 13.0313 4.91142 13.1068 4.88131 13.1771C4.85119 13.2475 4.80751 13.3112 4.75276 13.3646C4.69801 13.418 4.63326 13.4601 4.56222 13.4885C4.49118 13.5169 4.41525 13.531 4.33875 13.53H4.3395ZM5.9595 17.271C5.90208 17.2717 5.84508 17.2611 5.79177 17.2397C5.73845 17.2184 5.68986 17.1868 5.64877 17.1467C5.60768 17.1065 5.5749 17.0587 5.55229 17.0059C5.52968 16.9532 5.51769 16.8964 5.517 16.839C5.517 16.6005 5.715 16.4078 5.9595 16.4078C6.204 16.4078 6.402 16.6005 6.402 16.839C6.40132 16.8964 6.38933 16.9532 6.36672 17.0059C6.34411 17.0587 6.31132 17.1065 6.27023 17.1467C6.22914 17.1868 6.18055 17.2184 6.12723 17.2397C6.07392 17.2611 6.01692 17.2717 5.9595 17.271ZM10.6733 20.1473C10.4288 20.1473 10.2308 19.9538 10.2308 19.7153C10.2308 19.4768 10.4288 19.284 10.6733 19.284C10.9178 19.284 11.1158 19.4768 11.1158 19.7153C11.1158 19.9538 10.9178 20.1473 10.6733 20.1473ZM18.3345 17.5583C18.09 17.5583 17.892 17.3648 17.892 17.1263C17.892 16.8878 18.09 16.6943 18.3345 16.6943C18.5783 16.6943 18.777 16.8878 18.777 17.1263C18.777 17.3648 18.5783 17.5583 18.3345 17.5583ZM13.62 16.6958C13.5626 16.6964 13.5056 16.6858 13.4523 16.6645C13.399 16.6432 13.3504 16.6115 13.3093 16.5714C13.2682 16.5313 13.2354 16.4835 13.2128 16.4307C13.1902 16.3779 13.1782 16.3212 13.1775 16.2638C13.1775 16.0253 13.3763 15.8325 13.62 15.8325C13.8638 15.8325 14.0625 16.0253 14.0625 16.2638C14.0618 16.3212 14.0498 16.3779 14.0272 16.4307C14.0046 16.4835 13.9718 16.5313 13.9307 16.5714C13.8896 16.6115 13.841 16.6432 13.7877 16.6645C13.7344 16.6858 13.6774 16.6964 13.62 16.6958ZM16.272 14.682C16.0275 14.682 15.8295 14.4885 15.8295 14.25C15.8295 14.0115 16.0275 13.8188 16.272 13.8188C16.5158 13.8188 16.7145 14.0115 16.7145 14.25C16.7145 14.4885 16.5158 14.682 16.272 14.682ZM13.1783 20.1473C12.8528 20.1473 12.5888 19.8893 12.5888 19.572C12.5888 19.2548 12.8528 18.9968 13.1783 18.9968C13.503 18.9968 13.767 19.254 13.767 19.572C13.767 19.89 13.503 20.1473 13.1783 20.1473ZM15.8295 12.9548C15.7531 12.9556 15.6772 12.9415 15.6063 12.913C15.5353 12.8846 15.4706 12.8425 15.416 12.7891C15.3613 12.7357 15.3177 12.672 15.2876 12.6017C15.2576 12.5314 15.2416 12.4559 15.2408 12.3795C15.2408 12.0623 15.504 11.8043 15.8295 11.8043C16.155 11.8043 16.4183 12.0623 16.4183 12.3795C16.4174 12.4559 16.4014 12.5314 16.3714 12.6017C16.3413 12.672 16.2977 12.7357 16.243 12.7891C16.1884 12.8425 16.1237 12.8846 16.0527 12.913C15.9818 12.9415 15.9059 12.9556 15.8295 12.9548ZM16.7145 18.7088C16.638 18.7097 16.5621 18.6956 16.491 18.6673C16.42 18.6389 16.3552 18.5968 16.3005 18.5433C16.2457 18.4899 16.2021 18.4262 16.1719 18.3559C16.1418 18.2856 16.1259 18.21 16.125 18.1335C16.125 17.8155 16.389 17.5583 16.7138 17.5583C17.0393 17.5583 17.3033 17.8155 17.3033 18.1335C17.3024 18.21 17.2864 18.2856 17.2563 18.3559C17.2262 18.4262 17.1825 18.4899 17.1278 18.5433C17.073 18.5968 17.0083 18.6389 16.9372 18.6673C16.8662 18.6956 16.7902 18.7097 16.7138 18.7088H16.7145ZM5.07375 15.8325C4.66725 15.8325 4.33725 15.51 4.33725 15.1133C4.33725 14.7165 4.66725 14.3948 5.07375 14.3948C5.48025 14.3948 5.81025 14.7173 5.81025 15.1133C5.81025 15.5093 5.48025 15.8325 5.07375 15.8325ZM12.1463 18.7088C11.5763 18.7088 11.115 18.258 11.115 17.7015C11.115 17.145 11.5763 16.6943 12.1463 16.6943C12.7155 16.6943 13.1775 17.1458 13.1775 17.7015C13.1775 18.2573 12.7155 18.7088 12.1463 18.7088ZM6.5475 13.8188C5.9775 13.8188 5.51625 13.3673 5.51625 12.8115C5.51625 12.2558 5.9775 11.8043 6.5475 11.8043C7.1175 11.8043 7.57875 12.255 7.57875 12.8115C7.57875 13.368 7.11675 13.8188 6.5475 13.8188ZM12.1463 16.119C11.739 16.119 11.409 15.7973 11.409 15.4005C11.409 15.0038 11.739 14.682 12.1463 14.682C12.5528 14.682 12.8828 15.0038 12.8828 15.4005C12.8828 15.7973 12.5528 16.119 12.1463 16.119ZM8.61 9.792C8.3655 9.792 8.1675 9.5985 8.1675 9.36C8.1675 9.1215 8.3655 8.92801 8.61 8.92801C8.8545 8.92801 9.0525 9.1215 9.0525 9.36C9.0525 9.5985 8.8545 9.792 8.61 9.792ZM11.409 11.517C10.9215 11.517 10.5255 11.1308 10.5255 10.6545C10.5255 10.1775 10.9215 9.7905 11.409 9.7905C11.8965 9.7905 12.2925 10.1775 12.2925 10.6538C12.2925 11.1308 11.8973 11.5178 11.409 11.5178V11.517ZM13.4715 12.3795C13.3951 12.3804 13.3192 12.3662 13.2483 12.3378C13.1773 12.3094 13.1126 12.2672 13.058 12.2138C13.0033 12.1604 12.9597 12.0967 12.9296 12.0265C12.8996 11.9562 12.8836 11.8807 12.8828 11.8043C12.8828 11.487 13.146 11.229 13.4715 11.229C13.797 11.229 14.0603 11.487 14.0603 11.8043C14.0594 11.8807 14.0434 11.9562 14.0134 12.0265C13.9833 12.0967 13.9397 12.1604 13.885 12.2138C13.8304 12.2672 13.7657 12.3094 13.6947 12.3378C13.6238 12.3662 13.5479 12.3804 13.4715 12.3795V12.3795ZM14.5028 5.18851C14.2583 5.18851 14.0603 4.99575 14.0603 4.75725C14.0603 4.51875 14.2583 4.32526 14.5028 4.32526C14.7473 4.32526 14.9453 4.51875 14.9453 4.75725C14.9453 4.99575 14.7473 5.18851 14.5028 5.18851ZM12.4403 5.18775C12.3447 5.18894 12.2498 5.17128 12.161 5.13576C12.0722 5.10025 11.9913 5.04759 11.9229 4.98079C11.8545 4.91399 11.8 4.83436 11.7623 4.74646C11.7247 4.65856 11.7048 4.56411 11.7038 4.46851C11.7049 4.37297 11.7249 4.27859 11.7626 4.19078C11.8002 4.10296 11.8548 4.02342 11.9232 3.9567C11.9916 3.88998 12.0724 3.83739 12.1612 3.80192C12.2499 3.76646 12.3447 3.74882 12.4403 3.75001C12.5359 3.74872 12.6308 3.76629 12.7196 3.80171C12.8084 3.83713 12.8893 3.88971 12.9578 3.95644C13.0263 4.02317 13.0809 4.10274 13.1186 4.1906C13.1563 4.27847 13.1763 4.3729 13.1775 4.46851C13.1764 4.56417 13.1565 4.65869 13.1188 4.74664C13.0812 4.83459 13.0266 4.91425 12.9581 4.98106C12.8896 5.04787 12.8086 5.10051 12.7197 5.13598C12.6309 5.17145 12.5359 5.18904 12.4403 5.18775V5.18775ZM12.8828 9.7905C12.5573 9.7905 12.294 9.53325 12.294 9.21525C12.294 8.89725 12.5573 8.64001 12.8828 8.64001C13.2083 8.64001 13.4715 8.898 13.4715 9.21525C13.4715 9.5325 13.2083 9.7905 12.8828 9.7905ZM7.284 16.1205C6.7965 16.1205 6.4005 15.7343 6.4005 15.2573C6.4005 14.7803 6.7965 14.394 7.284 14.394C7.7715 14.394 8.1675 14.7803 8.1675 15.2565C8.1675 15.7343 7.77225 16.1205 7.284 16.1205ZM15.8288 16.983C15.3413 16.983 14.9453 16.596 14.9453 16.119C14.9453 15.6428 15.3405 15.2565 15.8288 15.2565C16.317 15.2565 16.7123 15.6428 16.7123 16.119C16.7123 16.596 16.3163 16.983 15.8288 16.983ZM14.6513 18.9968C14.163 18.9968 13.767 18.6098 13.767 18.1335C13.767 17.6565 14.163 17.2695 14.6505 17.2695C15.138 17.2695 15.534 17.6565 15.534 18.1335C15.534 18.6098 15.1388 18.996 14.6505 18.996L14.6513 18.9968ZM7.7265 18.9968C7.1565 18.9968 6.69525 18.546 6.69525 17.9895C6.69525 17.433 7.15725 16.983 7.7265 16.983C8.29575 16.983 8.75775 17.433 8.75775 17.9895C8.75775 18.546 8.29575 18.9968 7.7265 18.9968ZM4.63275 11.5178C4.14525 11.5178 3.74925 11.1308 3.74925 10.6538C3.74925 10.1775 4.1445 9.79125 4.63275 9.79125C5.121 9.79125 5.51625 10.1775 5.51625 10.6538C5.51625 11.1308 5.12025 11.5178 4.63275 11.5178Z" fill="white"/>
<path opacity="0.5" d="M9.0525 12.9548C8.4015 12.9548 7.8735 12.4403 7.8735 11.8043C7.8735 11.169 8.4015 10.6538 9.05325 10.6538C9.705 10.6538 10.2323 11.169 10.2323 11.8043C10.2323 12.4403 9.70425 12.9548 9.05325 12.9548H9.0525ZM15.24 11.2298C14.589 11.2298 14.061 10.7145 14.061 10.0785C14.061 9.44326 14.589 8.92801 15.2408 8.92801C15.8918 8.92801 16.4198 9.44326 16.4198 10.0785C16.4198 10.7145 15.8918 11.229 15.2408 11.229L15.24 11.2298ZM18.4808 16.1205C17.9933 16.1205 17.5973 15.7343 17.5973 15.2573C17.5973 14.7803 17.9933 14.394 18.4808 14.394C18.9683 14.394 19.3643 14.7803 19.3643 15.2565C19.3643 15.7343 18.969 16.1205 18.4808 16.1205ZM19.3658 12.6683C19.251 12.6695 19.1371 12.6482 19.0306 12.6055C18.9241 12.5628 18.8271 12.4995 18.745 12.4192C18.663 12.339 18.5976 12.2434 18.5525 12.1379C18.5074 12.0324 18.4835 11.919 18.4823 11.8043C18.4823 11.328 18.8775 10.9418 19.3658 10.9418C19.8533 10.9418 20.2485 11.328 20.2485 11.8043C20.2485 12.2813 19.8533 12.6683 19.3658 12.6683ZM15.9773 8.64076C15.8816 8.64194 15.7866 8.62425 15.6978 8.58869C15.609 8.55313 15.5281 8.5004 15.4597 8.43353C15.3912 8.36665 15.3367 8.28693 15.2991 8.19894C15.2616 8.11095 15.2417 8.01642 15.2408 7.92076C15.2419 7.82522 15.2619 7.73084 15.2996 7.64303C15.3372 7.55521 15.3918 7.47567 15.4602 7.40895C15.5286 7.34223 15.6094 7.28964 15.6982 7.25417C15.7869 7.21871 15.8817 7.20107 15.9773 7.20226C16.0729 7.20107 16.1678 7.21873 16.2565 7.25425C16.3453 7.28976 16.4262 7.34242 16.4946 7.40922C16.563 7.47602 16.6176 7.55565 16.6552 7.64355C16.6928 7.73145 16.7127 7.8259 16.7138 7.92151C16.7126 8.01704 16.6926 8.11142 16.6549 8.19923C16.6173 8.28705 16.5627 8.36659 16.4943 8.43331C16.4259 8.50003 16.3451 8.55262 16.2563 8.58809C16.1676 8.62355 16.0728 8.64119 15.9773 8.64001V8.64076ZM16.1235 6.339C15.7988 6.339 15.5348 6.08176 15.5348 5.76376C15.5348 5.44576 15.7988 5.18851 16.1235 5.18851C16.449 5.18851 16.713 5.44651 16.713 5.76376C16.713 6.08101 16.449 6.339 16.1235 6.339ZM17.4495 6.91426C17.205 6.91426 17.007 6.72076 17.007 6.48301C17.007 6.24526 17.205 6.05101 17.4495 6.05101C17.694 6.05101 17.892 6.24451 17.892 6.48301C17.892 6.72151 17.694 6.91426 17.4495 6.91426ZM19.8075 10.3673C19.5638 10.3673 19.365 10.1738 19.365 9.93526C19.365 9.69676 19.5638 9.50325 19.8075 9.50325C20.0513 9.50325 20.25 9.69676 20.25 9.93526C20.25 10.1738 20.052 10.3673 19.8075 10.3673ZM7.137 6.62701C6.8925 6.62701 6.6945 6.43425 6.6945 6.19576C6.6945 5.95726 6.8925 5.76376 7.137 5.76376C7.3815 5.76376 7.5795 5.95726 7.5795 6.19576C7.5795 6.43425 7.3815 6.62701 7.137 6.62701ZM6.54825 10.3673C6.30375 10.3673 6.10575 10.1738 6.10575 9.93526C6.10575 9.69676 6.30375 9.50325 6.54825 9.50325C6.79275 9.50325 6.99075 9.69676 6.99075 9.93526C6.99075 10.1738 6.79275 10.3673 6.54825 10.3673ZM7.72725 10.9425C7.48275 10.9425 7.28475 10.749 7.28475 10.5105C7.28475 10.272 7.48275 10.0785 7.72725 10.0785C7.97175 10.0785 8.16975 10.272 8.16975 10.5105C8.16975 10.749 7.97175 10.9425 7.72725 10.9425ZM9.1995 5.47501C8.955 5.47501 8.757 5.28151 8.757 5.04301C8.757 4.80451 8.955 4.61176 9.1995 4.61176C9.444 4.61176 9.642 4.80451 9.642 5.04301C9.642 5.28151 9.444 5.47501 9.1995 5.47501ZM19.8075 14.1068C19.5638 14.1068 19.365 13.9133 19.365 13.6748C19.365 13.4363 19.5638 13.2435 19.8075 13.2435C20.0513 13.2435 20.25 13.4363 20.25 13.6748C20.25 13.9133 20.052 14.1068 19.8075 14.1068ZM18.3345 9.50325C17.7645 9.50325 17.3033 9.05326 17.3033 8.49676C17.3033 7.94026 17.7645 7.48951 18.3345 7.48951C18.9038 7.48951 19.3658 7.94026 19.3658 8.49676C19.3658 9.05251 18.9038 9.50325 18.3345 9.50325ZM17.4495 11.8043C17.354 11.8054 17.2591 11.7878 17.1704 11.7523C17.0817 11.7169 17.0008 11.6643 16.9324 11.5976C16.864 11.5308 16.8095 11.4513 16.7718 11.3635C16.7342 11.2757 16.7142 11.1813 16.713 11.0858C16.713 10.6883 17.043 10.3673 17.4495 10.3673C17.545 10.3661 17.6399 10.3837 17.7286 10.4192C17.8173 10.4546 17.8982 10.5072 17.9666 10.574C18.035 10.6407 18.0895 10.7202 18.1272 10.808C18.1648 10.8958 18.1848 10.9902 18.186 11.0858C18.1848 11.1813 18.1648 11.2757 18.1272 11.3635C18.0895 11.4513 18.035 11.5308 17.9666 11.5976C17.8982 11.6643 17.8173 11.7169 17.7286 11.7523C17.6399 11.7878 17.545 11.8054 17.4495 11.8043V11.8043ZM7.4325 8.64001C7.33696 8.64119 7.24213 8.62355 7.15341 8.58809C7.06469 8.55262 6.98382 8.50003 6.91543 8.43331C6.84704 8.36659 6.79246 8.28705 6.75481 8.19923C6.71716 8.11142 6.69718 8.01704 6.696 7.92151C6.696 7.52401 7.026 7.20226 7.4325 7.20226C7.839 7.20226 8.16975 7.52476 8.16975 7.92151C8.16858 8.01711 8.14857 8.11154 8.11087 8.19941C8.07318 8.28727 8.01853 8.36684 7.95006 8.43357C7.88159 8.5003 7.80064 8.55288 7.71183 8.5883C7.62302 8.62373 7.5281 8.64129 7.4325 8.64001V8.64001ZM10.6725 6.62626C10.577 6.62744 10.4821 6.6098 10.3934 6.57434C10.3047 6.53887 10.2238 6.48628 10.1554 6.41956C10.087 6.35284 10.0325 6.2733 9.99481 6.18548C9.95716 6.09767 9.93718 6.00329 9.936 5.90776C9.936 5.51026 10.266 5.18851 10.6733 5.18851C11.0805 5.18851 11.4098 5.51101 11.4098 5.90776C11.4086 6.00329 11.3886 6.09767 11.3509 6.18548C11.3133 6.2733 11.2587 6.35284 11.1903 6.41956C11.1219 6.48628 11.0411 6.53887 10.9523 6.57434C10.8636 6.6098 10.7688 6.62744 10.6733 6.62626H10.6725ZM8.7585 6.91426C8.433 6.91426 8.16975 6.657 8.16975 6.339C8.16975 6.021 8.433 5.76376 8.7585 5.76376C9.084 5.76376 9.34725 6.02175 9.34725 6.339C9.34725 6.65625 9.084 6.91426 8.7585 6.91426ZM5.517 9.21526C5.44057 9.21615 5.36471 9.20197 5.29376 9.17355C5.22281 9.14512 5.15815 9.10299 5.10348 9.04958C5.04881 8.99616 5.00519 8.93249 4.97513 8.86222C4.94506 8.79194 4.92913 8.71644 4.92825 8.64001C4.92825 8.32276 5.1915 8.06476 5.517 8.06476C5.8425 8.06476 6.10575 8.32276 6.10575 8.64001C6.10487 8.71644 6.08894 8.79194 6.05888 8.86222C6.02881 8.93249 5.9852 8.99616 5.93053 9.04958C5.87586 9.10299 5.8112 9.14512 5.74024 9.17355C5.66929 9.20197 5.59343 9.21615 5.517 9.21526V9.21526ZM17.892 13.8188C17.8156 13.8196 17.7397 13.8055 17.6688 13.777C17.5978 13.7486 17.5331 13.7065 17.4785 13.6531C17.4238 13.5997 17.3802 13.536 17.3501 13.4657C17.3201 13.3954 17.3041 13.3199 17.3033 13.2435C17.3033 12.9255 17.5665 12.6683 17.892 12.6683C18.2175 12.6683 18.4808 12.9255 18.4808 13.2435C18.4799 13.3199 18.4639 13.3954 18.4339 13.4657C18.4038 13.536 18.3602 13.5997 18.3055 13.6531C18.2509 13.7065 18.1862 13.7486 18.1152 13.777C18.0443 13.8055 17.9684 13.8196 17.892 13.8188V13.8188ZM11.5575 14.1068C10.9875 14.1068 10.5263 13.656 10.5263 13.0995C10.5263 12.543 10.9883 12.093 11.5575 12.093C12.1275 12.093 12.5888 12.543 12.5888 13.0995C12.5888 13.656 12.1275 14.1068 11.5575 14.1068V14.1068ZM9.642 14.682C9.56557 14.6829 9.48971 14.6687 9.41876 14.6403C9.34781 14.6119 9.28315 14.5697 9.22848 14.5163C9.17381 14.4629 9.13019 14.3992 9.10013 14.329C9.07006 14.2587 9.05413 14.1832 9.05325 14.1068C9.05325 13.7888 9.3165 13.5315 9.642 13.5315C9.9675 13.5315 10.2308 13.7888 10.2308 14.1068C10.2299 14.1832 10.2139 14.2587 10.1839 14.329C10.1538 14.3992 10.1102 14.4629 10.0555 14.5163C10.0009 14.5697 9.9362 14.6119 9.86524 14.6403C9.79429 14.6687 9.71843 14.6829 9.642 14.682ZM9.936 16.983C9.4485 16.983 9.05325 16.596 9.05325 16.119C9.05325 15.6428 9.4485 15.2565 9.936 15.2565C10.4235 15.2565 10.8195 15.6428 10.8195 16.119C10.8195 16.596 10.4243 16.983 9.936 16.983ZM9.936 18.708C9.78177 18.7098 9.63313 18.6503 9.52274 18.5426C9.41235 18.4349 9.34923 18.2877 9.34725 18.1335C9.34725 17.8155 9.61125 17.5583 9.936 17.5583C10.2608 17.5583 10.5255 17.8155 10.5255 18.1335C10.5246 18.21 10.5087 18.2856 10.4786 18.3559C10.4484 18.4262 10.4048 18.4899 10.35 18.5433C10.2953 18.5968 10.2305 18.6389 10.1595 18.6673C10.0884 18.6956 10.0125 18.7097 9.936 18.7088V18.708Z" fill="white"/>
</svg>
