<svg width="48" height="48" viewBox="0 0 24 24" fill="none" xmlns="http://www.w3.org/2000/svg">
<path d="M12 24C5.37225 24 0 18.6277 0 12C0 5.37225 5.37225 0 12 0C18.6277 0 24 5.37225 24 12C24 18.6277 18.6277 24 12 24ZM6.30975 8.93925C6.285 8.92425 6.26475 8.93625 6.26475 8.9655V10.692C6.26555 10.7077 6.27004 10.7231 6.27786 10.7367C6.28568 10.7504 6.2966 10.7621 6.30975 10.7708L8.49225 12.0322C8.5054 12.0409 8.51632 12.0526 8.52414 12.0663C8.53196 12.0799 8.53645 12.0953 8.53725 12.111V18.3585C8.53828 18.3744 8.54302 18.3897 8.5511 18.4034C8.55918 18.4171 8.57036 18.4287 8.58375 18.4373L10.0785 19.2997C10.1032 19.3147 10.1235 19.3027 10.1235 19.2735V11.196C10.1228 11.1801 10.1184 11.1647 10.1106 11.1508C10.1027 11.137 10.0917 11.1253 10.0785 11.1165L6.30975 8.93925ZM17.6902 8.93925L13.9222 11.1165C13.909 11.1251 13.898 11.1368 13.89 11.1504C13.8821 11.1641 13.8774 11.1795 13.8765 11.1953V19.2735C13.8765 19.3035 13.8968 19.3147 13.9215 19.2997L15.417 18.4373C15.4302 18.4285 15.4412 18.4167 15.449 18.4029C15.4568 18.3891 15.4613 18.3736 15.462 18.3577V12.1102C15.4629 12.0944 15.4675 12.0791 15.4754 12.0654C15.4834 12.0517 15.4945 12.0401 15.5078 12.0315L17.6902 10.7708C17.7034 10.7621 17.7143 10.7504 17.7221 10.7367C17.73 10.7231 17.7344 10.7077 17.7352 10.692V8.9655C17.7352 8.93625 17.715 8.925 17.6902 8.93925V8.93925ZM17.9858 5.62725C17.9858 5.59875 17.9647 5.58675 17.9407 5.601L12.0458 9.0105C12.0316 9.01774 12.0159 9.02152 12 9.02152C11.9841 9.02152 11.9684 9.01774 11.9543 9.0105L6.06 5.601C6.03525 5.586 6.015 5.59875 6.015 5.62725V7.35375C6.0158 7.36949 6.02029 7.38481 6.02811 7.39849C6.03593 7.41217 6.04685 7.42382 6.06 7.4325L11.163 10.383C11.1761 10.3917 11.187 10.4034 11.1948 10.4171C11.2026 10.4307 11.2071 10.446 11.208 10.4618V21.1755C11.2088 21.1914 11.2133 21.2069 11.2213 21.2208C11.2292 21.2346 11.2404 21.2463 11.2538 21.255L11.955 21.66C11.9692 21.667 11.9849 21.6707 12.0007 21.6707C12.0166 21.6707 12.0323 21.667 12.0465 21.66L12.7477 21.255C12.761 21.2462 12.772 21.2345 12.7798 21.2207C12.7876 21.2068 12.7921 21.1914 12.7927 21.1755V10.4625C12.7937 10.4467 12.7983 10.4314 12.8063 10.4177C12.8142 10.404 12.8253 10.3924 12.8385 10.3838L17.94 7.4325C17.9532 7.42375 17.9642 7.41198 17.9721 7.39816C17.9799 7.38434 17.9843 7.36886 17.985 7.353V5.628L17.9858 5.62725ZM12.027 9.98925C12.021 9.98925 12.0187 9.98475 12.0217 9.9795C12.0247 9.97425 12.0292 9.97425 12.0322 9.9795C12.0352 9.98475 12.0322 9.98925 12.027 9.98925V9.98925ZM11.259 5.4015C11.2446 5.40469 11.2316 5.41263 11.2222 5.42405C11.2129 5.43548 11.2076 5.44972 11.2072 5.4645V7.61925C11.2082 7.63504 11.2128 7.65038 11.2208 7.66406C11.2287 7.67774 11.2398 7.68936 11.253 7.698L11.9543 8.103C11.9828 8.118 12.0165 8.118 12.0458 8.103L12.747 7.698C12.7601 7.68928 12.771 7.67762 12.7788 7.66395C12.7866 7.65028 12.7911 7.63497 12.792 7.61925V5.46375C12.7918 5.44904 12.7867 5.43481 12.7775 5.42337C12.7682 5.41193 12.7554 5.40396 12.741 5.40075L12.051 5.274C12.0169 5.26883 11.9823 5.26883 11.9482 5.274L11.259 5.4015V5.4015Z" fill="black"/>
</svg>
