<svg width="24" height="24" viewBox="0 0 24 24" fill="none" xmlns="http://www.w3.org/2000/svg">
<path d="M12 24C18.6274 24 24 18.6274 24 12C24 5.37258 18.6274 0 12 0C5.37258 0 0 5.37258 0 12C0 18.6274 5.37258 24 12 24Z" fill="#4CB8D1"/>
<path fill-rule="evenodd" clip-rule="evenodd" d="M7.59225 6.21225L7.89075 5.6745C7.96098 5.5464 8.06425 5.43946 8.18982 5.36481C8.31539 5.29015 8.45867 5.25051 8.60475 5.25H15.321C15.5993 5.25 15.858 5.394 16.0088 5.631H19.0523V10.986L19.389 11.5785C19.4618 11.707 19.5001 11.8523 19.5001 12C19.5001 12.1477 19.4618 12.293 19.389 12.4215L19.0523 13.014V15.318L16.4745 17.5515L16.0305 18.3323C15.9598 18.4584 15.8568 18.5636 15.7322 18.637C15.6075 18.7104 15.4656 18.7494 15.321 18.75H8.60475C8.45867 18.7495 8.31539 18.7098 8.18982 18.6352C8.06425 18.5605 7.96098 18.4536 7.89075 18.3255L7.872 18.2925H4.8735V12.8925L4.60725 12.4133C4.53712 12.2865 4.50034 12.1441 4.50034 11.9992C4.50034 11.8544 4.53712 11.712 4.60725 11.5852L4.8735 11.106V8.68125L7.59225 6.21225ZM8.60475 6.08925L5.32125 12L8.60475 17.9108H15.321L18.6788 12L15.321 6.08925H8.60475ZM8.9085 6.62325H15.0203L18.075 12L15.0203 17.3775H8.9085L5.92125 12L8.9085 6.62325ZM10.3208 8.91075L8.679 11.9618L10.3215 15.0128H13.8285L15.4703 11.9618L13.8278 8.91075H10.3208Z" fill="white"/>
</svg>
