<svg width="48" height="48" viewBox="0 0 24 24" fill="none" xmlns="http://www.w3.org/2000/svg">
<path fill-rule="evenodd" clip-rule="evenodd" d="M12 24C5.37225 24 0 18.6277 0 12C0 5.37225 5.37225 0 12 0C18.6277 0 24 5.37225 24 12C24 18.6277 18.6277 24 12 24ZM18.375 8.25L12 4.5L5.625 8.25V15.75L12 19.5L18.375 15.75V8.25ZM11.799 12.3052L11.0258 11.8507L10.5585 12.1268L9.4515 11.4795L9.9225 11.202L7.425 9.73275L12.1282 6.96675L16.566 9.54525L15.3765 10.2487L12.1312 8.35125L9.783 9.73275L11.0985 10.5067L11.7712 10.1093L12.8782 10.7565L12.2017 11.1562L12.9742 11.6107L13.5262 11.2852L14.6332 11.9318L14.0782 12.2595L16.833 13.881L12.1305 16.6462L7.23675 13.8038L7.257 12.4215L12.1282 15.2618L14.4758 13.881L12.9022 12.9548L12.3135 13.302L11.2065 12.6555L11.799 12.3052Z" fill="black"/>
</svg>
