<svg width="48" height="48" viewBox="0 0 24 24" fill="none" xmlns="http://www.w3.org/2000/svg">
<path d="M10.1827 16.509L7.395 14.904V18.996L8.8125 18.1777L11.6025 19.7828V15.69L10.1827 16.509ZM7.67025 9.231L7.68825 9.2415V13.3193L11.2357 11.2755L9.77925 10.434L9.78825 10.4295L11.8328 11.6085V7.5225L12.3892 7.84275V3.75L8.83575 5.799L11.8268 7.51875L10.3207 8.385L8.27925 7.20525V9.56775V5.48925L4.725 7.533L7.665 9.22875L4.1175 11.2755L7.67025 13.3193V9.23175V9.231ZM12 24C5.37225 24 0 18.6277 0 12C0 5.37225 5.37225 0 12 0C18.6277 0 24 5.37225 24 12C24 18.6277 18.6277 24 12 24ZM12.3892 3.75V7.84275L15.9427 5.799L12.3892 3.75ZM15.9427 5.799V9.89175L19.4955 7.84275L15.9427 5.799V5.799ZM12.3892 7.84275V11.9355L15.9427 9.89175L12.3892 7.84275ZM15.9427 9.89175V13.9845L19.4955 11.9355L15.9427 9.89175V9.89175ZM12.3892 11.9355V16.0283L15.9427 13.9845L12.3892 11.9355V11.9355ZM15.9427 13.9845V18.0773L19.4955 16.0283L15.9427 13.9845ZM3.20475 7.70475V11.7975L6.75825 9.7485L3.20475 7.70475V7.70475ZM5.0535 11.8148V15.9075L8.60625 13.8585L5.0535 11.8148V11.8148ZM12.3608 16.6658V20.7585L15.9083 18.7087L12.3608 16.6658ZM12.3892 11.9355L8.84175 13.9845L12.3892 16.0283V11.9355V11.9355ZM5.0535 12.888L1.5 14.9325L5.0535 16.9822V12.8895V12.888ZM19.4955 7.84275L15.9427 9.89175L19.4955 11.9355V7.84275ZM15.9427 9.89175L12.3892 11.9355L15.9427 13.9845V9.8925V9.89175ZM19.4955 11.9355L15.9427 13.9845L19.4955 16.0283V11.9355V11.9355ZM15.9427 13.9845L12.3892 16.0283L15.9427 18.0773V13.9845ZM15.9427 5.799L12.3892 7.84275L15.9427 9.89175V5.799V5.799Z" fill="black"/>
</svg>
