<svg width="48" height="48" viewBox="0 0 24 24" fill="none" xmlns="http://www.w3.org/2000/svg">
<path fill-rule="evenodd" clip-rule="evenodd" d="M12 24C5.37225 24 0 18.6277 0 12C0 5.37225 5.37225 0 12 0C18.6277 0 24 5.37225 24 12C24 18.6277 18.6277 24 12 24ZM18.186 14.5125V9.50475C18.3766 9.43353 18.536 9.29738 18.6361 9.12025C18.7363 8.94312 18.7707 8.73636 18.7335 8.53632C18.6962 8.33629 18.5896 8.15581 18.4324 8.02662C18.2752 7.89743 18.0775 7.82781 17.874 7.83C17.6583 7.82885 17.4499 7.90829 17.2897 8.05275L12.9188 5.55C12.9456 5.42315 12.9437 5.2919 12.9133 5.16586C12.8829 5.03982 12.8247 4.92218 12.7429 4.82153C12.6612 4.72088 12.558 4.63978 12.4408 4.58414C12.3237 4.52851 12.1957 4.49977 12.066 4.5C11.9401 4.49956 11.8156 4.52646 11.701 4.57884C11.5865 4.63123 11.4848 4.70784 11.4028 4.8034C11.3207 4.89896 11.2605 5.01118 11.2261 5.13231C11.1917 5.25344 11.184 5.3806 11.2035 5.505L6.726 8.07C6.59744 7.94836 6.43509 7.86844 6.26029 7.84073C6.08548 7.81303 5.90638 7.83883 5.7465 7.91475C5.41875 8.07 5.223 8.40975 5.253 8.76825C5.283 9.12675 5.53425 9.42975 5.883 9.528V14.49C5.68059 14.5461 5.50552 14.674 5.39049 14.8498C5.27546 15.0255 5.22833 15.2371 5.25791 15.4451C5.28749 15.653 5.39175 15.8431 5.55122 15.9798C5.71069 16.1165 5.91447 16.1905 6.1245 16.188C6.3015 16.188 6.47325 16.1355 6.618 16.035L8.9415 17.364V17.3903H8.99175L11.1967 18.6525C11.2028 18.8831 11.3002 19.1018 11.4673 19.2607C11.6345 19.4196 11.8579 19.5056 12.0885 19.5C12.2083 19.4981 12.3264 19.4713 12.4354 19.4215C12.5444 19.3717 12.6419 19.2999 12.7218 19.2106C12.8017 19.1213 12.8622 19.0164 12.8996 18.9025C12.937 18.7887 12.9504 18.6683 12.939 18.549L17.4615 16.0815C17.7315 16.2285 18.0592 16.2233 18.324 16.0673C18.5887 15.9113 18.7515 15.6278 18.75 15.3225C18.7485 15.1464 18.6938 14.9749 18.5932 14.8303C18.4926 14.6858 18.3506 14.575 18.186 14.5125V14.5125ZM15.0975 12.5588H15.0945L15.0908 12.5385L15.0878 12.492L14.9835 12.4418L14.3287 12.0518L15.0135 11.643L15.1215 11.5927L15.1282 11.3333H15.1312V7.37025L17.031 8.45925C17.0095 8.53617 16.9984 8.61563 16.998 8.6955C16.998 9.108 17.292 9.4635 17.6993 9.54525V14.4728C17.5671 14.4996 17.443 14.5568 17.3368 14.6399C17.2305 14.7229 17.145 14.8296 17.0871 14.9513C17.0291 15.0731 17.0002 15.2067 17.0027 15.3415C17.0052 15.4763 17.039 15.6087 17.1015 15.7283L15.0975 16.821V12.5588ZM12.0675 6.23175C12.3015 6.23175 12.525 6.138 12.6885 5.9715L14.6475 7.095V11.3003L13.8585 11.7727L12.7935 11.1405C12.8099 11.031 12.8025 10.9192 12.7717 10.8128C12.7409 10.7065 12.6875 10.608 12.6152 10.5242C12.5428 10.4403 12.4532 10.3731 12.3525 10.3272C12.2517 10.2812 12.1422 10.2575 12.0315 10.2578C11.9181 10.2574 11.8061 10.2821 11.7034 10.3302C11.6008 10.3782 11.51 10.4483 11.4376 10.5356C11.3652 10.6228 11.313 10.7249 11.2847 10.8347C11.2564 10.9445 11.2528 11.0592 11.274 11.1705L10.2427 11.7765L9.4275 11.2905V7.08075L11.415 5.9415C11.58 6.126 11.817 6.23175 12.066 6.23175H12.0675ZM12.5775 12.5483C12.4353 12.4085 12.2447 12.3288 12.0453 12.3257C11.8459 12.3226 11.653 12.3964 11.5065 12.5317L10.7078 12.0555L11.5103 11.5898C11.6564 11.7228 11.8478 11.7951 12.0454 11.7919C12.243 11.7887 12.432 11.7102 12.5737 11.5725L13.3898 12.0593L12.5775 12.5483ZM6.9315 15.6585C7.0275 15.4313 7.0215 15.174 6.9135 14.9512C6.8055 14.7285 6.609 14.562 6.3705 14.4938V9.525C6.8205 9.39675 7.0875 8.93625 6.97125 8.48625L8.94225 7.35675V11.433H8.94525V11.5927L9.20775 11.7263L9.771 12.0593L9.147 12.4252L8.979 12.525L8.94525 12.5588L8.94225 12.6915V16.8105L6.9315 15.6585ZM12.0675 17.7532C11.9171 17.7527 11.7691 17.7911 11.638 17.8647C11.5068 17.9383 11.3969 18.0446 11.319 18.1733L9.42525 17.0873V12.8018L10.2307 12.3323L11.2747 12.9517C11.2672 12.9967 11.2628 13.0418 11.2613 13.0883C11.2613 13.5113 11.607 13.8533 12.0338 13.8533C12.4605 13.8533 12.8063 13.5113 12.8063 13.0883C12.8062 13.0503 12.8027 13.0123 12.7958 12.975L13.86 12.3353L14.6152 12.7853V17.0873L12.7628 18.0997C12.6818 17.9919 12.5768 17.9044 12.4561 17.8443C12.3354 17.7841 12.2024 17.753 12.0675 17.7532V17.7532Z" fill="black"/>
</svg>
