<svg width="48" height="48" viewBox="0 0 24 24" fill="none" xmlns="http://www.w3.org/2000/svg">
<path fill-rule="evenodd" clip-rule="evenodd" d="M12 24C5.37225 24 0 18.6277 0 12C0 5.37225 5.37225 0 12 0C18.6277 0 24 5.37225 24 12C24 18.6277 18.6277 24 12 24ZM12 19.5C12.486 19.5 12.963 19.3695 13.383 19.1213L17.3625 16.7812C17.7855 16.5286 18.1358 16.1705 18.379 15.7419C18.6222 15.3133 18.75 14.829 18.75 14.3362V9.66375C18.7508 9.17095 18.6233 8.68643 18.38 8.25786C18.1367 7.82929 17.786 7.47144 17.3625 7.2195L13.383 4.8795C12.9666 4.63117 12.4908 4.50004 12.006 4.5C11.5185 4.5 11.0385 4.63125 10.617 4.87875L6.6375 7.2195C6.21457 7.47211 5.86439 7.83011 5.6212 8.25853C5.378 8.68694 5.25011 9.17112 5.25 9.66375V14.3362C5.24909 14.8292 5.37655 15.3139 5.61984 15.7426C5.86312 16.1713 6.21385 16.5292 6.6375 16.7812L10.617 19.1213C11.037 19.3688 11.514 19.5 12 19.5V19.5ZM9.711 14.6782C9.906 14.8785 10.17 14.991 10.4467 14.9918C11.0205 14.9918 11.4855 14.5185 11.4855 13.9343V7.94625H12.522V11.4683C12.5227 12.0503 12.987 12.522 13.5585 12.5235C13.8352 12.5235 14.1008 12.411 14.2958 12.2115L15.0322 12.9615C14.8416 13.1588 14.6123 13.3147 14.3588 13.4195C14.1052 13.5242 13.8328 13.5757 13.5585 13.5705C13.194 13.571 12.836 13.4736 12.522 13.2885V13.9275C12.5205 15.0967 11.5897 16.0432 10.4415 16.0447C10.1678 16.0469 9.89657 15.9934 9.64425 15.8874C9.39192 15.7814 9.16379 15.6252 8.97375 15.4282L9.711 14.6782Z" fill="black"/>
</svg>
