<svg width="48" height="48" viewBox="0 0 24 24" fill="none" xmlns="http://www.w3.org/2000/svg">
<path fill-rule="evenodd" clip-rule="evenodd" d="M12 24C5.37225 24 0 18.6277 0 12C0 5.37225 5.37225 0 12 0C18.6277 0 24 5.37225 24 12C24 18.6277 18.6277 24 12 24ZM14.727 9.7725C14.9895 9.7725 15.2017 9.564 15.2017 9.3075V9.03225C15.2012 8.97053 15.1884 8.90953 15.1642 8.85274C15.14 8.79596 15.1049 8.7445 15.0608 8.70131C15.0167 8.65812 14.9645 8.62405 14.9072 8.60104C14.85 8.57804 14.7887 8.56656 14.727 8.56725H14.445C14.3833 8.56656 14.322 8.57804 14.2648 8.60104C14.2075 8.62405 14.1553 8.65812 14.1112 8.70131C14.0671 8.7445 14.032 8.79596 14.0078 8.85274C13.9836 8.90953 13.9708 8.97053 13.9703 9.03225V9.77175L14.727 9.7725ZM10.2758 9.7725V9.03225C10.2752 8.97053 10.2624 8.90953 10.2382 8.85274C10.214 8.79596 10.1789 8.7445 10.1348 8.70131C10.0907 8.65812 10.0385 8.62405 9.98125 8.60104C9.92397 8.57804 9.86272 8.56656 9.801 8.56725H9.51975C9.45803 8.56656 9.39678 8.57804 9.3395 8.60104C9.28223 8.62405 9.23005 8.65812 9.18595 8.70131C9.14186 8.7445 9.10671 8.79596 9.08253 8.85274C9.05834 8.90953 9.04559 8.97053 9.045 9.03225V9.3075C9.045 9.564 9.25725 9.7725 9.51975 9.7725H10.2758ZM9.51975 14.7098H9.801C10.0635 14.7098 10.2758 14.502 10.2758 14.2455V13.5052H9.51975C9.45803 13.5046 9.39678 13.516 9.3395 13.539C9.28223 13.562 9.23005 13.5961 9.18595 13.6393C9.14186 13.6825 9.10671 13.734 9.08253 13.7907C9.05834 13.8475 9.04559 13.9085 9.045 13.9703V14.2455C9.045 14.502 9.25725 14.7105 9.51975 14.7105V14.7098ZM14.445 14.7098H14.727C14.9895 14.7098 15.2017 14.502 15.2017 14.2455V13.9703C15.2012 13.9085 15.1884 13.8475 15.1642 13.7907C15.14 13.734 15.1049 13.6825 15.0608 13.6393C15.0167 13.5961 14.9645 13.562 14.9072 13.539C14.85 13.516 14.7887 13.5046 14.727 13.5052H13.9695V14.2455C13.9695 14.502 14.1825 14.7105 14.445 14.7105V14.7098ZM11.982 8.68725H12.264C12.5265 8.68725 12.7388 8.48025 12.7388 8.22375V7.94775C12.7381 7.88609 12.7252 7.82518 12.701 7.76847C12.6768 7.71177 12.6416 7.6604 12.5975 7.61729C12.5534 7.57418 12.5013 7.54018 12.4441 7.51722C12.3868 7.49426 12.3257 7.48281 12.264 7.4835H11.982C11.9203 7.48281 11.859 7.49429 11.8018 7.51729C11.7445 7.5403 11.6923 7.57437 11.6482 7.61756C11.6041 7.66075 11.569 7.71221 11.5448 7.76899C11.5206 7.82578 11.5078 7.88678 11.5073 7.9485V8.22375C11.5073 8.48025 11.7202 8.688 11.982 8.688V8.68725ZM11.982 16.035H12.264C12.5265 16.035 12.7388 15.8265 12.7388 15.57V15.2947C12.7382 15.233 12.7254 15.172 12.7012 15.1152C12.677 15.0585 12.6419 15.007 12.5978 14.9638C12.5537 14.9206 12.5015 14.8865 12.4442 14.8635C12.387 14.8405 12.3257 14.8291 12.264 14.8298H11.982C11.9203 14.8291 11.859 14.8405 11.8018 14.8635C11.7445 14.8865 11.6923 14.9206 11.6482 14.9638C11.6041 15.007 11.569 15.0585 11.5448 15.1152C11.5206 15.172 11.5078 15.233 11.5073 15.2947V15.5707C11.5073 15.8265 11.7202 16.035 11.982 16.035V16.035ZM15.6765 12.3007H15.9578C16.2203 12.3007 16.4325 12.093 16.4325 11.8365V11.5612C16.4319 11.4995 16.4192 11.4385 16.395 11.3817C16.3708 11.325 16.3356 11.2735 16.2915 11.2303C16.2475 11.1871 16.1953 11.153 16.138 11.13C16.0807 11.107 16.0195 11.0956 15.9578 11.0963H15.6765C15.6148 11.0956 15.5535 11.107 15.4963 11.13C15.439 11.153 15.3868 11.1871 15.3427 11.2303C15.2986 11.2735 15.2635 11.325 15.2393 11.3817C15.2151 11.4385 15.2023 11.4995 15.2017 11.5612V11.8365C15.2017 12.093 15.414 12.3015 15.6765 12.3015V12.3007ZM8.16525 12.3007H8.4465C8.709 12.3007 8.922 12.093 8.922 11.8365V11.5612C8.92141 11.4995 8.90864 11.4384 8.8844 11.3816C8.86017 11.3247 8.82496 11.2732 8.78078 11.23C8.73661 11.1868 8.68434 11.1528 8.62698 11.1298C8.56961 11.1069 8.50828 11.0955 8.4465 11.0963H8.16525C8.10353 11.0956 8.04228 11.107 7.985 11.13C7.92773 11.153 7.87555 11.1871 7.83145 11.2303C7.78736 11.2735 7.75221 11.325 7.72803 11.3817C7.70384 11.4385 7.69109 11.4995 7.6905 11.5612V11.8365C7.6905 12.093 7.90275 12.3015 8.16525 12.3015V12.3007ZM13.629 11.1428C13.6736 11.143 13.7178 11.1345 13.7591 11.1177C13.8004 11.1009 13.8379 11.0761 13.8696 11.0448C13.9013 11.0134 13.9265 10.9761 13.9438 10.935C13.9611 10.8939 13.9701 10.8498 13.9703 10.8052V9.8925H13.0305C12.9859 9.8922 12.9417 9.9007 12.9004 9.91751C12.8591 9.93432 12.8216 9.95911 12.7899 9.99046C12.7582 10.0218 12.733 10.0591 12.7157 10.1002C12.6984 10.1413 12.6894 10.1854 12.6893 10.23V10.53C12.6893 10.8675 12.429 11.16 12.0862 11.16C11.9192 11.1577 11.7595 11.0909 11.6406 10.9734C11.5218 10.8559 11.453 10.697 11.4488 10.53V10.2173C11.4485 10.1743 11.4397 10.1318 11.423 10.0923C11.4063 10.0527 11.382 10.0168 11.3514 9.98668C11.3208 9.95653 11.2846 9.93269 11.2448 9.91653C11.205 9.90037 11.1624 9.8922 11.1195 9.8925H10.2758V13.626H11.1128C11.1566 13.6263 11.2002 13.6179 11.2408 13.6014C11.2815 13.5848 11.3185 13.5604 11.3497 13.5296C11.3809 13.4987 11.4057 13.462 11.4227 13.4215C11.4397 13.3811 11.4486 13.3376 11.4488 13.2938V13.0132C11.4488 12.6562 11.715 12.357 12.0577 12.357C12.2237 12.3585 12.3826 12.4247 12.5005 12.5415C12.6184 12.6584 12.6861 12.8165 12.6893 12.9825V13.2915C12.6893 13.476 12.8408 13.626 13.0275 13.626H13.9703V12.7028C13.97 12.6585 13.961 12.6148 13.9438 12.5741C13.9266 12.5333 13.9015 12.4963 13.87 12.4653C13.8385 12.4342 13.8013 12.4097 13.7603 12.393C13.7193 12.3764 13.6755 12.368 13.6312 12.3682H13.35C13.0072 12.3682 12.6893 12.0937 12.6893 11.7555C12.6906 11.592 12.7568 11.4357 12.8732 11.3208C12.9896 11.206 13.1467 11.142 13.3102 11.1428H13.629V11.1428ZM13.9897 16.0665C13.9379 16.0869 13.8907 16.1175 13.8508 16.1564C13.8109 16.1954 13.7792 16.2419 13.7576 16.2932C13.7359 16.3446 13.7247 16.3997 13.7247 16.4555C13.7246 16.5112 13.7357 16.5664 13.7573 16.6177C13.8028 16.7216 13.8871 16.8035 13.9922 16.8461C14.0972 16.8886 14.2148 16.8885 14.3198 16.8458C14.3716 16.8254 14.4188 16.7949 14.4587 16.756C14.4985 16.7172 14.5302 16.6707 14.5519 16.6194C14.5735 16.5682 14.5847 16.5131 14.5848 16.4574C14.5849 16.4017 14.5738 16.3466 14.5522 16.2952C14.5068 16.1913 14.4226 16.1092 14.3175 16.0665C14.2124 16.0238 14.0948 16.0238 13.9897 16.0665ZM10.05 6.67275C9.99818 6.69311 9.95094 6.72361 9.91105 6.76246C9.87116 6.80131 9.83943 6.84772 9.81771 6.89899C9.79599 6.95026 9.78471 7.00534 9.78455 7.06102C9.78438 7.1167 9.79533 7.17185 9.81675 7.22325C9.86231 7.32706 9.9466 7.40898 10.0517 7.45156C10.1567 7.49415 10.2743 7.49404 10.3792 7.45125C10.4311 7.43089 10.4783 7.40039 10.5182 7.36154C10.5581 7.32269 10.5898 7.27628 10.6115 7.22501C10.6333 7.17374 10.6445 7.11865 10.6447 7.06298C10.6449 7.0073 10.6339 6.95214 10.6125 6.90075C10.5669 6.79694 10.4826 6.71502 10.3776 6.67244C10.2725 6.62985 10.155 6.62996 10.05 6.67275V6.67275ZM16.4655 9.99375C16.5111 10.0976 16.5954 10.1795 16.7004 10.2221C16.8055 10.2646 16.923 10.2645 17.028 10.2217C17.08 10.2015 17.1274 10.171 17.1674 10.1321C17.2074 10.0933 17.2393 10.0468 17.2611 9.99541C17.2829 9.94405 17.2942 9.88884 17.2944 9.83304C17.2945 9.77725 17.2835 9.72198 17.262 9.6705C17.2164 9.56669 17.1321 9.48477 17.0271 9.44219C16.922 9.3996 16.8045 9.39971 16.6995 9.4425C16.6475 9.46278 16.6001 9.49326 16.5601 9.53213C16.5201 9.571 16.4882 9.61748 16.4664 9.66884C16.4446 9.72021 16.4333 9.77541 16.4331 9.83121C16.433 9.887 16.444 9.94227 16.4655 9.99375V9.99375ZM6.984 13.8472C7.02956 13.9512 7.11398 14.0333 7.21922 14.0759C7.32446 14.1185 7.44218 14.1183 7.54725 14.0753C7.59907 14.0549 7.64631 14.0244 7.6862 13.9855C7.72609 13.9467 7.75782 13.9003 7.77954 13.849C7.80126 13.7977 7.81254 13.7427 7.8127 13.687C7.81287 13.6313 7.80192 13.5761 7.7805 13.5248C7.73509 13.4208 7.65081 13.3388 7.5457 13.2962C7.44058 13.2536 7.32296 13.2538 7.218 13.2968C7.16611 13.317 7.1188 13.3475 7.07883 13.3863C7.03886 13.4251 7.00705 13.4715 6.98525 13.5228C6.96346 13.5741 6.95212 13.6292 6.9519 13.6849C6.95169 13.7406 6.9626 13.7958 6.984 13.8472V13.8472ZM6.984 9.6705C6.96246 9.72194 6.95142 9.77716 6.95153 9.83292C6.95163 9.88868 6.96288 9.94386 6.98461 9.99521C7.00634 10.0466 7.03811 10.0931 7.07806 10.132C7.11801 10.1709 7.16534 10.2014 7.21725 10.2217C7.32232 10.2648 7.44004 10.265 7.54528 10.2224C7.65052 10.1798 7.73494 10.0977 7.7805 9.99375C7.80206 9.94236 7.81313 9.88718 7.81308 9.83146C7.81302 9.77573 7.80184 9.72057 7.78018 9.66923C7.75853 9.61788 7.72683 9.57138 7.68696 9.53244C7.64709 9.49351 7.59985 9.46293 7.548 9.4425C7.44284 9.39925 7.32493 9.3989 7.21952 9.44151C7.1141 9.48413 7.02956 9.56632 6.984 9.6705V9.6705ZM13.8668 7.45125C13.9717 7.49404 14.0893 7.49415 14.1943 7.45156C14.2994 7.40898 14.3837 7.32706 14.4293 7.22325C14.4507 7.1719 14.4617 7.11679 14.4616 7.06115C14.4614 7.00551 14.4502 6.95044 14.4286 6.89918C14.4069 6.84792 14.3753 6.8015 14.3355 6.76262C14.2957 6.72374 14.2485 6.69319 14.1968 6.67275C14.0918 6.62996 13.9742 6.62985 13.8692 6.67244C13.7641 6.71502 13.6798 6.79694 13.6343 6.90075C13.6128 6.9521 13.6018 7.00721 13.6019 7.06285C13.6021 7.11849 13.6133 7.17356 13.6349 7.22482C13.6566 7.27608 13.6882 7.3225 13.728 7.36138C13.7678 7.40026 13.815 7.43082 13.8668 7.45125V7.45125ZM16.4655 13.5248C16.4441 13.5761 16.4331 13.6313 16.4333 13.687C16.4335 13.7427 16.4447 13.7977 16.4665 13.849C16.4882 13.9003 16.5199 13.9467 16.5598 13.9855C16.5997 14.0244 16.6469 14.0549 16.6987 14.0753C16.8037 14.118 16.9213 14.1181 17.0263 14.0756C17.1314 14.033 17.2157 13.9511 17.2612 13.8472C17.2827 13.7959 17.2937 13.7408 17.2936 13.6851C17.2934 13.6295 17.2822 13.5744 17.2606 13.5232C17.2389 13.4719 17.2073 13.4255 17.1675 13.3866C17.1277 13.3477 17.0805 13.3172 17.0287 13.2968C16.9238 13.2538 16.8062 13.2536 16.7011 13.2962C16.5959 13.3388 16.5117 13.4208 16.4662 13.5248H16.4655ZM9.80325 16.9658C9.90823 17.0085 10.0258 17.0086 10.1308 16.9661C10.2359 16.9235 10.3202 16.8416 10.3658 16.7377C10.3872 16.6864 10.3982 16.6313 10.3981 16.5756C10.3979 16.52 10.3867 16.4649 10.3651 16.4137C10.3434 16.3624 10.3118 16.316 10.272 16.2771C10.2322 16.2382 10.185 16.2077 10.1332 16.1873C10.0283 16.1445 9.91073 16.1444 9.80566 16.1869C9.7006 16.2295 9.61631 16.3114 9.57075 16.4152C9.54921 16.4666 9.53814 16.5217 9.5382 16.5774C9.53827 16.6331 9.54946 16.6882 9.57112 16.7394C9.59278 16.7907 9.62447 16.8372 9.66434 16.876C9.7042 16.9149 9.75143 16.9454 9.80325 16.9658V16.9658ZM16.1355 15.7432C16.1126 15.7654 16.0943 15.7919 16.0819 15.8212C16.0694 15.8505 16.063 15.882 16.063 15.9139C16.063 15.9457 16.0694 15.9773 16.0819 16.0066C16.0943 16.0359 16.1126 16.0624 16.1355 16.0845C16.2322 16.1782 16.3875 16.1782 16.4835 16.0845C16.5795 15.9907 16.5803 15.8378 16.4835 15.744C16.4368 15.6989 16.3744 15.6737 16.3095 15.6737C16.2446 15.6737 16.1822 15.6989 16.1355 15.744V15.7432ZM7.7625 7.434C7.73957 7.45611 7.72133 7.48261 7.70887 7.51193C7.69641 7.54124 7.68999 7.57277 7.68999 7.60462C7.68999 7.63648 7.69641 7.66801 7.70887 7.69732C7.72133 7.72664 7.73957 7.75314 7.7625 7.77525C7.8092 7.82034 7.87158 7.84554 7.9365 7.84554C8.00142 7.84554 8.0638 7.82034 8.1105 7.77525C8.2065 7.68075 8.2065 7.5285 8.1105 7.43475C8.0145 7.341 7.8585 7.34025 7.7625 7.43475V7.434ZM16.1355 7.77525C16.1822 7.82034 16.2446 7.84554 16.3095 7.84554C16.3744 7.84554 16.4368 7.82034 16.4835 7.77525C16.5803 7.68075 16.5803 7.5285 16.4835 7.43475C16.3868 7.341 16.2322 7.34025 16.1355 7.43475C16.1127 7.45685 16.0945 7.4833 16.0822 7.51255C16.0698 7.5418 16.0634 7.57324 16.0634 7.605C16.0634 7.63676 16.0698 7.6682 16.0822 7.69745C16.0945 7.7267 16.1127 7.75315 16.1355 7.77525V7.77525ZM7.7625 16.0845C7.8585 16.1782 8.0145 16.1782 8.1105 16.0845C8.2065 15.9907 8.2065 15.8378 8.1105 15.744C8.0638 15.6989 8.00142 15.6737 7.9365 15.6737C7.87158 15.6737 7.8092 15.6989 7.7625 15.744C7.73968 15.7661 7.72154 15.7926 7.70915 15.8218C7.69676 15.851 7.69038 15.8825 7.69038 15.9142C7.69038 15.946 7.69676 15.9775 7.70915 16.0067C7.72154 16.0359 7.73968 16.0624 7.7625 16.0845V16.0845ZM17.91 11.6992C17.91 11.832 18.021 11.9392 18.1567 11.9392C18.2211 11.9399 18.2832 11.9149 18.3292 11.87C18.3753 11.825 18.4018 11.7636 18.4028 11.6992C18.4025 11.6672 18.3959 11.6356 18.3833 11.6061C18.3708 11.5767 18.3526 11.55 18.3298 11.5275C18.3069 11.5051 18.2799 11.4874 18.2502 11.4754C18.2205 11.4635 18.1888 11.4575 18.1567 11.4578C18.1247 11.4575 18.093 11.4635 18.0633 11.4754C18.0336 11.4874 18.0066 11.5051 17.9837 11.5275C17.9609 11.55 17.9427 11.5767 17.9302 11.6061C17.9176 11.6356 17.911 11.6672 17.9108 11.6992H17.91ZM5.96625 11.6992C5.96625 11.832 6.0765 11.9392 6.213 11.9392C6.27739 11.9399 6.3394 11.9149 6.38549 11.87C6.43159 11.825 6.45801 11.7636 6.459 11.6992C6.45871 11.6672 6.45211 11.6356 6.43959 11.6061C6.42707 11.5767 6.40886 11.55 6.38602 11.5275C6.36318 11.5051 6.33614 11.4874 6.30645 11.4754C6.27677 11.4635 6.24501 11.4575 6.213 11.4578C6.18093 11.4574 6.14909 11.4633 6.11932 11.4752C6.08954 11.4872 6.06242 11.5048 6.0395 11.5273C6.01657 11.5497 5.9983 11.5765 5.98573 11.606C5.97316 11.6355 5.96654 11.6672 5.96625 11.6992V11.6992ZM12.1238 6.159C12.1883 6.1596 12.2504 6.1346 12.2965 6.08947C12.3426 6.04434 12.369 5.98277 12.3698 5.91825C12.3695 5.88618 12.3628 5.85448 12.3503 5.82497C12.3377 5.79546 12.3194 5.76872 12.2965 5.74628C12.2736 5.72385 12.2465 5.70616 12.2167 5.69422C12.1869 5.68229 12.1551 5.67635 12.123 5.67675C12.091 5.67645 12.0592 5.68246 12.0295 5.69444C11.9999 5.70642 11.9728 5.72412 11.95 5.74655C11.9271 5.76897 11.9089 5.79568 11.8964 5.82514C11.8839 5.8546 11.8773 5.88624 11.877 5.91825C11.877 6.051 11.9872 6.15825 12.123 6.15825L12.1238 6.159ZM12.1238 17.841C12.1881 17.8416 12.2502 17.8167 12.2962 17.7717C12.3423 17.7268 12.3688 17.6654 12.3698 17.601C12.3695 17.5689 12.3628 17.5372 12.3503 17.5077C12.3377 17.4782 12.3194 17.4515 12.2965 17.429C12.2736 17.4066 12.2465 17.3889 12.2167 17.377C12.1869 17.365 12.1551 17.3591 12.123 17.3595C12.0585 17.3589 11.9964 17.3839 11.9502 17.429C11.9041 17.4742 11.8778 17.5357 11.877 17.6002C11.877 17.733 11.9872 17.841 12.123 17.841H12.1238ZM19.7573 11.6985C19.7573 11.832 19.8683 11.94 20.004 11.94C20.0685 11.9406 20.1306 11.9156 20.1768 11.8705C20.2229 11.8253 20.2492 11.7638 20.25 11.6992C20.2497 11.6672 20.2431 11.6356 20.2306 11.6061C20.2181 11.5767 20.1999 11.55 20.177 11.5275C20.1542 11.5051 20.1271 11.4874 20.0975 11.4754C20.0678 11.4635 20.036 11.4575 20.004 11.4578C19.9719 11.4574 19.9401 11.4633 19.9103 11.4752C19.8805 11.4872 19.8534 11.5048 19.8305 11.5273C19.8076 11.5497 19.7893 11.5765 19.7767 11.606C19.7642 11.6355 19.7575 11.6672 19.7573 11.6992V11.6985ZM3.9345 11.5785C3.8325 11.5785 3.75 11.6595 3.75 11.7585C3.75 11.8575 3.8325 11.94 3.9345 11.94C4.0365 11.94 4.11975 11.859 4.11975 11.7592C4.11975 11.6595 4.03725 11.5785 3.9345 11.5785V11.5785ZM11.754 3.99075C11.754 4.1235 11.8643 4.2315 12 4.2315C12.1357 4.2315 12.246 4.1235 12.246 3.9915C12.246 3.858 12.1357 3.75 12 3.75C11.8643 3.75 11.754 3.858 11.754 3.99075V3.99075ZM19.0477 14.5695C19.0292 14.6134 19.0195 14.6606 19.0193 14.7083C19.0192 14.756 19.0285 14.8033 19.0468 14.8473C19.0651 14.8914 19.092 14.9313 19.1259 14.9649C19.1598 14.9984 19.2 15.0249 19.2443 15.0427C19.3341 15.0798 19.4349 15.0805 19.5253 15.0447C19.6157 15.0088 19.6886 14.9393 19.7288 14.8508C19.7474 14.8067 19.7572 14.7594 19.7573 14.7116C19.7575 14.6638 19.7481 14.6164 19.7298 14.5723C19.7114 14.5281 19.6844 14.4881 19.6503 14.4545C19.6163 14.4209 19.5759 14.3945 19.5315 14.3768C19.4417 14.3394 19.3408 14.3386 19.2504 14.3746C19.16 14.4107 19.0873 14.4806 19.0477 14.5695V14.5695ZM15.0502 18.462C14.9902 18.4376 14.9231 18.4375 14.863 18.4615C14.8029 18.4856 14.7544 18.532 14.7277 18.591C14.7154 18.6201 14.709 18.6513 14.709 18.6829C14.709 18.7144 14.7154 18.7457 14.7277 18.7748C14.7469 18.819 14.7784 18.8567 14.8186 18.8833C14.8588 18.9099 14.9058 18.9243 14.954 18.9246C15.0022 18.9249 15.0494 18.9112 15.09 18.8851C15.1305 18.859 15.1626 18.8217 15.1823 18.7778C15.1947 18.7487 15.2012 18.7175 15.2014 18.686C15.2015 18.6544 15.1952 18.6231 15.183 18.594C15.1707 18.5645 15.1528 18.5377 15.1301 18.5152C15.1075 18.4927 15.0806 18.4748 15.051 18.4628L15.0502 18.462ZM4.8315 8.46675C4.77122 8.44211 4.70373 8.44184 4.64325 8.466C4.61345 8.47755 4.58624 8.4949 4.56319 8.51704C4.54015 8.53919 4.52173 8.56568 4.509 8.595C4.4963 8.62406 4.48962 8.65539 4.48936 8.6871C4.48911 8.71881 4.49528 8.75024 4.5075 8.7795C4.5266 8.82374 4.55817 8.86147 4.59835 8.88807C4.63853 8.91468 4.68558 8.92901 4.73377 8.92933C4.78196 8.92965 4.8292 8.91593 4.86972 8.88986C4.91025 8.86379 4.94231 8.82648 4.962 8.7825C4.9747 8.75344 4.98138 8.72211 4.98164 8.6904C4.98189 8.65869 4.97572 8.62726 4.9635 8.598C4.95124 8.5685 4.93326 8.54172 4.91061 8.51919C4.88796 8.49666 4.86107 8.47884 4.8315 8.46675V8.46675ZM4.1445 14.6542C4.12897 14.6908 4.12089 14.7301 4.12073 14.7698C4.12056 14.8095 4.12832 14.8488 4.14355 14.8855C4.15877 14.9221 4.18116 14.9554 4.2094 14.9833C4.23763 15.0112 4.27116 15.0332 4.308 15.048C4.4655 15.1125 4.6455 15.0405 4.7115 14.8882C4.72715 14.8517 4.73532 14.8123 4.73555 14.7725C4.73577 14.7328 4.72804 14.6933 4.71281 14.6566C4.69757 14.6198 4.67515 14.5865 4.64684 14.5585C4.61854 14.5306 4.58494 14.5085 4.548 14.4938C4.4732 14.4624 4.38911 14.4616 4.31371 14.4914C4.2383 14.5213 4.17757 14.5795 4.1445 14.6535V14.6542ZM14.8973 4.689C15.0533 4.7535 15.2347 4.6815 15.3 4.5285C15.3156 4.49192 15.3238 4.45258 15.324 4.4128C15.3243 4.37301 15.3165 4.33358 15.3013 4.29683C15.2861 4.26007 15.2636 4.22674 15.2353 4.19877C15.207 4.17081 15.1734 4.14879 15.1365 4.134C15.0616 4.10271 14.9774 4.10198 14.902 4.13198C14.8266 4.16198 14.7659 4.22032 14.733 4.2945C14.667 4.4475 14.7405 4.6245 14.8973 4.689ZM19.503 8.33925C19.4806 8.34804 19.4602 8.36118 19.443 8.37792C19.4257 8.39466 19.412 8.41465 19.4025 8.43675C19.3931 8.45851 19.3881 8.48195 19.388 8.50567C19.3879 8.52939 19.3925 8.55289 19.4017 8.57475C19.4162 8.60784 19.44 8.63603 19.4701 8.6559C19.5003 8.67578 19.5355 8.68648 19.5716 8.68672C19.6078 8.68696 19.6432 8.67672 19.6736 8.65725C19.704 8.63777 19.7281 8.6099 19.743 8.577C19.7523 8.55501 19.7571 8.53139 19.7572 8.50751C19.7573 8.48364 19.7527 8.45998 19.7435 8.43792C19.7344 8.41587 19.7209 8.39585 19.704 8.37904C19.687 8.36223 19.6669 8.34896 19.6448 8.34C19.5995 8.32105 19.5485 8.32078 19.503 8.33925V8.33925ZM8.69025 4.4625C8.68092 4.48444 8.67605 4.50802 8.67591 4.53186C8.67578 4.5557 8.68037 4.57934 8.68945 4.60139C8.69852 4.62344 8.71188 4.64346 8.72875 4.66031C8.74563 4.67715 8.76568 4.69047 8.78775 4.6995C8.83279 4.71798 8.88325 4.71821 8.92846 4.70016C8.97367 4.6821 9.01008 4.64717 9.03 4.60275C9.03931 4.58086 9.04417 4.55734 9.0443 4.53355C9.04443 4.50976 9.03983 4.48619 9.03075 4.4642C9.02168 4.44221 9.00831 4.42224 8.99145 4.40547C8.97458 4.3887 8.95454 4.37545 8.9325 4.3665C8.88762 4.34738 8.837 4.34673 8.79164 4.36471C8.74629 4.38268 8.70985 4.41782 8.69025 4.4625V4.4625ZM8.7375 18.684C8.70126 18.6838 8.66575 18.6941 8.63536 18.7139C8.60496 18.7336 8.58102 18.7618 8.5665 18.795C8.55733 18.817 8.55263 18.8406 8.55265 18.8644C8.55267 18.8882 8.55743 18.9118 8.56664 18.9338C8.57584 18.9558 8.58933 18.9757 8.6063 18.9924C8.62327 19.0092 8.64339 19.0224 8.6655 19.0312C8.71032 19.0499 8.76067 19.0504 8.8058 19.0324C8.85092 19.0145 8.88724 18.9796 8.907 18.9352C8.91631 18.9134 8.92117 18.8898 8.9213 18.866C8.92143 18.8423 8.91682 18.8187 8.90775 18.7967C8.89868 18.7747 8.88531 18.7547 8.86845 18.738C8.85158 18.7212 8.83154 18.7079 8.8095 18.699C8.78674 18.6892 8.76226 18.6841 8.7375 18.684V18.684ZM17.469 17.409C17.4918 17.3869 17.51 17.3604 17.5223 17.3312C17.5347 17.302 17.5411 17.2705 17.5411 17.2388C17.5411 17.207 17.5347 17.1755 17.5223 17.1463C17.51 17.1171 17.4918 17.0906 17.469 17.0685C17.4225 17.0231 17.36 16.9977 17.295 16.998C17.2297 16.9975 17.1669 17.0229 17.1202 17.0685C17.0973 17.0906 17.0791 17.1171 17.0666 17.1464C17.0542 17.1757 17.0477 17.2073 17.0477 17.2391C17.0477 17.271 17.0542 17.3025 17.0666 17.3318C17.0791 17.3611 17.0973 17.3876 17.1202 17.4097C17.167 17.4551 17.2295 17.4804 17.2946 17.4804C17.3597 17.4804 17.4223 17.4551 17.469 17.4097V17.409ZM5.95125 6.02475C5.91712 6.05795 5.88999 6.09765 5.87146 6.14152C5.85294 6.18538 5.84339 6.23251 5.84339 6.28012C5.84339 6.32774 5.85294 6.37487 5.87146 6.41873C5.88999 6.4626 5.91712 6.5023 5.95125 6.5355C6.02097 6.60407 6.11484 6.64249 6.21262 6.64249C6.31041 6.64249 6.40428 6.60407 6.474 6.5355C6.50813 6.5023 6.53526 6.4626 6.55379 6.41873C6.57231 6.37487 6.58186 6.32774 6.58186 6.28012C6.58186 6.23251 6.57231 6.18538 6.55379 6.14152C6.53526 6.09765 6.50813 6.05795 6.474 6.02475C6.40391 5.95689 6.31018 5.91895 6.21262 5.91895C6.11507 5.91895 6.02134 5.95689 5.95125 6.02475V6.02475ZM17.595 6.09225C17.5779 6.10882 17.5644 6.12864 17.5551 6.15054C17.5459 6.17244 17.5411 6.19597 17.5411 6.21975C17.5411 6.24353 17.5459 6.26706 17.5551 6.28896C17.5644 6.31086 17.5779 6.33068 17.595 6.34725C17.63 6.38138 17.677 6.40048 17.7259 6.40048C17.7748 6.40048 17.8217 6.38138 17.8568 6.34725C17.8737 6.33063 17.8872 6.31079 17.8964 6.2889C17.9056 6.26701 17.9103 6.2435 17.9103 6.21975C17.9103 6.196 17.9056 6.17249 17.8964 6.1506C17.8872 6.12871 17.8737 6.10887 17.8568 6.09225C17.8219 6.05776 17.7749 6.03842 17.7259 6.03842C17.6769 6.03842 17.6298 6.05776 17.595 6.09225V6.09225ZM6.02025 17.0513C6.0032 17.0678 5.98964 17.0876 5.98038 17.1095C5.97112 17.1314 5.96635 17.155 5.96635 17.1788C5.96635 17.2025 5.97112 17.2261 5.98038 17.248C5.98964 17.2699 6.0032 17.2897 6.02025 17.3063C6.05527 17.3404 6.10223 17.3595 6.15112 17.3595C6.20002 17.3595 6.24699 17.3404 6.282 17.3063C6.29906 17.2897 6.31261 17.2699 6.32187 17.248C6.33113 17.2261 6.3359 17.2025 6.3359 17.1788C6.3359 17.155 6.33113 17.1314 6.32187 17.1095C6.31261 17.0876 6.29906 17.0678 6.282 17.0513C6.24675 17.0168 6.20025 16.9988 6.15075 16.9988C6.10125 16.9988 6.0555 17.0168 6.02025 17.0513ZM12.0615 20.25C12.2318 20.25 12.369 20.115 12.369 19.9493C12.3686 19.9093 12.3603 19.8697 12.3447 19.8329C12.329 19.7962 12.3063 19.7628 12.2777 19.7348C12.2491 19.7068 12.2154 19.6847 12.1783 19.6698C12.1412 19.6548 12.1015 19.6474 12.0615 19.6478C11.8913 19.6478 11.754 19.7828 11.754 19.9493C11.754 20.115 11.8913 20.25 12.0615 20.25Z" fill="black"/>
</svg>
