<svg width="48" height="48" viewBox="0 0 24 24" fill="none" xmlns="http://www.w3.org/2000/svg">
<path d="M12 24C5.37225 24 0 18.6277 0 12C0 5.37225 5.37225 0 12 0C18.6277 0 24 5.37225 24 12C24 18.6277 18.6277 24 12 24ZM11.82 11.0295V7.812H10.329V11.0535H9.2325V4.5H7.125V19.5H9.2325V12.6503H10.329V15.4598H11.8207V12.6622C12.0652 12.678 12.2708 12.7403 12.432 12.8453C12.594 12.9503 12.744 13.1258 12.882 13.3718L15.5535 18.8843C15.786 19.2938 16.0942 19.5 16.4767 19.5H18.375L15.1155 12.9938C14.898 12.6113 14.6655 12.3157 14.421 12.105C14.1559 11.8827 13.8426 11.7252 13.506 11.6453C13.7385 11.5635 13.9515 11.4427 14.145 11.283C14.334 11.1232 14.5042 10.917 14.6542 10.6635L18.0397 4.5H16.3148C16.1183 4.5 15.9397 4.55475 15.7897 4.65975C15.634 4.77405 15.5026 4.91839 15.4035 5.08425L12.6848 10.3245C12.5625 10.5585 12.432 10.7295 12.2947 10.8307C12.1544 10.933 11.9921 11.0011 11.8207 11.0295H11.82Z" fill="black"/>
</svg>
