<svg width="48" height="48" viewBox="0 0 24 24" fill="none" xmlns="http://www.w3.org/2000/svg">
<path fill-rule="evenodd" clip-rule="evenodd" d="M18.132 12.888L11.8545 16.7745L5.26425 13.482V11.547L12.2272 7.1925L18.4635 10.2345V10.5067L11.8538 14.6138L6.792 12.1042L6.459 12.7762L11.8943 15.471L19.2135 10.9237V9.76575L12.1823 6.336L4.515 11.1315V13.9455L11.8943 17.6325L18.5483 13.5128L18.387 14.1592L19.1145 14.3408L19.5803 12.477L17.7165 12.0112L17.535 12.7388L18.132 12.888ZM12 24C5.37225 24 0 18.6277 0 12C0 5.37225 5.37225 0 12 0C18.6277 0 24 5.37225 24 12C24 18.6277 18.6277 24 12 24Z" fill="black"/>
</svg>
