<svg width="24" height="24" viewBox="0 0 24 24" fill="none" xmlns="http://www.w3.org/2000/svg">
<path d="M12 24C18.6274 24 24 18.6274 24 12C24 5.37258 18.6274 0 12 0C5.37258 0 0 5.37258 0 12C0 18.6274 5.37258 24 12 24Z" fill="#006149"/>
<path d="M18.132 12.888L17.5343 12.7387L17.7158 12.0112L19.5795 12.477L19.1145 14.3407L18.3863 14.1592L18.5475 13.5127L11.8935 17.6325L4.51425 13.9455V11.1315L12.1823 6.336L19.2135 9.76575V10.9237L11.8943 15.471L6.459 12.7762L6.792 12.1042L11.8538 14.6137L18.4635 10.5067V10.2345L12.2273 7.1925L5.265 11.547V13.482L11.8553 16.7745L18.132 12.888Z" fill="white"/>
</svg>
