<svg width="48" height="48" viewBox="0 0 24 24" fill="none" xmlns="http://www.w3.org/2000/svg">
<path d="M12 24C5.37225 24 0 18.6277 0 12C0 5.37225 5.37225 0 12 0C18.6277 0 24 5.37225 24 12C24 18.6277 18.6277 24 12 24ZM12.8602 15.3345L8.75475 11.0595L7.5 12.3375L10.44 15.3337L7.60725 18.2205L8.77275 19.5L12.8602 15.3345ZM15.2452 12.9412L16.5 11.6617L13.56 8.6655L16.3928 5.77875L15.2272 4.5L11.1218 8.6655L15.2452 12.9412ZM9.27525 10.566L13.3987 14.841L14.6535 13.5623L10.53 9.36L9.27525 10.566Z" fill="black"/>
</svg>
