<svg width="24" height="24" viewBox="0 0 24 24" fill="none" xmlns="http://www.w3.org/2000/svg">
<path d="M12 24C18.6274 24 24 18.6274 24 12C24 5.37258 18.6274 0 12 0C5.37258 0 0 5.37258 0 12C0 18.6274 5.37258 24 12 24Z" fill="#01A6FB"/>
<path fill-rule="evenodd" clip-rule="evenodd" d="M11.25 13.9635V15.75C11.25 15.9489 11.329 16.1397 11.4697 16.2803C11.6103 16.421 11.8011 16.5 12 16.5C12.1989 16.5 12.3897 16.421 12.5303 16.2803C12.671 16.1397 12.75 15.9489 12.75 15.75V13.9635C12.9198 13.8116 13.0395 13.6117 13.0933 13.3903C13.147 13.1689 13.1322 12.9364 13.0509 12.7235C12.9696 12.5107 12.8256 12.3276 12.638 12.1984C12.4503 12.0692 12.2278 12 12 12C11.7722 12 11.5497 12.0692 11.362 12.1984C11.1744 12.3276 11.0304 12.5107 10.9491 12.7235C10.8678 12.9364 10.853 13.1689 10.9067 13.3903C10.9605 13.6117 11.0802 13.8116 11.25 13.9635V13.9635ZM7.5 10.5V9C7.5 7.80653 7.97411 6.66193 8.81802 5.81802C9.66193 4.97411 10.8065 4.5 12 4.5C13.1935 4.5 14.3381 4.97411 15.182 5.81802C16.0259 6.66193 16.5 7.80653 16.5 9V10.5C16.6989 10.5 16.8897 10.579 17.0303 10.7197C17.171 10.8603 17.25 11.0511 17.25 11.25V17.25C17.25 17.4489 17.171 17.6397 17.0303 17.7803C16.8897 17.921 16.6989 18 16.5 18H7.5C7.30109 18 7.11032 17.921 6.96967 17.7803C6.82902 17.6397 6.75 17.4489 6.75 17.25V11.25C6.75 11.0511 6.82902 10.8603 6.96967 10.7197C7.11032 10.579 7.30109 10.5 7.5 10.5V10.5ZM16.5 10.5H9.375V9.075C9.375 7.584 10.5503 6.375 12 6.375C13.4497 6.375 14.625 7.584 14.625 9.075V10.5H12H16.5Z" fill="white"/>
</svg>
