<svg width="48" height="48" viewBox="0 0 24 24" fill="none" xmlns="http://www.w3.org/2000/svg">
<path d="M18.69 11.715L19.1033 11.4247C19.102 11.4233 19.1007 11.4218 19.0995 11.4203L19.6223 11.055C20.041 10.7612 20.3828 10.3708 20.6187 9.917C20.8547 9.46315 20.9779 8.95915 20.9779 8.44763C20.9779 7.9361 20.8547 7.4321 20.6187 6.97825C20.3828 6.52441 20.041 6.13407 19.6223 5.84025L19.6282 5.84775L16.6575 3.765L12.9825 6.33675L13.968 7.0305L16.653 5.15175L18.9705 6.777C19.2403 6.96568 19.4607 7.21668 19.6128 7.50869C19.765 7.8007 19.8444 8.12511 19.8444 8.45438C19.8444 8.78364 19.765 9.10805 19.6128 9.40006C19.4607 9.69207 19.2403 9.94307 18.9705 10.1317L17.6978 11.0197L7.335 3.75L4.35675 5.84325C3.93803 6.13707 3.59623 6.52741 3.36026 6.98125C3.12429 7.4351 3.00109 7.9391 3.00109 8.45062C3.00109 8.96215 3.12429 9.46615 3.36026 9.92C3.59623 10.3738 3.93803 10.7642 4.35675 11.058L5.2875 11.7112L5.0595 11.8718L5.06325 11.877L4.35675 12.3705C3.93803 12.6643 3.59623 13.0547 3.36026 13.5085C3.12429 13.9624 3.00109 14.4664 3.00109 14.9779C3.00109 15.4894 3.12429 15.9934 3.36026 16.4472C3.59623 16.9011 3.93803 17.2914 4.35675 17.5853L7.3245 19.6695L10.9973 17.0978L10.0117 16.4033L7.32225 18.2828L5.00475 16.6575C4.73491 16.4688 4.51457 16.2178 4.36243 15.9258C4.2103 15.6338 4.13086 15.3094 4.13086 14.9801C4.13086 14.6509 4.2103 14.3265 4.36243 14.0344C4.51457 13.7424 4.73491 13.4914 5.00475 13.3027L6.2835 12.4103L16.6455 19.6793L19.6245 17.5853C20.0432 17.2914 20.385 16.9011 20.621 16.4472C20.857 15.9934 20.9802 15.4894 20.9802 14.9779C20.9802 14.4664 20.857 13.9624 20.621 13.5085C20.385 13.0547 20.0432 12.6643 19.6245 12.3705L18.6893 11.715H18.69ZM17.6955 12.4125L18.9683 13.305C19.2381 13.4937 19.4584 13.7447 19.6106 14.0367C19.7627 14.3287 19.8421 14.6531 19.8421 14.9824C19.8421 15.3116 19.7627 15.636 19.6106 15.9281C19.4584 16.2201 19.2381 16.4711 18.9683 16.6597L16.6478 18.2828L7.28025 11.715L11.0048 9.1155L10.0147 8.4195L9.7395 8.6115L9.732 8.60025L6.282 11.0153L5.01225 10.125C4.74241 9.93632 4.52207 9.68532 4.36993 9.39331C4.2178 9.1013 4.13836 8.77689 4.13836 8.44763C4.13836 8.11836 4.2178 7.79395 4.36993 7.50194C4.52207 7.20993 4.74241 6.95893 5.01225 6.77025L7.332 5.14725L16.701 11.715L12.9705 14.3182L13.9567 15.0128L16.7393 13.0687L16.7468 13.0778L17.6955 12.4125V12.4125ZM12 24C5.37225 24 0 18.6277 0 12C0 5.37225 5.37225 0 12 0C18.6277 0 24 5.37225 24 12C24 18.6277 18.6277 24 12 24Z" fill="black"/>
</svg>
