<svg width="24" height="24" viewBox="0 0 24 24" fill="none" xmlns="http://www.w3.org/2000/svg">
<path d="M12 24C18.6274 24 24 18.6274 24 12C24 5.37258 18.6274 0 12 0C5.37258 0 0 5.37258 0 12C0 18.6274 5.37258 24 12 24Z" fill="#0D4EA0"/>
<path d="M10.6867 18.7185C10.6762 18.729 10.6552 18.7395 10.6447 18.75H9.48075C9.45975 18.75 9.44925 18.7395 9.43875 18.729L6.0075 14.853C6.0025 14.8434 5.99989 14.8327 5.99989 14.8219C5.99989 14.811 6.0025 14.8004 6.0075 14.7908L10.281 7.4145C10.302 7.38375 10.3537 7.38375 10.3747 7.4145L11.5702 9.483C11.5807 9.4935 11.5807 9.5145 11.5702 9.5355L8.67975 14.5192C8.66925 14.5395 8.67975 14.5605 8.69025 14.5815L10.416 16.5248C10.4275 16.5359 10.4422 16.5432 10.458 16.5458H12.4957C12.5482 16.5458 12.5685 16.5983 12.537 16.629L10.6867 18.7185ZM11.9542 4.5315C11.976 4.4895 12.0277 4.4895 12.0382 4.5315L17.9955 14.769C18.006 14.7907 17.9955 14.8117 17.985 14.832L14.5545 18.708C14.543 18.7191 14.5283 18.7264 14.5125 18.729H11.7262C11.6737 18.729 11.6535 18.6765 11.685 18.6458L13.5457 16.5353L15.2925 14.571C15.3135 14.55 15.3135 14.529 15.303 14.5087L11.9962 8.80425L10.749 6.65175C10.7385 6.642 10.7385 6.621 10.749 6.59925L11.9542 4.5315Z" fill="white"/>
</svg>
