<svg width="24" height="24" viewBox="0 0 24 24" fill="none" xmlns="http://www.w3.org/2000/svg">
<path d="M12 24C18.6274 24 24 18.6274 24 12C24 5.37258 18.6274 0 12 0C5.37258 0 0 5.37258 0 12C0 18.6274 5.37258 24 12 24Z" fill="#F55749"/>
<path d="M11.8597 4.536C11.9024 4.51215 11.9504 4.49963 11.9992 4.49963C12.0481 4.49963 12.0961 4.51215 12.1387 4.536L18.3075 7.9995C18.3496 8.02276 18.3848 8.05686 18.4093 8.09826C18.4338 8.13967 18.4468 8.18687 18.447 8.235C18.447 8.3325 18.3945 8.4225 18.3082 8.4705L12.942 11.496C12.7527 11.2809 12.4949 11.1378 12.2123 11.091V9.44625C12.7935 9.3495 13.2368 8.8575 13.2368 8.26275C13.2368 7.599 12.6847 7.0605 12.003 7.0605C11.3212 7.0605 10.7693 7.599 10.7693 8.26275C10.7693 8.85375 11.208 9.34425 11.7848 9.44475V11.0932C11.5059 11.1412 11.2519 11.2831 11.0648 11.4952L5.69925 8.4825C5.65697 8.45943 5.62168 8.42542 5.59706 8.38403C5.57245 8.34263 5.55942 8.29538 5.55934 8.24722C5.55926 8.19906 5.57214 8.15177 5.59662 8.11029C5.62111 8.06882 5.6563 8.0347 5.6985 8.0115L11.8605 4.53825L11.8597 4.536ZM18.3255 8.901C18.368 8.8769 18.416 8.86417 18.4649 8.86404C18.5138 8.86391 18.5619 8.87638 18.6045 8.90025C18.6467 8.92353 18.6819 8.95762 18.7065 8.999C18.7312 9.04039 18.7444 9.08758 18.7448 9.13575L18.75 15.8602C18.75 15.9577 18.6975 16.047 18.6105 16.0957L12.6368 19.4632C12.4515 19.5682 12.219 19.437 12.219 19.2277L12.2137 13.458C12.5032 13.41 12.7657 13.2622 12.954 13.0417L14.4465 13.878C14.4054 14.0315 14.3959 14.1917 14.4188 14.349C14.5133 15.0067 15.138 15.4642 15.8123 15.372C16.4873 15.279 16.9567 14.6707 16.8622 14.013C16.7677 13.3552 16.1423 12.8977 15.468 12.9907C15.3004 13.0132 15.1392 13.0698 14.9945 13.1572C14.8497 13.2445 14.7245 13.3607 14.6265 13.4985L13.164 12.6787C13.269 12.4005 13.2615 12.0937 13.1453 11.82L18.3262 8.8995L18.3255 8.901ZM5.256 9.135C5.256 8.976 5.3895 8.86275 5.535 8.86275C5.58375 8.86275 5.6325 8.8755 5.6745 8.90025L10.8607 11.8237C10.746 12.0967 10.74 12.4012 10.8435 12.6787L9.38175 13.4985C9.28376 13.3607 9.1585 13.2446 9.01374 13.1572C8.86898 13.0699 8.70782 13.0132 8.54025 12.9907C7.86525 12.8977 7.242 13.356 7.14675 14.013C7.0515 14.67 7.52175 15.2782 8.19675 15.3712C8.87175 15.4642 9.49425 15.006 9.59025 14.349C9.61318 14.1915 9.60374 14.031 9.5625 13.8772L11.0543 13.041C11.241 13.26 11.5005 13.407 11.787 13.4565L11.7825 19.2277C11.7825 19.437 11.55 19.5675 11.364 19.4625L5.3895 16.095C5.34737 16.0717 5.31222 16.0376 5.2877 15.9962C5.26317 15.9548 5.25015 15.9076 5.25 15.8595L5.256 9.135" fill="white"/>
</svg>
