<svg width="48" height="48" viewBox="0 0 24 24" fill="none" xmlns="http://www.w3.org/2000/svg">
<path d="M12 24C5.37225 24 0 18.6277 0 12C0 5.37225 5.37225 0 12 0C18.6277 0 24 5.37225 24 12C24 18.6277 18.6277 24 12 24ZM11.8597 4.536V4.5375L5.69775 8.01C5.65551 8.03313 5.62027 8.0672 5.59572 8.10863C5.57117 8.15007 5.55822 8.19734 5.55822 8.2455C5.55822 8.29366 5.57117 8.34093 5.59572 8.38237C5.62027 8.4238 5.65551 8.45787 5.69775 8.481L11.0648 11.4945C11.25 11.2838 11.5043 11.142 11.7848 11.0925V9.444C11.2073 9.3435 10.7693 8.853 10.7693 8.262C10.7693 7.59825 11.3212 7.05975 12.003 7.05975C12.6847 7.05975 13.2368 7.59825 13.2368 8.262C13.2368 8.85675 12.7943 9.3495 12.2123 9.4455V11.0902C12.4958 11.1382 12.7545 11.2807 12.942 11.4952L18.3082 8.46975C18.3502 8.44639 18.3852 8.41225 18.4096 8.37085C18.434 8.32946 18.4469 8.2823 18.447 8.23425C18.4468 8.18613 18.4338 8.13892 18.4093 8.09751C18.3848 8.05611 18.3496 8.02201 18.3075 7.99875L12.1387 4.53525C12.0961 4.5114 12.0481 4.49888 11.9992 4.49888C11.9504 4.49888 11.9024 4.5114 11.8597 4.53525V4.536ZM18.3248 8.90025L18.3262 8.8995L13.1453 11.82C13.2615 12.0938 13.2682 12.4005 13.1647 12.6788L14.6273 13.4985C14.8223 13.221 15.1275 13.0372 15.468 12.9907C16.143 12.8977 16.767 13.356 16.8622 14.013C16.9575 14.67 16.4873 15.279 15.8123 15.372C15.1373 15.4643 14.5133 15.0067 14.4188 14.349C14.3959 14.1917 14.4054 14.0315 14.4465 13.878L12.954 13.0417C12.7665 13.2622 12.504 13.4093 12.2137 13.458L12.219 19.2277C12.219 19.4377 12.4515 19.5683 12.6368 19.4633L18.6105 16.0958C18.6526 16.0725 18.6878 16.0384 18.7123 15.997C18.7368 15.9556 18.7498 15.9084 18.75 15.8602L18.744 9.135C18.7438 9.0868 18.7306 9.03954 18.706 8.99813C18.6813 8.95672 18.646 8.92266 18.6038 8.8995C18.5613 8.87565 18.5134 8.86313 18.4646 8.86313C18.4159 8.86313 18.368 8.87565 18.3255 8.8995L18.3248 8.90025ZM5.256 9.135L5.25 15.8595C5.25 15.957 5.3025 16.047 5.3895 16.095L11.364 19.4625C11.5493 19.5675 11.7825 19.437 11.7825 19.2277L11.787 13.4565C11.5018 13.4077 11.2426 13.2607 11.0543 13.041L9.56175 13.8773C9.60375 14.031 9.61275 14.1922 9.59025 14.349C9.495 15.006 8.87025 15.4643 8.196 15.3713C7.52175 15.2783 7.0515 14.67 7.146 14.013C7.242 13.356 7.866 12.8977 8.541 12.9907C8.8815 13.0372 9.186 13.2217 9.38175 13.4985L10.8435 12.6795C10.74 12.402 10.746 12.0968 10.8607 11.8238L5.6745 8.90025C5.63206 8.87582 5.58397 8.86289 5.535 8.86275C5.46193 8.86195 5.39152 8.89016 5.33922 8.9412C5.28692 8.99223 5.25699 9.06193 5.256 9.135V9.135Z" fill="black"/>
</svg>
