<svg width="48" height="48" viewBox="0 0 24 24" fill="none" xmlns="http://www.w3.org/2000/svg">
<path d="M12 24C5.37225 24 0 18.6277 0 12C0 5.37225 5.37225 0 12 0C18.6277 0 24 5.37225 24 12C24 18.6277 18.6277 24 12 24ZM12 3.75C7.45425 3.75 3.75 7.45425 3.75 12C3.75 16.5457 7.45425 20.25 12 20.25C16.5457 20.25 20.25 16.5457 20.25 12C20.25 7.45425 16.5457 3.75 12 3.75ZM18.6412 11.1667L17.9318 11.2905L16.9088 9.8715H16.5787C16.8037 9.44242 16.9142 8.96257 16.8995 8.47832C16.8849 7.99407 16.7456 7.52178 16.4951 7.10708C16.2446 6.69238 15.8914 6.34929 15.4697 6.11095C15.0479 5.87261 14.5717 5.74709 14.0873 5.7465C12.5363 5.7465 11.2657 7.0005 11.2657 8.5515C11.2657 9.8385 12.1403 10.9275 13.32 11.2657L13.2787 11.307L12.8745 11.5132L12.2145 11.274L11.5627 10.8945L10.647 12.0495L9.91275 11.6453L8.502 12.0082L7.7925 9.68175H6.06L4.79775 11.8928L4.41 11.901C4.4595 7.7595 7.85025 4.41 12 4.41C16.1828 4.41 19.59 7.81725 19.59 12V12.2393L18.6412 11.1667V11.1667ZM12 19.59C8.77425 19.59 6.0105 17.5687 4.91325 14.7225C5.12775 14.7225 5.35875 14.7308 5.58975 14.7308C5.7135 14.7653 5.841 14.7818 5.96925 14.7803C6.0765 14.7803 6.18375 14.772 6.2745 14.7473C6.327 14.7458 6.3795 14.7487 6.43125 14.7555C6.41475 14.805 6.41475 14.8215 6.41475 14.838C6.41475 15.201 6.8025 15.465 7.33875 15.465C7.8585 15.465 8.238 15.2175 8.2545 14.871L8.51025 14.8958C10.7048 15.135 10.8532 15.531 10.8532 15.5475C10.8615 15.5805 10.812 15.7537 10.3665 16.0507C9.43425 16.6942 9.1125 17.082 9.195 17.4863C9.294 17.973 9.92925 18.0968 10.8945 18.2783C11.1668 18.3278 11.472 18.3855 11.7855 18.4598C12.132 18.534 12.5032 18.6082 12.858 18.6825C13.5015 18.8145 14.1615 18.9465 14.6895 19.1033C13.8296 19.4261 12.9185 19.591 12 19.59V19.59ZM15.531 18.7155C14.9123 18.4103 13.9718 18.2288 12.9818 18.0308C12.629 17.9632 12.2769 17.8917 11.9258 17.8162C11.6221 17.7478 11.3168 17.6873 11.01 17.6348C10.5645 17.5523 10.0283 17.445 9.855 17.346C9.91275 17.2553 10.0943 17.0408 10.7378 16.6035C10.9688 16.4468 11.67 15.9682 11.4803 15.3577C11.307 14.7885 10.4078 14.442 8.57625 14.244C8.41125 14.2275 8.238 14.211 8.0565 14.1945C7.96575 13.9223 7.83375 13.5345 7.644 12.9735L7.3305 12.0577L7.017 12.9735C6.90975 13.2788 6.82725 13.5262 6.753 13.7407C6.6705 13.4767 6.522 13.0477 6.26625 12.3052L5.9775 11.373L5.664 12.2888C5.235 13.5428 5.11125 13.914 5.07825 14.0543H4.69875C4.56412 13.5659 4.47573 13.0659 4.43475 12.561L5.19375 12.5363L6.44775 10.3417H7.314L8.06475 12.8085L9.83025 12.3547L10.2345 12.5775L9.3765 13.6583L9.89625 14.0707L11.7278 11.7525L11.9423 11.8763L12.9323 12.2393L13.3613 12.0165C13.2788 12.1897 13.2292 12.3795 13.2292 12.5775C13.2292 12.7755 13.353 13.1963 14.2935 13.353C14.5928 13.4018 14.8125 13.6605 14.8132 13.9635V15.036C14.6756 14.9396 14.5258 14.8619 14.3677 14.805H14.376C14.013 14.6895 13.6748 14.5162 13.5675 14.1615C13.485 14.4502 13.254 14.6153 12.957 14.7308C12.1897 14.937 11.637 15.5145 11.637 16.1993C11.637 16.4468 11.8268 17.0325 13.551 17.0325C15.2835 17.0325 15.465 16.4468 15.465 16.1993V14.904C15.5805 14.9452 15.7125 14.9782 15.8693 15.003C16.1685 15.0517 16.3882 15.3105 16.389 15.6135V16.356C16.389 16.5293 16.5127 16.686 16.686 16.7025C16.7319 16.7064 16.7781 16.7008 16.8217 16.6861C16.8653 16.6713 16.9054 16.6477 16.9395 16.6167C16.9736 16.5857 17.0009 16.5481 17.0198 16.506C17.0386 16.464 17.0485 16.4186 17.049 16.3725V15.6135C17.0494 15.4667 17.1018 15.3248 17.197 15.213C17.2921 15.1012 17.4239 15.0268 17.5687 15.003C18.5092 14.8462 18.633 14.4337 18.633 14.2275C18.633 13.6747 18.27 13.1963 17.7338 12.924H17.742C17.7338 12.924 17.7255 12.9158 17.709 12.9158C17.6182 12.8663 17.511 12.8332 17.412 12.8002C17.2666 12.7318 17.1394 12.6301 17.0408 12.5032C16.9995 11.9175 16.5622 11.4225 15.9352 11.1833H15.927C15.8858 11.1668 15.8445 11.1585 15.8032 11.142C15.4897 11.0265 15.2175 10.8533 15.1268 10.548C15.0278 10.8863 14.739 11.0595 14.3677 11.175C14.343 11.1832 14.31 11.1915 14.2853 11.208L15.3165 10.1107L15.9352 10.944L16.4302 10.548H16.554L17.6265 12.0248L18.3855 11.8928L19.4993 13.155C19.1363 15.564 17.6265 17.61 15.531 18.7155V18.7155ZM14.805 16.1498C14.6895 16.2323 14.2605 16.3643 13.551 16.3643C12.8415 16.3643 12.4125 16.2323 12.297 16.1498C12.33 15.6878 12.891 15.3082 13.551 15.3082C14.211 15.3082 14.772 15.6878 14.805 16.1498ZM16.7272 13.3365C17.3872 13.3365 17.9483 13.716 17.9813 14.178C17.8658 14.2605 17.4285 14.3925 16.7272 14.3925C16.026 14.3925 15.5888 14.2605 15.4733 14.178C15.5063 13.716 16.0672 13.3365 16.7272 13.3365ZM16.389 12.528C16.2735 12.6105 15.8363 12.7425 15.135 12.7425C14.4338 12.7425 13.9965 12.6105 13.881 12.528C13.914 12.066 14.475 11.6865 15.135 11.6865C15.795 11.6865 16.356 12.066 16.389 12.528ZM15.8857 9.73125L15.3907 9.063L13.8563 10.7047C13.3084 10.6449 12.8043 10.3775 12.4475 9.95743C12.0907 9.53739 11.9084 8.99664 11.9379 8.44632C11.9675 7.896 12.2068 7.37791 12.6065 6.99853C13.0063 6.61914 13.5361 6.40729 14.0873 6.4065C14.6582 6.4069 15.2057 6.63388 15.6094 7.03761C16.0131 7.44134 16.2401 7.98879 16.2405 8.55975C16.2394 8.97655 16.1161 9.38387 15.8857 9.73125V9.73125ZM7.12425 14.772L7.347 14.1038L7.56975 14.772C7.42425 14.8162 7.26975 14.8162 7.12425 14.772V14.772ZM5.763 14.0707C5.8125 13.9222 5.88675 13.683 5.9775 13.4272C6.06825 13.6912 6.15075 13.9305 6.192 14.079C6.0435 14.079 5.90325 14.0707 5.763 14.0707V14.0707ZM8.931 9.6405C9.43814 9.63892 9.92405 9.43676 10.2827 9.07815C10.6413 8.71955 10.8434 8.23364 10.845 7.7265C10.8446 7.219 10.6428 6.7324 10.284 6.37354C9.9251 6.01468 9.4385 5.8129 8.931 5.8125C8.4235 5.8129 7.9369 6.01468 7.57804 6.37354C7.21918 6.7324 7.0174 7.219 7.017 7.7265C7.0174 8.234 7.21918 8.7206 7.57804 9.07946C7.9369 9.43832 8.4235 9.6401 8.931 9.6405V9.6405ZM8.931 6.4725C9.61575 6.4725 10.185 7.0335 10.185 7.7265C10.185 7.97452 10.1115 8.21697 9.97366 8.42318C9.83587 8.6294 9.64002 8.79013 9.41089 8.88504C9.18175 8.97996 8.92961 9.00479 8.68636 8.9564C8.4431 8.90802 8.21966 8.78859 8.04429 8.61321C7.86891 8.43784 7.74948 8.2144 7.7011 7.97114C7.65271 7.72789 7.67754 7.47575 7.77246 7.24661C7.86737 7.01748 8.0281 6.82163 8.23432 6.68384C8.44053 6.54605 8.68298 6.4725 8.931 6.4725V6.4725Z" fill="black"/>
</svg>
