<svg width="24" height="24" viewBox="0 0 24 24" fill="none" xmlns="http://www.w3.org/2000/svg">
<path d="M12 24C18.6274 24 24 18.6274 24 12C24 5.37258 18.6274 0 12 0C5.37258 0 0 5.37258 0 12C0 18.6274 5.37258 24 12 24Z" fill="#BFB5AF"/>
<path d="M12 3.75C16.5457 3.75 20.25 7.45425 20.25 12C20.25 16.5457 16.5457 20.25 12 20.25C7.45425 20.25 3.75 16.5457 3.75 12C3.75 7.45425 7.45425 3.75 12 3.75ZM18.6412 11.1667L19.59 12.2393V12C19.59 7.81725 16.1828 4.41 12 4.41C7.85025 4.41 4.4595 7.7595 4.41 11.901L4.79775 11.8928L6.06 9.68175H7.7925L8.502 12.0082L9.91275 11.6453L10.647 12.0495L11.5627 10.8945L12.2145 11.274L12.8745 11.5132L13.2787 11.307L13.32 11.2657C12.1403 10.9275 11.2657 9.8385 11.2657 8.5515C11.2657 7.0005 12.5363 5.7465 14.0873 5.7465C14.5717 5.74709 15.0479 5.87261 15.4697 6.11095C15.8914 6.34929 16.2446 6.69238 16.4951 7.10708C16.7456 7.52178 16.8849 7.99407 16.8995 8.47832C16.9142 8.96257 16.8037 9.44242 16.5787 9.8715H16.9088L17.9318 11.2905L18.6412 11.1667V11.1667ZM12 19.59C12.9185 19.591 13.8296 19.4261 14.6895 19.1033C14.1615 18.9465 13.5015 18.8145 12.858 18.6825C12.5032 18.6082 12.132 18.534 11.7855 18.4598C11.4902 18.3914 11.193 18.3309 10.8945 18.2783C9.92925 18.0968 9.294 17.973 9.195 17.4863C9.1125 17.082 9.43425 16.6942 10.3665 16.0507C10.812 15.7537 10.8615 15.5805 10.8532 15.5475C10.8532 15.531 10.7048 15.135 8.51025 14.8958L8.2545 14.871C8.238 15.2175 7.8585 15.465 7.33875 15.465C6.8025 15.465 6.41475 15.201 6.41475 14.838C6.41475 14.8215 6.41475 14.805 6.43125 14.7555C6.37928 14.7489 6.32688 14.7461 6.2745 14.7473C6.17459 14.7713 6.072 14.7824 5.96925 14.7803C5.84175 14.7818 5.7135 14.7653 5.58975 14.7308C5.35875 14.7308 5.12775 14.7225 4.91325 14.7225C6.0105 17.5687 8.77425 19.59 12 19.59V19.59ZM15.531 18.7155C17.6265 17.61 19.1363 15.564 19.4993 13.155L18.3855 11.8928L17.6265 12.0248L16.554 10.548H16.4302L15.9352 10.944L15.3165 10.1107L14.2853 11.208C14.31 11.1915 14.343 11.1832 14.3677 11.175C14.739 11.0595 15.0278 10.8863 15.1268 10.548C15.2175 10.8533 15.4897 11.0265 15.8032 11.142C15.8445 11.1585 15.8858 11.1668 15.927 11.1833H15.9352C16.5622 11.4225 16.9995 11.9175 17.0408 12.5032C17.1315 12.627 17.2635 12.726 17.412 12.8002C17.511 12.8332 17.6182 12.8663 17.709 12.9158C17.7255 12.9158 17.7338 12.924 17.742 12.924H17.7338C18.27 13.1963 18.633 13.6747 18.633 14.2275C18.633 14.4337 18.5092 14.8462 17.5687 15.003C17.4239 15.0268 17.2921 15.1012 17.197 15.213C17.1018 15.3248 17.0494 15.4667 17.049 15.6135V16.3725C17.049 16.5622 16.884 16.719 16.686 16.7025C16.5127 16.686 16.389 16.5293 16.389 16.356V15.6135C16.3886 15.4667 16.3362 15.3248 16.241 15.213C16.1459 15.1012 16.0141 15.0268 15.8693 15.003C15.7317 14.9827 15.5964 14.9495 15.465 14.904V16.1993C15.465 16.4468 15.2835 17.0325 13.551 17.0325C11.8268 17.0325 11.637 16.4468 11.637 16.1993C11.637 15.5145 12.1897 14.937 12.957 14.7308C13.254 14.6153 13.485 14.4502 13.5675 14.1615C13.6748 14.5162 14.013 14.6895 14.376 14.805H14.3677C14.5327 14.8627 14.6812 14.9453 14.8132 15.036V13.9635C14.8129 13.8167 14.7605 13.6748 14.6653 13.563C14.5701 13.4512 14.4384 13.3768 14.2935 13.353C13.353 13.1963 13.2292 12.7755 13.2292 12.5775C13.2292 12.3795 13.2788 12.1897 13.3613 12.0165L12.9323 12.2393L11.9423 11.8763L11.7278 11.7525L9.89625 14.0707L9.3765 13.6583L10.2345 12.5775L9.83025 12.3547L8.06475 12.8085L7.314 10.3417H6.44775L5.19375 12.5363L4.43475 12.561C4.476 13.0657 4.56375 13.566 4.69875 14.0543H5.07825C5.11125 13.914 5.235 13.5428 5.664 12.2888L5.9775 11.373L6.26625 12.3052C6.522 13.0477 6.6705 13.4767 6.753 13.7407C6.82725 13.5262 6.90975 13.2788 7.017 12.9735L7.3305 12.0577L7.644 12.9735C7.83375 13.5345 7.96575 13.9223 8.0565 14.1945C8.238 14.211 8.41125 14.2275 8.57625 14.244C10.4078 14.442 11.307 14.7885 11.4803 15.3577C11.67 15.9682 10.9688 16.4468 10.7378 16.6035C10.0943 17.0408 9.91275 17.2553 9.855 17.346C10.0283 17.445 10.5645 17.5523 11.01 17.6348C11.2905 17.6843 11.604 17.742 11.9258 17.8162C12.2723 17.8905 12.6353 17.9648 12.9818 18.0308C13.9718 18.2288 14.9123 18.4103 15.531 18.7155V18.7155ZM14.805 16.1498C14.772 15.6878 14.211 15.3082 13.551 15.3082C12.891 15.3082 12.33 15.6878 12.297 16.1498C12.4125 16.2323 12.8415 16.3643 13.551 16.3643C14.2605 16.3643 14.6895 16.2323 14.805 16.1498ZM16.7272 13.3365C16.0672 13.3365 15.5063 13.716 15.4733 14.178C15.5888 14.2605 16.026 14.3925 16.7272 14.3925C17.4285 14.3925 17.8658 14.2605 17.9813 14.178C17.9483 13.716 17.3872 13.3365 16.7272 13.3365ZM16.389 12.528C16.356 12.066 15.795 11.6865 15.135 11.6865C14.475 11.6865 13.914 12.066 13.881 12.528C13.9965 12.6105 14.4338 12.7425 15.135 12.7425C15.8363 12.7425 16.2735 12.6105 16.389 12.528ZM15.8857 9.73125C16.1161 9.38387 16.2394 8.97655 16.2405 8.55975C16.2401 7.98879 16.0131 7.44134 15.6094 7.03761C15.2057 6.63388 14.6582 6.4069 14.0873 6.4065C13.5338 6.40357 13.0005 6.6137 12.5978 6.99332C12.1951 7.37294 11.9539 7.89296 11.9242 8.44558C11.8945 8.99821 12.0786 9.54108 12.4383 9.96168C12.798 10.3823 13.3057 10.6483 13.8563 10.7047L15.3907 9.063L15.8857 9.73125ZM7.12425 14.772C7.26975 14.8162 7.42425 14.8162 7.56975 14.772L7.347 14.1038L7.12425 14.772V14.772ZM5.763 14.0707C5.90325 14.0707 6.0435 14.079 6.192 14.079C6.15075 13.9305 6.06825 13.6912 5.9775 13.4272C5.88675 13.683 5.8125 13.9222 5.763 14.0707ZM8.931 9.6405C8.4235 9.6401 7.9369 9.43832 7.57804 9.07946C7.21918 8.7206 7.0174 8.234 7.017 7.7265C7.0174 7.219 7.21918 6.7324 7.57804 6.37354C7.9369 6.01468 8.4235 5.8129 8.931 5.8125C9.4385 5.8129 9.9251 6.01468 10.284 6.37354C10.6428 6.7324 10.8446 7.219 10.845 7.7265C10.8434 8.23364 10.6413 8.71955 10.2827 9.07815C9.92405 9.43676 9.43814 9.63892 8.931 9.6405V9.6405ZM8.931 6.4725C8.68298 6.4725 8.44053 6.54605 8.23432 6.68384C8.0281 6.82163 7.86737 7.01748 7.77246 7.24661C7.67754 7.47575 7.65271 7.72789 7.7011 7.97114C7.74948 8.2144 7.86891 8.43784 8.04429 8.61321C8.21966 8.78859 8.4431 8.90802 8.68636 8.9564C8.92961 9.00479 9.18175 8.97996 9.41089 8.88504C9.64002 8.79013 9.83587 8.6294 9.97366 8.42318C10.1115 8.21697 10.185 7.97452 10.185 7.7265C10.185 7.0335 9.61575 6.4725 8.931 6.4725Z" fill="white"/>
</svg>
