<svg width="48" height="48" viewBox="0 0 24 24" fill="none" xmlns="http://www.w3.org/2000/svg">
<path fill-rule="evenodd" clip-rule="evenodd" d="M24 12C24 18.6275 18.6275 24 12 24C5.3725 24 0 18.6275 0 12C0 5.3725 5.3725 0 12 0C18.6275 0 24 5.3725 24 12ZM14.5035 7.43975L17.0005 6L19.5 7.441L19.489 7.4475V16.395L17.0037 17.8267L17.0002 17.8337L16.9958 17.8312L16.9895 17.835V17.8275L14.5013 16.3935V13.2085L11.9975 14.6415L11.9955 14.6427L11.9943 14.6395L9.49925 13.202V16.392L7 17.8323V17.8215L6.9985 17.833L4.5 16.3923V7.4395L4.50125 7.44L7.00025 6L14.4923 10.3208L14.5013 10.3195V7.4395H14.5035V7.43975Z" fill="black"/>
</svg>
