<svg width="48" height="48" viewBox="0 0 24 24" fill="none" xmlns="http://www.w3.org/2000/svg">
<path d="M12 24C5.37225 24 0 18.6277 0 12C0 5.37225 5.37225 0 12 0C18.6277 0 24 5.37225 24 12C24 18.6277 18.6277 24 12 24ZM15.4973 5.994C14.5643 4.977 13.4093 4.5 12.0098 4.5C10.5915 4.5 9.43575 4.977 8.5035 5.952C7.57125 6.9075 7.125 8.13075 7.125 9.60375C7.125 11.0558 7.5915 12.2805 8.52375 13.2555C9.2535 14.0227 10.125 14.4795 11.1187 14.6453V15.5167H9.07125V16.4505H11.1382V16.9485H9.07125V17.8193H11.1187V19.5H12.8812V17.82H14.949V16.9485H12.861V16.4505H14.949V15.5167H12.882V14.6663C13.8953 14.4998 14.7668 14.0438 15.4965 13.2758C16.4093 12.3008 16.875 11.0768 16.875 9.62475C16.875 8.19225 16.4093 6.969 15.4973 5.994V5.994ZM13.5915 11.5335C13.206 12.0315 12.6592 12.2805 12.0105 12.2805C11.382 12.2805 10.8555 12.0315 10.4497 11.5335C10.044 11.0355 9.84075 10.392 9.84075 9.5835C9.84075 8.7945 10.0432 8.172 10.4497 7.67475C10.8547 7.17675 11.382 6.92775 12.0098 6.92775C12.6188 6.92775 13.1453 7.17675 13.551 7.695C13.9763 8.193 14.1795 8.8365 14.1795 9.60375C14.1795 10.392 13.977 11.0355 13.5915 11.5335V11.5335Z" fill="black"/>
</svg>
