<svg width="48" height="48" viewBox="0 0 24 24" fill="none" xmlns="http://www.w3.org/2000/svg">
<path fill-rule="evenodd" clip-rule="evenodd" d="M12 24C5.37225 24 0 18.6277 0 12C0 5.37225 5.37225 0 12 0C18.6277 0 24 5.37225 24 12C24 18.6277 18.6277 24 12 24ZM10.665 11.6917C10.9648 11.6917 11.2522 11.5727 11.4642 11.3607C11.6762 11.1487 11.7953 10.8613 11.7953 10.5615C11.7953 10.2617 11.6762 9.97426 11.4642 9.76229C11.2522 9.55033 10.9648 9.43125 10.665 9.43125C10.3652 9.43125 10.0778 9.55033 9.86579 9.76229C9.65383 9.97426 9.53475 10.2617 9.53475 10.5615C9.53475 10.8613 9.65383 11.1487 9.86579 11.3607C10.0778 11.5727 10.3652 11.6917 10.665 11.6917V11.6917ZM13.4385 11.6917C13.7383 11.6917 14.0257 11.5727 14.2377 11.3607C14.4497 11.1487 14.5687 10.8613 14.5687 10.5615C14.5687 10.2617 14.4497 9.97426 14.2377 9.76229C14.0257 9.55033 13.7383 9.43125 13.4385 9.43125C13.1387 9.43125 12.8513 9.55033 12.6393 9.76229C12.4273 9.97426 12.3082 10.2617 12.3082 10.5615C12.3082 10.8613 12.4273 11.1487 12.6393 11.3607C12.8513 11.5727 13.1387 11.6917 13.4385 11.6917V11.6917ZM10.6642 14.466C10.964 14.466 11.2515 14.3469 11.4635 14.135C11.6754 13.923 11.7945 13.6355 11.7945 13.3358C11.7945 13.036 11.6754 12.7485 11.4635 12.5365C11.2515 12.3246 10.964 12.2055 10.6642 12.2055C10.3645 12.2055 10.077 12.3246 9.86504 12.5365C9.65308 12.7485 9.534 13.036 9.534 13.3358C9.534 13.6355 9.65308 13.923 9.86504 14.135C10.077 14.3469 10.3645 14.466 10.6642 14.466V14.466ZM13.4385 14.466C13.7383 14.466 14.0257 14.3469 14.2377 14.135C14.4497 13.923 14.5687 13.6355 14.5687 13.3358C14.5687 13.036 14.4497 12.7485 14.2377 12.5365C14.0257 12.3246 13.7383 12.2055 13.4385 12.2055C13.1387 12.2055 12.8513 12.3246 12.6393 12.5365C12.4273 12.7485 12.3082 13.036 12.3082 13.3358C12.3082 13.6355 12.4273 13.923 12.6393 14.135C12.8513 14.3469 13.1387 14.466 13.4385 14.466V14.466ZM16.212 11.3835C16.43 11.3835 16.6391 11.2969 16.7932 11.1427C16.9474 10.9886 17.034 10.7795 17.034 10.5615C17.034 10.3435 16.9474 10.1344 16.7932 9.98026C16.6391 9.8261 16.43 9.7395 16.212 9.7395C15.994 9.7395 15.7849 9.8261 15.6308 9.98026C15.4766 10.1344 15.39 10.3435 15.39 10.5615C15.39 10.7795 15.4766 10.9886 15.6308 11.1427C15.7849 11.2969 15.994 11.3835 16.212 11.3835ZM16.212 14.1578C16.43 14.1578 16.6391 14.0711 16.7932 13.917C16.9474 13.7628 17.034 13.5538 17.034 13.3358C17.034 13.1177 16.9474 12.9087 16.7932 12.7545C16.6391 12.6004 16.43 12.5137 16.212 12.5137C15.994 12.5137 15.7849 12.6004 15.6308 12.7545C15.4766 12.9087 15.39 13.1177 15.39 13.3358C15.39 13.5538 15.4766 13.7628 15.6308 13.917C15.7849 14.0711 15.994 14.1578 16.212 14.1578ZM7.788 11.3835C8.00601 11.3835 8.21509 11.2969 8.36924 11.1427C8.5234 10.9886 8.61 10.7795 8.61 10.5615C8.61 10.3435 8.5234 10.1344 8.36924 9.98026C8.21509 9.8261 8.00601 9.7395 7.788 9.7395C7.56999 9.7395 7.36091 9.8261 7.20676 9.98026C7.0526 10.1344 6.966 10.3435 6.966 10.5615C6.966 10.7795 7.0526 10.9886 7.20676 11.1427C7.36091 11.2969 7.56999 11.3835 7.788 11.3835ZM7.788 14.1578C8.00601 14.1578 8.21509 14.0711 8.36924 13.917C8.5234 13.7628 8.61 13.5538 8.61 13.3358C8.61 13.1177 8.5234 12.9087 8.36924 12.7545C8.21509 12.6004 8.00601 12.5137 7.788 12.5137C7.56999 12.5137 7.36091 12.6004 7.20676 12.7545C7.0526 12.9087 6.966 13.1177 6.966 13.3358C6.966 13.5538 7.0526 13.7628 7.20676 13.917C7.36091 14.0711 7.56999 14.1578 7.788 14.1578ZM10.6642 16.9313C10.7742 16.9346 10.8838 16.9158 10.9864 16.876C11.0889 16.8362 11.1825 16.7762 11.2615 16.6996C11.3404 16.623 11.4032 16.5313 11.4461 16.4299C11.489 16.3286 11.5111 16.2197 11.5111 16.1096C11.5111 15.9996 11.489 15.8907 11.4461 15.7893C11.4032 15.688 11.3404 15.5963 11.2615 15.5197C11.1825 15.443 11.0889 15.3831 10.9864 15.3433C10.8838 15.3035 10.7742 15.2847 10.6642 15.288C10.4506 15.2945 10.2479 15.3838 10.0991 15.5372C9.95031 15.6906 9.86708 15.8959 9.86708 16.1096C9.86708 16.3233 9.95031 16.5286 10.0991 16.682C10.2479 16.8354 10.4506 16.9248 10.6642 16.9313V16.9313ZM13.4385 16.9313C13.5485 16.9346 13.658 16.9158 13.7606 16.876C13.8632 16.8362 13.9568 16.7762 14.0357 16.6996C14.1147 16.623 14.1775 16.5313 14.2204 16.4299C14.2632 16.3286 14.2853 16.2197 14.2853 16.1096C14.2853 15.9996 14.2632 15.8907 14.2204 15.7893C14.1775 15.688 14.1147 15.5963 14.0357 15.5197C13.9568 15.443 13.8632 15.3831 13.7606 15.3433C13.658 15.3035 13.5485 15.2847 13.4385 15.288C13.2249 15.2945 13.0222 15.3838 12.8734 15.5372C12.7246 15.6906 12.6413 15.8959 12.6413 16.1096C12.6413 16.3233 12.7246 16.5286 12.8734 16.682C13.0222 16.8354 13.2249 16.9248 13.4385 16.9313V16.9313ZM10.6642 8.61C10.7742 8.61332 10.8838 8.59453 10.9864 8.55474C11.0889 8.51494 11.1825 8.45495 11.2615 8.37833C11.3404 8.30171 11.4032 8.21001 11.4461 8.10867C11.489 8.00733 11.5111 7.89841 11.5111 7.78837C11.5111 7.67834 11.489 7.56942 11.4461 7.46808C11.4032 7.36674 11.3404 7.27504 11.2615 7.19842C11.1825 7.1218 11.0889 7.06181 10.9864 7.02201C10.8838 6.98222 10.7742 6.96343 10.6642 6.96675C10.4506 6.9732 10.2479 7.0626 10.0991 7.21598C9.95031 7.36936 9.86708 7.57467 9.86708 7.78837C9.86708 8.00208 9.95031 8.20739 10.0991 8.36077C10.2479 8.51415 10.4506 8.60355 10.6642 8.61V8.61ZM13.4385 8.61C13.5485 8.61332 13.658 8.59453 13.7606 8.55474C13.8632 8.51494 13.9568 8.45495 14.0357 8.37833C14.1147 8.30171 14.1775 8.21001 14.2204 8.10867C14.2632 8.00733 14.2853 7.89841 14.2853 7.78837C14.2853 7.67834 14.2632 7.56942 14.2204 7.46808C14.1775 7.36674 14.1147 7.27504 14.0357 7.19842C13.9568 7.1218 13.8632 7.06181 13.7606 7.02201C13.658 6.98222 13.5485 6.96343 13.4385 6.96675C13.2249 6.9732 13.0222 7.0626 12.8734 7.21598C12.7246 7.36936 12.6413 7.57467 12.6413 7.78837C12.6413 8.00208 12.7246 8.20739 12.8734 8.36077C13.0222 8.51415 13.2249 8.60355 13.4385 8.61ZM10.6642 5.5275C10.7333 5.53014 10.8022 5.51882 10.8668 5.49421C10.9314 5.4696 10.9903 5.43221 11.0401 5.38427C11.0899 5.33634 11.1296 5.27886 11.1566 5.21525C11.1837 5.15165 11.1976 5.08324 11.1976 5.01413C11.1976 4.94501 11.1837 4.8766 11.1566 4.813C11.1296 4.74939 11.0899 4.69191 11.0401 4.64398C10.9903 4.59604 10.9314 4.55865 10.8668 4.53404C10.8022 4.50943 10.7333 4.49811 10.6642 4.50075C10.528 4.50075 10.3973 4.55488 10.301 4.65122C10.2046 4.74757 10.1505 4.87824 10.1505 5.0145C10.1505 5.15075 10.2046 5.28143 10.301 5.37778C10.3973 5.47412 10.528 5.52825 10.6642 5.52825V5.5275ZM13.4385 5.5275C13.5076 5.53014 13.5765 5.51882 13.641 5.49421C13.7056 5.4696 13.7646 5.43221 13.8144 5.38427C13.8642 5.33634 13.9038 5.27886 13.9309 5.21525C13.9579 5.15165 13.9719 5.08324 13.9719 5.01413C13.9719 4.94501 13.9579 4.8766 13.9309 4.813C13.9038 4.74939 13.8642 4.69191 13.8144 4.64398C13.7646 4.59604 13.7056 4.55865 13.641 4.53404C13.5765 4.50943 13.5076 4.49811 13.4385 4.50075C13.3022 4.50075 13.1716 4.55488 13.0752 4.65122C12.9789 4.74757 12.9247 4.87824 12.9247 5.0145C12.9247 5.15075 12.9789 5.28143 13.0752 5.37778C13.1716 5.47412 13.3022 5.52825 13.4385 5.52825V5.5275ZM18.9863 11.076C19.1225 11.076 19.2532 11.0219 19.3495 10.9255C19.4459 10.8292 19.5 10.6985 19.5 10.5623C19.5 10.426 19.4459 10.2953 19.3495 10.199C19.2532 10.1026 19.1225 10.0485 18.9863 10.0485C18.85 10.0485 18.7193 10.1026 18.623 10.199C18.5266 10.2953 18.4725 10.426 18.4725 10.5623C18.4725 10.6985 18.5266 10.8292 18.623 10.9255C18.7193 11.0219 18.85 11.076 18.9863 11.076V11.076ZM18.9863 13.8502C19.1225 13.8502 19.2532 13.7961 19.3495 13.6998C19.4459 13.6034 19.5 13.4728 19.5 13.3365C19.5 13.2002 19.4459 13.0696 19.3495 12.9732C19.2532 12.8769 19.1225 12.8228 18.9863 12.8228C18.85 12.8228 18.7193 12.8769 18.623 12.9732C18.5266 13.0696 18.4725 13.2002 18.4725 13.3365C18.4725 13.4728 18.5266 13.6034 18.623 13.6998C18.7193 13.7961 18.85 13.8502 18.9863 13.8502V13.8502ZM5.01375 11.076C5.15 11.076 5.28068 11.0219 5.37703 10.9255C5.47337 10.8292 5.5275 10.6985 5.5275 10.5623C5.5275 10.426 5.47337 10.2953 5.37703 10.199C5.28068 10.1026 5.15 10.0485 5.01375 10.0485C4.87749 10.0485 4.74682 10.1026 4.65047 10.199C4.55413 10.2953 4.5 10.426 4.5 10.5623C4.5 10.6985 4.55413 10.8292 4.65047 10.9255C4.74682 11.0219 4.87749 11.076 5.01375 11.076V11.076ZM5.01375 13.8502C5.15 13.8502 5.28068 13.7961 5.37703 13.6998C5.47337 13.6034 5.5275 13.4728 5.5275 13.3365C5.5275 13.2002 5.47337 13.0696 5.37703 12.9732C5.28068 12.8769 5.15 12.8228 5.01375 12.8228C4.87749 12.8228 4.74682 12.8769 4.65047 12.9732C4.55413 13.0696 4.5 13.2002 4.5 13.3365C4.5 13.4728 4.55413 13.6034 4.65047 13.6998C4.74682 13.7961 4.87749 13.8502 5.01375 13.8502V13.8502ZM10.6642 19.5C10.8005 19.5 10.9312 19.4459 11.0275 19.3495C11.1239 19.2532 11.178 19.1225 11.178 18.9863C11.178 18.85 11.1239 18.7193 11.0275 18.623C10.9312 18.5266 10.8005 18.4725 10.6642 18.4725C10.528 18.4725 10.3973 18.5266 10.301 18.623C10.2046 18.7193 10.1505 18.85 10.1505 18.9863C10.1505 19.1225 10.2046 19.2532 10.301 19.3495C10.3973 19.4459 10.528 19.5 10.6642 19.5ZM13.4385 19.5C13.5748 19.5 13.7054 19.4459 13.8018 19.3495C13.8981 19.2532 13.9523 19.1225 13.9523 18.9863C13.9523 18.85 13.8981 18.7193 13.8018 18.623C13.7054 18.5266 13.5748 18.4725 13.4385 18.4725C13.3022 18.4725 13.1716 18.5266 13.0752 18.623C12.9789 18.7193 12.9247 18.85 12.9247 18.9863C12.9247 19.1225 12.9789 19.2532 13.0752 19.3495C13.1716 19.4459 13.3022 19.5 13.4385 19.5V19.5Z" fill="black"/>
</svg>
