<svg width="48" height="48" viewBox="0 0 24 24" fill="none" xmlns="http://www.w3.org/2000/svg">
<path d="M12 24C5.37225 24 0 18.6277 0 12C0 5.37225 5.37225 0 12 0C18.6277 0 24 5.37225 24 12C24 18.6277 18.6277 24 12 24ZM15.7388 14.376C15.1368 14.376 14.5596 14.1369 14.134 13.7113C13.7084 13.2857 13.4692 12.7084 13.4692 12.1065C13.4692 11.5046 13.7084 10.9273 14.134 10.5017C14.5596 10.0761 15.1368 9.837 15.7388 9.837C16.3407 9.837 16.9179 10.0761 17.3435 10.5017C17.7691 10.9273 18.0082 11.5046 18.0082 12.1065C18.0082 12.7084 17.7691 13.2857 17.3435 13.7113C16.9179 14.1369 16.3407 14.376 15.7388 14.376ZM15.7388 6.87225C15.0389 6.87149 14.346 7.01154 13.7014 7.28405C13.0568 7.55656 12.4736 7.95597 11.9865 8.4585C12.9385 9.43403 13.4707 10.7435 13.4692 12.1065C13.4706 13.4695 12.9384 14.7789 11.9865 15.7545C12.5887 16.3743 13.335 16.8354 14.1588 17.0966C14.9825 17.3578 15.8582 17.4111 16.7075 17.2515C17.5568 17.092 18.3535 16.7247 19.0263 16.1824C19.6992 15.6401 20.2273 14.9396 20.5636 14.1435C20.8998 13.3474 21.0338 12.4805 20.9535 11.62C20.8732 10.7596 20.5811 9.9324 20.1033 9.21229C19.6256 8.49218 18.9769 7.90155 18.2154 7.4931C17.4538 7.08466 16.6029 6.87111 15.7388 6.8715V6.87225ZM8.235 14.376C7.63309 14.376 7.05583 14.1369 6.63022 13.7113C6.20461 13.2857 5.9655 12.7084 5.9655 12.1065C5.9655 11.5046 6.20461 10.9273 6.63022 10.5017C7.05583 10.0761 7.63309 9.837 8.235 9.837C8.83691 9.837 9.41417 10.0761 9.83978 10.5017C10.2654 10.9273 10.5045 11.5046 10.5045 12.1065C10.5045 12.7084 10.2654 13.2857 9.83978 13.7113C9.41417 14.1369 8.83691 14.376 8.235 14.376ZM11.9872 8.4585C11.2613 7.7113 10.3289 7.1977 9.30932 6.98342C8.28978 6.76915 7.2295 6.86395 6.26415 7.25569C5.2988 7.64743 4.47228 8.31829 3.89037 9.18243C3.30846 10.0466 2.99761 11.0647 2.99761 12.1065C2.99761 13.1483 3.30846 14.1664 3.89037 15.0306C4.47228 15.8947 5.2988 16.5656 6.26415 16.9573C7.2295 17.3491 8.28978 17.4439 9.30932 17.2296C10.3289 17.0153 11.2613 16.5017 11.9872 15.7545C11.0356 14.7788 10.5037 13.4694 10.5052 12.1065C10.5052 10.6875 11.0707 9.40125 11.9872 8.4585ZM10.5045 12.1072C10.5045 13.5262 11.07 14.8125 11.9872 15.7552C12.9389 14.7796 13.4709 13.4702 13.4692 12.1072C13.4709 10.7443 12.9389 9.4349 11.9872 8.45925C11.0353 9.43478 10.5031 10.7442 10.5045 12.1072V12.1072Z" fill="black"/>
</svg>
