<svg width="48" height="48" viewBox="0 0 24 24" fill="none" xmlns="http://www.w3.org/2000/svg">
<path fill-rule="evenodd" clip-rule="evenodd" d="M6.47025 15.093L7.49025 14.5035L7.35675 14.2717L6.35025 14.853V8.96475L11.4652 11.9962V20.6663L12 21L12.5355 20.6663V11.9962L17.6498 8.96475V14.8538L16.6425 14.2717L16.509 14.5043L17.529 15.093L13.5765 17.412V18.7087L18.75 15.6638V7.72125L12 3.75L5.25 7.72125V15.6638L10.4243 18.7087V17.4113L6.47025 15.093V15.093ZM11.8515 5.1105V6.29625H12.1193V5.09325L17.1143 8.02425L12 11.0565L6.885 8.02425L11.8515 5.1105V5.1105ZM12 24C5.37225 24 0 18.6277 0 12C0 5.37225 5.37225 0 12 0C18.6277 0 24 5.37225 24 12C24 18.6277 18.6277 24 12 24ZM11.8515 7.0545V8.29725H12.1193V7.0545H11.8515V7.0545ZM11.8515 9.0555V10.2982L11.985 10.359L12.1193 10.299V9.0555H11.8515ZM16.0215 13.893L14.9453 13.2712L14.811 13.5037L15.888 14.1248L16.0215 13.893V13.893ZM14.3228 12.8925L13.2457 12.2715L13.1265 12.357L13.1115 12.5032L14.1885 13.1243L14.3228 12.8925ZM7.97775 13.893L8.112 14.1255L9.18825 13.503L9.054 13.2712L7.97775 13.8937V13.893ZM9.67725 12.8925L9.81075 13.125L10.887 12.5025L10.8727 12.357L10.7535 12.2715L9.67725 12.8925Z" fill="black"/>
</svg>
