<svg width="48" height="48" viewBox="0 0 24 24" fill="none" xmlns="http://www.w3.org/2000/svg">
<g clip-path="url(#clip0)">
<path d="M13.9875 0.1695C13.3309 0.0579401 12.6661 0.00124423 12 0C5.37 0 0 5.37 0 12C0 14.5455 0.80025 16.8975 2.145 18.8483C2.97 17.6363 4.87275 16.8 7.0785 16.8C8.5935 16.8 9.96375 17.1998 10.9455 17.8425L13.9875 0.1695ZM20.364 3.40575C22.4363 7.98825 20.6182 10.4362 20.6182 10.4362C19.212 6.20625 15.1395 5.58825 15.1395 5.58825C15.1395 5.58825 12.4605 20.0242 12.4605 20.2057C12.4605 21.7695 10.8 23.091 8.5455 23.4907C9.66603 23.8279 10.8298 23.9995 12 24C18.63 24 24 18.63 24 12C24 8.63025 22.6058 5.5875 20.364 3.40575Z" fill="black"/>
</g>
<defs>
<clipPath id="clip0">
<rect width="48" height="48" fill="white"/>
</clipPath>
</defs>
</svg>
