<svg width="48" height="48" viewBox="0 0 24 24" fill="none" xmlns="http://www.w3.org/2000/svg">
<path fill-rule="evenodd" clip-rule="evenodd" d="M12 24C5.37225 24 0 18.6277 0 12C0 5.37225 5.37225 0 12 0C18.6277 0 24 5.37225 24 12C24 18.6277 18.6277 24 12 24ZM12.6083 8.67525C13.3146 8.20221 14.1461 7.95073 14.9963 7.953C16.3838 7.953 18.2715 8.8035 18.2715 12.4792C18.2715 14.163 17.6647 15.4132 16.4505 16.2292C16.434 16.24 16.4199 16.254 16.409 16.2704C16.3981 16.2868 16.3907 16.3052 16.3871 16.3246C16.3835 16.3439 16.3839 16.3638 16.3882 16.383C16.3925 16.4022 16.4007 16.4203 16.4122 16.4363C16.4295 16.46 16.453 16.4783 16.4802 16.4892C16.5074 16.5001 16.5372 16.5031 16.566 16.4977C17.3505 16.3537 19.5 15.12 19.5 11.9272C19.5 9.52725 18.3855 7.01475 16.3275 7.01475C14.9835 7.01475 13.6687 7.45575 12.3832 8.33775C11.7112 7.2795 10.7437 6.75 9.48075 6.75C7.4175 6.75 4.5 8.70375 4.5 12.093C4.5 13.6365 4.905 15.009 5.7165 16.2105L6.7515 15.0075C6.153 14.0948 5.853 12.9832 5.853 11.6737C5.853 9.70875 7.32 7.7325 9.174 7.7325C10.1415 7.7325 10.899 8.03025 11.4488 8.625V10.0725H10.3343L9.5835 10.9335H11.4488V12.0157H10.857L10.1295 12.8768H11.4488V16.3868L12.4035 15.0848V12.8768H12.9952L13.5637 12.0157H12.4035V10.9335H13.518L14.2687 10.0725H12.6083V8.67525V8.67525Z" fill="black"/>
</svg>
