<svg width="24" height="24" viewBox="0 0 24 24" fill="none" xmlns="http://www.w3.org/2000/svg">
<path d="M12 24C18.6274 24 24 18.6274 24 12C24 5.37258 18.6274 0 12 0C5.37258 0 0 5.37258 0 12C0 18.6274 5.37258 24 12 24Z" fill="#FFAA05"/>
<path fill-rule="evenodd" clip-rule="evenodd" d="M12.6083 8.67525V10.0725H14.2687L13.5187 10.9335H12.4035V12.0158H13.5637L12.9952 12.8768H12.4035V15.0848L11.4488 16.3868V12.8768H10.1288L10.857 12.0158H11.4488V10.9335H9.5835L10.3335 10.0725H11.4488V8.625C10.899 8.03025 10.1408 7.7325 9.174 7.7325C7.32 7.7325 5.853 9.70875 5.853 11.6738C5.853 12.9833 6.153 14.0948 6.7515 15.0075L5.7165 16.2105C4.90575 15.009 4.5 13.6365 4.5 12.093C4.5 8.70375 7.4175 6.75 9.48075 6.75C10.7437 6.75 11.7112 7.2795 12.3832 8.33775C13.6687 7.45575 14.9835 7.01475 16.3275 7.01475C18.3855 7.01475 19.5 9.52725 19.5 11.9273C19.5 15.1208 17.3505 16.3538 16.566 16.4978C16.5372 16.5031 16.5074 16.5001 16.4802 16.4892C16.453 16.4783 16.4295 16.46 16.4122 16.4363C16.4007 16.4203 16.3925 16.4022 16.3882 16.383C16.3839 16.3638 16.3835 16.3439 16.3871 16.3246C16.3907 16.3052 16.3981 16.2868 16.409 16.2704C16.4199 16.254 16.434 16.24 16.4505 16.2293C17.6647 15.4133 18.2715 14.163 18.2715 12.4793C18.2715 8.8035 16.3838 7.953 14.9963 7.953C14.1383 7.953 13.3425 8.19375 12.6083 8.67525V8.67525Z" fill="white"/>
</svg>
