<svg width="48" height="48" viewBox="0 0 24 24" fill="none" xmlns="http://www.w3.org/2000/svg">
<path d="M12 24C5.37225 24 0 18.6277 0 12C0 5.37225 5.37225 0 12 0C18.6277 0 24 5.37225 24 12C24 18.6277 18.6277 24 12 24ZM19.7325 13.8563C19.6012 13.7985 19.4362 13.8833 19.365 14.0468C19.3407 14.0973 19.3295 14.1532 19.3322 14.2092C19.335 14.2653 19.3516 14.3198 19.3807 14.3677L17.6932 17.3497C17.6316 17.3422 17.569 17.351 17.5118 17.3752L16.3942 16.2368C16.4156 16.1409 16.4031 16.0406 16.3588 15.9529C16.3145 15.8652 16.2411 15.7956 16.1512 15.756V8.4105C16.2204 8.37982 16.2799 8.33112 16.3237 8.2695L19.0755 9.744L19.0845 9.78075C19.1347 9.95175 19.287 10.0545 19.4243 10.0103C19.5608 9.96675 19.6313 9.792 19.5803 9.62025C19.5338 9.4635 19.4033 9.36525 19.2758 9.3825L17.9385 6.771L17.9445 6.7635C18.042 6.62175 17.9805 6.40725 17.8095 6.28425C17.761 6.2473 17.7047 6.22199 17.6449 6.21029C17.585 6.19858 17.5233 6.20079 17.4645 6.21675L16.5525 5.60325C16.5435 5.53695 16.5196 5.47357 16.4824 5.41794C16.4452 5.36231 16.3958 5.3159 16.338 5.28225C16.2855 5.24983 16.2266 5.22916 16.1654 5.22165C16.1042 5.21414 16.042 5.21997 15.9833 5.23875L13.8638 4.02975C13.8338 3.89925 13.71 3.786 13.5458 3.7575C13.3643 3.72525 13.1963 3.804 13.137 3.93975L8.54775 4.77375C8.49674 4.73927 8.43844 4.71706 8.37742 4.70886C8.31639 4.70067 8.2543 4.7067 8.196 4.7265C8.0085 4.78575 7.8885 4.95225 7.9155 5.1105L4.7265 8.4525C4.584 8.4435 4.43925 8.5545 4.38 8.72925C4.35566 8.79295 4.34764 8.86173 4.35668 8.92933C4.36572 8.99692 4.39153 9.06118 4.43175 9.11625L4.2525 13.3815C4.15725 13.4595 4.10625 13.6065 4.13175 13.761C4.16175 13.9335 4.27575 14.064 4.40775 14.0903L5.62275 16.908C5.574 17.037 5.6205 17.2073 5.75025 17.3243C5.79534 17.3678 5.85013 17.4 5.9101 17.4183C5.97008 17.4366 6.03354 17.4403 6.09525 17.4293L9.04875 19.5607C9.04125 19.716 9.17175 19.8668 9.36075 19.908C9.41882 19.9222 9.47934 19.9233 9.53787 19.9111C9.5964 19.8989 9.65146 19.8738 9.699 19.8375L13.5225 20.1052C13.596 20.214 13.749 20.2725 13.9103 20.2418C13.9785 20.2316 14.0428 20.2036 14.0967 20.1607C14.1507 20.1178 14.1925 20.0614 14.2178 19.9973L17.4713 18.0488C17.5309 18.0527 17.5907 18.0436 17.6464 18.0219C17.7021 18.0003 17.7524 17.9667 17.7938 17.9235C17.9048 17.8133 17.9475 17.6632 17.9138 17.5417L19.5833 14.4645C19.6408 14.4554 19.6949 14.4315 19.7403 14.3951C19.7857 14.3586 19.8207 14.3109 19.842 14.2568C19.9132 14.0933 19.8645 13.914 19.7333 13.8563H19.7325ZM19.7355 14.2125C19.7062 14.2778 19.6403 14.3123 19.5885 14.289C19.5353 14.265 19.5158 14.1937 19.5443 14.1285C19.5728 14.0632 19.6387 14.0295 19.6912 14.052C19.7437 14.0745 19.764 14.1465 19.7355 14.2125ZM17.7368 17.8065C17.6768 17.8665 17.589 17.874 17.5417 17.8253C17.4945 17.7758 17.5058 17.6865 17.565 17.6265C17.6258 17.5665 17.7128 17.559 17.76 17.6085C17.8073 17.658 17.7968 17.7473 17.7368 17.8065V17.8065ZM17.265 17.619L14.2845 18.6495C14.2449 18.6059 14.1962 18.5713 14.142 18.5483L14.0025 16.518C14.0777 16.4748 14.1379 16.4096 14.175 16.3312H15.6135C15.681 16.4737 15.8227 16.5712 15.9877 16.5712C16.0633 16.5713 16.1373 16.5503 16.2015 16.5105L17.274 17.601L17.265 17.619V17.619ZM14.139 19.7085C14.1161 19.6877 14.0903 19.6703 14.0625 19.6567L14.1345 19.2338C14.1915 19.2115 14.2424 19.1761 14.2832 19.1305C14.324 19.0849 14.3535 19.0303 14.3693 18.9713L16.7393 18.1515L14.139 19.7085ZM13.8953 20.112C13.8128 20.127 13.7355 20.085 13.7228 20.0167C13.7108 19.9485 13.7677 19.8803 13.8502 19.866C13.9327 19.8495 14.01 19.8923 14.022 19.9605C14.034 20.0288 13.977 20.097 13.8945 20.112H13.8953ZM13.5173 19.8135L10.6613 19.6147L13.6448 19.1332C13.6875 19.1797 13.7423 19.2157 13.8045 19.2397L13.7363 19.641C13.6448 19.6702 13.567 19.7314 13.5173 19.8135V19.8135ZM10.7265 16.5615C10.7726 16.5508 10.8164 16.5323 10.8563 16.5068L13.518 18.8168L9.756 19.4243L10.7265 16.5615ZM9.47775 19.2277L8.535 16.392C8.54807 16.3728 8.55985 16.3528 8.57025 16.332H10.2622C10.2937 16.3995 10.3425 16.4565 10.4033 16.4985L9.47775 19.2277ZM9.363 19.779C9.2805 19.761 9.22575 19.692 9.24 19.6238C9.25425 19.5563 9.333 19.5158 9.41475 19.5338C9.49725 19.5518 9.55125 19.6208 9.537 19.689C9.5235 19.7565 9.44475 19.797 9.363 19.779V19.779ZM6.29775 17.22C6.30302 17.1916 6.30453 17.1626 6.30225 17.1337L7.8945 16.44C7.93924 16.4879 7.99477 16.5245 8.05646 16.5466C8.11815 16.5688 8.18424 16.576 8.24925 16.5675L9.1515 19.2795L6.29775 17.22ZM6.03075 16.7715L5.3235 13.2855L7.8555 15.903C7.81 15.9695 7.78402 16.0475 7.7805 16.128L6.14325 16.8412C6.10919 16.8129 6.07132 16.7894 6.03075 16.7715V16.7715ZM6.0135 17.2283C5.9685 17.2808 5.88075 17.2762 5.8185 17.22C5.75475 17.1637 5.7405 17.0753 5.7855 17.0228C5.8305 16.9703 5.91825 16.9755 5.9805 17.0317C6.04425 17.0887 6.05775 17.1773 6.0135 17.2283ZM4.671 13.9785C4.70748 13.9253 4.73154 13.8646 4.74141 13.8009C4.75127 13.7371 4.74669 13.672 4.728 13.6102L4.95825 13.1198L5.5425 15.9982L4.671 13.9785ZM4.65 10.7235L4.77 12.3757C4.73059 12.438 4.70831 12.5095 4.70541 12.5832C4.70252 12.6568 4.7191 12.7298 4.7535 12.795L4.545 13.2375L4.65 10.7235ZM4.5 8.73525C4.52775 8.65425 4.60125 8.60775 4.665 8.63025C4.73025 8.65275 4.7595 8.7375 4.7325 8.81775C4.704 8.8995 4.6305 8.946 4.566 8.9235C4.50225 8.901 4.4715 8.81625 4.49925 8.73525H4.5ZM5.133 12.6C5.133 12.6862 5.07075 12.7552 4.99575 12.7552C4.92 12.7552 4.85775 12.6862 4.85775 12.6C4.85775 12.5145 4.92 12.4455 4.99575 12.4455C5.07075 12.4455 5.133 12.5145 5.133 12.6ZM4.9605 8.9355C4.97027 8.90647 4.9773 8.87659 4.9815 8.84625L6.4095 7.8765L5.07525 12.099L4.85775 9.1065C4.90436 9.05791 4.93948 8.99947 4.9605 8.9355V8.9355ZM7.23 6.24675L6.67275 7.15425C6.58424 7.17568 6.50488 7.22482 6.44625 7.2945C6.3893 7.35938 6.35231 7.43934 6.33975 7.52475L5.4045 8.15925L7.23 6.24675ZM8.1705 5.3415C8.23425 5.35275 8.3055 5.349 8.37525 5.32725C8.46918 5.29928 8.5507 5.23999 8.60625 5.15925L11.0573 5.70225C11.0682 5.77285 11.0965 5.83961 11.1397 5.8965L10.3372 7.60275C10.2739 7.61625 10.2146 7.64427 10.164 7.68462C10.1133 7.72497 10.0728 7.77654 10.0455 7.83525H8.57025C8.53688 7.76385 8.48392 7.70339 8.41753 7.6609C8.35115 7.61841 8.27407 7.59565 8.19525 7.59525C8.1395 7.59519 8.08432 7.60654 8.03312 7.62859C7.98191 7.65065 7.93576 7.68295 7.8975 7.7235L7.01625 7.4535C7.02158 7.39274 7.00907 7.33175 6.98025 7.278L8.1705 5.3415ZM8.214 4.85175C8.295 4.82625 8.37525 4.86 8.39475 4.92675C8.415 4.99275 8.3655 5.067 8.28525 5.09175C8.20575 5.1165 8.12475 5.0835 8.1045 5.01675C8.085 4.95075 8.1345 4.8765 8.214 4.85175ZM12.9 4.27875L11.6047 5.23575C11.5216 5.20571 11.4309 5.20359 11.3465 5.22971C11.262 5.25583 11.1884 5.30877 11.1367 5.3805L9.201 4.95225L12.9 4.27875ZM13.3538 4.3515C13.3816 4.36265 13.4105 4.37094 13.44 4.37625C13.563 4.398 13.68 4.36875 13.761 4.305L15.7665 5.448L15.7582 5.4765L11.9745 5.3715L13.3538 4.3515ZM13.5322 3.88725C13.6147 3.90225 13.6725 3.96975 13.6605 4.03725C13.6485 4.10625 13.572 4.14975 13.4895 4.13475C13.407 4.11975 13.35 4.05225 13.3613 3.98475C13.3725 3.91575 13.449 3.87225 13.5322 3.88725ZM15.957 5.931L15.813 7.63425C15.7254 7.67605 15.655 7.74678 15.6135 7.8345H13.9215C13.8812 7.74927 13.8132 7.68023 13.7286 7.63867C13.644 7.59712 13.5478 7.58551 13.4557 7.60575L11.8628 5.76825C11.8699 5.74627 11.8749 5.72367 11.8777 5.70075L15.8257 5.8095C15.8612 5.85811 15.9058 5.89937 15.957 5.931V5.931ZM15.987 7.8495C16.0792 7.8495 16.1542 7.926 16.1542 8.01975C16.1542 8.1135 16.0792 8.18925 15.9877 8.18925C15.8962 8.18925 15.8212 8.1135 15.8212 8.01975C15.8212 7.926 15.8962 7.8495 15.9877 7.8495H15.987ZM16.0613 5.4495C16.1025 5.3775 16.2 5.35725 16.2795 5.4045C16.359 5.45175 16.3898 5.5485 16.3485 5.6205C16.3073 5.69325 16.209 5.7135 16.131 5.6655C16.0507 5.619 16.02 5.5215 16.0613 5.4495ZM18.9975 9.438L16.4025 7.9845C16.3964 7.90606 16.3686 7.83086 16.3223 7.76729C16.2759 7.70372 16.2128 7.65429 16.14 7.6245L16.2772 5.99775L18.9975 9.438ZM17.2778 6.44025C17.2628 6.5655 17.3287 6.708 17.457 6.79875C17.5219 6.84625 17.5988 6.87481 17.679 6.88125L18.6375 8.595L16.6672 6.03L17.2778 6.44025ZM17.5627 6.3975C17.6017 6.3405 17.6888 6.3345 17.7578 6.38325C17.8268 6.432 17.8508 6.51825 17.8118 6.57525C17.7728 6.63225 17.685 6.63825 17.6168 6.5895C17.5478 6.54 17.5237 6.4545 17.5635 6.3975H17.5627ZM13.3853 8.01975C13.3853 7.9275 13.4565 7.85325 13.5472 7.85325C13.6372 7.85325 13.71 7.92825 13.71 8.01975C13.7102 8.06325 13.6932 8.10508 13.6627 8.13612C13.6323 8.16716 13.5907 8.18491 13.5472 8.1855C13.5257 8.1854 13.5043 8.18103 13.4844 8.17263C13.4645 8.16423 13.4465 8.15196 13.4313 8.13655C13.4162 8.12114 13.4043 8.10288 13.3962 8.08284C13.3882 8.06279 13.3842 8.04135 13.3845 8.01975H13.3853ZM13.4745 11.5995C13.5667 11.5995 13.6403 11.6753 13.6403 11.769C13.6405 11.7911 13.6365 11.813 13.6283 11.8335C13.6202 11.854 13.608 11.8726 13.5926 11.8885C13.5772 11.9043 13.5589 11.9169 13.5386 11.9256C13.5184 11.9343 13.4966 11.939 13.4745 11.9392C13.4524 11.9391 13.4305 11.9345 13.4101 11.9258C13.3898 11.9171 13.3713 11.9045 13.3559 11.8887C13.3404 11.8729 13.3282 11.8542 13.32 11.8336C13.3118 11.8131 13.3077 11.7911 13.308 11.769C13.308 11.6753 13.383 11.5995 13.4745 11.5995ZM11.3018 5.5815C11.3018 5.48775 11.376 5.41125 11.4675 5.41125C11.5597 5.41125 11.634 5.48775 11.634 5.5815C11.634 5.67525 11.559 5.751 11.4675 5.751C11.4231 5.75041 11.3807 5.73224 11.3496 5.70047C11.3186 5.66871 11.3013 5.62593 11.3018 5.5815ZM11.4232 6.05925C11.5002 6.06742 11.5778 6.05391 11.6475 6.02025L13.1918 7.8C13.1601 7.85177 13.14 7.90972 13.1326 7.96994C13.1253 8.03016 13.1309 8.09126 13.1492 8.14911C13.1675 8.20697 13.1979 8.26023 13.2385 8.30532C13.2791 8.35041 13.3289 8.38628 13.3845 8.4105V11.355C13.3599 11.3603 13.3358 11.3679 13.3125 11.3775L10.7775 8.235C10.8299 8.14379 10.8472 8.03658 10.826 7.93353C10.8049 7.83049 10.7468 7.73872 10.6628 7.6755L11.4232 6.05925ZM10.2532 8.01975C10.2532 7.926 10.3282 7.8495 10.4197 7.8495C10.5105 7.8495 10.5855 7.926 10.5855 8.01975C10.5855 8.1135 10.5105 8.18925 10.4197 8.18925C10.3977 8.18905 10.3759 8.18451 10.3556 8.17589C10.3353 8.16727 10.3169 8.15472 10.3014 8.13899C10.2859 8.12325 10.2737 8.10461 10.2655 8.08416C10.2572 8.0637 10.2531 8.04181 10.2532 8.01975V8.01975ZM8.03325 8.01975C8.03325 7.9275 8.10525 7.85325 8.19525 7.85325C8.28525 7.85325 8.358 7.92825 8.358 8.01975C8.358 8.11125 8.28525 8.1855 8.19525 8.1855C8.10525 8.1855 8.03325 8.11125 8.03325 8.01975ZM8.19525 15.9772C8.2875 15.9772 8.36175 16.0522 8.36175 16.1467C8.36205 16.1688 8.35797 16.1908 8.34974 16.2113C8.34152 16.2318 8.32931 16.2504 8.31383 16.2662C8.29835 16.282 8.2799 16.2945 8.25955 16.3031C8.23919 16.3117 8.21734 16.3162 8.19525 16.3162C8.17329 16.316 8.15159 16.3113 8.13141 16.3027C8.11124 16.294 8.09296 16.2814 8.07764 16.2657C8.06232 16.2499 8.05025 16.2313 8.04212 16.2109C8.03398 16.1905 8.02995 16.1687 8.03025 16.1467C8.03025 16.053 8.10375 15.9772 8.19525 15.9772ZM6.54825 7.38225C6.6045 7.31775 6.69075 7.30275 6.741 7.34925C6.792 7.39425 6.78825 7.48425 6.7335 7.548C6.67725 7.61325 6.591 7.6275 6.54 7.58175C6.489 7.536 6.4935 7.44675 6.5475 7.38225H6.54825ZM5.3295 12.3765L6.7695 7.81875C6.80375 7.80128 6.83553 7.77934 6.864 7.7535L7.7805 8.03475C7.78278 8.11487 7.80773 8.19271 7.85247 8.25922C7.89721 8.32573 7.9599 8.37819 8.03325 8.4105V15.6127L5.33175 12.8212C5.37267 12.7548 5.39398 12.6781 5.39325 12.6C5.39365 12.521 5.37154 12.4434 5.3295 12.3765V12.3765ZM13.8 15.7215C13.7638 15.7221 13.7278 15.7271 13.6927 15.7365L11.0797 12.489C11.1045 12.4255 11.1133 12.3569 11.1056 12.2891C11.0979 12.2214 11.0738 12.1566 11.0354 12.1002C10.997 12.0439 10.9455 11.9977 10.8852 11.9658C10.825 11.9338 10.7579 11.917 10.6898 11.9167C10.6345 11.9173 10.58 11.9288 10.5292 11.9505C10.4784 11.9722 10.4324 12.0037 10.3938 12.0432C10.3552 12.0827 10.3248 12.1294 10.3043 12.1807C10.2838 12.232 10.2736 12.2868 10.2743 12.342C10.2741 12.4143 10.2924 12.4855 10.3273 12.5489C10.3622 12.6122 10.4126 12.6657 10.4738 12.7042V15.756C10.4214 15.7791 10.3743 15.8125 10.3353 15.8543C10.2962 15.896 10.266 15.9453 10.2465 15.999H8.58525C8.56565 15.9453 8.53542 15.8961 8.49638 15.8544C8.45733 15.8126 8.41027 15.7792 8.358 15.756V8.4105C8.41031 8.38742 8.45742 8.354 8.49647 8.31224C8.53553 8.27047 8.56572 8.22124 8.58525 8.1675H10.0298C10.0641 8.2635 10.1325 8.34357 10.2219 8.39251C10.3113 8.44145 10.4156 8.45586 10.515 8.433L13.086 11.619C13.0679 11.6669 13.0588 11.7178 13.059 11.769C13.0583 11.8242 13.0685 11.879 13.089 11.9303C13.1095 11.9816 13.14 12.0283 13.1786 12.0678C13.2172 12.1073 13.2632 12.1388 13.3139 12.1605C13.3647 12.1822 13.4193 12.1937 13.4745 12.1943C13.5298 12.1937 13.5844 12.1822 13.6352 12.1605C13.686 12.1388 13.7321 12.1073 13.7707 12.0678C13.8094 12.0284 13.8399 11.9816 13.8605 11.9304C13.881 11.8791 13.8913 11.8243 13.8907 11.769C13.891 11.7005 13.8748 11.6329 13.8435 11.5719C13.8122 11.511 13.7666 11.4584 13.7108 11.4188V8.41125C13.7629 8.38792 13.8097 8.35431 13.8485 8.31242C13.8873 8.27054 13.9172 8.22124 13.9365 8.1675H15.5985C15.6177 8.2213 15.6477 8.2706 15.6867 8.31239C15.7256 8.35418 15.7727 8.38756 15.825 8.4105V15.756C15.7727 15.779 15.7256 15.8124 15.6867 15.8542C15.6478 15.8959 15.6177 15.9452 15.5985 15.999H14.19C14.1614 15.9182 14.1087 15.8482 14.0389 15.7986C13.9691 15.7489 13.8857 15.722 13.8 15.7215V15.7215ZM13.98 18.7568C14.0722 18.7568 14.1473 18.8243 14.1473 18.9083C14.1473 18.9923 14.0723 19.059 13.9808 19.059C13.89 19.059 13.8157 18.9915 13.8157 18.909C13.8157 18.8265 13.89 18.7568 13.9808 18.7568H13.98ZM13.6343 16.1467C13.6343 16.053 13.7085 15.9772 13.7993 15.9772C13.8923 15.9772 13.9665 16.0522 13.9665 16.1467C13.9668 16.1688 13.9627 16.1908 13.9545 16.2113C13.9463 16.2318 13.9341 16.2504 13.9186 16.2662C13.9031 16.282 13.8846 16.2945 13.8643 16.3031C13.8439 16.3117 13.8221 16.3162 13.8 16.3162C13.778 16.3161 13.7562 16.3115 13.7359 16.3029C13.7157 16.2942 13.6973 16.2817 13.6819 16.2659C13.6665 16.2502 13.6544 16.2316 13.6462 16.2111C13.638 16.1906 13.634 16.1688 13.6343 16.1467V16.1467ZM10.524 12.342C10.524 12.2475 10.599 12.1725 10.6905 12.1725C10.782 12.1725 10.8563 12.2475 10.8563 12.342C10.8565 12.364 10.8525 12.3859 10.8443 12.4063C10.8361 12.4268 10.824 12.4454 10.8086 12.4612C10.7932 12.4769 10.7748 12.4895 10.7546 12.4981C10.7343 12.5068 10.7125 12.5113 10.6905 12.5115C10.6684 12.5113 10.6466 12.5068 10.6263 12.4981C10.606 12.4895 10.5876 12.477 10.5721 12.4612C10.5567 12.4455 10.5445 12.4269 10.5362 12.4064C10.528 12.3859 10.5238 12.3641 10.524 12.342ZM10.6365 15.9772C10.728 15.9772 10.8022 16.0522 10.8022 16.1467C10.8025 16.1688 10.7985 16.1906 10.7903 16.2111C10.7821 16.2316 10.77 16.2502 10.7546 16.2659C10.7392 16.2817 10.7208 16.2942 10.7006 16.3029C10.6803 16.3115 10.6585 16.3161 10.6365 16.3162C10.6144 16.3162 10.5926 16.3117 10.5722 16.3031C10.5519 16.2945 10.5334 16.282 10.5179 16.2662C10.5024 16.2504 10.4902 16.2318 10.482 16.2113C10.4738 16.1908 10.4697 16.1688 10.47 16.1467C10.47 16.053 10.545 15.9772 10.6365 15.9772ZM10.7985 15.756V12.7515C10.8177 12.7465 10.8366 12.74 10.8547 12.732L13.4363 15.942C13.402 16.0048 13.3842 16.0752 13.3845 16.1467C13.3845 16.338 13.5083 16.4992 13.677 16.5532L13.815 18.5363C13.7882 18.5454 13.7623 18.5572 13.7377 18.5715L11.043 16.2338C11.0635 16.1381 11.0504 16.0384 11.0058 15.9513C10.9613 15.8643 10.888 15.7953 10.7985 15.756ZM16.1535 16.146C16.1538 16.1681 16.1497 16.19 16.1416 16.2105C16.1334 16.231 16.1213 16.2496 16.1059 16.2655C16.0905 16.2813 16.0721 16.2939 16.0519 16.3026C16.0316 16.3113 16.0098 16.316 15.9877 16.3162C15.9657 16.3162 15.9438 16.3117 15.9235 16.3031C15.9031 16.2945 15.8847 16.282 15.8692 16.2662C15.8537 16.2504 15.8415 16.2318 15.8333 16.2113C15.825 16.1908 15.821 16.1688 15.8212 16.1467C15.8212 16.053 15.8962 15.9772 15.9877 15.9772C16.0792 15.9772 16.1542 16.0522 16.1542 16.1467L16.1535 16.146ZM4.371 13.8802C4.3035 13.893 4.23825 13.8338 4.22475 13.749C4.20975 13.6643 4.2525 13.5863 4.32 13.575C4.3875 13.563 4.452 13.6222 4.467 13.707C4.48125 13.791 4.43775 13.869 4.371 13.8802V13.8802ZM19.35 9.59475C19.4047 9.5775 19.4662 9.618 19.485 9.687C19.506 9.75525 19.4775 9.82575 19.4235 9.843C19.3688 9.86025 19.308 9.819 19.2877 9.75075C19.2675 9.6825 19.2952 9.612 19.35 9.59475V9.59475Z" fill="black"/>
</svg>
