<svg width="24" height="24" viewBox="0 0 24 24" fill="none" xmlns="http://www.w3.org/2000/svg">
<path d="M12 24C18.6274 24 24 18.6274 24 12C24 5.37258 18.6274 0 12 0C5.37258 0 0 5.37258 0 12C0 18.6274 5.37258 24 12 24Z" fill="#36A9CF"/>
<path fill-rule="evenodd" clip-rule="evenodd" d="M19.7325 13.8563C19.8645 13.914 19.9132 14.0933 19.842 14.2568C19.8207 14.311 19.7857 14.3586 19.7403 14.3951C19.6949 14.4315 19.6407 14.4555 19.5832 14.4645L17.9145 17.5418C17.9475 17.6633 17.9047 17.8133 17.793 17.9235C17.7518 17.9666 17.7016 18.0002 17.646 18.0218C17.5904 18.0434 17.5308 18.0526 17.4712 18.0488L14.217 19.9973C14.1917 20.0614 14.15 20.1178 14.096 20.1607C14.042 20.2036 13.9777 20.2316 13.9095 20.2418C13.749 20.2725 13.596 20.214 13.5225 20.1053L9.699 19.8375C9.65145 19.8738 9.5964 19.8989 9.53787 19.9111C9.47933 19.9233 9.41881 19.9223 9.36075 19.908C9.17175 19.8668 9.04125 19.716 9.04875 19.5608L6.0945 17.4293C6.03278 17.4403 5.96933 17.4366 5.90935 17.4183C5.84937 17.4001 5.79458 17.3678 5.7495 17.3243C5.6205 17.2073 5.574 17.037 5.6235 16.908L4.4085 14.0903C4.27575 14.064 4.161 13.9335 4.131 13.761C4.10625 13.6058 4.15725 13.4595 4.2525 13.3815L4.43175 9.11628C4.3914 9.06127 4.36546 8.99705 4.35629 8.92945C4.34712 8.86186 4.35501 8.79304 4.37925 8.72928C4.43925 8.55453 4.584 8.44428 4.7265 8.45178L7.9155 5.11053C7.88775 4.95303 8.00775 4.78578 8.196 4.72653C8.2544 4.7066 8.31664 4.7005 8.3778 4.7087C8.43897 4.7169 8.4974 4.73918 8.5485 4.77378L13.137 3.93978C13.1962 3.80478 13.3642 3.72528 13.5457 3.75753C13.7107 3.78603 13.8345 3.89928 13.8637 4.02978L15.9832 5.23878C16.042 5.22 16.1041 5.21416 16.1654 5.22167C16.2266 5.22918 16.2855 5.24986 16.338 5.28228C16.3958 5.31592 16.4452 5.36233 16.4824 5.41796C16.5196 5.47359 16.5435 5.53697 16.5525 5.60328L17.4645 6.21677C17.5233 6.20082 17.585 6.19861 17.6449 6.21031C17.7047 6.22202 17.761 6.24732 17.8095 6.28427C17.9805 6.40727 18.042 6.62178 17.9445 6.76428L17.9385 6.77178L19.2757 9.38178C19.4032 9.36453 19.5337 9.46353 19.5802 9.62028C19.6312 9.79203 19.5607 9.96678 19.4242 10.0103C19.287 10.0553 19.1347 9.95178 19.0845 9.78078L19.0755 9.74328L16.3237 8.26953C16.2799 8.33115 16.2204 8.37985 16.1512 8.41053V15.756C16.2411 15.7957 16.3145 15.8653 16.3588 15.9529C16.4031 16.0406 16.4156 16.1409 16.3942 16.2368L17.5117 17.3753C17.569 17.351 17.6316 17.3422 17.6932 17.3498L19.3807 14.3678C19.3516 14.3198 19.335 14.2653 19.3322 14.2093C19.3295 14.1532 19.3407 14.0974 19.365 14.0468C19.4362 13.8833 19.6012 13.7985 19.7325 13.8563V13.8563ZM19.7355 14.2125C19.764 14.1465 19.7437 14.0753 19.6912 14.052C19.6387 14.0295 19.5727 14.0633 19.5442 14.1285C19.5157 14.1938 19.5352 14.265 19.5885 14.289C19.641 14.3115 19.7062 14.2778 19.7355 14.2125ZM17.7367 17.8065C17.7967 17.7465 17.8072 17.658 17.76 17.6085C17.7127 17.559 17.6257 17.5673 17.565 17.6265C17.505 17.6865 17.4945 17.7758 17.5417 17.8253C17.589 17.8748 17.6767 17.8665 17.7367 17.8065V17.8065ZM17.265 17.619L17.2732 17.601L16.2015 16.5105C16.1374 16.5506 16.0633 16.5719 15.9877 16.572C15.909 16.5718 15.8319 16.5492 15.7656 16.5066C15.6993 16.4641 15.6465 16.4035 15.6135 16.332H14.175C14.1378 16.4102 14.0776 16.4751 14.0025 16.518L14.1427 18.5483C14.1982 18.5723 14.2477 18.6068 14.2852 18.6495L17.265 17.619ZM14.139 19.7085L16.7392 18.1515L14.3692 18.9705C14.3536 19.0298 14.3241 19.0845 14.2833 19.1302C14.2425 19.1759 14.1916 19.2114 14.1345 19.2338L14.0625 19.6568C14.0903 19.6704 14.116 19.6878 14.139 19.7085V19.7085ZM13.8952 20.112C13.9777 20.097 14.034 20.0295 14.022 19.9605C14.01 19.893 13.932 19.8495 13.8495 19.866C13.7677 19.881 13.7107 19.9485 13.7227 20.0168C13.7355 20.085 13.8127 20.1278 13.8952 20.112V20.112ZM13.5172 19.8135C13.567 19.7315 13.6448 19.6702 13.7362 19.641L13.8045 19.2398C13.7437 19.2172 13.689 19.1807 13.6447 19.1333L10.6612 19.6148L13.5172 19.8135ZM10.7265 16.5615L9.756 19.4243L13.518 18.8168L10.8562 16.5068C10.8164 16.5323 10.7725 16.5508 10.7265 16.5615V16.5615ZM9.47775 19.2278L10.4032 16.4985C10.3423 16.4562 10.2936 16.3985 10.2622 16.3313H8.57025C8.55984 16.352 8.54807 16.3721 8.535 16.3913L9.47775 19.2278ZM9.363 19.779C9.4455 19.797 9.5235 19.7565 9.537 19.689C9.552 19.6215 9.49725 19.5518 9.41475 19.533C9.33225 19.5158 9.25425 19.5555 9.24 19.623C9.22575 19.692 9.2805 19.761 9.363 19.779V19.779ZM6.29775 17.22L9.1515 19.2795L8.25 16.5675C8.18499 16.576 8.1189 16.5688 8.0572 16.5467C7.99551 16.5245 7.93999 16.4879 7.89525 16.44L6.303 17.1338C6.30528 17.1626 6.30377 17.1916 6.2985 17.22H6.29775ZM6.03075 16.7715C6.07132 16.7894 6.10918 16.8129 6.14325 16.8413L7.7805 16.1288C7.78374 16.0477 7.80973 15.9692 7.8555 15.9023L5.3235 13.2855L6.03075 16.7715ZM6.0135 17.2283C6.0585 17.1773 6.0435 17.0888 5.98125 17.0318C5.91825 16.9755 5.83125 16.971 5.78625 17.0228C5.74125 17.0753 5.75475 17.1638 5.81775 17.22C5.88075 17.2763 5.9685 17.28 6.01275 17.2283H6.0135ZM4.671 13.9785L5.5425 15.9983L4.95825 13.1198L4.728 13.6103C4.74669 13.672 4.75127 13.7371 4.7414 13.8009C4.73154 13.8646 4.70748 13.9253 4.671 13.9785V13.9785ZM4.65 10.7235L4.545 13.2375L4.7535 12.795C4.71907 12.7297 4.70253 12.6565 4.70556 12.5827C4.70859 12.5089 4.73108 12.4373 4.77075 12.375L4.65 10.7235ZM4.5 8.73528C4.4715 8.81628 4.50225 8.90028 4.566 8.92353C4.6305 8.94603 4.704 8.89953 4.73175 8.81853C4.7595 8.73753 4.73025 8.65353 4.66575 8.63028C4.60125 8.60778 4.52775 8.65428 4.49925 8.73528H4.5ZM5.133 12.6C5.133 12.5145 5.07075 12.4455 4.99575 12.4455C4.92 12.4455 4.85775 12.5145 4.85775 12.6C4.85775 12.6863 4.92 12.7553 4.99575 12.7553C5.07075 12.7553 5.133 12.6863 5.133 12.6ZM4.9605 8.93553C4.93937 8.99923 4.90426 9.0574 4.85775 9.10578L5.07525 12.0983L6.41025 7.87653L4.9815 8.84628C4.9773 8.87662 4.97027 8.9065 4.9605 8.93553V8.93553ZM7.23 6.24678L5.4045 8.15928L6.33975 7.52478C6.35231 7.43936 6.38929 7.3594 6.44625 7.29453C6.50488 7.22484 6.58424 7.17571 6.67275 7.15428L7.23 6.24678ZM8.1705 5.34153L6.98025 7.27803C7.00875 7.32903 7.02075 7.38978 7.01625 7.45278L7.8975 7.72353C7.97325 7.64403 8.07825 7.59453 8.19525 7.59453C8.36025 7.59453 8.50275 7.69278 8.57025 7.83453H10.0455C10.0729 7.77573 10.1135 7.72411 10.1643 7.68375C10.2151 7.6434 10.2745 7.61541 10.338 7.60203L11.1397 5.89653C11.0965 5.83964 11.0682 5.77288 11.0572 5.70228L8.60625 5.15928C8.5507 5.24002 8.46918 5.29931 8.37525 5.32728C8.30915 5.34843 8.23897 5.35357 8.1705 5.34228V5.34153ZM8.214 4.85178C8.13375 4.87653 8.085 4.95078 8.1045 5.01678C8.12475 5.08353 8.20575 5.11653 8.28525 5.09178C8.3655 5.06703 8.415 4.99278 8.39475 4.92678C8.37525 4.86003 8.295 4.82628 8.214 4.85178ZM12.9 4.27878L9.201 4.95228L11.136 5.38053C11.1882 5.30921 11.262 5.25662 11.3464 5.23054C11.4308 5.20447 11.5214 5.2063 11.6047 5.23578L12.9 4.27878ZM13.3537 4.35153L11.9745 5.37153L15.7582 5.47653L15.7665 5.44803L13.761 4.30503C13.7153 4.33848 13.6632 4.36209 13.608 4.37435C13.5527 4.38662 13.4955 4.38727 13.44 4.37628C13.4105 4.37097 13.3816 4.36268 13.3537 4.35153V4.35153ZM13.5322 3.88728C13.4497 3.87228 13.3725 3.91578 13.3612 3.98478C13.35 4.05228 13.4062 4.11978 13.4895 4.13478C13.572 4.14978 13.6485 4.10628 13.6605 4.03728C13.6725 3.96978 13.6147 3.90228 13.5322 3.88728ZM15.957 5.93103C15.9058 5.8994 15.8612 5.85814 15.8257 5.80953L11.8785 5.70003C11.8755 5.72348 11.8702 5.74659 11.8627 5.76903L13.4557 7.60578C13.5478 7.58578 13.6439 7.59759 13.7283 7.63927C13.8128 7.68096 13.8806 7.75005 13.9207 7.83528H15.6135C15.6548 7.74727 15.7253 7.67626 15.813 7.63428L15.957 5.93103ZM15.987 7.84953C15.8962 7.84953 15.822 7.92603 15.822 8.01978C15.822 8.11353 15.8962 8.18928 15.987 8.18928C16.0792 8.18928 16.1542 8.11353 16.1542 8.01978C16.1542 7.92603 16.0792 7.84953 15.9877 7.84953H15.987ZM16.0612 5.44953C16.02 5.52153 16.0507 5.61903 16.1302 5.66553C16.209 5.71353 16.3072 5.69328 16.3477 5.62053C16.3897 5.54853 16.359 5.45178 16.2795 5.40453C16.2 5.35728 16.1025 5.37753 16.0612 5.44953V5.44953ZM18.9975 9.43803L16.2772 5.99778L16.14 7.62453C16.2128 7.65431 16.2759 7.70375 16.3223 7.76732C16.3686 7.83089 16.3964 7.90609 16.4025 7.98453L18.9975 9.43803ZM17.2777 6.44028L16.6672 6.03078L18.6375 8.59578L17.679 6.88053C17.5989 6.87431 17.522 6.84601 17.457 6.79878C17.3295 6.70803 17.262 6.56628 17.277 6.44028H17.2777ZM17.5627 6.39753C17.5237 6.45453 17.5477 6.54003 17.6167 6.58953C17.685 6.63828 17.7727 6.63228 17.8117 6.57453C17.8507 6.51828 17.8267 6.43202 17.7585 6.38327C17.6887 6.33452 17.6017 6.34053 17.5635 6.39828L17.5627 6.39753ZM13.3852 8.01978C13.3852 8.11128 13.4565 8.18553 13.5472 8.18553C13.5907 8.18493 13.6323 8.16718 13.6627 8.13614C13.6932 8.1051 13.7102 8.06328 13.71 8.01978C13.7104 7.97614 13.6935 7.93413 13.663 7.90292C13.6325 7.87172 13.5909 7.85387 13.5472 7.85328C13.4572 7.85328 13.3845 7.92828 13.3845 8.01978H13.3852ZM13.4745 11.5995C13.4524 11.5997 13.4306 11.6043 13.4103 11.6129C13.39 11.6215 13.3716 11.6341 13.3561 11.6498C13.3407 11.6655 13.3285 11.6842 13.3202 11.7046C13.3119 11.7251 13.3078 11.747 13.308 11.769C13.308 11.8628 13.383 11.9393 13.4745 11.9393C13.4966 11.939 13.5183 11.9343 13.5386 11.9256C13.5589 11.9169 13.5772 11.9043 13.5926 11.8885C13.608 11.8727 13.6202 11.854 13.6283 11.8335C13.6365 11.813 13.6405 11.7911 13.6402 11.769C13.6405 11.747 13.6365 11.7251 13.6283 11.7047C13.6201 11.6842 13.608 11.6656 13.5926 11.6498C13.5772 11.6341 13.5588 11.6215 13.5386 11.6129C13.5183 11.6043 13.4965 11.5997 13.4745 11.5995V11.5995ZM11.3017 5.58153C11.3017 5.67528 11.376 5.75103 11.4675 5.75103C11.4896 5.75083 11.5114 5.74629 11.5317 5.73766C11.552 5.72904 11.5704 5.7165 11.5859 5.70076C11.6013 5.68502 11.6135 5.66639 11.6218 5.64593C11.63 5.62547 11.6342 5.60359 11.634 5.58153C11.634 5.48778 11.559 5.41128 11.4675 5.41128C11.4454 5.41157 11.4236 5.41621 11.4034 5.42492C11.3831 5.43364 11.3647 5.44626 11.3494 5.46207C11.334 5.47788 11.3218 5.49656 11.3137 5.51706C11.3055 5.53756 11.3014 5.55946 11.3017 5.58153ZM11.4232 6.05928L10.6627 7.67553C10.7478 7.73801 10.8066 7.82983 10.8278 7.9332C10.849 8.03656 10.8311 8.14411 10.7775 8.23503L13.3125 11.3775C13.3358 11.3679 13.3599 11.3604 13.3845 11.355V8.41053C13.3289 8.3863 13.2791 8.35044 13.2385 8.30535C13.1979 8.26026 13.1675 8.20699 13.1492 8.14914C13.1309 8.09129 13.1253 8.03019 13.1326 7.96997C13.14 7.90975 13.1601 7.8518 13.1917 7.80003L11.6467 6.01953C11.5774 6.0533 11.5 6.06707 11.4232 6.05928V6.05928ZM10.2532 8.01978C10.2532 8.11353 10.3282 8.18928 10.4197 8.18928C10.5105 8.18928 10.5855 8.11353 10.5855 8.01978C10.5855 7.92603 10.5105 7.84953 10.4197 7.84953C10.3751 7.85012 10.3325 7.86837 10.3013 7.90027C10.2701 7.93218 10.2528 7.97515 10.2532 8.01978V8.01978ZM8.03325 8.01978C8.03325 8.11128 8.10525 8.18553 8.19525 8.18553C8.28525 8.18553 8.358 8.11128 8.358 8.01978C8.358 7.92753 8.28525 7.85328 8.19525 7.85328C8.10525 7.85328 8.03325 7.92828 8.03325 8.01978ZM8.19525 15.9773C8.17328 15.9776 8.15159 15.9822 8.13141 15.9909C8.11123 15.9995 8.09296 16.0121 8.07764 16.0278C8.06232 16.0436 8.05024 16.0622 8.04211 16.0826C8.03398 16.103 8.02995 16.1248 8.03025 16.1468C8.03025 16.2405 8.10375 16.3163 8.19525 16.3163C8.2875 16.3163 8.36175 16.2405 8.36175 16.1468C8.36204 16.1247 8.35796 16.1028 8.34974 16.0823C8.34151 16.0618 8.32931 16.0431 8.31383 16.0273C8.29835 16.0116 8.2799 15.999 8.25954 15.9904C8.23919 15.9818 8.21734 15.9774 8.19525 15.9773V15.9773ZM6.54825 7.38228C6.4935 7.44678 6.489 7.53603 6.54075 7.58178C6.591 7.62678 6.67725 7.61328 6.73275 7.54803C6.78825 7.48428 6.792 7.39503 6.741 7.34928C6.69 7.30278 6.6045 7.31778 6.54825 7.38228ZM5.3295 12.3765C5.37154 12.4435 5.39365 12.521 5.39325 12.6C5.39325 12.6825 5.37075 12.759 5.33175 12.8213L8.03325 15.6128V8.41053C7.95989 8.37821 7.89721 8.32575 7.85247 8.25924C7.80773 8.19273 7.78277 8.1149 7.7805 8.03478L6.864 7.75353C6.83552 7.77936 6.80375 7.8013 6.7695 7.81878L5.3295 12.3765ZM13.8 15.7215C13.9792 15.7215 14.1315 15.8378 14.19 15.999H15.5985C15.6177 15.9452 15.6478 15.896 15.6867 15.8542C15.7256 15.8124 15.7727 15.779 15.825 15.756V8.41053C15.7727 8.38759 15.7256 8.3542 15.6867 8.31242C15.6477 8.27063 15.6177 8.22132 15.5985 8.16753H13.9365C13.9171 8.2212 13.887 8.27039 13.8481 8.31215C13.8091 8.3539 13.7622 8.38737 13.71 8.41053V11.418C13.766 11.4578 13.8116 11.5104 13.8429 11.5715C13.8742 11.6326 13.8904 11.7004 13.89 11.769C13.8912 11.8805 13.8481 11.9879 13.7702 12.0676C13.6923 12.1473 13.586 12.1929 13.4745 12.1943C13.4193 12.1937 13.3647 12.1822 13.3139 12.1605C13.2632 12.1388 13.2171 12.1073 13.1786 12.0678C13.14 12.0283 13.1095 11.9816 13.089 11.9303C13.0685 11.8791 13.0583 11.8242 13.059 11.769C13.059 11.7165 13.068 11.6663 13.086 11.619L10.515 8.43303C10.4156 8.45588 10.3113 8.44147 10.2219 8.39253C10.1324 8.34359 10.0641 8.26353 10.0297 8.16753H8.58525C8.56572 8.22127 8.53552 8.2705 8.49647 8.31226C8.45741 8.35402 8.41031 8.38745 8.358 8.41053V15.756C8.463 15.801 8.54475 15.8895 8.58525 15.999H10.2465C10.266 15.9453 10.2962 15.8961 10.3353 15.8543C10.3743 15.8125 10.4214 15.7791 10.4737 15.756V12.7035C10.4126 12.6651 10.3622 12.6118 10.3273 12.5486C10.2924 12.4853 10.2741 12.4143 10.2742 12.342C10.2736 12.2867 10.2838 12.2319 10.3043 12.1805C10.3249 12.1292 10.3554 12.0825 10.3941 12.043C10.4327 12.0035 10.4788 11.972 10.5297 11.9503C10.5806 11.9287 10.6352 11.9173 10.6905 11.9168C10.7587 11.917 10.8258 11.9338 10.886 11.9658C10.9462 11.9978 10.9977 12.0439 11.0361 12.1002C11.0745 12.1566 11.0986 12.2214 11.1064 12.2891C11.1141 12.3569 11.1052 12.4255 11.0805 12.489L13.6927 15.7365C13.7277 15.7272 13.7638 15.7221 13.8 15.7215ZM13.98 18.7568C13.89 18.7568 13.815 18.8243 13.815 18.9083C13.815 18.9923 13.89 19.059 13.98 19.059C14.0722 19.059 14.1472 18.9915 14.1472 18.909C14.1472 18.8265 14.0722 18.7568 13.9807 18.7568H13.98ZM13.6342 16.1468C13.6342 16.2405 13.7085 16.3163 13.7992 16.3163C13.8922 16.3163 13.9665 16.2405 13.9665 16.1468C13.9667 16.1247 13.9625 16.1028 13.9543 16.0824C13.946 16.0619 13.9338 16.0433 13.9184 16.0275C13.9029 16.0118 13.8845 15.9993 13.8642 15.9906C13.8439 15.982 13.8221 15.9775 13.8 15.9773C13.7556 15.9779 13.7132 15.996 13.6821 16.0278C13.6511 16.0596 13.6338 16.1023 13.6342 16.1468ZM10.524 12.342C10.524 12.4358 10.599 12.5115 10.6905 12.5115C10.782 12.5115 10.8562 12.4358 10.8562 12.342C10.8562 12.2475 10.782 12.1725 10.6905 12.1725C10.599 12.1725 10.524 12.2475 10.524 12.342ZM10.6365 15.9773C10.6144 15.9775 10.5926 15.982 10.5723 15.9906C10.552 15.9993 10.5336 16.0118 10.5181 16.0275C10.5027 16.0433 10.4905 16.0619 10.4822 16.0824C10.4739 16.1028 10.4698 16.1247 10.47 16.1468C10.47 16.2405 10.545 16.3163 10.6365 16.3163C10.728 16.3163 10.8022 16.2405 10.8022 16.1468C10.8025 16.1247 10.7985 16.1029 10.7903 16.0824C10.7821 16.062 10.77 16.0433 10.7546 16.0276C10.7392 16.0118 10.7208 15.9993 10.7006 15.9907C10.6803 15.982 10.6585 15.9775 10.6365 15.9773ZM10.7985 15.756C10.888 15.7953 10.9613 15.8643 11.0058 15.9514C11.0504 16.0384 11.0635 16.1382 11.043 16.2338L13.7377 18.5715C13.7623 18.5573 13.7881 18.5455 13.815 18.5363L13.677 16.5533C13.5915 16.5252 13.5171 16.4707 13.4646 16.3976C13.412 16.3246 13.384 16.2368 13.3845 16.1468C13.3845 16.0718 13.4032 16.002 13.437 15.942L10.8547 12.732C10.8365 12.74 10.8177 12.7465 10.7985 12.7515V15.756ZM16.1535 16.146C16.1535 16.053 16.0792 15.9773 15.9877 15.9773C15.9657 15.9775 15.9439 15.982 15.9236 15.9906C15.9033 15.9993 15.8849 16.0118 15.8694 16.0275C15.8539 16.0433 15.8417 16.0619 15.8335 16.0824C15.8252 16.1028 15.821 16.1247 15.8212 16.1468C15.8212 16.2405 15.8962 16.3163 15.9877 16.3163C16.0792 16.3163 16.1542 16.2405 16.1542 16.1468L16.1535 16.146ZM4.371 13.8803C4.4385 13.869 4.48125 13.791 4.467 13.707C4.452 13.6223 4.38675 13.563 4.32 13.575C4.2525 13.5863 4.2105 13.665 4.22475 13.749C4.23825 13.8338 4.30425 13.893 4.371 13.8803V13.8803ZM19.35 9.59478C19.296 9.61203 19.2675 9.68253 19.2877 9.75078C19.308 9.81903 19.3687 9.86027 19.4227 9.84302C19.4782 9.82577 19.5052 9.75528 19.4857 9.68703C19.4662 9.61803 19.4047 9.57753 19.3507 9.59478H19.35Z" fill="white"/>
</svg>
