<svg width="24" height="24" viewBox="0 0 24 24" fill="none" xmlns="http://www.w3.org/2000/svg">
<path d="M12 24C18.6274 24 24 18.6274 24 12C24 5.37258 18.6274 0 12 0C5.37258 0 0 5.37258 0 12C0 18.6274 5.37258 24 12 24Z" fill="#622FBA"/>
<path fill-rule="evenodd" clip-rule="evenodd" d="M13.9395 13.032C13.8743 13.0523 13.8113 13.077 13.7498 13.1055L10.9927 10.2398C11.1019 10.0506 11.1663 9.83902 11.1812 9.62115C11.196 9.40327 11.1608 9.18489 11.0783 8.98269C10.9958 8.78049 10.8682 8.59983 10.7052 8.45452C10.5421 8.30921 10.3481 8.20309 10.1378 8.14428V6.13953L9.39975 5.72703L11.1045 4.74078C11.3767 4.58329 11.6856 4.50037 12 4.50037C12.3144 4.50037 12.6233 4.58329 12.8955 4.74078L16.2847 6.70278L14.9453 7.47753C14.727 7.38071 14.4881 7.33994 14.2501 7.35891C14.0121 7.37788 13.7827 7.45599 13.5825 7.58615C13.3824 7.71631 13.218 7.8944 13.1042 8.10425C12.9903 8.3141 12.9307 8.54905 12.9307 8.78778C12.9308 9.09362 13.0288 9.3914 13.2103 9.63756C13.3918 9.88371 13.6473 10.0653 13.9395 10.1558V13.032ZM14.793 13.032V10.155C14.9979 10.0915 15.186 9.9827 15.3432 9.83673C15.5005 9.69076 15.623 9.51133 15.7016 9.31169C15.7802 9.11205 15.813 8.8973 15.7975 8.68329C15.782 8.46929 15.7186 8.2615 15.612 8.07528L17.1345 7.19478L17.862 7.61478C18.1321 7.7711 18.3564 7.99573 18.5123 8.26613C18.6681 8.53653 18.7501 8.84317 18.75 9.15528V14.8448C18.75 15.4793 18.4118 16.0658 17.8613 16.3845L14.7938 18.1605V15.7665C15.0851 15.6754 15.3397 15.4935 15.5204 15.2475C15.7011 15.0016 15.7985 14.7043 15.7985 14.399C15.7984 14.0938 15.7008 13.7965 15.5199 13.5506C15.3391 13.3047 15.0844 13.123 14.793 13.032V13.032ZM13.1227 13.6838C13.0156 13.87 12.9516 14.0779 12.9357 14.2921C12.9197 14.5063 12.9522 14.7214 13.0306 14.9214C13.1091 15.1214 13.2315 15.3012 13.3888 15.4475C13.5461 15.5938 13.7343 15.7028 13.9395 15.7665V18.6548L12.8955 19.2593C12.6233 19.4168 12.3144 19.4997 12 19.4997C11.6856 19.4997 11.3767 19.4168 11.1045 19.2593L7.455 17.1473L8.826 16.0763C9.08462 16.2933 9.41161 16.4121 9.74925 16.4115C9.93759 16.4118 10.1241 16.375 10.2982 16.3031C10.4723 16.2313 10.6306 16.1258 10.7639 15.9928C10.8972 15.8598 11.003 15.7018 11.0752 15.5278C11.1474 15.3539 11.1847 15.1674 11.1848 14.979C11.1845 14.6664 11.0819 14.3625 10.8927 14.1136C10.7035 13.8647 10.4381 13.6845 10.137 13.6005V10.902C10.2157 10.8803 10.2922 10.8518 10.365 10.8173L13.1227 13.6838ZM9.28425 13.6245C8.93971 13.7422 8.6529 13.9866 8.4821 14.3082C8.31131 14.6297 8.26935 15.0042 8.36475 15.3555L6.6615 16.6875L6.13875 16.3853C5.86847 16.2291 5.64406 16.0045 5.48806 15.7341C5.33205 15.4637 5.24995 15.157 5.25 14.8448V9.15528C5.25 8.52078 5.58825 7.93428 6.13875 7.61553L8.5425 6.22353L9.285 6.63828V8.16828C9.00268 8.26512 8.75766 8.44772 8.58417 8.69058C8.41067 8.93344 8.31736 9.22442 8.31728 9.52289C8.3172 9.82135 8.41034 10.1124 8.5837 10.3553C8.75707 10.5983 9.00199 10.781 9.28425 10.878V13.6245ZM9.75 10.1423C9.66679 10.1453 9.58382 10.1315 9.50605 10.1017C9.42829 10.072 9.35731 10.0269 9.29734 9.96909C9.23738 9.91132 9.18966 9.84206 9.15704 9.76545C9.12441 9.68884 9.10755 9.60645 9.10745 9.52318C9.10735 9.43992 9.12401 9.35748 9.15645 9.28079C9.18889 9.20411 9.23644 9.13473 9.29626 9.07681C9.35609 9.0189 9.42696 8.97362 9.50465 8.94367C9.58235 8.91373 9.66528 8.89974 9.7485 8.90253C9.90918 8.90792 10.0615 8.97549 10.1733 9.091C10.2851 9.2065 10.3478 9.36091 10.3479 9.52168C10.3481 9.68245 10.2859 9.83701 10.1744 9.95279C10.0628 10.0686 9.91066 10.1365 9.75 10.1423V10.1423ZM9.75 15.5985C9.66679 15.6015 9.58382 15.5877 9.50605 15.558C9.42829 15.5282 9.35731 15.4831 9.29734 15.4253C9.23738 15.3676 9.18966 15.2983 9.15704 15.2217C9.12441 15.1451 9.10755 15.0627 9.10745 14.9794C9.10735 14.8962 9.12401 14.8137 9.15645 14.737C9.18889 14.6604 9.23644 14.591 9.29626 14.5331C9.35609 14.4751 9.42696 14.4299 9.50465 14.3999C9.58235 14.37 9.66528 14.356 9.7485 14.3588C9.90918 14.3642 10.0615 14.4317 10.1733 14.5472C10.2851 14.6628 10.3478 14.8172 10.3479 14.9779C10.3481 15.1387 10.2859 15.2933 10.1744 15.409C10.0628 15.5248 9.91066 15.5928 9.75 15.5985V15.5985ZM14.3663 9.40728C14.283 9.41027 14.2001 9.39648 14.1223 9.36673C14.0445 9.33697 13.9736 9.29186 13.9136 9.23409C13.8536 9.17632 13.8059 9.10706 13.7733 9.03045C13.7407 8.95384 13.7238 8.87145 13.7237 8.78818C13.7236 8.70491 13.7403 8.62248 13.7727 8.54579C13.8051 8.4691 13.8527 8.39973 13.9125 8.34182C13.9723 8.2839 14.0432 8.23862 14.1209 8.20867C14.1986 8.17873 14.2815 8.16474 14.3647 8.16753C14.5254 8.17292 14.6777 8.24049 14.7896 8.356C14.9014 8.4715 14.964 8.62591 14.9642 8.78668C14.9644 8.94745 14.9022 9.10201 14.7906 9.21779C14.6791 9.33356 14.5269 9.4015 14.3663 9.40728V9.40728ZM14.3663 15.0188C14.2017 15.019 14.0439 14.9538 13.9274 14.8376C13.811 14.7215 13.7454 14.5638 13.7452 14.3993C13.7451 14.2348 13.8102 14.0769 13.9264 13.9605C14.0426 13.844 14.2002 13.7785 14.3647 13.7783C14.5293 13.7781 14.6871 13.8432 14.8036 13.9594C14.92 14.0756 14.9856 14.2333 14.9858 14.3978C14.9859 14.5623 14.9208 14.7201 14.8046 14.8366C14.6884 14.953 14.5308 15.0186 14.3663 15.0188Z" fill="white"/>
</svg>
