<svg width="48" height="48" viewBox="0 0 24 24" fill="none" xmlns="http://www.w3.org/2000/svg">
<path fill-rule="evenodd" clip-rule="evenodd" d="M8.4675 6.1215L5.86725 7.545C5.58751 7.72442 5.3521 7.96495 5.17875 8.2485C4.98065 8.57285 4.87557 8.94544 4.875 9.3255L4.88025 11.2545L4.875 11.25V14.6745C4.875 15.072 4.99125 15.453 5.199 15.783C5.39325 16.0905 5.66775 16.353 6.00525 16.5383L10.8698 19.2128C11.2286 19.4086 11.6325 19.5074 12.0413 19.4993V16.257L11.7682 16.107L8.45625 14.286L8.19825 14.1337L8.193 13.9852V10.2015L5.45775 11.7053L8.193 10.2015V9.9015L11.76 7.935L11.751 7.926L11.7682 7.93575L12.0413 7.78575V4.5C11.687 4.49329 11.3358 4.56661 11.0138 4.7145L8.46225 6.117L8.4675 6.12075V6.1215ZM12 24C5.37225 24 0 18.6277 0 12C0 5.37225 5.37225 0 12 0C18.6277 0 24 5.37225 24 12C24 18.6277 18.6277 24 12 24ZM15.27 10.245L12.0397 12.021V15.6075L15.27 13.8323V10.245ZM19.125 9.3255C19.125 8.95425 19.0238 8.598 18.8408 8.283L15.8903 9.90525V14.1645L15.5858 14.3317V17.862L17.9948 16.5383C18.3352 16.3525 18.6208 16.0803 18.8228 15.7493C19.0202 15.4252 19.1247 15.0532 19.125 14.6738V9.32625V9.3255ZM17.9948 7.4625L15.5858 6.138L12.3353 7.92525L15.5858 9.71175L15.8903 9.879V9.906L18.8408 8.28375C18.6385 7.93828 18.3461 7.65438 17.9948 7.4625V7.4625ZM12.0413 7.78575L12.3353 7.9245L15.5858 6.138L13.1302 4.788C12.7959 4.60539 12.4221 4.50705 12.0413 4.5015V7.7865V7.78575ZM12.0623 16.269L12.0413 16.2578V19.5C12.4221 19.4944 12.7959 19.3961 13.1302 19.2135L15.5468 17.8845L12.3353 16.119L12.0623 16.269ZM15.5858 14.3325L12.3353 16.119L15.5468 17.8845L15.5858 17.8627V14.3325Z" fill="black"/>
</svg>
