<svg width="48" height="48" viewBox="0 0 24 24" fill="none" xmlns="http://www.w3.org/2000/svg">
<path fill-rule="evenodd" clip-rule="evenodd" d="M13.6132 10.2892L14.9948 7.482C15.4223 6.492 15.9112 5.8725 16.461 5.625H12C12.4072 5.76975 12.6113 5.99625 12.6113 6.306C12.6113 6.393 12.4597 6.7665 12.1567 7.42725L13.6132 10.2892ZM11.4262 14.7352L9.99825 11.874C9.65925 12.555 9.288 13.299 8.883 14.1045C7.6815 16.7242 6.4905 18.1477 5.3085 18.375H16.2473L18.3862 15.0945C17.775 15.7755 16.563 16.116 14.7502 16.116H10.7475L11.4262 14.7352ZM12 24C5.37225 24 0 18.6277 0 12C0 5.37225 5.37225 0 12 0C18.6277 0 24 5.37225 24 12C24 18.6277 18.6277 24 12 24ZM3.75 15.1875H7.203L9.89175 9.741L12.6113 15.1875H15.789C15.7275 15.1463 15.6975 15.0427 15.6975 14.8777C15.6975 14.0392 18.7223 6.83175 20.25 6.42975H16.6448L13.7108 12.3713L10.686 6.42975H7.203C7.65075 6.75975 7.875 7.11075 7.875 7.482C7.875 9.0585 4.63575 14.6618 3.75 15.1875Z" fill="black"/>
</svg>
