<svg width="48" height="48" viewBox="0 0 24 24" fill="none" xmlns="http://www.w3.org/2000/svg">
<path fill-rule="evenodd" clip-rule="evenodd" d="M12 24C5.37225 24 0 18.6277 0 12C0 5.37225 5.37225 0 12 0C18.6277 0 24 5.37225 24 12C24 18.6277 18.6277 24 12 24ZM19.5615 12.6248C19.9418 12.6248 20.25 12.345 20.25 12V10.7498C20.25 10.4048 19.9425 10.125 19.5615 10.125H15.414C15.0338 10.125 14.7255 10.4048 14.7255 10.7498C14.7255 11.0948 15.0338 11.3745 15.414 11.3745H18.873V12C18.873 12.345 19.1813 12.6248 19.5615 12.6248ZM16.1498 12.6248H15.6248L11.7007 10.2397C11.5818 10.1641 11.4435 10.1242 11.3025 10.125H9.92625C9.546 10.125 9.23775 10.4048 9.23775 10.7498C9.23775 11.0948 9.54525 11.3745 9.92625 11.3745H11.0828L15.0967 13.8045C15.192 13.8495 15.2993 13.875 15.414 13.875H17.526C17.9063 13.875 18.2145 13.5953 18.2145 13.2495C18.2145 12.9045 17.907 12.6248 17.526 12.6248H16.1498V12.6248ZM11.3025 12.6248H10.137L6.213 10.2397C6.09401 10.1641 5.95576 10.1243 5.81475 10.125H4.4385C4.05825 10.125 3.75 10.4048 3.75 10.7498C3.75 11.0948 4.0575 11.3745 4.4385 11.3745H5.595L9.609 13.8045C9.7035 13.8495 9.8115 13.875 9.92625 13.875H11.3025C11.6827 13.875 11.991 13.5953 11.991 13.2495C11.991 12.9045 11.6827 12.6248 11.3025 12.6248V12.6248ZM4.4385 12.6248C4.05825 12.6248 3.75 12.9045 3.75 13.2502C3.75 13.5952 4.0575 13.875 4.4385 13.875H5.81475C6.195 13.875 6.50325 13.5952 6.50325 13.2502C6.50325 12.9052 6.195 12.6248 5.81475 12.6248H4.4385V12.6248Z" fill="black"/>
</svg>
