<svg width="24" height="24" viewBox="0 0 24 24" fill="none" xmlns="http://www.w3.org/2000/svg">
<path d="M12 24C18.6274 24 24 18.6274 24 12C24 5.37258 18.6274 0 12 0C5.37258 0 0 5.37258 0 12C0 18.6274 5.37258 24 12 24Z" fill="#164B79"/>
<path d="M10.5675 14.001L10.1003 14.9985H9.06375L11.8785 9L13.7558 12.9997H12.6945L11.8545 11.2635L11.013 13.029L10.5675 14.001ZM14.658 14.976L16.8555 12.0135L14.6423 9.0285H15.8535L17.4592 11.211L16.875 12.0135L17.4592 12.816L15.8542 14.9985H13.632L13.1625 14.001H14.199L14.658 14.976ZM18.0525 12.0007L17.4592 11.1855L19.065 9.003H20.25L18.0525 12.0007ZM18.0525 12.0007L20.25 14.9992H19.065L17.46 12.8168L18.0525 12.0007ZM8.5665 9.86925C8.83587 10.1536 9.04642 10.4883 9.18607 10.8542C9.32572 11.2201 9.39171 11.61 9.38025 12.0015C9.39054 12.7897 9.09947 13.5522 8.5665 14.133C8.025 14.7397 7.35525 15 6.5655 15C6.18984 15.0037 5.81759 14.9285 5.47288 14.7791C5.12816 14.6298 4.81868 14.4096 4.5645 14.133C4.02285 13.5575 3.73015 12.7915 3.75 12.0015C3.73793 11.3829 3.91909 10.776 4.26825 10.2653L4.95825 11.0002C4.74225 11.3857 4.65228 11.8291 4.70097 12.2682C4.74966 12.7073 4.93456 13.1202 5.22975 13.449C5.39704 13.6384 5.60241 13.7905 5.83245 13.8952C6.06249 13.9998 6.31202 14.0548 6.56475 14.0565C7.06875 14.0565 7.55025 13.8367 7.89975 13.449C8.2575 13.0762 8.45475 12.561 8.442 12.0278C8.44125 11.4968 8.247 10.9867 7.899 10.6057C7.73091 10.4194 7.5247 10.2713 7.29435 10.1717C7.06401 10.0721 6.81492 10.0231 6.564 10.0283C6.23241 10.0191 5.90583 10.1107 5.62725 10.2907L4.93725 9.55575C5.40062 9.18937 5.97636 8.99436 6.567 9.00375C7.317 8.98575 8.04075 9.29925 8.56575 9.86925H8.5665Z" fill="white"/>
</svg>
