<svg width="24" height="24" viewBox="0 0 24 24" fill="none" xmlns="http://www.w3.org/2000/svg">
<path d="M12 24C18.6274 24 24 18.6274 24 12C24 5.37258 18.6274 0 12 0C5.37258 0 0 5.37258 0 12C0 18.6274 5.37258 24 12 24Z" fill="#1A56F0"/>
<path d="M9.04874 12.4965C8.24086 12.4965 7.46607 12.8174 6.89481 13.3887C6.32355 13.9599 6.00262 14.7347 6.00262 15.5426C6.00262 16.3505 6.32355 17.1253 6.89481 17.6966C7.46607 18.2678 8.24086 18.5887 9.04874 18.5887C9.85662 18.5887 10.6314 18.2678 11.2027 17.6966C11.7739 17.1253 12.0949 16.3505 12.0949 15.5426C12.0949 14.7347 11.7739 13.9599 11.2027 13.3887C10.6314 12.8174 9.85662 12.4965 9.04874 12.4965ZM9.04874 17.667C8.48502 17.667 7.94439 17.4431 7.54579 17.0445C7.14718 16.6458 6.92324 16.1052 6.92324 15.5415C6.92324 14.9778 7.14718 14.4372 7.54579 14.0385C7.94439 13.6399 8.48502 13.416 9.04874 13.416C9.61256 13.416 10.1533 13.64 10.552 14.0387C10.9506 14.4373 11.1746 14.9781 11.1746 15.5419C11.1746 16.1057 10.9506 16.6464 10.552 17.0451C10.1533 17.4438 9.61256 17.6677 9.04874 17.6677V17.667ZM15.5542 6C15.1543 6 14.7582 6.07878 14.3887 6.23184C14.0192 6.38491 13.6834 6.60926 13.4006 6.89208C13.1177 7.1749 12.8934 7.51066 12.7403 7.88019C12.5873 8.24972 12.5085 8.64578 12.5085 9.04575C12.5085 9.44572 12.5873 9.84178 12.7403 10.2113C12.8934 10.5808 13.1177 10.9166 13.4006 11.1994C13.6834 11.4822 14.0192 11.7066 14.3887 11.8597C14.7582 12.0127 15.1543 12.0915 15.5542 12.0915C16.362 12.0915 17.1367 11.7706 17.7079 11.1994C18.2791 10.6282 18.6 9.85353 18.6 9.04575C18.6 8.23797 18.2791 7.46327 17.7079 6.89208C17.1367 6.32089 16.362 6 15.5542 6V6ZM15.5542 11.1697C14.9909 11.1697 14.4507 10.946 14.0523 10.5476C13.654 10.1493 13.4302 9.60907 13.4302 9.04575C13.4302 8.48243 13.654 7.94218 14.0523 7.54386C14.4507 7.14553 14.9909 6.92175 15.5542 6.92175C16.1176 6.92175 16.6578 7.14553 17.0561 7.54386C17.4545 7.94218 17.6782 8.48243 17.6782 9.04575C17.6782 9.60907 17.4545 10.1493 17.0561 10.5476C16.6578 10.946 16.1176 11.1697 15.5542 11.1697V11.1697ZM9.04874 6H12.0937V6.921H11.2305C11.7212 7.42479 12.0226 8.08282 12.0835 8.78347C12.1443 9.48413 11.961 10.1843 11.5645 10.7652C11.168 11.346 10.5828 11.7719 9.90814 11.9705C9.23346 12.1691 8.51087 12.1282 7.8629 11.8548C7.21494 11.5813 6.6815 11.0922 6.35308 10.4703C6.02465 9.84838 5.92144 9.13202 6.06097 8.4427C6.2005 7.75339 6.57417 7.13355 7.1186 6.68833C7.66303 6.24312 8.3447 5.99992 9.04799 6H9.04874ZM11.1735 9.045C11.1736 8.76607 11.1187 8.48986 11.0121 8.23212C10.9054 7.97439 10.7491 7.74019 10.5519 7.54289C10.3548 7.34558 10.1207 7.18905 9.863 7.08222C9.60535 6.97538 9.32917 6.92035 9.05024 6.92025C8.77131 6.92015 8.4951 6.97499 8.23737 7.08164C7.97963 7.18829 7.74543 7.34466 7.54813 7.54182C7.35083 7.73899 7.19429 7.97308 7.08746 8.23074C6.98063 8.4884 6.92559 8.76457 6.92549 9.0435C6.92519 9.60682 7.14869 10.1472 7.5468 10.5457C7.94492 10.9443 8.48505 11.1683 9.04837 11.1686C9.61169 11.1689 10.1521 10.9454 10.5506 10.5473C10.9491 10.1492 11.1732 9.60907 11.1735 9.04575V9.045Z" fill="white"/>
</svg>
