<svg width="32" height="32" xmlns="http://www.w3.org/2000/svg"><g fill="none" fill-rule="evenodd"><circle fill="#1A56F0" cx="16" cy="16" r="16"/><path d="M12.065 16.662a4.061 4.061 0 100 8.123 4.061 4.061 0 000-8.123zm0 6.894a2.833 2.833 0 110-5.668 2.833 2.833 0 010 5.669v-.001zM20.739 8a4.061 4.061 0 100 8.122 4.061 4.061 0 000-8.122zm0 6.893a2.832 2.832 0 110-5.664 2.832 2.832 0 010 5.664zM12.065 8h4.06v1.228h-1.151A4.063 4.063 0 1112.064 8zm2.833 4.06a2.832 2.832 0 10-5.664-.002 2.832 2.832 0 005.664.003z" fill="#FFF" fill-rule="nonzero"/></g></svg>