<svg width="48" height="48" viewBox="0 0 24 24" fill="none" xmlns="http://www.w3.org/2000/svg">
<path fill-rule="evenodd" clip-rule="evenodd" d="M12 24C5.37225 24 0 18.6277 0 12C0 5.37225 5.37225 0 12 0C18.6277 0 24 5.37225 24 12C24 18.6277 18.6277 24 12 24ZM7.54875 5.166H5.15625V7.563C5.77821 6.60618 6.5931 5.78976 7.54875 5.166V5.166ZM18.8018 7.4985V5.166H16.4512C17.3853 5.77551 18.1851 6.5692 18.8018 7.4985V7.4985ZM16.4858 18.8115H18.8018V16.5015C18.1927 17.4192 17.4051 18.2049 16.4858 18.8115ZM5.15625 16.437V18.8115H7.51425C6.57334 18.1906 5.77062 17.3822 5.15625 16.437V16.437ZM19.5 12C19.5 7.8645 16.1355 4.5 12 4.5C7.8645 4.5 4.5 7.8645 4.5 12C4.5 16.1355 7.8645 19.5 12 19.5C16.1355 19.5 19.5 16.1355 19.5 12ZM12 17.469C8.985 17.469 6.531 15.0157 6.531 12C6.531 8.985 8.98425 6.531 12 6.531C15.015 6.531 17.469 8.98425 17.469 12C17.469 15.015 15.0157 17.469 12 17.469Z" fill="black"/>
</svg>
