<svg width="48" height="48" viewBox="0 0 24 24" fill="none" xmlns="http://www.w3.org/2000/svg">
<path d="M12 24C5.37225 24 0 18.6277 0 12C0 5.37225 5.37225 0 12 0C18.6277 0 24 5.37225 24 12C24 18.6277 18.6277 24 12 24ZM11.9572 19.7333C16.2622 19.7333 19.5233 16.8488 20.1998 13.0748H16.527C15.978 15.0788 14.274 16.5458 12.0007 16.5458C9.744 16.5458 8.01825 15.0683 7.446 13.0748H3.75C4.40175 16.8623 7.635 19.7333 11.9572 19.7333ZM11.9782 7.5405C12.4809 7.5405 12.963 7.34082 13.3184 6.98539C13.6738 6.62997 13.8735 6.1479 13.8735 5.64525C13.8735 5.1426 13.6738 4.66053 13.3184 4.30511C12.963 3.94968 12.4809 3.75 11.9782 3.75C11.4756 3.75 10.9935 3.94968 10.6381 4.30511C10.2827 4.66053 10.083 5.1426 10.083 5.64525C10.083 6.1479 10.2827 6.62997 10.6381 6.98539C10.9935 7.34082 11.4756 7.5405 11.9782 7.5405ZM7.24125 13.0755H16.7137C16.7092 10.38 14.739 8.14275 11.955 8.14275C9.17175 8.14275 7.24125 10.3425 7.24125 13.0365V13.0748V13.0755Z" fill="black"/>
</svg>
