<svg width="24" height="24" viewBox="0 0 24 24" fill="none" xmlns="http://www.w3.org/2000/svg">
<path d="M12 24C18.6274 24 24 18.6274 24 12C24 5.37258 18.6274 0 12 0C5.37258 0 0 5.37258 0 12C0 18.6274 5.37258 24 12 24Z" fill="#32A4BE"/>
<path fill-rule="evenodd" clip-rule="evenodd" d="M18.75 18.1628L7.48275 7.14078C8.73069 5.92338 10.4066 5.24445 12.15 5.25003C15.795 5.25003 18.75 8.14053 18.75 11.7068V18.1628ZM5.25 5.83728L16.5173 16.8593C15.2693 18.0767 13.5934 18.7556 11.85 18.75C8.205 18.75 5.25 15.8595 5.25 12.2933V5.83728Z" fill="white"/>
</svg>
