<svg width="48" height="48" viewBox="0 0 24 24" fill="none" xmlns="http://www.w3.org/2000/svg">
<path d="M12 24C5.37225 24 0 18.6277 0 12C0 5.37225 5.37225 0 12 0C18.6277 0 24 5.37225 24 12C24 18.6277 18.6277 24 12 24ZM12.2595 18.7448C12.4215 18.729 12.7275 18.7147 13.029 18.6667C14.6175 18.4117 15.9675 17.6962 17.0303 16.4902C18.468 14.8582 19.0088 12.9487 18.6353 10.8052C18.3398 9.11175 17.4945 7.725 16.1348 6.672C14.6123 5.49225 12.8783 5.052 10.9748 5.331C9.59632 5.52205 8.31691 6.15465 7.32825 7.134C5.757 8.673 5.07525 10.5503 5.29575 12.7418C5.3947 13.7329 5.72257 14.6875 6.2535 15.5303C6.2686 15.5518 6.27832 15.5767 6.28184 15.6028C6.28536 15.6289 6.28259 15.6554 6.27375 15.6802C6.11798 16.1765 5.85993 16.6346 5.51625 17.025C4.98375 17.6288 5.29125 18.5602 6.0765 18.72C6.366 18.7792 6.657 18.7387 6.945 18.7012C7.61754 18.6082 8.26643 18.3888 8.8575 18.0547C8.9175 18.021 8.9625 18.0232 9.0225 18.0525C9.9975 18.5362 11.0303 18.7575 12.2595 18.7448V18.7448ZM7.437 16.9537C7.515 16.785 7.587 16.6358 7.6545 16.4843C7.8075 16.1325 7.9275 15.7702 8.01375 15.396C8.04213 15.281 8.04543 15.1613 8.02343 15.045C8.00143 14.9286 7.95464 14.8184 7.88625 14.7217C7.52625 14.1832 7.27275 13.5983 7.16325 12.96C6.82875 11.0228 7.4115 9.408 8.92125 8.14725C9.69975 7.497 10.6148 7.149 11.6288 7.0785C13.1303 6.975 14.4262 7.4565 15.4927 8.5125C16.3777 9.38925 16.8653 10.4655 16.9215 11.712C17.0093 13.6583 16.1993 15.1612 14.5718 16.206C13.6305 16.8097 12.5783 17.022 11.463 16.9028C10.7851 16.8303 10.13 16.6165 9.54 16.275C9.26175 16.1153 9.0015 16.125 8.7375 16.311C8.37145 16.5732 7.96857 16.7797 7.542 16.9238C7.51425 16.9328 7.48575 16.9402 7.437 16.9537V16.9537ZM12.0052 9.14475C11.9835 9.18375 11.9715 9.2025 11.961 9.22275C11.676 9.79875 11.391 10.374 11.1082 10.9515C11.0797 11.0093 11.0482 11.046 10.9792 11.0558C10.5465 11.115 10.1153 11.178 9.68325 11.2395L8.99625 11.3385L8.97375 11.3745C9.00375 11.394 9.0405 11.4082 9.066 11.4337C9.5145 11.871 9.9615 12.309 10.4085 12.7477C10.4505 12.789 10.4925 12.8235 10.4782 12.8992C10.3852 13.41 10.2975 13.9223 10.2083 14.4338L10.1302 14.9078C10.1745 14.8868 10.1978 14.877 10.221 14.8643C10.7813 14.5703 11.3415 14.277 11.8995 13.9792C11.9775 13.9372 12.0353 13.9418 12.111 13.9815C12.666 14.2793 13.2225 14.5717 13.779 14.865C13.803 14.8777 13.8293 14.886 13.8638 14.8995C13.8615 14.8695 13.8615 14.8522 13.8593 14.8365C13.752 14.2027 13.6478 13.569 13.5353 12.9368C13.5188 12.8445 13.5428 12.789 13.6058 12.7283C13.9643 12.3848 14.3205 12.0382 14.676 11.6917C14.7893 11.5815 14.8972 11.4645 15.0135 11.3452C14.9865 11.3392 14.9647 11.3333 14.943 11.3303C14.313 11.2388 13.6845 11.1465 13.0545 11.0587C12.9705 11.0475 12.9195 11.019 12.882 10.938C12.7373 10.6267 12.5835 10.3208 12.432 10.0125C12.2933 9.72975 12.1545 9.44625 12.0052 9.14475V9.14475Z" fill="black"/>
</svg>
