<svg width="24" height="24" viewBox="0 0 24 24" fill="none" xmlns="http://www.w3.org/2000/svg">
<path d="M12 24C18.6274 24 24 18.6274 24 12C24 5.37258 18.6274 0 12 0C5.37258 0 0 5.37258 0 12C0 18.6274 5.37258 24 12 24Z" fill="#BBDFD0"/>
<path d="M17.3115 17.9985C15.9848 16.7033 14.349 16.1678 12.5393 16.056C10.9995 15.9608 9.52725 16.2188 8.15025 16.9245C7.64097 17.1823 7.17612 17.5198 6.77325 17.9243C6.747 17.9513 6.71625 17.9753 6.6885 18C5.84058 17.3108 5.14369 16.4543 4.64129 15.484C4.13888 14.5137 3.84172 13.4502 3.76833 12.36C3.69494 11.2698 3.8469 10.1761 4.21472 9.1472C4.58254 8.11827 5.15835 7.17614 5.90625 6.37951C9.14625 2.88976 14.7863 2.86951 18.0563 6.34351C18.8126 7.13792 19.3963 8.08019 19.7709 9.1111C20.1455 10.142 20.3027 11.2393 20.2328 12.3339C20.1628 13.4285 19.8672 14.4968 19.3645 15.4717C18.8617 16.4465 18.1628 17.3068 17.3115 17.9985V17.9985ZM9.015 11.8463C9.01575 13.467 10.3425 14.7713 11.9933 14.7743C13.6523 14.7773 14.9955 13.4693 14.997 11.85C14.9993 10.236 13.6463 8.91376 11.997 8.91751C10.35 8.92126 9.01425 10.2338 9.015 11.8463V11.8463Z" fill="white"/>
</svg>
