<svg width="24" height="24" viewBox="0 0 24 24" fill="none" xmlns="http://www.w3.org/2000/svg">
<path d="M12 24C18.6274 24 24 18.6274 24 12C24 5.37258 18.6274 0 12 0C5.37258 0 0 5.37258 0 12C0 18.6274 5.37258 24 12 24Z" fill="#4392CD"/>
<path fill-rule="evenodd" clip-rule="evenodd" d="M12.6435 19.125H11.3565C10.3905 19.125 10.1168 18.2295 10.1168 17.5455C10.1168 16.8615 10.1655 16.5518 10.1655 16.2428C10.1655 15.7553 9.9195 14.538 9.47325 14.028C8.604 13.0343 8.0565 12.144 8.0565 10.8525C7.3005 10.4618 5.964 10.1033 5.4495 9.51752C4.935 8.93177 4.5 8.10002 4.5 6.91052C4.5 6.60677 4.5645 6.17777 4.6935 5.62427C4.98975 6.54977 5.44575 7.18427 6.0615 7.52927C6.96225 8.03477 7.97775 8.40902 8.8455 8.40902H15.1545C16.0222 8.40902 17.037 8.03402 17.9385 7.52927C18.5535 7.18427 19.0103 6.54977 19.3065 5.62427C19.4355 6.17777 19.5 6.60677 19.5 6.91052C19.5 8.09927 19.065 8.93027 18.5505 9.51602C18.036 10.1018 16.6995 10.461 15.9435 10.851C15.9435 12.1433 15.396 13.0335 14.5267 14.0273C14.0805 14.5373 13.8345 15.7545 13.8345 16.242C13.8345 16.551 13.8832 16.8608 13.8832 17.5448C13.8832 18.2288 13.6095 19.1243 12.6435 19.1243V19.125Z" fill="white"/>
</svg>
