<svg width="48" height="48" viewBox="0 0 24 24" fill="none" xmlns="http://www.w3.org/2000/svg">
<path d="M12 24C5.37225 24 0 18.6277 0 12C0 5.37225 5.37225 0 12 0C18.6277 0 24 5.37225 24 12C24 18.6277 18.6277 24 12 24ZM12.6435 19.125C13.6095 19.125 13.8832 18.2295 13.8832 17.5455C13.8832 16.8615 13.8345 16.5517 13.8345 16.2427C13.8345 15.7552 14.0805 14.538 14.5267 14.028C15.396 13.0343 15.9435 12.144 15.9435 10.8525C16.6995 10.4618 18.036 10.1032 18.5505 9.5175C19.065 8.93175 19.5 8.1 19.5 6.9105C19.5 6.60675 19.4355 6.17775 19.3065 5.62425C19.0103 6.54975 18.5542 7.18425 17.9385 7.52925C17.0377 8.03475 16.0222 8.409 15.1545 8.409H8.8455C7.97775 8.409 6.963 8.034 6.0615 7.52925C5.4465 7.18425 4.98975 6.54975 4.6935 5.62425C4.5645 6.1785 4.5 6.6075 4.5 6.91125C4.5 8.1 4.935 8.931 5.4495 9.51675C5.964 10.1025 7.3005 10.4617 8.0565 10.8517C8.0565 12.144 8.604 13.0343 9.47325 14.028C9.9195 14.538 10.1655 15.7552 10.1655 16.2427C10.1655 16.5517 10.1168 16.8615 10.1168 17.5455C10.1168 18.2295 10.3905 19.125 11.3565 19.125H12.6435Z" fill="black"/>
</svg>
