<svg width="24" height="24" viewBox="0 0 24 24" fill="none" xmlns="http://www.w3.org/2000/svg">
<path d="M12 24C18.6274 24 24 18.6274 24 12C24 5.37258 18.6274 0 12 0C5.37258 0 0 5.37258 0 12C0 18.6274 5.37258 24 12 24Z" fill="#00ACFF"/>
<path fill-rule="evenodd" clip-rule="evenodd" d="M11.31 15.117C11.3566 15.0977 11.4066 15.0877 11.4571 15.0878C11.5075 15.0879 11.5575 15.0979 11.6041 15.1173C11.6506 15.1368 11.6929 15.1653 11.7284 15.2011C11.7639 15.237 11.792 15.2795 11.811 15.3263C11.8498 15.4206 11.8498 15.5264 11.8109 15.6207C11.7719 15.715 11.6973 15.7901 11.6032 15.8295L9.04875 16.89L8.70975 18.75H6.95175L7.1445 17.6805L6.108 18.1103C6.06138 18.1296 6.0114 18.1396 5.96093 18.1395C5.91046 18.1395 5.8605 18.1294 5.81393 18.11C5.76736 18.0905 5.7251 18.062 5.68958 18.0262C5.65407 17.9903 5.626 17.9478 5.607 17.901C5.56839 17.8068 5.56856 17.7011 5.60747 17.607C5.64637 17.5129 5.72087 17.438 5.81475 17.3985L7.30725 16.779L7.41975 16.1498L5.4045 16.986C5.35792 17.0053 5.30801 17.0151 5.25762 17.015C5.20724 17.0149 5.15737 17.0048 5.11089 16.9854C5.0644 16.9659 5.02222 16.9375 4.98675 16.9017C4.95129 16.8659 4.92325 16.8234 4.90425 16.7768C4.86541 16.6825 4.86546 16.5766 4.90438 16.4823C4.9433 16.388 5.01794 16.313 5.112 16.2735L7.58175 15.2483L9.38025 5.25753H14.46C17.5702 5.15028 19.125 6.18903 19.125 8.37378C19.125 11.145 17.0985 13.2885 13.6612 13.2885H9.705L9.49275 14.4555L10.608 13.9928C10.6546 13.9735 10.7045 13.9637 10.7549 13.9638C10.8053 13.9639 10.8551 13.974 10.9016 13.9934C10.9481 14.0129 10.9903 14.0413 11.0257 14.0771C11.0612 14.1129 11.0892 14.1554 11.1082 14.202C11.1469 14.2963 11.1467 14.4019 11.1078 14.496C11.0689 14.5901 10.9944 14.6651 10.9005 14.7045L9.32775 15.3578L9.213 15.9878L11.31 15.117ZM10.8825 6.83178L10.0035 11.6505H13.917C16.326 11.6505 17.2395 10.0118 17.2395 8.82303C17.2395 7.63503 16.665 6.83178 14.748 6.83178H10.8825Z" fill="white"/>
</svg>
