<svg width="48" height="48" viewBox="0 0 24 24" fill="none" xmlns="http://www.w3.org/2000/svg">
<path d="M12 24C5.37225 24 0 18.6277 0 12C0 5.37225 5.37225 0 12 0C18.6277 0 24 5.37225 24 12C24 18.6277 18.6277 24 12 24ZM20.16 10.0125L20.535 10.575C21.285 8.685 21.1125 7.2075 20.4375 6.5625C19.2225 5.3925 17.4375 6.045 15.5025 5.235C13.89 4.05 12.915 3.735 11.5725 3.735C10.6555 3.89274 9.80665 4.32109 9.135 4.965C8.59347 4.93333 8.05151 5.01952 7.54652 5.21763C7.04154 5.41574 6.58554 5.72105 6.21 6.1125C5.415 7.05 5.235 9.6225 5.115 10.275C4.995 10.9275 3.615 13.56 3.7575 15C3.9 16.44 4.9575 18 7.95 18.3675C8.50481 19.0119 9.19711 19.5236 9.9759 19.865C10.7547 20.2064 11.6002 20.3687 12.45 20.34C14.0175 20.175 16.2 17.775 17.4675 16.8225C18.735 15.87 23.25 15.045 20.5575 10.6125C20.4421 10.4188 20.3169 10.231 20.1825 10.05L20.16 10.0125V10.0125ZM13.3125 16.6125C12.1724 16.8336 10.9909 16.6506 9.97112 16.0949C8.95137 15.5392 8.15713 14.6455 7.725 13.5675C7.56 12.9225 7.2375 9.6375 9.975 8.01C12.015 6.855 14.8875 6.6975 16.095 9.39C17.3025 12.0825 16.86 15.855 13.3125 16.6125V16.6125Z" fill="black"/>
</svg>
