<svg width="24" height="24" viewBox="0 0 24 24" fill="none" xmlns="http://www.w3.org/2000/svg">
<path d="M12 24C18.6274 24 24 18.6274 24 12C24 5.37258 18.6274 0 12 0C5.37258 0 0 5.37258 0 12C0 18.6274 5.37258 24 12 24Z" fill="#302C2C"/>
<path d="M20.1825 11.772C20.1414 11.6887 20.0869 11.6127 20.0212 11.547C18.5947 9.9315 15.6915 6.75 15.6915 6.75L12.0037 10.7835L8.26874 6.78825C8.26874 6.78825 5.33174 9.9975 3.89249 11.6302C3.70499 11.8147 3.70499 12.1477 3.87299 12.3442C4.62074 13.1962 8.29349 17.2463 8.29349 17.2463L11.9985 13.1857L15.678 17.25L20.1157 12.3405C20.1157 12.3405 20.2095 12.243 20.2297 12.1777C20.2732 12.0427 20.2417 11.8958 20.1825 11.772V11.772ZM5.93849 12.2213C5.81849 12.0795 5.85899 11.8568 5.97074 11.7225C6.44024 11.1878 8.31899 9.1725 8.31899 9.1725L10.9365 11.9513L8.31449 14.8193C8.31449 14.8193 6.70949 13.1063 5.93849 12.2213V12.2213ZM17.9295 12.3157C17.8742 12.4105 17.8099 12.4996 17.7375 12.582L15.705 14.7908L13.08 12L15.663 9.16875C15.663 9.16875 17.151 10.71 17.8327 11.5388C17.8905 11.6108 17.9587 11.679 17.988 11.7705C18.0502 11.9498 18.0105 12.1493 17.9287 12.315" fill="white"/>
</svg>
