<svg width="48" height="48" viewBox="0 0 24 24" fill="none" xmlns="http://www.w3.org/2000/svg">
<path d="M12 24C5.37225 24 0 18.6277 0 12C0 5.37225 5.37225 0 12 0C18.6277 0 24 5.37225 24 12C24 18.6277 18.6277 24 12 24ZM8.76525 7.5465H8.78925C10.9455 7.59375 13.1017 7.5 15.258 7.59375C15.7965 7.59375 16.4295 7.85175 16.5465 8.41425C16.734 9.72675 15.633 10.9222 14.4375 11.2267C13.125 11.4375 11.8125 11.367 10.5233 11.367C10.2121 12.1333 9.89962 12.8991 9.58575 13.6642C11.1563 13.6642 12.7268 13.734 14.2733 13.5C15.3652 13.2558 16.3762 12.7353 17.2094 11.9884C18.0425 11.2414 18.6698 10.293 19.0312 9.234C19.4062 8.25 19.5705 7.008 18.8205 6.141C18.1875 5.34375 17.0625 5.34375 16.125 5.2725L9.70275 5.25L8.76525 7.54725V7.5465ZM6 8.1795V8.20275L4.96875 10.7812H12.6097L13.617 8.1795H6V8.1795ZM7.21875 11.367H7.242L4.5 18.3983H7.10175L9.867 11.367H7.21875V11.367Z" fill="black"/>
</svg>
