<svg width="48" height="48" viewBox="0 0 24 24" fill="none" xmlns="http://www.w3.org/2000/svg">
<path fill-rule="evenodd" clip-rule="evenodd" d="M12 24C5.37225 24 0 18.6277 0 12C0 5.37225 5.37225 0 12 0C18.6277 0 24 5.37225 24 12C24 18.6277 18.6277 24 12 24ZM8.6955 12.0787C8.7645 12.2692 8.8635 12.4477 8.98875 12.6075L9.012 12.6375L8.97825 12.597C9.02175 12.6592 9.06825 12.7185 9.1185 12.7748L9.1875 12.8438C9.2145 12.87 9.23625 12.8962 9.258 12.915L10.755 14.4233C11.0175 14.6873 11.4 14.7907 11.7578 14.6932C12.1155 14.5972 12.3953 14.3153 12.4913 13.9545C12.5873 13.5938 12.4845 13.209 12.2228 12.945L9.3 9.99975C9.30178 9.99803 9.30353 9.99628 9.30525 9.9945L9.35025 9.95625L12.3075 6.99825L12.3255 7.01775L12.3323 7.02525L17.8597 12.6052C18.0653 12.7373 18.3099 12.7947 18.5527 12.7681C18.7956 12.7415 19.0219 12.6324 19.194 12.459C19.554 12.0967 19.6013 11.526 19.3065 11.109L13.05 4.806C12.9542 4.70923 12.8402 4.63237 12.7146 4.57984C12.589 4.52732 12.4542 4.50017 12.3181 4.49996C12.1819 4.49975 12.0471 4.52648 11.9213 4.57862C11.7955 4.63076 11.6813 4.70727 11.5852 4.80375L9.675 6.7155L9.60675 6.7755C9.56175 6.81675 9.51525 6.855 9.4665 6.891L7.10775 9.2505C6.91269 9.44704 6.80323 9.71272 6.80323 9.98962C6.80323 10.2665 6.91269 10.5322 7.10775 10.7288L8.9775 12.6172C8.85465 12.4543 8.75915 12.2724 8.69475 12.0787H8.6955ZM14.805 14.0085C14.8035 14.01 14.802 14.0115 14.8005 14.013L14.757 14.0483L11.8058 16.9995L11.787 16.977L6.249 11.3842C6.05851 11.2072 5.80849 11.1082 5.54846 11.1068C5.28843 11.1055 5.03737 11.2018 4.845 11.3767C4.65182 11.5527 4.53071 11.7939 4.50508 12.054C4.47945 12.314 4.55113 12.5743 4.70625 12.7845L11.064 19.1948C11.469 19.602 12.1245 19.602 12.5295 19.1948L14.4975 17.2267C14.5425 17.187 14.5905 17.1488 14.64 17.1143L17.001 14.7525C17.406 14.3445 17.406 13.6822 17.001 13.2735L15.0427 11.3033C15.059 11.3261 15.075 11.3491 15.0908 11.3723C15.0576 11.3244 15.0215 11.2785 14.9827 11.235L14.9145 11.166C14.8867 11.1397 14.865 11.1135 14.844 11.0948L13.3463 9.58725C13.2018 9.44021 13.0167 9.33971 12.8147 9.29867C12.6127 9.25763 12.4031 9.27792 12.2127 9.35694C12.0224 9.43595 11.86 9.57009 11.7464 9.7421C11.6329 9.91411 11.5734 10.1161 11.5755 10.3222C11.5755 10.5997 11.6842 10.866 11.8792 11.0617L14.805 14.0085Z" fill="black"/>
</svg>
