<svg width="48" height="48" viewBox="0 0 24 24" fill="none" xmlns="http://www.w3.org/2000/svg">
<path fill-rule="evenodd" clip-rule="evenodd" d="M12 24C5.37225 24 0 18.6277 0 12C0 5.37225 5.37225 0 12 0C18.6277 0 24 5.37225 24 12C24 18.6277 18.6277 24 12 24ZM6.3075 15.6765C6.6795 16.0568 7.242 16.23 8.00025 16.2277C9.62025 16.2277 10.9658 14.8282 10.9658 12.48V12.1875C10.9658 9.93 9.80325 8.241 8.03025 8.241C7.60725 8.241 6.85275 8.25675 6.26175 8.82375H6.195V8.34375H4.5V18.75H6.234V15.6765H6.3075ZM9.3555 12.6195C9.3555 14.1338 8.70675 14.8192 7.827 14.8215C6.7095 14.8215 6.14025 13.866 6.14025 12.6172V12.1072C6.14025 10.797 6.7185 9.654 7.797 9.654C8.79525 9.654 9.3555 10.6365 9.3555 12.1072V12.6195ZM11.805 5.25V16.182H13.5413V5.25H11.805ZM18.5018 10.0568H18.7192L18.7095 8.307C18.6345 8.307 18.6982 8.30475 18.6202 8.30475C17.8387 8.2935 16.8878 8.4855 16.5 8.895H16.434V8.41725H14.8342V16.1887H16.5615V11.8058C16.5615 10.8293 17.5283 10.0568 18.5018 10.0568ZM17.7728 14.3212V16.182H19.5V14.3212H17.7728Z" fill="black"/>
</svg>
