<svg width="24" height="24" viewBox="0 0 24 24" fill="none" xmlns="http://www.w3.org/2000/svg">
<path d="M12 24C18.6274 24 24 18.6274 24 12C24 5.37258 18.6274 0 12 0C5.37258 0 0 5.37258 0 12C0 18.6274 5.37258 24 12 24Z" fill="#444FA1"/>
<path d="M3.75 18L12 3.75L20.25 18H3.75ZM8.904 10.743C9.86775 10.0995 10.9012 9.77475 12 9.77475C13.0988 9.77475 14.1323 10.0995 15.096 10.743L12 5.3955L8.904 10.743ZM7.44075 13.2705L5.193 17.1533H18.807L16.5593 13.2712C15.2018 14.763 13.677 15.5205 12 15.5205C10.323 15.5205 8.7975 14.763 7.44 13.2705H7.44075ZM12 14.6738C13.4535 14.6738 14.7832 14.0062 16.0035 12.6487C14.7832 11.289 13.4535 10.6223 12 10.6223C10.5465 10.6223 9.21675 11.2898 7.9965 12.648C9.21675 14.007 10.5465 14.6745 12 14.6745V14.6738ZM12 14.3115C11.13 14.3115 10.4243 13.5802 10.4243 12.678C10.4243 11.7765 11.1292 11.0453 12 11.0453C12.8708 11.0453 13.5757 11.7765 13.5757 12.678C13.5757 13.5802 12.8708 14.3115 12 14.3115ZM12 13.464C12.4193 13.464 12.759 13.1122 12.759 12.678C12.759 12.2437 12.4193 11.892 12 11.892C11.5807 11.892 11.241 12.2445 11.241 12.678C11.241 13.113 11.5807 13.4647 12 13.4647V13.464Z" fill="white"/>
</svg>
