<svg width="48" height="48" viewBox="0 0 24 24" fill="none" xmlns="http://www.w3.org/2000/svg">
<path d="M12 24C5.37225 24 0 18.6277 0 12C0 5.37225 5.37225 0 12 0C18.6277 0 24 5.37225 24 12C24 18.6277 18.6277 24 12 24ZM3.75 18H20.25L12 3.75L3.75 18ZM8.904 10.743L12 5.3955L15.096 10.743C14.1323 10.0995 13.0988 9.77475 12 9.77475C10.9012 9.77475 9.86775 10.0995 8.904 10.743ZM7.44075 13.2705C8.79825 14.763 10.323 15.5205 12 15.5205C13.677 15.5205 15.2025 14.763 16.56 13.2705L18.807 17.1533H5.193L7.44075 13.2705ZM12 14.6738C10.5465 14.6738 9.21675 14.0062 7.9965 12.6487C9.21675 11.289 10.5465 10.6223 12 10.6223C13.4535 10.6223 14.7832 11.2898 16.0035 12.648C14.7832 14.007 13.4535 14.6745 12 14.6745V14.6738ZM12 14.3115C12.87 14.3115 13.5757 13.5802 13.5757 12.678C13.5757 11.7765 12.8708 11.0453 12 11.0453C11.1292 11.0453 10.4243 11.7765 10.4243 12.678C10.4243 13.5802 11.1292 14.3115 12 14.3115ZM12 13.464C11.5807 13.464 11.241 13.1122 11.241 12.678C11.241 12.2437 11.5807 11.892 12 11.892C12.4193 11.892 12.759 12.2445 12.759 12.678C12.759 13.113 12.4193 13.4647 12 13.4647V13.464Z" fill="black"/>
</svg>
