<svg width="48" height="48" viewBox="0 0 24 24" fill="none" xmlns="http://www.w3.org/2000/svg">
<path fill-rule="evenodd" clip-rule="evenodd" d="M12 24C5.37225 24 0 18.6277 0 12C0 5.37225 5.37225 0 12 0C18.6277 0 24 5.37225 24 12C24 18.6277 18.6277 24 12 24ZM18.5685 5.799C17.9657 5.20506 17.1528 4.87301 16.3065 4.875C15.4478 4.875 14.6482 5.205 14.0445 5.799L6.6525 13.0785C6.61522 13.1159 6.58626 13.1608 6.56752 13.2101C6.54878 13.2595 6.54068 13.3123 6.54375 13.365V17.112L4.5 19.125H5.62725L7.14075 17.6348H10.9237C10.9768 17.6353 11.0295 17.6248 11.0783 17.6038C11.1271 17.5829 11.171 17.5521 11.2072 17.5132L18.5618 10.2697L18.5693 10.2622C18.8635 9.97233 19.0973 9.62688 19.2571 9.24593C19.4169 8.86497 19.4994 8.4561 19.5 8.043C19.502 7.62599 19.4207 7.21279 19.2607 6.82768C19.1007 6.44257 18.8654 6.09333 18.5685 5.8005V5.799ZM14.2695 6.645L14.5823 6.3375C15.0416 5.88479 15.6616 5.6324 16.3065 5.6355C16.9538 5.6355 17.565 5.886 18.0308 6.3375C18.0383 6.345 18.0457 6.3585 18.06 6.366C18.5032 6.8175 18.7432 7.40475 18.7432 8.0355C18.7432 8.673 18.4883 9.2745 18.0308 9.7335L17.7105 10.0485H14.8515L16.7288 8.19975C16.8005 8.12968 16.8421 8.0344 16.8448 7.93414C16.8475 7.83388 16.8109 7.73652 16.743 7.66275C16.7355 7.65525 16.7355 7.64775 16.728 7.641C16.6527 7.56885 16.5525 7.52857 16.4482 7.52857C16.344 7.52857 16.2438 7.56885 16.1685 7.641L14.277 9.504V6.64425L14.2695 6.645ZM7.9125 16.8757L9.4545 15.3563H12.3135L10.7715 16.8757H7.9125ZM12.4005 12.4478L14.2267 10.6493H17.0858L15.2595 12.4478H12.4005ZM14.634 13.0643L12.9315 14.7405H10.0725L11.775 13.0643H14.634ZM11.8192 9.05925L13.6522 7.25325V10.1047L11.8192 11.9175V9.05925ZM9.49125 11.3513L11.1938 9.675V12.5265L9.49125 14.2028V11.3513ZM7.30875 13.5007L8.8725 11.9677V14.8193L7.30875 16.3522V13.5007Z" fill="black"/>
</svg>
