<svg width="24" height="24" viewBox="0 0 24 24" fill="none" xmlns="http://www.w3.org/2000/svg">
<path d="M12 24C18.6274 24 24 18.6274 24 12C24 5.37258 18.6274 0 12 0C5.37258 0 0 5.37258 0 12C0 18.6274 5.37258 24 12 24Z" fill="#4C5A95"/>
<path d="M20.25 8.44725L20.217 7.917L20.0535 8.36175L19.134 9.13425L18.081 9.291L17.766 8.99925L18.6893 7.7745L19.6343 7.5L18.6113 7.521L17.124 8.5575L15.7297 8.4615L13.7723 7.5L12.6157 7.72425L9.0075 10.6088L7.269 11.1465L6.5535 11.8448L5.274 11.862L4.64025 12.9945L3.75 13.2405L4.5915 13.3508L5.37375 12.336L6.58275 12.5782L6.56025 13.6642L5.9565 15.2272L5.6115 16.6733L5.24025 17.25L6.18225 17.0505L6.075 16.4595L6.876 14.871L8.418 14.2733L9.015 13.3223L10.0237 12.6172L12.0262 12.8985L14.043 12.0472L13.7017 13.3935L12.8047 13.4715L12.549 14.5755L13.3162 14.0842L14.5883 13.554L15.582 12.0547L15.645 11.346L16.179 11.8763L17.7322 12.813L18.615 12.4103L18.5632 10.431L18.3068 9.66525L19.4603 9.384L20.25 8.44725Z" fill="white"/>
</svg>
