<svg width="24" height="24" viewBox="0 0 24 24" fill="none" xmlns="http://www.w3.org/2000/svg">
<path d="M12 24C18.6274 24 24 18.6274 24 12C24 5.37258 18.6274 0 12 0C5.37258 0 0 5.37258 0 12C0 18.6274 5.37258 24 12 24Z" fill="#105B2F"/>
<path fill-rule="evenodd" clip-rule="evenodd" d="M9.02475 13.635L8.73225 15.1252L8.19975 17.8635C8.18475 17.946 8.16375 18.0015 8.05875 18C7.39725 17.9902 6.73575 17.985 6.07425 17.9775C6.0585 17.9775 6.042 17.967 6 17.9512L7.4925 10.4962H6.23475C6.23775 10.4407 6.23625 10.4077 6.24225 10.3762C6.3195 9.97349 6.40275 9.57149 6.4725 9.16724C6.492 9.05474 6.54225 9.02624 6.64725 9.02699C6.95475 9.02999 7.26225 9.01874 7.56825 9.02924C7.7145 9.03374 7.77075 8.99174 7.79925 8.84774C7.97025 7.95674 8.15325 7.06874 8.32875 6.17924C8.34975 6.07349 8.373 6.00074 8.511 6.00074C10.017 6.00524 11.5237 5.99099 13.0297 6.01049C13.9088 6.02174 14.79 6.06674 15.6548 6.24449C15.9525 6.30599 16.2548 6.38549 16.5308 6.50849C17.3243 6.86099 17.802 7.47149 17.9348 8.31674C18.141 9.62999 17.8628 10.8367 17.0198 11.8882C16.3973 12.6622 15.5438 13.0965 14.5905 13.3605C13.8345 13.5697 13.059 13.635 12.2775 13.6365C11.2613 13.6387 10.245 13.6365 9.22875 13.6357H9.02475V13.635ZM9.441 11.5815H9.65325C10.728 11.5815 11.8028 11.5837 12.8783 11.58C13.107 11.58 13.3388 11.5702 13.566 11.5425C14.4338 11.439 15.093 11.0227 15.5145 10.2675C15.6954 9.93996 15.7561 9.55955 15.6863 9.19199C15.5978 8.66924 15.2858 8.32799 14.7555 8.23199C14.3673 8.15801 13.9738 8.11537 13.5788 8.10449C12.4748 8.08424 11.3708 8.09249 10.266 8.08949C10.2263 8.08949 10.1865 8.09549 10.1333 8.09999L9.95025 9.03599H13.0178L12.7358 10.4895H9.6585L9.441 11.5815Z" fill="white"/>
</svg>
