<svg width="48" height="48" viewBox="0 0 24 24" fill="none" xmlns="http://www.w3.org/2000/svg">
<path fill-rule="evenodd" clip-rule="evenodd" d="M12 24C5.37225 24 0 18.6277 0 12C0 5.37225 5.37225 0 12 0C18.6277 0 24 5.37225 24 12C24 18.6277 18.6277 24 12 24ZM9.02475 13.635H9.22875C10.245 13.6358 11.2613 13.6387 12.2775 13.6365C13.059 13.635 13.8345 13.569 14.5905 13.3605C15.5438 13.0965 16.398 12.663 17.019 11.8882C17.8627 10.836 18.141 9.63075 17.9348 8.31675C17.802 7.4715 17.3243 6.86175 16.5308 6.5085C16.2487 6.38957 15.9548 6.30107 15.654 6.2445C14.79 6.06675 13.9087 6.02175 13.029 6.0105C11.5237 5.991 10.017 6.00525 8.511 6.00075C8.373 6.00075 8.34975 6.0735 8.32875 6.17925C8.15325 7.06875 7.97025 7.95675 7.79925 8.84775C7.7715 8.991 7.7145 9.03375 7.56825 9.02925C7.2615 9.01875 6.954 9.02925 6.64725 9.027C6.54225 9.027 6.492 9.05475 6.4725 9.16725C6.40275 9.5715 6.3195 9.9735 6.24225 10.3763C6.23625 10.4078 6.23775 10.4407 6.23475 10.4962H7.4925L6 17.9505C6.042 17.9655 6.0585 17.9767 6.075 17.9767C6.73575 17.9842 7.39725 17.9895 8.05875 17.9993C8.16375 18.0008 8.18475 17.9445 8.2005 17.8627C8.37675 16.95 8.5545 16.0373 8.733 15.1245L9.02475 13.635V13.635ZM9.441 11.5815L9.6585 10.4895H12.7358L13.0178 9.036H9.95025C10.014 8.706 10.0732 8.406 10.1332 8.1C10.1857 8.0955 10.2262 8.0895 10.266 8.0895C11.3707 8.0925 12.4747 8.08425 13.5787 8.1045C13.9738 8.11515 14.3673 8.15778 14.7555 8.232C15.2857 8.328 15.5977 8.66925 15.6855 9.192C15.7492 9.56775 15.702 9.93075 15.5145 10.2668C15.093 11.0228 14.4337 11.439 13.566 11.5425C13.3375 11.5689 13.1075 11.5814 12.8775 11.58C11.8028 11.5837 10.728 11.5815 9.6525 11.5815H9.441V11.5815Z" fill="black"/>
</svg>
