<svg width="24" height="24" viewBox="0 0 24 24" fill="none" xmlns="http://www.w3.org/2000/svg">
<path d="M12 24C18.6274 24 24 18.6274 24 12C24 5.37258 18.6274 0 12 0C5.37258 0 0 5.37258 0 12C0 18.6274 5.37258 24 12 24Z" fill="#05BCA9"/>
<path fill-rule="evenodd" clip-rule="evenodd" d="M20.9963 11.9655C21.0038 11.9998 20.9995 12.0357 20.9839 12.0671C20.9684 12.0986 20.9426 12.1239 20.9108 12.1388L20.8538 12.1658L19.1243 13.8998L19.7948 16.4085C19.8053 16.448 19.7998 16.49 19.7794 16.5255C19.759 16.5609 19.7255 16.5868 19.686 16.5975L17.2793 17.2433L16.6155 19.7258C16.6051 19.7651 16.5795 19.7987 16.5444 19.8193C16.5092 19.8398 16.4674 19.8455 16.428 19.8353L13.8855 19.1528L12.087 20.955C12.0728 20.9694 12.0558 20.9808 12.0372 20.9886C12.0185 20.9964 11.9985 21.0004 11.9783 21.0004C11.958 21.0004 11.938 20.9964 11.9193 20.9886C11.9007 20.9808 11.8837 20.9694 11.8695 20.955L10.0928 19.1738L7.63126 19.8353C7.61181 19.8405 7.59152 19.8418 7.57156 19.8391C7.5516 19.8365 7.53235 19.8299 7.51493 19.8198C7.49751 19.8097 7.48226 19.7963 7.47005 19.7803C7.45783 19.7642 7.4489 19.746 7.44376 19.7265L6.77926 17.244L4.37326 16.5975C4.35368 16.5923 4.33533 16.5833 4.31925 16.5709C4.30317 16.5586 4.28969 16.5432 4.27959 16.5256C4.26948 16.5081 4.26295 16.4887 4.26036 16.4686C4.25777 16.4485 4.25918 16.4281 4.26451 16.4085L4.91326 13.9808L3.04576 12.108C3.01709 12.0791 3.00101 12.04 3.00101 11.9993C3.00101 11.9585 3.01709 11.9194 3.04576 11.8905L4.86151 10.0688L4.21276 7.64176C4.20223 7.60218 4.20785 7.56003 4.22839 7.52459C4.24892 7.48915 4.28269 7.46331 4.32226 7.45276L6.83851 6.77626L7.49401 4.32376C7.50457 4.28418 7.5304 4.25042 7.56584 4.22988C7.60129 4.20935 7.64343 4.20373 7.68301 4.21426L10.0635 4.85401L11.8695 3.04351C11.8988 3.01554 11.9378 2.99994 11.9783 2.99994C12.0188 2.99994 12.0577 3.01554 12.087 3.04351L13.9148 4.87501L16.3763 4.21351C16.3958 4.20831 16.4162 4.20701 16.4363 4.2097C16.4563 4.21239 16.4756 4.21901 16.4931 4.22919C16.5106 4.23936 16.5259 4.25288 16.5382 4.26898C16.5504 4.28508 16.5594 4.30344 16.5645 4.32301L16.5818 4.38751C16.5855 4.3972 16.5883 4.40726 16.59 4.41751L17.22 6.77551L19.737 7.45201C19.8195 7.47451 19.8675 7.55851 19.8458 7.64101L19.1753 10.149L20.868 11.8463C20.8989 11.8507 20.9277 11.8644 20.9506 11.8855C20.9735 11.9067 20.9894 11.9343 20.9963 11.9648V11.9655ZM19.032 13.5555L20.0415 12.5445L18.9038 13.0748L19.032 13.5563V13.5555ZM19.4003 16.1258L18.873 14.1518L17.8253 15.2018V15.2025L19.4003 16.1258V16.1258ZM17.7428 15.5108L17.3715 16.8998L19.2503 16.395L17.7428 15.5115V15.5108ZM16.3943 19.3628L16.9365 17.3355L15.456 17.733L16.3943 19.3628ZM14.5163 18.519L14.136 18.9008L15.6278 19.3013L14.5163 18.519ZM12.132 20.4735L13.542 19.0598L12.132 18.681V20.4735ZM11.8245 18.7088L10.4363 19.0815L11.8238 20.4735V18.7088H11.8245ZM7.93276 19.4348L9.84226 18.9225L8.81926 17.8965L7.93276 19.4348V19.4348ZM7.12276 17.3355L7.54651 18.921L7.67401 17.484L7.12276 17.3355ZM4.80526 16.3943L6.68776 16.8998L6.31276 15.4995L4.80526 16.3943ZM6.16051 15.2318L5.16451 14.2328L4.65901 16.1228L6.16051 15.2318ZM3.55051 12.1793L5.00551 13.6373L5.39476 12.1793H3.55051V12.1793ZM5.11051 10.998L4.95376 10.413L3.72826 11.6415L5.11051 10.998ZM4.60651 7.92151L5.11276 9.81676L6.12526 8.80201L4.60651 7.92151V7.92151ZM6.36001 8.56651L6.74701 7.12051L4.75951 7.65451L6.35026 8.57626L6.36001 8.56651V8.56651ZM7.68901 4.78651L7.18201 6.68401L8.56726 6.31201L7.68901 4.78726V4.78651ZM9.44551 5.47351L9.81226 5.10601L8.37526 4.71976L9.44551 5.47351ZM11.8245 3.52501L10.407 4.94626L11.8245 5.32726V3.52501ZM12.132 5.35501L13.572 4.96801L12.132 3.52501V5.35501V5.35501ZM16.179 4.58701L14.166 5.12701L15.2445 6.20926L16.179 4.58701V4.58701ZM16.4063 6.55801L16.8773 6.68401L16.515 5.32876L16.4063 6.55801V6.55801ZM19.2938 7.65301L17.3123 7.12051L17.6948 8.55451L19.293 7.65226L19.2938 7.65301ZM17.85 8.82076L18.924 9.89701L19.4543 7.91476L17.85 8.82076V8.82076ZM20.4315 11.844L19.0838 10.4933L18.7223 11.844H20.4315ZM18.657 12.1523L18.822 12.771L20.1503 12.1523H18.6578H18.657ZM18.4245 12.9563L18.5393 12.9038L18.489 12.7163L18.4253 12.9563H18.4245ZM18.321 13.3448L17.9835 14.6055L18.7808 13.8068L18.6203 13.2053L18.321 13.3448ZM17.3903 15.6375L15.678 17.3535L17.028 16.9913L17.3903 15.6375ZM15.24 17.3573L17.5493 15.042L17.9573 13.5143L14.07 15.3255L15.24 17.3573ZM15.174 17.8598L14.7375 18.297L15.8955 19.1123L15.174 17.8598V17.8598ZM14.3558 18.0285L14.4818 18.117L14.649 17.949L14.3558 18.0285ZM13.968 18.132L12.624 18.4935L13.7933 18.8078L14.2613 18.3383L13.9688 18.132H13.968ZM11.4353 18.4935L9.27001 17.9115L10.185 18.8295L11.4353 18.4935ZM8.01751 17.0925L8.00251 17.2523L8.24026 17.316L8.01751 17.0925V17.0925ZM7.73326 16.8075L6.70651 15.78L7.03051 16.9928L7.70176 17.1728L7.73326 16.809V16.8075ZM6.11251 14.7473L5.56951 12.7163L5.25601 13.8885L6.11251 14.7473V14.7473ZM5.34376 11.871L5.19076 11.3003L3.96601 11.8703H5.34376V11.871ZM5.69176 11.0663L5.47426 11.1683L5.56951 11.5253L5.69176 11.0663V11.0663ZM5.79601 10.6785L6.20101 9.16201L5.20501 10.161L5.39326 10.866L5.79601 10.6785ZM6.79501 8.13001L8.18926 6.73276L7.08976 7.02826L6.79501 8.13076V8.13001ZM8.80801 6.11251L9.22501 5.69476L8.11801 4.91551L8.80801 6.11251V6.11251ZM9.67801 6.01351L9.48076 5.87476L9.21826 6.13726L9.67801 6.01351V6.01351ZM10.0658 5.90926L11.4353 5.54176L10.1558 5.19826L9.70126 5.65276L10.0658 5.90926V5.90926ZM12.6233 5.54176L14.7008 6.09976L13.8233 5.22001L12.6233 5.54176V5.54176ZM16.056 7.02226L16.077 6.78826L15.7298 6.69526L16.056 7.02226V7.02226ZM16.3395 7.30726L17.301 8.27101L16.9688 7.02826L16.3785 6.86926L16.3395 7.30726ZM17.895 9.30226L18.489 11.5253L18.8325 10.242L17.895 9.30301V9.30226ZM13.5645 14.448L13.9155 15.0578L18.0615 13.1265L18.3218 12.153H15.9105L15.7883 13.5285C15.7854 13.5608 15.7723 13.5914 15.7509 13.6158C15.7296 13.6403 15.7011 13.6573 15.6694 13.6646C15.6378 13.6718 15.6047 13.6689 15.5749 13.6562C15.545 13.6434 15.5199 13.6216 15.5033 13.5938L14.7548 12.3263L13.5645 14.448ZM12.9765 15.4958L13.6358 15.1883L13.389 14.7608L12.9765 15.4958ZM10.362 15.2183L14.0273 17.7983L14.9895 17.5395L13.7895 15.4568L12.6735 15.9773C12.6439 15.9913 12.6105 15.9954 12.5784 15.9891C12.5462 15.9829 12.5169 15.9665 12.4947 15.9423C12.4725 15.9182 12.4586 15.8876 12.455 15.8551C12.4514 15.8225 12.4584 15.7896 12.4748 15.7613L13.1745 14.514L10.752 14.541L10.362 15.2175V15.2183ZM10.2075 15.486L9.03001 17.529L12.03 18.3345L13.6395 17.9018L10.2075 15.486V15.486ZM10.3943 14.5448L9.42151 14.556L10.1093 15.0398L10.3943 14.5448ZM8.45176 12.1793L8.05276 16.6928L8.75326 17.394L9.95476 15.3075L8.85376 14.5335C8.82719 14.5147 8.80726 14.4879 8.79681 14.4571C8.78636 14.4262 8.78593 14.3928 8.79558 14.3617C8.80523 14.3306 8.82447 14.3033 8.85054 14.2838C8.87662 14.2643 8.90819 14.2535 8.94076 14.253L10.4288 14.2358L9.21376 12.1793H8.45251H8.45176ZM8.14426 12.1793H5.74426L6.54676 15.183L7.76926 16.4078L8.14426 12.1793V12.1793ZM9.03076 11.871L8.55151 11.0595L8.47951 11.871H9.03076ZM10.1183 9.00451L6.05626 10.8975L5.79601 11.871H8.17126L8.28751 10.5555C8.29087 10.5235 8.30417 10.4933 8.32554 10.4692C8.34691 10.445 8.37528 10.4282 8.40669 10.421C8.4381 10.4138 8.47097 10.4166 8.5007 10.4291C8.53044 10.4415 8.55555 10.4629 8.57251 10.4903L9.32476 11.763L10.5 9.66826L10.1175 9.00451H10.1183ZM9.96376 8.73676L8.74126 6.61501L6.63601 8.72626L6.15976 10.509L9.96376 8.73676ZM13.719 8.85826L10.0065 6.24451L9.03451 6.50626L10.2435 8.60626L11.4435 8.04676C11.4731 8.03277 11.5065 8.02861 11.5386 8.03489C11.5708 8.04117 11.6001 8.05757 11.6223 8.08168C11.6445 8.1058 11.6584 8.13637 11.662 8.16895C11.6656 8.20152 11.6587 8.23439 11.6423 8.26276L10.9403 9.51376L13.3568 9.48676L13.719 8.85826V8.85826ZM13.8735 8.58976L15.0668 6.51751L12.0293 5.70151L10.3943 6.14101L13.8735 8.58976ZM13.7145 9.48226L14.592 9.47326L13.9718 9.03601L13.7145 9.48301V9.48226ZM15.6015 12.153H15.009L15.5243 13.0245L15.6015 12.153V12.153ZM10.6755 9.35551L11.1405 8.52826L10.398 8.87401L10.6755 9.35626V9.35551ZM13.3478 14.2058L14.5733 12.0203L13.2645 9.80476L13.2608 9.79651L10.7655 9.82426L9.50551 12.0698L10.7843 14.232L13.3328 14.2035C13.338 14.2035 13.3425 14.205 13.3478 14.2058ZM16.3043 7.70776L15.9375 11.8448H18.2565L17.46 8.86726L16.3043 7.70776V7.70776ZM15.6293 11.8448L16.0208 7.42276L15.3105 6.71101L14.1255 8.76751L15.1605 9.49501C15.1874 9.51375 15.2076 9.54055 15.2183 9.57154C15.2289 9.60254 15.2295 9.63611 15.2198 9.66742C15.2101 9.69873 15.1907 9.72615 15.1644 9.74572C15.1381 9.76528 15.1063 9.77598 15.0735 9.77626L13.6148 9.79201L14.8275 11.8448H15.6285H15.6293ZM16.104 6.47701L16.224 5.12476L15.534 6.32326L16.104 6.47701ZM7.97551 17.565L7.85176 18.9585L8.56426 17.7225L7.97551 17.565Z" fill="white"/>
</svg>
