<svg width="24" height="24" viewBox="0 0 24 24" fill="none" xmlns="http://www.w3.org/2000/svg">
<path d="M12 24C18.6274 24 24 18.6274 24 12C24 5.37258 18.6274 0 12 0C5.37258 0 0 5.37258 0 12C0 18.6274 5.37258 24 12 24Z" fill="#3CB054"/>
<path fill-rule="evenodd" clip-rule="evenodd" d="M6.75 5.625C15.8198 5.96025 19.317 11.4045 17.5613 16.2623C17.064 17.6145 16.5353 18.3548 15.4238 19.125C15.4688 18.93 15.5153 18.735 15.5513 18.5347C16.2083 14.745 14.9625 10.1843 8.86725 7.665C13.7168 10.551 15.6735 15.6862 13.4123 19.0012C9.5625 19.6065 6.75 16.3192 6.75 12.5317V5.625Z" fill="white"/>
</svg>
