<svg width="48" height="48" viewBox="0 0 24 24" fill="none" xmlns="http://www.w3.org/2000/svg">
<path fill-rule="evenodd" clip-rule="evenodd" d="M12 24C5.37225 24 0 18.6277 0 12C0 5.37225 5.37225 0 12 0C18.6277 0 24 5.37225 24 12C24 18.6277 18.6277 24 12 24ZM6.75 5.625V12.5317C6.75 16.3192 9.5625 19.6065 13.4122 19.0012C15.6735 15.6862 13.7168 10.551 8.86725 7.665C14.9625 10.1843 16.2082 14.745 15.5505 18.5347C15.5152 18.7342 15.4688 18.93 15.4238 19.125C16.5353 18.354 17.064 17.6145 17.5613 16.2623C19.317 11.4045 15.8198 5.96025 6.75 5.625Z" fill="black"/>
</svg>
