<svg width="24" height="24" viewBox="0 0 24 24" fill="none" xmlns="http://www.w3.org/2000/svg">
<path d="M12 24C18.6274 24 24 18.6274 24 12C24 5.37258 18.6274 0 12 0C5.37258 0 0 5.37258 0 12C0 18.6274 5.37258 24 12 24Z" fill="#1061E3"/>
<path fill-rule="evenodd" clip-rule="evenodd" d="M18.2107 15.6502C18.2737 16.296 18.072 16.9335 17.4473 17.3475C17.148 17.5462 16.8142 17.625 16.4557 17.625C13.4857 17.6235 10.5158 17.6242 7.54575 17.6235C7.48071 17.6235 7.41569 17.6217 7.35075 17.6182C6.69975 17.583 6.08475 17.1112 5.87475 16.4955C5.78175 16.2232 5.7675 15.9442 5.77875 15.6502H7.58625C7.76025 15.6495 7.87575 15.5227 7.83675 15.3645C7.81635 15.3031 7.78044 15.2481 7.7325 15.2047C6.99525 14.4682 6.25575 13.7347 5.517 12.9997L4.8405 12.3262C4.58625 12.075 4.464 11.7712 4.509 11.4172C4.5315 11.2432 4.58775 11.0722 4.644 10.9042C4.9597 9.9526 5.46114 9.07311 6.11925 8.31672C7.05147 7.23188 8.26739 6.4281 9.63075 5.99547C10.5183 5.70497 11.4525 5.58362 12.3847 5.63772C14.5867 5.76972 16.4205 6.66522 17.874 8.31597C18.6176 9.16014 19.1588 10.1628 19.4565 11.2477C19.569 11.652 19.4625 12.0157 19.1633 12.3135C18.6008 12.8745 18.0337 13.431 17.469 13.9897C17.0542 14.4 16.6402 14.8117 16.2262 15.2235C16.0897 15.3585 16.1032 15.5385 16.2592 15.6187C16.3042 15.6412 16.3605 15.6487 16.4115 15.6487C16.9815 15.651 17.5522 15.6502 18.123 15.6502H18.2107ZM6.3315 16.0552C6.33975 16.2967 6.40425 16.5112 6.54525 16.6987C6.77925 17.0107 7.095 17.1577 7.4865 17.157H16.5075C16.5428 17.157 16.578 17.1555 16.6125 17.1532C16.7786 17.1469 16.941 17.1023 17.0871 17.0229C17.2332 16.9436 17.359 16.8316 17.4548 16.6957C17.5943 16.5082 17.6595 16.2937 17.6633 16.056L6.3315 16.0552ZM14.0325 10.245C14.0542 10.2592 14.07 10.2675 14.0827 10.2772C14.8237 10.8292 15.2932 11.5522 15.4717 12.4575C15.5692 12.9495 15.5557 13.44 15.4402 13.9282C15.335 14.3717 15.1439 14.7904 14.8777 15.1605C14.8527 15.1919 14.8351 15.2286 14.8263 15.2679C14.8174 15.3071 14.8176 15.3478 14.8267 15.387C14.8785 15.591 15.1102 15.657 15.2632 15.5077C15.4882 15.2895 15.708 15.0667 15.9307 14.8462C16.8277 13.9537 17.7247 13.062 18.6225 12.171C18.8175 11.9775 18.903 11.7465 18.855 11.4765C18.8332 11.3595 18.7913 11.2455 18.7515 11.133C18.4602 10.2877 18.0323 9.49595 17.4847 8.78922C17.0658 8.24685 16.5678 7.77052 16.0072 7.37622C15.9787 7.35569 15.9589 7.32517 15.9517 7.29072C15.9435 7.21116 15.9168 7.13465 15.8736 7.06731C15.8304 6.99998 15.7721 6.9437 15.7032 6.903C15.6344 6.86231 15.557 6.83832 15.4772 6.83297C15.3974 6.82763 15.3174 6.84107 15.2437 6.87222C15.2132 6.88431 15.1792 6.88458 15.1485 6.87297C14.3579 6.49666 13.5024 6.27566 12.6285 6.22197C11.9339 6.16977 11.2354 6.2091 10.551 6.33897C9.97917 6.44791 9.42399 6.63095 8.8995 6.88347C8.8795 6.89484 8.85688 6.90082 8.83387 6.90082C8.81087 6.90082 8.78825 6.89484 8.76825 6.88347C8.6932 6.8465 8.61008 6.82898 8.5265 6.8325C8.44292 6.83603 8.36156 6.86049 8.28989 6.90364C8.21822 6.94679 8.15854 7.00724 8.11632 7.07946C8.0741 7.15168 8.05069 7.23335 8.04825 7.31697C8.04825 7.36197 8.03175 7.38822 7.99725 7.41522C7.76775 7.59747 7.52925 7.77072 7.31475 7.96947C6.30675 8.90322 5.62125 10.0425 5.181 11.3347C5.07 11.6617 5.1435 11.9422 5.38725 12.1845L8.05725 14.8387C8.28075 15.0615 8.5035 15.2842 8.72925 15.5055C8.859 15.633 9.05475 15.6105 9.1395 15.4597C9.19725 15.3555 9.183 15.2527 9.11475 15.1567C8.75589 14.66 8.53538 14.0769 8.47575 13.467C8.42349 12.9656 8.48239 12.4588 8.64825 11.9827C8.68575 11.874 8.73225 11.7675 8.7765 11.655L9.8355 12.2775C9.61569 12.8091 9.59992 13.4032 9.7912 13.9458C9.98249 14.4884 10.3674 14.9412 10.872 15.2175C11.3484 15.4784 11.9007 15.5659 12.4344 15.4649C12.9681 15.364 13.4503 15.0809 13.7985 14.664C14.1435 14.2537 14.3265 13.7775 14.337 13.2412C14.352 12.4417 14.0212 11.8042 13.3995 11.3077L14.0325 10.245V10.245ZM17.5312 12.525C17.5117 12.4005 17.4937 12.2857 17.4742 12.171C17.402 11.7474 17.2781 11.3343 17.1052 10.941C17.0865 10.896 17.082 10.8615 17.1045 10.815C17.1341 10.7526 17.1504 10.6847 17.1523 10.6156C17.1543 10.5466 17.1418 10.4779 17.1158 10.4139C17.0898 10.35 17.0507 10.2921 17.0011 10.244C16.9515 10.196 16.8925 10.1587 16.8278 10.1347C16.7643 10.1107 16.6966 10.0997 16.6288 10.1023C16.5609 10.105 16.4943 10.1212 16.4329 10.15C16.3714 10.1788 16.3163 10.2196 16.2709 10.2701C16.2255 10.3205 16.1907 10.3796 16.1685 10.4437C16.1464 10.5079 16.1378 10.5758 16.1431 10.6435C16.1483 10.7111 16.1675 10.7769 16.1993 10.8368C16.2311 10.8967 16.2748 10.9495 16.3278 10.9918C16.3809 11.0341 16.442 11.065 16.5075 11.0827C16.543 11.0895 16.5761 11.1056 16.6033 11.1295C16.6304 11.1534 16.6507 11.1841 16.662 11.2185C16.89 11.7772 17.0167 12.3562 17.0347 12.9585C17.0362 12.9944 17.0245 13.0296 17.0018 13.0575C16.659 13.4025 16.3132 13.7445 15.969 14.0872C15.957 14.0985 15.9427 14.1075 15.9375 14.1127C16.266 12.4852 15.8662 11.0745 14.559 10.0125C13.2008 8.90997 11.6872 8.82522 10.098 9.54222L9.61275 8.70447C9.786 8.62722 9.9525 8.54697 10.1227 8.47647C10.5613 8.30139 11.0219 8.18781 11.4915 8.13897C11.5522 8.13222 11.5965 8.14197 11.6437 8.18997C11.6902 8.23782 11.7458 8.27579 11.8073 8.30161C11.8688 8.32743 11.9349 8.34055 12.0015 8.3402C12.0682 8.33985 12.1342 8.32603 12.1954 8.29957C12.2566 8.27311 12.3118 8.23455 12.3577 8.18622C12.3736 8.16774 12.3939 8.15362 12.4167 8.14522C12.4396 8.13682 12.4642 8.13441 12.4882 8.13822C13.638 8.26272 14.6355 8.71422 15.477 9.50397C15.5445 9.56772 15.6082 9.63447 15.6735 9.70047C15.7897 9.81747 15.918 9.82047 16.0365 9.70647L16.8248 8.94372L16.8983 8.87397C16.9928 8.99397 17.088 9.10947 17.1765 9.22947C17.6887 9.92192 18.0816 10.6951 18.339 11.517C18.3569 11.5653 18.36 11.6179 18.3479 11.668C18.3357 11.7181 18.3089 11.7635 18.2707 11.7982L17.5778 12.4875C17.5658 12.4987 17.5515 12.5077 17.5312 12.525V12.525ZM16.5817 8.54247L15.9082 9.19422C15.888 9.17697 15.8692 9.16122 15.852 9.14472C15.1508 8.47001 14.283 7.99376 13.3373 7.76472C13.0725 7.70022 12.7987 7.67022 12.5295 7.62672C12.4822 7.61922 12.45 7.60947 12.4208 7.56447C12.3744 7.49399 12.3112 7.43616 12.2369 7.39619C12.1626 7.35623 12.0795 7.33538 11.9951 7.33553C11.9107 7.33568 11.8277 7.35682 11.7535 7.39705C11.6794 7.43727 11.6164 7.49533 11.5702 7.56597C11.5478 7.59625 11.5144 7.61667 11.4773 7.62297C9.74175 7.81347 8.37975 8.62647 7.38225 10.047C7.37108 10.0644 7.3561 10.0791 7.33842 10.0898C7.32075 10.1006 7.30086 10.1073 7.28025 10.1092C6.93075 10.1662 6.753 10.5067 6.89775 10.8292C6.90912 10.8581 6.90912 10.8903 6.89775 10.9192C6.68788 11.3975 6.54771 11.9034 6.4815 12.4215C6.477 12.4537 6.47025 12.4852 6.46275 12.5295L6.39825 12.4695C6.18375 12.2557 5.97075 12.0397 5.75325 11.829C5.65275 11.7315 5.61975 11.628 5.667 11.4915C6.17175 10.044 6.97425 8.80497 8.2245 7.88022C8.23875 7.86972 8.25375 7.86072 8.26725 7.84947C8.31225 7.80972 8.3535 7.79847 8.42025 7.81647C8.48748 7.83523 8.55788 7.83978 8.62696 7.82982C8.69605 7.81987 8.7623 7.79564 8.8215 7.75866C8.8807 7.72169 8.93154 7.67279 8.9708 7.61508C9.01006 7.55737 9.03686 7.49211 9.0495 7.42347C9.05328 7.40878 9.05993 7.39499 9.06907 7.38289C9.07821 7.37079 9.08966 7.36062 9.10275 7.35297C9.42664 7.19322 9.76457 7.06367 10.1123 6.96597C10.9335 6.73272 11.772 6.67197 12.6195 6.73272C13.4001 6.78225 14.1646 6.97762 14.8732 7.30872C14.9182 7.32972 14.9407 7.35372 14.9482 7.40622C14.9591 7.48207 14.9872 7.55445 15.0303 7.6178C15.0734 7.68115 15.1304 7.7338 15.197 7.77172C15.2636 7.80964 15.338 7.83184 15.4144 7.83661C15.4909 7.84137 15.5675 7.82858 15.6382 7.79922C15.6622 7.79022 15.7005 7.78947 15.7192 7.80222C16.026 8.01372 16.308 8.25372 16.5682 8.51847C16.5735 8.52372 16.5757 8.53122 16.5817 8.54247V8.54247ZM13.8337 13.1775C13.839 14.1757 13.0163 14.9985 12.0068 15.0045C11.5214 15.0059 11.0553 14.8151 10.7101 14.4739C10.365 14.1327 10.1689 13.6688 10.1648 13.1835C10.1603 12.1837 10.9815 11.3632 11.9932 11.358C12.4785 11.3552 12.9449 11.5452 13.2901 11.8863C13.6352 12.2273 13.8308 12.6915 13.8337 13.1767V13.1775ZM8.06025 14.1255L7.58625 13.6492C7.39125 13.4542 7.19475 13.2622 7.00125 13.0657C6.9761 13.0402 6.96116 13.0063 6.95925 12.9705C6.97717 12.3502 7.11151 11.7389 7.35525 11.1682C7.36149 11.1497 7.37269 11.1333 7.38764 11.1207C7.40259 11.1081 7.4207 11.0999 7.44 11.097C7.77675 11.0182 7.9335 10.7242 7.81425 10.4032C7.80675 10.3807 7.80675 10.347 7.818 10.3282C8.18655 9.78307 8.65971 9.31654 9.21 8.95572C9.21225 8.95422 9.2145 8.95422 9.225 8.95122L9.42375 9.29022L9.84075 10.0102C9.92475 10.1572 10.0342 10.1895 10.179 10.1017C10.5573 9.8723 10.9766 9.71846 11.4135 9.64872C12.1647 9.52163 12.9368 9.64081 13.6147 9.98847C13.6215 9.99222 13.6267 9.99747 13.6402 10.008L13.011 11.0632C11.8222 10.617 10.8398 10.8832 10.0463 11.871L8.991 11.2507C9.0855 11.124 9.1755 11.0017 9.26775 10.8817C9.30525 10.8322 9.34875 10.7872 9.39075 10.7407C9.45525 10.6687 9.45525 10.6282 9.38925 10.5607C9.33118 10.5018 9.27268 10.4433 9.21375 10.3852C9.13425 10.3072 9.09525 10.3072 9.02025 10.3882C8.70025 10.7307 8.4433 11.1271 8.26125 11.559C8.00317 12.1641 7.90055 12.8241 7.96275 13.479C7.98225 13.689 8.025 13.8967 8.06025 14.1255V14.1255ZM11.9962 8.11797C11.9218 8.11643 11.8509 8.08612 11.7983 8.03341C11.7457 7.98069 11.7156 7.90966 11.7142 7.83522C11.7167 7.76084 11.7477 7.69026 11.8007 7.63806C11.8538 7.58586 11.9248 7.55602 11.9992 7.55472C12.0737 7.55645 12.1446 7.58695 12.197 7.63981C12.2494 7.69266 12.2794 7.76377 12.2805 7.83822C12.2789 7.91277 12.2484 7.98378 12.1953 8.03615C12.1422 8.08853 12.0708 8.11815 11.9962 8.11872V8.11797ZM8.54625 7.05747C8.5833 7.05647 8.62018 7.06285 8.65474 7.07622C8.68931 7.0896 8.72087 7.10971 8.7476 7.13539C8.77432 7.16107 8.79568 7.19181 8.81043 7.22581C8.82517 7.25981 8.83302 7.29641 8.8335 7.33347C8.8335 7.40866 8.80363 7.48077 8.75046 7.53393C8.6973 7.5871 8.62519 7.61697 8.55 7.61697C8.47481 7.61697 8.4027 7.5871 8.34954 7.53393C8.29637 7.48077 8.2665 7.40866 8.2665 7.33347C8.26729 7.25986 8.29714 7.18955 8.34954 7.13786C8.40194 7.08616 8.47264 7.05727 8.54625 7.05747V7.05747ZM16.647 10.8825C16.5755 10.8795 16.5079 10.8492 16.4582 10.7978C16.4084 10.7464 16.3803 10.6779 16.3796 10.6063C16.3789 10.5348 16.4058 10.4658 16.4545 10.4134C16.5033 10.3611 16.5703 10.3295 16.6417 10.3252C16.6783 10.3249 16.7146 10.3317 16.7486 10.3454C16.7825 10.3591 16.8134 10.3793 16.8395 10.405C16.8657 10.4306 16.8865 10.4611 16.9008 10.4948C16.9151 10.5285 16.9227 10.5646 16.923 10.6012C16.9233 10.6378 16.9165 10.6741 16.9028 10.708C16.8891 10.742 16.8689 10.7729 16.8432 10.799C16.8176 10.8251 16.7871 10.8459 16.7534 10.8603C16.7198 10.8746 16.6836 10.8821 16.647 10.8825V10.8825ZM15.4447 7.05747C15.6045 7.05747 15.726 7.17747 15.7252 7.33647C15.7251 7.40988 15.6959 7.48023 15.644 7.53221C15.5922 7.58419 15.5219 7.61357 15.4485 7.61397C15.4115 7.61456 15.3748 7.60785 15.3405 7.5942C15.3061 7.58056 15.2748 7.56026 15.2483 7.53448C15.2218 7.50869 15.2007 7.47792 15.1861 7.44394C15.1716 7.40996 15.1639 7.37343 15.1635 7.33647C15.163 7.29946 15.1699 7.26273 15.1839 7.22846C15.1979 7.19419 15.2186 7.16308 15.2448 7.13699C15.2711 7.11089 15.3023 7.09033 15.3366 7.07654C15.371 7.06275 15.4077 7.05601 15.4447 7.05672V7.05747ZM7.63125 10.6035C7.63146 10.6404 7.62428 10.677 7.61014 10.7112C7.596 10.7453 7.57519 10.7763 7.54892 10.8023C7.52266 10.8283 7.49146 10.8487 7.45718 10.8625C7.42289 10.8763 7.3862 10.8831 7.34925 10.8825C7.31224 10.883 7.27552 10.876 7.24125 10.8621C7.20698 10.8481 7.17587 10.8274 7.14977 10.8011C7.12367 10.7749 7.10311 10.7437 7.08932 10.7093C7.07553 10.675 7.06879 10.6382 7.0695 10.6012C7.0699 10.5278 7.09941 10.4574 7.15157 10.4057C7.20373 10.354 7.27428 10.325 7.34775 10.3252C7.38473 10.3245 7.42148 10.3312 7.45584 10.3449C7.49021 10.3585 7.52151 10.3789 7.54791 10.4048C7.5743 10.4307 7.59527 10.4617 7.60958 10.4958C7.62389 10.5299 7.63126 10.5665 7.63125 10.6035Z" fill="white"/>
</svg>
