<svg width="48" height="48" viewBox="0 0 24 24" fill="none" xmlns="http://www.w3.org/2000/svg">
<path d="M12 24C5.37225 24 0 18.6277 0 12C0 5.37225 5.37225 0 12 0C18.6277 0 24 5.37225 24 12C24 18.6277 18.6277 24 12 24ZM11.415 20.103C11.454 20.0933 11.4457 20.0655 11.4225 19.9927C11.3077 19.6425 10.5855 17.0362 10.5982 17.019C10.6117 17.01 10.7558 17.0317 10.923 17.0715C11.3738 17.1682 12.1792 17.199 12.657 17.133C15 16.818 16.8525 14.9693 17.1638 12.6353C17.1938 12.4028 17.2028 12.0218 17.19 11.6805C17.1638 11.028 17.172 11.0715 16.4407 8.5005C16.1647 7.5285 15.7972 6.219 15.6172 5.59725L15.3022 4.47825C15.3652 4.50675 15.4297 4.53675 15.495 4.56825C17.9212 5.733 19.5765 7.94025 20.0588 10.6508C20.1458 11.1638 20.133 12.8887 20.0363 13.3882C19.7738 14.7112 19.266 15.8633 18.495 16.8923C18.153 17.3475 17.3648 18.1357 16.905 18.4822C15.8805 19.248 14.6325 19.791 13.4145 20.0018C12.8535 20.1015 12.0728 20.1413 11.415 20.103V20.103ZM8.73 19.4482C7.42274 18.873 6.2874 17.9679 5.43525 16.8218C4.82625 15.9945 4.4625 15.2805 4.16925 14.3077C3.36375 11.6677 3.972 8.76375 5.781 6.63525C6.8715 5.352 8.448 4.37925 10.077 3.99825C10.8307 3.8235 11.0805 3.79725 12.057 3.80175C12.2475 3.80175 12.4035 3.80175 12.537 3.804C12.558 3.912 12.7343 4.551 12.9503 5.30775C13.1865 6.14025 13.3665 6.83625 13.3492 6.85425C13.3312 6.876 13.1602 6.85875 12.972 6.8145C12.5077 6.714 11.4435 6.714 10.9845 6.8145C9.285 7.1865 7.99725 8.19825 7.266 9.732C7.05786 10.1773 6.91054 10.6485 6.828 11.133C6.762 11.5267 6.771 12.447 6.84075 12.8408C6.876 13.0208 7.12125 13.9492 7.39275 14.8995C7.65975 15.8497 8.05875 17.2507 8.27325 18.009C8.48775 18.7665 8.68875 19.4055 8.71575 19.4363C8.72031 19.4405 8.72507 19.4445 8.73 19.4482V19.4482ZM10.6598 20.877C11.2298 20.9565 13.0995 20.934 13.5458 20.8425C14.2643 20.6933 15.2318 20.4 15.5258 20.247C15.5693 20.2245 15.8108 20.1067 16.0643 19.9792C17.5448 19.2442 18.8543 18.009 19.7783 16.476C19.8923 16.2878 20.2687 15.534 20.2687 15.495C20.2922 15.422 20.3197 15.3504 20.3513 15.2805C20.5793 14.781 20.877 13.6118 20.9437 12.9503C21.105 11.4128 20.8987 9.99 20.3077 8.496C20.2554 8.3571 20.1956 8.22115 20.1285 8.08875C20.0435 7.9462 19.9647 7.80006 19.8923 7.65075C19.7992 7.46894 19.6965 7.29219 19.5848 7.12125C19.5285 7.04625 19.4797 6.972 19.4797 6.95025C19.4797 6.933 19.4273 6.85875 19.3665 6.77925C19.305 6.705 19.1565 6.51675 19.038 6.35925C18.7358 5.96475 18.0398 5.26425 17.619 4.93125C17.124 4.5375 17.094 4.5195 16.6553 4.24875C15.7493 3.696 14.6805 3.2805 13.6777 3.09225C13.0507 2.97375 10.9448 2.96925 10.3268 3.08775C8.238 3.47775 6.25425 4.67775 4.94925 6.3375C4.8 6.53025 4.65525 6.714 4.629 6.74475C4.60725 6.771 4.48875 6.95925 4.3665 7.16025C4.248 7.3575 4.134 7.55025 4.10775 7.5855C4.01625 7.734 3.77025 8.2335 3.696 8.43975C3.66619 8.53047 3.62829 8.61832 3.58275 8.70225C3.5475 8.75025 3.34575 9.40275 3.36825 9.40275C3.35954 9.44 3.34458 9.4755 3.324 9.50775C3.294 9.56475 3.228 9.81 3.18375 10.0552C3.13575 10.296 3.07875 10.6163 3.04875 10.7603C3.02175 10.9095 3 11.4353 3 11.9865C3 12.885 3.009 12.9945 3.13575 13.6118C3.25425 14.2028 3.46425 14.934 3.58275 15.1838C3.6045 15.2318 3.6615 15.372 3.7095 15.4905C4.06425 16.4145 4.9095 17.6407 5.75475 18.4507C6.8625 19.5112 8.343 20.3385 9.73575 20.676C9.9285 20.7195 10.1168 20.772 10.1558 20.7855C10.1955 20.8028 10.4235 20.8425 10.6598 20.877V20.877ZM12.6262 14.6145C12.2805 14.7023 11.6498 14.6932 11.286 14.5972C10.077 14.2732 9.2715 13.2262 9.267 11.9872C9.2625 11.172 9.504 10.5945 10.086 10.0117C10.4932 9.6045 10.8 9.43425 11.3782 9.28875C12.7837 8.934 14.277 9.84975 14.6407 11.286C14.7285 11.6235 14.724 12.2933 14.6362 12.6398C14.4 13.5638 13.5765 14.3738 12.6262 14.6145Z" fill="black"/>
</svg>
