<svg width="48" height="48" viewBox="0 0 24 24" fill="none" xmlns="http://www.w3.org/2000/svg">
<path fill-rule="evenodd" clip-rule="evenodd" d="M12 24C5.37225 24 0 18.6277 0 12C0 5.37225 5.37225 0 12 0C18.6277 0 24 5.37225 24 12C24 18.6277 18.6277 24 12 24ZM8.394 6C8.57775 6.762 8.952 7.58175 9.7845 7.815C11.6175 8.1975 13.5878 7.5675 15.372 8.25975C17.1195 8.9895 17.0565 11.8837 15.3225 12.5917C14.1405 13.0717 12.8325 12.882 11.5875 12.9142C10.7625 12.9442 9.801 12.7628 9.12225 13.3463C8.5425 13.7858 8.43225 14.5425 8.46 15.2183C8.5035 17.6633 8.622 18.75 8.622 18.75C8.622 18.75 9.90825 18.267 10.1888 17.8627C10.8863 17.0167 10.6065 15.8528 10.6613 14.8515C12.6923 14.7653 14.9048 15.183 16.7543 14.1248C18.7598 13.0073 19.2023 10.2533 18.312 8.295C17.6003 6.7575 15.828 6.09525 14.217 6H8.394V6ZM5.25 9.3225V9.7875C5.52225 10.6305 6.2175 11.3955 7.1595 11.4503C8.69325 11.5178 10.23 11.4607 11.763 11.469C11.6475 10.446 10.9223 9.4455 9.8175 9.3615C8.298 9.26925 6.7725 9.35025 5.25 9.32325V9.3225Z" fill="black"/>
</svg>
