<svg width="24" height="24" viewBox="0 0 24 24" fill="none" xmlns="http://www.w3.org/2000/svg">
<path d="M12 24C18.6274 24 24 18.6274 24 12C24 5.37258 18.6274 0 12 0C5.37258 0 0 5.37258 0 12C0 18.6274 5.37258 24 12 24Z" fill="#333333"/>
<path d="M8.394 6H14.217C15.828 6.09525 17.6003 6.7575 18.312 8.295C19.2023 10.2533 18.7598 13.0073 16.7543 14.1248C14.9048 15.1823 12.6923 14.7652 10.6613 14.8522C10.6065 15.8527 10.8863 17.0167 10.1888 17.8627C9.90825 18.2677 8.622 18.75 8.622 18.75C8.622 18.75 8.5035 17.6633 8.46 15.2175C8.43225 14.5425 8.5425 13.785 9.12225 13.3463C9.801 12.7628 10.7632 12.945 11.5875 12.915C12.8325 12.882 14.1405 13.0725 15.3225 12.5925C17.0565 11.8838 17.1195 8.9895 15.372 8.25975C13.5878 7.56825 11.6175 8.1975 9.7845 7.815C8.952 7.58175 8.57775 6.762 8.394 6V6ZM5.25 9.3225C6.7725 9.35025 8.298 9.26925 9.8175 9.36075C10.9223 9.4455 11.6475 10.446 11.763 11.469C10.23 11.4615 8.69325 11.5178 7.1595 11.4503C6.2175 11.3955 5.52225 10.6305 5.25 9.78675V9.32325V9.3225Z" fill="white"/>
</svg>
