<svg width="24" height="24" viewBox="0 0 24 24" fill="none" xmlns="http://www.w3.org/2000/svg">
<path d="M12 24C18.6274 24 24 18.6274 24 12C24 5.37258 18.6274 0 12 0C5.37258 0 0 5.37258 0 12C0 18.6274 5.37258 24 12 24Z" fill="#FF8C00"/>
<path d="M16.9425 14.5837C16.9807 14.8845 16.8952 15.0007 16.8 15.0007C16.7047 15.0007 16.5712 14.8845 16.4287 14.652C16.2862 14.4195 16.2285 14.157 16.305 14.022C16.3522 13.9342 16.4572 13.8952 16.581 13.944C16.8285 14.0415 16.9237 14.4187 16.9425 14.5837V14.5837ZM15.6097 15.2438C15.9045 15.4958 15.9907 15.786 15.8377 15.9998C15.7897 16.0559 15.7298 16.1006 15.6623 16.1307C15.5949 16.1608 15.5216 16.1755 15.4477 16.1738C15.2833 16.1754 15.124 16.1167 15 16.0087C14.7337 15.7762 14.6572 15.3885 14.8282 15.1755C14.8647 15.1303 14.9115 15.0945 14.9645 15.0709C15.0176 15.0472 15.0755 15.0366 15.1335 15.0397C15.2857 15.0397 15.4575 15.1072 15.6097 15.243V15.2438ZM5.25 11.1705C5.25 7.48575 8.1825 4.5 11.8005 4.5C15.4192 4.5 18.3517 7.4865 18.3517 11.1705C18.3518 12.373 18.0333 13.5541 17.4285 14.5935C17.409 14.6228 17.361 14.613 17.352 14.574C17.124 12.9352 16.143 12.0337 14.715 11.7622C14.5905 11.7427 14.5717 11.6647 14.7337 11.646C15.1717 11.607 15.7905 11.6168 16.1137 11.6753C16.1335 11.5045 16.1433 11.3327 16.143 11.1607C16.143 8.727 14.2005 6.74925 11.8102 6.74925C9.42075 6.74925 7.47825 8.727 7.47825 11.1607C7.47825 13.5952 9.42075 15.573 11.8102 15.573H12.0105C11.9425 15.1793 11.9136 14.7799 11.9242 14.3805C11.934 14.109 11.9918 14.07 12.1058 14.283C12.7057 15.3405 13.5623 16.2908 15.2385 16.668C16.6095 16.9793 17.9805 17.3377 19.4565 19.248C19.5892 19.413 19.3897 19.587 19.2375 19.4512C17.733 18.0937 16.362 17.6475 15.1147 17.6475C13.7145 17.658 12.7627 17.8425 11.8005 17.8425C8.1825 17.8425 5.25 14.8545 5.25 11.1697V11.1705Z" fill="white"/>
</svg>
