<svg width="48" height="48" viewBox="0 0 24 24" fill="none" xmlns="http://www.w3.org/2000/svg">
<path d="M12 24C5.37225 24 0 18.6277 0 12C0 5.37225 5.37225 0 12 0C18.6277 0 24 5.37225 24 12C24 18.6277 18.6277 24 12 24ZM12.3675 3.75225C12.2377 3.75225 12.108 3.747 11.9782 3.753C11.6017 3.77175 11.3318 4.04025 11.3213 4.401C11.3108 4.7655 11.5583 5.05275 11.9318 5.09475C12.4223 5.15025 12.9233 5.15175 13.4033 5.2545C16.6118 5.94 18.8332 8.6535 18.9067 11.9445C18.9165 12.3907 19.1768 12.678 19.5743 12.6795C19.9793 12.6795 20.2733 12.3765 20.2493 11.9265C20.2208 11.4165 20.1938 10.9013 20.0933 10.4033C19.329 6.62925 16.2142 3.95925 12.3675 3.75225V3.75225ZM11.649 20.25C11.8417 20.2372 12.042 20.2515 12.2265 20.2057C12.5145 20.1345 12.7035 19.7993 12.6622 19.4993C12.6187 19.182 12.3577 18.9608 12.0322 18.927C11.4622 18.867 10.8802 18.8445 10.3282 18.708C7.26825 17.9535 5.136 15.24 5.08125 12.087C5.08072 11.9351 5.04558 11.7853 4.9785 11.649C4.8435 11.3962 4.5345 11.283 4.26825 11.3513C3.94875 11.4338 3.72825 11.6812 3.7515 12.027C3.789 12.5917 3.82875 13.1618 3.93525 13.716C4.63575 17.3408 7.95675 20.139 11.649 20.25V20.25ZM11.988 8.99775C10.0125 9.00375 8.5785 10.8952 9.10275 12.8047C9.45375 14.0827 10.6673 15.0218 11.9543 15.0098C12.3638 15.0068 12.666 14.7233 12.669 14.34C12.672 13.9635 12.39 13.6875 11.9887 13.6658C11.8677 13.6598 11.7473 13.6442 11.6288 13.6193C10.764 13.4325 10.209 12.5692 10.3807 11.6827C10.5487 10.815 11.3887 10.2285 12.2527 10.3755C12.637 10.4346 12.9881 10.6273 13.2443 10.9198C13.5004 11.2123 13.6452 11.5858 13.653 11.9745C13.6635 12.2625 13.773 12.477 14.028 12.6068C14.4983 12.8468 15.0067 12.4972 15.003 11.9415C14.9917 10.3312 13.6208 8.9925 11.988 8.99775V8.99775ZM17.6542 11.8155C17.6317 11.6032 17.616 11.418 17.592 11.2328C17.2432 8.49 14.8388 6.36 12.0855 6.35475C11.628 6.35325 11.3265 6.61725 11.3228 7.02075C11.319 7.4235 11.619 7.68825 12.0698 7.70925C13.9133 7.797 15.213 8.69625 15.9728 10.3725C16.2023 10.8795 16.293 11.4225 16.2983 11.982C16.302 12.3495 16.5353 12.6187 16.8638 12.672C17.178 12.7245 17.5005 12.5482 17.5988 12.2452C17.6438 12.1027 17.6392 11.9437 17.6542 11.8155V11.8155ZM6.3585 12.1613C6.38108 13.5121 6.901 14.8072 7.81875 15.7988C8.9325 17.0123 10.3252 17.631 11.9767 17.646C12.2887 17.649 12.5167 17.4915 12.621 17.2222C12.8055 16.7437 12.4672 16.3223 11.886 16.3073C11.034 16.2878 10.2072 16.0146 9.51123 15.5227C8.8153 15.0307 8.2819 14.3424 7.97925 13.5458C7.79692 13.068 7.70093 12.5616 7.69575 12.0502C7.68675 11.511 7.206 11.1825 6.747 11.3947C6.39825 11.5552 6.3195 11.856 6.3585 12.1613ZM15.009 14.2762C14.976 14.1967 14.9505 14.0362 14.859 13.9387C14.5141 13.5621 14.1538 13.1998 13.779 12.8527C13.5247 12.6202 13.1093 12.6712 12.8768 12.9202C12.648 13.1662 12.6255 13.5585 12.8588 13.8075C13.1963 14.169 13.5465 14.52 13.9088 14.8552C14.1098 15.0405 14.364 15.0585 14.6138 14.9415C14.8665 14.8238 14.9812 14.6115 15.009 14.2762V14.2762Z" fill="black"/>
</svg>
