<svg width="48" height="48" viewBox="0 0 24 24" fill="none" xmlns="http://www.w3.org/2000/svg">
<path fill-rule="evenodd" clip-rule="evenodd" d="M12 24C5.37225 24 0 18.6277 0 12C0 5.37225 5.37225 0 12 0C18.6277 0 24 5.37225 24 12C24 18.6277 18.6277 24 12 24ZM19.221 15.9067C19.1459 15.9083 19.0745 15.9395 19.0223 15.9934C18.97 16.0473 18.9412 16.1197 18.942 16.1948V17.0588H15.3405L15.3315 16.5105C17.4022 15.009 18.291 12.297 17.529 9.807C16.7655 7.317 14.5268 5.625 11.9955 5.625C9.46425 5.625 7.2255 7.317 6.46275 9.807C5.7 12.297 6.58875 15.009 8.66025 16.5105H8.6685L8.6595 17.049H5.058V16.185C5.058 16.026 4.9335 15.897 4.779 15.897C4.6245 15.897 4.5 16.026 4.5 16.185V17.616H9.20925L9.22725 16.371C9.22729 16.3143 9.21115 16.2588 9.18073 16.211C9.1503 16.1631 9.10686 16.125 9.0555 16.101C9.03902 16.0701 9.01404 16.0446 8.9835 16.0275C7.5735 15.0263 6.73125 13.3725 6.7335 11.6055C6.7335 9.02175 8.50125 6.7965 10.9568 6.288C13.413 5.78025 15.8752 7.1295 16.842 9.51375C17.8087 11.8988 17.0107 14.6542 14.9355 16.1017C14.9122 16.1212 14.8911 16.1431 14.8725 16.167C14.8415 16.1932 14.8166 16.2258 14.7994 16.2626C14.7821 16.2994 14.7731 16.3394 14.7728 16.38L14.7908 17.625H19.5V16.1948C19.5008 16.1197 19.472 16.0473 19.4197 15.9934C19.3675 15.9395 19.2961 15.9083 19.221 15.9067V15.9067ZM15.5025 12.0248C15.3873 11.8757 15.2642 11.733 15.1335 11.5973C15.264 11.4623 15.387 11.3197 15.5025 11.1697C16.1235 10.3807 16.3125 9.684 16.0425 9.201C15.8355 8.83875 15.3945 8.64375 14.7548 8.64375C14.353 8.65354 13.954 8.71273 13.5668 8.82C13.2248 7.58475 12.657 6.795 12.009 6.795C11.361 6.795 10.794 7.58475 10.4423 8.811C10.055 8.70348 9.65601 8.64403 9.25425 8.634C8.6145 8.634 8.1735 8.829 7.9665 9.19125C7.6965 9.67425 7.8855 10.371 8.5065 11.1607C8.622 11.3107 8.745 11.4533 8.8755 11.5883C8.0115 12.5078 7.6335 13.4085 7.9665 13.9845C8.1735 14.3467 8.6145 14.5417 9.25425 14.5417C9.65598 14.532 10.055 14.4728 10.4423 14.3655C10.7843 15.5917 11.352 16.3815 12 16.3815C12.648 16.3815 13.215 15.5917 13.5668 14.3655C13.954 14.4728 14.353 14.532 14.7548 14.5417C15.3945 14.5417 15.8355 14.3467 16.0425 13.9845C16.3125 13.5202 16.1235 12.8145 15.5025 12.0248V12.0248ZM14.7637 8.98725C15.1155 8.98725 15.5737 9.0525 15.7455 9.36825C15.9345 9.71175 15.7455 10.2787 15.2325 10.938C15.1245 11.0677 15.0075 11.2073 14.8815 11.337C14.559 11.031 14.2193 10.746 13.8638 10.4828C13.8227 10.0331 13.7535 9.58651 13.6567 9.1455C14.0188 9.05232 14.3901 8.99925 14.7637 8.98725V8.98725ZM12.7838 12.9907C12.5303 13.1442 12.2687 13.2837 12 13.4085C11.4677 13.1441 10.9562 12.8398 10.47 12.498C10.4482 12.1952 10.436 11.8918 10.4333 11.5883C10.4333 11.2725 10.4422 10.9658 10.4692 10.6778C10.7032 10.5105 10.9463 10.353 11.217 10.1948C11.4705 10.041 11.7315 9.9015 12 9.777C12.261 9.90675 12.522 10.0463 12.783 10.1948C13.0448 10.3523 13.2968 10.5105 13.5308 10.6778C13.5488 10.9658 13.5668 11.2725 13.5668 11.5883C13.5668 11.9033 13.5578 12.201 13.5308 12.4988C13.2878 12.6721 13.0384 12.8363 12.783 12.9907H12.7838ZM13.4948 12.963C13.4498 13.3155 13.3958 13.641 13.3328 13.9478C13.0226 13.8521 12.7188 13.7371 12.423 13.6035C12.603 13.5113 12.783 13.4085 12.963 13.2975C13.143 13.1857 13.3148 13.074 13.4948 12.963V12.963ZM11.595 13.6035C11.298 13.7355 10.995 13.851 10.6852 13.9478C10.6093 13.6235 10.5552 13.2945 10.5233 12.963C10.6943 13.074 10.8743 13.1857 11.0543 13.2975L11.595 13.6035ZM10.1183 12.2288C9.858 12.03 9.60825 11.8163 9.37125 11.5883C9.60675 11.3588 9.8565 11.145 10.1183 10.947C10.1093 11.1607 10.1003 11.3655 10.1003 11.5883C10.1003 11.811 10.1093 12.0248 10.1183 12.2288ZM10.5233 10.2322C10.5683 9.879 10.6222 9.5535 10.6852 9.2475C10.995 9.34275 11.2988 9.4575 11.595 9.591C11.415 9.684 11.235 9.786 11.0453 9.89775C10.8666 10.0018 10.6924 10.1134 10.5233 10.2322V10.2322ZM12.414 9.591C12.711 9.459 13.014 9.34425 13.3237 9.2475C13.3995 9.5715 13.4535 9.9 13.4858 10.2322C13.31 10.1187 13.133 10.0072 12.9548 9.89775C12.7748 9.786 12.5947 9.684 12.4147 9.591H12.414ZM13.8998 10.956C14.1593 11.1532 14.406 11.367 14.6378 11.5973C14.4128 11.811 14.1608 12.0248 13.8998 12.2385C13.9088 12.0338 13.9177 11.82 13.9177 11.5973C13.9177 11.3745 13.9088 11.1698 13.8998 10.9568V10.956ZM12.009 7.14825C12.459 7.14825 12.936 7.7985 13.2427 8.90325C12.8212 9.036 12.4095 9.19725 12.009 9.3855C11.609 9.19702 11.1969 9.03565 10.7752 8.9025C11.082 7.7985 11.55 7.1475 12.009 7.1475V7.14825ZM8.2725 9.36825C8.4525 9.0525 8.9025 8.98725 9.25425 8.98725C9.62775 8.99475 9.99975 9.048 10.3612 9.14475C10.2647 9.58604 10.1955 10.0329 10.1542 10.4828C9.79725 10.7438 9.45675 11.0287 9.1365 11.3362C9.01436 11.2045 8.89728 11.0681 8.7855 10.9275C8.2635 10.2877 8.0745 9.71175 8.2725 9.3675V9.36825ZM9.25425 14.1982C8.9025 14.1982 8.44425 14.133 8.2725 13.8173C8.0475 13.4085 8.3535 12.666 9.1275 11.8387C9.4485 12.15 9.792 12.4357 10.1542 12.6937C10.1955 13.1437 10.2645 13.59 10.3612 14.0303C10.0012 14.1353 9.6285 14.1915 9.25425 14.1982V14.1982ZM12.009 16.0372C11.559 16.0372 11.082 15.387 10.7752 14.2822C11.1967 14.1487 11.6089 13.9874 12.009 13.7993C12.4091 13.9874 12.8213 14.1487 13.2427 14.2822C12.936 15.387 12.459 16.0372 12.009 16.0372ZM15.7455 13.8173C15.5655 14.133 15.1155 14.1982 14.7637 14.1982C14.3898 14.1905 14.0181 14.1376 13.6567 14.0408C13.7535 13.5998 13.8218 13.1528 13.8638 12.7028C14.2208 12.4418 14.5612 12.156 14.8815 11.8477C15.0075 11.9782 15.1245 12.1177 15.2325 12.2475C15.7455 12.9075 15.9345 13.4828 15.7455 13.8173ZM12.009 10.2322C11.2845 10.2367 10.7003 10.8465 10.704 11.5942C10.707 12.342 11.2965 12.9458 12.021 12.9443C12.7455 12.9428 13.3328 12.336 13.3328 11.5883C13.3275 10.8383 12.7365 10.2322 12.009 10.2322V10.2322ZM12.009 12.6008C11.472 12.6008 11.0363 12.1515 11.0363 11.5973C11.0363 11.043 11.472 10.5945 12.009 10.5945C12.546 10.5945 12.9818 11.043 12.9818 11.5973C12.9773 12.15 12.5445 12.5963 12.009 12.6008Z" fill="black"/>
</svg>
