<svg width="48" height="48" viewBox="0 0 24 24" fill="none" xmlns="http://www.w3.org/2000/svg">
<path fill-rule="evenodd" clip-rule="evenodd" d="M18.9847 17.727C18.9108 17.8606 18.8721 18.0108 18.8723 18.1635C18.8723 18.6555 19.2653 19.0545 19.749 19.0545C20.2328 19.0545 20.625 18.6555 20.625 18.1635C20.625 17.6715 20.2328 17.2725 19.749 17.2725C19.5344 17.2722 19.3275 17.3519 19.1685 17.496L17.7308 16.2158L18.8535 12.5933C18.9325 12.5952 19.011 12.5812 19.0845 12.5521C19.158 12.5231 19.2249 12.4796 19.2812 12.4241C19.3375 12.3687 19.3821 12.3026 19.4124 12.2296C19.4426 12.1566 19.4579 12.0783 19.4573 11.9992C19.4578 11.9187 19.4418 11.8388 19.4103 11.7646C19.3787 11.6905 19.3323 11.6236 19.2739 11.568C19.2155 11.5125 19.1463 11.4695 19.0707 11.4418C18.995 11.4141 18.9145 11.4021 18.834 11.4067L17.877 8.26575C17.959 8.21105 18.0262 8.13686 18.0726 8.04982C18.1189 7.96278 18.1429 7.8656 18.1425 7.767C18.1437 7.61091 18.0829 7.46072 17.9736 7.34936C17.8642 7.23801 17.7151 7.17458 17.559 7.173C17.4088 7.17316 17.2646 7.23181 17.157 7.3365L14.4945 5.379C14.5412 5.2913 14.5655 5.19337 14.565 5.094C14.5662 4.93791 14.5054 4.78772 14.3961 4.67636C14.2867 4.56501 14.1376 4.50158 13.9815 4.5C13.8444 4.5008 13.7119 4.54953 13.607 4.63774C13.5021 4.72596 13.4313 4.8481 13.407 4.983H10.1745C10.1502 4.84822 10.0795 4.72618 9.97477 4.63798C9.87 4.54978 9.7377 4.50097 9.60075 4.5C9.44453 4.50139 9.29526 4.56472 9.18571 4.6761C9.07616 4.78748 9.0153 4.93778 9.0165 5.094C9.01649 5.19873 9.0439 5.30164 9.096 5.3925L6.41625 7.3275C6.30949 7.22817 6.16907 7.17297 6.02325 7.173C5.86703 7.17439 5.71776 7.23772 5.60821 7.3491C5.49866 7.46048 5.4378 7.61078 5.439 7.767C5.439 7.9935 5.5635 8.19 5.7465 8.2905L4.785 11.4105C4.70188 11.4005 4.61758 11.4083 4.53771 11.4334C4.45784 11.4585 4.38423 11.5003 4.32179 11.5561C4.25935 11.6119 4.2095 11.6803 4.17557 11.7569C4.14164 11.8334 4.1244 11.9163 4.125 12C4.12426 12.0822 4.14074 12.1637 4.17336 12.2392C4.20598 12.3146 4.25403 12.3825 4.31442 12.4383C4.37481 12.494 4.44621 12.5366 4.52402 12.5632C4.60183 12.5897 4.68434 12.5997 4.76625 12.5925L5.7435 15.7125C5.6509 15.7644 5.57384 15.84 5.52031 15.9317C5.46677 16.0233 5.4387 16.1276 5.439 16.2338C5.439 16.5615 5.70075 16.8278 6.02325 16.8278C6.16641 16.8276 6.30437 16.7741 6.41025 16.6777L9.06975 18.6585C9.03486 18.7363 9.01696 18.8207 9.01725 18.906C9.01725 19.2345 9.27825 19.5007 9.60075 19.5007C9.88575 19.5007 10.1235 19.293 10.1745 19.0178H13.407C13.4313 19.1527 13.5021 19.2748 13.607 19.363C13.7119 19.4512 13.8444 19.5 13.9815 19.5007C14.304 19.5007 14.565 19.2345 14.565 18.9067C14.5651 18.8206 14.5467 18.7354 14.511 18.657L17.505 16.4108L18.9847 17.7277V17.727ZM14.031 18.3143C13.939 18.3064 13.8465 18.3205 13.761 18.3555L12.2258 16.1843C12.2995 16.1006 12.3484 15.998 12.3668 15.888L14.9542 15.5115C14.9878 15.6255 15.0547 15.7268 15.1462 15.8025L14.031 18.3143V18.3143ZM14.3257 18.4268C14.3196 18.4221 14.3133 18.4176 14.307 18.4133L15.4117 15.9263C15.5171 15.9454 15.6258 15.9348 15.7255 15.8957C15.8252 15.8567 15.9121 15.7906 15.9765 15.705L17.2275 16.2495L14.325 18.426L14.3257 18.4268ZM13.527 18.5325C13.4825 18.5885 13.4485 18.652 13.4265 18.72H10.155C10.133 18.652 10.099 18.5885 10.0545 18.5325L11.5995 16.3485C11.723 16.392 11.8577 16.392 11.9813 16.3485L13.5262 18.5325H13.527ZM18.573 12.51L17.6535 15.477L17.454 12.5625C17.5704 12.5216 17.6712 12.4455 17.7423 12.3447C17.8134 12.2439 17.8513 12.1234 17.8508 12C17.8513 11.8758 17.8129 11.7546 17.7409 11.6534C17.6689 11.5522 17.567 11.4762 17.4495 11.436L17.652 8.52975L18.5565 11.5005C18.4739 11.555 18.4062 11.6292 18.3595 11.7164C18.3127 11.8036 18.2884 11.9011 18.2888 12C18.2888 12.2168 18.4027 12.4065 18.5737 12.51H18.573ZM16.8825 11.5522C16.8193 11.6084 16.7688 11.6774 16.7343 11.7546C16.6997 11.8318 16.682 11.9154 16.6823 12C16.6823 12.1702 16.7535 12.324 16.8668 12.4327L15.6517 14.7645C15.5757 14.7457 15.4966 14.7427 15.4193 14.7555L14.3438 12.4658C14.4131 12.4096 14.469 12.3386 14.5073 12.258C14.5455 12.1774 14.5653 12.0892 14.565 12C14.5652 11.9123 14.5461 11.8257 14.509 11.7462C14.4719 11.6667 14.4178 11.5964 14.3505 11.5403L15.3945 9.24C15.4942 9.26107 15.5977 9.25537 15.6945 9.2235L16.8825 11.5522V11.5522ZM17.163 12.585L17.3962 16.0005L16.0912 15.432C16.1061 15.3359 16.0973 15.2377 16.0655 15.1458C16.0337 15.0539 15.98 14.9712 15.909 14.9047L17.1225 12.576C17.1359 12.5795 17.1494 12.5825 17.163 12.585V12.585ZM17.1585 11.4165C17.1535 11.4172 17.1485 11.4179 17.1435 11.4188L15.9412 9.06375C16.0049 8.9945 16.0514 8.91121 16.0768 8.82063C16.1022 8.73006 16.1059 8.63476 16.0875 8.5425L17.091 8.12325C17.1616 8.21964 17.26 8.29213 17.373 8.331L17.1585 11.4165ZM14.0775 12.5865L15.1522 14.8755C15.0462 14.9609 14.9726 15.08 14.9437 15.213L12.3428 15.591C12.3186 15.5213 12.2817 15.4567 12.234 15.4005L13.8262 12.573C13.908 12.5957 13.9938 12.6001 14.0775 12.5858V12.5865ZM14.085 11.4157C13.9938 11.3989 13.8999 11.4043 13.8113 11.4315L12.207 8.55525C12.2596 8.50088 12.3013 8.43699 12.33 8.367L14.9363 8.74575C14.9566 8.88602 15.0263 9.01444 15.1328 9.108L14.0858 11.4157H14.085ZM13.5735 12.4252L11.994 15.2302C11.8812 15.1877 11.7579 15.1816 11.6415 15.213L10.014 12.4193C10.1238 12.3074 10.1853 12.1568 10.185 12C10.185 11.8425 10.125 11.6992 10.026 11.5927L11.6812 8.7225C11.7728 8.74003 11.8672 8.73515 11.9565 8.70825L13.5615 11.5868C13.4554 11.6981 13.3963 11.8461 13.3965 12C13.3965 12.1665 13.464 12.3172 13.5735 12.4252V12.4252ZM5.04075 12.489C5.11907 12.4338 5.18293 12.3605 5.22693 12.2754C5.27093 12.1903 5.29376 12.0958 5.2935 12C5.29376 11.9076 5.27256 11.8165 5.23156 11.7337C5.19056 11.6509 5.13089 11.5788 5.05725 11.523L5.9745 8.54175L6.20175 11.4172C6.06819 11.4453 5.94842 11.5186 5.86273 11.6248C5.77703 11.731 5.73067 11.8635 5.7315 12C5.7315 12.285 5.92875 12.5235 6.192 12.5805L5.97225 15.4635L5.04075 12.489V12.489ZM7.95675 14.7585L6.71925 12.429C6.77644 12.3732 6.82184 12.3064 6.85276 12.2328C6.88368 12.1591 6.89949 12.0799 6.89925 12C6.89945 11.9179 6.8827 11.8366 6.85005 11.7612C6.81741 11.6858 6.76956 11.618 6.7095 11.562L7.96875 9.2445C8.04137 9.25697 8.1157 9.25544 8.18775 9.24L9.23175 11.5395C9.16419 11.5957 9.10987 11.6661 9.07266 11.7457C9.03546 11.8253 9.01628 11.9121 9.0165 12C9.0165 12.192 9.1065 12.363 9.24525 12.4717L8.21775 14.7667C8.13253 14.7441 8.04323 14.7412 7.95675 14.7585V14.7585ZM8.19975 15.921L9.279 18.4103C9.27086 18.4158 9.26285 18.4215 9.255 18.4275L6.57375 16.431C6.60451 16.3432 6.61452 16.2495 6.603 16.1572L7.61475 15.7162C7.68292 15.8022 7.7741 15.867 7.87767 15.9031C7.98124 15.9392 8.09293 15.9451 8.19975 15.9202V15.921ZM7.4925 15.4462L6.495 15.8812C6.43208 15.7941 6.34648 15.7259 6.2475 15.684L6.483 12.609L7.69275 14.886C7.6133 14.9537 7.553 15.0411 7.51786 15.1394C7.48272 15.2377 7.47398 15.3435 7.4925 15.4462V15.4462ZM8.64 15.222C8.61641 15.1048 8.55814 14.9974 8.47275 14.9138L9.51525 12.588C9.59803 12.6002 9.68247 12.5943 9.76275 12.5707L11.3865 15.3585C11.3196 15.4238 11.2689 15.504 11.2387 15.5925L8.64 15.222V15.222ZM8.625 15.5198L11.2155 15.8895C11.2343 16.002 11.2845 16.1033 11.3565 16.1843L9.8205 18.3555C9.7368 18.3208 9.64608 18.3064 9.55575 18.3135L8.4585 15.783C8.53626 15.7118 8.59372 15.6212 8.625 15.5205V15.5198ZM7.49775 8.52825C7.47439 8.63634 7.48105 8.74876 7.51701 8.85333C7.55297 8.9579 7.61686 9.05064 7.70175 9.1215L6.48975 11.3535L6.24975 8.31525C6.35038 8.27185 6.43689 8.2012 6.4995 8.11125L7.497 8.52825H7.49775ZM8.21025 8.082C8.10641 8.05538 7.9972 8.05826 7.89491 8.09033C7.79262 8.12239 7.70131 8.18237 7.63125 8.2635L6.60375 7.83375C6.61323 7.74706 6.60402 7.65934 6.57675 7.5765L9.2415 5.652L8.21025 8.082V8.082ZM8.64675 8.73675L11.25 8.3655C11.2867 8.4555 11.3437 8.5335 11.4157 8.595L9.77925 11.4345C9.68781 11.4046 9.59033 11.3982 9.49575 11.4157L8.44875 9.108C8.55739 9.0123 8.6275 8.88034 8.646 8.73675H8.64675ZM8.46675 8.22525L9.54525 5.68575C9.64533 5.69506 9.7461 5.67827 9.83775 5.637L11.3303 7.773C11.2637 7.85964 11.2222 7.96289 11.2102 8.0715L8.6115 8.442C8.58007 8.36002 8.53089 8.286 8.4675 8.22525H8.46675ZM15.459 8.067L14.3558 5.643L17.0018 7.5885C16.9756 7.67262 16.9682 7.76145 16.98 7.84875L15.96 8.27475C15.8998 8.20185 15.8227 8.1448 15.7353 8.10859C15.648 8.07237 15.5531 8.05809 15.459 8.067V8.067ZM14.967 8.4495L12.372 8.073C12.3603 7.96387 12.3188 7.86007 12.252 7.773L13.7445 5.637C13.8408 5.68051 13.9472 5.6966 14.052 5.6835L15.1845 8.16825C15.0849 8.23783 15.009 8.33624 14.967 8.45025V8.4495ZM13.515 5.4525L12.0195 7.59225C11.9473 7.56087 11.8695 7.54468 11.7907 7.54468C11.712 7.54468 11.6342 7.56087 11.562 7.59225L10.0665 5.4525C10.1055 5.40026 10.1356 5.34199 10.1558 5.28H13.4257C13.4461 5.34204 13.4765 5.40032 13.5157 5.4525H13.515ZM12 24C5.37225 24 0 18.6277 0 12C0 5.37225 5.37225 0 12 0C18.6277 0 24 5.37225 24 12C24 18.6277 18.6277 24 12 24Z" fill="black"/>
</svg>
