<svg width="24" height="24" viewBox="0 0 24 24" fill="none" xmlns="http://www.w3.org/2000/svg">
<path d="M12 24C18.6274 24 24 18.6274 24 12C24 5.37258 18.6274 0 12 0C5.37258 0 0 5.37258 0 12C0 18.6274 5.37258 24 12 24Z" fill="#9D4BEF"/>
<path d="M8.60251 5.74573C9.35997 5.74573 10.0864 6.04663 10.622 6.58223C11.1576 7.11783 11.4585 7.84427 11.4585 8.60173C11.4585 9.35919 11.1576 10.0856 10.622 10.6212C10.0864 11.1568 9.35997 11.4577 8.60251 11.4577C7.84505 11.4577 7.11862 11.1568 6.58301 10.6212C6.04741 10.0856 5.74651 9.35919 5.74651 8.60173C5.74651 7.84427 6.04741 7.11783 6.58301 6.58223C7.11862 6.04663 7.84505 5.74573 8.60251 5.74573V5.74573ZM11.4578 15.3982C11.4578 15.9631 11.2903 16.5153 10.9764 16.9849C10.6626 17.4546 10.2166 17.8207 9.6947 18.0368C9.17284 18.253 8.59859 18.3096 8.04458 18.1994C7.49057 18.0892 6.98168 17.8171 6.58226 17.4177C6.18284 17.0183 5.91084 16.5094 5.80064 15.9554C5.69044 15.4014 5.747 14.8272 5.96316 14.3053C6.17932 13.7834 6.54538 13.3374 7.01505 13.0236C7.48472 12.7097 8.0369 12.5422 8.60176 12.5422C9.64665 12.5422 10.6487 12.1271 11.3876 11.3883C12.1264 10.6495 12.5415 9.64736 12.5415 8.60248C12.5415 8.03761 12.709 7.48544 13.0228 7.01577C13.3367 6.5461 13.7827 6.18004 14.3046 5.96388C14.8264 5.74771 15.4007 5.69116 15.9547 5.80136C16.5087 5.91155 17.0176 6.18356 17.417 6.58298C17.8164 6.9824 18.0884 7.49129 18.1986 8.0453C18.3088 8.59931 18.2523 9.17356 18.0361 9.69542C17.8199 10.2173 17.4539 10.6633 16.9842 10.9772C16.5146 11.291 15.9624 11.4585 15.3975 11.4585C14.3528 11.4587 13.3509 11.8738 12.6122 12.6127C11.8735 13.3515 11.4585 14.3535 11.4585 15.3982H11.4578ZM15.3975 18.2542C14.6401 18.2542 13.9136 17.9533 13.378 17.4177C12.8424 16.8821 12.5415 16.1557 12.5415 15.3982C12.5415 14.6408 12.8424 13.9143 13.378 13.3787C13.9136 12.8431 14.6401 12.5422 15.3975 12.5422C16.155 12.5422 16.8814 12.8431 17.417 13.3787C17.9526 13.9143 18.2535 14.6408 18.2535 15.3982C18.2535 16.1557 17.9526 16.8821 17.417 17.4177C16.8814 17.9533 16.155 18.2542 15.3975 18.2542V18.2542ZM15.3975 16.2592C15.6259 16.2592 15.8449 16.1685 16.0063 16.007C16.1678 15.8456 16.2585 15.6266 16.2585 15.3982C16.2585 15.1699 16.1678 14.9509 16.0063 14.7894C15.8449 14.6279 15.6259 14.5372 15.3975 14.5372C15.1692 14.5372 14.9502 14.6279 14.7887 14.7894C14.6272 14.9509 14.5365 15.1699 14.5365 15.3982C14.5365 15.6266 14.6272 15.8456 14.7887 16.007C14.9502 16.1685 15.1692 16.2592 15.3975 16.2592V16.2592ZM8.60251 16.2592C8.83086 16.2592 9.04986 16.1685 9.21133 16.007C9.3728 15.8456 9.46351 15.6266 9.46351 15.3982C9.46351 15.1699 9.3728 14.9509 9.21133 14.7894C9.04986 14.6279 8.83086 14.5372 8.60251 14.5372C8.37416 14.5372 8.15516 14.6279 7.99369 14.7894C7.83222 14.9509 7.74151 15.1699 7.74151 15.3982C7.74151 15.6266 7.83222 15.8456 7.99369 16.007C8.15516 16.1685 8.37416 16.2592 8.60251 16.2592V16.2592ZM15.3975 9.46273C15.6259 9.46273 15.8449 9.37202 16.0063 9.21055C16.1678 9.04908 16.2585 8.83008 16.2585 8.60173C16.2585 8.37338 16.1678 8.15438 16.0063 7.99291C15.8449 7.83144 15.6259 7.74073 15.3975 7.74073C15.1692 7.74073 14.9502 7.83144 14.7887 7.99291C14.6272 8.15438 14.5365 8.37338 14.5365 8.60173C14.5365 8.83008 14.6272 9.04908 14.7887 9.21055C14.9502 9.37202 15.1692 9.46273 15.3975 9.46273ZM8.60251 9.46273C8.83086 9.46273 9.04986 9.37202 9.21133 9.21055C9.3728 9.04908 9.46351 8.83008 9.46351 8.60173C9.46351 8.37338 9.3728 8.15438 9.21133 7.99291C9.04986 7.83144 8.83086 7.74073 8.60251 7.74073C8.37416 7.74073 8.15516 7.83144 7.99369 7.99291C7.83222 8.15438 7.74151 8.37338 7.74151 8.60173C7.74151 8.83008 7.83222 9.04908 7.99369 9.21055C8.15516 9.37202 8.37416 9.46273 8.60251 9.46273Z" fill="white"/>
</svg>
