<svg width="48" height="48" viewBox="0 0 24 24" fill="none" xmlns="http://www.w3.org/2000/svg">
<path fill-rule="evenodd" clip-rule="evenodd" d="M12 24C5.37225 24 0 18.6277 0 12C0 5.37225 5.37225 0 12 0C18.6277 0 24 5.37225 24 12C24 18.6277 18.6277 24 12 24ZM8.6025 5.74575C7.84494 5.74575 7.11841 6.04669 6.58274 6.58236C6.04706 7.11804 5.74612 7.84457 5.74612 8.60212C5.74612 9.35968 6.04706 10.0862 6.58274 10.6219C7.11841 11.1576 7.84494 11.4585 8.6025 11.4585C9.36006 11.4585 10.0866 11.1576 10.6223 10.6219C11.1579 10.0862 11.4589 9.35968 11.4589 8.60212C11.4589 7.84457 11.1579 7.11804 10.6223 6.58236C10.0866 6.04669 9.36006 5.74575 8.6025 5.74575V5.74575ZM11.4578 15.3983C11.4578 14.3534 11.8728 13.3513 12.6117 12.6124C13.3505 11.8736 14.3526 11.4585 15.3975 11.4585C15.9624 11.4585 16.5145 11.291 16.9842 10.9772C17.4539 10.6634 17.8199 10.2173 18.0361 9.69544C18.2523 9.17358 18.3088 8.59933 18.1986 8.04532C18.0884 7.49131 17.8164 6.98242 17.417 6.583C17.0176 6.18358 16.5087 5.91158 15.9547 5.80138C15.4007 5.69118 14.8264 5.74774 14.3046 5.9639C13.7827 6.18006 13.3366 6.54612 13.0228 7.01579C12.709 7.48546 12.5415 8.03764 12.5415 8.6025C12.5415 10.7775 10.7775 12.5422 8.60175 12.5422C8.03689 12.5422 7.48471 12.7098 7.01504 13.0236C6.54537 13.3374 6.17931 13.7834 5.96315 14.3053C5.74699 14.8272 5.69043 15.4014 5.80063 15.9554C5.91083 16.5094 6.18283 17.0183 6.58225 17.4177C6.98167 17.8172 7.49056 18.0892 8.04457 18.1994C8.59858 18.3096 9.17283 18.253 9.69469 18.0368C10.2166 17.8207 10.6626 17.4546 10.9764 16.985C11.2902 16.5153 11.4578 15.9631 11.4578 15.3983ZM15.3975 18.2543C15.7726 18.2543 16.1439 18.1805 16.4905 18.037C16.837 17.8935 17.1519 17.6832 17.4171 17.418C17.6823 17.1528 17.8928 16.838 18.0363 16.4915C18.1799 16.1451 18.2538 15.7737 18.2539 15.3986C18.2539 15.0236 18.1801 14.6522 18.0366 14.3057C17.8931 13.9591 17.6828 13.6443 17.4176 13.379C17.1525 13.1138 16.8377 12.9034 16.4912 12.7598C16.1447 12.6162 15.7733 12.5423 15.3983 12.5422C14.6408 12.5422 13.9144 12.8431 13.3788 13.3788C12.8431 13.9144 12.5422 14.6408 12.5422 15.3983C12.5422 16.1557 12.8431 16.8821 13.3788 17.4177C13.9144 17.9534 14.6408 18.2543 15.3983 18.2543H15.3975ZM15.3975 16.2593C15.1691 16.2593 14.9501 16.1685 14.7887 16.0071C14.6272 15.8456 14.5365 15.6266 14.5365 15.3983C14.5365 15.1699 14.6272 14.9509 14.7887 14.7894C14.9501 14.628 15.1691 14.5372 15.3975 14.5372C15.6259 14.5372 15.8449 14.628 16.0063 14.7894C16.1678 14.9509 16.2585 15.1699 16.2585 15.3983C16.2585 15.6266 16.1678 15.8456 16.0063 16.0071C15.8449 16.1685 15.6259 16.2593 15.3975 16.2593V16.2593ZM8.6025 16.2593C8.37415 16.2593 8.15515 16.1685 7.99368 16.0071C7.83221 15.8456 7.7415 15.6266 7.7415 15.3983C7.7415 15.1699 7.83221 14.9509 7.99368 14.7894C8.15515 14.628 8.37415 14.5372 8.6025 14.5372C8.83085 14.5372 9.04985 14.628 9.21132 14.7894C9.37279 14.9509 9.4635 15.1699 9.4635 15.3983C9.4635 15.6266 9.37279 15.8456 9.21132 16.0071C9.04985 16.1685 8.83085 16.2593 8.6025 16.2593V16.2593ZM15.3975 9.46275C15.1691 9.46275 14.9501 9.37204 14.7887 9.21057C14.6272 9.0491 14.5365 8.8301 14.5365 8.60175C14.5365 8.3734 14.6272 8.1544 14.7887 7.99293C14.9501 7.83146 15.1691 7.74075 15.3975 7.74075C15.6259 7.74075 15.8449 7.83146 16.0063 7.99293C16.1678 8.1544 16.2585 8.3734 16.2585 8.60175C16.2585 8.8301 16.1678 9.0491 16.0063 9.21057C15.8449 9.37204 15.6259 9.46275 15.3975 9.46275ZM8.6025 9.46275C8.37415 9.46275 8.15515 9.37204 7.99368 9.21057C7.83221 9.0491 7.7415 8.8301 7.7415 8.60175C7.7415 8.3734 7.83221 8.1544 7.99368 7.99293C8.15515 7.83146 8.37415 7.74075 8.6025 7.74075C8.83085 7.74075 9.04985 7.83146 9.21132 7.99293C9.37279 8.1544 9.4635 8.3734 9.4635 8.60175C9.4635 8.8301 9.37279 9.0491 9.21132 9.21057C9.04985 9.37204 8.83085 9.46275 8.6025 9.46275Z" fill="black"/>
</svg>
