<svg width="24" height="24" viewBox="0 0 24 24" fill="none" xmlns="http://www.w3.org/2000/svg">
<path d="M12 24C18.6274 24 24 18.6274 24 12C24 5.37258 18.6274 0 12 0C5.37258 0 0 5.37258 0 12C0 18.6274 5.37258 24 12 24Z" fill="#3555F9"/>
<path d="M10.77 4.97027C11.4075 4.85177 12.06 4.86527 12.705 4.89752C13.449 4.98452 14.1945 5.14052 14.8785 5.44802C16.2446 6.01887 17.4025 6.99536 18.1958 8.24552C18.4905 8.67527 18.6885 9.15677 18.8873 9.63452C19.0718 9.34052 19.2368 9.03452 19.3973 8.72702C19.4663 8.58227 19.611 8.47052 19.7798 8.47802C19.892 8.46926 20.0033 8.50414 20.0905 8.57539C20.1777 8.64664 20.234 8.74877 20.2478 8.86052C20.2665 9.04052 20.1533 9.19577 20.079 9.35177C19.845 9.82427 19.5428 10.2608 19.23 10.6868C19.1723 10.7483 19.1963 10.8338 19.203 10.9088C19.551 12.9615 18.8888 15.1463 17.478 16.6928C16.6647 17.5967 15.6398 18.2848 14.4953 18.6953C13.1768 19.1565 11.7248 19.2608 10.3613 18.9383C8.38425 18.51 6.63525 17.2065 5.64075 15.477C5.42325 15.1268 5.2845 14.7375 5.11275 14.3655C4.92525 14.6543 4.76625 14.958 4.6065 15.261C4.56897 15.3361 4.51249 15.4001 4.44264 15.4467C4.37279 15.4932 4.292 15.5208 4.20825 15.5265C3.9225 15.5265 3.663 15.219 3.77775 14.9453C4.02375 14.3798 4.3605 13.8563 4.73775 13.3673C4.81875 13.2825 4.8075 13.1625 4.7925 13.0568C4.65242 12.1543 4.69322 11.2329 4.9125 10.3463C5.49 7.85327 7.56 5.77127 10.0688 5.12252C10.3013 5.06777 10.5338 5.01002 10.77 4.97027V4.97027ZM8.9985 6.47777C7.66875 7.17677 6.5985 8.34602 6.0435 9.72677C5.7225 10.5608 5.559 11.4578 5.6085 12.3503C5.74934 12.2446 5.88359 12.1303 6.0105 12.0083C6.75675 11.3423 7.6305 10.8263 8.544 10.4153C10.2413 9.64352 12.1103 9.31127 13.9673 9.22127C13.3395 8.57027 12.6585 7.96952 12.0308 7.31852C12.2288 7.10102 12.4433 6.90002 12.6578 6.69902C12.9015 6.91952 13.1265 7.15877 13.365 7.38452C14.1375 8.15327 14.9333 8.89952 15.693 9.67877C14.883 10.4865 14.052 11.274 13.242 12.0818C13.1737 12.146 13.1021 12.2066 13.0275 12.2633C12.8235 12.0578 12.5865 11.8778 12.423 11.637C12.921 11.115 13.488 10.6575 13.9658 10.1168C13.1093 10.1288 12.2573 10.2503 11.4188 10.4168C10.7415 10.5375 10.0905 10.7663 9.44025 10.9845C8.07825 11.4945 6.822 12.3075 5.86425 13.395C5.80725 13.4513 5.8155 13.5345 5.8305 13.605C5.94375 14.091 6.1575 14.5455 6.3915 14.985C7.164 16.3778 8.499 17.454 10.0328 17.94C10.9298 18.216 11.8868 18.3225 12.8198 18.1928C14.124 18.0289 15.3469 17.4702 16.3245 16.5915C17.7233 15.3585 18.5078 13.4798 18.387 11.6355C18.2393 11.7503 18.1073 11.8808 17.9693 12.0053C17.0311 12.8124 15.952 13.4394 14.7863 13.8548C13.2713 14.4173 11.6573 14.7083 10.041 14.754C10.182 14.9385 10.356 15.093 10.5203 15.2573C11.004 15.7283 11.481 16.2053 11.9723 16.6688C11.7833 16.8915 11.5628 17.0858 11.3543 17.2898C11.145 17.1195 10.9643 16.9215 10.7693 16.7348C10.0388 16.0268 9.31575 15.3098 8.58675 14.5988C8.48581 14.5069 8.39297 14.4066 8.30925 14.2988C8.625 13.9598 8.988 13.6673 9.31125 13.3358C9.86625 12.7995 10.4063 12.2475 10.968 11.718C11.178 11.922 11.3985 12.117 11.5853 12.3428C11.0858 12.8603 10.554 13.347 10.0478 13.8578C10.6028 13.8855 11.1503 13.7903 11.7008 13.7378C12.0983 13.6958 12.489 13.6058 12.8813 13.524C14.895 13.059 16.8563 12.1028 18.2078 10.527C17.6903 8.28902 15.7875 6.44702 13.5233 5.92652C12.015 5.54327 10.3703 5.76152 8.9985 6.47777V6.47777Z" fill="white"/>
</svg>
