<svg width="24" height="24" viewBox="0 0 24 24" fill="none" xmlns="http://www.w3.org/2000/svg">
<path d="M12 24C18.6274 24 24 18.6274 24 12C24 5.37258 18.6274 0 12 0C5.37258 0 0 5.37258 0 12C0 18.6274 5.37258 24 12 24Z" fill="#E30613"/>
<path opacity="0.75" fill-rule="evenodd" clip-rule="evenodd" d="M11.5208 20.25C7.23 20.25 3.75 16.8052 3.75 12.5565C3.75 8.30773 7.22925 4.86298 11.5208 4.86298C15.813 4.86298 19.2922 8.30773 19.2922 12.5565C19.2922 16.8052 15.8122 20.25 11.52 20.25H11.5208ZM12.8625 7.06723C14.6745 7.80898 15.9765 9.20473 16.9005 11.0857L17.598 10.6005C16.815 8.71648 15.3683 7.23598 13.041 6.27598L12.8625 7.06723V7.06723Z" fill="white"/>
<path d="M20.244 6.99075C20.244 5.20125 18.7778 3.75 16.9703 3.75C15.1628 3.75 13.6965 5.20125 13.6965 6.99075C13.6965 7.16175 13.71 7.332 13.737 7.50075C14.8268 8.13525 15.702 9.04575 16.4018 10.1828C16.5893 10.215 16.7798 10.2323 16.9703 10.2323C18.7778 10.2323 20.244 8.781 20.244 6.99075V6.99075Z" fill="white"/>
</svg>
