<svg width="48" height="48" viewBox="0 0 24 24" fill="none" xmlns="http://www.w3.org/2000/svg">
<path fill-rule="evenodd" clip-rule="evenodd" d="M12 24C5.37225 24 0 18.6277 0 12C0 5.37225 5.37225 0 12 0C18.6277 0 24 5.37225 24 12C24 18.6277 18.6277 24 12 24ZM19.4197 15.4965L12.9375 4.077C12.8804 3.97734 12.7979 3.89458 12.6985 3.83715C12.599 3.77971 12.4861 3.74964 12.3713 3.75C12.2564 3.74964 12.1435 3.77971 12.044 3.83715C11.9446 3.89458 11.8621 3.97734 11.805 4.077L5.3325 15.4973C5.25103 15.6412 5.22974 15.8115 5.27329 15.9711C5.31684 16.1307 5.42169 16.2666 5.565 16.3492L12.0427 20.1592C12.1438 20.2183 12.2587 20.2494 12.3757 20.2494C12.4928 20.2494 12.6077 20.2183 12.7087 20.1592L19.1857 16.3522C19.329 16.2698 19.4338 16.134 19.4775 15.9746C19.5212 15.8152 19.5002 15.645 19.419 15.501L19.4205 15.4965H19.4197ZM15.4373 12.234C15.2303 11.6508 14.8575 11.1406 14.3647 10.7662L14.3588 10.761C14.3067 10.7216 14.2534 10.6838 14.199 10.6477L14.1885 10.6403C14.1349 10.6051 14.0804 10.5713 14.025 10.539L14.01 10.53C13.9557 10.4985 13.8999 10.4697 13.8428 10.4438L13.8262 10.4348C13.7678 10.4073 13.7088 10.381 13.6492 10.356L13.6298 10.3485C13.4371 10.2685 13.2372 10.2072 13.0328 10.1655C12.915 10.3791 12.7635 10.5723 12.5842 10.7378C13.0053 10.7713 13.412 10.9059 13.77 11.13L13.7902 11.142L13.8892 11.2095L13.9343 11.241C13.9643 11.2635 13.992 11.286 14.0228 11.3085L14.073 11.349C14.1 11.3715 14.1248 11.394 14.1503 11.4172L14.2012 11.466L14.271 11.5365L14.322 11.5912L14.3843 11.664L14.433 11.7248L14.4893 11.7997C14.508 11.8245 14.5208 11.844 14.5358 11.8658C14.5508 11.8875 14.5702 11.916 14.586 11.9423L14.6295 12.0142C14.643 12.0382 14.6595 12.0653 14.673 12.0908C14.688 12.1155 14.7 12.1432 14.7135 12.1702C14.7263 12.1972 14.739 12.2197 14.7502 12.2452C14.7643 12.2785 14.7778 12.312 14.7908 12.3458C14.8619 12.5233 14.9123 12.7086 14.9407 12.8978L15.0225 13.2007C15.057 13.3267 15.3758 14.4427 16.1145 14.8185C16.9613 15.2527 18.0825 15.789 18.5235 16.0012L12.699 19.4213V17.0775C12.699 16.7078 13.449 16.275 13.7963 16.1227L13.8165 16.1115C13.8878 16.0763 13.959 16.038 14.0265 15.9975L14.0557 15.9825C14.206 15.892 14.3489 15.79 14.4833 15.6772L14.5192 15.645L14.5605 15.6083C14.6027 15.5703 14.644 15.5313 14.6843 15.4913L14.7053 15.471C14.7495 15.4268 14.7938 15.3848 14.8328 15.333L14.8695 15.291C14.9025 15.252 14.934 15.2123 14.9647 15.1718L14.9918 15.138C15.0293 15.0885 15.0638 15.0375 15.0983 14.9858L15.1102 14.9708C15.1567 14.898 15.198 14.8253 15.2415 14.7495C15.0782 14.5523 14.9382 14.3369 14.8245 14.1075C14.778 14.2372 14.7195 14.3633 14.652 14.484C14.6235 14.5365 14.5935 14.5875 14.5635 14.637L14.55 14.6572C14.5217 14.6993 14.4922 14.7406 14.4615 14.781L14.4345 14.8155C14.4039 14.8549 14.3719 14.8932 14.3385 14.9302L14.3205 14.9512C14.1035 15.1882 13.8444 15.3828 13.5563 15.525L13.5015 15.5527C13.3538 15.618 12.0518 16.1955 12.0518 17.0737V19.4183L6.20925 15.9922C6.585 15.7627 7.683 15.1238 8.586 14.8425C8.93925 14.7345 9.68925 15.1972 10.1145 15.537L10.14 15.5595C10.1963 15.612 10.2555 15.6622 10.317 15.7095L10.338 15.7283C10.473 15.8363 10.617 15.933 10.7678 16.0185L10.869 16.0732L10.8893 16.0837C10.9875 16.1332 11.088 16.1783 11.1907 16.218L11.2357 16.2352L11.2657 16.2473C11.4135 16.3013 11.5658 16.3433 11.7195 16.3748C11.8405 16.1585 11.9966 15.9638 12.1815 15.7988C11.935 15.7805 11.6924 15.7275 11.4608 15.6412L11.421 15.6262L11.3445 15.5955L11.3055 15.579L11.2313 15.5445C11.0593 15.4611 10.8971 15.359 10.7475 15.24L10.515 15.033C10.3015 14.8492 10.0704 14.6869 9.825 14.5485C9.2475 14.226 8.7645 14.121 8.394 14.235C7.6215 14.4735 6.7515 14.937 6.2205 15.243L12.054 4.95525V9.4605C12.054 9.62025 11.814 10.0372 11.0122 10.3912L10.9568 10.4213C10.8788 10.4588 10.803 10.4993 10.7288 10.5428L10.7137 10.5503C10.467 10.6959 10.2406 10.8734 10.0403 11.0782L10.0327 11.0858C9.95688 11.1638 9.88504 11.2456 9.8175 11.331L9.80925 11.3423C9.77666 11.3839 9.7449 11.4261 9.714 11.469L9.7035 11.484C9.67569 11.5245 9.64868 11.5655 9.6225 11.607L9.6135 11.6198C9.58709 11.6623 9.56183 11.7056 9.53775 11.7495L9.5205 11.7802C9.49875 11.8222 9.477 11.8672 9.45525 11.9062L9.4455 11.9265C9.42618 11.966 9.40792 12.006 9.39075 12.0465L9.372 12.0915C9.35475 12.1335 9.339 12.1785 9.32325 12.219L9.30825 12.264C9.29678 12.2962 9.28627 12.3287 9.27675 12.3615C9.2715 12.3795 9.2655 12.3968 9.261 12.4155C9.21795 12.5661 9.1866 12.7198 9.16725 12.8752L9.15975 12.945C9.1562 12.9767 9.15345 13.0084 9.1515 13.0402C9.15 13.0725 9.1515 13.104 9.14625 13.1355C9.141 13.1677 9.14625 13.1745 9.14625 13.1955V13.2667C9.14625 13.4242 9.15825 13.5818 9.18225 13.7385C9.4335 13.7998 9.67666 13.8904 9.90675 14.0085C9.83612 13.7821 9.79823 13.5467 9.79425 13.3095V13.2667C9.79425 13.2097 9.79425 13.1535 9.801 13.0935V13.0485C9.801 12.9998 9.81075 12.9502 9.8175 12.9015V12.8805C9.82525 12.8262 9.83577 12.7724 9.849 12.7192L9.858 12.678C9.86925 12.633 9.8805 12.5895 9.89475 12.5452L9.90375 12.5167C9.91875 12.465 9.9375 12.4148 9.957 12.3645L9.972 12.3307C9.9885 12.2895 10.0065 12.2482 10.0252 12.207L10.0395 12.1755C10.0627 12.1267 10.0883 12.0795 10.1145 12.0322L10.1288 12.009C10.1524 11.9683 10.1771 11.9283 10.203 11.889L10.2217 11.8612C10.2525 11.8162 10.284 11.7743 10.3177 11.7278L10.3238 11.7202C10.356 11.679 10.3898 11.6393 10.4243 11.6003L10.443 11.5778C10.6012 11.4038 10.7828 11.2515 10.983 11.1255L11.259 10.998C11.4068 10.9327 12.7028 10.3395 12.7028 9.4605V4.95525L18.582 15.3203C18.057 15.0675 17.1345 14.6212 16.4145 14.2552C16.0035 14.0452 15.723 13.305 15.651 13.0395L15.5715 12.7283C15.5421 12.5612 15.4989 12.3969 15.4425 12.237L15.4365 12.234H15.4373Z" fill="black"/>
</svg>
