<svg width="48" height="48" viewBox="0 0 24 24" fill="none" xmlns="http://www.w3.org/2000/svg">
<path d="M12 24C5.37225 24 0 18.6277 0 12C0 5.37225 5.37225 0 12 0C18.6277 0 24 5.37225 24 12C24 18.6277 18.6277 24 12 24ZM7.5 4.5V5.7915L12.687 5.79225C13.356 5.78325 13.8472 5.83875 14.1592 5.958C15.2887 6.34275 16.0613 7.50675 15.9705 8.6745C15.942 10.026 14.7368 11.2208 13.359 11.2575C12.165 11.274 10.9703 11.259 9.7755 11.265C10.8968 13.095 12.5805 15.84 14.8267 19.5L15.8992 18.8265C14.61 16.7208 13.3188 14.6163 12.0255 12.513C12.7808 12.4995 13.5533 12.5767 14.289 12.3682C15.4485 12.0615 16.44 11.2147 16.914 10.1332C17.4375 8.958 17.3475 7.53225 16.659 6.4395C16.3613 5.96502 15.9682 5.55759 15.5047 5.24308C15.0412 4.92857 14.5174 4.71383 13.9665 4.6125C13.6365 4.54275 13.1318 4.50525 12.4553 4.5H7.5V4.5Z" fill="black"/>
</svg>
