<svg width="24" height="24" viewBox="0 0 24 24" fill="none" xmlns="http://www.w3.org/2000/svg">
<path d="M12 24C18.6274 24 24 18.6274 24 12C24 5.37258 18.6274 0 12 0C5.37258 0 0 5.37258 0 12C0 18.6274 5.37258 24 12 24Z" fill="#CC1E46"/>
<path d="M8.86201 6.92997C10.1173 5.98661 11.6123 5.41489 13.1768 5.27997C13.3358 5.24772 13.5083 5.34822 13.503 5.52372C13.518 5.94372 13.5075 6.36372 13.5075 6.78372C13.518 6.91422 13.449 7.08372 13.299 7.08747C11.9145 7.24047 10.599 7.80597 9.45601 8.58747C9.34801 8.64822 9.37201 8.78847 9.38101 8.89047C9.46051 9.62697 9.40651 10.3687 9.42826 11.1075C13.1588 11.118 16.8908 11.106 20.6228 11.1135C20.8005 11.0985 20.988 11.1997 20.9738 11.3985C20.9925 12.6547 20.9775 13.911 20.9813 15.1665C20.9843 15.849 20.8388 16.5555 20.4255 17.1135C19.773 17.9902 18.6255 18.516 17.535 18.3225C16.7625 18.207 16.095 17.7277 15.627 17.1195C14.3531 18.0776 12.833 18.6538 11.244 18.7807C11.0828 18.783 10.962 18.6247 10.9868 18.4702C10.992 18.0307 10.9778 17.5897 10.9943 17.1502C11.0318 16.9177 11.3183 16.9627 11.4885 16.9245C12.7965 16.7205 14.0475 16.1722 15.1155 15.3945C15.0605 14.5785 15.0412 13.7604 15.0578 12.9427C11.3138 12.9187 7.56826 12.9412 3.82426 12.9307C3.65926 12.9495 3.50026 12.8257 3.51601 12.651C3.51301 11.3287 3.51376 10.0057 3.51751 8.68347C3.52501 7.99197 3.74326 7.29297 4.20151 6.76572C4.80526 6.07872 5.71576 5.63997 6.63976 5.69397C7.52476 5.72922 8.33701 6.23247 8.86201 6.92997V6.92997ZM5.02501 8.91147C5.02351 9.68622 5.02276 10.4617 5.02651 11.238C5.95201 11.2372 6.87601 11.2507 7.80076 11.2305C7.80226 10.4745 7.81201 9.71922 7.79626 8.96322C7.78201 8.23872 7.12726 7.59822 6.39976 7.61322C5.68951 7.58397 5.04226 8.20572 5.02501 8.91072V8.91147ZM16.8068 12.879C16.7993 13.6155 16.8053 14.3527 16.8023 15.0892C16.7978 15.384 16.887 15.672 17.0573 15.912C17.4128 16.4197 18.1208 16.6417 18.6998 16.4175C19.2345 16.2195 19.5878 15.66 19.5818 15.0975C19.5818 14.358 19.5855 13.62 19.5788 12.8805C18.6548 12.873 17.7308 12.8767 16.8068 12.8782V12.879Z" fill="white"/>
</svg>
