<svg width="24" height="24" viewBox="0 0 24 24" fill="none" xmlns="http://www.w3.org/2000/svg">
<path d="M12 24C18.6274 24 24 18.6274 24 12C24 5.37258 18.6274 0 12 0C5.37258 0 0 5.37258 0 12C0 18.6274 5.37258 24 12 24Z" fill="#F49352"/>
<path fill-rule="evenodd" clip-rule="evenodd" d="M9.45374 6.86625C8.81099 6.86625 8.28974 6.33675 8.28974 5.6835C8.28974 5.03025 8.81099 4.5 9.45374 4.5C10.0972 4.5 10.6185 5.0295 10.6185 5.6835C10.6185 6.3375 10.0972 6.86625 9.45374 6.86625V6.86625ZM14.5852 19.5C14.4311 19.4987 14.2787 19.4671 14.1368 19.4069C13.9949 19.3468 13.8662 19.2592 13.7581 19.1493C13.65 19.0394 13.5646 18.9093 13.5068 18.7664C13.449 18.6235 13.42 18.4706 13.4212 18.3165C13.4212 17.664 13.9425 17.1337 14.5852 17.1337C15.2287 17.1337 15.75 17.6633 15.75 18.3165C15.75 18.9705 15.2287 19.5 14.5852 19.5V19.5ZM9.93149 10.6575C9.82274 10.7422 9.69818 10.8043 9.56511 10.8402C9.43204 10.8761 9.29314 10.885 9.15656 10.8665C9.01998 10.848 8.88848 10.8024 8.76976 10.7324C8.65105 10.6624 8.54752 10.5693 8.46524 10.4587C8.29658 10.2343 8.22255 9.95265 8.259 9.67424C8.29545 9.39583 8.43948 9.14276 8.66024 8.96925L14.0287 4.79775C14.1375 4.71307 14.262 4.65096 14.3951 4.61507C14.5282 4.57918 14.6671 4.57023 14.8037 4.58874C14.9402 4.60725 15.0717 4.65286 15.1905 4.72288C15.3092 4.7929 15.4127 4.88593 15.495 4.9965C15.6639 5.22104 15.738 5.50283 15.7016 5.78142C15.6651 6.06001 15.521 6.31322 15.3 6.48675L9.93149 10.6575ZM9.97124 14.9092C9.86249 14.9939 9.73793 15.056 9.60486 15.0919C9.47179 15.1278 9.33289 15.1368 9.19631 15.1183C9.05973 15.0997 8.92823 15.0541 8.80951 14.9841C8.6908 14.9141 8.58727 14.8211 8.50499 14.7105C8.3361 14.486 8.26193 14.2042 8.29839 13.9256C8.33484 13.647 8.47901 13.3938 8.69999 13.2203L14.0685 9.0495C14.1772 8.96482 14.3018 8.90271 14.4349 8.86682C14.5679 8.83093 14.7068 8.82198 14.8434 8.84049C14.98 8.859 15.1115 8.90461 15.2302 8.97463C15.3489 9.04465 15.4525 9.13768 15.5347 9.24825C15.7034 9.47274 15.7774 9.75435 15.741 10.0328C15.7045 10.3112 15.5605 10.5642 15.3397 10.7378L9.97124 14.9092ZM9.97124 19.281C9.86249 19.3657 9.73793 19.4278 9.60486 19.4637C9.47179 19.4996 9.33289 19.5085 9.19631 19.49C9.05973 19.4715 8.92823 19.4259 8.80951 19.3559C8.6908 19.2859 8.58727 19.1928 8.50499 19.0823C8.3361 18.8577 8.26193 18.5759 8.29839 18.2973C8.33484 18.0187 8.47901 17.7655 8.69999 17.592L14.0685 13.4213C14.1772 13.3366 14.3018 13.2745 14.4349 13.2386C14.5679 13.2027 14.7068 13.1937 14.8434 13.2122C14.98 13.2308 15.1115 13.2764 15.2302 13.3464C15.3489 13.4164 15.4525 13.5094 15.5347 13.62C15.7034 13.8445 15.7774 14.1261 15.741 14.4045C15.7045 14.6829 15.5605 14.936 15.3397 15.1095L9.97124 19.281Z" fill="white"/>
</svg>
