<svg width="48" height="48" viewBox="0 0 24 24" fill="none" xmlns="http://www.w3.org/2000/svg">
<path fill-rule="evenodd" clip-rule="evenodd" d="M12 24C5.37225 24 0 18.6277 0 12C0 5.37225 5.37225 0 12 0C18.6277 0 24 5.37225 24 12C24 18.6277 18.6277 24 12 24ZM9.45375 6.86625C10.0972 6.86625 10.6185 6.33675 10.6185 5.6835C10.6185 5.03025 10.0972 4.5 9.45375 4.5C8.811 4.5 8.28975 5.0295 8.28975 5.6835C8.28975 6.3375 8.811 6.86625 9.45375 6.86625V6.86625ZM14.5853 19.5C15.2288 19.5 15.75 18.9705 15.75 18.3165C15.75 17.664 15.2288 17.1337 14.5853 17.1337C13.9425 17.1337 13.4213 17.6633 13.4213 18.3165C13.4213 18.9705 13.9425 19.5 14.5853 19.5V19.5ZM9.9315 10.6575L15.3 6.4875C15.521 6.31397 15.6651 6.06076 15.7016 5.78217C15.7381 5.50358 15.6639 5.22179 15.495 4.99725C15.4127 4.88668 15.3092 4.79365 15.1905 4.72363C15.0718 4.65361 14.9403 4.608 14.8037 4.58949C14.6671 4.57098 14.5282 4.57993 14.3951 4.61582C14.2621 4.65171 14.1375 4.71382 14.0287 4.7985L8.661 8.97C8.44013 9.1434 8.29595 9.39641 8.25936 9.67483C8.22277 9.95324 8.29668 10.2349 8.46525 10.4595C8.54753 10.5701 8.65106 10.6631 8.76978 10.7331C8.88849 10.8031 9.02 10.8487 9.15657 10.8673C9.29315 10.8858 9.43205 10.8768 9.56512 10.8409C9.69819 10.805 9.82276 10.7429 9.9315 10.6583V10.6575ZM9.97125 14.9092L15.339 10.7378C15.5599 10.5643 15.7041 10.3113 15.7406 10.0329C15.7772 9.75451 15.7033 9.47283 15.5347 9.24825C15.4525 9.13768 15.3489 9.04465 15.2302 8.97463C15.1115 8.90461 14.98 8.859 14.8434 8.84049C14.7068 8.82198 14.5679 8.83093 14.4349 8.86682C14.3018 8.90271 14.1772 8.96482 14.0685 9.0495L8.7 13.221C8.47903 13.3945 8.33485 13.6477 8.2984 13.9263C8.26194 14.2049 8.33611 14.4867 8.505 14.7112C8.58728 14.8218 8.69081 14.9149 8.80953 14.9849C8.92824 15.0549 9.05975 15.1005 9.19632 15.119C9.3329 15.1375 9.4718 15.1286 9.60487 15.0927C9.73794 15.0568 9.86251 14.9947 9.97125 14.91V14.9092ZM9.97125 19.281L15.339 15.1095C15.5599 14.9361 15.7041 14.6831 15.7406 14.4047C15.7772 14.1263 15.7033 13.8446 15.5347 13.62C15.4525 13.5094 15.3489 13.4164 15.2302 13.3464C15.1115 13.2764 14.98 13.2308 14.8434 13.2122C14.7068 13.1937 14.5679 13.2027 14.4349 13.2386C14.3018 13.2745 14.1772 13.3366 14.0685 13.4213L8.7 17.5928C8.47903 17.7663 8.33485 18.0195 8.2984 18.2981C8.26194 18.5767 8.33611 18.8585 8.505 19.083C8.58728 19.1936 8.69081 19.2866 8.80953 19.3566C8.92824 19.4266 9.05975 19.4722 9.19632 19.4908C9.3329 19.5093 9.4718 19.5003 9.60487 19.4644C9.73794 19.4285 9.86251 19.3664 9.97125 19.2817V19.281Z" fill="black"/>
</svg>
