<svg width="48" height="48" viewBox="0 0 24 24" fill="none" xmlns="http://www.w3.org/2000/svg">
<path fill-rule="evenodd" clip-rule="evenodd" d="M12 24C5.37225 24 0 18.6277 0 12C0 5.37225 5.37225 0 12 0C18.6277 0 24 5.37225 24 12C24 18.6277 18.6277 24 12 24ZM17.7623 9.6645C16.5398 9.79275 15.6128 10.9073 15.6968 12.15C15.6968 12.4928 15.57 12.7927 15.2753 12.9645C15.1366 13.0515 14.9754 13.0961 14.8118 13.0928C14.643 13.0928 14.5162 13.05 14.3475 12.9645C13.968 12.75 13.5465 12.6218 13.125 12.6218H12.8723C11.6498 12.75 10.7647 13.8645 10.848 15.1072C10.848 15.45 10.722 15.75 10.4265 15.9218C10.2878 16.0088 10.1267 16.0533 9.963 16.05C9.8124 16.0534 9.66467 16.0085 9.5415 15.9218C9.162 15.7073 8.7405 15.5782 8.319 15.5782H8.0655C6.92775 15.7072 6.084 16.6928 6.042 17.8928C6.042 19.1783 7.0545 20.25 8.319 20.25H8.529C9.6255 20.1217 10.5112 19.2645 10.5952 18.15V17.7645C10.5952 17.4218 10.722 17.1218 11.0168 16.95C11.1557 16.8629 11.317 16.8183 11.481 16.8218C11.6497 16.8218 11.7757 16.8645 11.9445 16.95C12.324 17.1645 12.7455 17.2927 13.167 17.2927H13.4197C13.9472 17.2289 14.4365 16.9852 14.8052 16.6026C15.174 16.2201 15.3996 15.7222 15.444 15.1927V14.8073C15.444 14.4645 15.57 14.1645 15.8655 13.9927C16.0042 13.9057 16.1653 13.8612 16.329 13.8645C16.4977 13.8645 16.6245 13.9072 16.7505 13.9927C17.13 14.2072 17.5515 14.3355 17.973 14.3355H18.2265C19.365 14.1225 20.25 13.179 20.25 11.979C20.25 10.6928 19.2375 9.62175 17.973 9.62175C17.889 9.62175 17.805 9.62175 17.763 9.6645H17.7623ZM12.915 6.70725C11.6925 6.8355 10.7648 7.95 10.8488 9.19275C10.8488 9.5355 10.7227 9.8355 10.4272 10.0073C10.2886 10.0943 10.1274 10.1388 9.96375 10.1355C9.81315 10.1389 9.66542 10.094 9.54225 10.0073C9.16275 9.79275 8.74125 9.6645 8.31975 9.6645H8.06625C6.9285 9.8355 6.08475 10.779 6.08475 11.9355C6.08475 13.2217 7.09725 14.2927 8.36175 14.2927H8.5725C9.669 14.1637 10.554 13.3065 10.638 12.1927V11.8073C10.638 11.4645 10.7655 11.1645 11.0602 10.9927C11.1989 10.9057 11.3601 10.8612 11.5237 10.8645C11.6743 10.8611 11.8221 10.9061 11.9453 10.9927C12.3248 11.2072 12.7462 11.3355 13.1677 11.3355H13.4205C14.559 11.2073 15.4028 10.2218 15.4448 9.02175C15.4448 7.7355 14.4322 6.6645 13.1677 6.6645C13.0417 6.6645 12.999 6.6645 12.915 6.70725V6.70725ZM8.277 3.75C7.01925 3.75 6 4.7865 6 6.0645C6 7.3425 7.02 8.37825 8.277 8.37825C9.534 8.37825 10.5525 7.3425 10.5525 6.0645C10.5525 4.7865 9.53325 3.75 8.277 3.75Z" fill="black"/>
</svg>
