<svg width="24" height="24" viewBox="0 0 24 24" fill="none" xmlns="http://www.w3.org/2000/svg">
<path d="M12 24C18.6274 24 24 18.6274 24 12C24 5.37258 18.6274 0 12 0C5.37258 0 0 5.37258 0 12C0 18.6274 5.37258 24 12 24Z" fill="#8D181B"/>
<path d="M19.272 11.799C19.812 11.799 20.25 12.2265 20.25 12.7553C20.25 13.284 19.812 13.7115 19.272 13.7115C18.8595 13.7115 18.5062 13.461 18.363 13.1078H15.573L14.544 14.9378C14.3745 15.2393 13.9103 15.15 13.8698 14.8088L13.6387 12.8535L12.7838 19.194C12.7268 19.6155 12.096 19.596 12.0668 19.1715L11.3655 8.92126L10.623 15.7118C10.578 16.1168 9.98325 16.1378 9.9105 15.7365L9.1245 11.4195L8.7615 12.8408C8.74106 12.9177 8.69564 12.9857 8.63238 13.034C8.56912 13.0823 8.4916 13.1083 8.412 13.1078H4.86C4.66125 13.1078 4.5 12.9503 4.5 12.7553C4.5 12.5603 4.66125 12.4028 4.86 12.4028H8.13L8.83425 9.64951C8.92875 9.28051 9.47025 9.29926 9.53925 9.67351L10.176 13.1753L11.0902 4.81501C11.1375 4.38676 11.7788 4.39876 11.808 4.82851L12.5438 15.5835L13.3043 9.94051C13.3598 9.52876 13.971 9.53326 14.0198 9.94576L14.4562 13.632L15.0443 12.585C15.076 12.5294 15.122 12.4832 15.1775 12.4512C15.2329 12.4191 15.2959 12.4024 15.36 12.4028H18.363C18.4374 12.2232 18.5636 12.0699 18.7255 11.9623C18.8874 11.8548 19.0776 11.7979 19.272 11.799V11.799Z" fill="white"/>
</svg>
