<svg width="48" height="48" viewBox="0 0 24 24" fill="none" xmlns="http://www.w3.org/2000/svg">
<path d="M12 24C5.37225 24 0 18.6277 0 12C0 5.37225 5.37225 0 12 0C18.6277 0 24 5.37225 24 12C24 18.6277 18.6277 24 12 24ZM19.272 11.799C18.8595 11.799 18.5062 12.0488 18.363 12.4028H15.36C15.2961 12.4026 15.2332 12.4193 15.1779 12.4513C15.1226 12.4834 15.0767 12.5295 15.045 12.585L14.4562 13.632L14.0198 9.94575C13.971 9.53325 13.3598 9.52875 13.3043 9.9405L12.5438 15.5828L11.808 4.8285C11.778 4.39875 11.1375 4.386 11.0902 4.815L10.1753 13.1752L9.5385 9.67275C9.471 9.29925 8.92875 9.2805 8.83425 9.6495L8.13075 12.402H4.86C4.6605 12.402 4.49925 12.5603 4.49925 12.7545C4.49925 12.9488 4.6605 13.107 4.85925 13.107H8.41125C8.57625 13.107 8.72025 12.9975 8.76075 12.8408L9.12375 11.4195L9.909 15.7365C9.9825 16.1378 10.578 16.1175 10.6215 15.7117L11.3647 8.92125L12.066 19.1715C12.0952 19.596 12.726 19.6155 12.783 19.194L13.638 12.8535L13.869 14.8088C13.9095 15.15 14.3738 15.2392 14.5433 14.9385L15.5723 13.1077H18.3622C18.5047 13.461 18.8587 13.7115 19.2712 13.7115C19.8112 13.7115 20.2493 13.2832 20.2493 12.7552C20.2493 12.2272 19.8112 11.799 19.2712 11.799H19.272Z" fill="black"/>
</svg>
