<svg width="24" height="24" viewBox="0 0 24 24" fill="none" xmlns="http://www.w3.org/2000/svg">
<path d="M12 24C18.6274 24 24 18.6274 24 12C24 5.37258 18.6274 0 12 0C5.37258 0 0 5.37258 0 12C0 18.6274 5.37258 24 12 24Z" fill="#64D1FF"/>
<path fill-rule="evenodd" clip-rule="evenodd" d="M7.875 11.4285H9.198V5.25H12.6083C13.2413 5.25 13.8188 5.32425 14.3408 5.47275C14.8628 5.62125 15.3097 5.84775 15.6825 6.15075C16.0552 6.45375 16.347 6.8385 16.5585 7.30275C16.7692 7.76775 16.875 8.32275 16.875 8.9685C16.875 9.61425 16.7625 10.176 16.5397 10.6537C16.329 11.1146 16.0167 11.5217 15.6262 11.8448C15.2252 12.1696 14.7627 12.4102 14.2665 12.552C13.7155 12.7111 13.1443 12.7894 12.5707 12.7845H10.6883V14.7405H13.6882V16.0192H10.6883V18.75H9.198V16.0192H7.875V14.7405H9.198V12.7845H7.875V11.4285ZM12.6075 11.4285C13.4647 11.4285 14.139 11.2253 14.6295 10.8188C15.12 10.4115 15.366 9.795 15.366 8.9685C15.366 8.14275 15.12 7.542 14.6295 7.16775C14.139 6.79275 13.4648 6.60525 12.6083 6.60525H10.6883V11.4285H12.6075Z" fill="white"/>
</svg>
