<svg width="24" height="24" viewBox="0 0 24 24" fill="none" xmlns="http://www.w3.org/2000/svg">
<path d="M12 24C18.6274 24 24 18.6274 24 12C24 5.37258 18.6274 0 12 0C5.37258 0 0 5.37258 0 12C0 18.6274 5.37258 24 12 24Z" fill="#384182"/>
<path fill-rule="evenodd" clip-rule="evenodd" d="M7.125 20.25L9.8385 7.65825L11.361 17.1083L7.125 20.25ZM9.891 7.58625L14.0137 17.118L11.4315 17.073L9.891 7.5855V7.58625ZM9.9525 7.51425L15.3525 8.2815L14.1015 17.118L9.9525 7.51425V7.51425ZM14.1975 16.9822L15.4147 8.3625L16.2112 9.3735L14.1975 16.9822V16.9822ZM15.3352 8.19975L10.0657 7.4505L14.8102 5.889L15.3352 8.19975ZM10.0402 7.3695L13.2698 5.13075L14.8102 5.808L10.0402 7.3695ZM9.96075 7.3425L10.5832 6.15075L13.2172 5.09475L9.96075 7.3425V7.3425ZM10.5832 6.0975L10.8802 5.1675L13.0507 5.09475L10.5832 6.09675V6.0975ZM10.863 5.09475L11.5627 4.3455L13.0687 5.02275L10.863 5.09475V5.09475ZM11.607 4.3005L12.657 3.786L14.0145 5.3745L11.607 4.3005V4.3005ZM12.8063 3.849L14.373 4.53525L14.0925 5.3835L12.8063 3.849V3.849ZM14.145 5.4105L14.4338 4.54425L14.784 5.736L14.145 5.4105V5.4105ZM12.6922 3.75H13.839L14.4067 4.3815C14.412 4.3876 14.4151 4.39528 14.4155 4.40333C14.4158 4.41137 14.4135 4.41931 14.4088 4.42588C14.4042 4.43245 14.3975 4.43726 14.3897 4.43955C14.382 4.44183 14.3737 4.44147 14.3662 4.4385L12.6922 3.75ZM14.5042 4.47225L16.8367 5.12325C16.8485 5.12609 16.859 5.13281 16.8665 5.14233C16.874 5.15186 16.8781 5.16363 16.8781 5.17575C16.8781 5.18787 16.874 5.19964 16.8665 5.20917C16.859 5.21869 16.8485 5.22541 16.8367 5.22825L14.8545 5.772L14.5042 4.47225V4.47225Z" fill="white"/>
</svg>
