<svg width="48" height="48" viewBox="0 0 24 24" fill="none" xmlns="http://www.w3.org/2000/svg">
<path d="M12 24C5.37225 24 0 18.6277 0 12C0 5.37225 5.37225 0 12 0C18.6277 0 24 5.37225 24 12C24 18.6277 18.6277 24 12 24ZM20.2418 17.0032V7.4985L11.9887 2.745L11.9775 2.751L3.753 7.50375V17.0062L11.9843 21.7477L11.985 21.7485L20.241 17.004L20.2418 17.0032ZM16.5892 15.4838L15.1815 14.6768L12.0405 16.5C12.0314 16.5053 12.021 16.5082 12.0105 16.5082C12 16.5082 11.9896 16.5053 11.9805 16.5L8.37675 14.4113L8.37525 10.7775L5.2095 8.9625L11.958 5.00625C11.9607 5.00459 11.9638 5.00372 11.967 5.00372C11.9702 5.00372 11.9733 5.00459 11.976 5.00625L18.2438 8.58975L17.1353 9.231L11.979 6.264L7.40625 8.94825L8.9925 9.8595L11.982 8.121L11.9835 8.1195L15.636 10.2083L15.6345 13.6658L18.7477 15.4485L18.747 15.501L11.985 19.449L5.7165 15.87L6.81375 15.2272L11.9745 18.1875L16.5892 15.483V15.4838ZM12.9788 11.3588V11.3333L12.978 11.3167L12.9772 11.3077L12.9758 11.289V11.283L12.9735 11.2628V11.2575L12.9705 11.2365V11.2328L12.9675 11.211V11.208L12.9637 11.1855L12.963 11.184L12.9585 11.1615L12.9578 11.1592L12.9525 11.1367V11.1353C12.9511 11.1277 12.9493 11.1202 12.9473 11.1128V11.1112L12.9405 11.0887V11.088L12.9338 11.064C12.9297 11.0487 12.9247 11.0337 12.9188 11.019L12.9097 10.9958C12.907 10.9882 12.904 10.9806 12.9008 10.9732L12.891 10.9507L12.8812 10.9297L12.8707 10.9073L12.8602 10.8863L12.8483 10.8653C12.8442 10.8586 12.8402 10.8518 12.8362 10.845V10.8442C12.8324 10.8377 12.8284 10.8312 12.8243 10.8247L12.8235 10.824C12.8194 10.8176 12.8152 10.8114 12.8107 10.8052V10.8037L12.798 10.7857C12.798 10.7857 12.798 10.7842 12.7965 10.7842L12.7838 10.7662L12.7822 10.7647C12.7777 10.7587 12.7747 10.7528 12.7695 10.7468L12.7687 10.7452L12.7545 10.728L12.753 10.7265L12.7395 10.71L12.738 10.7085L12.723 10.6927C12.723 10.692 12.723 10.6912 12.7215 10.6905L12.7073 10.6747C12.7066 10.6741 12.7061 10.6733 12.7057 10.6725L12.6915 10.6575C12.6858 10.6517 12.68 10.646 12.6743 10.6403L12.672 10.638L12.657 10.623L12.6555 10.6215L12.6405 10.608L12.6375 10.6057L12.6218 10.5915L12.6195 10.5893C12.6144 10.5848 12.6091 10.5806 12.6038 10.5765L12.6015 10.575L12.585 10.5615L12.5828 10.56L12.5655 10.5472L12.5632 10.5457L12.546 10.533L12.5438 10.5315L12.5265 10.5195L12.5242 10.5187L12.5062 10.5067L12.5048 10.5052C12.4986 10.5013 12.4924 10.4975 12.486 10.494H12.4845L12.465 10.482H12.4635L12.4432 10.47H12.4425C12.2031 10.3689 11.9339 10.3643 11.6912 10.4572C11.4485 10.55 11.2512 10.7332 11.1404 10.9682C11.0297 11.2033 11.0141 11.4721 11.097 11.7183C11.1799 11.9646 11.3549 12.1693 11.5852 12.2895L11.1502 14.2785H12.7958L12.357 12.291C12.7335 12.1335 12.9788 11.766 12.9788 11.3588V11.3588Z" fill="black"/>
</svg>
