<svg width="24" height="24" viewBox="0 0 24 24" fill="none" xmlns="http://www.w3.org/2000/svg">
<path d="M12 24C18.6274 24 24 18.6274 24 12C24 5.37258 18.6274 0 12 0C5.37258 0 0 5.37258 0 12C0 18.6274 5.37258 24 12 24Z" fill="#2B77B3"/>
<path d="M20.25 12.0292C20.2148 16.6102 16.5023 20.2838 11.9423 20.2493C7.3785 20.2155 3.71325 16.4865 3.75 11.9152C3.7875 7.3875 7.5105 3.72 12.0375 3.75C16.5975 3.78075 20.283 7.497 20.25 12.03V12.0292ZM4.347 12.003C4.35525 16.218 7.7655 19.6207 11.9888 19.6305C16.2165 19.638 19.6658 16.212 19.6515 11.9925C19.6358 7.5975 15.9953 4.2825 11.805 4.3545C7.7535 4.4235 4.33875 7.8675 4.347 12.003V12.003ZM14.0108 8.421L13.7055 9.3975C13.137 9.30375 12.6105 9.192 12.0773 9.1395C11.7608 9.10875 11.4323 9.19125 11.31 9.5475C11.184 9.91275 11.169 10.302 11.4713 10.584C11.7818 10.8727 12.1463 11.1015 12.4868 11.358C12.7995 11.5935 13.1438 11.799 13.4168 12.0742C14.157 12.8212 14.2883 13.7272 13.9845 14.7037C13.8045 15.2827 13.3755 15.6487 12.8265 15.8707C11.9865 16.2112 10.5563 16.0432 9.753 15.5032L10.1055 14.4802C10.617 14.6152 11.085 14.7772 11.5665 14.8537C12.0255 14.9265 12.5063 14.856 12.7418 14.3872C12.9788 13.9147 12.9038 13.4175 12.5325 13.038C12.246 12.7455 11.8868 12.5227 11.5515 12.279C11.328 12.117 11.0783 11.9895 10.8608 11.82C10.439 11.4976 10.1388 11.042 10.0087 10.5273C9.87869 10.0126 9.92654 9.46905 10.1445 8.985C10.2406 8.75385 10.3909 8.54926 10.5828 8.38854C10.7748 8.22783 11.0026 8.11574 11.247 8.06175C12.1883 7.83825 13.101 7.9395 14.0108 8.42175V8.421ZM7.95075 11.8635C7.95076 12.1144 7.85175 12.3552 7.67522 12.5336C7.4987 12.7119 7.25893 12.8134 7.008 12.816C6.483 12.8182 6.0345 12.3607 6.0465 11.838C6.05638 11.5872 6.16296 11.35 6.34388 11.1761C6.5248 11.0021 6.76603 10.905 7.017 10.905C7.542 10.9125 7.9545 11.3362 7.9515 11.8635H7.95075ZM17.0205 10.9312C17.544 10.9305 17.934 11.3167 17.9408 11.8432C17.9437 11.9705 17.921 12.097 17.8742 12.2153C17.8273 12.3336 17.7572 12.4413 17.6679 12.532C17.5787 12.6227 17.4722 12.6946 17.3546 12.7433C17.2371 12.7921 17.111 12.8168 16.9838 12.816C16.7326 12.8119 16.4932 12.7089 16.3175 12.5295C16.1417 12.3501 16.0437 12.1087 16.0448 11.8575C16.0448 11.3085 16.4423 10.9312 17.0205 10.9312Z" fill="white"/>
</svg>
