<svg width="48" height="48" viewBox="0 0 24 24" fill="none" xmlns="http://www.w3.org/2000/svg">
<path d="M12 24C5.37225 24 0 18.6277 0 12C0 5.37225 5.37225 0 12 0C18.6277 0 24 5.37225 24 12C24 18.6277 18.6277 24 12 24ZM20.25 12.0292C20.2838 7.497 16.5975 3.78075 12.0375 3.75C7.50975 3.72 3.7875 7.3875 3.75 11.9145C3.71325 16.485 7.3785 20.2148 11.9423 20.25C16.5023 20.2838 20.2148 16.6102 20.25 12.0292ZM4.347 12.003C4.3395 7.8675 7.7535 4.4235 11.805 4.3545C15.9952 4.2825 19.635 7.59825 19.6515 11.9925C19.6665 16.212 16.2165 19.6388 11.9887 19.6298C7.7655 19.6208 4.35525 16.2173 4.347 12.0023V12.003ZM14.0107 8.421C13.101 7.9395 12.1883 7.83825 11.247 8.061C11.0024 8.11514 10.7745 8.22746 10.5826 8.38844C10.3906 8.54943 10.2404 8.75432 10.1445 8.98575C9.92673 9.46972 9.87899 10.0131 10.009 10.5276C10.139 11.0421 10.4392 11.4976 10.8607 11.82C11.0782 11.9895 11.328 12.117 11.5515 12.279C11.8868 12.5227 12.246 12.7455 12.5325 13.038C12.9037 13.4175 12.9787 13.9155 12.7425 14.388C12.5062 14.856 12.0255 14.9265 11.5665 14.8538C11.085 14.7773 10.617 14.6152 10.1047 14.4802L9.753 15.5032C10.5555 16.0432 11.9865 16.2112 12.8265 15.8707C13.3755 15.648 13.8037 15.2827 13.9845 14.7037C14.2882 13.7272 14.157 12.8213 13.4167 12.0743C13.1437 11.799 12.7995 11.5943 12.4868 11.358C12.147 11.1015 11.7818 10.8728 11.4713 10.584C11.169 10.302 11.184 9.91275 11.31 9.5475C11.433 9.19125 11.7608 9.10875 12.0773 9.1395C12.6098 9.192 13.137 9.3045 13.7048 9.3975C13.785 9.1425 13.8945 8.7945 14.0107 8.421V8.421ZM7.95075 11.8635C7.95253 11.7392 7.92978 11.6158 7.88379 11.5003C7.8378 11.3848 7.76948 11.2796 7.68275 11.1905C7.59601 11.1015 7.49256 11.0304 7.37832 10.9814C7.26408 10.9324 7.14129 10.9065 7.017 10.905C6.76603 10.905 6.5248 11.0021 6.34388 11.1761C6.16296 11.35 6.05638 11.5872 6.0465 11.838C6.0345 12.3608 6.48375 12.8182 7.008 12.816C7.25906 12.8136 7.49902 12.7122 7.67571 12.5339C7.8524 12.3555 7.95151 12.1146 7.9515 11.8635H7.95075ZM17.0205 10.9312C16.443 10.9312 16.0455 11.3085 16.0455 11.8575C16.0455 12.3825 16.4625 12.8085 16.9838 12.816C17.5163 12.8235 17.9475 12.3848 17.9407 11.8433C17.9332 11.3168 17.544 10.9305 17.0205 10.9312Z" fill="black"/>
</svg>
