<svg width="48" height="48" viewBox="0 0 24 24" fill="none" xmlns="http://www.w3.org/2000/svg">
<path d="M12 24C5.37225 24 0 18.6277 0 12C0 5.37225 5.37225 0 12 0C18.6277 0 24 5.37225 24 12C24 18.6277 18.6277 24 12 24ZM17.0107 5.526L8.7705 10.2127L4.8435 7.98L4.4385 8.78475L8.7705 11.2785L17.7195 6.1695L17.0107 5.526V5.526ZM15.2092 4.5L8.7705 8.181L5.916 6.552L5.3295 7.2555L8.7705 9.207L16.1603 4.983L15.21 4.5H15.2092ZM18.3472 6.83325L8.7705 12.3045L4.1145 9.6495L3.89175 10.5345L8.7705 13.3102L18.873 7.5375L18.3472 6.83325ZM19.8045 9.42825L19.359 8.30175L8.7705 14.3362L3.75 11.4998V12.0427C3.75 13.1415 3.96975 14.229 4.398 15.2415C4.80403 16.2221 5.40287 17.1112 6.159 17.856C6.91487 18.5895 7.80038 19.1762 8.7705 19.5862C9.7965 20.0287 10.8698 20.25 11.9903 20.25C13.0973 20.25 14.1697 20.0287 15.2092 19.5862C16.1908 19.1864 17.0848 18.5986 17.841 17.856C18.5885 17.1041 19.1862 16.2168 19.602 15.2415L19.8045 14.6985C20.1015 13.8405 20.25 12.9548 20.25 12.0435C20.25 11.1308 20.1015 10.26 19.8045 9.42825V9.42825Z" fill="black"/>
</svg>
