<svg width="24" height="24" viewBox="0 0 24 24" fill="none" xmlns="http://www.w3.org/2000/svg">
<path d="M12 24C18.6274 24 24 18.6274 24 12C24 5.37258 18.6274 0 12 0C5.37258 0 0 5.37258 0 12C0 18.6274 5.37258 24 12 24Z" fill="#0072FF"/>
<path d="M18.0203 9.60225L14.4113 17.625H12.969L16.7678 9.18C17.2056 9.251 17.6288 9.39366 18.0203 9.60225V9.60225ZM11.7053 4.88925L6.153 17.2335C4.737 16.5615 3.75 15.0893 3.75 13.3748C3.75 11.0273 5.5965 9.12525 7.875 9.12525C7.875 6.879 9.5655 5.04525 11.7053 4.88925V4.88925ZM16.1257 9.12525L12.3015 17.625H10.7393L15.5408 6.9525C15.9105 7.5885 16.1257 8.3295 16.1257 9.12525V9.12525ZM17.5463 17.3618L19.9957 11.9198C20.1577 12.3758 20.25 12.8648 20.25 13.377C20.25 15.2055 19.125 16.7633 17.5463 17.3618ZM18.6277 10.0013C18.9697 10.2713 19.2728 10.5923 19.5173 10.9605L16.5278 17.604C16.3942 17.6182 16.26 17.6252 16.1257 17.625H15.1987L18.6277 10.0013V10.0013ZM12.015 4.875C12.6 4.87725 13.1542 5.0055 13.6575 5.23575L8.085 17.625H7.875C7.3575 17.625 6.8625 17.523 6.40725 17.3423L12.015 4.875ZM15.2153 6.4635L10.194 17.625H8.5095L14.0048 5.41125C14.4713 5.67975 14.8823 6.03825 15.2153 6.4635V6.4635Z" fill="white"/>
</svg>
