<svg width="48" height="48" viewBox="0 0 24 24" fill="none" xmlns="http://www.w3.org/2000/svg">
<path fill-rule="evenodd" clip-rule="evenodd" d="M12 24C5.37225 24 0 18.6277 0 12C0 5.37225 5.37225 0 12 0C18.6277 0 24 5.37225 24 12C24 18.6277 18.6277 24 12 24ZM8.94075 16.5L7.806 17.682C8.592 18.6818 9.9 19.5 11.1233 19.5C14.1158 19.5 15.5745 17.511 15.5745 15.2737C15.5745 13.1452 14.4825 11.9625 12.336 11.016C10.5855 10.242 9.81375 9.576 9.81375 8.22C9.81375 7.23075 10.4738 6.048 12.2048 6.048C13.3538 6.048 13.851 6.69675 14.265 6.95475L15.3127 5.8635C14.8762 5.31825 13.56 4.5 12.261 4.5C9.795 4.5 8.157 6.177 8.157 8.43525C8.157 10.4782 9.43725 11.7045 11.508 12.543C13.221 13.296 13.899 14.07 13.899 15.4245C13.899 16.887 12.9202 17.898 11.244 17.898C10.1145 17.898 9.0285 16.773 8.9415 16.5H8.94075ZM10.3372 8.77275C10.3372 8.77275 14.7015 8.136 14.6145 11.8635C14.6145 11.8635 15.138 12.0457 15.6615 13.0455C15.6615 13.0455 16.884 6.591 10.2502 7.68225C10.2502 7.68225 10.0755 8.2275 10.3372 8.77275V8.77275ZM13.305 14.682C13.305 14.682 8.50575 15.6817 8.6475 11.3572C8.6475 11.3572 8.15025 11.109 7.74975 10.0493C7.75125 10.0493 5.71125 16.9545 13.2645 15.981C13.2645 15.981 13.5682 15.3188 13.305 14.682Z" fill="black"/>
</svg>
