<svg width="48" height="48" viewBox="0 0 24 24" fill="none" xmlns="http://www.w3.org/2000/svg">
<path fill-rule="evenodd" clip-rule="evenodd" d="M12 24C5.37225 24 0 18.6277 0 12C0 5.37225 5.37225 0 12 0C18.6277 0 24 5.37225 24 12C24 18.6277 18.6277 24 12 24ZM5.9205 13.7325V15.9127V13.7318H5.25V17.0618H5.9205V15.9127C6.11025 16.2225 6.3375 16.4895 6.606 16.7032C7.05225 17.058 7.5945 17.25 8.226 17.25C9.13875 17.25 9.8715 16.872 10.3733 16.224C10.7813 15.6967 11.0078 15.0143 11.0078 14.4165C11.0078 13.6328 10.695 13.0215 10.1047 12.5347C9.67275 12.1785 9.2145 11.9468 8.28975 11.5635L8.1375 11.5005C7.29975 11.1532 6.921 10.9672 6.58425 10.701C6.17625 10.3785 5.97675 10.011 5.97675 9.516C5.97675 8.8515 6.207 8.31075 6.612 7.9335C6.99563 7.58326 7.4973 7.39069 8.01675 7.39425C8.80125 7.39425 9.35625 7.72875 9.72525 8.3415C10.038 8.8605 10.1978 9.56175 10.1978 10.254H10.8683V7.542H11.6932V17.1022H13.677V15.9338C13.8638 16.2338 14.0858 16.494 14.3483 16.7032C14.7945 17.058 15.3368 17.25 15.9683 17.25C16.881 17.25 17.6137 16.872 18.1155 16.224C18.5235 15.6967 18.75 15.0143 18.75 14.4165C18.75 13.6328 18.4372 13.0215 17.847 12.5347C17.415 12.1785 16.9567 11.9468 16.032 11.5635C15.9813 11.5425 15.9305 11.5215 15.8798 11.5005C15.042 11.1532 14.6632 10.9672 14.3265 10.701C13.9185 10.3785 13.719 10.011 13.719 9.516C13.719 8.8515 13.9492 8.31075 14.3542 7.9335C14.7379 7.58326 15.2395 7.39069 15.759 7.39425C16.5435 7.39425 17.0985 7.72875 17.4675 8.3415C17.7803 8.8605 17.94 9.56175 17.94 10.254H18.6105V6.939H17.9393V7.851C17.4525 7.14975 16.719 6.75 15.759 6.75C15.0615 6.75 14.3865 7.005 13.8878 7.47C13.3493 7.971 13.0477 8.67975 13.0477 9.516C13.0477 10.2135 13.344 10.7595 13.9005 11.199C14.3033 11.517 14.718 11.721 15.6143 12.0922L15.7665 12.1553C16.629 12.513 17.0467 12.7237 17.4097 13.0237C17.856 13.392 18.0795 13.827 18.0795 14.4172C18.0795 14.8777 17.898 15.426 17.577 15.8392C17.1983 16.3282 16.662 16.6058 15.969 16.6058C15.0832 16.6058 14.472 16.1183 14.0723 15.2678C13.9228 14.9428 13.8127 14.6011 13.7445 14.25C13.7204 14.1309 13.7014 14.0108 13.6875 13.89C13.6827 13.8376 13.6792 13.7851 13.677 13.7325H13.0065V16.458H12.363V6.89775H10.197V7.85025C9.7095 7.14975 8.9775 6.75 8.0175 6.75C7.32 6.75 6.645 7.005 6.14625 7.47C5.60775 7.971 5.30625 8.67975 5.30625 9.516C5.30625 10.2135 5.6025 10.7595 6.159 11.199C6.56175 11.517 6.9765 11.721 7.87275 12.0922L8.025 12.1553C8.8875 12.513 9.30525 12.7237 9.66825 13.0237C10.1145 13.392 10.338 13.827 10.338 14.4172C10.338 14.8777 10.1565 15.426 9.8355 15.8392C9.45675 16.3282 8.9205 16.6058 8.2275 16.6058C7.34175 16.6058 6.7305 16.1198 6.3285 15.267C6.1785 14.949 6.069 14.5995 5.99625 14.2477C5.97148 14.1278 5.95147 14.007 5.93625 13.8855C5.9265 13.8105 5.92125 13.7468 5.92125 13.7318L5.9205 13.7325Z" fill="black"/>
</svg>
