<svg width="48" height="48" viewBox="0 0 24 24" fill="none" xmlns="http://www.w3.org/2000/svg">
<path d="M12 24C5.37225 24 0 18.6277 0 12C0 5.37225 5.37225 0 12 0C18.6277 0 24 5.37225 24 12C24 18.6277 18.6277 24 12 24ZM12 20.25C16.551 20.241 20.25 16.5428 20.25 12C20.25 7.45725 16.551 3.7635 12 3.75C7.449 3.7635 3.75 7.45725 3.75 12C3.75 16.5428 7.449 20.2365 12 20.25ZM19.3162 13.3125C19.1909 14.0004 18.97 14.6673 18.66 15.294C18.6877 15.171 18.705 15.048 18.705 14.9167C18.705 14.4667 18.5235 14.058 18.2325 13.7543C18.4348 13.8381 18.6621 13.8388 18.8649 13.7562C19.0678 13.6737 19.2299 13.5145 19.3162 13.3132V13.3125ZM18.5513 13.395H18.5505H18.5513ZM18.7372 8.87475C19.1986 9.85333 19.4353 10.9226 19.4302 12.0045C19.4302 12.3135 19.4077 12.6135 19.3702 12.9135C19.3531 12.7068 19.259 12.514 19.1065 12.3735C18.9539 12.2329 18.7542 12.1547 18.5468 12.1545C18.387 12.1545 18.2415 12.2048 18.1185 12.2775C18.511 11.8144 18.7749 11.2562 18.8835 10.659C18.9921 10.0617 18.9416 9.44637 18.7372 8.87475V8.87475ZM18.3143 10.0327C18.3117 10.7924 18.0082 11.5201 17.4702 12.0566C16.9323 12.593 16.2037 12.8944 15.444 12.8948C14.6841 12.8952 13.955 12.594 13.4169 12.0574C12.8788 11.5209 12.5755 10.7927 12.5737 10.0327C12.5755 9.27282 12.8788 8.54465 13.4169 8.00807C13.955 7.47149 14.6841 7.17035 15.444 7.17075C16.2039 7.17035 16.933 7.47149 17.4711 8.00807C18.0092 8.54465 18.3125 9.27282 18.3143 10.0327V10.0327ZM15.33 14.9175C15.33 14.9355 15.3345 14.9535 15.33 14.9813C15.1139 14.3005 14.6939 13.7026 14.127 13.2682C14.7938 13.5382 15.5272 13.5945 16.227 13.4318C15.9565 13.5742 15.7299 13.7877 15.5719 14.0494C15.4138 14.3111 15.3302 14.611 15.33 14.9167V14.9175ZM15.4943 16.026C15.4938 15.8737 15.4812 15.7218 15.4567 15.5715C15.6127 15.9345 15.8895 16.2315 16.2413 16.4115C16.1994 16.4025 16.1566 16.3983 16.1138 16.3987C15.8085 16.3987 15.5302 16.5713 15.3937 16.8435C15.4596 16.576 15.4934 16.3015 15.4943 16.026V16.026ZM17.0153 15.9758H17.016C16.4325 15.9758 15.954 15.5032 15.954 14.9175C15.954 14.3362 16.428 13.8593 17.0153 13.8593C17.6025 13.8593 18.0817 14.3317 18.0817 14.9167C18.0802 15.1984 17.9671 15.468 17.7672 15.6665C17.5673 15.8649 17.2969 15.9762 17.0153 15.9758V15.9758ZM17.7165 12.987H17.7172C17.7172 13.161 17.7727 13.332 17.8762 13.473C17.6159 13.3178 17.3183 13.2362 17.0153 13.2368C16.938 13.2368 16.8652 13.2458 16.7917 13.2548C17.1705 13.0926 17.5188 12.8668 17.8215 12.5873C17.754 12.7095 17.718 12.8467 17.7165 12.987V12.987ZM11.9992 12.537C11.535 12.537 11.0933 12.6323 10.6875 12.7913C11.3871 12.2543 11.8563 11.4714 12 10.6013C12.1425 11.4714 12.6113 12.2546 13.311 12.7913C12.8942 12.6227 12.4488 12.5361 11.9992 12.5363V12.537ZM11.9992 7.90725H12C12.3178 7.90803 12.6292 7.81828 12.8978 7.6485C12.4274 8.14941 12.1151 8.77784 12 9.45525C11.8879 8.77664 11.5752 8.14711 11.1023 7.64775C11.3706 7.81739 11.6818 7.90714 11.9992 7.9065V7.90725ZM13.7032 6.2085C13.7032 6.1905 13.6995 6.17175 13.7032 6.15375C13.8262 6.46275 14.127 6.681 14.478 6.681C14.4915 6.681 14.505 6.6765 14.523 6.6765C14.0947 6.7928 13.6927 6.99011 13.3387 7.25775C13.5747 6.95887 13.703 6.58926 13.7032 6.2085V6.2085ZM14.997 5.205C16.2495 5.763 17.3257 6.6525 18.108 7.776C17.7096 7.30832 17.1951 6.95378 16.6162 6.748C16.0373 6.54223 15.4145 6.49248 14.8102 6.60375C15.1125 6.47175 15.3075 6.174 15.3068 5.8455C15.3068 5.586 15.1838 5.3595 14.997 5.205V5.205ZM12.5145 4.587C13.2255 4.641 13.9132 4.7865 14.5507 5.022C14.5238 5.01703 14.4964 5.01427 14.469 5.01375C14.0317 5.01375 13.6762 5.35425 13.644 5.78175C13.5724 5.50322 13.4311 5.24746 13.2336 5.03848C13.036 4.82949 12.7886 4.67414 12.5145 4.587V4.587ZM10.9245 6.2085C10.9319 5.92828 11.0484 5.66201 11.2492 5.46643C11.4501 5.27085 11.7193 5.1614 11.9996 5.1614C12.2799 5.1614 12.5492 5.27085 12.75 5.46643C12.9508 5.66201 13.0673 5.92828 13.0748 6.2085C13.0644 6.48659 12.9466 6.74983 12.7462 6.9429C12.5457 7.13597 12.2783 7.24384 12 7.24384C11.7217 7.24384 11.4543 7.13597 11.2538 6.9429C11.0534 6.74983 10.9356 6.48659 10.9253 6.2085H10.9245ZM9.44475 5.02275C10.1002 4.78434 10.7854 4.6377 11.481 4.587C11.2067 4.67386 10.9591 4.829 10.7612 5.03786C10.5634 5.24672 10.4219 5.50244 10.35 5.781C10.3355 5.57222 10.2423 5.37674 10.0891 5.23415C9.93592 5.09155 9.73428 5.0125 9.525 5.013C9.4978 5.01381 9.47071 5.01682 9.444 5.022L9.44475 5.02275ZM10.296 6.2085C10.296 6.59025 10.4258 6.96 10.665 7.2585C10.3105 6.99145 9.90871 6.79397 9.48075 6.6765C9.49425 6.6765 9.50775 6.681 9.52575 6.681C9.87675 6.681 10.1783 6.4635 10.3005 6.15375C10.2967 6.17174 10.2952 6.19013 10.296 6.2085V6.2085ZM9.11175 5.84925C9.11811 5.74356 9.16457 5.64429 9.24166 5.57171C9.31874 5.49912 9.42062 5.4587 9.5265 5.4587C9.63238 5.4587 9.73426 5.49912 9.81134 5.57171C9.88843 5.64429 9.93489 5.74356 9.94125 5.84925C9.94125 5.95925 9.89755 6.06474 9.81977 6.14252C9.74199 6.2203 9.6365 6.264 9.5265 6.264C9.4165 6.264 9.31101 6.2203 9.23323 6.14252C9.15545 6.06474 9.11175 5.95925 9.11175 5.84925ZM5.89125 7.7805C6.67227 6.6537 7.74866 5.76388 9.00225 5.20875C8.89117 5.29747 8.80495 5.41343 8.75198 5.54535C8.69901 5.67727 8.68109 5.82066 8.69996 5.96156C8.71884 6.10246 8.77387 6.23607 8.8597 6.3494C8.94553 6.46272 9.05924 6.5519 9.18975 6.60825C8.58552 6.49549 7.96222 6.54454 7.38306 6.75041C6.8039 6.95629 6.28949 7.31166 5.892 7.7805H5.89125ZM5.68575 10.0335C5.68575 8.457 6.97575 7.176 8.556 7.1715C9.31593 7.1711 10.045 7.47224 10.5831 8.00882C11.1212 8.5454 11.4245 9.27357 11.4262 10.0335C11.4245 10.7934 11.1212 11.5216 10.5831 12.0582C10.045 12.5948 9.31593 12.8959 8.556 12.8955C7.79607 12.8959 7.06703 12.5948 6.5289 12.0582C5.99078 11.5216 5.68754 10.7934 5.68575 10.0335V10.0335ZM8.67 14.9175C8.66938 14.6105 8.58503 14.3095 8.42605 14.0469C8.26706 13.7843 8.03946 13.5701 7.76775 13.4272C8.4679 13.5902 9.20125 13.5331 9.86775 13.2637C9.30207 13.6991 8.88265 14.2967 8.6655 14.9767C8.6655 14.9587 8.67 14.9355 8.67 14.9167V14.9175ZM6.28275 12.9863C6.28275 12.846 6.24525 12.708 6.17325 12.5865C6.47325 12.8692 6.82275 13.0965 7.203 13.2548C7.12923 13.2418 7.0544 13.2358 6.9795 13.2368C6.67648 13.2359 6.37892 13.3173 6.1185 13.4722C6.22575 13.3335 6.2835 13.1625 6.28275 12.9863V12.9863ZM5.91825 14.9175C5.91805 14.7782 5.94538 14.6402 5.99867 14.5115C6.05196 14.3828 6.13016 14.2658 6.22878 14.1674C6.32739 14.069 6.44448 13.9911 6.57331 13.9381C6.70215 13.885 6.84019 13.858 6.9795 13.8585C7.563 13.8585 8.0415 14.331 8.0415 14.9175C8.0415 15.199 7.92969 15.4689 7.73067 15.6679C7.53164 15.8669 7.26171 15.9788 6.98025 15.9788C6.69879 15.9788 6.42886 15.8669 6.22983 15.6679C6.03081 15.4689 5.919 15.199 5.919 14.9175H5.91825ZM7.75425 16.4122C8.10524 16.2308 8.38113 15.9316 8.5335 15.567C8.51338 15.7192 8.50261 15.8725 8.50125 16.026C8.502 16.3013 8.53575 16.5758 8.60175 16.8435C8.53485 16.7098 8.43208 16.5973 8.30494 16.5186C8.17779 16.44 8.03127 16.3982 7.88175 16.398C7.83675 16.398 7.7955 16.4077 7.75425 16.4122V16.4122ZM4.6245 12.9097C4.44892 11.5307 4.66842 10.1302 5.2575 8.871C5.05321 9.44268 5.00291 10.0581 5.11164 10.6553C5.22038 11.2526 5.48433 11.8107 5.877 12.2737C5.74847 12.1943 5.60058 12.1518 5.4495 12.1508C5.016 12.1508 4.66125 12.4867 4.6245 12.909V12.9097ZM5.295 14.9175C5.295 15.0487 5.31225 15.1717 5.34 15.2947C5.02849 14.669 4.80777 14.002 4.6845 13.314C4.77188 13.5144 4.93418 13.6726 5.1367 13.7549C5.33922 13.8371 5.56589 13.8369 5.76825 13.7543C5.46462 14.065 5.29474 14.4823 5.295 14.9167V14.9175ZM7.4265 16.539C7.2045 16.689 7.07175 16.9395 7.071 17.2065C7.071 17.4022 7.1445 17.5747 7.2585 17.7165C6.71283 17.2638 6.23407 16.7361 5.8365 16.149C6.04646 16.3439 6.30268 16.482 6.58091 16.5503C6.85914 16.6185 7.15018 16.6146 7.4265 16.539ZM7.49025 17.2065C7.4901 17.1291 7.51292 17.0533 7.55581 16.9889C7.59871 16.9244 7.65976 16.8741 7.73124 16.8443C7.80272 16.8146 7.88142 16.8067 7.95739 16.8216C8.03336 16.8366 8.10319 16.8737 8.15805 16.9284C8.21291 16.983 8.25033 17.0527 8.26558 17.1286C8.28083 17.2046 8.27323 17.2833 8.24373 17.3549C8.21424 17.4265 8.16418 17.4877 8.09988 17.5309C8.03558 17.574 7.95993 17.5971 7.8825 17.5972C7.7788 17.5974 7.67925 17.5565 7.60571 17.4834C7.53217 17.4103 7.49065 17.311 7.49025 17.2073V17.2065ZM10.9935 19.365C9.73784 19.1906 8.54763 18.698 7.536 17.934C7.65922 17.9939 7.79563 18.0214 7.93242 18.0141C8.06921 18.0068 8.2019 17.9648 8.31803 17.8922C8.43417 17.8195 8.52994 17.7186 8.59636 17.5988C8.66278 17.479 8.69767 17.3442 8.69775 17.2073C8.69775 17.1795 8.68875 17.157 8.68875 17.1345C8.86773 17.6628 9.17021 18.1409 9.57107 18.5288C9.97193 18.9167 10.4596 19.2034 10.9935 19.365V19.365ZM14.8657 16.026C14.8657 17.6025 13.581 18.8835 12 18.888C11.2409 18.8874 10.5129 18.5858 9.97586 18.0493C9.43878 17.5127 9.13639 16.7851 9.135 16.026C9.135 15.2662 9.43685 14.5374 9.97414 14.0001C10.5114 13.4628 11.2402 13.161 12 13.161C12.7598 13.161 13.4886 13.4628 14.0259 14.0001C14.5632 14.5374 14.865 15.2662 14.865 16.026H14.8657ZM16.4692 17.934C15.4567 18.6964 14.2669 19.1888 13.0118 19.365C13.5457 19.2034 14.0333 18.9167 14.4342 18.5288C14.835 18.1409 15.1375 17.6628 15.3165 17.1345C15.3113 17.1584 15.3082 17.1828 15.3075 17.2073C15.306 17.4848 15.4492 17.745 15.6855 17.8928C15.9217 18.0405 16.218 18.0563 16.4692 17.934V17.934ZM16.5105 17.2065C16.5108 17.284 16.4881 17.3598 16.4453 17.4244C16.4024 17.489 16.3414 17.5394 16.2699 17.5693C16.1984 17.5991 16.1196 17.6071 16.0435 17.5922C15.9675 17.5772 15.8976 17.5401 15.8427 17.4854C15.7878 17.4307 15.7504 17.3609 15.7351 17.2849C15.7199 17.2089 15.7276 17.1302 15.7572 17.0585C15.7867 16.9869 15.8369 16.9257 15.9013 16.8826C15.9658 16.8395 16.0415 16.8165 16.119 16.8165C16.335 16.8165 16.5105 16.9912 16.5105 17.2065ZM18.1635 16.149C17.7661 16.7357 17.2876 17.2632 16.7422 17.7158C16.8618 17.5731 16.9281 17.3934 16.9297 17.2073C16.9293 17.0754 16.8966 16.9456 16.8345 16.8293C16.7724 16.7129 16.6828 16.6135 16.5735 16.5397C16.8499 16.6154 17.141 16.6193 17.4192 16.5509C17.6975 16.4825 17.9537 16.3442 18.1635 16.149V16.149Z" fill="black"/>
</svg>
