<svg width="48" height="48" viewBox="0 0 24 24" fill="none" xmlns="http://www.w3.org/2000/svg">
<path d="M12 24C5.37225 24 0 18.6277 0 12C0 5.37225 5.37225 0 12 0C18.6277 0 24 5.37225 24 12C24 18.6277 18.6277 24 12 24ZM12 3C7.02975 3 3 7.02975 3 12C3 16.9702 7.02975 21 12 21C16.9702 21 21 16.9702 21 12C21 9.61305 20.0518 7.32387 18.364 5.63604C16.6761 3.94821 14.3869 3 12 3V3ZM14.0573 19.677C13.0219 19.9529 11.9414 20.0166 10.8808 19.8642C9.82025 19.7118 8.80142 19.3465 7.88562 18.7903C6.96981 18.2341 6.17594 17.4984 5.55174 16.6276C4.92754 15.7567 4.4859 14.7685 4.25337 13.7226C4.02084 12.6766 4.00223 11.5945 4.19865 10.5411C4.39507 9.48782 4.80247 8.48509 5.39635 7.59325C5.99024 6.7014 6.75834 5.93887 7.65447 5.35149C8.55061 4.7641 9.55627 4.36401 10.611 4.17525C12.6273 3.81899 14.7033 4.25464 16.4063 5.39138C18.1093 6.52813 19.3079 8.27826 19.7522 10.277C20.1965 12.2757 19.8524 14.3688 18.7914 16.12C17.7304 17.8712 16.0346 19.1454 14.0573 19.677ZM14.1982 5.4645C14.1982 5.853 14.1982 6.24 14.2117 6.6285C13.6933 6.42702 13.1536 6.28536 12.603 6.20625C12.5805 5.8545 12.681 5.46825 12.5782 5.1345C12.1859 5.10653 11.7922 5.10177 11.3993 5.12025C11.3798 5.48175 11.3865 5.84475 11.3993 6.20775C10.8483 6.29019 10.3083 6.4346 9.78975 6.63825C9.80025 6.24675 9.80475 5.856 9.7995 5.46375C8.43042 5.92474 7.24056 6.80381 6.39767 7.97701C5.55477 9.15022 5.10136 10.5584 5.10136 12.003C5.10136 13.4476 5.55477 14.8558 6.39767 16.029C7.24056 17.2022 8.43042 18.0813 9.7995 18.5422C9.7995 18.1582 9.79575 17.7757 9.78825 17.3932C10.3029 17.5947 10.8401 17.7329 11.388 17.805C11.388 18.1567 11.388 18.5085 11.367 18.8565C11.787 18.9165 12.213 18.9165 12.633 18.8565C12.6139 18.5101 12.6039 18.1632 12.603 17.8162C13.1513 17.7392 13.6895 17.6024 14.208 17.4083C14.1961 17.7882 14.1961 18.1683 14.208 18.5483C15.5765 18.0862 16.7655 17.2064 17.6075 16.0327C18.4494 14.8591 18.9018 13.4508 18.9009 12.0064C18.9 10.562 18.4458 9.15431 17.6024 7.98172C16.759 6.80913 15.5689 5.93079 14.1998 5.4705L14.1982 5.46525V5.4645ZM15.2242 15.9165C14.319 16.7378 13.032 16.932 11.8492 16.9147C10.8135 16.9147 9.71475 16.6335 8.9655 15.8828C8.568 15.4988 8.343 14.9858 8.14125 14.4765C8.86575 14.289 9.6135 14.226 10.3433 14.07C10.3886 14.2906 10.4914 14.4954 10.6413 14.6636C10.7912 14.8317 10.9828 14.9574 11.1967 15.0278C11.859 15.2348 12.6795 15.264 13.2315 14.7915C13.623 14.4668 13.6342 13.7565 13.149 13.5128C12.0112 12.9255 10.5938 13.125 9.51825 12.381C8.037 11.4472 7.9275 8.97075 9.37725 7.96275C10.4858 7.185 11.9677 7.08825 13.2532 7.40025C14.4157 7.69425 15.2445 8.67975 15.6435 9.771C14.928 9.89475 14.2132 10.0215 13.4977 10.1422C13.3095 9.006 11.7188 8.736 10.9283 9.39825C10.4783 9.7725 10.5938 10.5698 11.1562 10.7693C12.3862 11.2793 13.8637 11.1322 14.9535 11.9857C16.2187 12.8438 16.3507 14.8928 15.2242 15.9158V15.9165Z" fill="black"/>
</svg>
