<svg width="48" height="48" viewBox="0 0 24 24" fill="none" xmlns="http://www.w3.org/2000/svg">
<path fill-rule="evenodd" clip-rule="evenodd" d="M12 24C5.37225 24 0 18.6277 0 12C0 5.37225 5.37225 0 12 0C18.6277 0 24 5.37225 24 12C24 18.6277 18.6277 24 12 24ZM6.34425 16.6058L6.933 18.5032L7.992 18.1845L7.959 18.0773L9.08325 19.719L10.0013 19.1085L9.92325 18.996L11.496 20.25L12.1935 19.4025L12.0728 19.3065L13.9777 20.0265L14.3745 19.008L14.2733 18.9705L16.2637 19.107L16.341 18.0195L16.1873 18.0082L18.1763 17.556L17.9265 16.4932L17.7465 16.5345L19.545 15.5107L18.9915 14.5657L18.819 14.6647L20.25 13.1528L19.44 12.4088L19.305 12.5513L20.2275 10.6898L19.2315 10.2112L19.1512 10.3748L19.4783 8.34075L18.384 8.16975L18.3615 8.31225L18.039 6.30825L16.9455 6.47925L16.953 6.528L16.095 4.7925L15.0997 5.271L15.1282 5.328L13.7888 3.9135L12.9788 4.6575L13.0463 4.728L11.3257 3.75L10.7722 4.695L10.896 4.7655L8.92425 4.317L8.67525 5.37975L8.862 5.42175L6.798 5.56425L6.8745 6.65175L7.1055 6.63675L5.13375 7.38225L5.53125 8.40075L5.74125 8.3205L4.09125 9.6375L4.788 10.485L4.89675 10.398L3.75 12.0735L4.668 12.6832L4.7415 12.5753L4.14375 14.5027L5.202 14.8223L5.2365 14.7112V16.7115H6.345L6.34425 16.6058ZM6.34425 15.3098V13.4872H5.61675L6.159 11.739L5.45925 11.5275L6.498 10.0103L5.88975 9.606L7.33125 8.45625L6.86925 7.89375L8.586 7.245L8.316 6.55275L10.14 6.4275L10.0875 5.70075L11.865 6.105L12.0278 5.409L13.6065 6.30675L13.9635 5.69775L15.2108 7.0155L15.7283 6.54075L16.5338 8.16825L17.1683 7.86375L17.4578 9.66375L18.162 9.5535L17.8725 11.3542L18.609 11.4698L17.7968 13.1093L18.4703 13.4332L17.208 14.7667L17.7555 15.2692L16.158 16.1782L16.5285 16.8113L14.7382 17.2185L14.9025 17.9197L13.0755 17.7938L13.026 18.4988L11.319 17.853L11.0655 18.5032L9.6495 17.373L9.19275 17.928L8.17125 16.4355L7.57275 16.833L7.03575 15.1013L6.34425 15.3098ZM11.7817 13.266C11.7862 13.3816 11.7619 13.4964 11.711 13.6002C11.6601 13.704 11.5841 13.7936 11.49 13.8608C11.295 14.0003 11.025 14.07 10.6785 14.07C9.74625 14.07 9.27975 13.6785 9.27975 12.8962H7.81725C7.81725 13.3537 7.93425 13.7565 8.1675 14.1038C8.40375 14.451 8.745 14.7262 9.192 14.9272C9.66106 15.1298 10.1676 15.231 10.6785 15.2242C11.4622 15.2242 12.0855 15.0503 12.549 14.703C13.0118 14.352 13.2435 13.8705 13.2435 13.2562C13.2435 12.705 13.0545 12.2438 12.675 11.8733C12.2962 11.5035 11.6925 11.193 10.863 10.9432C10.413 10.8067 10.0718 10.6605 9.8385 10.5052C9.60825 10.3492 9.4935 10.1558 9.4935 9.9255C9.4935 9.67875 9.5925 9.48075 9.78975 9.3315C9.987 9.1785 10.2645 9.10275 10.6208 9.10275C10.9898 9.10275 11.2763 9.19275 11.4803 9.375C11.6843 9.5535 11.7863 9.8055 11.7863 10.1302H13.2435C13.2498 9.72582 13.1349 9.32876 12.9135 8.99025C12.6885 8.64915 12.3697 8.38037 11.9955 8.21625C11.6003 8.031 11.1502 7.93875 10.6447 7.93875C10.1422 7.93875 9.68925 8.02275 9.28425 8.1915C8.883 8.36025 8.574 8.5965 8.3565 8.898C8.14306 9.19596 8.03081 9.55452 8.03625 9.921C8.03625 10.6575 8.4375 11.244 9.24075 11.679C9.5355 11.838 9.93525 12 10.4407 12.1658C10.9462 12.3278 11.2957 12.4837 11.49 12.633C11.685 12.7792 11.7817 12.99 11.7817 13.266V13.266ZM16.2292 8.9175L14.5425 8.6775L13.6672 13.9755L14.8245 14.0565L16.2292 8.9175ZM15.0037 14.592L13.4528 14.217L13.0995 15.9585L14.6385 16.4078L15.0037 14.592Z" fill="black"/>
</svg>
