<svg width="48" height="48" viewBox="0 0 24 24" fill="none" xmlns="http://www.w3.org/2000/svg">
<path fill-rule="evenodd" clip-rule="evenodd" d="M12 24C5.37225 24 0 18.6277 0 12C0 5.37225 5.37225 0 12 0C18.6277 0 24 5.37225 24 12C24 18.6277 18.6277 24 12 24ZM11.7863 10.0747C11.6033 10.776 11.19 11.0572 11.052 11.1502C11.052 11.3842 11.3737 12.741 12.0157 12.741C12.4747 12.741 12.888 12.3203 13.0253 11.151C12.7958 10.9635 12.567 10.5427 12.429 10.0747C12.2453 10.1212 12.0165 10.1685 11.7863 10.0747V10.0747ZM11.0977 14.1915C11.19 14.5658 11.4653 15.501 12.0615 15.501C12.4748 15.501 12.9338 14.9865 13.0253 14.238C12.7043 14.0505 12.567 13.6305 12.429 12.975C12.2453 13.0215 11.97 13.0687 11.7863 12.975C11.5568 13.5825 11.3737 13.9575 11.0977 14.1915V14.1915ZM7.4265 15.6412C7.656 16.0162 8.115 16.6238 8.61975 16.3898C8.75775 16.3433 8.8035 15.969 8.75775 15.6412C8.39025 15.4072 8.16075 14.9865 7.8855 14.3317C7.794 14.3782 7.656 14.3782 7.518 14.3317C7.61025 15.033 7.61025 15.4072 7.4265 15.6412V15.6412ZM5.499 14.3782C5.68275 15.4072 5.7285 15.501 5.68275 15.6412C6.00375 16.2495 6.3255 16.53 6.738 16.4835C6.876 16.4835 6.7845 16.1092 6.60075 15.735C6.60075 15.735 6.05025 15.267 5.7285 14.4255C5.637 14.3782 5.59125 14.3782 5.499 14.3782V14.3782ZM4.26 14.3782C4.26 14.238 4.58175 15.1268 4.995 15.5483C5.178 15.6885 5.36175 15.8288 5.5455 16.1558C5.5905 16.2495 4.719 16.3432 4.26 14.3782V14.3782ZM9.85875 15.6412C10.0883 16.4835 10.731 16.4835 10.9605 16.3898C11.2815 16.3433 11.4195 16.0628 11.4652 15.5483C11.0527 15.267 10.9148 14.6587 10.8225 14.238C10.6853 14.2845 10.455 14.2845 10.272 14.238C10.2263 14.8927 10.1805 15.408 9.8595 15.6412H9.85875ZM5.91225 14.1915C6.096 14.6588 6.64725 15.5483 7.05975 15.5483C7.2435 15.5483 7.335 15.2205 7.2435 14.238C6.9675 14.0505 6.738 13.677 6.60075 13.068C6.50925 13.1152 6.3255 13.1152 6.18825 13.068C6.14175 13.5832 6.096 13.9575 5.91225 14.1915V14.1915ZM4.4895 14.1915C4.6275 14.5658 4.9485 15.3615 5.36175 15.501C5.5455 15.5947 5.5455 15.3135 5.316 14.238C5.316 14.238 4.99425 13.9575 4.76475 13.068H4.5825C4.54176 13.4416 4.511 13.8162 4.49025 14.1915H4.4895ZM8.16075 14.1915C8.20725 14.379 8.6655 15.3143 9.21675 15.4545C9.85875 15.5948 9.90525 14.7525 9.90525 14.238C9.5835 14.0505 9.354 13.677 9.21675 13.068C9.07875 13.1152 8.84925 13.1617 8.61975 13.068C8.52825 13.677 8.39025 14.004 8.16075 14.1915V14.1915ZM7.74825 14.0513C8.0235 14.0513 8.253 13.6298 8.3445 12.8348C8.115 12.6008 7.83975 12.18 7.794 11.1975C7.656 11.244 7.51875 11.244 7.4265 11.1975C7.28925 12.0863 7.15125 12.6007 6.876 12.8812C6.876 13.1617 7.197 14.0513 7.74825 14.0513ZM4.90275 12.8812C5.13225 13.8172 5.36175 14.0513 5.5455 14.0513C5.958 14.0513 5.8665 13.3493 5.913 12.8348C5.77425 12.6473 5.499 12.18 5.499 11.1975H5.2695C4.99425 12.6473 4.99425 12.6945 4.902 12.8812H4.90275ZM3.98475 11.244C3.89325 11.1975 3.43425 13.1618 4.12275 14.004C4.21425 14.0978 4.21425 12.9285 4.21425 12.9285C4.0305 12.507 4.12275 11.2912 3.98475 11.244V11.244ZM9.492 12.8812C9.53775 13.0215 9.813 14.0513 10.5472 14.0513C11.0062 14.0513 11.3737 13.536 11.4652 12.7875C11.0977 12.414 10.9148 11.8988 10.8225 11.1975C10.6853 11.244 10.455 11.244 10.272 11.1975C9.99675 12.1328 9.813 12.6472 9.492 12.8812ZM5.7285 11.0573C5.77425 11.8988 5.958 12.741 6.3255 12.741C6.738 12.741 6.92175 11.8058 7.05975 11.01C6.92175 10.917 6.738 10.6357 6.738 10.0275C6.68755 10.0726 6.62227 10.0975 6.55463 10.0975C6.48698 10.0975 6.4217 10.0726 6.37125 10.0275C6.3255 10.1212 6.096 10.917 5.7285 11.0573V11.0573ZM4.581 12.7875C4.81125 12.7875 5.04 11.0573 5.04 11.0573C4.9485 10.917 4.857 10.6357 4.90275 10.0275C4.857 10.0747 4.76475 10.0275 4.719 10.0275C4.611 10.3891 4.45672 10.7352 4.26 11.0573C4.1685 11.5718 4.26 12.7875 4.58175 12.7875H4.581ZM8.06925 11.0573C8.115 11.6183 8.39025 12.741 8.9415 12.741C9.53775 12.741 9.813 11.8988 9.951 11.0573C9.62925 10.8698 9.492 10.5427 9.39975 10.0275C9.17025 10.0747 8.98725 10.0747 8.8035 9.981C8.61975 10.449 8.253 10.9635 8.06925 11.0573V11.0573ZM8.48175 9.79425C8.3445 9.60675 8.16075 9.279 8.253 8.57775H7.93125C7.70175 9.04575 7.4265 9.60675 7.05975 9.88725C7.05975 9.981 7.1055 10.9635 7.5645 10.9635C7.932 10.9635 8.20725 10.5427 8.4825 9.7935L8.48175 9.79425ZM6.23325 8.62425H6.05025C6.05025 8.6715 5.45325 9.747 5.178 9.9345C5.0865 10.4018 5.0865 10.9635 5.36175 11.01C5.637 11.01 5.82075 10.776 6.1875 9.84C6.096 9.6075 6.00375 9.279 6.23325 8.625V8.62425ZM4.90275 8.6715C4.21425 9.13875 3.8475 10.8233 4.0305 10.8698C4.07625 10.917 4.6275 10.1213 4.58175 9.65325C4.53525 9.32625 5.04 8.62425 4.90275 8.67075V8.6715ZM11.4195 9.79425C11.2357 9.60675 11.007 9.279 10.9148 8.57775C10.7497 8.62428 10.575 8.62428 10.41 8.57775C10.272 8.9985 10.0425 9.56025 9.5835 9.88725C9.67575 10.3552 9.90525 10.917 10.3185 10.9635C11.0985 10.9635 11.2815 10.3087 11.4195 9.7935V9.79425ZM5.178 8.5305C4.719 9.2325 4.719 9.84075 4.90275 9.84075C5.13225 9.84075 5.77425 8.67075 5.91225 8.4375C5.8665 8.2035 6.37125 7.7355 6.1875 7.689C5.8665 7.689 5.2695 8.484 5.178 8.5305ZM16.4678 14.3317C16.3298 14.3782 16.1917 14.3782 16.1002 14.3317C15.9165 14.9392 15.6413 15.4072 15.228 15.6412C15.183 15.969 15.183 16.3433 15.366 16.3898C15.8708 16.5773 16.3755 16.0155 16.5593 15.6412C16.4213 15.4072 16.4213 15.0337 16.4678 14.3317V14.3317ZM18.303 14.3317C17.982 15.174 17.4315 15.6412 17.4315 15.6412C17.202 16.0627 17.1098 16.3898 17.2935 16.3898C17.706 16.3898 18.0278 16.1558 18.3488 15.5483C18.3038 15.4073 18.3487 15.3142 18.5325 14.2845C18.441 14.3782 18.3487 14.3782 18.303 14.3317ZM19.038 15.5483C19.4505 15.1268 19.7257 14.238 19.818 14.3782C19.359 16.3432 18.4867 16.2495 18.5325 16.1558C18.6705 15.8288 18.8535 15.735 19.0372 15.5483H19.038ZM13.7595 14.3317C13.5765 14.3782 13.392 14.3782 13.209 14.3317C13.1175 14.7525 12.9338 15.3142 12.567 15.6412C12.6585 16.1092 12.75 16.3898 13.0718 16.4835C13.3013 16.53 13.9432 16.53 14.1727 15.735C13.8975 15.4072 13.7603 14.8927 13.7603 14.3317H13.7595ZM17.8898 13.0215C17.8268 13.0568 17.7557 13.0754 17.6835 13.0754C17.6113 13.0754 17.5402 13.0568 17.4772 13.0215C17.3392 13.536 17.1097 14.004 16.8345 14.1915C16.743 15.174 16.8345 15.501 17.0182 15.501C17.3857 15.501 17.982 14.6122 18.1658 14.1442C17.9363 13.9567 17.8898 13.5832 17.8898 13.0215V13.0215ZM19.542 13.1152H19.359C19.1295 13.9575 18.8077 14.2853 18.8077 14.2853C18.5782 15.3143 18.5325 15.5948 18.7628 15.5483C19.1295 15.4073 19.4505 14.6122 19.6343 14.238C19.542 14.0977 19.542 13.4895 19.542 13.1152ZM15.4575 13.0215C15.228 13.1152 14.9993 13.0687 14.8613 13.0215C14.7233 13.5832 14.4937 14.004 14.1727 14.1915C14.1727 14.6588 14.2185 15.5482 14.8613 15.4072C15.366 15.3142 15.8708 14.3782 15.9165 14.1442C15.6413 14.004 15.549 13.677 15.4575 13.0215V13.0215ZM17.202 12.8812C16.9725 12.6007 16.8345 12.0398 16.6508 11.1975C16.5327 11.2444 16.4013 11.2444 16.2833 11.1975C16.2383 12.18 15.963 12.6473 15.7335 12.8348C15.825 13.5833 16.0545 14.0513 16.3298 14.0513C16.7888 14.0513 17.1555 13.1617 17.202 12.8812V12.8812ZM18.8077 11.1975C18.7162 11.1975 18.6705 11.244 18.5782 11.1975C18.5782 12.18 18.3488 12.6473 18.1658 12.8348C18.2108 13.3028 18.1193 14.0513 18.5333 14.0513C18.7163 14.0513 18.9457 13.77 19.1752 12.8812C19.083 12.6937 19.0372 12.6473 18.8077 11.1975ZM19.7715 12.8812C19.7715 12.8812 19.7715 14.0513 19.8638 13.9575C20.5515 13.209 20.139 11.1503 20.001 11.1975C19.9095 11.2913 20.001 12.507 19.7715 12.8812ZM13.8975 11.1975C13.668 11.244 13.4385 11.244 13.347 11.1975C13.2547 11.8988 13.0252 12.414 12.7042 12.7875C12.8422 13.4895 13.1168 14.0978 13.6223 14.0513C14.265 14.0513 14.6317 13.0215 14.6775 12.8812C14.265 12.6472 14.0355 12.1328 13.8975 11.1975ZM17.7067 10.0275C17.6472 10.0689 17.5782 10.095 17.5061 10.1032C17.434 10.1115 17.3609 10.1017 17.2935 10.0747C17.2935 10.6357 17.1097 10.9635 16.9725 11.1038C17.1097 11.946 17.2935 12.8348 17.7067 12.8348C18.0742 12.8348 18.303 11.946 18.303 11.1502C17.982 10.917 17.7067 10.1212 17.7067 10.0275ZM19.7715 11.0573C19.7715 11.0573 19.542 10.6357 19.359 10.0275C19.3338 10.0502 19.3011 10.0628 19.2671 10.0628C19.2332 10.0628 19.2005 10.0502 19.1752 10.0275C19.221 10.5427 19.1295 10.8698 19.0372 11.01C19.0372 11.01 19.2668 12.741 19.4963 12.741C19.7258 12.7875 19.8172 11.571 19.7715 11.0573V11.0573ZM15.2745 10.0275C15.0907 10.1212 14.8612 10.1212 14.6775 10.0747C14.6317 10.5427 14.448 10.917 14.1727 11.1038C14.3107 11.9925 14.4938 12.8347 15.1823 12.7875C15.687 12.7875 16.0088 11.6655 16.0545 11.1038C15.7793 10.9635 15.4575 10.449 15.2745 10.0275ZM16.422 10.917C16.8802 10.917 16.926 9.981 16.926 9.84075C16.605 9.60675 16.3298 9.09225 16.0545 8.57775C15.963 8.62425 15.8708 8.62425 15.7335 8.57775C15.825 9.2325 15.687 9.60675 15.504 9.79425C15.825 10.5428 16.1003 10.9635 16.4213 10.917H16.422ZM17.8898 9.79425C18.2115 10.7295 18.3953 10.9635 18.6248 10.9635C18.9 10.917 18.9 10.4017 18.8077 9.88725C18.5782 9.747 17.9363 8.62425 17.9363 8.57775H17.7525C18.0278 9.279 17.9363 9.60675 17.8898 9.79425V9.79425ZM19.4498 9.65325C19.4048 10.0748 19.9095 10.917 19.9553 10.8698C20.0933 10.8233 19.8173 9.13875 19.083 8.6715C19.038 8.62425 19.4963 9.32625 19.4505 9.654L19.4498 9.65325ZM13.6223 10.917C14.0813 10.8697 14.3108 10.4018 14.3565 9.84075C13.989 9.56025 13.7595 8.9985 13.6215 8.57775C13.4567 8.62426 13.2823 8.62426 13.1175 8.57775C13.0717 9.2325 12.8422 9.65325 12.6127 9.79425C12.75 10.3088 12.9338 10.9635 13.6223 10.917ZM17.8898 7.689C17.7068 7.689 18.2115 8.2035 18.1658 8.4375C18.303 8.6715 18.9 9.84 19.1752 9.84C19.359 9.84 19.359 9.279 18.8535 8.5305C18.8085 8.484 18.1193 7.689 17.8898 7.689V7.689ZM7.70175 7.82925C7.70175 7.82925 7.794 7.59525 7.65675 7.54875C7.4265 7.54875 6.7845 8.4375 6.50925 8.57775C6.46275 8.6715 6.096 9.74775 6.55425 9.84075C6.9675 9.88725 7.4265 9.09225 7.70175 8.5305C7.5645 8.39025 7.61025 8.1105 7.70175 7.82925V7.82925ZM9.85875 7.78275C9.85875 7.7355 9.85875 7.5015 9.62925 7.5015C9.354 7.5015 8.98725 8.39025 8.574 8.5305C8.4825 9.04575 8.574 9.747 8.9865 9.79425C9.5835 9.84075 9.951 9.09225 10.134 8.5305C9.90525 8.39025 9.85875 8.06325 9.85875 7.78275V7.78275ZM16.3762 8.5305C16.6507 9.04575 17.064 9.888 17.523 9.84075C17.982 9.747 17.6145 8.67075 17.5687 8.57775C17.2935 8.4375 16.6508 7.54875 16.4213 7.54875C16.284 7.54875 16.3762 7.78275 16.3762 7.82925C16.4677 8.10975 16.4677 8.39025 16.3762 8.5305V8.5305ZM13.9432 8.5305C14.127 9.04575 14.448 9.888 15.0908 9.79425C15.5498 9.747 15.6412 9.13875 15.5032 8.5305C15.1365 8.39025 14.6782 7.455 14.448 7.5015C14.2185 7.5015 14.2185 7.7355 14.2185 7.78275C14.1735 8.06325 14.127 8.39025 13.9432 8.5305ZM12.0157 7.5015C11.511 7.5015 11.6948 8.34375 11.1443 8.57775C11.1893 8.9985 11.3273 9.84075 11.97 9.84075C12.705 9.84075 12.8422 8.81175 12.8422 8.57775C12.4747 8.39025 12.4747 7.5015 12.0157 7.5015Z" fill="black"/>
</svg>
