<svg width="48" height="48" viewBox="0 0 24 24" fill="none" xmlns="http://www.w3.org/2000/svg">
<path d="M12 24C5.37225 24 0 18.6277 0 12C0 5.37225 5.37225 0 12 0C18.6277 0 24 5.37225 24 12C24 18.6277 18.6277 24 12 24ZM12.4245 3.75C12.5602 4.854 12.6195 5.9745 12.7133 7.0785C12.7673 7.41225 12.7957 7.7505 12.798 8.08875L15.6683 10.95C14.4113 12.75 13.1205 14.5417 11.8643 16.35C11.9918 17.7937 12.102 19.2375 12.2468 20.6805L20.9243 8.38575H17.0693C15.5243 6.84075 13.9867 5.28675 12.4327 3.75H12.4245V3.75ZM3.00825 16.095H3V16.1295C4.29 16.104 5.5815 16.1295 6.8715 16.1122L11.4818 20.7315H11.499C11.355 19.2795 11.244 17.8185 11.1165 16.3755C10.1572 15.4327 9.21525 14.4735 8.2725 13.5315C9.53775 11.7315 10.8112 9.948 12.0765 8.139L11.7112 3.79275C8.80725 7.89375 5.92125 12.003 3.00825 16.095V16.095Z" fill="black"/>
</svg>
