<svg width="48" height="48" viewBox="0 0 24 24" fill="none" xmlns="http://www.w3.org/2000/svg">
<path fill-rule="evenodd" clip-rule="evenodd" d="M12 24C5.37225 24 0 18.6277 0 12C0 5.37225 5.37225 0 12 0C18.6277 0 24 5.37225 24 12C24 18.6277 18.6277 24 12 24ZM11.9843 4.5675C11.7998 4.47375 9.45825 6.43875 9.45825 7.887C9.456 9.86475 12.1897 14.3445 12.6495 16.077C13.0455 17.5628 11.9783 19.347 12.27 19.4265C12.54 19.6005 15.0885 16.9777 15.189 15.8572C15.318 14.076 12.21 8.88 11.9633 7.536C11.676 5.97375 12.1898 4.602 11.9843 4.5675ZM7.40175 6.17175C7.25775 6.09825 5.42175 7.64025 5.42175 8.775C5.4195 10.326 7.563 13.839 7.9245 15.198C8.235 16.3635 7.39725 17.7622 7.6275 17.826C7.8375 17.9632 9.83775 15.9045 9.91575 15.027C10.0162 13.629 7.58025 9.55425 7.386 8.502C7.161 7.2735 7.5645 6.1995 7.4025 6.17175H7.40175ZM16.713 6.17175C16.5698 6.09825 14.733 7.64025 14.733 8.775C14.73 10.326 16.8742 13.839 17.235 15.198C17.5455 16.3635 16.7085 17.7622 16.938 17.826C17.1495 17.9632 19.1505 15.9045 19.227 15.027C19.3267 13.629 16.8915 9.55425 16.6965 8.502C16.4715 7.2735 16.875 6.1995 16.713 6.17175V6.17175Z" fill="black"/>
</svg>
