<svg width="24" height="24" viewBox="0 0 24 24" fill="none" xmlns="http://www.w3.org/2000/svg">
<path d="M12 24C18.6274 24 24 18.6274 24 12C24 5.37258 18.6274 0 12 0C5.37258 0 0 5.37258 0 12C0 18.6274 5.37258 24 12 24Z" fill="#1387C9"/>
<path d="M12.0397 13.7798L19.2352 9.59177L12.0397 5.32877L4.91625 9.59177L12.0397 13.7798V13.7798ZM4.53525 11.5898C4.5351 11.6894 4.56105 11.7873 4.61053 11.8738C4.66001 11.9602 4.73128 12.0322 4.81725 12.0825L12.0375 16.2885L19.3762 11.9475C19.4605 11.8988 19.5561 11.8731 19.6535 11.873C19.7508 11.873 19.8465 11.8986 19.9308 11.9473C20.0151 11.9959 20.0851 12.0659 20.1338 12.1502C20.1824 12.2345 20.208 12.3302 20.208 12.4275V14.397C20.208 14.4933 20.183 14.5878 20.1356 14.6716C20.0881 14.7553 20.0198 14.8253 19.9372 14.8748L12.3195 19.422C12.235 19.4725 12.1385 19.4994 12.0401 19.4998C11.9416 19.5002 11.8449 19.4741 11.76 19.4243L3.945 14.8298C3.85494 14.7765 3.78954 14.6898 3.76301 14.5885C3.73647 14.4873 3.75093 14.3797 3.80325 14.289C3.82895 14.2442 3.86328 14.2049 3.90427 14.1734C3.94525 14.142 3.99207 14.119 4.04201 14.1057C4.09195 14.0925 4.14402 14.0892 4.19521 14.0962C4.24641 14.1032 4.2957 14.1203 4.34025 14.1465L12.0375 18.6713L19.4227 14.2628V12.8378L12.318 17.04C12.2339 17.09 12.1379 17.1165 12.0401 17.1169C11.9422 17.1173 11.846 17.0915 11.7615 17.0423L4.42425 12.7673C4.2187 12.6471 4.04826 12.4751 3.92995 12.2685C3.81164 12.0619 3.74959 11.8279 3.75 11.5898V9.73502C3.74975 9.6518 3.77147 9.56998 3.81294 9.49782C3.85441 9.42567 3.91418 9.36572 3.98621 9.32404C4.05825 9.28235 4.14 9.2604 4.22323 9.2604C4.30645 9.2604 4.38821 9.28234 4.46025 9.32402L4.91625 9.59177L4.34325 9.93452C4.28845 9.96764 4.22635 9.98678 4.16241 9.99027C4.09848 9.99376 4.03466 9.98148 3.97659 9.95451C3.91851 9.92755 3.86795 9.88673 3.82936 9.83564C3.79076 9.78455 3.76531 9.72476 3.75525 9.66152C3.74195 9.58276 3.75273 9.50183 3.78619 9.4293C3.81964 9.35677 3.87421 9.29603 3.94275 9.25502L11.757 4.57802C11.8419 4.52706 11.939 4.50002 12.038 4.49976C12.1371 4.49949 12.2343 4.52602 12.3195 4.57652L19.9777 9.11402C20.061 9.16369 20.13 9.23422 20.1777 9.31864C20.2254 9.40307 20.2503 9.49848 20.25 9.59547C20.2496 9.69245 20.2239 9.78767 20.1755 9.87172C20.1271 9.95577 20.0577 10.0258 19.974 10.0748L12.315 14.5328C12.2308 14.582 12.1349 14.6078 12.0374 14.6077C11.9398 14.6076 11.8441 14.5814 11.76 14.532L4.065 10.0073C4.10569 10.0312 4.15129 10.0456 4.19835 10.0493C4.24541 10.053 4.29269 10.0459 4.33663 10.0286C4.38056 10.0114 4.41999 9.98433 4.45193 9.94958C4.48387 9.91482 4.50749 9.87325 4.521 9.82802C4.5306 9.79794 4.53565 9.76659 4.536 9.73502V11.5905L4.53525 11.5898Z" fill="white"/>
</svg>
