<svg width="24" height="24" viewBox="0 0 24 24" fill="none" xmlns="http://www.w3.org/2000/svg">
<path d="M12 24C18.6274 24 24 18.6274 24 12C24 5.37258 18.6274 0 12 0C5.37258 0 0 5.37258 0 12C0 18.6274 5.37258 24 12 24Z" fill="#E53431"/>
<path d="M9.08775 3.98548C9.11993 3.96063 9.15959 3.94742 9.20025 3.94798C9.24082 3.94798 9.28029 3.96114 9.31275 3.98548L10.2555 4.69198C10.2752 4.70681 10.2918 4.72536 10.3043 4.7466C10.3168 4.76783 10.3251 4.79132 10.3285 4.81573C10.3319 4.84014 10.3306 4.86499 10.3244 4.88886C10.3182 4.91273 10.3074 4.93516 10.2926 4.95486C10.2778 4.97456 10.2592 4.99114 10.238 5.00367C10.2168 5.01619 10.1933 5.02442 10.1689 5.02786C10.1445 5.03131 10.1196 5.02992 10.0957 5.02376C10.0719 5.0176 10.0494 5.00681 10.0297 4.99198L9.20025 4.37173L6.5025 6.39448L18.3525 15.285C18.3759 15.3026 18.395 15.3254 18.4081 15.3516C18.4212 15.3779 18.428 15.4068 18.428 15.4361C18.428 15.4654 18.4212 15.4943 18.4081 15.5206C18.395 15.5468 18.3759 15.5696 18.3525 15.5872L17.4817 16.2397C17.4418 16.2696 17.3916 16.2823 17.3422 16.2751C17.2928 16.268 17.2483 16.2415 17.2185 16.2015C17.1887 16.1615 17.1759 16.1113 17.1831 16.0619C17.1903 16.0126 17.2168 15.9681 17.2567 15.9382L17.9265 15.4357L6.07575 6.54673C6.05218 6.52946 6.03302 6.50687 6.01982 6.48081C6.00661 6.45475 5.99973 6.42595 5.99973 6.39673C5.99973 6.36752 6.00661 6.33871 6.01982 6.31265C6.03302 6.28659 6.05218 6.26401 6.07575 6.24673L9.08775 3.98623V3.98548ZM12.1005 3.98548C12.1326 3.96057 12.1721 3.94693 12.2127 3.94666C12.2534 3.94639 12.293 3.9595 12.3255 3.98398L18.3517 8.50423C18.3834 8.52765 18.4068 8.5606 18.4184 8.59826C18.43 8.63591 18.4292 8.67629 18.4162 8.71348C18.404 8.75101 18.3803 8.7837 18.3483 8.80687C18.3164 8.83005 18.278 8.84252 18.2385 8.84248H15.2257C15.1852 8.84222 15.1458 8.82909 15.1132 8.80498L11.1585 5.83948C11.1387 5.82466 11.122 5.80608 11.1094 5.78481C11.0968 5.76354 11.0885 5.73999 11.085 5.71551C11.0814 5.69103 11.0828 5.6661 11.0889 5.64214C11.095 5.61818 11.1058 5.59565 11.1206 5.57586C11.1354 5.55606 11.154 5.53938 11.1753 5.52676C11.1966 5.51414 11.2201 5.50584 11.2446 5.50232C11.2691 5.4988 11.294 5.50014 11.318 5.50626C11.3419 5.51238 11.3644 5.52316 11.3842 5.53798L15.2895 8.46598H17.6737L12.2137 4.37098L8.43375 7.20598C8.41395 7.22081 8.39143 7.23158 8.36746 7.2377C8.3435 7.24382 8.31857 7.24516 8.29409 7.24164C8.24465 7.23454 8.20006 7.20809 8.17012 7.16811C8.14019 7.12813 8.12736 7.07789 8.13446 7.02845C8.14156 6.97901 8.16802 6.93442 8.208 6.90448L12.1005 3.98548V3.98548ZM6.9075 7.88173C6.94767 7.85746 6.99544 7.849 7.0415 7.85801C7.08757 7.86702 7.12863 7.89284 7.15671 7.93046C7.18478 7.96808 7.19785 8.01479 7.19338 8.06152C7.1889 8.10824 7.1672 8.15163 7.1325 8.18323L6.50175 8.65573L18.3525 17.5462C18.3761 17.5637 18.3952 17.5864 18.4084 17.6126C18.4216 17.6387 18.4285 17.6677 18.4285 17.697C18.4285 17.7263 18.4216 17.7552 18.4084 17.7814C18.3952 17.8076 18.3761 17.8303 18.3525 17.8477L15.3397 20.1075C15.3071 20.1315 15.2677 20.1444 15.2272 20.1444C15.1868 20.1444 15.1473 20.1315 15.1147 20.1075L14.2425 19.4535C14.2025 19.4233 14.1761 19.3786 14.1692 19.329C14.1622 19.2794 14.1752 19.2291 14.2054 19.1891C14.2355 19.1491 14.2803 19.1228 14.3299 19.1158C14.3795 19.1088 14.4298 19.1218 14.4697 19.152L15.2272 19.7197L17.9272 17.6947L6.0735 8.80648C6.05033 8.78877 6.03155 8.76596 6.01863 8.73981C6.00571 8.71367 5.99898 8.6849 5.99898 8.65573C5.99898 8.62657 6.00571 8.5978 6.01863 8.57165C6.03155 8.54551 6.05033 8.52269 6.0735 8.50498L6.906 7.88248L6.9075 7.88173ZM6.18825 15.246V15.2475H9.1995C9.24016 15.2469 9.27981 15.2601 9.312 15.285L13.224 18.2182C13.2438 18.233 13.2605 18.2515 13.2731 18.2728C13.2858 18.294 13.2941 18.3175 13.2976 18.3419C13.3012 18.3664 13.2999 18.3913 13.2938 18.4152C13.2877 18.4392 13.277 18.4617 13.2622 18.4815C13.2475 18.5013 13.2289 18.518 13.2077 18.5306C13.1865 18.5432 13.163 18.5516 13.1385 18.5551C13.1141 18.5587 13.0892 18.5574 13.0652 18.5513C13.0413 18.5452 13.0188 18.5345 12.999 18.5197L9.1395 15.624H6.75375L12.2145 19.719L15.987 16.89C16.0068 16.8751 16.0293 16.8643 16.0533 16.8581C16.0773 16.852 16.1022 16.8506 16.1268 16.8541C16.1513 16.8575 16.1749 16.8658 16.1962 16.8784C16.2175 16.891 16.2361 16.9077 16.251 16.9275C16.2659 16.9473 16.2767 16.9698 16.2829 16.9938C16.289 17.0178 16.2904 17.0427 16.2869 17.0672C16.2834 17.0918 16.2752 17.1154 16.2626 17.1367C16.25 17.158 16.2333 17.1766 16.2135 17.1915L12.3277 20.1045C12.2953 20.1288 12.2558 20.142 12.2152 20.142C12.1744 20.1424 12.1346 20.1292 12.102 20.1045L6.07425 15.5857C6.04458 15.5854 6.01542 15.578 5.98914 15.5642C5.96286 15.5505 5.94021 15.5307 5.92304 15.5065C5.90586 15.4823 5.89464 15.4544 5.8903 15.425C5.88596 15.3957 5.88862 15.3657 5.89805 15.3376C5.90749 15.3095 5.92344 15.284 5.94461 15.2632C5.96577 15.2424 5.99155 15.2269 6.01984 15.218C6.04813 15.209 6.07814 15.2069 6.1074 15.2118C6.13667 15.2167 6.16437 15.2284 6.18825 15.246Z" fill="white"/>
</svg>
