<svg width="48" height="48" viewBox="0 0 24 24" fill="none" xmlns="http://www.w3.org/2000/svg">
<path d="M12 24C5.37225 24 0 18.6277 0 12C0 5.37225 5.37225 0 12 0C18.6277 0 24 5.37225 24 12C24 18.6277 18.6277 24 12 24ZM13.5458 6.813H10.4925C8.23275 9.3345 7.1355 10.371 5.25 11.925L13.3575 13.6785L11.9625 15.246C10.1002 14.1435 8.82525 14.0018 6.5325 13.791C8.25525 14.5845 9.15 15.222 10.4918 17.1855H13.5458C15.132 15.2152 16.2255 14.0715 18.75 11.925L10.68 10.1325L11.9625 8.64C13.9942 9.7065 15.2108 9.8595 17.367 10.1295C16.7468 9.95925 16.0988 9.48675 13.5458 6.81225V6.813ZM10.68 6.44025H13.3575C12.6892 5.60625 12.405 5.184 12.0375 4.5C11.6632 5.16375 11.3775 5.5815 10.68 6.44025ZM13.3575 17.5598H10.68C11.3475 18.3938 11.6325 18.816 12 19.5C12.3735 18.8363 12.6592 18.4185 13.3575 17.5598Z" fill="black"/>
</svg>
