<svg width="48" height="48" viewBox="0 0 24 24" fill="none" xmlns="http://www.w3.org/2000/svg">
<path d="M9.86025 11.5755C9.86558 11.5871 9.86816 11.5998 9.86777 11.6125C9.86738 11.6253 9.86403 11.6378 9.858 11.649C9.8465 11.6687 9.82794 11.6833 9.80608 11.6899C9.78422 11.6964 9.76069 11.6944 9.74025 11.6843C4.0875 8.74425 14.871 5.3205 20.8132 9.32925C20.8852 9.3705 20.9483 9.41175 21 9.4515C20.9392 9.408 20.8755 9.37125 20.8132 9.32925C18.6082 8.07225 7.61025 6.822 9.86025 11.5755V11.5755ZM16.1047 15.5655C19.2232 14.148 16.6867 9.294 12.561 10.2307C12.5388 10.2356 12.5155 10.2316 12.4961 10.2198C12.4767 10.2079 12.4626 10.189 12.4567 10.167C12.4536 10.1517 12.4548 10.1359 12.4602 10.1213C12.4656 10.1067 12.4751 10.0939 12.4875 10.0845C15.6975 7.6725 21.723 13.3035 16.1047 15.5648V15.5655ZM3 13.5082C12.0757 19.3155 16.7505 13.8585 13.4662 11.4757L13.4617 11.472C13.4534 11.4654 13.4465 11.4571 13.4413 11.4478C13.4362 11.4385 13.4329 11.4282 13.4317 11.4176C13.4305 11.4071 13.4315 11.3963 13.4344 11.3861C13.4374 11.3759 13.4423 11.3663 13.449 11.358C13.4591 11.3456 13.4725 11.3363 13.4875 11.331C13.5026 11.3257 13.5189 11.3247 13.5345 11.328C21.4102 12.75 10.695 20.7487 3 13.5075V13.5082ZM9.15 8.1405C4.18575 11.5455 9.708 13.0905 10.7108 12.7635C10.7264 12.7593 10.7429 12.7588 10.7588 12.762C10.7698 12.7644 10.7802 12.7691 10.7894 12.7757C10.7986 12.7823 10.8063 12.7907 10.8121 12.8004C10.8179 12.8101 10.8217 12.8208 10.8233 12.832C10.8248 12.8432 10.824 12.8546 10.821 12.8655C10.1438 15.4627 2.3385 10.3215 9.15 8.1405ZM12 0C5.373 0 0 5.37225 0 12C0 18.627 5.373 24 12 24C18.627 24 24 18.627 24 12C24 5.37225 18.627 0 12 0Z" fill="black"/>
</svg>
