<svg width="24" height="24" viewBox="0 0 24 24" fill="none" xmlns="http://www.w3.org/2000/svg">
<path d="M12 24C18.6274 24 24 18.6274 24 12C24 5.37258 18.6274 0 12 0C5.37258 0 0 5.37258 0 12C0 18.6274 5.37258 24 12 24Z" fill="#0082C6"/>
<path d="M13.5345 11.3272C13.5188 11.3241 13.5025 11.3253 13.4875 11.3307C13.4724 11.3361 13.4591 11.3455 13.449 11.358C13.4421 11.3667 13.4371 11.3767 13.4342 11.3874C13.4313 11.3981 13.4306 11.4093 13.4323 11.4202C13.4339 11.4312 13.4377 11.4417 13.4436 11.4511C13.4494 11.4606 13.4571 11.4687 13.4662 11.475C16.7505 13.8585 12.0757 19.3155 3 13.5082C10.695 20.7495 21.4102 12.7507 13.5345 11.3272ZM9.1515 8.14124C2.337 10.3215 10.1438 15.4635 10.821 12.8662C10.824 12.8554 10.8248 12.8441 10.8232 12.8329C10.8217 12.8218 10.8179 12.811 10.8121 12.8014C10.8062 12.7918 10.7985 12.7835 10.7893 12.7769C10.7802 12.7704 10.7698 12.7658 10.7588 12.7635C10.743 12.7594 10.7264 12.7596 10.7108 12.7642C9.708 13.0905 4.185 11.5462 9.15075 8.14124H9.1515ZM21 9.45149C15.0997 5.24399 4.029 8.71349 9.74025 11.6842C9.76066 11.6946 9.78425 11.6967 9.80616 11.6901C9.82807 11.6836 9.84663 11.6688 9.858 11.649C9.86403 11.6377 9.86738 11.6253 9.86777 11.6125C9.86816 11.5997 9.86558 11.5871 9.86025 11.5755C7.5375 6.66749 19.3357 8.15999 21 9.45149ZM16.104 15.5647C19.2233 14.1472 16.6867 9.29399 12.561 10.2307C12.5388 10.2357 12.5156 10.2319 12.4963 10.2199C12.4769 10.208 12.463 10.189 12.4575 10.167C12.4539 10.1518 12.4549 10.1359 12.4602 10.1213C12.4655 10.1066 12.475 10.0938 12.4875 10.0845C15.6975 7.67249 21.723 13.3035 16.104 15.5647V15.5647Z" fill="white"/>
</svg>
