<svg width="48" height="48" viewBox="0 0 24 24" fill="none" xmlns="http://www.w3.org/2000/svg">
<path d="M12 24C5.37225 24 0 18.6277 0 12C0 5.37225 5.37225 0 12 0C18.6277 0 24 5.37225 24 12C24 18.6277 18.6277 24 12 24ZM3 9.75V10.6657H3.9735V9.75H3ZM3.9735 13.3305V12.4973H5.85825V11.5815H3V14.25H6.80625V13.3305H3.9735ZM17.1937 11.5815V12.4965H20.0265V13.3305H18.1417V14.25H21V11.5815H17.1937V11.5815ZM20.0422 10.71V9.79425H17.1923V10.7093H20.0422V10.71ZM7.734 11.5815V14.25H10.5915V13.3695H11.5403V11.5815H7.734ZM10.5667 13.3305H8.7075V12.4973H10.5675V13.3298L10.5667 13.3305ZM7.734 9.75V10.6657H11.5403V9.75H7.734V9.75ZM12.4845 11.5815V14.25H15.342V13.3695H16.2908V11.5815H12.4845ZM15.3135 13.3305H13.4535V12.4973H15.3135V13.3298V13.3305ZM12.4845 9.75V10.6657H16.2908V9.75H12.4845Z" fill="black"/>
</svg>
