<svg width="48" height="48" viewBox="0 0 24 24" fill="none" xmlns="http://www.w3.org/2000/svg">
<path fill-rule="evenodd" clip-rule="evenodd" d="M12 24C5.37225 24 0 18.6277 0 12C0 5.37225 5.37225 0 12 0C18.6277 0 24 5.37225 24 12C24 18.6277 18.6277 24 12 24ZM6.0705 10.2585L4.5 11.841H7.65225L6.0705 10.2585ZM7.653 12.171H4.5L6.0705 13.7415L7.653 12.171ZM9.792 10.0312L8.2095 8.44875V11.6017L9.792 10.0312ZM7.8795 11.6017V8.4495L6.30975 10.0312L7.8795 11.6017ZM10.02 9.792L11.6017 8.2215H8.4495L10.02 9.792ZM10.02 6.30975L8.4495 7.8915H11.6017L10.02 6.30975ZM13.7415 6.08175L12.159 4.5V7.65225L13.7415 6.08175ZM11.829 7.65225V4.5L10.2585 6.0825L11.829 7.65225ZM9.792 13.98L8.2095 12.3983V15.5505L9.792 13.98ZM6.30975 13.98L7.88025 15.5505V12.3983L6.30975 13.98ZM13.9688 9.792L15.5513 8.2215H12.3975L13.9688 9.792ZM12.3983 7.8915H15.5505L13.9688 6.309L12.3983 7.8915ZM11.6025 16.1198H8.45025L10.0208 17.6902L11.6025 16.1198ZM10.02 14.2073L8.45025 15.7897H11.6025L10.02 14.2073ZM17.691 10.0312L16.1093 8.44875V11.6017L17.691 10.0312ZM14.2087 10.0312L15.7792 11.6017V8.4495L14.2087 10.0312ZM10.2592 17.9288L11.829 19.5V16.3478L10.2592 17.9288ZM12.1597 16.3478V19.5L13.7422 17.9295L12.1597 16.3478ZM13.9695 17.6902L15.552 16.1198H12.3975L13.9695 17.6902ZM13.9695 14.208L12.399 15.7905H15.5513L13.9695 14.208ZM16.1093 12.3983V15.5505L17.6918 13.98L16.1093 12.3983ZM14.2087 13.9808L15.7792 15.5505V12.3983L14.2087 13.9808ZM17.919 13.7407L19.5 12.1718H16.3478L17.919 13.7407ZM17.919 10.2585L16.3485 11.841H19.5L17.919 10.2585Z" fill="black"/>
</svg>
