<svg width="48" height="48" viewBox="0 0 24 24" fill="none" xmlns="http://www.w3.org/2000/svg">
<path d="M12 24C5.37225 24 0 18.6277 0 12C0 5.37225 5.37225 0 12 0C18.6277 0 24 5.37225 24 12C24 18.6277 18.6277 24 12 24ZM11.775 20.55C16.6215 20.55 20.55 16.6215 20.55 11.775C20.55 6.9285 16.6215 3 11.775 3C6.9285 3 3 6.9285 3 11.775C3 16.6215 6.9285 20.55 11.775 20.55ZM13.9425 14.775L15.705 11.775L13.74 8.415H9.81L7.845 11.775L9.6075 14.775L11.775 11.775L13.9425 14.775ZM14.5875 6.975L17.3925 11.775L14.5875 16.575H8.97L6.1575 11.775L8.9625 6.975H14.5875V6.975Z" fill="black"/>
</svg>
