<svg width="48" height="48" viewBox="0 0 24 24" fill="none" xmlns="http://www.w3.org/2000/svg">
<path fill-rule="evenodd" clip-rule="evenodd" d="M12 24C5.37225 24 0 18.6277 0 12C0 5.37225 5.37225 0 12 0C18.6277 0 24 5.37225 24 12C24 18.6277 18.6277 24 12 24ZM18.81 8.6085L14.2695 4.92C13.7947 4.536 12.9345 4.3875 12.3547 4.5915L6.78975 6.546C6.21075 6.7485 5.64825 7.3965 5.54175 7.9845L4.52175 13.6275C4.4145 14.2155 4.7145 15.0075 5.18925 15.3923L9.73275 19.08C10.2068 19.4648 11.0678 19.6125 11.6468 19.4085L17.211 17.4548C17.79 17.2523 18.3525 16.6042 18.459 16.0162L19.479 10.3733C19.584 9.789 19.284 8.99325 18.81 8.6085V8.6085ZM14.0767 11.142L11.9543 11.139L11.5598 13.1355C11.436 13.7542 11.4022 14.103 12.0397 14.103H13.4752L13.1752 15.3705H11.4593C10.4445 15.3705 9.7845 14.4232 10.0485 13.089C10.1535 12.5647 10.4685 11.1443 10.4685 11.1443H9.53925L9.732 10.155C10.577 9.82863 11.298 9.24485 11.793 8.48625H12.4792L12.1793 9.99825L14.3032 9.99525L14.0767 11.142Z" fill="black"/>
</svg>
