<svg width="24" height="24" viewBox="0 0 24 24" fill="none" xmlns="http://www.w3.org/2000/svg">
<path d="M12 24C18.6274 24 24 18.6274 24 12C24 5.37258 18.6274 0 12 0C5.37258 0 0 5.37258 0 12C0 18.6274 5.37258 24 12 24Z" fill="#EF494D"/>
<path fill-rule="evenodd" clip-rule="evenodd" d="M4.5 8.5395C4.5 8.37975 4.62975 8.25 4.79025 8.25H8.55825C10.2968 8.25 11.3843 9.147 11.3843 10.4137C11.3843 10.9425 11.1428 11.4232 10.6598 11.856C11.3355 12.2407 11.6738 12.8175 11.6738 13.5862C11.6738 15.39 9.9345 15.75 8.775 15.75H4.7895C4.71272 15.75 4.63909 15.7195 4.58479 15.6652C4.5305 15.6109 4.5 15.5373 4.5 15.4605V14.598C4.5 14.4375 4.62975 14.3077 4.7895 14.3077H8.775C9.59625 14.3077 10.0073 14.043 10.0073 13.5142C10.0073 12.9855 9.59625 12.6967 8.775 12.6487H4.7895C4.71285 12.6487 4.63933 12.6184 4.58506 12.5642C4.53079 12.5101 4.5002 12.4366 4.5 12.36V11.4975C4.5 11.337 4.62975 11.2072 4.7895 11.2072H8.775C9.35475 11.1112 9.645 10.8713 9.645 10.4865C9.645 9.95775 9.35475 9.693 8.775 9.693H4.7895C4.75142 9.693 4.71371 9.68549 4.67854 9.67089C4.64337 9.6563 4.61142 9.6349 4.58453 9.60794C4.55764 9.58098 4.53633 9.54898 4.52182 9.51377C4.50732 9.47856 4.4999 9.44083 4.5 9.40275V8.54025V8.5395ZM12.3263 8.5395C12.3263 8.37975 12.456 8.25 12.6158 8.25H16.4565C16.6163 8.25 16.7468 8.37975 16.7468 8.5395V15.4605C16.7468 15.4986 16.7392 15.5363 16.7246 15.5715C16.71 15.6066 16.6887 15.6386 16.6617 15.6655C16.6347 15.6924 16.6027 15.7137 16.5675 15.7282C16.5323 15.7427 16.4946 15.7501 16.4565 15.75H15.369C15.2922 15.75 15.2186 15.7195 15.1643 15.6652C15.11 15.6109 15.0795 15.5373 15.0795 15.4605V9.9825C15.0796 9.94442 15.0722 9.90669 15.0577 9.87148C15.0432 9.83627 15.0219 9.80427 14.995 9.77731C14.9681 9.75035 14.9361 9.72895 14.901 9.71436C14.8658 9.69976 14.8281 9.69225 14.79 9.69225H12.615C12.5382 9.69225 12.4646 9.66175 12.4103 9.60746C12.356 9.55317 12.3255 9.47953 12.3255 9.40275L12.3263 8.5395ZM17.76 8.25H19.2098C19.3695 8.25 19.4993 8.37975 19.4993 8.5395V9.402C19.4994 9.44008 19.4919 9.47781 19.4774 9.51302C19.4629 9.54823 19.4416 9.58023 19.4147 9.60719C19.3878 9.63415 19.3559 9.65555 19.3207 9.67014C19.2855 9.68474 19.2478 9.69225 19.2098 9.69225H17.76C17.6832 9.69225 17.6096 9.66175 17.5553 9.60746C17.501 9.55317 17.4705 9.47953 17.4705 9.40275V8.54025C17.4705 8.37975 17.6003 8.25 17.76 8.25Z" fill="white"/>
</svg>
