<svg width="48" height="48" viewBox="0 0 24 24" fill="none" xmlns="http://www.w3.org/2000/svg">
<path d="M12 24C5.37225 24 0 18.6277 0 12C0 5.37225 5.37225 0 12 0C18.6277 0 24 5.37225 24 12C24 18.6277 18.6277 24 12 24ZM4.5 8.5395V9.402C4.5 9.5625 4.62975 9.69225 4.7895 9.69225H8.775C9.35475 9.69225 9.645 9.957 9.645 10.4857C9.645 10.8705 9.35475 11.1105 8.775 11.2065H4.7895C4.75136 11.2065 4.71359 11.214 4.67837 11.2287C4.64314 11.2433 4.61116 11.2648 4.58426 11.2918C4.55736 11.3189 4.53607 11.351 4.52161 11.3863C4.50714 11.4215 4.4998 11.4594 4.5 11.4975V12.36C4.5 12.5197 4.62975 12.6495 4.7895 12.6495H8.775C9.59625 12.6975 10.0073 12.987 10.0073 13.515C10.0073 14.043 9.59625 14.3085 8.775 14.3085H4.7895C4.71272 14.3085 4.63908 14.339 4.58479 14.3933C4.5305 14.4476 4.5 14.5212 4.5 14.598V15.4605C4.5 15.621 4.62975 15.7507 4.7895 15.7507H8.775C9.9345 15.7507 11.6737 15.3907 11.6737 13.587C11.6737 12.8182 11.3363 12.2415 10.6598 11.8568C11.1428 11.424 11.3842 10.9432 11.3842 10.4145C11.3842 9.147 10.2968 8.25075 8.55825 8.25075H4.79025C4.7134 8.25075 4.63969 8.28123 4.58528 8.3355C4.53087 8.38977 4.5002 8.4634 4.5 8.54025V8.5395ZM12.3262 8.5395V9.402C12.3262 9.5625 12.456 9.69225 12.6157 9.69225H14.79C14.9497 9.69225 15.0795 9.822 15.0795 9.9825V15.4605C15.0795 15.6203 15.2093 15.75 15.3698 15.75H16.4565C16.4946 15.7501 16.5323 15.7427 16.5675 15.7282C16.6027 15.7137 16.6347 15.6924 16.6617 15.6655C16.6887 15.6386 16.71 15.6066 16.7246 15.5715C16.7392 15.5363 16.7468 15.4986 16.7468 15.4605V8.5395C16.7468 8.50142 16.7392 8.46371 16.7246 8.42854C16.71 8.39337 16.6887 8.36142 16.6617 8.33453C16.6347 8.30763 16.6027 8.28633 16.5675 8.27182C16.5323 8.25732 16.4946 8.2499 16.4565 8.25H12.6165C12.5784 8.2499 12.5407 8.25732 12.5055 8.27182C12.4703 8.28633 12.4383 8.30763 12.4113 8.33453C12.3843 8.36142 12.363 8.39337 12.3484 8.42854C12.3338 8.46371 12.3262 8.50142 12.3262 8.5395V8.5395ZM17.76 8.25C17.6832 8.25 17.6096 8.2805 17.5553 8.33479C17.501 8.38908 17.4705 8.46272 17.4705 8.5395V9.402C17.4705 9.5625 17.6003 9.69225 17.76 9.69225H19.2098C19.2865 9.69225 19.3602 9.66175 19.4145 9.60746C19.4687 9.55317 19.4993 9.47953 19.4993 9.40275V8.54025C19.4993 8.50217 19.4919 8.46444 19.4774 8.42923C19.4629 8.39402 19.4416 8.36202 19.4147 8.33506C19.3878 8.3081 19.3559 8.2867 19.3207 8.27211C19.2855 8.25751 19.2478 8.25 19.2098 8.25H17.76Z" fill="black"/>
</svg>
