<svg width="24" height="24" viewBox="0 0 24 24" fill="none" xmlns="http://www.w3.org/2000/svg">
<path d="M12 24C18.6274 24 24 18.6274 24 12C24 5.37258 18.6274 0 12 0C5.37258 0 0 5.37258 0 12C0 18.6274 5.37258 24 12 24Z" fill="#24DD7B"/>
<path d="M9.819 5.93475L13.1213 4.5L13.0942 8.28975H17.25V10.9148H13.0665V15.462C13.0665 16.842 15.4065 17.0047 16.287 16.545L17.085 18.927C15.1305 20.0633 9.79125 19.7925 9.79125 15.489V5.934H9.819V5.93475ZM6.7365 11.6183C5.91525 11.6183 5.25 10.8187 5.25 9.8325C5.25 8.8455 5.91525 8.046 6.7365 8.046C7.557 8.046 8.22225 8.8455 8.22225 9.8325C8.22225 10.8187 7.557 11.6183 6.7365 11.6183Z" fill="white"/>
</svg>
