<svg width="48" height="48" viewBox="0 0 24 24" fill="none" xmlns="http://www.w3.org/2000/svg">
<path d="M12 24C5.37225 24 0 18.6277 0 12C0 5.37225 5.37225 0 12 0C18.6277 0 24 5.37225 24 12C24 18.6277 18.6277 24 12 24ZM13.6695 10.353L12.297 12.6885L13.896 15.2993L7.587 15.2977L6.1845 17.625H17.8942L13.6695 10.353ZM9.357 12.045H12.1013L13.602 9.37875L16.692 14.7488H19.5L13.6522 4.9065L9.357 12.045ZM13.0208 14.7593L11.6483 12.423H8.523L11.7502 7.2345L10.3553 4.875L4.5 14.7188L13.0208 14.7593Z" fill="black"/>
</svg>
