<svg width="48" height="48" viewBox="0 0 24 24" fill="none" xmlns="http://www.w3.org/2000/svg">
<path d="M12 24C5.37225 24 0 18.6277 0 12C0 5.37225 5.37225 0 12 0C18.6277 0 24 5.37225 24 12C24 18.6277 18.6277 24 12 24ZM11.9962 20.421C7.34775 20.421 3.579 16.6522 3.579 12.0037C3.579 7.35525 7.34775 3.5865 11.9962 3.5865C16.6447 3.5865 20.4135 7.35525 20.4135 12.0037C20.4135 16.6522 16.6447 20.421 11.9962 20.421ZM11.9962 3.05025C7.059 3.05025 3.04275 7.0665 3.04275 12.0037C3.04275 16.941 7.059 20.9573 11.9962 20.9573C16.9335 20.9573 20.9498 16.941 20.9498 12.0037C20.9498 7.0665 16.9335 3.05025 11.9962 3.05025ZM15.1492 15.2062L14.682 17.2305L14.5695 17.7203H14.067L11.4832 17.7188H11.4727C10.437 17.7015 9.624 17.4262 9.09075 16.9402C9.55125 17.7525 10.5293 18.2227 11.8943 18.2452H11.9048L14.4877 18.2468H14.9902L15.1035 17.757L15.5707 15.7327L15.2062 14.9595L15.1492 15.2062ZM14.337 6.528L13.968 5.76075L13.9155 6.00075L13.5652 7.596H14.1022L14.337 6.528ZM16.2023 8.373L15.7372 10.3425L15.6218 10.8285H12.822L12.111 14.0745C12.096 14.1675 12.087 14.262 12.087 14.3145C12.087 14.3603 12.0922 14.3895 12.0967 14.4037C12.1502 14.4238 12.2069 14.4334 12.264 14.4323H12.57L13.2435 11.3557H16.0433L16.158 10.869L16.623 8.90025L16.2615 8.12325L16.2015 8.37375L16.2023 8.373ZM9.25575 10.8285H7.305L7.977 11.3557H9.141L9.25575 10.8285ZM12.3255 15.0645H12.2543C11.7113 15.0503 11.4547 14.7675 11.4547 14.3145C11.4547 14.2065 11.4728 14.0632 11.4908 13.956L12.3143 10.197H15.1223L15.5873 8.22825H12.7792L13.2983 5.86575H11.0078L10.488 8.22825H8.0025L7.5555 10.197H10.041L9.0735 14.6182C9.021 14.8327 9.00225 15.0832 9.00225 15.2085C9.00225 16.47 9.9975 17.0625 11.4832 17.0873L14.0662 17.088L14.5335 15.0645H12.3255V15.0645Z" fill="black"/>
</svg>
