<svg width="48" height="48" viewBox="0 0 24 24" fill="none" xmlns="http://www.w3.org/2000/svg">
<path d="M12 24C5.37225 24 0 18.6277 0 12C0 5.37225 5.37225 0 12 0C18.6277 0 24 5.37225 24 12C24 18.6277 18.6277 24 12 24ZM12.0045 4.2C12.3 4.2 12.5903 4.27725 12.846 4.425L18.216 7.5255C18.472 7.67338 18.6845 7.88604 18.8322 8.14211C18.9799 8.39818 19.0576 8.68863 19.0575 8.98425V15.3098C19.0575 15.9113 18.7373 16.467 18.216 16.7678L12.8453 19.869C12.5893 20.0168 12.2989 20.0946 12.0034 20.0946C11.7078 20.0946 11.4175 20.0168 11.1615 19.869L5.79 16.7678C5.53404 16.62 5.32147 16.4075 5.17364 16.1515C5.0258 15.8956 4.94789 15.6053 4.94775 15.3098V8.98425C4.94775 8.38275 5.26875 7.827 5.79 7.5255L11.16 4.425C11.4165 4.27725 11.7075 4.19925 12.0023 4.19925H12.0037L12.0045 4.2ZM12.003 3.02925C11.5022 3.02954 11.0103 3.16145 10.5765 3.41175L5.205 6.5115C4.77158 6.76261 4.41166 7.12307 4.1612 7.55687C3.91074 7.99066 3.77852 8.48259 3.77775 8.9835V15.309C3.77852 15.8099 3.91074 16.3018 4.1612 16.7356C4.41166 17.1694 4.77158 17.5299 5.205 17.781L10.575 20.8815C11.4585 21.3915 12.5468 21.3915 13.4295 20.8815L18.8002 17.781C19.2337 17.5299 19.5936 17.1694 19.8441 16.7356C20.0945 16.3018 20.2267 15.8099 20.2275 15.309V8.9835C20.2267 8.48259 20.0945 7.99066 19.8441 7.55687C19.5936 7.12307 19.2337 6.76261 18.8002 6.5115L13.4302 3.41025C12.996 3.1597 12.5036 3.02778 12.0023 3.02775L12.003 3.02925ZM15.6705 11.9618H14.424C14.3624 11.9618 14.3019 11.978 14.2486 12.0088C14.1953 12.0396 14.151 12.0839 14.1202 12.1373L13.473 13.257C13.4422 13.3104 13.426 13.3709 13.426 13.4325C13.426 13.4941 13.4422 13.5546 13.473 13.608L14.25 14.952C14.8898 14.043 15.3704 13.0319 15.6713 11.9618H15.6705ZM11.3452 13.1392H12.6638C12.7253 13.1394 12.7857 13.1233 12.8391 13.0926C12.8924 13.0619 12.9367 13.0177 12.9675 12.9645L13.614 11.8448C13.6448 11.7914 13.661 11.7309 13.661 11.6693C13.661 11.6076 13.6448 11.5471 13.614 11.4937L12.9675 10.374C12.9367 10.3207 12.8924 10.2764 12.8391 10.2456C12.7858 10.2148 12.7253 10.1985 12.6638 10.1985H11.3452C11.2835 10.1984 11.2229 10.2146 11.1695 10.2454C11.116 10.2762 11.0716 10.3206 11.0407 10.374L10.395 11.4937C10.3642 11.5471 10.348 11.6076 10.348 11.6693C10.348 11.7309 10.3642 11.7914 10.395 11.8448L11.0407 12.9645C11.0716 13.0179 11.116 13.0623 11.1695 13.0931C11.2229 13.1239 11.2835 13.1401 11.3452 13.14V13.1392ZM9.5835 11.3767C9.64517 11.3767 9.70575 11.3605 9.75918 11.3297C9.81262 11.2989 9.85703 11.2546 9.888 11.2013L10.5338 10.0815C10.5646 10.0281 10.5808 9.96761 10.5808 9.906C10.5808 9.84439 10.5646 9.78386 10.5338 9.7305L9.72825 8.33475L8.1555 9.19275C8.09912 9.22364 8.0523 9.26943 8.02017 9.32511C7.98803 9.38079 7.9718 9.44423 7.97325 9.5085C7.986 10.137 8.0595 10.7625 8.1915 11.3767H9.5835V11.3767ZM14.4247 11.3767H15.8168C15.9488 10.7617 16.0222 10.137 16.035 9.5085C16.0364 9.44415 16.02 9.38066 15.9878 9.32497C15.9555 9.26928 15.9085 9.22354 15.852 9.19275L14.28 8.33475L13.4745 9.7305C13.4437 9.78386 13.4275 9.84439 13.4275 9.906C13.4275 9.96761 13.4437 10.0281 13.4745 10.0815L14.121 11.2013C14.1518 11.2546 14.1961 11.2989 14.2494 11.3297C14.3027 11.3605 14.3632 11.3767 14.4247 11.3767V11.3767ZM12.1725 7.18425C12.121 7.15615 12.0632 7.14143 12.0045 7.14143C11.9458 7.14143 11.888 7.15615 11.8365 7.18425L10.242 8.05425L11.0415 9.438C11.0723 9.49133 11.1166 9.53561 11.1699 9.56642C11.2232 9.59722 11.2837 9.61346 11.3452 9.6135H12.6638C12.7253 9.61354 12.7859 9.59733 12.8392 9.56652C12.8925 9.53571 12.9368 9.49138 12.9675 9.438L13.767 8.05425L12.1725 7.18425ZM11.3452 13.725C11.2835 13.7249 11.2229 13.7411 11.1695 13.7719C11.116 13.8027 11.0716 13.8471 11.0407 13.9005L10.1407 15.4605C10.6254 16.0627 11.179 16.6062 11.79 17.0798C11.8516 17.1271 11.9272 17.1528 12.0049 17.1528C12.0826 17.1528 12.1581 17.1271 12.2197 17.0798C12.8306 16.6059 13.3838 16.0622 13.8682 15.4598L12.9683 13.9005C12.9375 13.8472 12.8932 13.8029 12.8399 13.7721C12.7866 13.7413 12.7261 13.725 12.6645 13.725H11.3445H11.3452ZM8.337 11.9618C8.63781 13.0319 9.11841 14.043 9.75825 14.952L10.5345 13.608C10.5653 13.5546 10.5815 13.4941 10.5815 13.4325C10.5815 13.3709 10.5653 13.3104 10.5345 13.257L9.888 12.1373C9.85721 12.0839 9.81294 12.0396 9.75962 12.0088C9.70631 11.978 9.64583 11.9618 9.58425 11.9618H8.337V11.9618Z" fill="black"/>
</svg>
