<svg width="24" height="24" viewBox="0 0 24 24" fill="none" xmlns="http://www.w3.org/2000/svg">
<path d="M12 24C18.6274 24 24 18.6274 24 12C24 5.37258 18.6274 0 12 0C5.37258 0 0 5.37258 0 12C0 18.6274 5.37258 24 12 24Z" fill="black"/>
<path d="M18.5588 9.19949C17.9595 8.77424 17.3182 8.32049 16.6912 7.87049C16.677 7.85999 16.6635 7.84949 16.6462 7.83899C16.5728 7.77865 16.4896 7.73123 16.4003 7.69874L16.3928 7.69499C14.7151 7.2833 13.0378 6.8698 11.361 6.45449L6.873 5.34674L6.75525 5.31524C6.62025 5.27699 6.46425 5.23424 6.29775 5.25524C6.25214 5.26222 6.20862 5.27912 6.17025 5.30474L6.12825 5.33999C6.07566 5.39391 6.03547 5.45867 6.0105 5.52974L6 5.55824V5.71949L6.0075 5.74424C6.9525 8.43299 7.923 11.1607 8.859 13.8C9.57975 15.8325 10.329 17.937 11.0595 20.004C11.1045 20.1442 11.2327 20.2365 11.3925 20.25H11.427C11.4968 20.2518 11.5658 20.2348 11.6268 20.2007C11.6877 20.1667 11.7384 20.1169 11.7735 20.0565L14.5185 15.9967C15.1867 15.009 15.8558 14.0182 16.5248 13.0305L17.346 11.814C17.796 11.1465 18.261 10.4572 18.7222 9.78599L18.7463 9.75149V9.70874C18.7568 9.58574 18.7598 9.33299 18.5588 9.19874V9.19949ZM15.3428 10.6792C14.6978 11.0197 14.04 11.3715 13.3777 11.7195L14.5358 10.461C15.0173 9.93374 15.5198 9.38849 16.0118 8.85449L16.0223 8.84399C16.0635 8.78774 16.116 8.73524 16.1715 8.67899C16.209 8.64074 16.251 8.60174 16.2892 8.55599C16.5457 8.73599 16.8052 8.91824 17.055 9.09749C17.235 9.22724 17.4188 9.35774 17.6063 9.48749C16.8491 9.87973 16.0946 10.277 15.3428 10.6792V10.6792ZM13.6868 10.5105C13.191 11.055 12.678 11.6137 12.1688 12.1657C11.1804 10.9496 10.1892 9.73586 9.195 8.52449L7.86075 6.89699L7.85775 6.89324C7.75725 6.77774 7.65975 6.65099 7.563 6.53174C7.50075 6.45074 7.43475 6.37349 7.36875 6.29249C7.77075 6.39749 8.1765 6.49649 8.57475 6.59099C8.925 6.67574 9.28875 6.76349 9.64575 6.85499L15.6795 8.34149C15.0105 9.06599 14.3378 9.80024 13.6868 10.5105V10.5105ZM11.943 17.361C11.9812 16.992 12.0232 16.6125 12.0577 16.2397C12.0892 15.9405 12.12 15.6352 12.1515 15.3435C12.1995 14.8755 12.252 14.391 12.294 13.9162L12.3038 13.8322C12.3383 13.5292 12.3727 13.2172 12.3937 12.9037C12.4341 12.881 12.476 12.8609 12.519 12.8437C12.5707 12.8197 12.6225 12.7987 12.6743 12.7672C13.4747 12.3406 14.2765 11.9164 15.0795 11.4945C15.8805 11.073 16.7017 10.6365 17.5162 10.2045C16.7772 11.2899 16.0412 12.3774 15.3082 13.467C14.688 14.3835 14.0505 15.3292 13.416 16.2607C13.167 16.6335 12.9068 17.013 12.6608 17.3782C12.3833 17.7862 12.099 18.204 11.8222 18.6232C11.8567 18.201 11.898 17.7757 11.943 17.361V17.361ZM7.113 7.12199C7.068 6.99524 7.0185 6.86549 6.97725 6.74249C7.91325 7.88849 8.85525 9.04124 9.774 10.1587C10.2487 10.7385 10.7235 11.3152 11.1982 11.8987C11.292 12.0075 11.3857 12.1237 11.4757 12.2362C11.5935 12.3802 11.7113 12.5317 11.8395 12.6757C11.7975 13.0372 11.763 13.4032 11.7248 13.7542C11.7008 14.0002 11.6767 14.247 11.649 14.4967V14.4997C11.6385 14.6572 11.6175 14.8162 11.6003 14.9707L11.5208 15.6705L11.517 15.6945C11.4547 16.4047 11.3783 17.1217 11.3055 17.8177C11.2748 18.1057 11.247 18.4012 11.2155 18.6967C11.1983 18.6442 11.178 18.591 11.16 18.5415C11.1072 18.3982 11.0564 18.2542 11.0078 18.1095L10.6365 17.0655L7.11225 7.12199" fill="white"/>
</svg>
