<svg width="48" height="48" viewBox="0 0 24 24" fill="none" xmlns="http://www.w3.org/2000/svg">
<path d="M12 24C5.37225 24 0 18.6277 0 12C0 5.37225 5.37225 0 12 0C18.6277 0 24 5.37225 24 12C24 18.6277 18.6277 24 12 24ZM12.7927 14.271V9.876H13.3702C15.279 9.876 15.7493 8.09625 15.7493 8.09625H10.737C8.358 8.09625 7.9545 9.87675 7.9545 9.87675H10.9117V16.4895C10.9117 16.4895 12.7927 15.9247 12.7927 14.271ZM18.2963 17.6955C19.9823 15.9435 20.6287 13.5105 20.022 11.1833C19.7018 9.96552 19.0593 8.85662 18.162 7.97325C18.081 7.89375 18 7.81275 17.9055 7.73325L17.8245 7.653C17.7695 7.59997 17.7109 7.55085 17.649 7.506L17.541 7.42575L17.3798 7.30575L17.2845 7.23825C17.2201 7.19609 17.1573 7.15156 17.0963 7.10475L16.974 7.02525C16.9232 6.98921 16.8692 6.95783 16.8127 6.9315L16.6912 6.85125C16.6372 6.82425 16.5832 6.78375 16.5292 6.7575L16.4078 6.69C16.3506 6.66053 16.2921 6.634 16.2322 6.6105L16.191 6.597C16.3395 6.717 16.4873 6.85125 16.6223 6.98475C17.2376 7.59485 17.726 8.32076 18.0593 9.1206C18.3926 9.92044 18.5642 10.7784 18.5642 11.6449C18.5642 12.5114 18.3926 13.3693 18.0593 14.1692C17.726 14.969 17.2376 15.6949 16.6223 16.305C13.3327 19.5675 7.9935 19.5675 4.7025 16.305C4.581 16.185 4.473 16.065 4.35225 15.945L4.25775 15.8378C4.18709 15.7556 4.11954 15.6708 4.05525 15.5835C4.47827 16.4131 5.02899 17.1711 5.68725 17.8298C9.12525 21.2393 14.7068 21.2393 18.1448 17.8298C18.2047 17.7966 18.2564 17.7505 18.2963 17.6948V17.6955ZM7.8 16.7895C7.64995 16.6671 7.50579 16.5378 7.368 16.4017C6.75205 15.7911 6.26313 15.0645 5.92948 14.2639C5.59583 13.4633 5.42405 12.6045 5.42405 11.7371C5.42405 10.8698 5.59583 10.011 5.92948 9.21038C6.26313 8.40977 6.75205 7.68316 7.368 7.0725C10.6613 3.807 16.005 3.807 19.2983 7.0725C19.5278 7.3005 19.743 7.54125 19.9455 7.7955C19.522 6.96937 18.971 6.21512 18.3127 5.5605C14.8717 2.14725 9.28425 2.14725 5.84325 5.5605C5.80275 5.60025 5.76225 5.65425 5.70825 5.694C3.4275 8.07675 3.117 11.637 4.9395 14.3408C5.655 15.3833 6.6525 16.2532 7.8 16.7895Z" fill="black"/>
</svg>
