<svg width="48" height="48" viewBox="0 0 24 24" fill="none" xmlns="http://www.w3.org/2000/svg">
<path fill-rule="evenodd" clip-rule="evenodd" d="M12 24C5.37225 24 0 18.6277 0 12C0 5.37225 5.37225 0 12 0C18.6277 0 24 5.37225 24 12C24 18.6277 18.6277 24 12 24ZM13.275 11.55H15.9V9.45H8.1V11.55H10.725V19.392C11.721 19.5626 12.7412 19.5315 13.725 19.3005V17.118C13.577 17.168 13.4268 17.2116 13.275 17.2485V11.55ZM14.325 19.1325C17.3288 18.1538 19.5 15.33 19.5 12C19.5 7.85775 16.1422 4.5 12 4.5C7.85775 4.5 4.5 7.85775 4.5 12C4.5 15.33 6.67125 18.1538 9.675 19.1325V16.875C8.56932 16.3476 7.67585 15.4598 7.14127 14.3576C6.60669 13.2553 6.46279 12.0041 6.73318 10.8093C7.00357 9.61443 7.67219 8.54705 8.62926 7.78237C9.58633 7.01769 10.775 6.60115 12 6.60115C13.225 6.60115 14.4137 7.01769 15.3707 7.78237C16.3278 8.54705 16.9964 9.61443 17.2668 10.8093C17.5372 12.0041 17.3933 13.2553 16.8587 14.3576C16.3242 15.4598 15.4307 16.3476 14.325 16.875V19.1325Z" fill="black"/>
</svg>
