<svg width="24" height="24" viewBox="0 0 24 24" fill="none" xmlns="http://www.w3.org/2000/svg">
<path d="M12 24C18.6274 24 24 18.6274 24 12C24 5.37258 18.6274 0 12 0C5.37258 0 0 5.37258 0 12C0 18.6274 5.37258 24 12 24Z" fill="#00EA90"/>
<path d="M13.6613 5.63098L19.494 8.68198L13.8743 12.1267L13.6613 5.63098V5.63098ZM10.3388 18.3367L4.50601 15.2857L10.1258 11.8402L10.3388 18.3367V18.3367Z" fill="white" fill-opacity="0.698"/>
<path d="M19.494 15.5093L11.3843 20.25V13.5983L19.494 8.682V15.5093V15.5093ZM4.50601 8.45925L12.6158 3.75V10.3755L4.50601 15.2858V8.4585V8.45925Z" fill="white"/>
</svg>
