<svg width="48" height="48" viewBox="0 0 24 24" fill="none" xmlns="http://www.w3.org/2000/svg">
<path fill-rule="evenodd" clip-rule="evenodd" d="M12 24C5.37225 24 0 18.6277 0 12C0 5.37225 5.37225 0 12 0C18.6277 0 24 5.37225 24 12C24 18.6277 18.6277 24 12 24ZM16.875 14.3655C16.875 12.4732 15.693 11.4045 12.9277 10.7385V7.4085C13.7827 7.584 14.601 7.95225 15.4012 8.5305L16.4205 6.8835C15.4165 6.14815 14.2373 5.68888 13.0005 5.5515V4.5H11.418V5.51625C9.144 5.69175 7.59825 6.9885 7.59825 8.88075C7.59825 10.8607 8.835 11.8245 11.4908 12.4905V15.9255C10.308 15.75 9.32625 15.2243 8.289 14.418L7.125 16.0125C8.37096 16.9717 9.85551 17.5718 11.418 17.748V19.5H13.0005V17.7653C15.3105 17.5725 16.875 16.293 16.875 14.3655ZM11.49 10.3702C10.0897 9.9675 9.74475 9.49425 9.74475 8.75775C9.74475 7.9875 10.3448 7.374 11.4908 7.28625L11.49 10.3702ZM14.7285 14.4877C14.7285 15.3292 14.0737 15.9075 12.9277 15.9952V12.8235C14.3467 13.227 14.7285 13.6995 14.7285 14.4885V14.4877Z" fill="black"/>
</svg>
