<svg width="24" height="24" viewBox="0 0 24 24" fill="none" xmlns="http://www.w3.org/2000/svg">
<path d="M12 24C18.6274 24 24 18.6274 24 12C24 5.37258 18.6274 0 12 0C5.37258 0 0 5.37258 0 12C0 18.6274 5.37258 24 12 24Z" fill="#3AA787"/>
<path d="M13.4813 10.401V8.616H17.5635V5.89575H6.447V8.616H10.53V10.3995C7.212 10.5518 4.7175 11.2095 4.7175 11.997C4.7175 12.7838 7.2135 13.4408 10.53 13.5945V19.3118H13.482V13.5938C16.794 13.4408 19.284 12.7838 19.284 11.9978C19.284 11.211 16.794 10.5548 13.482 10.4018L13.4813 10.401ZM13.482 13.1093V13.1078C12.9944 13.1328 12.5062 13.143 12.018 13.1385C11.256 13.1385 10.7205 13.1175 10.5315 13.107V13.11C7.59975 12.9803 5.412 12.4695 5.412 11.859C5.412 11.2478 7.6005 10.7378 10.5315 10.608V12.6015C10.7235 12.6143 11.2725 12.6465 12.0308 12.6465C12.9405 12.6465 13.3987 12.609 13.4827 12.6015V10.608C16.4078 10.7385 18.591 11.2493 18.591 11.8583C18.591 12.4665 16.407 12.978 13.4827 13.1078" fill="white"/>
</svg>
