<svg width="48" height="48" viewBox="0 0 24 24" fill="none" xmlns="http://www.w3.org/2000/svg">
<path fill-rule="evenodd" clip-rule="evenodd" d="M12 24C5.37225 24 0 18.6277 0 12C0 5.37225 5.37225 0 12 0C18.6277 0 24 5.37225 24 12C24 18.6277 18.6277 24 12 24ZM10.7647 16.7235H13.2352V6.771H16.125V4.5H7.875V6.771H10.7647V16.7235ZM10.0995 19.5H13.9275C15.4185 19.5 16.125 18.783 16.125 17.2665V7.422H13.9553V17.166C13.9553 17.406 13.8765 17.4855 13.641 17.4855H10.386C10.1512 17.4855 10.0725 17.4053 10.0725 17.166V7.422H7.90275V17.2665C7.90275 18.783 8.60775 19.5 10.1003 19.5H10.0995Z" fill="black"/>
</svg>
