<svg width="24" height="24" viewBox="0 0 24 24" fill="none" xmlns="http://www.w3.org/2000/svg">
<path d="M12 24C18.6274 24 24 18.6274 24 12C24 5.37258 18.6274 0 12 0C5.37258 0 0 5.37258 0 12C0 18.6274 5.37258 24 12 24Z" fill="#15BDFF"/>
<path d="M11.0535 18.5505L5.27999 6.7845C5.25894 6.74116 5.24922 6.69318 5.25175 6.64506C5.25427 6.59694 5.26896 6.55025 5.29443 6.50935C5.3199 6.46844 5.35533 6.43466 5.3974 6.41117C5.43947 6.38768 5.48681 6.37523 5.53499 6.375H7.53599C7.64324 6.375 7.74374 6.435 7.79099 6.5295L12.0075 15.0652C12.3825 15.8302 13.4707 15.8302 13.8465 15.0652L18.0495 6.53625C18.0737 6.48957 18.1103 6.45047 18.1553 6.42322C18.2003 6.39596 18.2519 6.38162 18.3045 6.38175H18.5535C18.7012 6.38175 18.795 6.53625 18.7282 6.66375L12.8932 18.5513C12.5175 19.3163 11.43 19.3163 11.0535 18.5513V18.5505Z" fill="white"/>
</svg>
