<svg width="48" height="48" viewBox="0 0 24 24" fill="none" xmlns="http://www.w3.org/2000/svg">
<path d="M12 24C5.37225 24 0 18.6277 0 12C0 5.37225 5.37225 0 12 0C18.6277 0 24 5.37225 24 12C24 18.6277 18.6277 24 12 24ZM4.5 6V6.0075C5.38125 9.93 6.2625 13.8525 7.14525 17.7735H10.128L12.7733 6H10.3702L8.94225 13.275C8.8395 13.7663 8.76225 14.265 8.63925 14.7525C8.60628 14.6307 8.57726 14.5079 8.55225 14.3843L6.98475 6C6.156 6.00225 5.32725 6.00225 4.5 6ZM13.7355 9.699V9.69825C13.1407 10.4242 12.975 11.3948 12.9053 12.3113C12.8528 13.251 12.8595 14.1975 12.9705 15.1328C13.0815 15.945 13.3613 16.7925 14.0025 17.3273C14.6925 17.91 15.6322 18.0278 16.4977 17.9948C17.2942 17.9625 18.1358 17.697 18.6578 17.0475C19.1783 16.4227 19.3252 15.5827 19.3702 14.7877H17.3723C17.3003 15.267 17.2312 15.7905 16.9012 16.164C16.6537 16.437 16.2457 16.509 15.9067 16.3987C15.5887 16.2847 15.3892 15.975 15.2812 15.6622C15.0592 15.0285 15.1013 14.3453 15.0983 13.6838H19.5C19.5008 12.7875 19.491 11.8838 19.3027 11.0063C19.1475 10.3043 18.8205 9.59925 18.2242 9.18225C17.5507 8.70825 16.6942 8.63625 15.8992 8.69175C15.0937 8.74425 14.2582 9.042 13.7355 9.699V9.699ZM15.441 10.6328H15.4418C15.813 10.0763 16.785 10.0777 17.0917 10.6995C17.34 11.202 17.3363 11.7833 17.3715 12.333H15.0975C15.0915 11.7548 15.1005 11.1233 15.441 10.6328V10.6328Z" fill="black"/>
</svg>
