<svg width="48" height="48" viewBox="0 0 24 24" fill="none" xmlns="http://www.w3.org/2000/svg">
<path fill-rule="evenodd" clip-rule="evenodd" d="M12 24C5.37225 24 0 18.6277 0 12C0 5.37225 5.37225 0 12 0C18.6277 0 24 5.37225 24 12C24 18.6277 18.6277 24 12 24ZM11.0535 18.5505C11.43 19.3162 12.5175 19.3162 12.8932 18.5505L18.7283 6.66375C18.7435 6.63405 18.7509 6.6009 18.7495 6.56753C18.7482 6.53416 18.7383 6.5017 18.7207 6.47331C18.7031 6.44492 18.6784 6.42156 18.6491 6.40552C18.6198 6.38948 18.5869 6.38129 18.5535 6.38175H18.3052C18.2527 6.38162 18.201 6.39596 18.1561 6.42322C18.1111 6.45047 18.0745 6.48957 18.0502 6.53625L13.8465 15.0652C13.4715 15.8302 12.3833 15.8302 12.0075 15.0652L7.791 6.5295C7.76677 6.48282 7.73016 6.44372 7.68518 6.41647C7.6402 6.38921 7.58859 6.37487 7.536 6.375H5.535C5.48681 6.37523 5.43947 6.38768 5.39741 6.41117C5.35534 6.43466 5.31991 6.46844 5.29444 6.50935C5.26897 6.55025 5.25428 6.59694 5.25176 6.64506C5.24923 6.69318 5.25895 6.74116 5.28 6.7845L11.0535 18.5505Z" fill="black"/>
</svg>
