<svg width="48" height="48" viewBox="0 0 24 24" fill="none" xmlns="http://www.w3.org/2000/svg">
<path fill-rule="evenodd" clip-rule="evenodd" d="M8.34975 10.722L8.913 12.192L6.0075 12.1733L6 13.4625L9.408 13.4843L12 20.25L14.58 13.5165L17.9925 13.5383L18 12.249L15.072 12.231L15.6495 10.722H17.9963V9.43275H16.1437L17.5657 5.72025L16.392 5.25L13.722 12.222L10.2705 12.2003L7.608 5.25L6.43425 5.72025L7.85625 9.43275H6.00375V10.7227L8.34975 10.722ZM10.7647 13.4925L13.2285 13.5075L12 16.7167L10.7647 13.4925ZM12 24C5.37225 24 0 18.6277 0 12C0 5.37225 5.37225 0 12 0C18.6277 0 24 5.37225 24 12C24 18.6277 18.6277 24 12 24Z" fill="black"/>
</svg>
