<svg width="24" height="24" viewBox="0 0 24 24" fill="none" xmlns="http://www.w3.org/2000/svg">
<path d="M12 24C18.6274 24 24 18.6274 24 12C24 5.37258 18.6274 0 12 0C5.37258 0 0 5.37258 0 12C0 18.6274 5.37258 24 12 24Z" fill="#565656"/>
<path d="M8.34975 10.722H6.00375V9.43275H7.85625L6.435 5.72025L7.608 5.25L10.2705 12.2003L13.7213 12.2228L16.392 5.25L17.5657 5.72025L16.1437 9.43275H17.9963V10.7227H15.6503L15.072 12.2302L18 12.249L17.9925 13.5383L14.58 13.5165L12 20.25L9.408 13.4843L6 13.4617L6.0075 12.1733L8.913 12.192L8.34975 10.722ZM10.7647 13.4925L12 16.716L13.2285 13.5082L10.7647 13.4925Z" fill="white"/>
</svg>
