<svg width="24" height="24" viewBox="0 0 24 24" fill="none" xmlns="http://www.w3.org/2000/svg">
<path d="M12 24C18.6274 24 24 18.6274 24 12C24 5.37258 18.6274 0 12 0C5.37258 0 0 5.37258 0 12C0 18.6274 5.37258 24 12 24Z" fill="#418BCA"/>
<path d="M15.1987 6H18.75L12 19.5L5.25 6H8.778L12.0233 12.8348L15.1987 6ZM12 9.71925C11.409 9.71925 10.9297 9.22725 10.9297 8.6205C10.9297 8.01375 11.409 7.521 12 7.521C12.591 7.521 13.0703 8.01375 13.0703 8.6205C13.0703 9.22725 12.5903 9.71925 12 9.71925ZM16.8488 12.7493C17.4398 12.7493 17.919 13.242 17.9183 13.8488C17.9183 14.4563 17.4398 14.9475 16.8488 14.9475C16.2578 14.9475 15.7785 14.4555 15.7785 13.8488C15.7785 13.242 16.2578 12.75 16.8488 12.75V12.7493Z" fill="white"/>
</svg>
