<svg width="48" height="48" viewBox="0 0 24 24" fill="none" xmlns="http://www.w3.org/2000/svg">
<path d="M12 24C5.37225 24 0 18.6277 0 12C0 5.37225 5.37225 0 12 0C18.6277 0 24 5.37225 24 12C24 18.6277 18.6277 24 12 24ZM20.9235 10.8953C20.7066 9.14725 19.9817 7.50129 18.8385 6.16125C18.0386 5.22072 17.0517 4.45702 15.9405 3.91875C14.4491 3.19045 12.7849 2.89006 11.133 3.051C9.60108 3.19914 8.13286 3.73818 6.86901 4.61647C5.60515 5.49476 4.588 6.68288 3.915 8.067C3.11197 9.71982 2.83352 11.5787 3.117 13.3942C3.38826 15.1289 4.16278 16.7457 5.3445 18.0443C7.02825 19.9208 9.53775 21.018 12.0585 20.9888C13.3274 20.9807 14.5802 20.7041 15.7346 20.1771C16.889 19.6501 17.9187 18.8848 18.7561 17.9314C19.5934 16.978 20.2195 15.8581 20.5931 14.6454C20.9666 13.4326 21.0792 12.1546 20.9235 10.8953V10.8953ZM18.183 8.95275C18.1419 9.01006 18.1063 9.07107 18.0765 9.135L14.118 17.4735C13.9282 17.8718 13.7377 18.2745 13.5217 18.6585C12.5415 18.651 11.5613 18.6547 10.5803 18.6547C9.018 15.4387 7.46325 12.2198 5.89725 9.0075C5.865 8.94525 5.832 8.87925 5.799 8.817C5.8245 8.799 5.883 8.766 5.9085 8.751C6.51975 7.9905 7.1385 7.233 7.75275 6.47175C7.82925 6.3735 7.91775 6.27825 8.00475 6.1905C8.04525 6.25575 8.085 6.32175 8.118 6.39525C8.45994 7.1806 8.80494 7.9646 9.153 8.74725C9.5055 8.74725 9.85575 8.75475 10.2105 8.73225C10.3388 8.85375 10.4085 9.015 10.4595 9.17925C10.5255 9.01125 10.551 8.832 10.5585 8.649C10.6718 7.599 10.6905 6.53775 10.8037 5.48775C10.8217 5.26125 11.1622 5.26125 11.1915 5.48025C11.301 6.4755 11.3265 7.482 11.4075 8.48025C11.4225 8.78025 11.433 9.08025 11.499 9.37275C11.649 9.1755 11.601 8.82825 11.8755 8.74725C12.1027 8.67075 12.3585 8.799 12.5745 8.66325C12.8708 8.484 12.9802 8.133 13.167 7.8585C13.2735 7.67925 13.518 7.551 13.716 7.65375C13.9133 7.73025 13.9972 7.9425 14.1 8.11125C14.217 8.30475 14.3235 8.52075 14.5132 8.649C14.682 8.72175 14.8717 8.733 15.0547 8.72925C15.4245 7.89525 15.8048 7.06425 16.182 6.234C16.8405 7.06125 17.4622 7.914 18.1207 8.7405C18.2197 8.784 18.2377 8.8575 18.183 8.95275V8.95275ZM13.5555 7.90575C13.2585 8.22825 13.1527 8.74725 12.7095 8.91225C12.483 9.02175 12.2085 8.93025 11.982 9.015C11.784 9.40275 11.8095 9.8595 11.6595 10.2622C11.5575 10.4527 11.25 10.3575 11.25 10.149C11.1225 9.05475 11.1113 7.95 10.9943 6.8565C10.8698 7.8405 10.8368 8.835 10.683 9.8115C10.683 10.065 10.284 10.1048 10.248 9.85275C10.1707 9.56775 10.1527 9.26775 10.0095 9C9.76201 8.99634 9.51449 8.99634 9.267 9C10.2 11.115 11.1255 13.2292 12.0585 15.3442C13.0027 13.2292 13.9793 11.1293 14.916 9.01125L14.9197 9.00375C14.6745 8.97375 14.4075 8.949 14.2028 8.79525C13.9178 8.5575 13.8075 8.1765 13.5547 7.90575H13.5555Z" fill="black"/>
</svg>
