<svg width="24" height="24" viewBox="0 0 24 24" fill="none" xmlns="http://www.w3.org/2000/svg">
<path d="M12 24C18.6274 24 24 18.6274 24 12C24 5.37258 18.6274 0 12 0C5.37258 0 0 5.37258 0 12C0 18.6274 5.37258 24 12 24Z" fill="#048657"/>
<path d="M1.974 12.4275L3.4365 10.7617H8.64L11.8372 14.8402L20.2035 3.25049C20.7171 3.71399 21.1843 4.22641 21.5985 4.78049C22.029 5.35274 22.4032 5.96474 22.7205 6.61499L12.4492 20.8222C12.255 21.0262 12.051 21.1282 11.8372 21.1282C11.6227 21.1282 11.4075 21.0262 11.1907 20.8222L4.695 12.4267H1.974V12.4275Z" fill="white"/>
</svg>
