<svg width="48" height="48" viewBox="0 0 24 24" fill="none" xmlns="http://www.w3.org/2000/svg">
<path fill-rule="evenodd" clip-rule="evenodd" d="M12 24C5.37225 24 0 18.6277 0 12C0 5.37225 5.37225 0 12 0C18.6277 0 24 5.37225 24 12C24 18.6277 18.6277 24 12 24ZM5.25 8.3175V17.298L12 13.3118L18.75 17.298V8.3175L16.7955 9.165V13.9297L12 11.0895L7.25025 13.9297V9.165L5.25 8.3175ZM5.47725 7.95075L7.25025 8.68425L12 5.91225L16.7955 8.68425L18.5685 7.95075L12 4.125L5.47725 7.95075V7.95075ZM6.8865 16.8165L12.0225 19.875L17.1592 16.8165L15.6368 15.969L12.0225 18.0878L8.364 15.969L6.8865 16.8165V16.8165Z" fill="black"/>
</svg>
