<svg width="48" height="48" viewBox="0 0 24 24" fill="none" xmlns="http://www.w3.org/2000/svg">
<path fill-rule="evenodd" clip-rule="evenodd" d="M12 24C5.37225 24 0 18.6277 0 12C0 5.37225 5.37225 0 12 0C18.6277 0 24 5.37225 24 12C24 18.6277 18.6277 24 12 24ZM21 14.2215L15.387 9.375H13.6058L17.0745 12.3735L15.9788 13.3162L13.6995 10.5352H12.192L9.453 13.869L9.1545 14.2335L10.4955 10.5413H9.2775L8.3895 13.035L7.5 10.542H6L5.109 13.041L4.215 10.5315H3L4.32975 14.2147H5.91375L6.75 11.8672L7.593 14.2335H9.153L8.22 15.375H9.71775L12.9465 11.4442L13.8713 12.5753H12.657L12.0322 13.347H14.5012L15.2175 14.217H16.716L17.9692 13.1445L19.227 14.2215H21ZM19.2413 11.9925L20.928 10.566L19.2397 10.5645L18.405 11.2755L19.2413 11.9925Z" fill="black"/>
</svg>
