<svg width="24" height="24" viewBox="0 0 24 24" fill="none" xmlns="http://www.w3.org/2000/svg">
<path d="M12 24C18.6274 24 24 18.6274 24 12C24 5.37258 18.6274 0 12 0C5.37258 0 0 5.37258 0 12C0 18.6274 5.37258 24 12 24Z" fill="#B80000"/>
<path d="M19.4198 8.54025C19.5368 8.739 19.521 8.9475 19.4048 9.1515C19.2308 9.429 19.0703 9.71175 18.9045 9.9915C18.45 10.7685 17.9955 11.5455 17.5395 12.3225C16.6294 13.8685 15.7184 15.414 14.8065 16.959C14.7554 17.0539 14.6778 17.132 14.5831 17.1835C14.4884 17.235 14.3807 17.2579 14.2733 17.2493C14.043 17.2388 13.8795 17.1248 13.7708 16.926C13.659 16.7273 13.5428 16.5308 13.4258 16.3328C13.0433 15.6788 12.6593 15.0263 12.276 14.3745C12.1905 14.2268 12.1028 14.082 12.0045 13.9185C11.9085 14.0813 11.8178 14.226 11.7323 14.3745L10.5825 16.332C10.4655 16.5285 10.3493 16.7273 10.2375 16.926C10.1288 17.1248 9.96601 17.2388 9.73501 17.2493C9.62762 17.2573 9.52018 17.2342 9.42559 17.1827C9.331 17.1313 9.25328 17.0536 9.20176 16.959C8.76901 16.2307 8.34151 15.5025 7.91176 14.7712C7.42911 13.956 6.94811 13.1397 6.46876 12.3225C6.01501 11.5455 5.55976 10.7685 5.10376 9.9915C4.93876 9.71175 4.77526 9.429 4.60426 9.1515C4.47976 8.9475 4.46176 8.739 4.57801 8.54025C4.69201 8.3445 4.87576 8.25 5.11201 8.25C6.58801 8.25525 8.06476 8.265 9.54076 8.25225C9.91351 8.25 10.1363 8.3925 10.3103 8.703C10.683 9.36825 11.0798 10.017 11.463 10.6747C11.6235 10.9522 11.7818 11.232 11.9445 11.5095C11.9573 11.5297 11.9783 11.5455 11.997 11.5627C12.017 11.5485 12.0343 11.5307 12.048 11.5103C12.2093 11.2328 12.3668 10.9522 12.5303 10.6747C12.9158 10.017 13.3103 9.36525 13.683 8.703C13.8563 8.3925 14.079 8.25 14.4518 8.253C15.9285 8.265 17.4045 8.25525 18.8813 8.25C19.122 8.25 19.3058 8.3445 19.4198 8.54025V8.54025ZM11.2875 12.8565C11.3183 12.8055 11.316 12.714 11.2898 12.6608C11.2148 12.5078 11.1158 12.363 11.028 12.2123C10.5 11.3108 9.97126 10.4123 9.44551 9.5085C9.39151 9.41625 9.32926 9.38325 9.22051 9.38325C8.23651 9.3885 7.25176 9.3885 6.26776 9.39075C6.22126 9.39075 6.17476 9.39825 6.10726 9.4035C7.30876 11.4533 8.49976 13.488 9.70501 15.543C9.80851 15.3705 9.89626 15.2325 9.97951 15.09C10.419 14.3475 10.8548 13.6028 11.2875 12.8565ZM14.295 15.543C15.4988 13.488 16.6905 11.4533 17.895 9.4035C17.8253 9.39825 17.781 9.39075 17.7345 9.39075C16.7498 9.3885 15.7658 9.3885 14.7818 9.38325C14.673 9.38325 14.6108 9.41625 14.5568 9.50775C14.0299 10.4096 13.5024 11.3111 12.9743 12.2123C12.8858 12.36 12.7898 12.5048 12.7118 12.6608C12.6977 12.6915 12.6905 12.7248 12.6905 12.7586C12.6905 12.7924 12.6977 12.8258 12.7118 12.8565C13.1468 13.602 13.5825 14.3468 14.0205 15.09C14.103 15.2325 14.1915 15.3728 14.295 15.543Z" fill="white"/>
</svg>
