<svg width="48" height="48" viewBox="0 0 24 24" fill="none" xmlns="http://www.w3.org/2000/svg">
<path fill-rule="evenodd" clip-rule="evenodd" d="M12 24C5.37225 24 0 18.6277 0 12C0 5.37225 5.37225 0 12 0C18.6277 0 24 5.37225 24 12C24 18.6277 18.6277 24 12 24ZM19.4197 8.54025C19.3057 8.3445 19.122 8.25 18.8812 8.25C17.4045 8.25525 15.9285 8.265 14.4517 8.25225C14.079 8.25 13.8562 8.3925 13.683 8.703C13.3095 9.36525 12.9158 10.017 12.5303 10.6747C12.3668 10.9522 12.2092 11.232 12.048 11.5095C12.0342 11.5303 12.0166 11.5483 11.9962 11.5627C11.9782 11.5455 11.9572 11.5298 11.9445 11.5103C11.7817 11.232 11.6235 10.9522 11.463 10.6747C11.0798 10.017 10.683 9.36825 10.3102 8.703C10.1362 8.3925 9.9135 8.25 9.54075 8.253C8.06475 8.265 6.588 8.25525 5.112 8.25C4.87575 8.25 4.692 8.3445 4.578 8.54025C4.46175 8.739 4.47975 8.9475 4.60425 9.1515C4.77525 9.429 4.938 9.71175 5.10375 9.9915C5.55975 10.7685 6.015 11.5455 6.46875 12.3225C6.94875 13.14 7.42875 13.956 7.91175 14.7712C8.3415 15.5025 8.769 16.2307 9.20175 16.959C9.321 17.1577 9.4995 17.259 9.735 17.2493C9.966 17.2388 10.1287 17.1248 10.2375 16.926C10.3492 16.7273 10.4655 16.5285 10.5825 16.3328L11.7322 14.3745C11.8177 14.2268 11.9085 14.082 12.0045 13.9185C12.102 14.0813 12.1905 14.226 12.276 14.3745L13.4265 16.332C13.5428 16.5307 13.659 16.7273 13.7708 16.926C13.8795 17.1248 14.043 17.2388 14.2733 17.2493C14.3807 17.2579 14.4884 17.235 14.5831 17.1835C14.6778 17.132 14.7554 17.0539 14.8065 16.959C16.1762 14.6387 17.5422 12.3162 18.9045 9.9915C19.0702 9.71175 19.2307 9.429 19.404 9.1515C19.521 8.9475 19.5367 8.739 19.4197 8.54025V8.54025ZM11.2875 12.8565C10.8548 13.6028 10.419 14.3475 9.9795 15.09C9.897 15.2325 9.8085 15.3705 9.705 15.543L6.10725 9.4035C6.17475 9.39825 6.22125 9.39075 6.26775 9.39075C7.25175 9.3885 8.2365 9.3885 9.2205 9.38325C9.32925 9.38325 9.3915 9.41625 9.4455 9.5085C9.97125 10.4123 10.5 11.3108 11.028 12.2123C11.1158 12.3623 11.2148 12.5078 11.2898 12.6608C11.3035 12.6916 11.3104 12.7251 11.31 12.7589C11.3096 12.7927 11.3019 12.826 11.2875 12.8565V12.8565ZM14.295 15.543C14.1915 15.3728 14.103 15.2325 14.0205 15.09C13.5828 14.3465 13.1468 13.602 12.7125 12.8565C12.6985 12.8258 12.6912 12.7924 12.6912 12.7586C12.6912 12.7248 12.6985 12.6915 12.7125 12.6608C12.7898 12.5055 12.8857 12.3608 12.9742 12.2123C13.5024 11.3111 14.0299 10.4096 14.5568 9.50775C14.6108 9.41625 14.673 9.38325 14.7817 9.38325C15.7657 9.3885 16.7497 9.3885 17.7345 9.39075C17.781 9.39075 17.8245 9.39825 17.895 9.4035C16.6905 11.4533 15.4987 13.488 14.295 15.543Z" fill="black"/>
</svg>
