<svg width="48" height="48" viewBox="0 0 24 24" fill="none" xmlns="http://www.w3.org/2000/svg">
<path d="M12 24C5.37225 24 0 18.6277 0 12C0 5.37225 5.37225 0 12 0C18.6277 0 24 5.37225 24 12C24 18.6277 18.6277 24 12 24ZM11.43 3C9.21739 3.1481 7.13629 4.10386 5.58213 5.68567C4.02796 7.26749 3.10905 9.36513 3 11.58V12.42C3.10518 14.6565 4.03888 16.7739 5.61933 18.3599C7.19977 19.9459 9.31385 20.887 11.55 21H12.435C14.6364 20.8905 16.7197 19.9717 18.285 18.42C19.8286 16.8919 20.7483 14.844 20.865 12.675L20.895 11.745C20.9011 11.6625 20.8745 11.5809 20.8212 11.5176C20.7678 11.4544 20.6917 11.4146 20.6094 11.4068C20.527 11.3989 20.4448 11.4237 20.3804 11.4757C20.3161 11.5277 20.2746 11.6028 20.265 11.685C20.2275 12.246 20.142 12.8032 20.01 13.35C19.7239 14.7213 19.087 15.9949 18.1616 17.0466C17.2361 18.0982 16.0538 18.8918 14.73 19.35C13.1116 19.9136 11.3535 19.9339 9.72256 19.4078C8.0916 18.8816 6.67676 17.8379 5.69276 16.4348C4.70875 15.0317 4.20928 13.346 4.27014 11.6334C4.33101 9.92071 4.94888 8.27467 6.03 6.945C7.35406 5.33601 9.25012 4.30272 11.3199 4.06217C13.3897 3.82163 15.4722 4.39254 17.13 5.655C17.325 5.79 17.52 6.015 17.775 5.955C18.075 5.85 18.075 5.445 17.82 5.28C16.3228 3.90457 14.3907 3.09775 12.36 3H11.43ZM18.75 7.665H18.765C18.36 8.025 18.45 8.595 18.525 9.075C17.85 10.53 16.845 11.805 15.75 12.96L15.3 12.99C14.8529 12.5103 14.4835 11.9637 14.205 11.37C14.385 10.935 14.49 10.395 14.175 9.99C13.755 9.33 12.675 9.345 12.27 10.005C12 10.38 12.075 10.845 12.195 11.25C11.5584 12.6302 10.6795 13.885 9.6 14.955C8.60691 13.7704 7.81167 12.4332 7.245 10.995C7.59 10.38 7.395 9.48 6.69 9.225C5.895 8.85 4.935 9.66 5.13 10.5C5.205 11.115 5.82 11.46 6.405 11.49C7.33786 12.6652 8.07716 13.9818 8.595 15.39C8.415 15.855 8.37 16.41 8.715 16.8C9.18 17.37 10.17 17.31 10.545 16.695C10.83 16.335 10.755 15.855 10.65 15.45C11.2656 14.1196 12.0799 12.8906 13.065 11.805L13.515 11.79C13.9746 12.2604 14.3545 12.8025 14.64 13.395C14.445 13.86 14.34 14.445 14.715 14.865C15.225 15.525 16.395 15.36 16.665 14.565C16.89 14.16 16.53 13.65 16.815 13.26C17.52 11.955 18.345 10.71 19.38 9.66C20.16 9.72 20.925 9.045 20.73 8.25C20.595 7.365 19.35 7.005 18.75 7.665V7.665Z" fill="black"/>
</svg>
