<svg width="48" height="48" viewBox="0 0 24 24" fill="none" xmlns="http://www.w3.org/2000/svg">
<path fill-rule="evenodd" clip-rule="evenodd" d="M12.6713 12.9742L6.2025 17.9948L16.5 13.5885L17.097 13.335L17.0963 13.3328L18.06 12.9202L18.1088 10.4723L19.5 10.857L18.4395 8.4975L15.576 10.7198L13.5367 7.21425L4.5 6.75L11.3872 8.59575L11.562 9.192L5.541 8.88225L10.959 10.3335L11.8943 13.5773L12.6713 12.9742ZM12 24C5.37225 24 0 18.6277 0 12C0 5.37225 5.37225 0 12 0C18.6277 0 24 5.37225 24 12C24 18.6277 18.6277 24 12 24Z" fill="black"/>
<path d="M12.6712 12.9743L11.8943 13.5773L10.959 10.3335L5.541 8.88226L11.562 9.19201L12.6712 12.9743Z" fill="black" fill-opacity="0.7"/>
<path d="M12.6712 12.9742L13.2547 14.9632L16.5 13.5885L6.2025 17.9947L12.6712 12.9742ZM15.576 10.7197L18.4395 8.4975L19.5 10.857L18.1088 10.4722L18.06 12.9202L17.0962 13.3327L15.576 10.7197Z" fill="black" fill-opacity="0.3"/>
</svg>
