<svg width="24" height="24" viewBox="0 0 24 24" fill="none" xmlns="http://www.w3.org/2000/svg">
<path d="M12 24C18.6274 24 24 18.6274 24 12C24 5.37258 18.6274 0 12 0C5.37258 0 0 5.37258 0 12C0 18.6274 5.37258 24 12 24Z" fill="#0DC9F7"/>
<path d="M14.178 11.8042L11.8942 13.5772L10.959 10.3335L5.54099 8.8822L12.6517 9.24745L14.178 11.8042Z" fill="white" fill-opacity="0.305"/>
<path d="M6.20251 17.9948L18.4395 8.49756L19.5 10.8571L18.1088 10.4723L18.06 12.9203L6.20251 17.9948Z" fill="white" fill-opacity="0.7"/>
<path d="M17.097 13.335L13.5367 7.21425L4.5 6.75L11.3872 8.59575L13.2548 14.9633L17.097 13.335Z" fill="white"/>
</svg>
