<svg width="48" height="48" viewBox="0 0 24 24" fill="none" xmlns="http://www.w3.org/2000/svg">
<g clip-path="url(#clip0)">
<path fill-rule="evenodd" clip-rule="evenodd" d="M2.99475 4.06876L6.63525 17.1053L6.6615 17.2178H9.801L11.2035 12.0188L12.606 17.2178H15.7447L15.7717 17.1053L17.2417 11.7968L19.818 21.1043C17.644 22.9765 14.8691 24.0043 12 24C5.37225 24 -3.23165e-06 18.6278 -3.23165e-06 12C-0.00414418 9.0792 1.06114 6.25791 2.99475 4.06876V4.06876ZM4.98225 2.26501C7.0241 0.788836 9.48042 -0.00394829 12 1.47862e-05C18.6277 1.47862e-05 24 5.37226 24 12C24.0039 14.5218 23.2097 16.9801 21.7312 19.023L18.6757 7.98751L18.6495 7.87502H15.837L14.085 14.2035L12.6052 7.87502H9.801L8.32125 14.2035L4.9815 2.26501H4.98225Z" fill="black"/>
</g>
<defs>
<clipPath id="clip0">
<rect width="48" height="48" fill="white"/>
</clipPath>
</defs>
</svg>
