<svg width="24" height="24" viewBox="0 0 24 24" fill="none" xmlns="http://www.w3.org/2000/svg">
<path d="M12 24C18.6274 24 24 18.6274 24 12C24 5.37258 18.6274 0 12 0C5.37258 0 0 5.37258 0 12C0 18.6274 5.37258 24 12 24Z" fill="#8200FF"/>
<path fill-rule="evenodd" clip-rule="evenodd" d="M13.8105 9.87455L13.3005 9.9998C12.84 10.1123 12.5175 10.5173 12.5175 10.9823V14.3858L10.8322 14.7983C10.7002 14.8317 10.5603 14.8116 10.443 14.7426C10.3256 14.6735 10.2402 14.5609 10.2053 14.4293C10.1951 14.3891 10.1901 14.3478 10.1902 14.3063V8.64005C10.1902 8.40755 10.3515 8.20505 10.5818 8.14805L13.1677 7.51505C13.2998 7.48167 13.4397 7.5017 13.557 7.57077C13.6744 7.63985 13.7598 7.75241 13.7947 7.88405C13.8052 7.9238 13.8098 7.96505 13.8098 8.0063V9.87455H13.8105ZM8.121 9.84305L7.482 9.9998C7.0215 10.1123 6.69825 10.5173 6.69825 10.9823V14.4173L5.14275 14.7983C5.01071 14.8317 4.87084 14.8116 4.75346 14.7426C4.63609 14.6735 4.55068 14.5609 4.51575 14.4293C4.50538 14.3891 4.50009 14.3478 4.5 14.3063V8.64005C4.5 8.40755 4.66125 8.20505 4.8915 8.14805L7.47825 7.51505C7.61029 7.48167 7.75016 7.5017 7.86754 7.57077C7.98491 7.63985 8.07032 7.75241 8.10525 7.88405C8.11575 7.9238 8.12025 7.96505 8.12025 8.0063V9.8438L8.121 9.84305ZM16.2712 8.1638L18.8572 7.5308C18.9892 7.4974 19.129 7.51732 19.2463 7.58624C19.3637 7.65517 19.4492 7.76755 19.4843 7.89905C19.4948 7.93955 19.5 7.9808 19.5 8.02205V13.689C19.5 13.9215 19.3388 14.124 19.1085 14.1803L16.5217 14.8133C16.3898 14.8467 16.25 14.8268 16.1327 14.7579C16.0153 14.6889 15.9298 14.5765 15.8948 14.445C15.8846 14.4048 15.8796 14.3635 15.8798 14.322V8.65505C15.8798 8.42255 16.041 8.22005 16.2712 8.1638V8.1638Z" fill="white"/>
<path opacity="0.504" fill-rule="evenodd" clip-rule="evenodd" d="M9.67276 9.98547V14.3062C9.67276 14.3887 9.68251 14.4712 9.70276 14.5522C9.83176 15.0547 10.3238 15.3757 10.836 15.312V16.0162C10.836 16.2487 10.6748 16.4512 10.4445 16.5075L7.85851 17.1405C7.72647 17.1741 7.58649 17.1543 7.46897 17.0853C7.35144 17.0164 7.26585 16.9039 7.23076 16.7722C7.22065 16.732 7.21561 16.6907 7.21576 16.6492V10.9822C7.21576 10.7497 7.37701 10.5472 7.60726 10.491L9.67276 9.98547V9.98547ZM15.3623 10.017V14.322C15.3623 14.4045 15.3728 14.487 15.3923 14.568C15.5318 15.1102 16.0935 15.4402 16.6478 15.3045L16.6553 15.303V16.0155C16.6553 16.248 16.494 16.4505 16.2638 16.5075L13.677 17.1405C13.5451 17.1739 13.4053 17.154 13.2879 17.085C13.1706 17.0161 13.0851 16.9037 13.05 16.7722C13.0399 16.732 13.0349 16.6907 13.035 16.6492V10.9822C13.035 10.7497 13.1963 10.5472 13.4265 10.491L15.3615 10.017H15.3623Z" fill="white"/>
</svg>
