<svg width="48" height="48" viewBox="0 0 24 24" fill="none" xmlns="http://www.w3.org/2000/svg">
<path fill-rule="evenodd" clip-rule="evenodd" d="M12 24C5.37225 24 0 18.6277 0 12C0 5.37225 5.37225 0 12 0C18.6277 0 24 5.37225 24 12C24 18.6277 18.6277 24 12 24ZM19.494 10.8532L19.5 10.8525L16.6305 6.006L16.632 6.00075H7.4415L7.443 6.00675L7.4415 6.00525L4.5 10.9222L4.52925 10.9268L4.50525 10.9365L12.0728 19.5L12.3923 19.11L19.494 10.8532ZM9.642 11.1975L14.4592 11.1892L16.0507 13.9155L12.0285 18.537L8.01375 13.953L9.642 11.1975ZM7.5585 13.4325L5.607 11.2035L8.87775 11.1982L7.5585 13.4325ZM14.8508 10.548L12.5723 6.64425L16.2345 6.63675L18.567 10.542L14.8508 10.548ZM18.429 11.1825L16.509 13.389L15.2242 11.1877L18.429 11.1825ZM14.0858 10.5495L10.0208 10.5562L12.0675 7.09125L14.0858 10.5495ZM7.7865 6.654L11.5665 6.6465L9.2565 10.557L5.4615 10.5638L7.7865 6.654Z" fill="black"/>
</svg>
