<svg width="48" height="48" viewBox="0 0 24 24" fill="none" xmlns="http://www.w3.org/2000/svg">
<path fill-rule="evenodd" clip-rule="evenodd" d="M19.4827 14.8155L21.12 15.2242L21.3923 14.1323L19.755 13.7242L20.163 12.087L19.071 11.8148L18.663 13.452L17.0258 13.044L16.7535 14.1353L18.3907 14.544L17.9827 16.1813L19.074 16.4535L19.4827 14.8155ZM12 24C5.37225 24 0 18.6277 0 12C0 5.37225 5.37225 0 12 0C18.6277 0 24 5.37225 24 12C24 18.6277 18.6277 24 12 24ZM15.4583 10.32C15.6683 8.937 14.6407 8.2005 13.2345 7.71225L13.7017 5.838L12.5865 5.5605L12.132 7.38525C11.8351 7.31182 11.5373 7.24182 11.2387 7.17525L11.6963 5.33775L10.5825 5.06025L10.1145 6.93375C9.8767 6.88038 9.63943 6.82463 9.40275 6.7665L9.40425 6.76125L7.86675 6.37725L7.563 7.59525C7.563 7.59525 8.39025 7.785 8.373 7.797C8.8245 7.9095 8.90475 8.21475 8.88975 8.457L8.35725 10.5915C8.388 10.599 8.4285 10.611 8.47275 10.629L8.355 10.5998L7.6095 13.5908C7.55325 13.731 7.4115 13.9425 7.0965 13.8645C7.107 13.8803 6.2865 13.662 6.2865 13.662L5.724 14.9692L7.17525 15.3307C7.44525 15.3982 7.71 15.4695 7.97025 15.5363L7.49775 17.4315L8.6115 17.709L9.0795 15.834C9.38325 15.9165 9.6795 15.993 9.9675 16.065L9.5025 17.9318L10.617 18.2092L11.0895 16.317C12.9908 16.6748 14.4232 16.5188 15.0345 14.7578C15.528 13.3403 15.0225 12.5272 14.0235 12.0007C14.754 11.8252 15.306 11.3325 15.4583 10.3207V10.32ZM12.888 13.9845C12.5355 15.4005 10.2052 14.649 9.44925 14.4608L10.0763 11.9497C10.8315 12.138 13.2563 12.507 12.888 13.9845V13.9845ZM13.2532 10.3117C12.9307 11.6002 10.992 10.9567 10.3628 10.8L10.9305 8.52225C11.5605 8.67975 13.5877 8.96775 13.2532 10.3117V10.3117Z" fill="black"/>
</svg>
