<svg width="24" height="24" viewBox="0 0 24 24" fill="none" xmlns="http://www.w3.org/2000/svg">
<path d="M12 24C18.6274 24 24 18.6274 24 12C24 5.37258 18.6274 0 12 0C5.37258 0 0 5.37258 0 12C0 18.6274 5.37258 24 12 24Z" fill="#F7931A"/>
<path d="M19.4827 14.8156L19.074 16.4528L17.9827 16.1813L18.3907 14.5433L16.7535 14.1353L17.0257 13.0441L18.663 13.4521L19.0717 11.8148L20.163 12.0871L19.755 13.7243L21.3922 14.1323L21.12 15.2243L19.4827 14.8156ZM15.4575 10.3201C15.3052 11.3326 14.7532 11.8246 14.0235 12.0001C15.0217 12.5273 15.5272 13.3403 15.0345 14.7578C14.4225 16.5181 12.99 16.6741 11.088 16.3178L10.6155 18.2093L9.501 17.9318L9.96675 16.0643C9.66991 15.9908 9.37389 15.9141 9.07875 15.8341L8.61075 17.7091L7.49775 17.4316L7.97025 15.5356C7.70925 15.4688 7.44525 15.3983 7.17525 15.3308L5.724 14.9686L6.285 13.6621C6.285 13.6621 7.10625 13.8803 7.095 13.8646C7.4115 13.9418 7.5525 13.7311 7.60875 13.5908L8.35425 10.5998L8.47275 10.6291C8.43489 10.6139 8.39605 10.6014 8.3565 10.5916L8.889 8.4563C8.904 8.21405 8.82375 7.90955 8.3715 7.7963C8.3895 7.78505 7.56225 7.5953 7.56225 7.5953L7.866 6.3773L9.4035 6.7613L9.402 6.76655C9.633 6.8243 9.8715 6.87905 10.1145 6.9338L10.5817 5.0603L11.6962 5.3378L11.238 7.1753C11.5372 7.2428 11.838 7.3118 12.1305 7.3853L12.5857 5.56055L13.701 5.83805L13.2337 7.7123C14.6407 8.1998 15.6675 8.93705 15.4575 10.3201V10.3201ZM12.8872 13.9838C13.2555 12.5063 10.8307 12.1388 10.0747 11.9498L9.45 14.4601C10.206 14.6476 12.5362 15.3998 12.8887 13.9831L12.8872 13.9838ZM13.2525 10.3118C13.587 8.96705 11.559 8.67905 10.9297 8.5223L10.362 10.8001C10.9912 10.9576 12.9307 11.6003 13.2525 10.3118Z" fill="white"/>
</svg>
