<svg width="48" height="48" viewBox="0 0 24 24" fill="none" xmlns="http://www.w3.org/2000/svg">
<path d="M12 24C5.37225 24 0 18.6277 0 12C0 5.37225 5.37225 0 12 0C18.6277 0 24 5.37225 24 12C24 18.6277 18.6277 24 12 24ZM12 21C16.9702 21 21 16.9702 21 12C21 7.02975 16.9702 3 12 3C7.02975 3 3 7.02975 3 12C3 16.9702 7.02975 21 12 21ZM15.4598 8.73825C15.5933 8.91525 15.6607 9.1335 15.6517 9.35475C15.6424 9.58999 15.5953 9.8222 15.5123 10.0425C15.438 10.2488 15.3322 10.4415 15.1987 10.6147C14.9548 10.9266 14.6527 11.1881 14.3093 11.385C14.1764 11.4624 14.0356 11.5253 13.8892 11.5725C13.8918 11.5733 13.8943 11.5743 13.8967 11.5755L9.19575 12.0383L11.5522 5.56275C11.3942 5.57467 11.2367 5.59168 11.0797 5.61375C7.956 6.06225 5.547 8.754 5.547 12C5.547 13.6208 6.159 15.1823 7.26075 16.3718L6.62175 18.1305C5.74749 17.3662 5.04682 16.4238 4.56677 15.3664C4.08673 14.309 3.83842 13.1612 3.8385 12C3.8385 7.59225 7.35075 3.99225 11.7225 3.84525C11.814 3.84225 11.9062 3.83775 11.9992 3.83775C12.0592 3.83775 12.1185 3.843 12.1777 3.843C12.7875 3.85575 13.3943 3.936 13.986 4.08375L13.3973 5.7015L12.5145 8.12775H13.602C14.1165 8.12775 14.5223 8.18475 14.817 8.298C15.1125 8.412 15.3278 8.55825 15.4598 8.73825V8.73825ZM13.4542 10.317C13.5056 10.1937 13.528 10.0603 13.5195 9.927C13.5129 9.83353 13.4727 9.74561 13.4062 9.6795C13.3381 9.61764 13.2556 9.57381 13.1663 9.552C13.0683 9.52646 12.9675 9.51385 12.8663 9.5145H12.0187L11.4503 11.0768H12.2977C12.5325 11.0753 12.7628 11.0168 12.9705 10.9058C13.1918 10.7925 13.3515 10.596 13.4542 10.317ZM14.4 4.1985C17.733 5.226 20.1615 8.33475 20.1615 12C20.1615 16.5 16.5007 20.1615 12 20.1615C10.1756 20.1632 8.4038 19.5503 6.9705 18.4215L7.59375 16.7078L9.12 12.522L13.8645 12.054C13.9845 12.102 14.1007 12.1613 14.2095 12.2318C14.3482 12.3233 14.466 12.4432 14.5545 12.5842C14.652 12.7455 14.7143 12.9255 14.736 13.113C14.7645 13.3177 14.7285 13.557 14.6302 13.8285C14.3625 14.562 13.9132 15.096 13.2817 15.429C12.651 15.7635 11.844 15.93 10.86 15.93H9.774L9.105 17.7637C9.2325 17.8282 9.3615 17.8897 9.49425 17.946C10.3036 18.2877 11.1743 18.4605 12.0529 18.4539C12.9314 18.4472 13.7993 18.2612 14.6034 17.9072C15.4076 17.5532 16.1309 17.0388 16.7292 16.3954C17.3274 15.7519 17.788 14.9931 18.0826 14.1654C18.3772 13.3377 18.4996 12.4585 18.4424 11.5818C18.3852 10.7051 18.1496 9.84931 17.75 9.06689C17.3503 8.28446 16.7951 7.5919 16.1184 7.03165C15.4416 6.4714 14.6575 6.05526 13.8143 5.80875L14.4 4.1985V4.1985ZM10.92 12.8047L10.2863 14.5417H11.2785C11.4038 14.5417 11.5283 14.532 11.652 14.5148C11.7915 14.496 11.928 14.457 12.057 14.3992C12.1958 14.3347 12.3217 14.2455 12.4282 14.1353C12.555 13.9995 12.6512 13.8381 12.7103 13.662C12.7763 13.4782 12.7935 13.3297 12.762 13.2165C12.7353 13.1113 12.6706 13.0197 12.5805 12.9592C12.4838 12.8978 12.3756 12.8567 12.2625 12.8385C12.1462 12.8169 12.0283 12.8056 11.91 12.8047H10.92V12.8047Z" fill="black"/>
</svg>
