<svg width="48" height="48" viewBox="0 0 24 24" fill="none" xmlns="http://www.w3.org/2000/svg">
<path fill-rule="evenodd" clip-rule="evenodd" d="M12 24C5.37225 24 0 18.6277 0 12C0 5.37225 5.37225 0 12 0C18.6277 0 24 5.37225 24 12C24 18.6277 18.6277 24 12 24ZM9.98175 9V15H12.0353C13.0268 15 14.7975 14.3978 14.7975 12C14.7975 9.60225 13.0275 9 12.0353 9H9.98175ZM11.1143 13.785V10.215H11.9648C12.6728 10.215 13.5225 10.6485 13.5225 12C13.5225 13.3515 12.6728 13.785 11.9648 13.785H11.1143ZM15.5775 9V15H16.002V9.846L19.8248 15H20.25V9H19.8248V14.2695L16.0012 9H15.5775ZM3.75 9V10.5H5.166V9H3.75ZM5.87475 9V10.5H7.29V9H5.87475ZM7.99875 9V10.5H9.4155V9H7.99875ZM7.99875 11.25V12.75H9.4155V11.25H7.99875ZM7.99875 13.5V15H9.4155V13.5H7.99875ZM5.87475 11.25V12.75H7.29V11.25H5.87475Z" fill="black"/>
</svg>
