<svg width="24" height="24" viewBox="0 0 24 24" fill="none" xmlns="http://www.w3.org/2000/svg">
<path d="M12 24C18.6274 24 24 18.6274 24 12C24 5.37258 18.6274 0 12 0C5.37258 0 0 5.37258 0 12C0 18.6274 5.37258 24 12 24Z" fill="#67B2E8"/>
<path fill-rule="evenodd" clip-rule="evenodd" d="M4.60875 8.96553C4.53857 8.38865 4.50225 7.80815 4.5 7.22703C5.48438 6.66631 6.52902 6.21872 7.614 5.89278C9.13629 5.43469 10.7211 5.21881 12.3105 5.25303C12.7365 5.26128 13.353 5.30853 13.821 5.35878C13.2272 5.67724 12.7123 6.12491 12.3145 6.66878C11.9166 7.21265 11.6459 7.83887 11.5222 8.50128C11.4772 8.73678 11.4525 8.98128 11.4442 9.24228C11.4322 9.64428 11.3933 9.96078 11.3093 10.257C11.1204 10.9247 10.7316 11.5186 10.1952 11.9588C9.6588 12.3989 9.00047 12.6643 8.30875 12.7192C7.61703 12.7741 6.92509 12.6158 6.32597 12.2658C5.72685 11.9157 5.24929 11.3906 4.9575 10.761C4.92451 10.6889 4.89937 10.6135 4.8825 10.536C4.76371 10.0177 4.67234 9.49347 4.60875 8.96553V8.96553ZM17.0685 15.3855C16.89 15.663 16.701 15.933 16.5045 16.1993C16.5106 15.4418 16.3221 14.6955 15.957 14.0318C15.5815 13.3326 15.0258 12.7466 14.3475 12.3345L14.28 12.2933C14.2425 12.2712 14.2052 12.2487 14.1683 12.2258C13.3155 11.6835 12.7957 10.9245 12.6127 9.94503C12.4539 9.09177 12.6286 8.21011 13.1006 7.48182C13.5727 6.75353 14.3063 6.23415 15.15 6.03078C15.765 5.88228 16.3725 5.90328 16.9777 6.09303C17.442 6.23928 17.9115 6.43053 18.4838 6.69828C18.8138 6.85353 19.1467 7.02603 19.5007 7.22628C19.4959 8.27222 19.3823 9.31483 19.1617 10.3373C18.7769 12.1332 18.0678 13.8439 17.0693 15.3855H17.0685ZM14.7908 18.1403C13.9439 18.9473 13.0079 19.6551 12.0007 20.25C11.7405 20.1 11.4861 19.9402 11.238 19.7708C8.83238 18.1529 6.93661 15.8841 5.772 13.2293C6.32681 13.5556 6.94629 13.7565 7.587 13.818C8.52892 13.9134 9.47701 13.7106 10.2975 13.2383C10.6919 13.0136 11.1267 12.8686 11.577 12.8115C12.3755 12.7106 13.1838 12.8972 13.8574 13.3377C14.531 13.7782 15.0259 14.444 15.2535 15.216C15.5047 16.0568 15.4313 16.8825 15.0413 17.6963C15.0083 17.7653 14.9797 17.8208 14.9122 17.9535L14.8793 18.0188C14.857 18.0641 14.8271 18.1052 14.7908 18.1403V18.1403Z" fill="white"/>
</svg>
