<svg width="48" height="48" viewBox="0 0 24 24" fill="none" xmlns="http://www.w3.org/2000/svg">
<path d="M12 24C5.37225 24 0 18.6277 0 12C0 5.37225 5.37225 0 12 0C18.6277 0 24 5.37225 24 12C24 18.6277 18.6277 24 12 24ZM17.3475 6.969L15.5475 7.887L6.849 12.3173C6.72507 11.3652 6.86808 10.3974 7.26207 9.5219C7.65607 8.64638 8.28556 7.89754 9.08032 7.35891C9.87508 6.82027 10.8039 6.51304 11.7631 6.47147C12.7222 6.42991 13.6741 6.65564 14.5125 7.1235L15.543 6.5985L15.6968 6.51975C14.7191 5.81032 13.5589 5.39544 12.3531 5.32412C11.1473 5.2528 9.94631 5.52801 8.89188 6.11725C7.83745 6.70649 6.97365 7.58515 6.40248 8.64948C5.83131 9.7138 5.57662 10.9193 5.6685 12.1238C5.68569 12.3503 5.63547 12.5768 5.52417 12.7749C5.41286 12.973 5.24545 13.1336 5.043 13.2368L4.49925 13.5142V14.8073L6.09975 13.9913L6.618 13.7265L7.12875 13.4662L16.2983 8.79375L17.3287 8.2695L19.4587 7.18425V5.892L17.3475 6.969V6.969ZM19.4595 8.478L7.65075 14.49L6.62025 15.015L4.5 16.0972V17.3895L6.606 16.317L8.40675 15.399L17.1143 10.962C17.2401 11.9155 17.098 12.8852 16.7041 13.7626C16.3101 14.64 15.6797 15.3904 14.8834 15.9298C14.0872 16.4693 13.1565 16.7765 12.1956 16.8171C11.2346 16.8576 10.2814 16.6299 9.4425 16.1595L9.37875 16.1932L8.26125 16.7632C9.23902 17.4731 10.3995 17.8882 11.6057 17.9596C12.8118 18.031 14.0132 17.7556 15.0679 17.166C16.1225 16.5765 16.9864 15.6974 17.5574 14.6325C18.1284 13.5677 18.3827 12.3617 18.2902 11.157C18.2732 10.9307 18.3235 10.7044 18.4346 10.5065C18.5458 10.3086 18.7129 10.148 18.915 10.0447L19.4595 9.76725V8.47875V8.478Z" fill="black"/>
</svg>
