<svg width="24" height="24" viewBox="0 0 24 24" fill="none" xmlns="http://www.w3.org/2000/svg">
<path d="M12 24C18.6274 24 24 18.6274 24 12C24 5.37258 18.6274 0 12 0C5.37258 0 0 5.37258 0 12C0 18.6274 5.37258 24 12 24Z" fill="#14B6E7"/>
<path fill-rule="evenodd" clip-rule="evenodd" d="M9.58424 10.1452C10.1005 9.22481 10.6281 8.31074 11.1667 7.40322C12.744 4.75347 16.9597 4.47822 17.1892 4.64322L17.187 4.64772L17.19 4.64472C17.4195 4.80972 18.585 8.95722 16.674 11.3662C16.0237 12.1846 15.3634 12.9949 14.6932 13.797C15.3907 14.8935 15.8662 16.7452 14.2245 19.3552C14.1465 19.4782 13.9995 19.5787 13.9882 19.3237C13.9627 18.702 13.746 17.466 12.561 16.311L12.486 16.3995C12.1222 16.8375 11.8192 16.7782 11.319 16.4182L11.2792 16.389C11.2209 16.6084 11.1253 16.8162 10.9965 17.0032C10.9815 17.0242 10.965 17.0437 10.9492 17.0647C9.83924 18.627 8.27399 19.3957 7.42049 18.7792C6.56699 18.1642 6.74549 16.3957 7.80899 14.7997C7.82324 14.7772 7.83524 14.7547 7.85024 14.7322C7.98149 14.5425 8.13899 14.3835 8.31524 14.2567H8.31449C7.81424 13.896 7.65824 13.6245 7.93874 13.1265L7.97849 13.0545C6.51449 12.3397 5.30099 12.552 4.71449 12.7372C4.47074 12.8145 4.51499 12.6375 4.60499 12.5197C6.45899 10.1025 8.31749 9.87822 9.58424 10.1452V10.1452ZM8.79974 14.6055C8.72873 14.671 8.66487 14.7439 8.60924 14.823C8.59874 14.838 8.59049 14.853 8.58074 14.868C7.83074 15.9667 7.69949 17.1787 8.29424 17.598C8.88824 18.0157 9.98474 17.484 10.7662 16.4085C10.7775 16.3935 10.7895 16.3807 10.8 16.3657C10.8517 16.293 10.8945 16.2165 10.9297 16.1385L9.81749 15.3375L8.80049 14.6055H8.79974ZM12.4987 8.02797C12.2386 8.40449 12.1361 8.86782 12.213 9.31894C12.2899 9.77007 12.5403 10.1732 12.9105 10.4422C13.0928 10.5732 13.2996 10.6664 13.5185 10.7163C13.7374 10.7662 13.964 10.7718 14.1851 10.7328C14.4062 10.6938 14.6173 10.611 14.8059 10.4892C14.9946 10.3674 15.1569 10.2092 15.2835 10.0237C15.544 9.64712 15.6466 9.1835 15.5695 8.73213C15.4924 8.28076 15.2417 7.87752 14.871 7.60872C14.6886 7.47791 14.4819 7.38487 14.2631 7.33509C14.0442 7.28531 13.8176 7.27979 13.5966 7.31885C13.3756 7.35791 13.1646 7.44077 12.9761 7.56255C12.7875 7.68433 12.6252 7.84257 12.4987 8.02797V8.02797Z" fill="white"/>
</svg>
