<svg width="48" height="48" viewBox="0 0 24 24" fill="none" xmlns="http://www.w3.org/2000/svg">
<path d="M12 24C5.37225 24 0 18.6277 0 12C0 5.37225 5.37225 0 12 0C18.6277 0 24 5.37225 24 12C24 18.6277 18.6277 24 12 24ZM17.0115 5.25H13.1415L11.991 7.239L10.8442 5.25H6.97275L3 12.1312L6.84675 18.7913L9.4545 14.277L12 18.672L14.538 14.277L17.1517 18.822L21 12.162L17.0115 5.25V5.25ZM6.8415 16.158L4.515 12.1335L6.36525 8.9295L8.69025 12.957L6.84075 16.1617V16.158H6.8415ZM7.1295 7.6065L7.743 6.54075H10.0612L11.2275 8.5605L9.4545 11.6347L7.1295 7.6065V7.6065ZM11.9895 16.0305L10.218 12.954L11.991 9.88125L12.783 11.25L13.7655 12.9548L11.991 16.0275L11.9895 16.0312V16.0305ZM12.7523 8.5605L13.9208 6.54075H16.239L16.86 7.60575L14.52 11.6347L12.7523 8.55975V8.5605ZM18.7283 13.4633L17.1585 16.1865L15.2925 12.9465L17.6175 8.92725L18.2445 10.0073L19.4843 12.1545L18.7283 13.4633Z" fill="black"/>
</svg>
