<svg width="48" height="48" viewBox="0 0 24 24" fill="none" xmlns="http://www.w3.org/2000/svg">
<path fill-rule="evenodd" clip-rule="evenodd" d="M12 24C5.37225 24 0 18.6277 0 12C0 5.37225 5.37225 0 12 0C18.6277 0 24 5.37225 24 12C24 18.6277 18.6277 24 12 24ZM11.9775 3.92625C10.9113 3.92566 9.85551 4.13524 8.8704 4.54302C7.8853 4.9508 6.99024 5.54877 6.23642 6.30273C5.48259 7.05669 4.88479 7.95186 4.4772 8.93704C4.0696 9.92222 3.86021 10.9781 3.861 12.0443C3.861 12.9458 4.01475 13.8037 4.27875 14.6182H6.699V7.79775L11.979 13.0778L17.259 7.79775V14.6182H19.6785C19.9527 13.7877 20.094 12.9189 20.097 12.0443C20.097 7.55625 16.467 3.92625 11.979 3.92625H11.9775ZM10.7685 14.265L8.4585 11.955V16.245H5.04825C6.47775 18.5775 9.05175 20.139 11.9782 20.139C14.904 20.139 17.4998 18.5775 18.9083 16.245H15.498V11.955L13.2105 14.265L12 15.4763L10.7678 14.2657L10.7685 14.265Z" fill="black"/>
</svg>
