<svg width="48" height="48" viewBox="0 0 24 24" fill="none" xmlns="http://www.w3.org/2000/svg">
<path d="M12 24C5.37225 24 0 18.6277 0 12C0 5.37225 5.37225 0 12 0C18.6277 0 24 5.37225 24 12C24 18.6277 18.6277 24 12 24ZM15.7875 15.75H19.2128C19.7858 15.75 20.25 15.2685 20.25 14.6752C20.25 14.082 19.7858 13.6005 19.2075 13.6005L17.2297 13.614C17.7397 11.9775 17.9963 10.9012 17.9963 10.386C17.9963 9.0225 17.049 8.25 15.9225 8.25C14.7052 8.25 13.848 8.886 13.3522 9.432C12.9922 8.61375 12.18 8.25 11.55 8.25C10.92 8.25 10.1978 8.4315 9.65625 9.114C9.53625 8.59875 9.20625 8.3415 8.66475 8.3415H4.80975C4.53323 8.35443 4.27252 8.47415 4.0825 8.67545C3.89248 8.87674 3.78798 9.14391 3.79099 9.42072C3.79401 9.69752 3.9043 9.96235 4.09866 10.1595C4.29301 10.3566 4.55627 10.4706 4.833 10.4775H7.13175L6.09525 14.7952C6.12525 15.432 6.42525 15.75 6.99675 15.75C7.6275 15.75 8.03325 15.3863 8.214 14.6588C8.544 13.326 8.79975 12.3263 8.9805 11.6588C9.2505 10.659 9.837 10.2045 10.4677 10.2045C11.0992 10.2045 11.3693 10.659 11.3693 11.0227C11.3693 11.265 11.2852 11.6527 11.1165 12.1852C10.6837 13.7805 10.4677 14.6512 10.4677 14.7952C10.4677 15.159 10.6028 15.75 11.415 15.75C11.955 15.75 12.3315 15.477 12.5415 14.9325C13.083 12.8407 13.428 11.553 13.5787 11.0685C13.8037 10.341 14.5462 10.2045 14.886 10.2045C15.4717 10.2045 15.7875 10.614 15.7875 11.0227C15.7875 11.235 15.7343 11.475 15.627 11.7427C15.1028 13.4722 14.841 14.505 14.841 14.8403C14.841 15.5228 15.3367 15.75 15.7875 15.75V15.75Z" fill="black"/>
</svg>
