<svg width="24" height="24" viewBox="0 0 24 24" fill="none" xmlns="http://www.w3.org/2000/svg">
<path d="M12 24C18.6274 24 24 18.6274 24 12C24 5.37258 18.6274 0 12 0C5.37258 0 0 5.37258 0 12C0 18.6274 5.37258 24 12 24Z" fill="#4FA784"/>
<path fill-rule="evenodd" clip-rule="evenodd" d="M19.1813 9.6345L13.0988 7.8915L11.0183 11.4352L8.60175 8.6325L9.69675 8.4915L10.8255 9.8175L12.078 7.59825L6.5655 6.018C6.49144 5.99605 6.41291 5.994 6.33781 6.01207C6.26271 6.03014 6.1937 6.06768 6.13773 6.12091C6.08176 6.17415 6.0408 6.24119 6.01899 6.31529C5.99719 6.38939 5.99529 6.46793 6.0135 6.543L8.4555 16.35L11.0783 11.934L13.4948 14.7367L12.3998 14.8777L11.2718 13.5517L8.78925 17.6895L9.15675 19.167C9.17587 19.2419 9.2143 19.3105 9.2682 19.366C9.3221 19.4215 9.38959 19.4618 9.46395 19.4831C9.53831 19.5043 9.61694 19.5057 9.692 19.4871C9.76706 19.4685 9.83593 19.4305 9.89175 19.377L19.3643 10.3695C19.4202 10.3165 19.461 10.2496 19.4826 10.1757C19.5042 10.1017 19.5058 10.0234 19.4872 9.9486C19.4686 9.87384 19.4305 9.80537 19.3767 9.75018C19.3229 9.69499 19.2555 9.65507 19.1813 9.6345Z" fill="white"/>
</svg>
