<svg width="48" height="48" viewBox="0 0 24 24" fill="none" xmlns="http://www.w3.org/2000/svg">
<path fill-rule="evenodd" clip-rule="evenodd" d="M12 24C5.37225 24 0 18.6277 0 12C0 5.37225 5.37225 0 12 0C18.6277 0 24 5.37225 24 12C24 18.6277 18.6277 24 12 24ZM18 11.6715V6H15.4088V11.6063C15.4088 14.091 13.2682 13.971 13.2682 13.971V6H10.6657V13.971C10.6657 13.971 8.59125 13.9927 8.59125 11.6385V6H6V11.43C6 15.9412 9.963 16.1055 10.6552 16.1055V16.9815H9.063V18.153H10.6583V19.5H13.2682V18.153H14.9363V16.9815H13.2682V16.1175C15.4305 16.1175 18 14.9895 18 11.6722V11.6715Z" fill="black"/>
</svg>
