<svg width="24" height="24" viewBox="0 0 24 24" fill="none" xmlns="http://www.w3.org/2000/svg">
<path d="M12 24C18.6274 24 24 18.6274 24 12C24 5.37258 18.6274 0 12 0C5.37258 0 0 5.37258 0 12C0 18.6274 5.37258 24 12 24Z" fill="#00AAE4"/>
<path d="M16.47 13.6538C15.9525 13.3478 15.3697 13.2593 14.7922 13.2383C14.3077 13.221 13.5847 12.903 13.5847 12.0008C13.5847 11.3273 14.1172 10.7858 14.7922 10.7618C15.3697 10.7415 15.9532 10.6523 16.4707 10.3463C17.7555 9.58577 18.3232 7.99052 17.8155 6.56177C17.3077 5.13302 15.8722 4.28402 14.4105 4.54802C12.9487 4.81202 11.883 6.11252 11.883 7.63352C11.883 8.24027 12.0945 8.79902 12.363 9.31652C12.5895 9.75227 12.7035 10.5615 11.928 11.0198C11.3505 11.361 10.6305 11.145 10.2705 10.5555C9.9675 10.0575 9.60075 9.59102 9.087 9.28727C7.80225 8.52677 6.1695 8.82227 5.2155 9.98627C4.75262 10.5553 4.49991 11.2665 4.49991 12C4.49991 12.7336 4.75262 13.4447 5.2155 14.0138C6.1695 15.1785 7.80225 15.4733 9.087 14.7128C9.60075 14.4098 9.9675 13.9433 10.2712 13.4453C10.5202 13.0365 11.1427 12.5153 11.928 12.9803C12.504 13.3215 12.6825 14.0678 12.363 14.6835C12.0937 15.201 11.883 15.7598 11.883 16.3673C11.883 17.8875 12.9487 19.188 14.4105 19.452C15.8722 19.716 17.3077 18.867 17.8155 17.4383C18.3225 16.0095 17.7555 14.4143 16.4707 13.6538H16.47Z" fill="white"/>
</svg>
