<svg width="48" height="48" viewBox="0 0 24 24" fill="none" xmlns="http://www.w3.org/2000/svg">
<path d="M12 24C5.37225 24 0 18.6277 0 12C0 5.37225 5.37225 0 12 0C18.6277 0 24 5.37225 24 12C24 18.6277 18.6277 24 12 24ZM17.3025 6L13.872 9.39225C13.3729 9.8849 12.6998 10.1611 11.9985 10.1611C11.2972 10.1611 10.6241 9.8849 10.125 9.39225L6.6975 6H4.52625L9.04125 10.4677C9.82998 11.2448 10.8928 11.6804 12 11.6804C13.1072 11.6804 14.17 11.2448 14.9587 10.4677L19.4708 6H17.3032H17.3025ZM6.67125 18.4222L10.128 15C10.6271 14.5074 11.3002 14.2311 12.0015 14.2311C12.7028 14.2311 13.3759 14.5074 13.875 15L17.3287 18.4222H19.5L14.9587 13.9275C14.17 13.1504 13.1072 12.7148 12 12.7148C10.8928 12.7148 9.82998 13.1504 9.04125 13.9275L4.5 18.4215H6.67125V18.4222Z" fill="black"/>
</svg>
