<svg width="48" height="48" viewBox="0 0 24 24" fill="none" xmlns="http://www.w3.org/2000/svg">
<path d="M12 24C5.37225 24 0 18.6277 0 12C0 5.37225 5.37225 0 12 0C18.6277 0 24 5.37225 24 12C24 18.6277 18.6277 24 12 24ZM12.105 4.39125L18.2318 7.92L20.0745 6.849L12.105 2.25V4.39125ZM18.354 15.204L20.2147 16.275V7.077L18.3547 8.148V15.204H18.354ZM12.105 18.9608V21.102L20.0745 16.503L18.2318 15.4327L12.105 18.9608V18.9608ZM3.873 16.503L11.8417 21.102V18.9608L5.73375 15.4327L3.873 16.503ZM3.75 7.077V16.275L5.59275 15.204V8.148L3.75 7.077ZM3.873 6.849L5.733 7.92L11.8417 4.39125V2.25L3.873 6.849ZM11.991 4.593L5.84775 8.1225V15.2137L11.991 18.7598L18.117 15.2137V8.1225L11.991 4.59375V4.593ZM16.9238 10.9305L16.6605 11.3865L14.9055 10.404L12.6585 11.667L14.9047 12.9307L16.6597 11.9482L16.9238 12.4042L15.4493 13.2292L16.9238 14.0543L16.6605 14.511L15.186 13.686V15.336H14.6415V13.3875L12.3953 12.1238V14.6512L14.133 15.6165L13.8698 16.0643L12.3953 15.2393V16.8892H11.85V15.2393L10.3755 16.0643L10.095 15.6083L11.85 14.6423V12.1238L9.603 13.3875V15.336H9.04125V13.686L7.58475 14.511L7.3035 14.0543L8.778 13.2292L7.3035 12.4042L7.58475 11.9482L9.3225 12.9307L11.5868 11.667L9.32175 10.4033L7.58475 11.3857L7.3035 10.9297L8.778 10.1047L7.3035 9.27975L7.58475 8.82375L9.04125 9.64875V7.98975H9.60375V9.93825L11.85 11.202V8.6835L10.1122 7.7175L10.3755 7.2615L11.85 8.0865V6.4365H12.3945V8.0865L13.869 7.2615L14.1315 7.7175L12.3945 8.6835V11.211L14.6407 9.94725V7.98975H15.1852V9.63975L16.6597 8.81475L16.9222 9.2715L15.4485 10.0965L16.923 10.9297L16.9238 10.9305Z" fill="black"/>
</svg>
