<svg width="24" height="24" viewBox="0 0 24 24" fill="none" xmlns="http://www.w3.org/2000/svg">
<path d="M12 24C18.6274 24 24 18.6274 24 12C24 5.37258 18.6274 0 12 0C5.37258 0 0 5.37258 0 12C0 18.6274 5.37258 24 12 24Z" fill="#A6E000"/>
<path fill-rule="evenodd" clip-rule="evenodd" d="M13.6425 19.5C12.5475 19.5 11.7495 19.242 11.2485 18.7275C10.7482 18.2115 10.4977 17.6557 10.4977 17.0602C10.4977 16.8427 10.5412 16.659 10.629 16.5105C10.7146 16.3631 10.8381 16.2414 10.9867 16.158C11.1382 16.0725 11.3242 16.029 11.5455 16.029C11.7667 16.029 11.9535 16.0725 12.105 16.158C12.2565 16.2442 12.375 16.3612 12.4627 16.5105C12.5505 16.659 12.594 16.8427 12.594 17.0602C12.594 17.3235 12.5302 17.538 12.402 17.7045C12.2896 17.8594 12.1302 17.9738 11.9475 18.0307C12.099 18.237 12.3375 18.3832 12.6637 18.4687C12.99 18.561 13.3162 18.6067 13.6417 18.6067C14.0793 18.6119 14.5083 18.4862 14.874 18.246C15.2407 18.0052 15.5115 17.6497 15.6855 17.181C15.8602 16.7107 15.948 16.1782 15.948 15.5827C15.948 14.9355 15.852 14.3827 15.66 13.9245C15.4732 13.4602 15.1965 13.1167 14.8297 12.8932C14.4728 12.6728 14.0612 12.5569 13.6417 12.5587C13.3627 12.5587 13.0132 12.6727 12.594 12.9022L11.8252 13.2802V12.9022L15.2842 8.36625H10.4977V13.074C10.4977 13.464 10.5847 13.7842 10.7602 14.0362C10.9342 14.2882 11.2027 14.4142 11.5627 14.4142C11.8425 14.4142 12.1102 14.3227 12.3667 14.139C12.624 13.9546 12.8484 13.7282 13.0305 13.4692C13.0485 13.4242 13.0789 13.3852 13.1182 13.3567C13.1499 13.3299 13.19 13.315 13.2315 13.3147C13.296 13.3147 13.371 13.3462 13.4587 13.4085C13.5383 13.4952 13.582 13.6088 13.581 13.7265C13.571 13.8075 13.5565 13.8879 13.5375 13.9672C13.3395 14.4022 13.065 14.7345 12.7162 14.964C12.3747 15.1906 11.9734 15.3102 11.5635 15.3075C10.527 15.3075 9.81075 15.1072 9.41475 14.706C9.01875 14.3055 8.82075 13.761 8.82075 13.074V8.36625H6.375V7.4895H8.82V5.4975L8.262 4.947V4.5H9.8865L10.4977 4.809V7.4895L16.821 7.47225L17.451 8.091L13.572 11.9055C13.807 11.8131 14.054 11.755 14.3055 11.733C14.7255 11.733 15.1965 11.865 15.7207 12.129C16.251 12.3863 16.6582 12.7417 16.9432 13.194C17.229 13.641 17.4127 14.0707 17.4937 14.4832C17.5753 14.8442 17.6193 15.2127 17.625 15.5827C17.6305 16.2918 17.4689 16.9923 17.1532 17.6272C16.85 18.2461 16.3446 18.743 15.7207 19.0357C15.0724 19.3468 14.3616 19.5056 13.6425 19.5V19.5Z" fill="white"/>
</svg>
