<svg width="48" height="48" viewBox="0 0 24 24" fill="none" xmlns="http://www.w3.org/2000/svg">
<path d="M16.1175 12.4313C16.1993 12.4944 16.297 12.5336 16.3998 12.5444C16.5025 12.5552 16.6062 12.5372 16.6994 12.4925C16.7925 12.4478 16.8714 12.378 16.9271 12.291C16.9829 12.2041 17.0134 12.1033 17.0153 12C17.0155 11.8774 16.9739 11.7584 16.8975 11.6625C17.1743 11.913 17.5425 12.066 17.9475 12.066C18.8055 12.066 19.5007 11.3797 19.5007 10.533C19.5007 9.68625 18.8048 9 17.9468 9C17.0888 9 16.3935 9.68625 16.3935 10.533C16.3935 10.932 16.548 11.2958 16.8022 11.5688C16.7205 11.5058 16.6228 11.4668 16.5202 11.4561C16.4175 11.4454 16.314 11.4634 16.221 11.5082C16.1279 11.5529 16.0492 11.6225 15.9934 11.7094C15.9377 11.7962 15.9072 11.8968 15.9053 12C15.9053 12.1275 15.9495 12.2445 16.023 12.3375C15.7354 12.077 15.361 11.9332 14.973 11.934C14.568 11.934 14.2005 12.087 13.923 12.3375C13.9997 12.2417 14.0415 12.1227 14.0415 12C14.1169 11.942 14.1762 11.8656 14.2137 11.7782C14.2512 11.6908 14.2658 11.5952 14.2559 11.5006C14.246 11.406 14.2121 11.3155 14.1574 11.2377C14.1026 11.1599 14.0288 11.0974 13.9431 11.0562C13.8574 11.0149 13.7625 10.9963 13.6675 11.0022C13.5726 11.008 13.4807 11.038 13.4006 11.0894C13.3206 11.1408 13.255 11.2118 13.2102 11.2957C13.1653 11.3796 13.1427 11.4736 13.1445 11.5688C13.4073 11.2879 13.5534 10.9176 13.5532 10.533C13.5532 9.68625 12.858 9 12 9C11.142 9 10.4467 9.68625 10.4467 10.533C10.4467 10.932 10.6012 11.2958 10.8555 11.5688C10.7737 11.5058 10.6761 11.4668 10.5734 11.4561C10.4708 11.4454 10.3672 11.4634 10.2742 11.5082C10.1812 11.5529 10.1024 11.6225 10.0467 11.7094C9.99095 11.7962 9.96042 11.8968 9.9585 12C9.9585 12.1275 10.0028 12.2445 10.0763 12.3375C9.78865 12.077 9.41426 11.9332 9.02625 11.934C8.62125 11.934 8.25375 12.087 7.97625 12.3375C8.05295 12.2417 8.09474 12.1227 8.09475 12C8.17014 11.942 8.22943 11.8656 8.26696 11.7782C8.30449 11.6908 8.31901 11.5952 8.30915 11.5006C8.29929 11.406 8.26536 11.3155 8.21061 11.2377C8.15586 11.1599 8.0821 11.0974 7.99636 11.0562C7.91062 11.0149 7.81575 10.9963 7.7208 11.0022C7.62584 11.008 7.53396 11.038 7.4539 11.0894C7.37384 11.1408 7.30826 11.2118 7.26343 11.2957C7.21859 11.3796 7.19598 11.4736 7.19775 11.5688C7.46054 11.2879 7.60666 10.9176 7.6065 10.533C7.6065 9.68625 6.91125 9 6.05325 9C5.19525 9 4.5 9.68625 4.5 10.533C4.5 11.3797 5.19525 12.066 6.05325 12.066C6.45825 12.066 6.8265 11.913 7.10325 11.6625C7.02682 11.7584 6.9853 11.8774 6.9855 12C6.9855 12.3022 7.233 12.5475 7.5405 12.5475C7.66875 12.5475 7.788 12.504 7.88175 12.4313C7.61909 12.7122 7.47299 13.0824 7.473 13.467C7.473 14.3137 8.169 15 9.027 15C9.88425 15 10.5795 14.3137 10.5795 13.467C10.5795 13.068 10.425 12.7043 10.1715 12.4313C10.2533 12.494 10.3509 12.5328 10.4534 12.5434C10.5559 12.5539 10.6594 12.5359 10.7522 12.4912C10.8451 12.4465 10.9238 12.3769 10.9795 12.2902C11.0352 12.2035 11.0657 12.103 11.0677 12C11.068 11.8774 11.0264 11.7584 10.95 11.6625C11.2268 11.913 11.595 12.066 12 12.066C12.405 12.066 12.7732 11.913 13.05 11.6625C12.9736 11.7584 12.932 11.8774 12.9323 12C12.9323 12.3022 13.1797 12.5475 13.4872 12.5475C13.6155 12.5475 13.7347 12.504 13.8285 12.4313C13.5658 12.7122 13.4197 13.0824 13.4197 13.467C13.4197 14.3137 14.1158 15 14.973 15C15.831 15 16.527 14.3137 16.527 13.467C16.527 13.068 16.3717 12.7043 16.1182 12.4313H16.1175ZM12 24C5.37225 24 0 18.6277 0 12C0 5.37225 5.37225 0 12 0C18.6277 0 24 5.37225 24 12C24 18.6277 18.6277 24 12 24Z" fill="black"/>
</svg>
