<svg width="24" height="24" viewBox="0 0 24 24" fill="none" xmlns="http://www.w3.org/2000/svg">
<path d="M12 24C18.6274 24 24 18.6274 24 12C24 5.37258 18.6274 0 12 0C5.37258 0 0 5.37258 0 12C0 18.6274 5.37258 24 12 24Z" fill="#ECB244"/>
<path d="M11.322 14.8845H16.0448V17.397H13.1385C13.1865 18.1155 13.2113 18.7822 13.2593 19.5H10.8135V17.4225H7.90651C7.90651 16.6027 7.80976 15.7823 7.95526 15.0128C8.02801 14.6025 8.46376 14.2433 8.73001 13.8848C9.65119 12.7336 10.5797 11.5883 11.5155 10.449C11.8793 10.0125 12.2423 9.60225 12.654 9.1155H8.12401V6.603H10.8135V4.5H13.1625V6.55125H16.0935C16.0935 7.39725 16.1903 8.21775 16.0448 8.98725C15.972 9.3975 15.5363 9.75675 15.246 10.1153C14.3248 11.2664 13.3963 12.4117 12.4605 13.551C12.0951 14.0074 11.7154 14.4521 11.322 14.8845V14.8845Z" fill="white"/>
</svg>
