<svg width="48" height="48" viewBox="0 0 24 24" fill="none" xmlns="http://www.w3.org/2000/svg">
<path fill-rule="evenodd" clip-rule="evenodd" d="M12 24C5.37225 24 0 18.6277 0 12C0 5.37225 5.37225 0 12 0C18.6277 0 24 5.37225 24 12C24 18.6277 18.6277 24 12 24ZM11.322 14.8845C11.7154 14.4521 12.0951 14.0074 12.4605 13.551C13.3963 12.4119 14.3248 11.2669 15.246 10.116C15.5362 9.756 15.972 9.3975 16.0447 8.98725C16.1902 8.21775 16.0935 7.39725 16.0935 6.55125H13.1625V4.5H10.8135V6.60225H8.12475V9.11475H12.654C12.2415 9.60225 11.8793 10.0125 11.5155 10.449C10.5797 11.5881 9.65119 12.7331 8.73 13.884C8.46375 14.244 8.028 14.6025 7.95525 15.0128C7.80975 15.7823 7.9065 16.6028 7.9065 17.4233H10.8135V19.5H13.2593C13.2113 18.7822 13.1865 18.1155 13.1385 17.3978H16.0447V14.8853H11.322V14.8845Z" fill="black"/>
</svg>
