<svg width="24" height="24" viewBox="0 0 24 24" fill="none" xmlns="http://www.w3.org/2000/svg">
<path d="M12 24C18.6274 24 24 18.6274 24 12C24 5.37258 18.6274 0 12 0C5.37258 0 0 5.37258 0 12C0 18.6274 5.37258 24 12 24Z" fill="#234871"/>
<path d="M13.9995 12.9735L12.9907 12.3705V9.65025L10.6208 8.26575V7.0125L13.9995 8.9775V12.9735ZM12.6225 10.2225V11.373L10.2112 12.789V15.594L9.23625 16.1775V12.2123L12.6225 10.2225ZM10.9005 12.8362L11.9835 12.21L14.2995 13.5892L16.6312 12.21L17.6813 12.8378L14.2883 14.8358L10.9005 12.8362ZM14.2883 15.1875L17.9775 13.0148V17.3445L14.289 19.5L10.5998 17.3325V13.0095L14.2883 15.1875ZM8.9355 12.0375V16.3575L5.25 14.2095V9.87225L8.9235 7.70775L12.6232 9.87075L8.9355 12.0375ZM17.9775 6.64575V10.9905L14.2995 13.1542V8.802L10.62 6.6615L14.3047 4.5L17.9775 6.64575Z" fill="white"/>
</svg>
