<svg width="48" height="48" viewBox="0 0 24 24" fill="none" xmlns="http://www.w3.org/2000/svg">
<path d="M12 24C5.37225 24 0 18.6277 0 12C0 5.37225 5.37225 0 12 0C18.6277 0 24 5.37225 24 12C24 18.6277 18.6277 24 12 24ZM11.5837 12.8115C10.474 13.108 9.43314 13.6191 8.52 14.316C8.90419 14.8747 9.41971 15.3304 10.0213 15.6433C10.6228 15.9561 11.292 16.1163 11.97 16.11C12.9401 16.1152 13.8813 15.7795 14.6291 15.1616C15.377 14.5437 15.8842 13.6827 16.062 12.729C15.3413 12.5866 14.6088 12.5128 13.8743 12.5085C13.0968 12.506 12.3222 12.6033 11.5695 12.798L11.5837 12.8115V12.8115ZM17.352 9.3C17.8065 10.2161 18.0196 11.2331 17.9713 12.2546C17.923 13.2761 17.6149 14.2684 17.076 15.1376C16.5371 16.0067 15.7853 16.724 14.8918 17.2215C13.9983 17.719 12.9927 17.9802 11.97 17.9805C11.0439 17.9827 10.1299 17.7699 9.3 17.3588L7.161 18.7388C8.56673 19.7326 10.2485 20.2611 11.97 20.25C16.5428 20.25 20.25 16.5428 20.25 11.97C20.2546 10.2387 19.7163 8.54951 18.711 7.14L17.352 9.3V9.3ZM6.3045 13.9777C5.90296 12.8466 5.84934 11.6211 6.15056 10.4592C6.45178 9.29726 7.09403 8.25217 7.99456 7.45856C8.89509 6.66495 10.0126 6.15918 11.2032 6.00643C12.3938 5.85367 13.6028 6.06093 14.6745 6.6015L16.8135 5.2215C15.2079 4.04521 13.2324 3.48663 11.2486 3.64802C9.26483 3.80942 7.40556 4.68 6.01126 6.10035C4.61696 7.52069 3.78095 9.39576 3.6563 11.3822C3.53164 13.3686 4.1267 15.3335 5.3325 16.917C6.36449 15.0407 7.97316 13.5465 9.92041 12.6555C11.8677 11.7646 14.05 11.5242 16.1445 11.97C16.0621 10.8777 15.551 9.86222 14.7229 9.14515C13.8948 8.42808 12.8167 8.06756 11.7238 8.1422C10.6309 8.21684 9.6118 8.7206 8.88884 9.5436C8.16587 10.3666 7.79766 11.4421 7.8645 12.5355C7.30216 12.9606 6.78224 13.4391 6.312 13.9642L6.3045 13.9777V13.9777Z" fill="black"/>
</svg>
