<svg width="24" height="24" viewBox="0 0 24 24" fill="none" xmlns="http://www.w3.org/2000/svg">
<path d="M12 24C5.37225 24 0 18.6277 0 12C0 5.37225 5.37225 0 12 0C18.6277 0 24 5.37225 24 12C24 18.6277 18.6277 24 12 24ZM13.6995 6.47775C13.3789 6.40178 13.0416 6.4444 12.75 6.59775C12.1147 6.8865 11.4465 7.0965 10.7603 7.224C10.456 7.29606 10.1571 7.38877 9.8655 7.5015C9.62212 7.63824 9.36773 7.75439 9.105 7.84875C8.451 7.941 7.2435 7.1385 7.3575 8.38125C7.3575 8.60925 7.5915 8.73 7.52025 9.021C7.44975 9.31275 7.137 9.5685 6.98775 9.79575C6.68127 10.31 6.4423 10.8615 6.27675 11.4367C5.87298 12.7397 5.95124 14.1444 6.49725 15.3945C6.75975 16.0095 7.11 16.584 7.5345 17.1C7.74225 17.3422 7.9245 17.604 8.082 17.8815C8.202 18.21 8.352 18.5265 8.52975 18.8265C8.68338 19.0195 8.88749 19.1662 9.11945 19.2503C9.3514 19.3344 9.60211 19.3525 9.84375 19.3027C10.0921 19.2174 10.3305 19.1055 10.5547 18.969C10.9379 18.8167 11.3389 18.7138 11.748 18.663C13.2409 18.429 14.6026 17.6738 15.5917 16.5315C16.0604 15.966 16.4239 15.321 16.665 14.6273C16.8051 14.2403 16.9073 13.8407 16.9703 13.434C17.0063 13.1783 16.9282 12.531 17.1127 12.3615C17.2327 12.2468 17.5178 12.219 17.6033 12.1118C17.668 11.9706 17.7178 11.823 17.7518 11.6715C17.8868 11.2523 17.0985 10.9185 16.7933 10.776C16.395 10.5345 16.2533 9.8235 16.0043 9.4335C15.663 8.886 15.1657 8.439 14.8672 7.8705C14.5687 7.302 14.5335 6.8685 14.022 6.5985C13.9579 6.56475 13.8912 6.53616 13.8225 6.513C13.695 6.20775 14.256 6.087 14.427 6.108C14.7323 6.198 15.012 6.3585 15.2445 6.57675C15.6915 6.91125 16.572 7.899 17.2192 7.66425C17.8657 7.4295 17.0985 6.28575 16.743 5.98725C16.4525 5.71341 16.1021 5.51116 15.7197 5.39658C15.3373 5.282 14.9334 5.25826 14.5402 5.32725C14.1817 5.4345 13.8877 5.69475 13.7377 6.03675C13.704 6.162 13.5975 6.39 13.7003 6.47775H13.6995ZM17.922 5.02125C17.496 4.91475 16.5015 4.929 16.1962 5.34825C16.5015 5.5185 16.7145 5.781 17.0272 5.7885C17.34 5.796 17.7022 5.49675 18.0997 5.66775C17.9295 5.66775 17.1622 5.81025 17.1127 6.04425C17.22 6.2205 17.349 6.3825 17.496 6.52725C17.6955 6.69075 17.7165 6.74775 18.015 6.58425C18.3804 6.35358 18.6561 6.00513 18.7965 5.5965C18.7965 5.3835 18.8602 5.52525 18.7042 5.34825C18.4749 5.17604 18.2064 5.06366 17.9227 5.02125H17.922ZM13.9155 5.39775C14.4925 5.08992 15.163 5.00631 15.798 5.163C15.7366 4.47872 15.4166 3.8436 14.9033 3.387C15.5183 3.7695 15.951 4.3845 16.1033 5.09175C16.452 5.0355 16.8143 4.9005 17.148 4.85025C17.0878 4.17009 16.7883 3.53333 16.3027 3.05325C16.068 2.83275 15.4073 2.25 15.03 2.25C14.6528 2.25 14.163 3.10275 14.0212 3.45075C13.7781 4.07159 13.7408 4.7541 13.9147 5.39775H13.9155ZM17.3333 11.7922C17.226 12.0337 16.8068 12.1763 16.6223 12.432C16.3567 12.9112 16.0024 13.3355 15.5782 13.6823C15.151 13.9049 14.6594 13.9714 14.1883 13.8702C13.7173 13.769 13.2964 13.5065 12.9982 13.128C12.6837 12.735 12.5132 12.2461 12.5153 11.7427C12.5153 11.352 12.942 10.371 12.5153 10.158C12.0893 9.945 11.8905 10.6342 11.727 10.869C11.441 11.3437 11.0063 11.7107 10.4903 11.913C10.0888 12.0489 9.65792 12.0731 9.24376 11.983C8.8296 11.8929 8.44773 11.6919 8.139 11.4015C7.93257 11.1078 7.79525 10.7711 7.73732 10.4168C7.6794 10.0625 7.70236 9.69968 7.8045 9.3555C7.81402 9.00486 7.78307 8.65429 7.71225 8.31075C7.71225 7.79925 8.16 7.98375 8.52225 8.055C9.42032 8.21493 10.2734 8.5664 11.0235 9.0855C11.728 9.67069 12.5727 10.0623 13.4745 10.2217C14.0782 10.2787 14.6768 10.3807 15.2655 10.5277C15.5565 10.6132 15.8265 10.755 16.1108 10.8547C16.4108 10.9522 16.7017 11.0775 16.9777 11.2313C17.1697 11.316 17.4465 11.4863 17.34 11.7638L17.3325 11.7922H17.3333Z" fill="black"/>
</svg>
