<svg width="48" height="48" viewBox="0 0 24 24" fill="none" xmlns="http://www.w3.org/2000/svg">
<path d="M12 24C5.37225 24 0 18.6277 0 12C0 5.37225 5.37225 0 12 0C18.6277 0 24 5.37225 24 12C24 18.6277 18.6277 24 12 24ZM8.9175 4.5L6.75 5.463V7.63575L12.5198 10.4385L6.75 13.296V15.438L15.0855 19.4512L17.2192 18.4905V11.7773L15.0855 12.7485V17.3123L9.4245 14.5598L15.0855 11.637L17.2192 10.6762L17.2095 8.53125L8.9175 4.5Z" fill="black"/>
<path d="M6.75 5.46075L15.0855 9.498L17.2192 8.5365L8.91825 4.5L6.75 5.46075Z" fill="black" fill-opacity="0.65"/>
<path d="M15.0855 9.48828L17.2193 8.52753V10.6763L15.0855 11.637V9.48828ZM15.0855 19.4513V12.7485L17.2193 11.7773V18.4905L15.0855 19.4513Z" fill="black" fill-opacity="0.3"/>
</svg>
