<svg width="24" height="24" viewBox="0 0 24 24" fill="none" xmlns="http://www.w3.org/2000/svg">
<path d="M12 24C18.6274 24 24 18.6274 24 12C24 5.37258 18.6274 0 12 0C5.37258 0 0 5.37258 0 12C0 18.6274 5.37258 24 12 24Z" fill="#00004D"/>
<path d="M11.6287 4.70548C11.5597 4.99798 11.3527 5.92048 11.2582 6.53848C11.2207 6.79198 11.0632 7.13023 11.5027 7.31248C11.4022 7.33198 11.3715 7.34473 11.34 7.33798C11.0265 7.29898 10.7062 7.25398 10.3927 7.21498C10.3237 7.20823 10.236 7.19548 10.173 7.22773C9.75299 7.44898 9.56549 7.97548 9.77774 8.42398C9.89774 8.67748 9.93524 8.91148 9.88499 9.17848C9.87859 9.24766 9.89157 9.31725 9.92249 9.37948C10.167 9.97798 10.2112 10.5757 10.0162 11.1997C9.98474 11.2972 10.0042 11.415 10.0102 11.5185C10.023 11.7202 10.035 11.922 10.0537 12.123C9.74624 11.8762 9.40874 11.655 9.15074 11.3557C9.02247 11.2051 8.92539 11.0304 8.86514 10.8419C8.80488 10.6534 8.78265 10.4549 8.79974 10.2577C8.80574 10.1797 8.74349 10.0882 8.69324 10.017C8.54849 9.80248 8.37974 9.60748 8.26049 9.37948C8.09099 9.05473 7.88399 8.91823 7.54499 9.02248C7.37624 9.07423 7.21874 9.18448 7.07474 9.29548C6.94949 9.38548 6.84224 9.50323 6.72974 9.60748C6.71699 9.59398 6.69824 9.58123 6.68624 9.56848C6.70499 9.52273 6.71099 9.47098 6.73649 9.42523C6.91199 9.10048 6.90524 9.10648 6.66149 8.83348C6.19049 8.30698 5.78249 7.74148 5.60699 7.02598C5.51924 6.66898 5.41199 6.31723 5.31899 5.96623C4.84799 6.55123 4.78574 8.65873 5.24999 9.49048C5.10524 8.75548 4.96124 8.06023 5.12399 7.34473C5.15549 7.50748 5.17424 7.66348 5.18099 7.82623C5.20574 8.40448 5.34374 8.95123 5.58824 9.46423C5.63849 9.57448 5.78324 9.63973 5.88974 9.71773C5.92724 9.74398 5.97749 9.75673 6.02099 9.77623C6.01499 9.80248 6.01499 9.82873 6.00824 9.84748C5.77649 9.83473 5.55074 9.80848 5.31824 9.80248C5.16824 9.79573 4.99274 9.75673 4.87349 9.82198C4.71599 9.90598 4.59074 10.0695 4.50299 10.2315C4.47824 10.2765 4.60349 10.4587 4.69799 10.5307C4.94849 10.719 5.11799 10.9267 5.08049 11.2777C5.07374 11.3625 5.16824 11.5125 5.24999 11.5447C5.47499 11.6295 5.53799 11.7982 5.57549 12.0127C5.60099 12.1492 5.61974 12.3247 5.70749 12.4027C5.98949 12.663 6.07724 12.975 6.08399 13.3522C6.08999 13.5922 6.21524 13.8397 6.18449 14.0737C6.15899 14.2755 6.19649 14.4247 6.27824 14.5417H6.27224L6.29099 14.5612C6.34124 14.6392 6.41024 14.7037 6.49124 14.763L6.65474 14.919C6.65474 14.919 6.93674 15.2242 6.94274 15.5235C6.94949 15.8227 6.92399 15.861 7.01174 16.128C7.10024 16.3882 7.21874 16.596 7.25699 16.8172C7.29449 17.0385 7.21274 17.103 7.34474 17.2462C7.47599 17.3887 7.62074 17.4862 7.77074 17.6497C7.91549 17.8185 8.12249 17.877 8.26049 18.0202C8.39849 18.1627 8.61749 18.4297 8.78699 18.5985C8.87474 18.69 8.99399 18.7612 9.08174 18.813C9.10724 18.8392 9.11924 18.852 9.11324 18.8655C8.99399 19.125 9.23849 19.119 9.33299 19.203C9.49574 19.3462 9.72824 19.437 9.84674 19.6125C10.0605 19.9312 10.3365 20.094 10.6815 20.1915C10.713 20.1982 10.7505 20.2042 10.7625 20.2237C10.8067 20.2762 10.8375 20.3407 10.8757 20.3992C10.863 20.4187 10.8442 20.4382 10.8315 20.4577C11.1765 20.5815 11.5215 20.7112 11.8665 20.8282C11.9355 20.8545 12.024 20.8545 12.0862 20.8357C12.375 20.7382 12.6637 20.6332 12.9517 20.5297C13.008 20.5102 13.0957 20.4517 13.0897 20.4255C13.0462 20.2177 13.215 20.25 13.3095 20.1982C13.5345 20.0745 13.7985 19.9837 13.968 19.8082C14.175 19.587 14.3632 19.359 14.6392 19.2097C14.7517 19.1445 14.9775 19.119 14.8642 18.8722C14.8582 18.8587 14.9212 18.807 14.9527 18.7747C14.9962 18.735 15.0465 18.7027 15.1095 18.651C15.153 18.6315 15.2032 18.5985 15.285 18.54C15.4672 18.3975 15.843 18.0397 15.9937 17.8507C16.1437 17.6625 16.389 17.4285 16.389 17.4285C16.389 17.4285 16.2315 17.058 16.3327 16.7325L16.8652 16.3365C16.9785 16.0957 17.01 16.0042 17.1352 15.7575C17.2545 15.51 17.2852 15.036 17.4555 14.847C17.6055 14.685 17.7877 14.5545 17.781 14.451C17.8204 14.3405 17.8333 14.2223 17.8185 14.106C17.8005 13.9372 17.856 13.761 17.8755 13.5922C17.8882 13.4497 17.8755 13.3065 17.913 13.17C17.976 12.9487 18.0195 12.6892 18.1575 12.5325C18.3075 12.3637 18.4087 12.2145 18.4275 11.9865C18.4462 11.7915 18.5212 11.6355 18.7162 11.544C18.81 11.499 18.9037 11.343 18.9037 11.2387C18.8977 10.9462 18.9915 10.7385 19.23 10.5825C19.299 10.5375 19.35 10.4587 19.4182 10.407C19.5307 10.3222 19.5127 10.2247 19.4497 10.1145C19.287 9.82198 19.0417 9.71773 18.7162 9.77698C18.471 9.82198 18.1012 9.84748 17.9692 9.84748C17.838 9.84748 17.9317 9.74998 17.9317 9.74998C18.396 9.73723 18.4522 9.35398 18.5587 9.04198C18.6472 8.78173 18.6967 8.50873 18.741 8.23573C18.7852 7.97548 18.7852 7.85173 18.8347 7.44823C18.885 7.04548 19.0042 8.22898 18.816 9.19798C19.1925 8.62573 19.0732 6.55123 18.6532 5.94073C18.6405 5.95348 18.6277 5.96023 18.6277 5.97298C18.609 6.05098 18.597 6.12898 18.5782 6.20698C18.396 7.20148 18.0195 8.09248 17.3235 8.82073C17.0662 9.08698 17.079 9.09373 17.2545 9.43798C17.2732 9.47098 17.2732 9.51598 17.2792 9.56173C17.1292 9.49048 17.0167 9.38623 16.9035 9.28873C16.8047 9.19323 16.6875 9.11869 16.5592 9.06958C16.4308 9.02048 16.2938 8.99782 16.1565 9.00298C15.8565 9.00298 15.774 9.22348 15.6862 9.43798C15.5235 9.82798 15.141 10.0687 15.1282 10.5892C15.1095 11.3497 14.4322 11.733 13.9927 12.24C13.9867 12.2475 13.968 12.234 13.9425 12.234C13.9365 12.2077 13.9177 12.1755 13.9237 12.1492C13.9237 11.6812 14.0497 11.2065 13.8427 10.758C13.83 10.7317 13.836 10.6927 13.8427 10.6672C13.9237 10.0102 13.9995 9.35998 14.0872 8.70973C14.0992 8.62573 14.1435 8.54773 14.181 8.46973C14.4007 8.00173 14.2372 7.46848 13.7925 7.23448C13.7376 7.20956 13.6768 7.20047 13.617 7.20823C13.3717 7.24048 13.134 7.28623 12.8955 7.31848C12.7755 7.33798 12.651 7.33798 12.5317 7.34473C12.525 7.32523 12.519 7.30573 12.513 7.29223C12.7132 7.22773 12.8137 7.10473 12.7702 6.88348L12.318 4.63348C12.306 4.57498 12.2932 4.28248 12.3622 4.43248C12.4312 4.58848 12.651 5.25748 12.7762 5.68048C12.8955 6.08998 12.9892 6.51298 13.0957 6.92848C12.9202 5.76523 12.651 4.63348 11.9857 3.59998C11.8087 3.82185 11.667 4.06978 11.5657 4.33498C11.4043 4.80822 11.2538 5.28509 11.1142 5.76523C11.0077 6.13573 10.7317 6.86398 10.851 6.88273C10.9695 6.90298 11.553 4.71823 11.5905 4.56223C11.628 4.40623 11.6977 4.41223 11.628 4.70473L11.6287 4.70548Z" fill="white"/>
</svg>
