<svg width="48" height="48" viewBox="0 0 24 24" fill="none" xmlns="http://www.w3.org/2000/svg">
<path d="M12 24C5.37225 24 0 18.6277 0 12C0 5.37225 5.37225 0 12 0C18.6277 0 24 5.37225 24 12C24 18.6277 18.6277 24 12 24ZM11.6288 4.7055C11.5598 4.998 11.3527 5.9205 11.2582 6.5385C11.2207 6.792 11.0632 7.13025 11.5027 7.3125C11.4022 7.332 11.3715 7.34475 11.34 7.338C11.0265 7.299 10.7063 7.254 10.3928 7.215C10.3238 7.20825 10.236 7.1955 10.173 7.22775C9.753 7.449 9.5655 7.9755 9.77775 8.424C9.89775 8.6775 9.93525 8.9115 9.885 9.1785C9.8786 9.24768 9.89158 9.31728 9.9225 9.3795C10.167 9.978 10.2112 10.5757 10.0162 11.1997C9.98475 11.2972 10.0043 11.415 10.0103 11.5185C10.023 11.7202 10.035 11.922 10.0537 12.123C9.74625 11.8762 9.40875 11.655 9.15075 11.3557C9.02248 11.2051 8.9254 11.0304 8.86515 10.8419C8.80489 10.6535 8.78266 10.4549 8.79975 10.2578C8.80575 10.1798 8.7435 10.0882 8.69325 10.017C8.5485 9.8025 8.37975 9.6075 8.2605 9.3795C8.091 9.05475 7.884 8.91825 7.545 9.0225C7.37625 9.07425 7.21875 9.1845 7.07475 9.2955C6.9495 9.3855 6.84225 9.50325 6.72975 9.6075C6.717 9.594 6.69825 9.58125 6.68625 9.5685C6.705 9.52275 6.711 9.471 6.7365 9.42525C6.912 9.1005 6.90525 9.1065 6.6615 8.8335C6.1905 8.307 5.7825 7.7415 5.607 7.026C5.51925 6.669 5.412 6.31725 5.319 5.96625C4.848 6.55125 4.78575 8.65875 5.25 9.4905C5.10525 8.7555 4.96125 8.06025 5.124 7.34475C5.1555 7.5075 5.17425 7.6635 5.181 7.82625C5.20575 8.4045 5.34375 8.95125 5.58825 9.46425C5.6385 9.5745 5.78325 9.63975 5.88975 9.71775C5.92725 9.744 5.9775 9.75675 6.021 9.77625C6.015 9.8025 6.015 9.82875 6.00825 9.8475C5.7765 9.83475 5.55075 9.8085 5.31825 9.8025C5.16825 9.79575 4.99275 9.75675 4.8735 9.822C4.716 9.906 4.59075 10.0695 4.503 10.2315C4.47825 10.2765 4.6035 10.4588 4.698 10.5308C4.9485 10.719 5.118 10.9267 5.0805 11.2777C5.07375 11.3625 5.16825 11.5125 5.25 11.5447C5.475 11.6295 5.538 11.7983 5.5755 12.0128C5.601 12.1493 5.61975 12.3248 5.7075 12.4028C5.9895 12.663 6.07725 12.975 6.084 13.3522C6.09 13.5922 6.21525 13.8397 6.1845 14.0737C6.159 14.2755 6.1965 14.4247 6.27825 14.5417H6.27225L6.291 14.5613C6.34125 14.6393 6.41025 14.7038 6.49125 14.763L6.65475 14.919C6.65475 14.919 6.93675 15.2242 6.94275 15.5235C6.9495 15.8227 6.924 15.861 7.01175 16.128C7.10025 16.3882 7.21875 16.596 7.257 16.8173C7.2945 17.0385 7.21275 17.103 7.34475 17.2463C7.476 17.3888 7.62075 17.4863 7.77075 17.6498C7.9155 17.8185 8.1225 17.877 8.2605 18.0203C8.3985 18.1628 8.6175 18.4298 8.787 18.5985C8.87475 18.69 8.994 18.7612 9.08175 18.813C9.10725 18.8392 9.11925 18.852 9.11325 18.8655C8.994 19.125 9.2385 19.119 9.333 19.203C9.49575 19.3463 9.72825 19.437 9.84675 19.6125C10.0605 19.9312 10.3365 20.094 10.6815 20.1915C10.713 20.1983 10.7505 20.2043 10.7625 20.2238C10.8068 20.2763 10.8375 20.3407 10.8758 20.3992C10.863 20.4187 10.8443 20.4383 10.8315 20.4578C11.1765 20.5815 11.5215 20.7112 11.8665 20.8282C11.9355 20.8545 12.024 20.8545 12.0862 20.8358C12.375 20.7383 12.6637 20.6332 12.9517 20.5297C13.008 20.5102 13.0957 20.4517 13.0897 20.4255C13.0462 20.2177 13.215 20.25 13.3095 20.1982C13.5345 20.0745 13.7985 19.9837 13.968 19.8082C14.175 19.587 14.3632 19.359 14.6392 19.2098C14.7517 19.1445 14.9775 19.119 14.8643 18.8723C14.8583 18.8588 14.9213 18.807 14.9528 18.7748C14.9963 18.735 15.0465 18.7028 15.1095 18.651C15.153 18.6315 15.2032 18.5985 15.285 18.54C15.5401 18.3305 15.7772 18.0999 15.9938 17.8508C16.1438 17.6625 16.389 17.4285 16.389 17.4285C16.389 17.4285 16.2315 17.058 16.3328 16.7325L16.8652 16.3365C16.9785 16.0957 17.01 16.0043 17.1353 15.7575C17.2545 15.51 17.2853 15.036 17.4555 14.847C17.6055 14.685 17.7878 14.5545 17.781 14.451C17.8204 14.3405 17.8333 14.2223 17.8185 14.106C17.8005 13.9373 17.856 13.761 17.8755 13.5922C17.8882 13.4497 17.8755 13.3065 17.913 13.17C17.976 12.9487 18.0195 12.6892 18.1575 12.5325C18.3075 12.3637 18.4087 12.2145 18.4275 11.9865C18.4462 11.7915 18.5212 11.6355 18.7162 11.544C18.81 11.499 18.9037 11.343 18.9037 11.2387C18.8977 10.9462 18.9915 10.7385 19.23 10.5825C19.299 10.5375 19.35 10.4588 19.4183 10.407C19.5308 10.3223 19.5128 10.2248 19.4498 10.1145C19.287 9.822 19.0417 9.71775 18.7162 9.777C18.471 9.822 18.1012 9.8475 17.9692 9.8475C17.838 9.8475 17.9318 9.75 17.9318 9.75C18.396 9.73725 18.4523 9.354 18.5588 9.042C18.6473 8.78175 18.6968 8.50875 18.741 8.23575C18.7853 7.9755 18.7853 7.85175 18.8348 7.44825C18.885 7.0455 19.0042 8.229 18.816 9.198C19.1925 8.62575 19.0733 6.55125 18.6533 5.94075C18.6405 5.9535 18.6277 5.96025 18.6277 5.973C18.609 6.051 18.597 6.129 18.5782 6.207C18.396 7.2015 18.0195 8.0925 17.3235 8.82075C17.0662 9.087 17.079 9.09375 17.2545 9.438C17.2733 9.471 17.2732 9.516 17.2792 9.56175C17.1292 9.4905 17.0168 9.38625 16.9035 9.28875C16.8047 9.19325 16.6875 9.11871 16.5592 9.06961C16.4308 9.0205 16.2938 8.99785 16.1565 9.003C15.8565 9.003 15.774 9.2235 15.6863 9.438C15.5235 9.828 15.141 10.0688 15.1282 10.5893C15.1095 11.3498 14.4322 11.733 13.9927 12.24C13.9867 12.2475 13.968 12.234 13.9425 12.234C13.9365 12.2078 13.9178 12.1755 13.9238 12.1492C13.9238 11.6812 14.0498 11.2065 13.8428 10.758C13.83 10.7317 13.836 10.6927 13.8428 10.6672C13.9238 10.0102 13.9995 9.36 14.0873 8.70975C14.0993 8.62575 14.1435 8.54775 14.181 8.46975C14.4008 8.00175 14.2372 7.4685 13.7925 7.2345C13.7376 7.20959 13.6768 7.2005 13.617 7.20825C13.3718 7.2405 13.134 7.28625 12.8955 7.3185C12.7755 7.338 12.651 7.338 12.5317 7.34475C12.525 7.32525 12.519 7.30575 12.513 7.29225C12.7133 7.22775 12.8138 7.10475 12.7703 6.8835L12.318 4.6335C12.306 4.575 12.2932 4.2825 12.3622 4.4325C12.4312 4.5885 12.651 5.2575 12.7762 5.6805C12.8955 6.09 12.9893 6.513 13.0958 6.9285C12.9203 5.76525 12.651 4.6335 11.9857 3.6C11.8087 3.82188 11.667 4.06981 11.5657 4.335C11.4044 4.80824 11.2538 5.28512 11.1143 5.76525C11.0078 6.13575 10.7318 6.864 10.851 6.88275C10.9695 6.903 11.553 4.71825 11.5905 4.56225C11.628 4.40625 11.6977 4.41225 11.628 4.70475L11.6288 4.7055Z" fill="black"/>
</svg>
