<svg width="48" height="48" viewBox="0 0 24 24" fill="none" xmlns="http://www.w3.org/2000/svg">
<path d="M12 24C5.37225 24 0 18.6277 0 12C0 5.37225 5.37225 0 12 0C18.6277 0 24 5.37225 24 12C24 18.6277 18.6277 24 12 24ZM11.622 20.25H12.3907C12.4237 20.2433 12.4575 20.235 12.4913 20.2305C12.7455 20.2028 13.0013 20.1878 13.254 20.148C15.2565 19.827 16.9185 18.891 18.2565 17.3715C18.309 17.3115 18.315 17.2725 18.2648 17.2065C17.6873 16.4415 17.1127 15.6757 16.5375 14.9092C16.5195 14.8852 16.4977 14.8642 16.4745 14.8365L16.3942 14.955C15.8777 15.7184 15.173 16.3358 14.3483 16.7475C14.2695 16.788 14.2208 16.7888 14.1533 16.7213C13.881 16.4453 13.6013 16.1775 13.3245 15.906L12.8257 15.4208C11.1697 16.6583 9.52275 17.8882 7.86825 19.1257C7.896 19.1445 7.90875 19.1558 7.923 19.1633C8.8743 19.7085 9.92573 20.0564 11.0145 20.1863C11.217 20.2103 11.4195 20.229 11.622 20.25V20.25ZM12.3495 3.75H11.6422C11.6062 3.75675 11.5695 3.765 11.5327 3.7695C11.2065 3.80775 10.8765 3.82725 10.5547 3.88575C8.87925 4.1895 7.43475 4.94475 6.2175 6.132C6.03 6.31425 5.8575 6.5115 5.6715 6.7095L7.52175 9.17475L7.59825 9.06225C8.12004 8.28563 8.83601 7.65912 9.675 7.245C9.74475 7.20975 9.7875 7.21575 9.84375 7.27125C10.1955 7.61925 10.551 7.9635 10.905 8.3085C10.9687 8.37075 11.0333 8.43075 11.1 8.49375C12.783 7.28625 14.457 6.08625 16.1385 4.87875C16.1137 4.8615 16.101 4.851 16.086 4.84275C15.0688 4.25858 13.9376 3.90046 12.7695 3.79275C12.6285 3.77925 12.4883 3.76425 12.348 3.75H12.3495ZM4.8435 7.9005C3.84225 9.7155 3.5115 11.619 3.9195 13.6335C4.3005 15.516 5.25 17.067 6.7125 18.3262L9.1575 16.4918C9.14475 16.4663 9.1425 16.4588 9.138 16.455L9.06075 16.4025C8.28428 15.8807 7.65822 15.1643 7.245 14.325C7.212 14.2598 7.21425 14.2185 7.26825 14.1645C7.46025 13.9747 7.647 13.7797 7.83525 13.587L8.59125 12.8115L4.845 7.9005H4.8435ZM15.4747 11.178L19.167 16.0552C20.085 14.5132 20.5575 12.3232 20.0272 10.1093C19.6027 8.3355 18.678 6.86625 17.2853 5.673L14.826 7.518C14.8732 7.55175 14.9002 7.572 14.928 7.59075C15.7152 8.11557 16.3492 8.83965 16.7655 9.68925C16.8015 9.76125 16.803 9.807 16.7415 9.86775C16.5443 10.0627 16.3553 10.2638 16.1633 10.4633L15.4747 11.178V11.178Z" fill="black"/>
</svg>
